G04 (created by PCBNEW (2013-03-02 BZR 3981)-testing) date Tue 05 Mar 2013 10:50:34 AM CET*
%MOIN*%
G04 Gerber Fmt 3.4, Leading zero omitted, Abs format*
%FSLAX34Y34*%
G01*
G70*
G90*
G04 APERTURE LIST*
%ADD10C,3.14961e-06*%
%ADD11C,0.0001*%
%ADD12C,0.019685*%
%ADD13C,0.0688976*%
%ADD14O,0.167323X0.167323*%
%ADD15C,0.0984252*%
%ADD16R,0.0511811X0.0511811*%
%ADD17C,0.0511811*%
%ADD18R,0.0649606X0.0649606*%
%ADD19C,0.0649606*%
%ADD20R,0.0472X0.0472*%
G04 APERTURE END LIST*
G54D10*
G54D11*
G36*
X40887Y-17873D02*
X40887Y-17879D01*
X40884Y-17888D01*
X40880Y-17896D01*
X40875Y-17902D01*
X40875Y-17902D01*
X40871Y-17905D01*
X40865Y-17908D01*
X40856Y-17912D01*
X40847Y-17916D01*
X40847Y-17870D01*
X40846Y-17865D01*
X40844Y-17859D01*
X40839Y-17853D01*
X40834Y-17846D01*
X40827Y-17840D01*
X40821Y-17834D01*
X40814Y-17830D01*
X40814Y-17830D01*
X40809Y-17827D01*
X40805Y-17826D01*
X40801Y-17825D01*
X40796Y-17825D01*
X40796Y-17825D01*
X40783Y-17827D01*
X40770Y-17830D01*
X40756Y-17835D01*
X40742Y-17841D01*
X40730Y-17848D01*
X40729Y-17849D01*
X40721Y-17855D01*
X40713Y-17863D01*
X40704Y-17872D01*
X40696Y-17881D01*
X40689Y-17890D01*
X40686Y-17894D01*
X40683Y-17899D01*
X40679Y-17905D01*
X40676Y-17912D01*
X40672Y-17919D01*
X40669Y-17926D01*
X40665Y-17932D01*
X40663Y-17938D01*
X40661Y-17943D01*
X40660Y-17946D01*
X40660Y-17948D01*
X40660Y-17948D01*
X40661Y-17947D01*
X40665Y-17946D01*
X40670Y-17944D01*
X40676Y-17942D01*
X40684Y-17939D01*
X40691Y-17936D01*
X40710Y-17929D01*
X40729Y-17922D01*
X40747Y-17915D01*
X40764Y-17908D01*
X40780Y-17902D01*
X40795Y-17896D01*
X40808Y-17891D01*
X40819Y-17886D01*
X40829Y-17882D01*
X40835Y-17879D01*
X40840Y-17877D01*
X40844Y-17875D01*
X40846Y-17873D01*
X40847Y-17872D01*
X40847Y-17870D01*
X40847Y-17916D01*
X40846Y-17917D01*
X40833Y-17923D01*
X40818Y-17929D01*
X40801Y-17936D01*
X40782Y-17943D01*
X40762Y-17951D01*
X40740Y-17960D01*
X40716Y-17969D01*
X40713Y-17970D01*
X40674Y-17985D01*
X40677Y-17994D01*
X40679Y-17997D01*
X40680Y-18003D01*
X40683Y-18010D01*
X40686Y-18019D01*
X40690Y-18029D01*
X40694Y-18040D01*
X40699Y-18052D01*
X40704Y-18065D01*
X40706Y-18070D01*
X40730Y-18137D01*
X40725Y-18248D01*
X40725Y-18264D01*
X40724Y-18280D01*
X40723Y-18295D01*
X40723Y-18309D01*
X40722Y-18322D01*
X40722Y-18333D01*
X40721Y-18343D01*
X40721Y-18351D01*
X40721Y-18356D01*
X40720Y-18360D01*
X40720Y-18361D01*
X40720Y-18363D01*
X40718Y-18365D01*
X40715Y-18368D01*
X40711Y-18372D01*
X40707Y-18375D01*
X40701Y-18379D01*
X40694Y-18385D01*
X40691Y-18387D01*
X40691Y-18142D01*
X40661Y-18061D01*
X40655Y-18047D01*
X40650Y-18034D01*
X40646Y-18022D01*
X40641Y-18011D01*
X40638Y-18001D01*
X40634Y-17992D01*
X40632Y-17986D01*
X40630Y-17981D01*
X40629Y-17978D01*
X40629Y-17978D01*
X40626Y-17976D01*
X40622Y-17972D01*
X40617Y-17969D01*
X40610Y-17964D01*
X40603Y-17960D01*
X40596Y-17956D01*
X40589Y-17952D01*
X40588Y-17952D01*
X40573Y-17945D01*
X40557Y-17941D01*
X40543Y-17938D01*
X40529Y-17937D01*
X40520Y-17937D01*
X40508Y-17938D01*
X40494Y-17941D01*
X40479Y-17944D01*
X40464Y-17948D01*
X40456Y-17950D01*
X40452Y-17952D01*
X40448Y-17953D01*
X40447Y-17954D01*
X40447Y-17955D01*
X40447Y-17955D01*
X40448Y-17958D01*
X40450Y-17964D01*
X40452Y-17971D01*
X40455Y-17979D01*
X40459Y-17989D01*
X40464Y-18001D01*
X40469Y-18014D01*
X40475Y-18027D01*
X40481Y-18042D01*
X40487Y-18057D01*
X40494Y-18073D01*
X40500Y-18088D01*
X40507Y-18104D01*
X40513Y-18120D01*
X40519Y-18136D01*
X40526Y-18151D01*
X40532Y-18165D01*
X40537Y-18178D01*
X40542Y-18191D01*
X40547Y-18202D01*
X40551Y-18212D01*
X40555Y-18220D01*
X40557Y-18227D01*
X40559Y-18232D01*
X40560Y-18234D01*
X40561Y-18235D01*
X40562Y-18234D01*
X40565Y-18233D01*
X40570Y-18232D01*
X40571Y-18231D01*
X40592Y-18226D01*
X40613Y-18223D01*
X40626Y-18222D01*
X40635Y-18222D01*
X40645Y-18222D01*
X40655Y-18222D01*
X40665Y-18222D01*
X40674Y-18223D01*
X40681Y-18223D01*
X40682Y-18224D01*
X40687Y-18224D01*
X40689Y-18183D01*
X40691Y-18142D01*
X40691Y-18387D01*
X40687Y-18389D01*
X40686Y-18390D01*
X40686Y-18249D01*
X40686Y-18245D01*
X40686Y-18243D01*
X40685Y-18242D01*
X40685Y-18242D01*
X40683Y-18242D01*
X40679Y-18241D01*
X40673Y-18241D01*
X40667Y-18240D01*
X40662Y-18240D01*
X40638Y-18239D01*
X40615Y-18241D01*
X40593Y-18244D01*
X40573Y-18250D01*
X40559Y-18255D01*
X40543Y-18262D01*
X40543Y-18242D01*
X40487Y-18103D01*
X40479Y-18085D01*
X40472Y-18067D01*
X40465Y-18051D01*
X40459Y-18035D01*
X40453Y-18020D01*
X40448Y-18007D01*
X40443Y-17995D01*
X40439Y-17985D01*
X40435Y-17976D01*
X40433Y-17970D01*
X40431Y-17965D01*
X40430Y-17962D01*
X40429Y-17962D01*
X40429Y-17961D01*
X40427Y-17962D01*
X40424Y-17963D01*
X40419Y-17965D01*
X40417Y-17966D01*
X40400Y-17975D01*
X40383Y-17988D01*
X40367Y-18002D01*
X40353Y-18017D01*
X40344Y-18030D01*
X40338Y-18039D01*
X40331Y-18050D01*
X40325Y-18062D01*
X40319Y-18074D01*
X40313Y-18085D01*
X40310Y-18094D01*
X40305Y-18106D01*
X40335Y-18188D01*
X40365Y-18269D01*
X40394Y-18297D01*
X40402Y-18305D01*
X40409Y-18311D01*
X40414Y-18316D01*
X40418Y-18320D01*
X40421Y-18322D01*
X40423Y-18324D01*
X40424Y-18324D01*
X40425Y-18324D01*
X40425Y-18324D01*
X40427Y-18323D01*
X40430Y-18320D01*
X40435Y-18316D01*
X40440Y-18312D01*
X40442Y-18310D01*
X40458Y-18297D01*
X40473Y-18285D01*
X40487Y-18275D01*
X40501Y-18266D01*
X40513Y-18258D01*
X40525Y-18251D01*
X40528Y-18250D01*
X40543Y-18242D01*
X40543Y-18262D01*
X40543Y-18262D01*
X40527Y-18271D01*
X40511Y-18280D01*
X40494Y-18291D01*
X40492Y-18293D01*
X40488Y-18296D01*
X40483Y-18300D01*
X40477Y-18305D01*
X40470Y-18310D01*
X40463Y-18316D01*
X40457Y-18321D01*
X40451Y-18326D01*
X40446Y-18331D01*
X40442Y-18335D01*
X40439Y-18337D01*
X40437Y-18339D01*
X40437Y-18339D01*
X40438Y-18340D01*
X40441Y-18342D01*
X40444Y-18347D01*
X40450Y-18352D01*
X40455Y-18358D01*
X40462Y-18366D01*
X40470Y-18374D01*
X40474Y-18378D01*
X40512Y-18416D01*
X40518Y-18415D01*
X40522Y-18414D01*
X40528Y-18414D01*
X40533Y-18413D01*
X40548Y-18411D01*
X40563Y-18408D01*
X40580Y-18402D01*
X40597Y-18395D01*
X40615Y-18387D01*
X40633Y-18378D01*
X40639Y-18374D01*
X40645Y-18370D01*
X40652Y-18366D01*
X40659Y-18361D01*
X40665Y-18357D01*
X40671Y-18353D01*
X40676Y-18349D01*
X40680Y-18346D01*
X40681Y-18345D01*
X40681Y-18343D01*
X40682Y-18339D01*
X40682Y-18333D01*
X40683Y-18326D01*
X40683Y-18317D01*
X40684Y-18308D01*
X40684Y-18304D01*
X40684Y-18294D01*
X40685Y-18284D01*
X40685Y-18275D01*
X40685Y-18267D01*
X40686Y-18260D01*
X40686Y-18255D01*
X40686Y-18255D01*
X40686Y-18249D01*
X40686Y-18390D01*
X40683Y-18392D01*
X40678Y-18396D01*
X40675Y-18399D01*
X40673Y-18401D01*
X40672Y-18403D01*
X40672Y-18405D01*
X40672Y-18409D01*
X40673Y-18415D01*
X40673Y-18424D01*
X40674Y-18433D01*
X40674Y-18445D01*
X40675Y-18458D01*
X40676Y-18471D01*
X40676Y-18486D01*
X40677Y-18493D01*
X40678Y-18507D01*
X40678Y-18522D01*
X40679Y-18535D01*
X40679Y-18547D01*
X40680Y-18557D01*
X40680Y-18566D01*
X40680Y-18574D01*
X40681Y-18579D01*
X40681Y-18582D01*
X40681Y-18582D01*
X40680Y-18584D01*
X40681Y-18585D01*
X40683Y-18586D01*
X40686Y-18586D01*
X40691Y-18587D01*
X40695Y-18588D01*
X40701Y-18588D01*
X40709Y-18590D01*
X40718Y-18592D01*
X40727Y-18594D01*
X40735Y-18596D01*
X40741Y-18598D01*
X40744Y-18599D01*
X40756Y-18606D01*
X40769Y-18614D01*
X40780Y-18624D01*
X40790Y-18636D01*
X40796Y-18643D01*
X40802Y-18653D01*
X40807Y-18664D01*
X40812Y-18677D01*
X40816Y-18688D01*
X40818Y-18698D01*
X40819Y-18709D01*
X40819Y-18720D01*
X40819Y-18730D01*
X40817Y-18739D01*
X40817Y-18740D01*
X40813Y-18749D01*
X40807Y-18756D01*
X40801Y-18762D01*
X40797Y-18764D01*
X40791Y-18767D01*
X40781Y-18767D01*
X40781Y-18729D01*
X40781Y-18716D01*
X40780Y-18708D01*
X40779Y-18702D01*
X40778Y-18696D01*
X40777Y-18694D01*
X40772Y-18679D01*
X40764Y-18666D01*
X40755Y-18655D01*
X40745Y-18646D01*
X40734Y-18638D01*
X40726Y-18635D01*
X40722Y-18633D01*
X40715Y-18632D01*
X40707Y-18630D01*
X40699Y-18628D01*
X40691Y-18627D01*
X40684Y-18625D01*
X40680Y-18625D01*
X40676Y-18625D01*
X40673Y-18625D01*
X40672Y-18625D01*
X40672Y-18627D01*
X40672Y-18627D01*
X40671Y-18630D01*
X40670Y-18634D01*
X40669Y-18640D01*
X40668Y-18646D01*
X40667Y-18648D01*
X40666Y-18655D01*
X40665Y-18660D01*
X40664Y-18664D01*
X40664Y-18667D01*
X40665Y-18669D01*
X40665Y-18671D01*
X40667Y-18677D01*
X40669Y-18685D01*
X40670Y-18694D01*
X40671Y-18703D01*
X40672Y-18711D01*
X40672Y-18717D01*
X40672Y-18730D01*
X40726Y-18729D01*
X40781Y-18729D01*
X40781Y-18767D01*
X40642Y-18768D01*
X40642Y-18576D01*
X40638Y-18504D01*
X40638Y-18491D01*
X40637Y-18478D01*
X40636Y-18466D01*
X40636Y-18455D01*
X40635Y-18446D01*
X40635Y-18438D01*
X40635Y-18432D01*
X40634Y-18428D01*
X40634Y-18427D01*
X40634Y-18422D01*
X40620Y-18428D01*
X40600Y-18437D01*
X40579Y-18444D01*
X40557Y-18449D01*
X40540Y-18452D01*
X40537Y-18453D01*
X40536Y-18454D01*
X40534Y-18456D01*
X40532Y-18459D01*
X40529Y-18464D01*
X40528Y-18465D01*
X40519Y-18480D01*
X40511Y-18492D01*
X40503Y-18500D01*
X40497Y-18507D01*
X40490Y-18546D01*
X40490Y-18452D01*
X40490Y-18451D01*
X40489Y-18450D01*
X40487Y-18448D01*
X40484Y-18444D01*
X40480Y-18440D01*
X40475Y-18434D01*
X40468Y-18427D01*
X40462Y-18421D01*
X40454Y-18414D01*
X40449Y-18407D01*
X40443Y-18402D01*
X40438Y-18397D01*
X40435Y-18394D01*
X40433Y-18392D01*
X40433Y-18392D01*
X40431Y-18393D01*
X40428Y-18395D01*
X40424Y-18398D01*
X40419Y-18402D01*
X40418Y-18403D01*
X40412Y-18408D01*
X40405Y-18415D01*
X40399Y-18421D01*
X40393Y-18427D01*
X40388Y-18432D01*
X40384Y-18437D01*
X40381Y-18440D01*
X40380Y-18442D01*
X40381Y-18446D01*
X40383Y-18451D01*
X40387Y-18456D01*
X40393Y-18462D01*
X40399Y-18468D01*
X40407Y-18473D01*
X40415Y-18478D01*
X40423Y-18482D01*
X40432Y-18485D01*
X40439Y-18487D01*
X40441Y-18487D01*
X40447Y-18487D01*
X40453Y-18487D01*
X40459Y-18485D01*
X40460Y-18485D01*
X40464Y-18482D01*
X40469Y-18478D01*
X40475Y-18473D01*
X40480Y-18467D01*
X40485Y-18461D01*
X40488Y-18456D01*
X40490Y-18452D01*
X40490Y-18546D01*
X40485Y-18568D01*
X40483Y-18580D01*
X40481Y-18592D01*
X40479Y-18602D01*
X40477Y-18611D01*
X40476Y-18616D01*
X40476Y-18522D01*
X40475Y-18522D01*
X40472Y-18522D01*
X40469Y-18524D01*
X40462Y-18525D01*
X40453Y-18526D01*
X40444Y-18526D01*
X40434Y-18525D01*
X40425Y-18524D01*
X40424Y-18523D01*
X40410Y-18519D01*
X40397Y-18513D01*
X40385Y-18505D01*
X40373Y-18497D01*
X40363Y-18488D01*
X40354Y-18478D01*
X40347Y-18468D01*
X40343Y-18458D01*
X40343Y-18458D01*
X40341Y-18453D01*
X40341Y-18447D01*
X40341Y-18443D01*
X40341Y-18439D01*
X40341Y-18435D01*
X40343Y-18431D01*
X40345Y-18425D01*
X40346Y-18424D01*
X40349Y-18419D01*
X40352Y-18414D01*
X40356Y-18409D01*
X40361Y-18403D01*
X40365Y-18399D01*
X40371Y-18393D01*
X40378Y-18386D01*
X40385Y-18380D01*
X40391Y-18374D01*
X40405Y-18363D01*
X40388Y-18346D01*
X40383Y-18341D01*
X40378Y-18337D01*
X40374Y-18333D01*
X40372Y-18331D01*
X40371Y-18331D01*
X40370Y-18332D01*
X40368Y-18335D01*
X40365Y-18340D01*
X40361Y-18347D01*
X40357Y-18355D01*
X40352Y-18364D01*
X40346Y-18374D01*
X40342Y-18381D01*
X40315Y-18430D01*
X40297Y-18503D01*
X40293Y-18517D01*
X40290Y-18531D01*
X40287Y-18544D01*
X40284Y-18556D01*
X40281Y-18567D01*
X40279Y-18577D01*
X40278Y-18585D01*
X40276Y-18591D01*
X40276Y-18593D01*
X40273Y-18611D01*
X40277Y-18617D01*
X40280Y-18620D01*
X40282Y-18622D01*
X40283Y-18622D01*
X40284Y-18621D01*
X40297Y-18613D01*
X40310Y-18607D01*
X40324Y-18603D01*
X40325Y-18603D01*
X40332Y-18602D01*
X40341Y-18601D01*
X40351Y-18601D01*
X40361Y-18601D01*
X40370Y-18601D01*
X40379Y-18602D01*
X40381Y-18602D01*
X40398Y-18606D01*
X40413Y-18612D01*
X40427Y-18620D01*
X40440Y-18629D01*
X40445Y-18634D01*
X40448Y-18637D01*
X40451Y-18640D01*
X40452Y-18642D01*
X40452Y-18642D01*
X40453Y-18641D01*
X40453Y-18637D01*
X40455Y-18632D01*
X40456Y-18624D01*
X40458Y-18615D01*
X40460Y-18605D01*
X40462Y-18594D01*
X40464Y-18582D01*
X40467Y-18570D01*
X40469Y-18559D01*
X40471Y-18548D01*
X40473Y-18539D01*
X40474Y-18532D01*
X40475Y-18526D01*
X40476Y-18523D01*
X40476Y-18522D01*
X40476Y-18616D01*
X40476Y-18619D01*
X40475Y-18625D01*
X40474Y-18629D01*
X40474Y-18630D01*
X40474Y-18630D01*
X40477Y-18628D01*
X40479Y-18627D01*
X40483Y-18624D01*
X40488Y-18620D01*
X40491Y-18618D01*
X40504Y-18611D01*
X40519Y-18606D01*
X40535Y-18603D01*
X40551Y-18601D01*
X40568Y-18600D01*
X40583Y-18602D01*
X40598Y-18605D01*
X40612Y-18609D01*
X40616Y-18612D01*
X40621Y-18614D01*
X40626Y-18617D01*
X40628Y-18618D01*
X40633Y-18622D01*
X40637Y-18599D01*
X40642Y-18576D01*
X40642Y-18768D01*
X40634Y-18768D01*
X40634Y-18731D01*
X40633Y-18714D01*
X40631Y-18698D01*
X40628Y-18684D01*
X40623Y-18672D01*
X40617Y-18662D01*
X40609Y-18654D01*
X40602Y-18649D01*
X40594Y-18645D01*
X40586Y-18642D01*
X40578Y-18640D01*
X40568Y-18640D01*
X40561Y-18640D01*
X40547Y-18640D01*
X40536Y-18642D01*
X40526Y-18645D01*
X40516Y-18650D01*
X40515Y-18650D01*
X40505Y-18657D01*
X40496Y-18666D01*
X40488Y-18676D01*
X40483Y-18689D01*
X40479Y-18702D01*
X40478Y-18717D01*
X40477Y-18721D01*
X40477Y-18730D01*
X40536Y-18730D01*
X40548Y-18730D01*
X40561Y-18730D01*
X40574Y-18730D01*
X40585Y-18730D01*
X40596Y-18730D01*
X40605Y-18730D01*
X40611Y-18731D01*
X40614Y-18731D01*
X40634Y-18731D01*
X40634Y-18768D01*
X40510Y-18768D01*
X40483Y-18768D01*
X40455Y-18768D01*
X40440Y-18768D01*
X40440Y-18730D01*
X40439Y-18718D01*
X40437Y-18702D01*
X40433Y-18688D01*
X40428Y-18676D01*
X40421Y-18665D01*
X40412Y-18657D01*
X40401Y-18650D01*
X40389Y-18645D01*
X40381Y-18642D01*
X40374Y-18641D01*
X40365Y-18640D01*
X40356Y-18640D01*
X40347Y-18640D01*
X40338Y-18640D01*
X40333Y-18641D01*
X40321Y-18645D01*
X40311Y-18651D01*
X40302Y-18659D01*
X40295Y-18669D01*
X40290Y-18681D01*
X40286Y-18694D01*
X40283Y-18710D01*
X40283Y-18716D01*
X40282Y-18730D01*
X40361Y-18730D01*
X40440Y-18730D01*
X40440Y-18768D01*
X40428Y-18768D01*
X40401Y-18768D01*
X40375Y-18768D01*
X40349Y-18768D01*
X40325Y-18768D01*
X40301Y-18768D01*
X40279Y-18768D01*
X40258Y-18769D01*
X40256Y-18769D01*
X40256Y-18657D01*
X40256Y-18655D01*
X40255Y-18654D01*
X40253Y-18650D01*
X40250Y-18646D01*
X40246Y-18641D01*
X40246Y-18640D01*
X40242Y-18635D01*
X40239Y-18631D01*
X40236Y-18629D01*
X40234Y-18627D01*
X40232Y-18626D01*
X40230Y-18626D01*
X40224Y-18625D01*
X40215Y-18625D01*
X40210Y-18625D01*
X40210Y-18584D01*
X40210Y-18584D01*
X40209Y-18582D01*
X40207Y-18579D01*
X40203Y-18574D01*
X40199Y-18569D01*
X40194Y-18562D01*
X40193Y-18560D01*
X40189Y-18554D01*
X40185Y-18550D01*
X40182Y-18546D01*
X40180Y-18542D01*
X40178Y-18538D01*
X40176Y-18534D01*
X40174Y-18529D01*
X40172Y-18523D01*
X40170Y-18516D01*
X40167Y-18507D01*
X40164Y-18496D01*
X40162Y-18487D01*
X40160Y-18480D01*
X40158Y-18474D01*
X40156Y-18469D01*
X40155Y-18467D01*
X40155Y-18466D01*
X40154Y-18467D01*
X40153Y-18470D01*
X40152Y-18475D01*
X40151Y-18481D01*
X40150Y-18487D01*
X40149Y-18493D01*
X40149Y-18496D01*
X40148Y-18505D01*
X40148Y-18513D01*
X40149Y-18522D01*
X40151Y-18531D01*
X40154Y-18541D01*
X40158Y-18552D01*
X40163Y-18564D01*
X40170Y-18578D01*
X40170Y-18579D01*
X40175Y-18590D01*
X40180Y-18589D01*
X40184Y-18588D01*
X40189Y-18588D01*
X40196Y-18587D01*
X40198Y-18587D01*
X40205Y-18586D01*
X40209Y-18585D01*
X40210Y-18584D01*
X40210Y-18625D01*
X40206Y-18625D01*
X40195Y-18626D01*
X40185Y-18628D01*
X40174Y-18630D01*
X40165Y-18633D01*
X40159Y-18635D01*
X40147Y-18640D01*
X40137Y-18648D01*
X40127Y-18658D01*
X40119Y-18670D01*
X40112Y-18682D01*
X40107Y-18696D01*
X40106Y-18704D01*
X40104Y-18711D01*
X40104Y-18716D01*
X40104Y-18721D01*
X40104Y-18723D01*
X40105Y-18729D01*
X40152Y-18730D01*
X40164Y-18730D01*
X40176Y-18730D01*
X40188Y-18730D01*
X40199Y-18730D01*
X40209Y-18730D01*
X40217Y-18731D01*
X40221Y-18731D01*
X40243Y-18731D01*
X40243Y-18722D01*
X40244Y-18711D01*
X40245Y-18699D01*
X40247Y-18687D01*
X40250Y-18676D01*
X40253Y-18667D01*
X40254Y-18664D01*
X40255Y-18660D01*
X40256Y-18657D01*
X40256Y-18769D01*
X40238Y-18769D01*
X40220Y-18769D01*
X40204Y-18769D01*
X40191Y-18769D01*
X40179Y-18769D01*
X40169Y-18769D01*
X40165Y-18769D01*
X40150Y-18769D01*
X40137Y-18769D01*
X40127Y-18769D01*
X40118Y-18769D01*
X40111Y-18769D01*
X40106Y-18769D01*
X40102Y-18769D01*
X40098Y-18769D01*
X40096Y-18769D01*
X40094Y-18768D01*
X40092Y-18768D01*
X40085Y-18764D01*
X40078Y-18757D01*
X40072Y-18749D01*
X40068Y-18740D01*
X40065Y-18729D01*
X40065Y-18718D01*
X40065Y-18711D01*
X40068Y-18693D01*
X40073Y-18675D01*
X40080Y-18659D01*
X40089Y-18644D01*
X40099Y-18630D01*
X40111Y-18618D01*
X40125Y-18608D01*
X40128Y-18606D01*
X40137Y-18601D01*
X40131Y-18588D01*
X40125Y-18576D01*
X40121Y-18565D01*
X40117Y-18555D01*
X40114Y-18547D01*
X40113Y-18543D01*
X40111Y-18531D01*
X40110Y-18518D01*
X40109Y-18503D01*
X40110Y-18488D01*
X40112Y-18475D01*
X40113Y-18470D01*
X40113Y-18468D01*
X40112Y-18466D01*
X40109Y-18465D01*
X40104Y-18465D01*
X40100Y-18465D01*
X40089Y-18464D01*
X40080Y-18462D01*
X40074Y-18459D01*
X40069Y-18454D01*
X40067Y-18449D01*
X40067Y-18442D01*
X40067Y-18441D01*
X40068Y-18437D01*
X40070Y-18433D01*
X40074Y-18430D01*
X40078Y-18427D01*
X40085Y-18425D01*
X40093Y-18423D01*
X40103Y-18421D01*
X40113Y-18420D01*
X40130Y-18417D01*
X40134Y-18409D01*
X40138Y-18401D01*
X40133Y-18397D01*
X40124Y-18389D01*
X40117Y-18380D01*
X40112Y-18369D01*
X40109Y-18358D01*
X40109Y-18347D01*
X40110Y-18336D01*
X40113Y-18325D01*
X40119Y-18315D01*
X40126Y-18307D01*
X40135Y-18299D01*
X40145Y-18294D01*
X40156Y-18291D01*
X40167Y-18290D01*
X40172Y-18290D01*
X40179Y-18290D01*
X40184Y-18291D01*
X40189Y-18293D01*
X40193Y-18295D01*
X40204Y-18302D01*
X40213Y-18310D01*
X40220Y-18319D01*
X40224Y-18330D01*
X40227Y-18342D01*
X40227Y-18349D01*
X40226Y-18362D01*
X40222Y-18373D01*
X40216Y-18383D01*
X40208Y-18392D01*
X40200Y-18398D01*
X40196Y-18401D01*
X40193Y-18403D01*
X40193Y-18351D01*
X40192Y-18343D01*
X40189Y-18336D01*
X40184Y-18330D01*
X40178Y-18326D01*
X40174Y-18325D01*
X40166Y-18324D01*
X40160Y-18325D01*
X40154Y-18328D01*
X40149Y-18333D01*
X40145Y-18339D01*
X40143Y-18345D01*
X40143Y-18352D01*
X40145Y-18359D01*
X40148Y-18363D01*
X40153Y-18369D01*
X40160Y-18372D01*
X40167Y-18374D01*
X40175Y-18373D01*
X40179Y-18371D01*
X40185Y-18366D01*
X40190Y-18360D01*
X40192Y-18353D01*
X40193Y-18351D01*
X40193Y-18403D01*
X40191Y-18404D01*
X40187Y-18405D01*
X40183Y-18406D01*
X40181Y-18408D01*
X40180Y-18409D01*
X40181Y-18411D01*
X40181Y-18413D01*
X40182Y-18414D01*
X40185Y-18414D01*
X40189Y-18414D01*
X40192Y-18414D01*
X40200Y-18414D01*
X40207Y-18415D01*
X40214Y-18416D01*
X40220Y-18417D01*
X40224Y-18418D01*
X40225Y-18418D01*
X40230Y-18422D01*
X40234Y-18428D01*
X40235Y-18434D01*
X40235Y-18440D01*
X40232Y-18446D01*
X40229Y-18448D01*
X40225Y-18451D01*
X40219Y-18454D01*
X40211Y-18456D01*
X40205Y-18458D01*
X40201Y-18458D01*
X40198Y-18459D01*
X40197Y-18460D01*
X40196Y-18461D01*
X40197Y-18465D01*
X40198Y-18470D01*
X40200Y-18476D01*
X40202Y-18484D01*
X40204Y-18491D01*
X40206Y-18499D01*
X40208Y-18507D01*
X40211Y-18513D01*
X40213Y-18518D01*
X40214Y-18522D01*
X40215Y-18523D01*
X40219Y-18530D01*
X40224Y-18536D01*
X40229Y-18543D01*
X40233Y-18548D01*
X40237Y-18553D01*
X40240Y-18557D01*
X40242Y-18558D01*
X40242Y-18559D01*
X40243Y-18557D01*
X40244Y-18553D01*
X40245Y-18548D01*
X40247Y-18540D01*
X40250Y-18531D01*
X40252Y-18520D01*
X40255Y-18509D01*
X40258Y-18496D01*
X40261Y-18486D01*
X40279Y-18414D01*
X40310Y-18357D01*
X40342Y-18301D01*
X40337Y-18295D01*
X40336Y-18294D01*
X40335Y-18293D01*
X40334Y-18291D01*
X40332Y-18288D01*
X40331Y-18285D01*
X40329Y-18281D01*
X40327Y-18276D01*
X40324Y-18269D01*
X40321Y-18261D01*
X40317Y-18251D01*
X40312Y-18239D01*
X40307Y-18224D01*
X40302Y-18213D01*
X40297Y-18199D01*
X40292Y-18186D01*
X40288Y-18174D01*
X40284Y-18163D01*
X40280Y-18153D01*
X40277Y-18145D01*
X40275Y-18139D01*
X40273Y-18134D01*
X40272Y-18132D01*
X40272Y-18132D01*
X40272Y-18131D01*
X40270Y-18131D01*
X40268Y-18131D01*
X40265Y-18131D01*
X40260Y-18132D01*
X40259Y-18132D01*
X40259Y-18092D01*
X40258Y-18091D01*
X40255Y-18089D01*
X40252Y-18086D01*
X40248Y-18083D01*
X40229Y-18070D01*
X40210Y-18060D01*
X40192Y-18052D01*
X40173Y-18046D01*
X40155Y-18043D01*
X40140Y-18043D01*
X40130Y-18043D01*
X40120Y-18044D01*
X40112Y-18045D01*
X40102Y-18048D01*
X40100Y-18048D01*
X40090Y-18052D01*
X40082Y-18056D01*
X40076Y-18059D01*
X40071Y-18063D01*
X40070Y-18065D01*
X40064Y-18074D01*
X40060Y-18085D01*
X40058Y-18092D01*
X40057Y-18097D01*
X40056Y-18104D01*
X40056Y-18110D01*
X40056Y-18116D01*
X40057Y-18120D01*
X40058Y-18121D01*
X40059Y-18123D01*
X40060Y-18124D01*
X40062Y-18124D01*
X40065Y-18124D01*
X40070Y-18124D01*
X40077Y-18123D01*
X40081Y-18122D01*
X40091Y-18121D01*
X40104Y-18119D01*
X40118Y-18117D01*
X40134Y-18114D01*
X40150Y-18112D01*
X40166Y-18109D01*
X40183Y-18106D01*
X40190Y-18105D01*
X40205Y-18102D01*
X40218Y-18100D01*
X40229Y-18098D01*
X40237Y-18096D01*
X40244Y-18095D01*
X40250Y-18094D01*
X40254Y-18093D01*
X40256Y-18093D01*
X40258Y-18092D01*
X40259Y-18092D01*
X40259Y-18092D01*
X40259Y-18132D01*
X40253Y-18133D01*
X40248Y-18134D01*
X40234Y-18137D01*
X40218Y-18140D01*
X40201Y-18143D01*
X40184Y-18146D01*
X40166Y-18149D01*
X40149Y-18151D01*
X40133Y-18154D01*
X40119Y-18156D01*
X40112Y-18158D01*
X40099Y-18159D01*
X40089Y-18161D01*
X40080Y-18162D01*
X40072Y-18162D01*
X40064Y-18162D01*
X40063Y-18162D01*
X40045Y-18163D01*
X40039Y-18158D01*
X40031Y-18151D01*
X40024Y-18142D01*
X40020Y-18132D01*
X40017Y-18120D01*
X40017Y-18106D01*
X40018Y-18097D01*
X40020Y-18081D01*
X40025Y-18067D01*
X40031Y-18054D01*
X40038Y-18042D01*
X40047Y-18032D01*
X40056Y-18025D01*
X40062Y-18021D01*
X40082Y-18013D01*
X40102Y-18007D01*
X40123Y-18004D01*
X40144Y-18003D01*
X40165Y-18005D01*
X40187Y-18009D01*
X40208Y-18016D01*
X40229Y-18025D01*
X40236Y-18029D01*
X40245Y-18034D01*
X40254Y-18040D01*
X40263Y-18045D01*
X40271Y-18050D01*
X40277Y-18055D01*
X40282Y-18059D01*
X40287Y-18049D01*
X40300Y-18025D01*
X40314Y-18004D01*
X40329Y-17984D01*
X40346Y-17967D01*
X40363Y-17952D01*
X40380Y-17941D01*
X40399Y-17931D01*
X40419Y-17922D01*
X40441Y-17914D01*
X40446Y-17912D01*
X40468Y-17906D01*
X40489Y-17902D01*
X40508Y-17899D01*
X40527Y-17898D01*
X40544Y-17899D01*
X40562Y-17901D01*
X40578Y-17906D01*
X40595Y-17912D01*
X40609Y-17919D01*
X40625Y-17927D01*
X40629Y-17918D01*
X40639Y-17895D01*
X40652Y-17874D01*
X40665Y-17856D01*
X40680Y-17839D01*
X40696Y-17824D01*
X40714Y-17812D01*
X40732Y-17802D01*
X40752Y-17794D01*
X40769Y-17789D01*
X40781Y-17787D01*
X40793Y-17786D01*
X40804Y-17786D01*
X40814Y-17788D01*
X40821Y-17790D01*
X40833Y-17795D01*
X40844Y-17802D01*
X40854Y-17811D01*
X40864Y-17820D01*
X40872Y-17830D01*
X40879Y-17841D01*
X40883Y-17852D01*
X40886Y-17863D01*
X40887Y-17873D01*
X40887Y-17873D01*
X40887Y-17873D01*
G37*
G36*
X40453Y-18603D02*
X40452Y-18607D01*
X40451Y-18611D01*
X40450Y-18611D01*
X40447Y-18613D01*
X40445Y-18614D01*
X40441Y-18613D01*
X40438Y-18610D01*
X40436Y-18607D01*
X40436Y-18603D01*
X40438Y-18599D01*
X40441Y-18597D01*
X40445Y-18596D01*
X40449Y-18597D01*
X40452Y-18600D01*
X40453Y-18603D01*
X40453Y-18603D01*
X40453Y-18603D01*
G37*
G36*
X40462Y-18570D02*
X40462Y-18574D01*
X40460Y-18577D01*
X40460Y-18578D01*
X40456Y-18580D01*
X40452Y-18580D01*
X40449Y-18579D01*
X40448Y-18578D01*
X40446Y-18574D01*
X40446Y-18570D01*
X40447Y-18568D01*
X40449Y-18564D01*
X40452Y-18563D01*
X40456Y-18563D01*
X40460Y-18565D01*
X40461Y-18567D01*
X40462Y-18570D01*
X40462Y-18570D01*
X40462Y-18570D01*
G37*
G36*
X40470Y-18541D02*
X40469Y-18545D01*
X40466Y-18548D01*
X40462Y-18550D01*
X40458Y-18550D01*
X40458Y-18549D01*
X40454Y-18547D01*
X40452Y-18543D01*
X40452Y-18538D01*
X40454Y-18535D01*
X40457Y-18533D01*
X40460Y-18532D01*
X40464Y-18533D01*
X40468Y-18536D01*
X40469Y-18539D01*
X40470Y-18541D01*
X40470Y-18541D01*
X40470Y-18541D01*
G37*
G36*
X40640Y-18293D02*
X40640Y-18296D01*
X40639Y-18298D01*
X40637Y-18307D01*
X40633Y-18316D01*
X40627Y-18326D01*
X40619Y-18335D01*
X40610Y-18343D01*
X40600Y-18351D01*
X40590Y-18357D01*
X40579Y-18361D01*
X40575Y-18363D01*
X40565Y-18365D01*
X40555Y-18365D01*
X40545Y-18365D01*
X40543Y-18365D01*
X40538Y-18363D01*
X40532Y-18362D01*
X40529Y-18361D01*
X40524Y-18358D01*
X40519Y-18356D01*
X40515Y-18353D01*
X40511Y-18350D01*
X40508Y-18348D01*
X40508Y-18347D01*
X40509Y-18346D01*
X40512Y-18344D01*
X40517Y-18342D01*
X40524Y-18339D01*
X40531Y-18335D01*
X40540Y-18331D01*
X40549Y-18326D01*
X40558Y-18322D01*
X40567Y-18318D01*
X40575Y-18314D01*
X40583Y-18311D01*
X40590Y-18308D01*
X40598Y-18305D01*
X40606Y-18301D01*
X40614Y-18298D01*
X40621Y-18296D01*
X40628Y-18293D01*
X40633Y-18292D01*
X40637Y-18291D01*
X40638Y-18291D01*
X40639Y-18291D01*
X40640Y-18293D01*
X40640Y-18293D01*
X40640Y-18293D01*
G37*
G36*
X40639Y-18254D02*
X40638Y-18259D01*
X40635Y-18262D01*
X40631Y-18263D01*
X40627Y-18263D01*
X40624Y-18261D01*
X40622Y-18257D01*
X40622Y-18253D01*
X40623Y-18249D01*
X40626Y-18246D01*
X40630Y-18245D01*
X40635Y-18246D01*
X40638Y-18249D01*
X40639Y-18254D01*
X40639Y-18254D01*
X40639Y-18254D01*
X40639Y-18254D01*
G37*
G36*
X40670Y-18254D02*
X40669Y-18259D01*
X40666Y-18262D01*
X40662Y-18263D01*
X40658Y-18262D01*
X40655Y-18261D01*
X40653Y-18257D01*
X40652Y-18253D01*
X40654Y-18249D01*
X40655Y-18248D01*
X40658Y-18245D01*
X40662Y-18245D01*
X40666Y-18247D01*
X40668Y-18250D01*
X40670Y-18254D01*
X40670Y-18254D01*
X40670Y-18254D01*
X40670Y-18254D01*
G37*
G36*
X40469Y-18180D02*
X40468Y-18192D01*
X40465Y-18203D01*
X40460Y-18214D01*
X40452Y-18223D01*
X40452Y-18224D01*
X40443Y-18231D01*
X40435Y-18235D01*
X40435Y-18185D01*
X40435Y-18178D01*
X40433Y-18171D01*
X40429Y-18165D01*
X40424Y-18161D01*
X40420Y-18158D01*
X40414Y-18157D01*
X40412Y-18157D01*
X40407Y-18157D01*
X40403Y-18157D01*
X40400Y-18159D01*
X40398Y-18160D01*
X40392Y-18166D01*
X40388Y-18172D01*
X40386Y-18178D01*
X40386Y-18185D01*
X40388Y-18192D01*
X40392Y-18198D01*
X40397Y-18202D01*
X40404Y-18205D01*
X40405Y-18206D01*
X40412Y-18207D01*
X40418Y-18205D01*
X40424Y-18202D01*
X40430Y-18198D01*
X40434Y-18191D01*
X40435Y-18185D01*
X40435Y-18235D01*
X40433Y-18237D01*
X40421Y-18240D01*
X40409Y-18241D01*
X40397Y-18240D01*
X40396Y-18239D01*
X40384Y-18235D01*
X40374Y-18229D01*
X40366Y-18221D01*
X40360Y-18212D01*
X40355Y-18202D01*
X40352Y-18192D01*
X40352Y-18181D01*
X40353Y-18170D01*
X40356Y-18159D01*
X40361Y-18149D01*
X40369Y-18140D01*
X40369Y-18139D01*
X40378Y-18132D01*
X40389Y-18126D01*
X40399Y-18123D01*
X40410Y-18122D01*
X40421Y-18123D01*
X40432Y-18126D01*
X40442Y-18131D01*
X40451Y-18138D01*
X40458Y-18146D01*
X40463Y-18156D01*
X40467Y-18168D01*
X40469Y-18180D01*
X40469Y-18180D01*
X40469Y-18180D01*
G37*
G36*
X40659Y-18109D02*
X40659Y-18120D01*
X40656Y-18131D01*
X40652Y-18141D01*
X40646Y-18151D01*
X40641Y-18157D01*
X40632Y-18164D01*
X40624Y-18168D01*
X40624Y-18112D01*
X40623Y-18106D01*
X40620Y-18099D01*
X40615Y-18094D01*
X40611Y-18092D01*
X40603Y-18090D01*
X40596Y-18090D01*
X40589Y-18092D01*
X40583Y-18096D01*
X40579Y-18101D01*
X40576Y-18108D01*
X40575Y-18115D01*
X40576Y-18122D01*
X40579Y-18128D01*
X40584Y-18133D01*
X40590Y-18137D01*
X40597Y-18139D01*
X40604Y-18138D01*
X40611Y-18136D01*
X40617Y-18132D01*
X40621Y-18126D01*
X40624Y-18119D01*
X40624Y-18112D01*
X40624Y-18168D01*
X40621Y-18170D01*
X40609Y-18173D01*
X40597Y-18174D01*
X40586Y-18172D01*
X40584Y-18172D01*
X40573Y-18167D01*
X40563Y-18161D01*
X40554Y-18152D01*
X40547Y-18143D01*
X40543Y-18131D01*
X40542Y-18130D01*
X40541Y-18126D01*
X40541Y-18120D01*
X40541Y-18114D01*
X40541Y-18113D01*
X40542Y-18101D01*
X40545Y-18090D01*
X40551Y-18080D01*
X40559Y-18071D01*
X40569Y-18063D01*
X40580Y-18058D01*
X40592Y-18055D01*
X40604Y-18055D01*
X40610Y-18055D01*
X40621Y-18059D01*
X40632Y-18064D01*
X40640Y-18071D01*
X40648Y-18079D01*
X40653Y-18088D01*
X40657Y-18098D01*
X40659Y-18109D01*
X40659Y-18109D01*
X40659Y-18109D01*
G37*
G36*
X40500Y-18032D02*
X40499Y-18037D01*
X40496Y-18040D01*
X40491Y-18041D01*
X40491Y-18041D01*
X40488Y-18040D01*
X40486Y-18039D01*
X40483Y-18037D01*
X40483Y-18033D01*
X40483Y-18032D01*
X40483Y-18028D01*
X40485Y-18025D01*
X40486Y-18025D01*
X40490Y-18023D01*
X40494Y-18024D01*
X40497Y-18026D01*
X40499Y-18030D01*
X40500Y-18032D01*
X40500Y-18032D01*
X40500Y-18032D01*
G37*
G36*
X40488Y-18006D02*
X40486Y-18010D01*
X40485Y-18011D01*
X40482Y-18012D01*
X40477Y-18012D01*
X40474Y-18011D01*
X40473Y-18010D01*
X40471Y-18006D01*
X40471Y-18002D01*
X40472Y-17998D01*
X40473Y-17997D01*
X40476Y-17996D01*
X40480Y-17995D01*
X40484Y-17996D01*
X40486Y-17998D01*
X40488Y-18001D01*
X40488Y-18006D01*
X40488Y-18006D01*
X40488Y-18006D01*
G37*
G36*
X40474Y-17973D02*
X40473Y-17977D01*
X40473Y-17978D01*
X40470Y-17981D01*
X40466Y-17982D01*
X40462Y-17981D01*
X40462Y-17981D01*
X40459Y-17979D01*
X40457Y-17977D01*
X40457Y-17973D01*
X40458Y-17968D01*
X40461Y-17966D01*
X40465Y-17965D01*
X40469Y-17965D01*
X40471Y-17967D01*
X40472Y-17967D01*
X40473Y-17969D01*
X40474Y-17973D01*
X40474Y-17973D01*
X40474Y-17973D01*
G37*
G36*
X30848Y-17873D02*
X30848Y-17879D01*
X30845Y-17888D01*
X30841Y-17896D01*
X30836Y-17902D01*
X30836Y-17902D01*
X30832Y-17905D01*
X30826Y-17908D01*
X30817Y-17912D01*
X30808Y-17916D01*
X30808Y-17870D01*
X30807Y-17865D01*
X30805Y-17859D01*
X30800Y-17853D01*
X30795Y-17846D01*
X30788Y-17840D01*
X30782Y-17834D01*
X30775Y-17830D01*
X30775Y-17830D01*
X30770Y-17827D01*
X30766Y-17826D01*
X30762Y-17825D01*
X30757Y-17825D01*
X30757Y-17825D01*
X30744Y-17827D01*
X30731Y-17830D01*
X30717Y-17835D01*
X30703Y-17841D01*
X30691Y-17848D01*
X30690Y-17849D01*
X30682Y-17855D01*
X30674Y-17863D01*
X30665Y-17872D01*
X30657Y-17881D01*
X30650Y-17890D01*
X30647Y-17894D01*
X30644Y-17899D01*
X30640Y-17905D01*
X30637Y-17912D01*
X30633Y-17919D01*
X30630Y-17926D01*
X30626Y-17932D01*
X30624Y-17938D01*
X30622Y-17943D01*
X30621Y-17946D01*
X30621Y-17948D01*
X30621Y-17948D01*
X30622Y-17947D01*
X30626Y-17946D01*
X30631Y-17944D01*
X30637Y-17942D01*
X30645Y-17939D01*
X30652Y-17936D01*
X30671Y-17929D01*
X30690Y-17922D01*
X30708Y-17915D01*
X30725Y-17908D01*
X30741Y-17902D01*
X30756Y-17896D01*
X30769Y-17891D01*
X30780Y-17886D01*
X30790Y-17882D01*
X30796Y-17879D01*
X30801Y-17877D01*
X30805Y-17875D01*
X30807Y-17873D01*
X30808Y-17872D01*
X30808Y-17870D01*
X30808Y-17916D01*
X30807Y-17917D01*
X30794Y-17923D01*
X30779Y-17929D01*
X30762Y-17936D01*
X30743Y-17943D01*
X30723Y-17951D01*
X30701Y-17960D01*
X30677Y-17969D01*
X30674Y-17970D01*
X30635Y-17985D01*
X30638Y-17994D01*
X30640Y-17997D01*
X30641Y-18003D01*
X30644Y-18010D01*
X30647Y-18019D01*
X30651Y-18029D01*
X30655Y-18040D01*
X30660Y-18052D01*
X30665Y-18065D01*
X30667Y-18070D01*
X30691Y-18137D01*
X30686Y-18248D01*
X30686Y-18264D01*
X30685Y-18280D01*
X30684Y-18295D01*
X30684Y-18309D01*
X30683Y-18322D01*
X30683Y-18333D01*
X30682Y-18343D01*
X30682Y-18351D01*
X30682Y-18356D01*
X30681Y-18360D01*
X30681Y-18361D01*
X30681Y-18363D01*
X30679Y-18365D01*
X30676Y-18368D01*
X30672Y-18372D01*
X30668Y-18375D01*
X30662Y-18379D01*
X30655Y-18385D01*
X30652Y-18387D01*
X30652Y-18142D01*
X30622Y-18061D01*
X30616Y-18047D01*
X30611Y-18034D01*
X30607Y-18022D01*
X30602Y-18011D01*
X30599Y-18001D01*
X30595Y-17992D01*
X30593Y-17986D01*
X30591Y-17981D01*
X30590Y-17978D01*
X30590Y-17978D01*
X30587Y-17976D01*
X30583Y-17972D01*
X30578Y-17969D01*
X30571Y-17964D01*
X30564Y-17960D01*
X30557Y-17956D01*
X30550Y-17952D01*
X30549Y-17952D01*
X30534Y-17945D01*
X30518Y-17941D01*
X30504Y-17938D01*
X30490Y-17937D01*
X30481Y-17937D01*
X30469Y-17938D01*
X30455Y-17941D01*
X30440Y-17944D01*
X30425Y-17948D01*
X30417Y-17950D01*
X30413Y-17952D01*
X30409Y-17953D01*
X30408Y-17954D01*
X30408Y-17955D01*
X30408Y-17955D01*
X30409Y-17958D01*
X30411Y-17964D01*
X30413Y-17971D01*
X30416Y-17979D01*
X30420Y-17989D01*
X30425Y-18001D01*
X30430Y-18014D01*
X30436Y-18027D01*
X30442Y-18042D01*
X30448Y-18057D01*
X30455Y-18073D01*
X30461Y-18088D01*
X30468Y-18104D01*
X30474Y-18120D01*
X30480Y-18136D01*
X30487Y-18151D01*
X30493Y-18165D01*
X30498Y-18178D01*
X30503Y-18191D01*
X30508Y-18202D01*
X30512Y-18212D01*
X30516Y-18220D01*
X30518Y-18227D01*
X30520Y-18232D01*
X30521Y-18234D01*
X30522Y-18235D01*
X30523Y-18234D01*
X30526Y-18233D01*
X30531Y-18232D01*
X30532Y-18231D01*
X30553Y-18226D01*
X30574Y-18223D01*
X30587Y-18222D01*
X30596Y-18222D01*
X30606Y-18222D01*
X30616Y-18222D01*
X30626Y-18222D01*
X30635Y-18223D01*
X30642Y-18223D01*
X30643Y-18224D01*
X30648Y-18224D01*
X30650Y-18183D01*
X30652Y-18142D01*
X30652Y-18387D01*
X30648Y-18389D01*
X30647Y-18390D01*
X30647Y-18249D01*
X30647Y-18245D01*
X30647Y-18243D01*
X30646Y-18242D01*
X30646Y-18242D01*
X30644Y-18242D01*
X30640Y-18241D01*
X30634Y-18241D01*
X30628Y-18240D01*
X30623Y-18240D01*
X30599Y-18239D01*
X30576Y-18241D01*
X30554Y-18244D01*
X30534Y-18250D01*
X30520Y-18255D01*
X30504Y-18262D01*
X30504Y-18242D01*
X30448Y-18103D01*
X30440Y-18085D01*
X30433Y-18067D01*
X30426Y-18051D01*
X30420Y-18035D01*
X30414Y-18020D01*
X30409Y-18007D01*
X30404Y-17995D01*
X30400Y-17985D01*
X30396Y-17976D01*
X30394Y-17970D01*
X30392Y-17965D01*
X30391Y-17962D01*
X30390Y-17962D01*
X30390Y-17961D01*
X30388Y-17962D01*
X30385Y-17963D01*
X30380Y-17965D01*
X30378Y-17966D01*
X30361Y-17975D01*
X30344Y-17988D01*
X30328Y-18002D01*
X30314Y-18017D01*
X30305Y-18030D01*
X30299Y-18039D01*
X30292Y-18050D01*
X30286Y-18062D01*
X30280Y-18074D01*
X30274Y-18085D01*
X30271Y-18094D01*
X30266Y-18106D01*
X30296Y-18188D01*
X30326Y-18269D01*
X30355Y-18297D01*
X30363Y-18305D01*
X30370Y-18311D01*
X30375Y-18316D01*
X30379Y-18320D01*
X30382Y-18322D01*
X30384Y-18324D01*
X30385Y-18324D01*
X30386Y-18324D01*
X30386Y-18324D01*
X30388Y-18323D01*
X30391Y-18320D01*
X30396Y-18316D01*
X30401Y-18312D01*
X30403Y-18310D01*
X30419Y-18297D01*
X30434Y-18285D01*
X30448Y-18275D01*
X30462Y-18266D01*
X30474Y-18258D01*
X30486Y-18251D01*
X30489Y-18250D01*
X30504Y-18242D01*
X30504Y-18262D01*
X30504Y-18262D01*
X30488Y-18271D01*
X30472Y-18280D01*
X30455Y-18291D01*
X30453Y-18293D01*
X30449Y-18296D01*
X30444Y-18300D01*
X30438Y-18305D01*
X30431Y-18310D01*
X30424Y-18316D01*
X30418Y-18321D01*
X30412Y-18326D01*
X30407Y-18331D01*
X30403Y-18335D01*
X30400Y-18337D01*
X30398Y-18339D01*
X30398Y-18339D01*
X30399Y-18340D01*
X30402Y-18342D01*
X30405Y-18347D01*
X30411Y-18352D01*
X30416Y-18358D01*
X30423Y-18366D01*
X30431Y-18374D01*
X30435Y-18378D01*
X30473Y-18416D01*
X30479Y-18415D01*
X30483Y-18414D01*
X30489Y-18414D01*
X30494Y-18413D01*
X30509Y-18411D01*
X30524Y-18408D01*
X30541Y-18402D01*
X30558Y-18395D01*
X30576Y-18387D01*
X30594Y-18378D01*
X30600Y-18374D01*
X30606Y-18370D01*
X30613Y-18366D01*
X30620Y-18361D01*
X30626Y-18357D01*
X30632Y-18353D01*
X30637Y-18349D01*
X30641Y-18346D01*
X30642Y-18345D01*
X30642Y-18343D01*
X30643Y-18339D01*
X30643Y-18333D01*
X30644Y-18326D01*
X30644Y-18317D01*
X30645Y-18308D01*
X30645Y-18304D01*
X30645Y-18294D01*
X30646Y-18284D01*
X30646Y-18275D01*
X30646Y-18267D01*
X30647Y-18260D01*
X30647Y-18255D01*
X30647Y-18255D01*
X30647Y-18249D01*
X30647Y-18390D01*
X30644Y-18392D01*
X30639Y-18396D01*
X30636Y-18399D01*
X30634Y-18401D01*
X30633Y-18403D01*
X30633Y-18405D01*
X30633Y-18409D01*
X30634Y-18415D01*
X30634Y-18424D01*
X30635Y-18433D01*
X30635Y-18445D01*
X30636Y-18458D01*
X30637Y-18471D01*
X30637Y-18486D01*
X30638Y-18493D01*
X30639Y-18507D01*
X30639Y-18522D01*
X30640Y-18535D01*
X30640Y-18547D01*
X30641Y-18557D01*
X30641Y-18566D01*
X30641Y-18574D01*
X30642Y-18579D01*
X30642Y-18582D01*
X30642Y-18582D01*
X30641Y-18584D01*
X30642Y-18585D01*
X30644Y-18586D01*
X30647Y-18586D01*
X30652Y-18587D01*
X30656Y-18588D01*
X30662Y-18588D01*
X30670Y-18590D01*
X30679Y-18592D01*
X30688Y-18594D01*
X30696Y-18596D01*
X30702Y-18598D01*
X30705Y-18599D01*
X30717Y-18606D01*
X30730Y-18614D01*
X30741Y-18624D01*
X30751Y-18636D01*
X30757Y-18643D01*
X30763Y-18653D01*
X30768Y-18664D01*
X30773Y-18677D01*
X30777Y-18688D01*
X30779Y-18698D01*
X30780Y-18709D01*
X30780Y-18720D01*
X30780Y-18730D01*
X30778Y-18739D01*
X30778Y-18740D01*
X30774Y-18749D01*
X30768Y-18756D01*
X30762Y-18762D01*
X30758Y-18764D01*
X30752Y-18767D01*
X30742Y-18767D01*
X30742Y-18729D01*
X30742Y-18716D01*
X30741Y-18708D01*
X30740Y-18702D01*
X30739Y-18696D01*
X30738Y-18694D01*
X30733Y-18679D01*
X30725Y-18666D01*
X30716Y-18655D01*
X30706Y-18646D01*
X30695Y-18638D01*
X30687Y-18635D01*
X30683Y-18633D01*
X30676Y-18632D01*
X30668Y-18630D01*
X30660Y-18628D01*
X30652Y-18627D01*
X30645Y-18625D01*
X30641Y-18625D01*
X30637Y-18625D01*
X30634Y-18625D01*
X30633Y-18625D01*
X30633Y-18627D01*
X30633Y-18627D01*
X30632Y-18630D01*
X30631Y-18634D01*
X30630Y-18640D01*
X30629Y-18646D01*
X30628Y-18648D01*
X30627Y-18655D01*
X30626Y-18660D01*
X30625Y-18664D01*
X30625Y-18667D01*
X30626Y-18669D01*
X30626Y-18671D01*
X30628Y-18677D01*
X30630Y-18685D01*
X30631Y-18694D01*
X30632Y-18703D01*
X30633Y-18711D01*
X30633Y-18717D01*
X30633Y-18730D01*
X30687Y-18729D01*
X30742Y-18729D01*
X30742Y-18767D01*
X30603Y-18768D01*
X30603Y-18576D01*
X30599Y-18504D01*
X30599Y-18491D01*
X30598Y-18478D01*
X30597Y-18466D01*
X30597Y-18455D01*
X30596Y-18446D01*
X30596Y-18438D01*
X30596Y-18432D01*
X30595Y-18428D01*
X30595Y-18427D01*
X30595Y-18422D01*
X30581Y-18428D01*
X30561Y-18437D01*
X30540Y-18444D01*
X30518Y-18449D01*
X30501Y-18452D01*
X30498Y-18453D01*
X30497Y-18454D01*
X30495Y-18456D01*
X30493Y-18459D01*
X30490Y-18464D01*
X30489Y-18465D01*
X30480Y-18480D01*
X30472Y-18492D01*
X30464Y-18500D01*
X30458Y-18507D01*
X30451Y-18546D01*
X30451Y-18452D01*
X30451Y-18451D01*
X30450Y-18450D01*
X30448Y-18448D01*
X30445Y-18444D01*
X30441Y-18440D01*
X30436Y-18434D01*
X30429Y-18427D01*
X30423Y-18421D01*
X30415Y-18414D01*
X30410Y-18407D01*
X30404Y-18402D01*
X30399Y-18397D01*
X30396Y-18394D01*
X30394Y-18392D01*
X30394Y-18392D01*
X30392Y-18393D01*
X30389Y-18395D01*
X30385Y-18398D01*
X30380Y-18402D01*
X30379Y-18403D01*
X30373Y-18408D01*
X30366Y-18415D01*
X30360Y-18421D01*
X30354Y-18427D01*
X30349Y-18432D01*
X30345Y-18437D01*
X30342Y-18440D01*
X30341Y-18442D01*
X30342Y-18446D01*
X30344Y-18451D01*
X30348Y-18456D01*
X30354Y-18462D01*
X30360Y-18468D01*
X30368Y-18473D01*
X30376Y-18478D01*
X30384Y-18482D01*
X30393Y-18485D01*
X30400Y-18487D01*
X30402Y-18487D01*
X30408Y-18487D01*
X30414Y-18487D01*
X30420Y-18485D01*
X30421Y-18485D01*
X30425Y-18482D01*
X30430Y-18478D01*
X30436Y-18473D01*
X30441Y-18467D01*
X30446Y-18461D01*
X30449Y-18456D01*
X30451Y-18452D01*
X30451Y-18546D01*
X30446Y-18568D01*
X30444Y-18580D01*
X30442Y-18592D01*
X30440Y-18602D01*
X30438Y-18611D01*
X30437Y-18616D01*
X30437Y-18522D01*
X30436Y-18522D01*
X30433Y-18522D01*
X30430Y-18524D01*
X30423Y-18525D01*
X30414Y-18526D01*
X30405Y-18526D01*
X30395Y-18525D01*
X30386Y-18524D01*
X30385Y-18523D01*
X30371Y-18519D01*
X30358Y-18513D01*
X30346Y-18505D01*
X30334Y-18497D01*
X30324Y-18488D01*
X30315Y-18478D01*
X30308Y-18468D01*
X30304Y-18458D01*
X30304Y-18458D01*
X30302Y-18453D01*
X30302Y-18447D01*
X30302Y-18443D01*
X30302Y-18439D01*
X30302Y-18435D01*
X30304Y-18431D01*
X30306Y-18425D01*
X30307Y-18424D01*
X30310Y-18419D01*
X30313Y-18414D01*
X30317Y-18409D01*
X30322Y-18403D01*
X30326Y-18399D01*
X30332Y-18393D01*
X30339Y-18386D01*
X30346Y-18380D01*
X30352Y-18374D01*
X30366Y-18363D01*
X30349Y-18346D01*
X30344Y-18341D01*
X30339Y-18337D01*
X30335Y-18333D01*
X30333Y-18331D01*
X30332Y-18331D01*
X30331Y-18332D01*
X30329Y-18335D01*
X30326Y-18340D01*
X30322Y-18347D01*
X30318Y-18355D01*
X30313Y-18364D01*
X30307Y-18374D01*
X30303Y-18381D01*
X30276Y-18430D01*
X30258Y-18503D01*
X30254Y-18517D01*
X30251Y-18531D01*
X30248Y-18544D01*
X30245Y-18556D01*
X30242Y-18567D01*
X30240Y-18577D01*
X30239Y-18585D01*
X30237Y-18591D01*
X30237Y-18593D01*
X30234Y-18611D01*
X30238Y-18617D01*
X30241Y-18620D01*
X30243Y-18622D01*
X30244Y-18622D01*
X30245Y-18621D01*
X30258Y-18613D01*
X30271Y-18607D01*
X30285Y-18603D01*
X30286Y-18603D01*
X30293Y-18602D01*
X30302Y-18601D01*
X30312Y-18601D01*
X30322Y-18601D01*
X30331Y-18601D01*
X30340Y-18602D01*
X30342Y-18602D01*
X30359Y-18606D01*
X30374Y-18612D01*
X30388Y-18620D01*
X30401Y-18629D01*
X30406Y-18634D01*
X30409Y-18637D01*
X30412Y-18640D01*
X30413Y-18642D01*
X30413Y-18642D01*
X30414Y-18641D01*
X30414Y-18637D01*
X30416Y-18632D01*
X30417Y-18624D01*
X30419Y-18615D01*
X30421Y-18605D01*
X30423Y-18594D01*
X30425Y-18582D01*
X30428Y-18570D01*
X30430Y-18559D01*
X30432Y-18548D01*
X30434Y-18539D01*
X30435Y-18532D01*
X30436Y-18526D01*
X30437Y-18523D01*
X30437Y-18522D01*
X30437Y-18616D01*
X30437Y-18619D01*
X30436Y-18625D01*
X30435Y-18629D01*
X30435Y-18630D01*
X30435Y-18630D01*
X30438Y-18628D01*
X30440Y-18627D01*
X30444Y-18624D01*
X30449Y-18620D01*
X30452Y-18618D01*
X30465Y-18611D01*
X30480Y-18606D01*
X30496Y-18603D01*
X30512Y-18601D01*
X30529Y-18600D01*
X30544Y-18602D01*
X30559Y-18605D01*
X30573Y-18609D01*
X30577Y-18612D01*
X30582Y-18614D01*
X30587Y-18617D01*
X30589Y-18618D01*
X30594Y-18622D01*
X30598Y-18599D01*
X30603Y-18576D01*
X30603Y-18768D01*
X30595Y-18768D01*
X30595Y-18731D01*
X30594Y-18714D01*
X30592Y-18698D01*
X30589Y-18684D01*
X30584Y-18672D01*
X30578Y-18662D01*
X30570Y-18654D01*
X30563Y-18649D01*
X30555Y-18645D01*
X30547Y-18642D01*
X30539Y-18640D01*
X30529Y-18640D01*
X30522Y-18640D01*
X30508Y-18640D01*
X30497Y-18642D01*
X30487Y-18645D01*
X30477Y-18650D01*
X30476Y-18650D01*
X30466Y-18657D01*
X30457Y-18666D01*
X30449Y-18676D01*
X30444Y-18689D01*
X30440Y-18702D01*
X30439Y-18717D01*
X30438Y-18721D01*
X30438Y-18730D01*
X30497Y-18730D01*
X30509Y-18730D01*
X30522Y-18730D01*
X30535Y-18730D01*
X30546Y-18730D01*
X30557Y-18730D01*
X30566Y-18730D01*
X30572Y-18731D01*
X30575Y-18731D01*
X30595Y-18731D01*
X30595Y-18768D01*
X30471Y-18768D01*
X30444Y-18768D01*
X30416Y-18768D01*
X30401Y-18768D01*
X30401Y-18730D01*
X30400Y-18718D01*
X30398Y-18702D01*
X30394Y-18688D01*
X30389Y-18676D01*
X30382Y-18665D01*
X30373Y-18657D01*
X30362Y-18650D01*
X30350Y-18645D01*
X30342Y-18642D01*
X30335Y-18641D01*
X30326Y-18640D01*
X30317Y-18640D01*
X30308Y-18640D01*
X30299Y-18640D01*
X30294Y-18641D01*
X30282Y-18645D01*
X30272Y-18651D01*
X30263Y-18659D01*
X30256Y-18669D01*
X30251Y-18681D01*
X30247Y-18694D01*
X30244Y-18710D01*
X30244Y-18716D01*
X30243Y-18730D01*
X30322Y-18730D01*
X30401Y-18730D01*
X30401Y-18768D01*
X30389Y-18768D01*
X30362Y-18768D01*
X30336Y-18768D01*
X30310Y-18768D01*
X30286Y-18768D01*
X30262Y-18768D01*
X30240Y-18768D01*
X30219Y-18769D01*
X30217Y-18769D01*
X30217Y-18657D01*
X30217Y-18655D01*
X30216Y-18654D01*
X30214Y-18650D01*
X30211Y-18646D01*
X30207Y-18641D01*
X30207Y-18640D01*
X30203Y-18635D01*
X30200Y-18631D01*
X30197Y-18629D01*
X30195Y-18627D01*
X30193Y-18626D01*
X30191Y-18626D01*
X30185Y-18625D01*
X30176Y-18625D01*
X30171Y-18625D01*
X30171Y-18584D01*
X30171Y-18584D01*
X30170Y-18582D01*
X30168Y-18579D01*
X30164Y-18574D01*
X30160Y-18569D01*
X30155Y-18562D01*
X30154Y-18560D01*
X30150Y-18554D01*
X30146Y-18550D01*
X30143Y-18546D01*
X30141Y-18542D01*
X30139Y-18538D01*
X30137Y-18534D01*
X30135Y-18529D01*
X30133Y-18523D01*
X30131Y-18516D01*
X30128Y-18507D01*
X30125Y-18496D01*
X30123Y-18487D01*
X30121Y-18480D01*
X30119Y-18474D01*
X30117Y-18469D01*
X30116Y-18467D01*
X30116Y-18466D01*
X30115Y-18467D01*
X30114Y-18470D01*
X30113Y-18475D01*
X30112Y-18481D01*
X30111Y-18487D01*
X30110Y-18493D01*
X30110Y-18496D01*
X30109Y-18505D01*
X30109Y-18513D01*
X30110Y-18522D01*
X30112Y-18531D01*
X30115Y-18541D01*
X30119Y-18552D01*
X30124Y-18564D01*
X30131Y-18578D01*
X30131Y-18579D01*
X30136Y-18590D01*
X30141Y-18589D01*
X30145Y-18588D01*
X30150Y-18588D01*
X30157Y-18587D01*
X30159Y-18587D01*
X30166Y-18586D01*
X30170Y-18585D01*
X30171Y-18584D01*
X30171Y-18625D01*
X30167Y-18625D01*
X30156Y-18626D01*
X30146Y-18628D01*
X30135Y-18630D01*
X30126Y-18633D01*
X30120Y-18635D01*
X30108Y-18640D01*
X30098Y-18648D01*
X30088Y-18658D01*
X30080Y-18670D01*
X30073Y-18682D01*
X30068Y-18696D01*
X30067Y-18704D01*
X30065Y-18711D01*
X30065Y-18716D01*
X30065Y-18721D01*
X30065Y-18723D01*
X30066Y-18729D01*
X30113Y-18730D01*
X30125Y-18730D01*
X30137Y-18730D01*
X30149Y-18730D01*
X30160Y-18730D01*
X30170Y-18730D01*
X30178Y-18731D01*
X30182Y-18731D01*
X30204Y-18731D01*
X30204Y-18722D01*
X30205Y-18711D01*
X30206Y-18699D01*
X30208Y-18687D01*
X30211Y-18676D01*
X30214Y-18667D01*
X30215Y-18664D01*
X30216Y-18660D01*
X30217Y-18657D01*
X30217Y-18769D01*
X30199Y-18769D01*
X30181Y-18769D01*
X30165Y-18769D01*
X30152Y-18769D01*
X30140Y-18769D01*
X30130Y-18769D01*
X30126Y-18769D01*
X30111Y-18769D01*
X30098Y-18769D01*
X30088Y-18769D01*
X30079Y-18769D01*
X30072Y-18769D01*
X30067Y-18769D01*
X30063Y-18769D01*
X30059Y-18769D01*
X30057Y-18769D01*
X30055Y-18768D01*
X30053Y-18768D01*
X30046Y-18764D01*
X30039Y-18757D01*
X30033Y-18749D01*
X30029Y-18740D01*
X30026Y-18729D01*
X30026Y-18718D01*
X30026Y-18711D01*
X30029Y-18693D01*
X30034Y-18675D01*
X30041Y-18659D01*
X30050Y-18644D01*
X30060Y-18630D01*
X30072Y-18618D01*
X30086Y-18608D01*
X30089Y-18606D01*
X30098Y-18601D01*
X30092Y-18588D01*
X30086Y-18576D01*
X30082Y-18565D01*
X30078Y-18555D01*
X30075Y-18547D01*
X30074Y-18543D01*
X30072Y-18531D01*
X30071Y-18518D01*
X30070Y-18503D01*
X30071Y-18488D01*
X30073Y-18475D01*
X30074Y-18470D01*
X30074Y-18468D01*
X30073Y-18466D01*
X30070Y-18465D01*
X30065Y-18465D01*
X30061Y-18465D01*
X30050Y-18464D01*
X30041Y-18462D01*
X30035Y-18459D01*
X30030Y-18454D01*
X30028Y-18449D01*
X30028Y-18442D01*
X30028Y-18441D01*
X30029Y-18437D01*
X30031Y-18433D01*
X30035Y-18430D01*
X30039Y-18427D01*
X30046Y-18425D01*
X30054Y-18423D01*
X30064Y-18421D01*
X30074Y-18420D01*
X30091Y-18417D01*
X30095Y-18409D01*
X30099Y-18401D01*
X30094Y-18397D01*
X30085Y-18389D01*
X30078Y-18380D01*
X30073Y-18369D01*
X30070Y-18358D01*
X30070Y-18347D01*
X30071Y-18336D01*
X30074Y-18325D01*
X30080Y-18315D01*
X30087Y-18307D01*
X30096Y-18299D01*
X30106Y-18294D01*
X30117Y-18291D01*
X30128Y-18290D01*
X30133Y-18290D01*
X30140Y-18290D01*
X30145Y-18291D01*
X30150Y-18293D01*
X30154Y-18295D01*
X30165Y-18302D01*
X30174Y-18310D01*
X30181Y-18319D01*
X30185Y-18330D01*
X30188Y-18342D01*
X30188Y-18349D01*
X30187Y-18362D01*
X30183Y-18373D01*
X30177Y-18383D01*
X30169Y-18392D01*
X30161Y-18398D01*
X30157Y-18401D01*
X30154Y-18403D01*
X30154Y-18351D01*
X30153Y-18343D01*
X30150Y-18336D01*
X30145Y-18330D01*
X30139Y-18326D01*
X30135Y-18325D01*
X30127Y-18324D01*
X30121Y-18325D01*
X30115Y-18328D01*
X30110Y-18333D01*
X30106Y-18339D01*
X30104Y-18345D01*
X30104Y-18352D01*
X30106Y-18359D01*
X30109Y-18363D01*
X30114Y-18369D01*
X30121Y-18372D01*
X30128Y-18374D01*
X30136Y-18373D01*
X30140Y-18371D01*
X30146Y-18366D01*
X30151Y-18360D01*
X30153Y-18353D01*
X30154Y-18351D01*
X30154Y-18403D01*
X30152Y-18404D01*
X30148Y-18405D01*
X30144Y-18406D01*
X30142Y-18408D01*
X30141Y-18409D01*
X30142Y-18411D01*
X30142Y-18413D01*
X30143Y-18414D01*
X30146Y-18414D01*
X30150Y-18414D01*
X30153Y-18414D01*
X30161Y-18414D01*
X30168Y-18415D01*
X30175Y-18416D01*
X30181Y-18417D01*
X30185Y-18418D01*
X30186Y-18418D01*
X30191Y-18422D01*
X30195Y-18428D01*
X30196Y-18434D01*
X30196Y-18440D01*
X30193Y-18446D01*
X30190Y-18448D01*
X30186Y-18451D01*
X30180Y-18454D01*
X30172Y-18456D01*
X30166Y-18458D01*
X30162Y-18458D01*
X30159Y-18459D01*
X30158Y-18460D01*
X30157Y-18461D01*
X30158Y-18465D01*
X30159Y-18470D01*
X30161Y-18476D01*
X30163Y-18484D01*
X30165Y-18491D01*
X30167Y-18499D01*
X30169Y-18507D01*
X30172Y-18513D01*
X30174Y-18518D01*
X30175Y-18522D01*
X30176Y-18523D01*
X30180Y-18530D01*
X30185Y-18536D01*
X30190Y-18543D01*
X30194Y-18548D01*
X30198Y-18553D01*
X30201Y-18557D01*
X30203Y-18558D01*
X30203Y-18559D01*
X30204Y-18557D01*
X30205Y-18553D01*
X30206Y-18548D01*
X30208Y-18540D01*
X30211Y-18531D01*
X30213Y-18520D01*
X30216Y-18509D01*
X30219Y-18496D01*
X30222Y-18486D01*
X30240Y-18414D01*
X30271Y-18357D01*
X30303Y-18301D01*
X30298Y-18295D01*
X30297Y-18294D01*
X30296Y-18293D01*
X30295Y-18291D01*
X30293Y-18288D01*
X30292Y-18285D01*
X30290Y-18281D01*
X30288Y-18276D01*
X30285Y-18269D01*
X30282Y-18261D01*
X30278Y-18251D01*
X30273Y-18239D01*
X30268Y-18224D01*
X30263Y-18213D01*
X30258Y-18199D01*
X30253Y-18186D01*
X30249Y-18174D01*
X30245Y-18163D01*
X30241Y-18153D01*
X30238Y-18145D01*
X30236Y-18139D01*
X30234Y-18134D01*
X30233Y-18132D01*
X30233Y-18132D01*
X30233Y-18131D01*
X30231Y-18131D01*
X30229Y-18131D01*
X30226Y-18131D01*
X30221Y-18132D01*
X30220Y-18132D01*
X30220Y-18092D01*
X30219Y-18091D01*
X30216Y-18089D01*
X30213Y-18086D01*
X30209Y-18083D01*
X30190Y-18070D01*
X30171Y-18060D01*
X30153Y-18052D01*
X30134Y-18046D01*
X30116Y-18043D01*
X30101Y-18043D01*
X30091Y-18043D01*
X30081Y-18044D01*
X30073Y-18045D01*
X30063Y-18048D01*
X30061Y-18048D01*
X30051Y-18052D01*
X30043Y-18056D01*
X30037Y-18059D01*
X30032Y-18063D01*
X30031Y-18065D01*
X30025Y-18074D01*
X30021Y-18085D01*
X30019Y-18092D01*
X30018Y-18097D01*
X30017Y-18104D01*
X30017Y-18110D01*
X30017Y-18116D01*
X30018Y-18120D01*
X30019Y-18121D01*
X30020Y-18123D01*
X30021Y-18124D01*
X30023Y-18124D01*
X30026Y-18124D01*
X30031Y-18124D01*
X30038Y-18123D01*
X30042Y-18122D01*
X30052Y-18121D01*
X30065Y-18119D01*
X30079Y-18117D01*
X30095Y-18114D01*
X30111Y-18112D01*
X30127Y-18109D01*
X30144Y-18106D01*
X30151Y-18105D01*
X30166Y-18102D01*
X30179Y-18100D01*
X30190Y-18098D01*
X30198Y-18096D01*
X30205Y-18095D01*
X30211Y-18094D01*
X30215Y-18093D01*
X30217Y-18093D01*
X30219Y-18092D01*
X30220Y-18092D01*
X30220Y-18092D01*
X30220Y-18132D01*
X30214Y-18133D01*
X30209Y-18134D01*
X30195Y-18137D01*
X30179Y-18140D01*
X30162Y-18143D01*
X30145Y-18146D01*
X30127Y-18149D01*
X30110Y-18151D01*
X30094Y-18154D01*
X30080Y-18156D01*
X30073Y-18158D01*
X30060Y-18159D01*
X30050Y-18161D01*
X30041Y-18162D01*
X30033Y-18162D01*
X30025Y-18162D01*
X30024Y-18162D01*
X30006Y-18163D01*
X30000Y-18158D01*
X29992Y-18151D01*
X29985Y-18142D01*
X29981Y-18132D01*
X29978Y-18120D01*
X29978Y-18106D01*
X29979Y-18097D01*
X29981Y-18081D01*
X29986Y-18067D01*
X29992Y-18054D01*
X29999Y-18042D01*
X30008Y-18032D01*
X30017Y-18025D01*
X30023Y-18021D01*
X30043Y-18013D01*
X30063Y-18007D01*
X30084Y-18004D01*
X30105Y-18003D01*
X30126Y-18005D01*
X30148Y-18009D01*
X30169Y-18016D01*
X30190Y-18025D01*
X30197Y-18029D01*
X30206Y-18034D01*
X30215Y-18040D01*
X30224Y-18045D01*
X30232Y-18050D01*
X30238Y-18055D01*
X30243Y-18059D01*
X30248Y-18049D01*
X30261Y-18025D01*
X30275Y-18004D01*
X30290Y-17984D01*
X30307Y-17967D01*
X30324Y-17952D01*
X30341Y-17941D01*
X30360Y-17931D01*
X30380Y-17922D01*
X30402Y-17914D01*
X30407Y-17912D01*
X30429Y-17906D01*
X30450Y-17902D01*
X30469Y-17899D01*
X30488Y-17898D01*
X30505Y-17899D01*
X30523Y-17901D01*
X30539Y-17906D01*
X30556Y-17912D01*
X30570Y-17919D01*
X30586Y-17927D01*
X30590Y-17918D01*
X30600Y-17895D01*
X30613Y-17874D01*
X30626Y-17856D01*
X30641Y-17839D01*
X30657Y-17824D01*
X30675Y-17812D01*
X30693Y-17802D01*
X30713Y-17794D01*
X30730Y-17789D01*
X30742Y-17787D01*
X30754Y-17786D01*
X30765Y-17786D01*
X30775Y-17788D01*
X30782Y-17790D01*
X30794Y-17795D01*
X30805Y-17802D01*
X30815Y-17811D01*
X30825Y-17820D01*
X30833Y-17830D01*
X30840Y-17841D01*
X30844Y-17852D01*
X30847Y-17863D01*
X30848Y-17873D01*
X30848Y-17873D01*
X30848Y-17873D01*
G37*
G36*
X30414Y-18603D02*
X30413Y-18607D01*
X30412Y-18611D01*
X30411Y-18611D01*
X30408Y-18613D01*
X30406Y-18614D01*
X30402Y-18613D01*
X30399Y-18610D01*
X30397Y-18607D01*
X30397Y-18603D01*
X30399Y-18599D01*
X30402Y-18597D01*
X30406Y-18596D01*
X30410Y-18597D01*
X30413Y-18600D01*
X30414Y-18603D01*
X30414Y-18603D01*
X30414Y-18603D01*
G37*
G36*
X30423Y-18570D02*
X30423Y-18574D01*
X30421Y-18577D01*
X30421Y-18578D01*
X30417Y-18580D01*
X30413Y-18580D01*
X30410Y-18579D01*
X30409Y-18578D01*
X30407Y-18574D01*
X30407Y-18570D01*
X30408Y-18568D01*
X30410Y-18564D01*
X30413Y-18563D01*
X30417Y-18563D01*
X30421Y-18565D01*
X30422Y-18567D01*
X30423Y-18570D01*
X30423Y-18570D01*
X30423Y-18570D01*
G37*
G36*
X30431Y-18541D02*
X30430Y-18545D01*
X30427Y-18548D01*
X30423Y-18550D01*
X30419Y-18550D01*
X30419Y-18549D01*
X30415Y-18547D01*
X30413Y-18543D01*
X30413Y-18538D01*
X30415Y-18535D01*
X30418Y-18533D01*
X30421Y-18532D01*
X30425Y-18533D01*
X30429Y-18536D01*
X30430Y-18539D01*
X30431Y-18541D01*
X30431Y-18541D01*
X30431Y-18541D01*
G37*
G36*
X30601Y-18293D02*
X30601Y-18296D01*
X30600Y-18298D01*
X30598Y-18307D01*
X30594Y-18316D01*
X30588Y-18326D01*
X30580Y-18335D01*
X30571Y-18343D01*
X30561Y-18351D01*
X30551Y-18357D01*
X30540Y-18361D01*
X30536Y-18363D01*
X30526Y-18365D01*
X30516Y-18365D01*
X30506Y-18365D01*
X30504Y-18365D01*
X30499Y-18363D01*
X30493Y-18362D01*
X30490Y-18361D01*
X30485Y-18358D01*
X30480Y-18356D01*
X30476Y-18353D01*
X30472Y-18350D01*
X30469Y-18348D01*
X30469Y-18347D01*
X30470Y-18346D01*
X30473Y-18344D01*
X30478Y-18342D01*
X30485Y-18339D01*
X30492Y-18335D01*
X30501Y-18331D01*
X30510Y-18326D01*
X30519Y-18322D01*
X30528Y-18318D01*
X30536Y-18314D01*
X30544Y-18311D01*
X30551Y-18308D01*
X30559Y-18305D01*
X30567Y-18301D01*
X30575Y-18298D01*
X30582Y-18296D01*
X30589Y-18293D01*
X30594Y-18292D01*
X30598Y-18291D01*
X30599Y-18291D01*
X30600Y-18291D01*
X30601Y-18293D01*
X30601Y-18293D01*
X30601Y-18293D01*
G37*
G36*
X30600Y-18254D02*
X30599Y-18259D01*
X30596Y-18262D01*
X30592Y-18263D01*
X30588Y-18263D01*
X30585Y-18261D01*
X30583Y-18257D01*
X30583Y-18253D01*
X30584Y-18249D01*
X30587Y-18246D01*
X30591Y-18245D01*
X30596Y-18246D01*
X30599Y-18249D01*
X30600Y-18254D01*
X30600Y-18254D01*
X30600Y-18254D01*
X30600Y-18254D01*
G37*
G36*
X30631Y-18254D02*
X30630Y-18259D01*
X30627Y-18262D01*
X30623Y-18263D01*
X30619Y-18262D01*
X30616Y-18261D01*
X30614Y-18257D01*
X30613Y-18253D01*
X30615Y-18249D01*
X30616Y-18248D01*
X30619Y-18245D01*
X30623Y-18245D01*
X30627Y-18247D01*
X30629Y-18250D01*
X30631Y-18254D01*
X30631Y-18254D01*
X30631Y-18254D01*
X30631Y-18254D01*
G37*
G36*
X30430Y-18180D02*
X30429Y-18192D01*
X30426Y-18203D01*
X30421Y-18214D01*
X30413Y-18223D01*
X30413Y-18224D01*
X30404Y-18231D01*
X30396Y-18235D01*
X30396Y-18185D01*
X30396Y-18178D01*
X30394Y-18171D01*
X30390Y-18165D01*
X30385Y-18161D01*
X30381Y-18158D01*
X30375Y-18157D01*
X30373Y-18157D01*
X30368Y-18157D01*
X30364Y-18157D01*
X30361Y-18159D01*
X30359Y-18160D01*
X30353Y-18166D01*
X30349Y-18172D01*
X30347Y-18178D01*
X30347Y-18185D01*
X30349Y-18192D01*
X30353Y-18198D01*
X30358Y-18202D01*
X30365Y-18205D01*
X30366Y-18206D01*
X30373Y-18207D01*
X30379Y-18205D01*
X30385Y-18202D01*
X30391Y-18198D01*
X30395Y-18191D01*
X30396Y-18185D01*
X30396Y-18235D01*
X30394Y-18237D01*
X30382Y-18240D01*
X30370Y-18241D01*
X30358Y-18240D01*
X30357Y-18239D01*
X30345Y-18235D01*
X30335Y-18229D01*
X30327Y-18221D01*
X30321Y-18212D01*
X30316Y-18202D01*
X30313Y-18192D01*
X30313Y-18181D01*
X30314Y-18170D01*
X30317Y-18159D01*
X30322Y-18149D01*
X30330Y-18140D01*
X30330Y-18139D01*
X30339Y-18132D01*
X30350Y-18126D01*
X30360Y-18123D01*
X30371Y-18122D01*
X30382Y-18123D01*
X30393Y-18126D01*
X30403Y-18131D01*
X30412Y-18138D01*
X30419Y-18146D01*
X30424Y-18156D01*
X30428Y-18168D01*
X30430Y-18180D01*
X30430Y-18180D01*
X30430Y-18180D01*
G37*
G36*
X30620Y-18109D02*
X30620Y-18120D01*
X30617Y-18131D01*
X30613Y-18141D01*
X30607Y-18151D01*
X30602Y-18157D01*
X30593Y-18164D01*
X30585Y-18168D01*
X30585Y-18112D01*
X30584Y-18106D01*
X30581Y-18099D01*
X30576Y-18094D01*
X30572Y-18092D01*
X30564Y-18090D01*
X30557Y-18090D01*
X30550Y-18092D01*
X30544Y-18096D01*
X30540Y-18101D01*
X30537Y-18108D01*
X30536Y-18115D01*
X30537Y-18122D01*
X30540Y-18128D01*
X30545Y-18133D01*
X30551Y-18137D01*
X30558Y-18139D01*
X30565Y-18138D01*
X30572Y-18136D01*
X30578Y-18132D01*
X30582Y-18126D01*
X30585Y-18119D01*
X30585Y-18112D01*
X30585Y-18168D01*
X30582Y-18170D01*
X30570Y-18173D01*
X30558Y-18174D01*
X30547Y-18172D01*
X30545Y-18172D01*
X30534Y-18167D01*
X30524Y-18161D01*
X30515Y-18152D01*
X30508Y-18143D01*
X30504Y-18131D01*
X30503Y-18130D01*
X30502Y-18126D01*
X30502Y-18120D01*
X30502Y-18114D01*
X30502Y-18113D01*
X30503Y-18101D01*
X30506Y-18090D01*
X30512Y-18080D01*
X30520Y-18071D01*
X30530Y-18063D01*
X30541Y-18058D01*
X30553Y-18055D01*
X30565Y-18055D01*
X30571Y-18055D01*
X30582Y-18059D01*
X30593Y-18064D01*
X30601Y-18071D01*
X30609Y-18079D01*
X30614Y-18088D01*
X30618Y-18098D01*
X30620Y-18109D01*
X30620Y-18109D01*
X30620Y-18109D01*
G37*
G36*
X30461Y-18032D02*
X30460Y-18037D01*
X30457Y-18040D01*
X30452Y-18041D01*
X30452Y-18041D01*
X30449Y-18040D01*
X30447Y-18039D01*
X30444Y-18037D01*
X30444Y-18033D01*
X30444Y-18032D01*
X30444Y-18028D01*
X30446Y-18025D01*
X30447Y-18025D01*
X30451Y-18023D01*
X30455Y-18024D01*
X30458Y-18026D01*
X30460Y-18030D01*
X30461Y-18032D01*
X30461Y-18032D01*
X30461Y-18032D01*
G37*
G36*
X30449Y-18006D02*
X30447Y-18010D01*
X30446Y-18011D01*
X30443Y-18012D01*
X30438Y-18012D01*
X30435Y-18011D01*
X30434Y-18010D01*
X30432Y-18006D01*
X30432Y-18002D01*
X30433Y-17998D01*
X30434Y-17997D01*
X30437Y-17996D01*
X30441Y-17995D01*
X30445Y-17996D01*
X30447Y-17998D01*
X30449Y-18001D01*
X30449Y-18006D01*
X30449Y-18006D01*
X30449Y-18006D01*
G37*
G36*
X30435Y-17973D02*
X30434Y-17977D01*
X30434Y-17978D01*
X30431Y-17981D01*
X30427Y-17982D01*
X30423Y-17981D01*
X30423Y-17981D01*
X30420Y-17979D01*
X30418Y-17977D01*
X30418Y-17973D01*
X30419Y-17968D01*
X30422Y-17966D01*
X30426Y-17965D01*
X30430Y-17965D01*
X30432Y-17967D01*
X30433Y-17967D01*
X30434Y-17969D01*
X30435Y-17973D01*
X30435Y-17973D01*
X30435Y-17973D01*
G37*
G36*
X30848Y-27912D02*
X30848Y-27918D01*
X30845Y-27927D01*
X30841Y-27935D01*
X30836Y-27941D01*
X30836Y-27941D01*
X30832Y-27944D01*
X30826Y-27947D01*
X30817Y-27951D01*
X30808Y-27955D01*
X30808Y-27909D01*
X30807Y-27904D01*
X30805Y-27898D01*
X30800Y-27892D01*
X30795Y-27885D01*
X30788Y-27879D01*
X30782Y-27873D01*
X30775Y-27869D01*
X30775Y-27869D01*
X30770Y-27866D01*
X30766Y-27865D01*
X30762Y-27864D01*
X30757Y-27864D01*
X30757Y-27864D01*
X30744Y-27866D01*
X30731Y-27869D01*
X30717Y-27874D01*
X30703Y-27880D01*
X30691Y-27887D01*
X30690Y-27888D01*
X30682Y-27894D01*
X30674Y-27902D01*
X30665Y-27911D01*
X30657Y-27920D01*
X30650Y-27929D01*
X30647Y-27933D01*
X30644Y-27938D01*
X30640Y-27944D01*
X30637Y-27951D01*
X30633Y-27958D01*
X30630Y-27965D01*
X30626Y-27971D01*
X30624Y-27977D01*
X30622Y-27982D01*
X30621Y-27985D01*
X30621Y-27987D01*
X30621Y-27987D01*
X30622Y-27986D01*
X30626Y-27985D01*
X30631Y-27983D01*
X30637Y-27981D01*
X30645Y-27978D01*
X30652Y-27975D01*
X30671Y-27968D01*
X30690Y-27961D01*
X30708Y-27954D01*
X30725Y-27947D01*
X30741Y-27941D01*
X30756Y-27935D01*
X30769Y-27930D01*
X30780Y-27925D01*
X30790Y-27921D01*
X30796Y-27918D01*
X30801Y-27916D01*
X30805Y-27914D01*
X30807Y-27912D01*
X30808Y-27911D01*
X30808Y-27909D01*
X30808Y-27955D01*
X30807Y-27956D01*
X30794Y-27962D01*
X30779Y-27968D01*
X30762Y-27975D01*
X30743Y-27982D01*
X30723Y-27990D01*
X30701Y-27999D01*
X30677Y-28008D01*
X30674Y-28009D01*
X30635Y-28024D01*
X30638Y-28033D01*
X30640Y-28036D01*
X30641Y-28042D01*
X30644Y-28049D01*
X30647Y-28058D01*
X30651Y-28068D01*
X30655Y-28079D01*
X30660Y-28091D01*
X30665Y-28104D01*
X30667Y-28109D01*
X30691Y-28176D01*
X30686Y-28287D01*
X30686Y-28303D01*
X30685Y-28319D01*
X30684Y-28334D01*
X30684Y-28348D01*
X30683Y-28361D01*
X30683Y-28372D01*
X30682Y-28382D01*
X30682Y-28390D01*
X30682Y-28395D01*
X30681Y-28399D01*
X30681Y-28400D01*
X30681Y-28402D01*
X30679Y-28404D01*
X30676Y-28407D01*
X30672Y-28411D01*
X30668Y-28414D01*
X30662Y-28418D01*
X30655Y-28424D01*
X30652Y-28426D01*
X30652Y-28181D01*
X30622Y-28100D01*
X30616Y-28086D01*
X30611Y-28073D01*
X30607Y-28061D01*
X30602Y-28050D01*
X30599Y-28040D01*
X30595Y-28031D01*
X30593Y-28025D01*
X30591Y-28020D01*
X30590Y-28017D01*
X30590Y-28017D01*
X30587Y-28015D01*
X30583Y-28011D01*
X30578Y-28008D01*
X30571Y-28003D01*
X30564Y-27999D01*
X30557Y-27995D01*
X30550Y-27991D01*
X30549Y-27991D01*
X30534Y-27984D01*
X30518Y-27980D01*
X30504Y-27977D01*
X30490Y-27976D01*
X30481Y-27976D01*
X30469Y-27977D01*
X30455Y-27980D01*
X30440Y-27983D01*
X30425Y-27987D01*
X30417Y-27989D01*
X30413Y-27991D01*
X30409Y-27992D01*
X30408Y-27993D01*
X30408Y-27994D01*
X30408Y-27994D01*
X30409Y-27997D01*
X30411Y-28003D01*
X30413Y-28010D01*
X30416Y-28018D01*
X30420Y-28028D01*
X30425Y-28040D01*
X30430Y-28053D01*
X30436Y-28066D01*
X30442Y-28081D01*
X30448Y-28096D01*
X30455Y-28112D01*
X30461Y-28127D01*
X30468Y-28143D01*
X30474Y-28159D01*
X30480Y-28175D01*
X30487Y-28190D01*
X30493Y-28204D01*
X30498Y-28217D01*
X30503Y-28230D01*
X30508Y-28241D01*
X30512Y-28251D01*
X30516Y-28259D01*
X30518Y-28266D01*
X30520Y-28271D01*
X30521Y-28273D01*
X30522Y-28274D01*
X30523Y-28273D01*
X30526Y-28272D01*
X30531Y-28271D01*
X30532Y-28270D01*
X30553Y-28265D01*
X30574Y-28262D01*
X30587Y-28261D01*
X30596Y-28261D01*
X30606Y-28261D01*
X30616Y-28261D01*
X30626Y-28261D01*
X30635Y-28262D01*
X30642Y-28262D01*
X30643Y-28263D01*
X30648Y-28263D01*
X30650Y-28222D01*
X30652Y-28181D01*
X30652Y-28426D01*
X30648Y-28428D01*
X30647Y-28429D01*
X30647Y-28288D01*
X30647Y-28284D01*
X30647Y-28282D01*
X30646Y-28281D01*
X30646Y-28281D01*
X30644Y-28281D01*
X30640Y-28280D01*
X30634Y-28280D01*
X30628Y-28279D01*
X30623Y-28279D01*
X30599Y-28278D01*
X30576Y-28280D01*
X30554Y-28283D01*
X30534Y-28289D01*
X30520Y-28294D01*
X30504Y-28301D01*
X30504Y-28281D01*
X30448Y-28142D01*
X30440Y-28124D01*
X30433Y-28106D01*
X30426Y-28090D01*
X30420Y-28074D01*
X30414Y-28059D01*
X30409Y-28046D01*
X30404Y-28034D01*
X30400Y-28024D01*
X30396Y-28015D01*
X30394Y-28009D01*
X30392Y-28004D01*
X30391Y-28001D01*
X30390Y-28001D01*
X30390Y-28000D01*
X30388Y-28001D01*
X30385Y-28002D01*
X30380Y-28004D01*
X30378Y-28005D01*
X30361Y-28014D01*
X30344Y-28027D01*
X30328Y-28041D01*
X30314Y-28056D01*
X30305Y-28069D01*
X30299Y-28078D01*
X30292Y-28089D01*
X30286Y-28101D01*
X30280Y-28113D01*
X30274Y-28124D01*
X30271Y-28133D01*
X30266Y-28145D01*
X30296Y-28227D01*
X30326Y-28308D01*
X30355Y-28336D01*
X30363Y-28344D01*
X30370Y-28350D01*
X30375Y-28355D01*
X30379Y-28359D01*
X30382Y-28361D01*
X30384Y-28363D01*
X30385Y-28363D01*
X30386Y-28363D01*
X30386Y-28363D01*
X30388Y-28362D01*
X30391Y-28359D01*
X30396Y-28355D01*
X30401Y-28351D01*
X30403Y-28349D01*
X30419Y-28336D01*
X30434Y-28324D01*
X30448Y-28314D01*
X30462Y-28305D01*
X30474Y-28297D01*
X30486Y-28290D01*
X30489Y-28289D01*
X30504Y-28281D01*
X30504Y-28301D01*
X30504Y-28301D01*
X30488Y-28310D01*
X30472Y-28319D01*
X30455Y-28330D01*
X30453Y-28332D01*
X30449Y-28335D01*
X30444Y-28339D01*
X30438Y-28344D01*
X30431Y-28349D01*
X30424Y-28355D01*
X30418Y-28360D01*
X30412Y-28365D01*
X30407Y-28370D01*
X30403Y-28374D01*
X30400Y-28376D01*
X30398Y-28378D01*
X30398Y-28378D01*
X30399Y-28379D01*
X30402Y-28381D01*
X30405Y-28386D01*
X30411Y-28391D01*
X30416Y-28397D01*
X30423Y-28405D01*
X30431Y-28413D01*
X30435Y-28417D01*
X30473Y-28455D01*
X30479Y-28454D01*
X30483Y-28453D01*
X30489Y-28453D01*
X30494Y-28452D01*
X30509Y-28450D01*
X30524Y-28447D01*
X30541Y-28441D01*
X30558Y-28434D01*
X30576Y-28426D01*
X30594Y-28417D01*
X30600Y-28413D01*
X30606Y-28409D01*
X30613Y-28405D01*
X30620Y-28400D01*
X30626Y-28396D01*
X30632Y-28392D01*
X30637Y-28388D01*
X30641Y-28385D01*
X30642Y-28384D01*
X30642Y-28382D01*
X30643Y-28378D01*
X30643Y-28372D01*
X30644Y-28365D01*
X30644Y-28356D01*
X30645Y-28347D01*
X30645Y-28343D01*
X30645Y-28333D01*
X30646Y-28323D01*
X30646Y-28314D01*
X30646Y-28306D01*
X30647Y-28299D01*
X30647Y-28294D01*
X30647Y-28294D01*
X30647Y-28288D01*
X30647Y-28429D01*
X30644Y-28431D01*
X30639Y-28435D01*
X30636Y-28438D01*
X30634Y-28440D01*
X30633Y-28442D01*
X30633Y-28444D01*
X30633Y-28448D01*
X30634Y-28454D01*
X30634Y-28463D01*
X30635Y-28472D01*
X30635Y-28484D01*
X30636Y-28497D01*
X30637Y-28510D01*
X30637Y-28525D01*
X30638Y-28532D01*
X30639Y-28546D01*
X30639Y-28561D01*
X30640Y-28574D01*
X30640Y-28586D01*
X30641Y-28596D01*
X30641Y-28605D01*
X30641Y-28613D01*
X30642Y-28618D01*
X30642Y-28621D01*
X30642Y-28621D01*
X30641Y-28623D01*
X30642Y-28624D01*
X30644Y-28625D01*
X30647Y-28625D01*
X30652Y-28626D01*
X30656Y-28627D01*
X30662Y-28627D01*
X30670Y-28629D01*
X30679Y-28631D01*
X30688Y-28633D01*
X30696Y-28635D01*
X30702Y-28637D01*
X30705Y-28638D01*
X30717Y-28645D01*
X30730Y-28653D01*
X30741Y-28663D01*
X30751Y-28675D01*
X30757Y-28682D01*
X30763Y-28692D01*
X30768Y-28703D01*
X30773Y-28716D01*
X30777Y-28727D01*
X30779Y-28737D01*
X30780Y-28748D01*
X30780Y-28759D01*
X30780Y-28769D01*
X30778Y-28778D01*
X30778Y-28779D01*
X30774Y-28788D01*
X30768Y-28795D01*
X30762Y-28801D01*
X30758Y-28803D01*
X30752Y-28806D01*
X30742Y-28806D01*
X30742Y-28768D01*
X30742Y-28755D01*
X30741Y-28747D01*
X30740Y-28741D01*
X30739Y-28735D01*
X30738Y-28733D01*
X30733Y-28718D01*
X30725Y-28705D01*
X30716Y-28694D01*
X30706Y-28685D01*
X30695Y-28677D01*
X30687Y-28674D01*
X30683Y-28672D01*
X30676Y-28671D01*
X30668Y-28669D01*
X30660Y-28667D01*
X30652Y-28666D01*
X30645Y-28664D01*
X30641Y-28664D01*
X30637Y-28664D01*
X30634Y-28664D01*
X30633Y-28664D01*
X30633Y-28666D01*
X30633Y-28666D01*
X30632Y-28669D01*
X30631Y-28673D01*
X30630Y-28679D01*
X30629Y-28685D01*
X30628Y-28687D01*
X30627Y-28694D01*
X30626Y-28699D01*
X30625Y-28703D01*
X30625Y-28706D01*
X30626Y-28708D01*
X30626Y-28710D01*
X30628Y-28716D01*
X30630Y-28724D01*
X30631Y-28733D01*
X30632Y-28742D01*
X30633Y-28750D01*
X30633Y-28756D01*
X30633Y-28769D01*
X30687Y-28768D01*
X30742Y-28768D01*
X30742Y-28806D01*
X30603Y-28807D01*
X30603Y-28615D01*
X30599Y-28543D01*
X30599Y-28530D01*
X30598Y-28517D01*
X30597Y-28505D01*
X30597Y-28494D01*
X30596Y-28485D01*
X30596Y-28477D01*
X30596Y-28471D01*
X30595Y-28467D01*
X30595Y-28466D01*
X30595Y-28461D01*
X30581Y-28467D01*
X30561Y-28476D01*
X30540Y-28483D01*
X30518Y-28488D01*
X30501Y-28491D01*
X30498Y-28492D01*
X30497Y-28493D01*
X30495Y-28495D01*
X30493Y-28498D01*
X30490Y-28503D01*
X30489Y-28504D01*
X30480Y-28519D01*
X30472Y-28531D01*
X30464Y-28539D01*
X30458Y-28546D01*
X30451Y-28585D01*
X30451Y-28491D01*
X30451Y-28490D01*
X30450Y-28489D01*
X30448Y-28487D01*
X30445Y-28483D01*
X30441Y-28479D01*
X30436Y-28473D01*
X30429Y-28466D01*
X30423Y-28460D01*
X30415Y-28453D01*
X30410Y-28446D01*
X30404Y-28441D01*
X30399Y-28436D01*
X30396Y-28433D01*
X30394Y-28431D01*
X30394Y-28431D01*
X30392Y-28432D01*
X30389Y-28434D01*
X30385Y-28437D01*
X30380Y-28441D01*
X30379Y-28442D01*
X30373Y-28447D01*
X30366Y-28454D01*
X30360Y-28460D01*
X30354Y-28466D01*
X30349Y-28471D01*
X30345Y-28476D01*
X30342Y-28479D01*
X30341Y-28481D01*
X30342Y-28485D01*
X30344Y-28490D01*
X30348Y-28495D01*
X30354Y-28501D01*
X30360Y-28507D01*
X30368Y-28512D01*
X30376Y-28517D01*
X30384Y-28521D01*
X30393Y-28524D01*
X30400Y-28526D01*
X30402Y-28526D01*
X30408Y-28526D01*
X30414Y-28526D01*
X30420Y-28524D01*
X30421Y-28524D01*
X30425Y-28521D01*
X30430Y-28517D01*
X30436Y-28512D01*
X30441Y-28506D01*
X30446Y-28500D01*
X30449Y-28495D01*
X30451Y-28491D01*
X30451Y-28585D01*
X30446Y-28607D01*
X30444Y-28619D01*
X30442Y-28631D01*
X30440Y-28641D01*
X30438Y-28650D01*
X30437Y-28655D01*
X30437Y-28561D01*
X30436Y-28561D01*
X30433Y-28561D01*
X30430Y-28563D01*
X30423Y-28564D01*
X30414Y-28565D01*
X30405Y-28565D01*
X30395Y-28564D01*
X30386Y-28563D01*
X30385Y-28562D01*
X30371Y-28558D01*
X30358Y-28552D01*
X30346Y-28544D01*
X30334Y-28536D01*
X30324Y-28527D01*
X30315Y-28517D01*
X30308Y-28507D01*
X30304Y-28497D01*
X30304Y-28497D01*
X30302Y-28492D01*
X30302Y-28486D01*
X30302Y-28482D01*
X30302Y-28478D01*
X30302Y-28474D01*
X30304Y-28470D01*
X30306Y-28464D01*
X30307Y-28463D01*
X30310Y-28458D01*
X30313Y-28453D01*
X30317Y-28448D01*
X30322Y-28442D01*
X30326Y-28438D01*
X30332Y-28432D01*
X30339Y-28425D01*
X30346Y-28419D01*
X30352Y-28413D01*
X30366Y-28402D01*
X30349Y-28385D01*
X30344Y-28380D01*
X30339Y-28376D01*
X30335Y-28372D01*
X30333Y-28370D01*
X30332Y-28370D01*
X30331Y-28371D01*
X30329Y-28374D01*
X30326Y-28379D01*
X30322Y-28386D01*
X30318Y-28394D01*
X30313Y-28403D01*
X30307Y-28413D01*
X30303Y-28420D01*
X30276Y-28469D01*
X30258Y-28542D01*
X30254Y-28556D01*
X30251Y-28570D01*
X30248Y-28583D01*
X30245Y-28595D01*
X30242Y-28606D01*
X30240Y-28616D01*
X30239Y-28624D01*
X30237Y-28630D01*
X30237Y-28632D01*
X30234Y-28650D01*
X30238Y-28656D01*
X30241Y-28659D01*
X30243Y-28661D01*
X30244Y-28661D01*
X30245Y-28660D01*
X30258Y-28652D01*
X30271Y-28646D01*
X30285Y-28642D01*
X30286Y-28642D01*
X30293Y-28641D01*
X30302Y-28640D01*
X30312Y-28640D01*
X30322Y-28640D01*
X30331Y-28640D01*
X30340Y-28641D01*
X30342Y-28641D01*
X30359Y-28645D01*
X30374Y-28651D01*
X30388Y-28659D01*
X30401Y-28668D01*
X30406Y-28673D01*
X30409Y-28676D01*
X30412Y-28679D01*
X30413Y-28681D01*
X30413Y-28681D01*
X30414Y-28680D01*
X30414Y-28676D01*
X30416Y-28671D01*
X30417Y-28663D01*
X30419Y-28654D01*
X30421Y-28644D01*
X30423Y-28633D01*
X30425Y-28621D01*
X30428Y-28609D01*
X30430Y-28598D01*
X30432Y-28587D01*
X30434Y-28578D01*
X30435Y-28571D01*
X30436Y-28565D01*
X30437Y-28562D01*
X30437Y-28561D01*
X30437Y-28655D01*
X30437Y-28658D01*
X30436Y-28664D01*
X30435Y-28668D01*
X30435Y-28669D01*
X30435Y-28669D01*
X30438Y-28667D01*
X30440Y-28666D01*
X30444Y-28663D01*
X30449Y-28659D01*
X30452Y-28657D01*
X30465Y-28650D01*
X30480Y-28645D01*
X30496Y-28642D01*
X30512Y-28640D01*
X30529Y-28639D01*
X30544Y-28641D01*
X30559Y-28644D01*
X30573Y-28648D01*
X30577Y-28651D01*
X30582Y-28653D01*
X30587Y-28656D01*
X30589Y-28657D01*
X30594Y-28661D01*
X30598Y-28638D01*
X30603Y-28615D01*
X30603Y-28807D01*
X30595Y-28807D01*
X30595Y-28770D01*
X30594Y-28753D01*
X30592Y-28737D01*
X30589Y-28723D01*
X30584Y-28711D01*
X30578Y-28701D01*
X30570Y-28693D01*
X30563Y-28688D01*
X30555Y-28684D01*
X30547Y-28681D01*
X30539Y-28679D01*
X30529Y-28679D01*
X30522Y-28679D01*
X30508Y-28679D01*
X30497Y-28681D01*
X30487Y-28684D01*
X30477Y-28689D01*
X30476Y-28689D01*
X30466Y-28696D01*
X30457Y-28705D01*
X30449Y-28715D01*
X30444Y-28728D01*
X30440Y-28741D01*
X30439Y-28756D01*
X30438Y-28760D01*
X30438Y-28769D01*
X30497Y-28769D01*
X30509Y-28769D01*
X30522Y-28769D01*
X30535Y-28769D01*
X30546Y-28769D01*
X30557Y-28769D01*
X30566Y-28769D01*
X30572Y-28770D01*
X30575Y-28770D01*
X30595Y-28770D01*
X30595Y-28807D01*
X30471Y-28807D01*
X30444Y-28807D01*
X30416Y-28807D01*
X30401Y-28807D01*
X30401Y-28769D01*
X30400Y-28757D01*
X30398Y-28741D01*
X30394Y-28727D01*
X30389Y-28715D01*
X30382Y-28704D01*
X30373Y-28696D01*
X30362Y-28689D01*
X30350Y-28684D01*
X30342Y-28681D01*
X30335Y-28680D01*
X30326Y-28679D01*
X30317Y-28679D01*
X30308Y-28679D01*
X30299Y-28679D01*
X30294Y-28680D01*
X30282Y-28684D01*
X30272Y-28690D01*
X30263Y-28698D01*
X30256Y-28708D01*
X30251Y-28720D01*
X30247Y-28733D01*
X30244Y-28749D01*
X30244Y-28755D01*
X30243Y-28769D01*
X30322Y-28769D01*
X30401Y-28769D01*
X30401Y-28807D01*
X30389Y-28807D01*
X30362Y-28807D01*
X30336Y-28807D01*
X30310Y-28807D01*
X30286Y-28807D01*
X30262Y-28807D01*
X30240Y-28807D01*
X30219Y-28808D01*
X30217Y-28808D01*
X30217Y-28696D01*
X30217Y-28694D01*
X30216Y-28693D01*
X30214Y-28689D01*
X30211Y-28685D01*
X30207Y-28680D01*
X30207Y-28679D01*
X30203Y-28674D01*
X30200Y-28670D01*
X30197Y-28668D01*
X30195Y-28666D01*
X30193Y-28665D01*
X30191Y-28665D01*
X30185Y-28664D01*
X30176Y-28664D01*
X30171Y-28664D01*
X30171Y-28623D01*
X30171Y-28623D01*
X30170Y-28621D01*
X30168Y-28618D01*
X30164Y-28613D01*
X30160Y-28608D01*
X30155Y-28601D01*
X30154Y-28599D01*
X30150Y-28593D01*
X30146Y-28589D01*
X30143Y-28585D01*
X30141Y-28581D01*
X30139Y-28577D01*
X30137Y-28573D01*
X30135Y-28568D01*
X30133Y-28562D01*
X30131Y-28555D01*
X30128Y-28546D01*
X30125Y-28535D01*
X30123Y-28526D01*
X30121Y-28519D01*
X30119Y-28513D01*
X30117Y-28508D01*
X30116Y-28506D01*
X30116Y-28505D01*
X30115Y-28506D01*
X30114Y-28509D01*
X30113Y-28514D01*
X30112Y-28520D01*
X30111Y-28526D01*
X30110Y-28532D01*
X30110Y-28535D01*
X30109Y-28544D01*
X30109Y-28552D01*
X30110Y-28561D01*
X30112Y-28570D01*
X30115Y-28580D01*
X30119Y-28591D01*
X30124Y-28603D01*
X30131Y-28617D01*
X30131Y-28618D01*
X30136Y-28629D01*
X30141Y-28628D01*
X30145Y-28627D01*
X30150Y-28627D01*
X30157Y-28626D01*
X30159Y-28626D01*
X30166Y-28625D01*
X30170Y-28624D01*
X30171Y-28623D01*
X30171Y-28664D01*
X30167Y-28664D01*
X30156Y-28665D01*
X30146Y-28667D01*
X30135Y-28669D01*
X30126Y-28672D01*
X30120Y-28674D01*
X30108Y-28679D01*
X30098Y-28687D01*
X30088Y-28697D01*
X30080Y-28709D01*
X30073Y-28721D01*
X30068Y-28735D01*
X30067Y-28743D01*
X30065Y-28750D01*
X30065Y-28755D01*
X30065Y-28760D01*
X30065Y-28762D01*
X30066Y-28768D01*
X30113Y-28769D01*
X30125Y-28769D01*
X30137Y-28769D01*
X30149Y-28769D01*
X30160Y-28769D01*
X30170Y-28769D01*
X30178Y-28770D01*
X30182Y-28770D01*
X30204Y-28770D01*
X30204Y-28761D01*
X30205Y-28750D01*
X30206Y-28738D01*
X30208Y-28726D01*
X30211Y-28715D01*
X30214Y-28706D01*
X30215Y-28703D01*
X30216Y-28699D01*
X30217Y-28696D01*
X30217Y-28808D01*
X30199Y-28808D01*
X30181Y-28808D01*
X30165Y-28808D01*
X30152Y-28808D01*
X30140Y-28808D01*
X30130Y-28808D01*
X30126Y-28808D01*
X30111Y-28808D01*
X30098Y-28808D01*
X30088Y-28808D01*
X30079Y-28808D01*
X30072Y-28808D01*
X30067Y-28808D01*
X30063Y-28808D01*
X30059Y-28808D01*
X30057Y-28808D01*
X30055Y-28807D01*
X30053Y-28807D01*
X30046Y-28803D01*
X30039Y-28796D01*
X30033Y-28788D01*
X30029Y-28779D01*
X30026Y-28768D01*
X30026Y-28757D01*
X30026Y-28750D01*
X30029Y-28732D01*
X30034Y-28714D01*
X30041Y-28698D01*
X30050Y-28683D01*
X30060Y-28669D01*
X30072Y-28657D01*
X30086Y-28647D01*
X30089Y-28645D01*
X30098Y-28640D01*
X30092Y-28627D01*
X30086Y-28615D01*
X30082Y-28604D01*
X30078Y-28594D01*
X30075Y-28586D01*
X30074Y-28582D01*
X30072Y-28570D01*
X30071Y-28557D01*
X30070Y-28542D01*
X30071Y-28527D01*
X30073Y-28514D01*
X30074Y-28509D01*
X30074Y-28507D01*
X30073Y-28505D01*
X30070Y-28504D01*
X30065Y-28504D01*
X30061Y-28504D01*
X30050Y-28503D01*
X30041Y-28501D01*
X30035Y-28498D01*
X30030Y-28493D01*
X30028Y-28488D01*
X30028Y-28481D01*
X30028Y-28480D01*
X30029Y-28476D01*
X30031Y-28472D01*
X30035Y-28469D01*
X30039Y-28466D01*
X30046Y-28464D01*
X30054Y-28462D01*
X30064Y-28460D01*
X30074Y-28459D01*
X30091Y-28456D01*
X30095Y-28448D01*
X30099Y-28440D01*
X30094Y-28436D01*
X30085Y-28428D01*
X30078Y-28419D01*
X30073Y-28408D01*
X30070Y-28397D01*
X30070Y-28386D01*
X30071Y-28375D01*
X30074Y-28364D01*
X30080Y-28354D01*
X30087Y-28346D01*
X30096Y-28338D01*
X30106Y-28333D01*
X30117Y-28330D01*
X30128Y-28329D01*
X30133Y-28329D01*
X30140Y-28329D01*
X30145Y-28330D01*
X30150Y-28332D01*
X30154Y-28334D01*
X30165Y-28341D01*
X30174Y-28349D01*
X30181Y-28358D01*
X30185Y-28369D01*
X30188Y-28381D01*
X30188Y-28388D01*
X30187Y-28401D01*
X30183Y-28412D01*
X30177Y-28422D01*
X30169Y-28431D01*
X30161Y-28437D01*
X30157Y-28440D01*
X30154Y-28442D01*
X30154Y-28390D01*
X30153Y-28382D01*
X30150Y-28375D01*
X30145Y-28369D01*
X30139Y-28365D01*
X30135Y-28364D01*
X30127Y-28363D01*
X30121Y-28364D01*
X30115Y-28367D01*
X30110Y-28372D01*
X30106Y-28378D01*
X30104Y-28384D01*
X30104Y-28391D01*
X30106Y-28398D01*
X30109Y-28402D01*
X30114Y-28408D01*
X30121Y-28411D01*
X30128Y-28413D01*
X30136Y-28412D01*
X30140Y-28410D01*
X30146Y-28405D01*
X30151Y-28399D01*
X30153Y-28392D01*
X30154Y-28390D01*
X30154Y-28442D01*
X30152Y-28443D01*
X30148Y-28444D01*
X30144Y-28445D01*
X30142Y-28447D01*
X30141Y-28448D01*
X30142Y-28450D01*
X30142Y-28452D01*
X30143Y-28453D01*
X30146Y-28453D01*
X30150Y-28453D01*
X30153Y-28453D01*
X30161Y-28453D01*
X30168Y-28454D01*
X30175Y-28455D01*
X30181Y-28456D01*
X30185Y-28457D01*
X30186Y-28457D01*
X30191Y-28461D01*
X30195Y-28467D01*
X30196Y-28473D01*
X30196Y-28479D01*
X30193Y-28485D01*
X30190Y-28487D01*
X30186Y-28490D01*
X30180Y-28493D01*
X30172Y-28495D01*
X30166Y-28497D01*
X30162Y-28497D01*
X30159Y-28498D01*
X30158Y-28499D01*
X30157Y-28500D01*
X30158Y-28504D01*
X30159Y-28509D01*
X30161Y-28515D01*
X30163Y-28523D01*
X30165Y-28530D01*
X30167Y-28538D01*
X30169Y-28546D01*
X30172Y-28552D01*
X30174Y-28557D01*
X30175Y-28561D01*
X30176Y-28562D01*
X30180Y-28569D01*
X30185Y-28575D01*
X30190Y-28582D01*
X30194Y-28587D01*
X30198Y-28592D01*
X30201Y-28596D01*
X30203Y-28597D01*
X30203Y-28598D01*
X30204Y-28596D01*
X30205Y-28592D01*
X30206Y-28587D01*
X30208Y-28579D01*
X30211Y-28570D01*
X30213Y-28559D01*
X30216Y-28548D01*
X30219Y-28535D01*
X30222Y-28525D01*
X30240Y-28453D01*
X30271Y-28396D01*
X30303Y-28340D01*
X30298Y-28334D01*
X30297Y-28333D01*
X30296Y-28332D01*
X30295Y-28330D01*
X30293Y-28327D01*
X30292Y-28324D01*
X30290Y-28320D01*
X30288Y-28315D01*
X30285Y-28308D01*
X30282Y-28300D01*
X30278Y-28290D01*
X30273Y-28278D01*
X30268Y-28263D01*
X30263Y-28252D01*
X30258Y-28238D01*
X30253Y-28225D01*
X30249Y-28213D01*
X30245Y-28202D01*
X30241Y-28192D01*
X30238Y-28184D01*
X30236Y-28178D01*
X30234Y-28173D01*
X30233Y-28171D01*
X30233Y-28171D01*
X30233Y-28170D01*
X30231Y-28170D01*
X30229Y-28170D01*
X30226Y-28170D01*
X30221Y-28171D01*
X30220Y-28171D01*
X30220Y-28131D01*
X30219Y-28130D01*
X30216Y-28128D01*
X30213Y-28125D01*
X30209Y-28122D01*
X30190Y-28109D01*
X30171Y-28099D01*
X30153Y-28091D01*
X30134Y-28085D01*
X30116Y-28082D01*
X30101Y-28082D01*
X30091Y-28082D01*
X30081Y-28083D01*
X30073Y-28084D01*
X30063Y-28087D01*
X30061Y-28087D01*
X30051Y-28091D01*
X30043Y-28095D01*
X30037Y-28098D01*
X30032Y-28102D01*
X30031Y-28104D01*
X30025Y-28113D01*
X30021Y-28124D01*
X30019Y-28131D01*
X30018Y-28136D01*
X30017Y-28143D01*
X30017Y-28149D01*
X30017Y-28155D01*
X30018Y-28159D01*
X30019Y-28160D01*
X30020Y-28162D01*
X30021Y-28163D01*
X30023Y-28163D01*
X30026Y-28163D01*
X30031Y-28163D01*
X30038Y-28162D01*
X30042Y-28161D01*
X30052Y-28160D01*
X30065Y-28158D01*
X30079Y-28156D01*
X30095Y-28153D01*
X30111Y-28151D01*
X30127Y-28148D01*
X30144Y-28145D01*
X30151Y-28144D01*
X30166Y-28141D01*
X30179Y-28139D01*
X30190Y-28137D01*
X30198Y-28135D01*
X30205Y-28134D01*
X30211Y-28133D01*
X30215Y-28132D01*
X30217Y-28132D01*
X30219Y-28131D01*
X30220Y-28131D01*
X30220Y-28131D01*
X30220Y-28171D01*
X30214Y-28172D01*
X30209Y-28173D01*
X30195Y-28176D01*
X30179Y-28179D01*
X30162Y-28182D01*
X30145Y-28185D01*
X30127Y-28188D01*
X30110Y-28190D01*
X30094Y-28193D01*
X30080Y-28195D01*
X30073Y-28197D01*
X30060Y-28198D01*
X30050Y-28200D01*
X30041Y-28201D01*
X30033Y-28201D01*
X30025Y-28201D01*
X30024Y-28201D01*
X30006Y-28202D01*
X30000Y-28197D01*
X29992Y-28190D01*
X29985Y-28181D01*
X29981Y-28171D01*
X29978Y-28159D01*
X29978Y-28145D01*
X29979Y-28136D01*
X29981Y-28120D01*
X29986Y-28106D01*
X29992Y-28093D01*
X29999Y-28081D01*
X30008Y-28071D01*
X30017Y-28064D01*
X30023Y-28060D01*
X30043Y-28052D01*
X30063Y-28046D01*
X30084Y-28043D01*
X30105Y-28042D01*
X30126Y-28044D01*
X30148Y-28048D01*
X30169Y-28055D01*
X30190Y-28064D01*
X30197Y-28068D01*
X30206Y-28073D01*
X30215Y-28079D01*
X30224Y-28084D01*
X30232Y-28089D01*
X30238Y-28094D01*
X30243Y-28098D01*
X30248Y-28088D01*
X30261Y-28064D01*
X30275Y-28043D01*
X30290Y-28023D01*
X30307Y-28006D01*
X30324Y-27991D01*
X30341Y-27980D01*
X30360Y-27970D01*
X30380Y-27961D01*
X30402Y-27953D01*
X30407Y-27951D01*
X30429Y-27945D01*
X30450Y-27941D01*
X30469Y-27938D01*
X30488Y-27937D01*
X30505Y-27938D01*
X30523Y-27940D01*
X30539Y-27945D01*
X30556Y-27951D01*
X30570Y-27958D01*
X30586Y-27966D01*
X30590Y-27957D01*
X30600Y-27934D01*
X30613Y-27913D01*
X30626Y-27895D01*
X30641Y-27878D01*
X30657Y-27863D01*
X30675Y-27851D01*
X30693Y-27841D01*
X30713Y-27833D01*
X30730Y-27828D01*
X30742Y-27826D01*
X30754Y-27825D01*
X30765Y-27825D01*
X30775Y-27827D01*
X30782Y-27829D01*
X30794Y-27834D01*
X30805Y-27841D01*
X30815Y-27850D01*
X30825Y-27859D01*
X30833Y-27869D01*
X30840Y-27880D01*
X30844Y-27891D01*
X30847Y-27902D01*
X30848Y-27912D01*
X30848Y-27912D01*
X30848Y-27912D01*
G37*
G36*
X30414Y-28642D02*
X30413Y-28646D01*
X30412Y-28650D01*
X30411Y-28650D01*
X30408Y-28652D01*
X30406Y-28653D01*
X30402Y-28652D01*
X30399Y-28649D01*
X30397Y-28646D01*
X30397Y-28642D01*
X30399Y-28638D01*
X30402Y-28636D01*
X30406Y-28635D01*
X30410Y-28636D01*
X30413Y-28639D01*
X30414Y-28642D01*
X30414Y-28642D01*
X30414Y-28642D01*
G37*
G36*
X30423Y-28609D02*
X30423Y-28613D01*
X30421Y-28616D01*
X30421Y-28617D01*
X30417Y-28619D01*
X30413Y-28619D01*
X30410Y-28618D01*
X30409Y-28617D01*
X30407Y-28613D01*
X30407Y-28609D01*
X30408Y-28607D01*
X30410Y-28603D01*
X30413Y-28602D01*
X30417Y-28602D01*
X30421Y-28604D01*
X30422Y-28606D01*
X30423Y-28609D01*
X30423Y-28609D01*
X30423Y-28609D01*
G37*
G36*
X30431Y-28580D02*
X30430Y-28584D01*
X30427Y-28587D01*
X30423Y-28589D01*
X30419Y-28589D01*
X30419Y-28588D01*
X30415Y-28586D01*
X30413Y-28582D01*
X30413Y-28577D01*
X30415Y-28574D01*
X30418Y-28572D01*
X30421Y-28571D01*
X30425Y-28572D01*
X30429Y-28575D01*
X30430Y-28578D01*
X30431Y-28580D01*
X30431Y-28580D01*
X30431Y-28580D01*
G37*
G36*
X30601Y-28332D02*
X30601Y-28335D01*
X30600Y-28337D01*
X30598Y-28346D01*
X30594Y-28355D01*
X30588Y-28365D01*
X30580Y-28374D01*
X30571Y-28382D01*
X30561Y-28390D01*
X30551Y-28396D01*
X30540Y-28400D01*
X30536Y-28402D01*
X30526Y-28404D01*
X30516Y-28404D01*
X30506Y-28404D01*
X30504Y-28404D01*
X30499Y-28402D01*
X30493Y-28401D01*
X30490Y-28400D01*
X30485Y-28397D01*
X30480Y-28395D01*
X30476Y-28392D01*
X30472Y-28389D01*
X30469Y-28387D01*
X30469Y-28386D01*
X30470Y-28385D01*
X30473Y-28383D01*
X30478Y-28381D01*
X30485Y-28378D01*
X30492Y-28374D01*
X30501Y-28370D01*
X30510Y-28365D01*
X30519Y-28361D01*
X30528Y-28357D01*
X30536Y-28353D01*
X30544Y-28350D01*
X30551Y-28347D01*
X30559Y-28344D01*
X30567Y-28340D01*
X30575Y-28337D01*
X30582Y-28335D01*
X30589Y-28332D01*
X30594Y-28331D01*
X30598Y-28330D01*
X30599Y-28330D01*
X30600Y-28330D01*
X30601Y-28332D01*
X30601Y-28332D01*
X30601Y-28332D01*
G37*
G36*
X30600Y-28293D02*
X30599Y-28298D01*
X30596Y-28301D01*
X30592Y-28302D01*
X30588Y-28302D01*
X30585Y-28300D01*
X30583Y-28296D01*
X30583Y-28292D01*
X30584Y-28288D01*
X30587Y-28285D01*
X30591Y-28284D01*
X30596Y-28285D01*
X30599Y-28288D01*
X30600Y-28293D01*
X30600Y-28293D01*
X30600Y-28293D01*
X30600Y-28293D01*
G37*
G36*
X30631Y-28293D02*
X30630Y-28298D01*
X30627Y-28301D01*
X30623Y-28302D01*
X30619Y-28301D01*
X30616Y-28300D01*
X30614Y-28296D01*
X30613Y-28292D01*
X30615Y-28288D01*
X30616Y-28287D01*
X30619Y-28284D01*
X30623Y-28284D01*
X30627Y-28286D01*
X30629Y-28289D01*
X30631Y-28293D01*
X30631Y-28293D01*
X30631Y-28293D01*
X30631Y-28293D01*
G37*
G36*
X30430Y-28219D02*
X30429Y-28231D01*
X30426Y-28242D01*
X30421Y-28253D01*
X30413Y-28262D01*
X30413Y-28263D01*
X30404Y-28270D01*
X30396Y-28274D01*
X30396Y-28224D01*
X30396Y-28217D01*
X30394Y-28210D01*
X30390Y-28204D01*
X30385Y-28200D01*
X30381Y-28197D01*
X30375Y-28196D01*
X30373Y-28196D01*
X30368Y-28196D01*
X30364Y-28196D01*
X30361Y-28198D01*
X30359Y-28199D01*
X30353Y-28205D01*
X30349Y-28211D01*
X30347Y-28217D01*
X30347Y-28224D01*
X30349Y-28231D01*
X30353Y-28237D01*
X30358Y-28241D01*
X30365Y-28244D01*
X30366Y-28245D01*
X30373Y-28246D01*
X30379Y-28244D01*
X30385Y-28241D01*
X30391Y-28237D01*
X30395Y-28230D01*
X30396Y-28224D01*
X30396Y-28274D01*
X30394Y-28276D01*
X30382Y-28279D01*
X30370Y-28280D01*
X30358Y-28279D01*
X30357Y-28278D01*
X30345Y-28274D01*
X30335Y-28268D01*
X30327Y-28260D01*
X30321Y-28251D01*
X30316Y-28241D01*
X30313Y-28231D01*
X30313Y-28220D01*
X30314Y-28209D01*
X30317Y-28198D01*
X30322Y-28188D01*
X30330Y-28179D01*
X30330Y-28178D01*
X30339Y-28171D01*
X30350Y-28165D01*
X30360Y-28162D01*
X30371Y-28161D01*
X30382Y-28162D01*
X30393Y-28165D01*
X30403Y-28170D01*
X30412Y-28177D01*
X30419Y-28185D01*
X30424Y-28195D01*
X30428Y-28207D01*
X30430Y-28219D01*
X30430Y-28219D01*
X30430Y-28219D01*
G37*
G36*
X30620Y-28148D02*
X30620Y-28159D01*
X30617Y-28170D01*
X30613Y-28180D01*
X30607Y-28190D01*
X30602Y-28196D01*
X30593Y-28203D01*
X30585Y-28207D01*
X30585Y-28151D01*
X30584Y-28145D01*
X30581Y-28138D01*
X30576Y-28133D01*
X30572Y-28131D01*
X30564Y-28129D01*
X30557Y-28129D01*
X30550Y-28131D01*
X30544Y-28135D01*
X30540Y-28140D01*
X30537Y-28147D01*
X30536Y-28154D01*
X30537Y-28161D01*
X30540Y-28167D01*
X30545Y-28172D01*
X30551Y-28176D01*
X30558Y-28178D01*
X30565Y-28177D01*
X30572Y-28175D01*
X30578Y-28171D01*
X30582Y-28165D01*
X30585Y-28158D01*
X30585Y-28151D01*
X30585Y-28207D01*
X30582Y-28209D01*
X30570Y-28212D01*
X30558Y-28213D01*
X30547Y-28211D01*
X30545Y-28211D01*
X30534Y-28206D01*
X30524Y-28200D01*
X30515Y-28191D01*
X30508Y-28182D01*
X30504Y-28170D01*
X30503Y-28169D01*
X30502Y-28165D01*
X30502Y-28159D01*
X30502Y-28153D01*
X30502Y-28152D01*
X30503Y-28140D01*
X30506Y-28129D01*
X30512Y-28119D01*
X30520Y-28110D01*
X30530Y-28102D01*
X30541Y-28097D01*
X30553Y-28094D01*
X30565Y-28094D01*
X30571Y-28094D01*
X30582Y-28098D01*
X30593Y-28103D01*
X30601Y-28110D01*
X30609Y-28118D01*
X30614Y-28127D01*
X30618Y-28137D01*
X30620Y-28148D01*
X30620Y-28148D01*
X30620Y-28148D01*
G37*
G36*
X30461Y-28071D02*
X30460Y-28076D01*
X30457Y-28079D01*
X30452Y-28080D01*
X30452Y-28080D01*
X30449Y-28079D01*
X30447Y-28078D01*
X30444Y-28076D01*
X30444Y-28072D01*
X30444Y-28071D01*
X30444Y-28067D01*
X30446Y-28064D01*
X30447Y-28064D01*
X30451Y-28062D01*
X30455Y-28063D01*
X30458Y-28065D01*
X30460Y-28069D01*
X30461Y-28071D01*
X30461Y-28071D01*
X30461Y-28071D01*
G37*
G36*
X30449Y-28045D02*
X30447Y-28049D01*
X30446Y-28050D01*
X30443Y-28051D01*
X30438Y-28051D01*
X30435Y-28050D01*
X30434Y-28049D01*
X30432Y-28045D01*
X30432Y-28041D01*
X30433Y-28037D01*
X30434Y-28036D01*
X30437Y-28035D01*
X30441Y-28034D01*
X30445Y-28035D01*
X30447Y-28037D01*
X30449Y-28040D01*
X30449Y-28045D01*
X30449Y-28045D01*
X30449Y-28045D01*
G37*
G36*
X30435Y-28012D02*
X30434Y-28016D01*
X30434Y-28017D01*
X30431Y-28020D01*
X30427Y-28021D01*
X30423Y-28020D01*
X30423Y-28020D01*
X30420Y-28018D01*
X30418Y-28016D01*
X30418Y-28012D01*
X30419Y-28007D01*
X30422Y-28005D01*
X30426Y-28004D01*
X30430Y-28004D01*
X30432Y-28006D01*
X30433Y-28006D01*
X30434Y-28008D01*
X30435Y-28012D01*
X30435Y-28012D01*
X30435Y-28012D01*
G37*
G36*
X40887Y-27912D02*
X40887Y-27918D01*
X40884Y-27927D01*
X40880Y-27935D01*
X40875Y-27941D01*
X40875Y-27941D01*
X40871Y-27944D01*
X40865Y-27947D01*
X40856Y-27951D01*
X40847Y-27955D01*
X40847Y-27909D01*
X40846Y-27904D01*
X40844Y-27898D01*
X40839Y-27892D01*
X40834Y-27885D01*
X40827Y-27879D01*
X40821Y-27873D01*
X40814Y-27869D01*
X40814Y-27869D01*
X40809Y-27866D01*
X40805Y-27865D01*
X40801Y-27864D01*
X40796Y-27864D01*
X40796Y-27864D01*
X40783Y-27866D01*
X40770Y-27869D01*
X40756Y-27874D01*
X40742Y-27880D01*
X40730Y-27887D01*
X40729Y-27888D01*
X40721Y-27894D01*
X40713Y-27902D01*
X40704Y-27911D01*
X40696Y-27920D01*
X40689Y-27929D01*
X40686Y-27933D01*
X40683Y-27938D01*
X40679Y-27944D01*
X40676Y-27951D01*
X40672Y-27958D01*
X40669Y-27965D01*
X40665Y-27971D01*
X40663Y-27977D01*
X40661Y-27982D01*
X40660Y-27985D01*
X40660Y-27987D01*
X40660Y-27987D01*
X40661Y-27986D01*
X40665Y-27985D01*
X40670Y-27983D01*
X40676Y-27981D01*
X40684Y-27978D01*
X40691Y-27975D01*
X40710Y-27968D01*
X40729Y-27961D01*
X40747Y-27954D01*
X40764Y-27947D01*
X40780Y-27941D01*
X40795Y-27935D01*
X40808Y-27930D01*
X40819Y-27925D01*
X40829Y-27921D01*
X40835Y-27918D01*
X40840Y-27916D01*
X40844Y-27914D01*
X40846Y-27912D01*
X40847Y-27911D01*
X40847Y-27909D01*
X40847Y-27955D01*
X40846Y-27956D01*
X40833Y-27962D01*
X40818Y-27968D01*
X40801Y-27975D01*
X40782Y-27982D01*
X40762Y-27990D01*
X40740Y-27999D01*
X40716Y-28008D01*
X40713Y-28009D01*
X40674Y-28024D01*
X40677Y-28033D01*
X40679Y-28036D01*
X40680Y-28042D01*
X40683Y-28049D01*
X40686Y-28058D01*
X40690Y-28068D01*
X40694Y-28079D01*
X40699Y-28091D01*
X40704Y-28104D01*
X40706Y-28109D01*
X40730Y-28176D01*
X40725Y-28287D01*
X40725Y-28303D01*
X40724Y-28319D01*
X40723Y-28334D01*
X40723Y-28348D01*
X40722Y-28361D01*
X40722Y-28372D01*
X40721Y-28382D01*
X40721Y-28390D01*
X40721Y-28395D01*
X40720Y-28399D01*
X40720Y-28400D01*
X40720Y-28402D01*
X40718Y-28404D01*
X40715Y-28407D01*
X40711Y-28411D01*
X40707Y-28414D01*
X40701Y-28418D01*
X40694Y-28424D01*
X40691Y-28426D01*
X40691Y-28181D01*
X40661Y-28100D01*
X40655Y-28086D01*
X40650Y-28073D01*
X40646Y-28061D01*
X40641Y-28050D01*
X40638Y-28040D01*
X40634Y-28031D01*
X40632Y-28025D01*
X40630Y-28020D01*
X40629Y-28017D01*
X40629Y-28017D01*
X40626Y-28015D01*
X40622Y-28011D01*
X40617Y-28008D01*
X40610Y-28003D01*
X40603Y-27999D01*
X40596Y-27995D01*
X40589Y-27991D01*
X40588Y-27991D01*
X40573Y-27984D01*
X40557Y-27980D01*
X40543Y-27977D01*
X40529Y-27976D01*
X40520Y-27976D01*
X40508Y-27977D01*
X40494Y-27980D01*
X40479Y-27983D01*
X40464Y-27987D01*
X40456Y-27989D01*
X40452Y-27991D01*
X40448Y-27992D01*
X40447Y-27993D01*
X40447Y-27994D01*
X40447Y-27994D01*
X40448Y-27997D01*
X40450Y-28003D01*
X40452Y-28010D01*
X40455Y-28018D01*
X40459Y-28028D01*
X40464Y-28040D01*
X40469Y-28053D01*
X40475Y-28066D01*
X40481Y-28081D01*
X40487Y-28096D01*
X40494Y-28112D01*
X40500Y-28127D01*
X40507Y-28143D01*
X40513Y-28159D01*
X40519Y-28175D01*
X40526Y-28190D01*
X40532Y-28204D01*
X40537Y-28217D01*
X40542Y-28230D01*
X40547Y-28241D01*
X40551Y-28251D01*
X40555Y-28259D01*
X40557Y-28266D01*
X40559Y-28271D01*
X40560Y-28273D01*
X40561Y-28274D01*
X40562Y-28273D01*
X40565Y-28272D01*
X40570Y-28271D01*
X40571Y-28270D01*
X40592Y-28265D01*
X40613Y-28262D01*
X40626Y-28261D01*
X40635Y-28261D01*
X40645Y-28261D01*
X40655Y-28261D01*
X40665Y-28261D01*
X40674Y-28262D01*
X40681Y-28262D01*
X40682Y-28263D01*
X40687Y-28263D01*
X40689Y-28222D01*
X40691Y-28181D01*
X40691Y-28426D01*
X40687Y-28428D01*
X40686Y-28429D01*
X40686Y-28288D01*
X40686Y-28284D01*
X40686Y-28282D01*
X40685Y-28281D01*
X40685Y-28281D01*
X40683Y-28281D01*
X40679Y-28280D01*
X40673Y-28280D01*
X40667Y-28279D01*
X40662Y-28279D01*
X40638Y-28278D01*
X40615Y-28280D01*
X40593Y-28283D01*
X40573Y-28289D01*
X40559Y-28294D01*
X40543Y-28301D01*
X40543Y-28281D01*
X40487Y-28142D01*
X40479Y-28124D01*
X40472Y-28106D01*
X40465Y-28090D01*
X40459Y-28074D01*
X40453Y-28059D01*
X40448Y-28046D01*
X40443Y-28034D01*
X40439Y-28024D01*
X40435Y-28015D01*
X40433Y-28009D01*
X40431Y-28004D01*
X40430Y-28001D01*
X40429Y-28001D01*
X40429Y-28000D01*
X40427Y-28001D01*
X40424Y-28002D01*
X40419Y-28004D01*
X40417Y-28005D01*
X40400Y-28014D01*
X40383Y-28027D01*
X40367Y-28041D01*
X40353Y-28056D01*
X40344Y-28069D01*
X40338Y-28078D01*
X40331Y-28089D01*
X40325Y-28101D01*
X40319Y-28113D01*
X40313Y-28124D01*
X40310Y-28133D01*
X40305Y-28145D01*
X40335Y-28227D01*
X40365Y-28308D01*
X40394Y-28336D01*
X40402Y-28344D01*
X40409Y-28350D01*
X40414Y-28355D01*
X40418Y-28359D01*
X40421Y-28361D01*
X40423Y-28363D01*
X40424Y-28363D01*
X40425Y-28363D01*
X40425Y-28363D01*
X40427Y-28362D01*
X40430Y-28359D01*
X40435Y-28355D01*
X40440Y-28351D01*
X40442Y-28349D01*
X40458Y-28336D01*
X40473Y-28324D01*
X40487Y-28314D01*
X40501Y-28305D01*
X40513Y-28297D01*
X40525Y-28290D01*
X40528Y-28289D01*
X40543Y-28281D01*
X40543Y-28301D01*
X40543Y-28301D01*
X40527Y-28310D01*
X40511Y-28319D01*
X40494Y-28330D01*
X40492Y-28332D01*
X40488Y-28335D01*
X40483Y-28339D01*
X40477Y-28344D01*
X40470Y-28349D01*
X40463Y-28355D01*
X40457Y-28360D01*
X40451Y-28365D01*
X40446Y-28370D01*
X40442Y-28374D01*
X40439Y-28376D01*
X40437Y-28378D01*
X40437Y-28378D01*
X40438Y-28379D01*
X40441Y-28381D01*
X40444Y-28386D01*
X40450Y-28391D01*
X40455Y-28397D01*
X40462Y-28405D01*
X40470Y-28413D01*
X40474Y-28417D01*
X40512Y-28455D01*
X40518Y-28454D01*
X40522Y-28453D01*
X40528Y-28453D01*
X40533Y-28452D01*
X40548Y-28450D01*
X40563Y-28447D01*
X40580Y-28441D01*
X40597Y-28434D01*
X40615Y-28426D01*
X40633Y-28417D01*
X40639Y-28413D01*
X40645Y-28409D01*
X40652Y-28405D01*
X40659Y-28400D01*
X40665Y-28396D01*
X40671Y-28392D01*
X40676Y-28388D01*
X40680Y-28385D01*
X40681Y-28384D01*
X40681Y-28382D01*
X40682Y-28378D01*
X40682Y-28372D01*
X40683Y-28365D01*
X40683Y-28356D01*
X40684Y-28347D01*
X40684Y-28343D01*
X40684Y-28333D01*
X40685Y-28323D01*
X40685Y-28314D01*
X40685Y-28306D01*
X40686Y-28299D01*
X40686Y-28294D01*
X40686Y-28294D01*
X40686Y-28288D01*
X40686Y-28429D01*
X40683Y-28431D01*
X40678Y-28435D01*
X40675Y-28438D01*
X40673Y-28440D01*
X40672Y-28442D01*
X40672Y-28444D01*
X40672Y-28448D01*
X40673Y-28454D01*
X40673Y-28463D01*
X40674Y-28472D01*
X40674Y-28484D01*
X40675Y-28497D01*
X40676Y-28510D01*
X40676Y-28525D01*
X40677Y-28532D01*
X40678Y-28546D01*
X40678Y-28561D01*
X40679Y-28574D01*
X40679Y-28586D01*
X40680Y-28596D01*
X40680Y-28605D01*
X40680Y-28613D01*
X40681Y-28618D01*
X40681Y-28621D01*
X40681Y-28621D01*
X40680Y-28623D01*
X40681Y-28624D01*
X40683Y-28625D01*
X40686Y-28625D01*
X40691Y-28626D01*
X40695Y-28627D01*
X40701Y-28627D01*
X40709Y-28629D01*
X40718Y-28631D01*
X40727Y-28633D01*
X40735Y-28635D01*
X40741Y-28637D01*
X40744Y-28638D01*
X40756Y-28645D01*
X40769Y-28653D01*
X40780Y-28663D01*
X40790Y-28675D01*
X40796Y-28682D01*
X40802Y-28692D01*
X40807Y-28703D01*
X40812Y-28716D01*
X40816Y-28727D01*
X40818Y-28737D01*
X40819Y-28748D01*
X40819Y-28759D01*
X40819Y-28769D01*
X40817Y-28778D01*
X40817Y-28779D01*
X40813Y-28788D01*
X40807Y-28795D01*
X40801Y-28801D01*
X40797Y-28803D01*
X40791Y-28806D01*
X40781Y-28806D01*
X40781Y-28768D01*
X40781Y-28755D01*
X40780Y-28747D01*
X40779Y-28741D01*
X40778Y-28735D01*
X40777Y-28733D01*
X40772Y-28718D01*
X40764Y-28705D01*
X40755Y-28694D01*
X40745Y-28685D01*
X40734Y-28677D01*
X40726Y-28674D01*
X40722Y-28672D01*
X40715Y-28671D01*
X40707Y-28669D01*
X40699Y-28667D01*
X40691Y-28666D01*
X40684Y-28664D01*
X40680Y-28664D01*
X40676Y-28664D01*
X40673Y-28664D01*
X40672Y-28664D01*
X40672Y-28666D01*
X40672Y-28666D01*
X40671Y-28669D01*
X40670Y-28673D01*
X40669Y-28679D01*
X40668Y-28685D01*
X40667Y-28687D01*
X40666Y-28694D01*
X40665Y-28699D01*
X40664Y-28703D01*
X40664Y-28706D01*
X40665Y-28708D01*
X40665Y-28710D01*
X40667Y-28716D01*
X40669Y-28724D01*
X40670Y-28733D01*
X40671Y-28742D01*
X40672Y-28750D01*
X40672Y-28756D01*
X40672Y-28769D01*
X40726Y-28768D01*
X40781Y-28768D01*
X40781Y-28806D01*
X40642Y-28807D01*
X40642Y-28615D01*
X40638Y-28543D01*
X40638Y-28530D01*
X40637Y-28517D01*
X40636Y-28505D01*
X40636Y-28494D01*
X40635Y-28485D01*
X40635Y-28477D01*
X40635Y-28471D01*
X40634Y-28467D01*
X40634Y-28466D01*
X40634Y-28461D01*
X40620Y-28467D01*
X40600Y-28476D01*
X40579Y-28483D01*
X40557Y-28488D01*
X40540Y-28491D01*
X40537Y-28492D01*
X40536Y-28493D01*
X40534Y-28495D01*
X40532Y-28498D01*
X40529Y-28503D01*
X40528Y-28504D01*
X40519Y-28519D01*
X40511Y-28531D01*
X40503Y-28539D01*
X40497Y-28546D01*
X40490Y-28585D01*
X40490Y-28491D01*
X40490Y-28490D01*
X40489Y-28489D01*
X40487Y-28487D01*
X40484Y-28483D01*
X40480Y-28479D01*
X40475Y-28473D01*
X40468Y-28466D01*
X40462Y-28460D01*
X40454Y-28453D01*
X40449Y-28446D01*
X40443Y-28441D01*
X40438Y-28436D01*
X40435Y-28433D01*
X40433Y-28431D01*
X40433Y-28431D01*
X40431Y-28432D01*
X40428Y-28434D01*
X40424Y-28437D01*
X40419Y-28441D01*
X40418Y-28442D01*
X40412Y-28447D01*
X40405Y-28454D01*
X40399Y-28460D01*
X40393Y-28466D01*
X40388Y-28471D01*
X40384Y-28476D01*
X40381Y-28479D01*
X40380Y-28481D01*
X40381Y-28485D01*
X40383Y-28490D01*
X40387Y-28495D01*
X40393Y-28501D01*
X40399Y-28507D01*
X40407Y-28512D01*
X40415Y-28517D01*
X40423Y-28521D01*
X40432Y-28524D01*
X40439Y-28526D01*
X40441Y-28526D01*
X40447Y-28526D01*
X40453Y-28526D01*
X40459Y-28524D01*
X40460Y-28524D01*
X40464Y-28521D01*
X40469Y-28517D01*
X40475Y-28512D01*
X40480Y-28506D01*
X40485Y-28500D01*
X40488Y-28495D01*
X40490Y-28491D01*
X40490Y-28585D01*
X40485Y-28607D01*
X40483Y-28619D01*
X40481Y-28631D01*
X40479Y-28641D01*
X40477Y-28650D01*
X40476Y-28655D01*
X40476Y-28561D01*
X40475Y-28561D01*
X40472Y-28561D01*
X40469Y-28563D01*
X40462Y-28564D01*
X40453Y-28565D01*
X40444Y-28565D01*
X40434Y-28564D01*
X40425Y-28563D01*
X40424Y-28562D01*
X40410Y-28558D01*
X40397Y-28552D01*
X40385Y-28544D01*
X40373Y-28536D01*
X40363Y-28527D01*
X40354Y-28517D01*
X40347Y-28507D01*
X40343Y-28497D01*
X40343Y-28497D01*
X40341Y-28492D01*
X40341Y-28486D01*
X40341Y-28482D01*
X40341Y-28478D01*
X40341Y-28474D01*
X40343Y-28470D01*
X40345Y-28464D01*
X40346Y-28463D01*
X40349Y-28458D01*
X40352Y-28453D01*
X40356Y-28448D01*
X40361Y-28442D01*
X40365Y-28438D01*
X40371Y-28432D01*
X40378Y-28425D01*
X40385Y-28419D01*
X40391Y-28413D01*
X40405Y-28402D01*
X40388Y-28385D01*
X40383Y-28380D01*
X40378Y-28376D01*
X40374Y-28372D01*
X40372Y-28370D01*
X40371Y-28370D01*
X40370Y-28371D01*
X40368Y-28374D01*
X40365Y-28379D01*
X40361Y-28386D01*
X40357Y-28394D01*
X40352Y-28403D01*
X40346Y-28413D01*
X40342Y-28420D01*
X40315Y-28469D01*
X40297Y-28542D01*
X40293Y-28556D01*
X40290Y-28570D01*
X40287Y-28583D01*
X40284Y-28595D01*
X40281Y-28606D01*
X40279Y-28616D01*
X40278Y-28624D01*
X40276Y-28630D01*
X40276Y-28632D01*
X40273Y-28650D01*
X40277Y-28656D01*
X40280Y-28659D01*
X40282Y-28661D01*
X40283Y-28661D01*
X40284Y-28660D01*
X40297Y-28652D01*
X40310Y-28646D01*
X40324Y-28642D01*
X40325Y-28642D01*
X40332Y-28641D01*
X40341Y-28640D01*
X40351Y-28640D01*
X40361Y-28640D01*
X40370Y-28640D01*
X40379Y-28641D01*
X40381Y-28641D01*
X40398Y-28645D01*
X40413Y-28651D01*
X40427Y-28659D01*
X40440Y-28668D01*
X40445Y-28673D01*
X40448Y-28676D01*
X40451Y-28679D01*
X40452Y-28681D01*
X40452Y-28681D01*
X40453Y-28680D01*
X40453Y-28676D01*
X40455Y-28671D01*
X40456Y-28663D01*
X40458Y-28654D01*
X40460Y-28644D01*
X40462Y-28633D01*
X40464Y-28621D01*
X40467Y-28609D01*
X40469Y-28598D01*
X40471Y-28587D01*
X40473Y-28578D01*
X40474Y-28571D01*
X40475Y-28565D01*
X40476Y-28562D01*
X40476Y-28561D01*
X40476Y-28655D01*
X40476Y-28658D01*
X40475Y-28664D01*
X40474Y-28668D01*
X40474Y-28669D01*
X40474Y-28669D01*
X40477Y-28667D01*
X40479Y-28666D01*
X40483Y-28663D01*
X40488Y-28659D01*
X40491Y-28657D01*
X40504Y-28650D01*
X40519Y-28645D01*
X40535Y-28642D01*
X40551Y-28640D01*
X40568Y-28639D01*
X40583Y-28641D01*
X40598Y-28644D01*
X40612Y-28648D01*
X40616Y-28651D01*
X40621Y-28653D01*
X40626Y-28656D01*
X40628Y-28657D01*
X40633Y-28661D01*
X40637Y-28638D01*
X40642Y-28615D01*
X40642Y-28807D01*
X40634Y-28807D01*
X40634Y-28770D01*
X40633Y-28753D01*
X40631Y-28737D01*
X40628Y-28723D01*
X40623Y-28711D01*
X40617Y-28701D01*
X40609Y-28693D01*
X40602Y-28688D01*
X40594Y-28684D01*
X40586Y-28681D01*
X40578Y-28679D01*
X40568Y-28679D01*
X40561Y-28679D01*
X40547Y-28679D01*
X40536Y-28681D01*
X40526Y-28684D01*
X40516Y-28689D01*
X40515Y-28689D01*
X40505Y-28696D01*
X40496Y-28705D01*
X40488Y-28715D01*
X40483Y-28728D01*
X40479Y-28741D01*
X40478Y-28756D01*
X40477Y-28760D01*
X40477Y-28769D01*
X40536Y-28769D01*
X40548Y-28769D01*
X40561Y-28769D01*
X40574Y-28769D01*
X40585Y-28769D01*
X40596Y-28769D01*
X40605Y-28769D01*
X40611Y-28770D01*
X40614Y-28770D01*
X40634Y-28770D01*
X40634Y-28807D01*
X40510Y-28807D01*
X40483Y-28807D01*
X40455Y-28807D01*
X40440Y-28807D01*
X40440Y-28769D01*
X40439Y-28757D01*
X40437Y-28741D01*
X40433Y-28727D01*
X40428Y-28715D01*
X40421Y-28704D01*
X40412Y-28696D01*
X40401Y-28689D01*
X40389Y-28684D01*
X40381Y-28681D01*
X40374Y-28680D01*
X40365Y-28679D01*
X40356Y-28679D01*
X40347Y-28679D01*
X40338Y-28679D01*
X40333Y-28680D01*
X40321Y-28684D01*
X40311Y-28690D01*
X40302Y-28698D01*
X40295Y-28708D01*
X40290Y-28720D01*
X40286Y-28733D01*
X40283Y-28749D01*
X40283Y-28755D01*
X40282Y-28769D01*
X40361Y-28769D01*
X40440Y-28769D01*
X40440Y-28807D01*
X40428Y-28807D01*
X40401Y-28807D01*
X40375Y-28807D01*
X40349Y-28807D01*
X40325Y-28807D01*
X40301Y-28807D01*
X40279Y-28807D01*
X40258Y-28808D01*
X40256Y-28808D01*
X40256Y-28696D01*
X40256Y-28694D01*
X40255Y-28693D01*
X40253Y-28689D01*
X40250Y-28685D01*
X40246Y-28680D01*
X40246Y-28679D01*
X40242Y-28674D01*
X40239Y-28670D01*
X40236Y-28668D01*
X40234Y-28666D01*
X40232Y-28665D01*
X40230Y-28665D01*
X40224Y-28664D01*
X40215Y-28664D01*
X40210Y-28664D01*
X40210Y-28623D01*
X40210Y-28623D01*
X40209Y-28621D01*
X40207Y-28618D01*
X40203Y-28613D01*
X40199Y-28608D01*
X40194Y-28601D01*
X40193Y-28599D01*
X40189Y-28593D01*
X40185Y-28589D01*
X40182Y-28585D01*
X40180Y-28581D01*
X40178Y-28577D01*
X40176Y-28573D01*
X40174Y-28568D01*
X40172Y-28562D01*
X40170Y-28555D01*
X40167Y-28546D01*
X40164Y-28535D01*
X40162Y-28526D01*
X40160Y-28519D01*
X40158Y-28513D01*
X40156Y-28508D01*
X40155Y-28506D01*
X40155Y-28505D01*
X40154Y-28506D01*
X40153Y-28509D01*
X40152Y-28514D01*
X40151Y-28520D01*
X40150Y-28526D01*
X40149Y-28532D01*
X40149Y-28535D01*
X40148Y-28544D01*
X40148Y-28552D01*
X40149Y-28561D01*
X40151Y-28570D01*
X40154Y-28580D01*
X40158Y-28591D01*
X40163Y-28603D01*
X40170Y-28617D01*
X40170Y-28618D01*
X40175Y-28629D01*
X40180Y-28628D01*
X40184Y-28627D01*
X40189Y-28627D01*
X40196Y-28626D01*
X40198Y-28626D01*
X40205Y-28625D01*
X40209Y-28624D01*
X40210Y-28623D01*
X40210Y-28664D01*
X40206Y-28664D01*
X40195Y-28665D01*
X40185Y-28667D01*
X40174Y-28669D01*
X40165Y-28672D01*
X40159Y-28674D01*
X40147Y-28679D01*
X40137Y-28687D01*
X40127Y-28697D01*
X40119Y-28709D01*
X40112Y-28721D01*
X40107Y-28735D01*
X40106Y-28743D01*
X40104Y-28750D01*
X40104Y-28755D01*
X40104Y-28760D01*
X40104Y-28762D01*
X40105Y-28768D01*
X40152Y-28769D01*
X40164Y-28769D01*
X40176Y-28769D01*
X40188Y-28769D01*
X40199Y-28769D01*
X40209Y-28769D01*
X40217Y-28770D01*
X40221Y-28770D01*
X40243Y-28770D01*
X40243Y-28761D01*
X40244Y-28750D01*
X40245Y-28738D01*
X40247Y-28726D01*
X40250Y-28715D01*
X40253Y-28706D01*
X40254Y-28703D01*
X40255Y-28699D01*
X40256Y-28696D01*
X40256Y-28808D01*
X40238Y-28808D01*
X40220Y-28808D01*
X40204Y-28808D01*
X40191Y-28808D01*
X40179Y-28808D01*
X40169Y-28808D01*
X40165Y-28808D01*
X40150Y-28808D01*
X40137Y-28808D01*
X40127Y-28808D01*
X40118Y-28808D01*
X40111Y-28808D01*
X40106Y-28808D01*
X40102Y-28808D01*
X40098Y-28808D01*
X40096Y-28808D01*
X40094Y-28807D01*
X40092Y-28807D01*
X40085Y-28803D01*
X40078Y-28796D01*
X40072Y-28788D01*
X40068Y-28779D01*
X40065Y-28768D01*
X40065Y-28757D01*
X40065Y-28750D01*
X40068Y-28732D01*
X40073Y-28714D01*
X40080Y-28698D01*
X40089Y-28683D01*
X40099Y-28669D01*
X40111Y-28657D01*
X40125Y-28647D01*
X40128Y-28645D01*
X40137Y-28640D01*
X40131Y-28627D01*
X40125Y-28615D01*
X40121Y-28604D01*
X40117Y-28594D01*
X40114Y-28586D01*
X40113Y-28582D01*
X40111Y-28570D01*
X40110Y-28557D01*
X40109Y-28542D01*
X40110Y-28527D01*
X40112Y-28514D01*
X40113Y-28509D01*
X40113Y-28507D01*
X40112Y-28505D01*
X40109Y-28504D01*
X40104Y-28504D01*
X40100Y-28504D01*
X40089Y-28503D01*
X40080Y-28501D01*
X40074Y-28498D01*
X40069Y-28493D01*
X40067Y-28488D01*
X40067Y-28481D01*
X40067Y-28480D01*
X40068Y-28476D01*
X40070Y-28472D01*
X40074Y-28469D01*
X40078Y-28466D01*
X40085Y-28464D01*
X40093Y-28462D01*
X40103Y-28460D01*
X40113Y-28459D01*
X40130Y-28456D01*
X40134Y-28448D01*
X40138Y-28440D01*
X40133Y-28436D01*
X40124Y-28428D01*
X40117Y-28419D01*
X40112Y-28408D01*
X40109Y-28397D01*
X40109Y-28386D01*
X40110Y-28375D01*
X40113Y-28364D01*
X40119Y-28354D01*
X40126Y-28346D01*
X40135Y-28338D01*
X40145Y-28333D01*
X40156Y-28330D01*
X40167Y-28329D01*
X40172Y-28329D01*
X40179Y-28329D01*
X40184Y-28330D01*
X40189Y-28332D01*
X40193Y-28334D01*
X40204Y-28341D01*
X40213Y-28349D01*
X40220Y-28358D01*
X40224Y-28369D01*
X40227Y-28381D01*
X40227Y-28388D01*
X40226Y-28401D01*
X40222Y-28412D01*
X40216Y-28422D01*
X40208Y-28431D01*
X40200Y-28437D01*
X40196Y-28440D01*
X40193Y-28442D01*
X40193Y-28390D01*
X40192Y-28382D01*
X40189Y-28375D01*
X40184Y-28369D01*
X40178Y-28365D01*
X40174Y-28364D01*
X40166Y-28363D01*
X40160Y-28364D01*
X40154Y-28367D01*
X40149Y-28372D01*
X40145Y-28378D01*
X40143Y-28384D01*
X40143Y-28391D01*
X40145Y-28398D01*
X40148Y-28402D01*
X40153Y-28408D01*
X40160Y-28411D01*
X40167Y-28413D01*
X40175Y-28412D01*
X40179Y-28410D01*
X40185Y-28405D01*
X40190Y-28399D01*
X40192Y-28392D01*
X40193Y-28390D01*
X40193Y-28442D01*
X40191Y-28443D01*
X40187Y-28444D01*
X40183Y-28445D01*
X40181Y-28447D01*
X40180Y-28448D01*
X40181Y-28450D01*
X40181Y-28452D01*
X40182Y-28453D01*
X40185Y-28453D01*
X40189Y-28453D01*
X40192Y-28453D01*
X40200Y-28453D01*
X40207Y-28454D01*
X40214Y-28455D01*
X40220Y-28456D01*
X40224Y-28457D01*
X40225Y-28457D01*
X40230Y-28461D01*
X40234Y-28467D01*
X40235Y-28473D01*
X40235Y-28479D01*
X40232Y-28485D01*
X40229Y-28487D01*
X40225Y-28490D01*
X40219Y-28493D01*
X40211Y-28495D01*
X40205Y-28497D01*
X40201Y-28497D01*
X40198Y-28498D01*
X40197Y-28499D01*
X40196Y-28500D01*
X40197Y-28504D01*
X40198Y-28509D01*
X40200Y-28515D01*
X40202Y-28523D01*
X40204Y-28530D01*
X40206Y-28538D01*
X40208Y-28546D01*
X40211Y-28552D01*
X40213Y-28557D01*
X40214Y-28561D01*
X40215Y-28562D01*
X40219Y-28569D01*
X40224Y-28575D01*
X40229Y-28582D01*
X40233Y-28587D01*
X40237Y-28592D01*
X40240Y-28596D01*
X40242Y-28597D01*
X40242Y-28598D01*
X40243Y-28596D01*
X40244Y-28592D01*
X40245Y-28587D01*
X40247Y-28579D01*
X40250Y-28570D01*
X40252Y-28559D01*
X40255Y-28548D01*
X40258Y-28535D01*
X40261Y-28525D01*
X40279Y-28453D01*
X40310Y-28396D01*
X40342Y-28340D01*
X40337Y-28334D01*
X40336Y-28333D01*
X40335Y-28332D01*
X40334Y-28330D01*
X40332Y-28327D01*
X40331Y-28324D01*
X40329Y-28320D01*
X40327Y-28315D01*
X40324Y-28308D01*
X40321Y-28300D01*
X40317Y-28290D01*
X40312Y-28278D01*
X40307Y-28263D01*
X40302Y-28252D01*
X40297Y-28238D01*
X40292Y-28225D01*
X40288Y-28213D01*
X40284Y-28202D01*
X40280Y-28192D01*
X40277Y-28184D01*
X40275Y-28178D01*
X40273Y-28173D01*
X40272Y-28171D01*
X40272Y-28171D01*
X40272Y-28170D01*
X40270Y-28170D01*
X40268Y-28170D01*
X40265Y-28170D01*
X40260Y-28171D01*
X40259Y-28171D01*
X40259Y-28131D01*
X40258Y-28130D01*
X40255Y-28128D01*
X40252Y-28125D01*
X40248Y-28122D01*
X40229Y-28109D01*
X40210Y-28099D01*
X40192Y-28091D01*
X40173Y-28085D01*
X40155Y-28082D01*
X40140Y-28082D01*
X40130Y-28082D01*
X40120Y-28083D01*
X40112Y-28084D01*
X40102Y-28087D01*
X40100Y-28087D01*
X40090Y-28091D01*
X40082Y-28095D01*
X40076Y-28098D01*
X40071Y-28102D01*
X40070Y-28104D01*
X40064Y-28113D01*
X40060Y-28124D01*
X40058Y-28131D01*
X40057Y-28136D01*
X40056Y-28143D01*
X40056Y-28149D01*
X40056Y-28155D01*
X40057Y-28159D01*
X40058Y-28160D01*
X40059Y-28162D01*
X40060Y-28163D01*
X40062Y-28163D01*
X40065Y-28163D01*
X40070Y-28163D01*
X40077Y-28162D01*
X40081Y-28161D01*
X40091Y-28160D01*
X40104Y-28158D01*
X40118Y-28156D01*
X40134Y-28153D01*
X40150Y-28151D01*
X40166Y-28148D01*
X40183Y-28145D01*
X40190Y-28144D01*
X40205Y-28141D01*
X40218Y-28139D01*
X40229Y-28137D01*
X40237Y-28135D01*
X40244Y-28134D01*
X40250Y-28133D01*
X40254Y-28132D01*
X40256Y-28132D01*
X40258Y-28131D01*
X40259Y-28131D01*
X40259Y-28131D01*
X40259Y-28171D01*
X40253Y-28172D01*
X40248Y-28173D01*
X40234Y-28176D01*
X40218Y-28179D01*
X40201Y-28182D01*
X40184Y-28185D01*
X40166Y-28188D01*
X40149Y-28190D01*
X40133Y-28193D01*
X40119Y-28195D01*
X40112Y-28197D01*
X40099Y-28198D01*
X40089Y-28200D01*
X40080Y-28201D01*
X40072Y-28201D01*
X40064Y-28201D01*
X40063Y-28201D01*
X40045Y-28202D01*
X40039Y-28197D01*
X40031Y-28190D01*
X40024Y-28181D01*
X40020Y-28171D01*
X40017Y-28159D01*
X40017Y-28145D01*
X40018Y-28136D01*
X40020Y-28120D01*
X40025Y-28106D01*
X40031Y-28093D01*
X40038Y-28081D01*
X40047Y-28071D01*
X40056Y-28064D01*
X40062Y-28060D01*
X40082Y-28052D01*
X40102Y-28046D01*
X40123Y-28043D01*
X40144Y-28042D01*
X40165Y-28044D01*
X40187Y-28048D01*
X40208Y-28055D01*
X40229Y-28064D01*
X40236Y-28068D01*
X40245Y-28073D01*
X40254Y-28079D01*
X40263Y-28084D01*
X40271Y-28089D01*
X40277Y-28094D01*
X40282Y-28098D01*
X40287Y-28088D01*
X40300Y-28064D01*
X40314Y-28043D01*
X40329Y-28023D01*
X40346Y-28006D01*
X40363Y-27991D01*
X40380Y-27980D01*
X40399Y-27970D01*
X40419Y-27961D01*
X40441Y-27953D01*
X40446Y-27951D01*
X40468Y-27945D01*
X40489Y-27941D01*
X40508Y-27938D01*
X40527Y-27937D01*
X40544Y-27938D01*
X40562Y-27940D01*
X40578Y-27945D01*
X40595Y-27951D01*
X40609Y-27958D01*
X40625Y-27966D01*
X40629Y-27957D01*
X40639Y-27934D01*
X40652Y-27913D01*
X40665Y-27895D01*
X40680Y-27878D01*
X40696Y-27863D01*
X40714Y-27851D01*
X40732Y-27841D01*
X40752Y-27833D01*
X40769Y-27828D01*
X40781Y-27826D01*
X40793Y-27825D01*
X40804Y-27825D01*
X40814Y-27827D01*
X40821Y-27829D01*
X40833Y-27834D01*
X40844Y-27841D01*
X40854Y-27850D01*
X40864Y-27859D01*
X40872Y-27869D01*
X40879Y-27880D01*
X40883Y-27891D01*
X40886Y-27902D01*
X40887Y-27912D01*
X40887Y-27912D01*
X40887Y-27912D01*
G37*
G36*
X40453Y-28642D02*
X40452Y-28646D01*
X40451Y-28650D01*
X40450Y-28650D01*
X40447Y-28652D01*
X40445Y-28653D01*
X40441Y-28652D01*
X40438Y-28649D01*
X40436Y-28646D01*
X40436Y-28642D01*
X40438Y-28638D01*
X40441Y-28636D01*
X40445Y-28635D01*
X40449Y-28636D01*
X40452Y-28639D01*
X40453Y-28642D01*
X40453Y-28642D01*
X40453Y-28642D01*
G37*
G36*
X40462Y-28609D02*
X40462Y-28613D01*
X40460Y-28616D01*
X40460Y-28617D01*
X40456Y-28619D01*
X40452Y-28619D01*
X40449Y-28618D01*
X40448Y-28617D01*
X40446Y-28613D01*
X40446Y-28609D01*
X40447Y-28607D01*
X40449Y-28603D01*
X40452Y-28602D01*
X40456Y-28602D01*
X40460Y-28604D01*
X40461Y-28606D01*
X40462Y-28609D01*
X40462Y-28609D01*
X40462Y-28609D01*
G37*
G36*
X40470Y-28580D02*
X40469Y-28584D01*
X40466Y-28587D01*
X40462Y-28589D01*
X40458Y-28589D01*
X40458Y-28588D01*
X40454Y-28586D01*
X40452Y-28582D01*
X40452Y-28577D01*
X40454Y-28574D01*
X40457Y-28572D01*
X40460Y-28571D01*
X40464Y-28572D01*
X40468Y-28575D01*
X40469Y-28578D01*
X40470Y-28580D01*
X40470Y-28580D01*
X40470Y-28580D01*
G37*
G36*
X40640Y-28332D02*
X40640Y-28335D01*
X40639Y-28337D01*
X40637Y-28346D01*
X40633Y-28355D01*
X40627Y-28365D01*
X40619Y-28374D01*
X40610Y-28382D01*
X40600Y-28390D01*
X40590Y-28396D01*
X40579Y-28400D01*
X40575Y-28402D01*
X40565Y-28404D01*
X40555Y-28404D01*
X40545Y-28404D01*
X40543Y-28404D01*
X40538Y-28402D01*
X40532Y-28401D01*
X40529Y-28400D01*
X40524Y-28397D01*
X40519Y-28395D01*
X40515Y-28392D01*
X40511Y-28389D01*
X40508Y-28387D01*
X40508Y-28386D01*
X40509Y-28385D01*
X40512Y-28383D01*
X40517Y-28381D01*
X40524Y-28378D01*
X40531Y-28374D01*
X40540Y-28370D01*
X40549Y-28365D01*
X40558Y-28361D01*
X40567Y-28357D01*
X40575Y-28353D01*
X40583Y-28350D01*
X40590Y-28347D01*
X40598Y-28344D01*
X40606Y-28340D01*
X40614Y-28337D01*
X40621Y-28335D01*
X40628Y-28332D01*
X40633Y-28331D01*
X40637Y-28330D01*
X40638Y-28330D01*
X40639Y-28330D01*
X40640Y-28332D01*
X40640Y-28332D01*
X40640Y-28332D01*
G37*
G36*
X40639Y-28293D02*
X40638Y-28298D01*
X40635Y-28301D01*
X40631Y-28302D01*
X40627Y-28302D01*
X40624Y-28300D01*
X40622Y-28296D01*
X40622Y-28292D01*
X40623Y-28288D01*
X40626Y-28285D01*
X40630Y-28284D01*
X40635Y-28285D01*
X40638Y-28288D01*
X40639Y-28293D01*
X40639Y-28293D01*
X40639Y-28293D01*
X40639Y-28293D01*
G37*
G36*
X40670Y-28293D02*
X40669Y-28298D01*
X40666Y-28301D01*
X40662Y-28302D01*
X40658Y-28301D01*
X40655Y-28300D01*
X40653Y-28296D01*
X40652Y-28292D01*
X40654Y-28288D01*
X40655Y-28287D01*
X40658Y-28284D01*
X40662Y-28284D01*
X40666Y-28286D01*
X40668Y-28289D01*
X40670Y-28293D01*
X40670Y-28293D01*
X40670Y-28293D01*
X40670Y-28293D01*
G37*
G36*
X40469Y-28219D02*
X40468Y-28231D01*
X40465Y-28242D01*
X40460Y-28253D01*
X40452Y-28262D01*
X40452Y-28263D01*
X40443Y-28270D01*
X40435Y-28274D01*
X40435Y-28224D01*
X40435Y-28217D01*
X40433Y-28210D01*
X40429Y-28204D01*
X40424Y-28200D01*
X40420Y-28197D01*
X40414Y-28196D01*
X40412Y-28196D01*
X40407Y-28196D01*
X40403Y-28196D01*
X40400Y-28198D01*
X40398Y-28199D01*
X40392Y-28205D01*
X40388Y-28211D01*
X40386Y-28217D01*
X40386Y-28224D01*
X40388Y-28231D01*
X40392Y-28237D01*
X40397Y-28241D01*
X40404Y-28244D01*
X40405Y-28245D01*
X40412Y-28246D01*
X40418Y-28244D01*
X40424Y-28241D01*
X40430Y-28237D01*
X40434Y-28230D01*
X40435Y-28224D01*
X40435Y-28274D01*
X40433Y-28276D01*
X40421Y-28279D01*
X40409Y-28280D01*
X40397Y-28279D01*
X40396Y-28278D01*
X40384Y-28274D01*
X40374Y-28268D01*
X40366Y-28260D01*
X40360Y-28251D01*
X40355Y-28241D01*
X40352Y-28231D01*
X40352Y-28220D01*
X40353Y-28209D01*
X40356Y-28198D01*
X40361Y-28188D01*
X40369Y-28179D01*
X40369Y-28178D01*
X40378Y-28171D01*
X40389Y-28165D01*
X40399Y-28162D01*
X40410Y-28161D01*
X40421Y-28162D01*
X40432Y-28165D01*
X40442Y-28170D01*
X40451Y-28177D01*
X40458Y-28185D01*
X40463Y-28195D01*
X40467Y-28207D01*
X40469Y-28219D01*
X40469Y-28219D01*
X40469Y-28219D01*
G37*
G36*
X40659Y-28148D02*
X40659Y-28159D01*
X40656Y-28170D01*
X40652Y-28180D01*
X40646Y-28190D01*
X40641Y-28196D01*
X40632Y-28203D01*
X40624Y-28207D01*
X40624Y-28151D01*
X40623Y-28145D01*
X40620Y-28138D01*
X40615Y-28133D01*
X40611Y-28131D01*
X40603Y-28129D01*
X40596Y-28129D01*
X40589Y-28131D01*
X40583Y-28135D01*
X40579Y-28140D01*
X40576Y-28147D01*
X40575Y-28154D01*
X40576Y-28161D01*
X40579Y-28167D01*
X40584Y-28172D01*
X40590Y-28176D01*
X40597Y-28178D01*
X40604Y-28177D01*
X40611Y-28175D01*
X40617Y-28171D01*
X40621Y-28165D01*
X40624Y-28158D01*
X40624Y-28151D01*
X40624Y-28207D01*
X40621Y-28209D01*
X40609Y-28212D01*
X40597Y-28213D01*
X40586Y-28211D01*
X40584Y-28211D01*
X40573Y-28206D01*
X40563Y-28200D01*
X40554Y-28191D01*
X40547Y-28182D01*
X40543Y-28170D01*
X40542Y-28169D01*
X40541Y-28165D01*
X40541Y-28159D01*
X40541Y-28153D01*
X40541Y-28152D01*
X40542Y-28140D01*
X40545Y-28129D01*
X40551Y-28119D01*
X40559Y-28110D01*
X40569Y-28102D01*
X40580Y-28097D01*
X40592Y-28094D01*
X40604Y-28094D01*
X40610Y-28094D01*
X40621Y-28098D01*
X40632Y-28103D01*
X40640Y-28110D01*
X40648Y-28118D01*
X40653Y-28127D01*
X40657Y-28137D01*
X40659Y-28148D01*
X40659Y-28148D01*
X40659Y-28148D01*
G37*
G36*
X40500Y-28071D02*
X40499Y-28076D01*
X40496Y-28079D01*
X40491Y-28080D01*
X40491Y-28080D01*
X40488Y-28079D01*
X40486Y-28078D01*
X40483Y-28076D01*
X40483Y-28072D01*
X40483Y-28071D01*
X40483Y-28067D01*
X40485Y-28064D01*
X40486Y-28064D01*
X40490Y-28062D01*
X40494Y-28063D01*
X40497Y-28065D01*
X40499Y-28069D01*
X40500Y-28071D01*
X40500Y-28071D01*
X40500Y-28071D01*
G37*
G36*
X40488Y-28045D02*
X40486Y-28049D01*
X40485Y-28050D01*
X40482Y-28051D01*
X40477Y-28051D01*
X40474Y-28050D01*
X40473Y-28049D01*
X40471Y-28045D01*
X40471Y-28041D01*
X40472Y-28037D01*
X40473Y-28036D01*
X40476Y-28035D01*
X40480Y-28034D01*
X40484Y-28035D01*
X40486Y-28037D01*
X40488Y-28040D01*
X40488Y-28045D01*
X40488Y-28045D01*
X40488Y-28045D01*
G37*
G36*
X40474Y-28012D02*
X40473Y-28016D01*
X40473Y-28017D01*
X40470Y-28020D01*
X40466Y-28021D01*
X40462Y-28020D01*
X40462Y-28020D01*
X40459Y-28018D01*
X40457Y-28016D01*
X40457Y-28012D01*
X40458Y-28007D01*
X40461Y-28005D01*
X40465Y-28004D01*
X40469Y-28004D01*
X40471Y-28006D01*
X40472Y-28006D01*
X40473Y-28008D01*
X40474Y-28012D01*
X40474Y-28012D01*
X40474Y-28012D01*
G37*
G54D12*
X44488Y-32480D03*
X34448Y-32480D03*
X49212Y-27755D03*
X39763Y-27755D03*
X39173Y-27755D03*
X29724Y-27755D03*
X44488Y-23031D03*
X44488Y-22440D03*
X34448Y-23031D03*
X34448Y-22440D03*
X39763Y-17716D03*
X49212Y-17716D03*
X44488Y-12992D03*
X39173Y-17716D03*
X29724Y-17716D03*
X34448Y-12992D03*
X44783Y-22440D03*
X39763Y-18011D03*
X39763Y-17421D03*
X49212Y-18011D03*
X44783Y-12992D03*
X49212Y-17421D03*
X44192Y-22440D03*
X44192Y-12992D03*
G54D13*
X43503Y-21456D03*
X45472Y-21456D03*
X44488Y-21456D03*
X45472Y-15748D03*
X43503Y-15748D03*
G54D14*
X46673Y-18503D03*
X42303Y-18503D03*
G54D15*
X48031Y-21259D03*
X40944Y-21259D03*
X40944Y-14173D03*
X48031Y-14173D03*
G54D16*
X41259Y-15748D03*
G54D17*
X40433Y-15748D03*
X41220Y-16535D03*
X40472Y-16535D03*
X41259Y-17322D03*
X40433Y-17322D03*
G54D18*
X45988Y-13779D03*
G54D19*
X44988Y-13779D03*
X43988Y-13779D03*
X42988Y-13779D03*
G54D20*
X44488Y-14567D03*
X44488Y-15393D03*
X34448Y-14567D03*
X34448Y-15393D03*
G54D18*
X35948Y-13779D03*
G54D19*
X34948Y-13779D03*
X33948Y-13779D03*
X32948Y-13779D03*
G54D16*
X31220Y-15748D03*
G54D17*
X30393Y-15748D03*
X31181Y-16535D03*
X30433Y-16535D03*
X31220Y-17322D03*
X30393Y-17322D03*
G54D15*
X37992Y-14173D03*
X30905Y-14173D03*
X30905Y-21259D03*
X37992Y-21259D03*
G54D13*
X33464Y-21456D03*
X35433Y-21456D03*
X34448Y-21456D03*
X35433Y-15748D03*
X33464Y-15748D03*
G54D14*
X36633Y-18503D03*
X32263Y-18503D03*
G54D12*
X34153Y-12992D03*
X34153Y-22440D03*
X39173Y-17421D03*
X34744Y-12992D03*
X39173Y-18011D03*
X29724Y-17421D03*
X29724Y-18011D03*
X34744Y-22440D03*
X34744Y-32480D03*
X29724Y-28051D03*
X29724Y-27460D03*
X39173Y-28051D03*
X34744Y-23031D03*
X39173Y-27460D03*
X34153Y-32480D03*
X34153Y-23031D03*
G54D13*
X33464Y-31496D03*
X35433Y-31496D03*
X34448Y-31496D03*
X35433Y-25787D03*
X33464Y-25787D03*
G54D14*
X36633Y-28543D03*
X32263Y-28543D03*
G54D15*
X37992Y-31299D03*
X30905Y-31299D03*
X30905Y-24212D03*
X37992Y-24212D03*
G54D16*
X31220Y-25787D03*
G54D17*
X30393Y-25787D03*
X31181Y-26574D03*
X30433Y-26574D03*
X31220Y-27362D03*
X30393Y-27362D03*
G54D18*
X35948Y-23818D03*
G54D19*
X34948Y-23818D03*
X33948Y-23818D03*
X32948Y-23818D03*
G54D20*
X34448Y-24606D03*
X34448Y-25432D03*
X44488Y-24606D03*
X44488Y-25432D03*
G54D18*
X45988Y-23818D03*
G54D19*
X44988Y-23818D03*
X43988Y-23818D03*
X42988Y-23818D03*
G54D16*
X41259Y-25787D03*
G54D17*
X40433Y-25787D03*
X41220Y-26574D03*
X40472Y-26574D03*
X41259Y-27362D03*
X40433Y-27362D03*
G54D15*
X48031Y-24212D03*
X40944Y-24212D03*
X40944Y-31299D03*
X48031Y-31299D03*
G54D13*
X43503Y-31496D03*
X45472Y-31496D03*
X44488Y-31496D03*
X45472Y-25787D03*
X43503Y-25787D03*
G54D14*
X46673Y-28543D03*
X42303Y-28543D03*
G54D12*
X44192Y-23031D03*
X44192Y-32480D03*
X49212Y-27460D03*
X44783Y-23031D03*
X49212Y-28051D03*
X39763Y-27460D03*
X39763Y-28051D03*
X44783Y-32480D03*
M02*
