M48
METRIC,TZ
T1C0.500
%
G90
G05
T1
X081000Y-057000
X081000Y-058500
X081750Y-057000
X081750Y-058500
X082500Y-057000
X082500Y-058500
X092500Y-057000
X092500Y-058500
X093250Y-057000
X093250Y-058500
X094000Y-057000
X094000Y-058500
X099500Y-038500
X099500Y-039250
X099500Y-040000
X099500Y-050000
X099500Y-050750
X099500Y-051500
X099500Y-064000
X099500Y-064750
X099500Y-065500
X099500Y-075500
X099500Y-076250
X099500Y-077000
X101000Y-038500
X101000Y-039250
X101000Y-040000
X101000Y-050000
X101000Y-050750
X101000Y-051500
X101000Y-064000
X101000Y-064750
X101000Y-065500
X101000Y-075500
X101000Y-076250
X101000Y-077000
X106500Y-057000
X106500Y-058500
X107250Y-057000
X107250Y-058500
X108000Y-057000
X108000Y-058500
X118000Y-057000
X118000Y-058500
X118750Y-057000
X118750Y-058500
X119500Y-057000
X119500Y-058500
T0
M30
