G04 (created by PCBNEW (2013-03-02 BZR 3981)-testing) date Tue 05 Mar 2013 10:50:34 AM CET*
%MOIN*%
G04 Gerber Fmt 3.4, Leading zero omitted, Abs format*
%FSLAX34Y34*%
G01*
G70*
G90*
G04 APERTURE LIST*
%ADD10C,3.14961e-06*%
%ADD11C,0.0787402*%
G04 APERTURE END LIST*
G54D10*
G54D11*
X29429Y-26968D02*
X29429Y-24114D01*
X29429Y-18503D02*
X29429Y-21358D01*
X29429Y-21358D02*
G75*
G03X30807Y-22736I1377J0D01*
G74*
G01*
X30807Y-22736D02*
G75*
G03X29429Y-24114I0J-1377D01*
G74*
G01*
X43700Y-12696D02*
X40846Y-12696D01*
X40846Y-12696D02*
G75*
G03X39468Y-14074I0J-1377D01*
G74*
G01*
X49507Y-28543D02*
X49507Y-31397D01*
X49507Y-26968D02*
X49507Y-24114D01*
X45275Y-32775D02*
X48129Y-32775D01*
X43700Y-32775D02*
X40846Y-32775D01*
X39468Y-28543D02*
X39468Y-31397D01*
X39468Y-26968D02*
X39468Y-24114D01*
X35236Y-32775D02*
X38090Y-32775D01*
X33661Y-32775D02*
X30807Y-32775D01*
X29429Y-28543D02*
X29429Y-31397D01*
X29429Y-16929D02*
X29429Y-14074D01*
X33661Y-12696D02*
X30807Y-12696D01*
X35236Y-12696D02*
X38090Y-12696D01*
X33661Y-22736D02*
X30807Y-22736D01*
X35236Y-22736D02*
X38090Y-22736D01*
X39468Y-18503D02*
X39468Y-21358D01*
X39468Y-16929D02*
X39468Y-14074D01*
X43700Y-22736D02*
X40846Y-22736D01*
X45275Y-22736D02*
X48129Y-22736D01*
X49507Y-18503D02*
X49507Y-21358D01*
X49507Y-16929D02*
X49507Y-14074D01*
X45275Y-12696D02*
X48129Y-12696D01*
X29429Y-31397D02*
G75*
G03X30807Y-32775I1377J0D01*
G74*
G01*
X38090Y-32775D02*
G75*
G03X39468Y-31397I0J1377D01*
G74*
G01*
X39468Y-31397D02*
G75*
G03X40846Y-32775I1377J0D01*
G74*
G01*
X48129Y-32775D02*
G75*
G03X49507Y-31397I0J1377D01*
G74*
G01*
X49507Y-24114D02*
G75*
G03X48129Y-22736I-1377J0D01*
G74*
G01*
X48129Y-22736D02*
G75*
G03X49507Y-21358I0J1377D01*
G74*
G01*
X49507Y-14074D02*
G75*
G03X48129Y-12696I-1377J0D01*
G74*
G01*
X39468Y-14074D02*
G75*
G03X38090Y-12696I-1377J0D01*
G74*
G01*
X30807Y-12696D02*
G75*
G03X29429Y-14074I0J-1377D01*
G74*
G01*
X38090Y-22736D02*
G75*
G03X39468Y-21358I0J1377D01*
G74*
G01*
X39468Y-21358D02*
G75*
G03X40846Y-22736I1377J0D01*
G74*
G01*
X39468Y-24114D02*
G75*
G03X38090Y-22736I-1377J0D01*
G74*
G01*
X40846Y-22736D02*
G75*
G03X39468Y-24114I0J-1377D01*
G74*
G01*
M02*
