M48
INCH,TZ
T1C0.020
%
G90
G05
T1
X029724Y-017421
X029724Y-017717
X029724Y-018012
X029724Y-027461
X029724Y-027756
X029724Y-028051
X034154Y-012992
X034154Y-022441
X034154Y-023031
X034154Y-032480
X034449Y-012992
X034449Y-022441
X034449Y-023031
X034449Y-032480
X034744Y-012992
X034744Y-022441
X034744Y-023031
X034744Y-032480
X039173Y-017421
X039173Y-017717
X039173Y-018012
X039173Y-027461
X039173Y-027756
X039173Y-028051
X039764Y-017421
X039764Y-017717
X039764Y-018012
X039764Y-027461
X039764Y-027756
X039764Y-028051
X044193Y-012992
X044193Y-022441
X044193Y-023031
X044193Y-032480
X044488Y-012992
X044488Y-022441
X044488Y-023031
X044488Y-032480
X044783Y-012992
X044783Y-022441
X044783Y-023031
X044783Y-032480
X049213Y-017421
X049213Y-017717
X049213Y-018012
X049213Y-027461
X049213Y-027756
X049213Y-028051
T0
M30
