M48
INCH,TZ
T1C0.020
%
G90
G05
T1
X031890Y-022441
X031890Y-023031
X032185Y-022441
X032185Y-023031
X032480Y-022441
X032480Y-023031
X036417Y-022441
X036417Y-023031
X036713Y-022441
X036713Y-023031
X037008Y-022441
X037008Y-023031
X039173Y-015157
X039173Y-015453
X039173Y-015748
X039173Y-019685
X039173Y-019980
X039173Y-020276
X039173Y-025197
X039173Y-025492
X039173Y-025787
X039173Y-029724
X039173Y-030020
X039173Y-030315
X039764Y-015157
X039764Y-015453
X039764Y-015748
X039764Y-019685
X039764Y-019980
X039764Y-020276
X039764Y-025197
X039764Y-025492
X039764Y-025787
X039764Y-029724
X039764Y-030020
X039764Y-030315
X041929Y-022441
X041929Y-023031
X042224Y-022441
X042224Y-023031
X042520Y-022441
X042520Y-023031
X046457Y-022441
X046457Y-023031
X046752Y-022441
X046752Y-023031
X047047Y-022441
X047047Y-023031
T0
M30
