G04 (created by PCBNEW (2013-05-16 BZR 4153)-testing) date Thu 16 May 2013 10:35:42 PM CEST*
%MOIN*%
G04 Gerber Fmt 3.4, Leading zero omitted, Abs format*
%FSLAX34Y34*%
G01*
G70*
G90*
G04 APERTURE LIST*
%ADD10C,0.005906*%
%ADD11R,0.022047X0.069291*%
%ADD12R,0.047200X0.040880*%
%ADD13R,0.031496X0.020472*%
%ADD14R,0.031496X0.015748*%
G04 APERTURE END LIST*
G54D10*
G54D11*
X43738Y-16925D03*
X44238Y-16925D03*
X44738Y-16925D03*
X45238Y-16925D03*
X45238Y-19925D03*
X44738Y-19925D03*
X44238Y-19925D03*
X43738Y-19925D03*
G54D12*
X48149Y-17106D03*
X48149Y-16358D03*
G54D13*
X47027Y-17175D03*
G54D14*
X47027Y-16811D03*
X47027Y-16496D03*
G54D13*
X47027Y-16131D03*
X46318Y-17175D03*
G54D14*
X46318Y-16811D03*
X46318Y-16496D03*
G54D13*
X46318Y-16131D03*
X42086Y-16131D03*
G54D14*
X42086Y-16496D03*
X42086Y-16811D03*
G54D13*
X42086Y-17175D03*
X42795Y-16131D03*
G54D14*
X42795Y-16496D03*
X42795Y-16811D03*
G54D13*
X42795Y-17175D03*
X32047Y-16131D03*
G54D14*
X32047Y-16496D03*
X32047Y-16811D03*
G54D13*
X32047Y-17175D03*
X32755Y-16131D03*
G54D14*
X32755Y-16496D03*
X32755Y-16811D03*
G54D13*
X32755Y-17175D03*
X36988Y-17175D03*
G54D14*
X36988Y-16811D03*
X36988Y-16496D03*
G54D13*
X36988Y-16131D03*
X36279Y-17175D03*
G54D14*
X36279Y-16811D03*
X36279Y-16496D03*
G54D13*
X36279Y-16131D03*
G54D12*
X38110Y-17106D03*
X38110Y-16358D03*
G54D11*
X33698Y-16925D03*
X34198Y-16925D03*
X34698Y-16925D03*
X35198Y-16925D03*
X35198Y-19925D03*
X34698Y-19925D03*
X34198Y-19925D03*
X33698Y-19925D03*
X33698Y-26964D03*
X34198Y-26964D03*
X34698Y-26964D03*
X35198Y-26964D03*
X35198Y-29964D03*
X34698Y-29964D03*
X34198Y-29964D03*
X33698Y-29964D03*
G54D12*
X38110Y-27145D03*
X38110Y-26397D03*
G54D13*
X36988Y-27214D03*
G54D14*
X36988Y-26850D03*
X36988Y-26535D03*
G54D13*
X36988Y-26171D03*
X36279Y-27214D03*
G54D14*
X36279Y-26850D03*
X36279Y-26535D03*
G54D13*
X36279Y-26171D03*
X32047Y-26171D03*
G54D14*
X32047Y-26535D03*
X32047Y-26850D03*
G54D13*
X32047Y-27214D03*
X32755Y-26171D03*
G54D14*
X32755Y-26535D03*
X32755Y-26850D03*
G54D13*
X32755Y-27214D03*
X42086Y-26171D03*
G54D14*
X42086Y-26535D03*
X42086Y-26850D03*
G54D13*
X42086Y-27214D03*
X42795Y-26171D03*
G54D14*
X42795Y-26535D03*
X42795Y-26850D03*
G54D13*
X42795Y-27214D03*
X47027Y-27214D03*
G54D14*
X47027Y-26850D03*
X47027Y-26535D03*
G54D13*
X47027Y-26171D03*
X46318Y-27214D03*
G54D14*
X46318Y-26850D03*
X46318Y-26535D03*
G54D13*
X46318Y-26171D03*
G54D12*
X48149Y-27145D03*
X48149Y-26397D03*
G54D11*
X43738Y-26964D03*
X44238Y-26964D03*
X44738Y-26964D03*
X45238Y-26964D03*
X45238Y-29964D03*
X44738Y-29964D03*
X44238Y-29964D03*
X43738Y-29964D03*
M02*
