G04 (created by PCBNEW (2013-03-02 BZR 3981)-testing) date Tue 05 Mar 2013 10:24:30 AM CET*
%MOIN*%
G04 Gerber Fmt 3.4, Leading zero omitted, Abs format*
%FSLAX34Y34*%
G01*
G70*
G90*
G04 APERTURE LIST*
%ADD10C,3.14961e-06*%
%ADD11C,0.0688976*%
%ADD12O,0.167323X0.167323*%
%ADD13C,0.0984252*%
%ADD14R,0.0511811X0.0511811*%
%ADD15C,0.0511811*%
%ADD16R,0.0649606X0.0649606*%
%ADD17C,0.0649606*%
%ADD18R,0.0472X0.0472*%
%ADD19C,0.0255906*%
%ADD20C,0.00984252*%
%ADD21C,0.015748*%
%ADD22C,0.000393701*%
%ADD23C,0.008*%
%ADD24C,0.00629921*%
G04 APERTURE END LIST*
G54D10*
G54D11*
X43503Y-21456D03*
X45472Y-21456D03*
X44488Y-21456D03*
X45472Y-15748D03*
X43503Y-15748D03*
G54D12*
X46673Y-18503D03*
X42303Y-18503D03*
G54D13*
X48031Y-21259D03*
X40944Y-21259D03*
X40944Y-14173D03*
X48031Y-14173D03*
G54D14*
X41259Y-15748D03*
G54D15*
X40433Y-15748D03*
X41220Y-16535D03*
X40472Y-16535D03*
X41259Y-17322D03*
X40433Y-17322D03*
G54D16*
X45988Y-13779D03*
G54D17*
X44988Y-13779D03*
X43988Y-13779D03*
X42988Y-13779D03*
G54D18*
X44488Y-14567D03*
X44488Y-15393D03*
X34448Y-14567D03*
X34448Y-15393D03*
G54D16*
X35948Y-13779D03*
G54D17*
X34948Y-13779D03*
X33948Y-13779D03*
X32948Y-13779D03*
G54D14*
X31220Y-15748D03*
G54D15*
X30393Y-15748D03*
X31181Y-16535D03*
X30433Y-16535D03*
X31220Y-17322D03*
X30393Y-17322D03*
G54D13*
X37992Y-14173D03*
X30905Y-14173D03*
X30905Y-21259D03*
X37992Y-21259D03*
G54D11*
X33464Y-21456D03*
X35433Y-21456D03*
X34448Y-21456D03*
X35433Y-15748D03*
X33464Y-15748D03*
G54D12*
X36633Y-18503D03*
X32263Y-18503D03*
G54D11*
X33464Y-31496D03*
X35433Y-31496D03*
X34448Y-31496D03*
X35433Y-25787D03*
X33464Y-25787D03*
G54D12*
X36633Y-28543D03*
X32263Y-28543D03*
G54D13*
X37992Y-31299D03*
X30905Y-31299D03*
X30905Y-24212D03*
X37992Y-24212D03*
G54D14*
X31220Y-25787D03*
G54D15*
X30393Y-25787D03*
X31181Y-26574D03*
X30433Y-26574D03*
X31220Y-27362D03*
X30393Y-27362D03*
G54D16*
X35948Y-23818D03*
G54D17*
X34948Y-23818D03*
X33948Y-23818D03*
X32948Y-23818D03*
G54D18*
X34448Y-24606D03*
X34448Y-25432D03*
X44488Y-24606D03*
X44488Y-25432D03*
G54D16*
X45988Y-23818D03*
G54D17*
X44988Y-23818D03*
X43988Y-23818D03*
X42988Y-23818D03*
G54D14*
X41259Y-25787D03*
G54D15*
X40433Y-25787D03*
X41220Y-26574D03*
X40472Y-26574D03*
X41259Y-27362D03*
X40433Y-27362D03*
G54D13*
X48031Y-24212D03*
X40944Y-24212D03*
X40944Y-31299D03*
X48031Y-31299D03*
G54D11*
X43503Y-31496D03*
X45472Y-31496D03*
X44488Y-31496D03*
X45472Y-25787D03*
X43503Y-25787D03*
G54D12*
X46673Y-28543D03*
X42303Y-28543D03*
G54D19*
X45511Y-15118D03*
X46181Y-15688D03*
X36141Y-15688D03*
X35472Y-15118D03*
X35472Y-25157D03*
X36141Y-25728D03*
X46181Y-25728D03*
X45511Y-25157D03*
X44173Y-18917D03*
X44803Y-18582D03*
X45925Y-16496D03*
X35885Y-16496D03*
X34763Y-18582D03*
X34133Y-18917D03*
X34133Y-28956D03*
X34763Y-28622D03*
X35885Y-26535D03*
X45925Y-26535D03*
X44803Y-28622D03*
X44173Y-28956D03*
X41200Y-17893D03*
X44862Y-18051D03*
X45925Y-16141D03*
X35885Y-16141D03*
X34822Y-18051D03*
X31161Y-17893D03*
X31161Y-27933D03*
X34822Y-28090D03*
X35885Y-26181D03*
X45925Y-26181D03*
X44862Y-28090D03*
X41200Y-27933D03*
X43622Y-17677D03*
X33582Y-17677D03*
X33582Y-27716D03*
X43622Y-27716D03*
X41072Y-18208D03*
X41072Y-18818D03*
X45866Y-17027D03*
X45433Y-18169D03*
X35393Y-18169D03*
X35826Y-17027D03*
X31033Y-18818D03*
X31033Y-18208D03*
X31033Y-28248D03*
X31033Y-28858D03*
X35826Y-27066D03*
X35393Y-28208D03*
X45433Y-28208D03*
X45866Y-27066D03*
X41072Y-28858D03*
X41072Y-28248D03*
X42125Y-14074D03*
X42125Y-14685D03*
X48779Y-15472D03*
X48779Y-16968D03*
X48759Y-18543D03*
X48759Y-19468D03*
X46692Y-21555D03*
X42125Y-13484D03*
X40196Y-18937D03*
X40748Y-19606D03*
X40196Y-20118D03*
X42992Y-20433D03*
X42322Y-21692D03*
X41299Y-20118D03*
X31259Y-20118D03*
X32283Y-21692D03*
X32952Y-20433D03*
X30157Y-20118D03*
X30708Y-19606D03*
X30157Y-18937D03*
X32086Y-13484D03*
X36653Y-21555D03*
X38720Y-19468D03*
X38720Y-18543D03*
X38740Y-16968D03*
X38740Y-15472D03*
X32086Y-14685D03*
X32086Y-14074D03*
X32086Y-24114D03*
X32086Y-24724D03*
X38740Y-25511D03*
X38740Y-27007D03*
X38720Y-28582D03*
X38720Y-29507D03*
X36653Y-31594D03*
X32086Y-23523D03*
X30157Y-28976D03*
X30708Y-29645D03*
X30157Y-30157D03*
X32952Y-30472D03*
X32283Y-31732D03*
X31259Y-30157D03*
X41299Y-30157D03*
X42322Y-31732D03*
X42992Y-30472D03*
X40196Y-30157D03*
X40748Y-29645D03*
X40196Y-28976D03*
X42125Y-23523D03*
X46692Y-31594D03*
X48759Y-29507D03*
X48759Y-28582D03*
X48779Y-27007D03*
X48779Y-25511D03*
X42125Y-24724D03*
X42125Y-24114D03*
X44133Y-16161D03*
X43257Y-16998D03*
X33218Y-16998D03*
X34094Y-16161D03*
X34094Y-26200D03*
X33218Y-27037D03*
X43257Y-27037D03*
X44133Y-26200D03*
X47381Y-17204D03*
X37342Y-17204D03*
X37342Y-27244D03*
X47381Y-27244D03*
X48366Y-17755D03*
X43582Y-14842D03*
X46515Y-20078D03*
X36476Y-20078D03*
X33543Y-14842D03*
X38326Y-17755D03*
X38326Y-27795D03*
X33543Y-24881D03*
X36476Y-30118D03*
X46515Y-30118D03*
X43582Y-24881D03*
X48366Y-27795D03*
G54D20*
X45511Y-15118D02*
X45964Y-15118D01*
X46181Y-15334D02*
X46181Y-15688D01*
X45964Y-15118D02*
X46181Y-15334D01*
X35925Y-15118D02*
X36141Y-15334D01*
X36141Y-15334D02*
X36141Y-15688D01*
X35472Y-15118D02*
X35925Y-15118D01*
X35472Y-25157D02*
X35925Y-25157D01*
X36141Y-25374D02*
X36141Y-25728D01*
X35925Y-25157D02*
X36141Y-25374D01*
X45964Y-25157D02*
X46181Y-25374D01*
X46181Y-25374D02*
X46181Y-25728D01*
X45511Y-25157D02*
X45964Y-25157D01*
X41259Y-15748D02*
X41889Y-15748D01*
X44055Y-16771D02*
X44055Y-18799D01*
X44055Y-18799D02*
X44173Y-18917D01*
X44055Y-15728D02*
X44399Y-16072D01*
X44399Y-16072D02*
X44399Y-16427D01*
X44399Y-16427D02*
X44055Y-16771D01*
X41889Y-15748D02*
X42519Y-15118D01*
X43700Y-15118D02*
X44055Y-15472D01*
X44055Y-15472D02*
X44055Y-15728D01*
X42519Y-15118D02*
X43700Y-15118D01*
X41299Y-15787D02*
X41259Y-15748D01*
X44803Y-18582D02*
X45137Y-18248D01*
X45137Y-18248D02*
X45137Y-17125D01*
X45137Y-17125D02*
X45767Y-16496D01*
X45767Y-16496D02*
X45925Y-16496D01*
X35728Y-16496D02*
X35885Y-16496D01*
X35098Y-17125D02*
X35728Y-16496D01*
X35098Y-18248D02*
X35098Y-17125D01*
X34763Y-18582D02*
X35098Y-18248D01*
X31259Y-15787D02*
X31220Y-15748D01*
X32480Y-15118D02*
X33661Y-15118D01*
X34015Y-15472D02*
X34015Y-15728D01*
X33661Y-15118D02*
X34015Y-15472D01*
X31850Y-15748D02*
X32480Y-15118D01*
X34360Y-16427D02*
X34015Y-16771D01*
X34360Y-16072D02*
X34360Y-16427D01*
X34015Y-15728D02*
X34360Y-16072D01*
X34015Y-18799D02*
X34133Y-18917D01*
X34015Y-16771D02*
X34015Y-18799D01*
X31220Y-15748D02*
X31850Y-15748D01*
X31220Y-25787D02*
X31850Y-25787D01*
X34015Y-26811D02*
X34015Y-28838D01*
X34015Y-28838D02*
X34133Y-28956D01*
X34015Y-25767D02*
X34360Y-26112D01*
X34360Y-26112D02*
X34360Y-26466D01*
X34360Y-26466D02*
X34015Y-26811D01*
X31850Y-25787D02*
X32480Y-25157D01*
X33661Y-25157D02*
X34015Y-25511D01*
X34015Y-25511D02*
X34015Y-25767D01*
X32480Y-25157D02*
X33661Y-25157D01*
X31259Y-25826D02*
X31220Y-25787D01*
X34763Y-28622D02*
X35098Y-28287D01*
X35098Y-28287D02*
X35098Y-27165D01*
X35098Y-27165D02*
X35728Y-26535D01*
X35728Y-26535D02*
X35885Y-26535D01*
X45767Y-26535D02*
X45925Y-26535D01*
X45137Y-27165D02*
X45767Y-26535D01*
X45137Y-28287D02*
X45137Y-27165D01*
X44803Y-28622D02*
X45137Y-28287D01*
X41299Y-25826D02*
X41259Y-25787D01*
X42519Y-25157D02*
X43700Y-25157D01*
X44055Y-25511D02*
X44055Y-25767D01*
X43700Y-25157D02*
X44055Y-25511D01*
X41889Y-25787D02*
X42519Y-25157D01*
X44399Y-26466D02*
X44055Y-26811D01*
X44399Y-26112D02*
X44399Y-26466D01*
X44055Y-25767D02*
X44399Y-26112D01*
X44055Y-28838D02*
X44173Y-28956D01*
X44055Y-26811D02*
X44055Y-28838D01*
X41259Y-25787D02*
X41889Y-25787D01*
X41181Y-17893D02*
X40856Y-17568D01*
X40492Y-16535D02*
X40472Y-16535D01*
X40492Y-16535D02*
X40856Y-16899D01*
X40856Y-16899D02*
X40856Y-17568D01*
X41181Y-17893D02*
X41200Y-17893D01*
X41200Y-17893D02*
X41181Y-17893D01*
X44862Y-16889D02*
X44862Y-18051D01*
X45492Y-16259D02*
X44862Y-16889D01*
X45807Y-16259D02*
X45492Y-16259D01*
X45925Y-16141D02*
X45807Y-16259D01*
X35885Y-16141D02*
X35767Y-16259D01*
X35767Y-16259D02*
X35452Y-16259D01*
X35452Y-16259D02*
X34822Y-16889D01*
X34822Y-16889D02*
X34822Y-18051D01*
X31161Y-17893D02*
X31141Y-17893D01*
X31141Y-17893D02*
X31161Y-17893D01*
X30816Y-16899D02*
X30816Y-17568D01*
X30452Y-16535D02*
X30816Y-16899D01*
X30452Y-16535D02*
X30433Y-16535D01*
X31141Y-17893D02*
X30816Y-17568D01*
X31141Y-27933D02*
X30816Y-27608D01*
X30452Y-26574D02*
X30433Y-26574D01*
X30452Y-26574D02*
X30816Y-26938D01*
X30816Y-26938D02*
X30816Y-27608D01*
X31141Y-27933D02*
X31161Y-27933D01*
X31161Y-27933D02*
X31141Y-27933D01*
X34822Y-26929D02*
X34822Y-28090D01*
X35452Y-26299D02*
X34822Y-26929D01*
X35767Y-26299D02*
X35452Y-26299D01*
X35885Y-26181D02*
X35767Y-26299D01*
X45925Y-26181D02*
X45807Y-26299D01*
X45807Y-26299D02*
X45492Y-26299D01*
X45492Y-26299D02*
X44862Y-26929D01*
X44862Y-26929D02*
X44862Y-28090D01*
X41200Y-27933D02*
X41181Y-27933D01*
X41181Y-27933D02*
X41200Y-27933D01*
X40856Y-26938D02*
X40856Y-27608D01*
X40492Y-26574D02*
X40856Y-26938D01*
X40492Y-26574D02*
X40472Y-26574D01*
X41181Y-27933D02*
X40856Y-27608D01*
X43444Y-17500D02*
X41437Y-17500D01*
X43444Y-17500D02*
X43622Y-17677D01*
X41437Y-17500D02*
X41259Y-17322D01*
X31397Y-17500D02*
X31220Y-17322D01*
X33405Y-17500D02*
X33582Y-17677D01*
X33405Y-17500D02*
X31397Y-17500D01*
X33405Y-27539D02*
X31397Y-27539D01*
X33405Y-27539D02*
X33582Y-27716D01*
X31397Y-27539D02*
X31220Y-27362D01*
X41437Y-27539D02*
X41259Y-27362D01*
X43444Y-27539D02*
X43622Y-27716D01*
X43444Y-27539D02*
X41437Y-27539D01*
X45433Y-17460D02*
X45433Y-18169D01*
X45866Y-17027D02*
X45433Y-17460D01*
X41072Y-18818D02*
X41072Y-18208D01*
X31033Y-18818D02*
X31033Y-18208D01*
X35826Y-17027D02*
X35393Y-17460D01*
X35393Y-17460D02*
X35393Y-18169D01*
X35393Y-27500D02*
X35393Y-28208D01*
X35826Y-27066D02*
X35393Y-27500D01*
X31033Y-28858D02*
X31033Y-28248D01*
X41072Y-28858D02*
X41072Y-28248D01*
X45866Y-27066D02*
X45433Y-27500D01*
X45433Y-27500D02*
X45433Y-28208D01*
G54D21*
X45472Y-15748D02*
X44645Y-15748D01*
X44488Y-15590D02*
X44488Y-15353D01*
X44645Y-15748D02*
X44488Y-15590D01*
X42047Y-18503D02*
X42106Y-18444D01*
G54D22*
X42125Y-14074D02*
X42125Y-14685D01*
X48779Y-16968D02*
X48759Y-16988D01*
X48759Y-16988D02*
X48759Y-18543D01*
X42125Y-14665D02*
X42125Y-14074D01*
X42125Y-13484D02*
X42125Y-14074D01*
G54D21*
X44488Y-19133D02*
X44685Y-19133D01*
X46889Y-18464D02*
X46929Y-18503D01*
X45354Y-18464D02*
X46889Y-18464D01*
X44685Y-19133D02*
X45354Y-18464D01*
G54D22*
X40748Y-19606D02*
X40196Y-18937D01*
X44488Y-21456D02*
X44389Y-21456D01*
X43602Y-20669D02*
X42992Y-20433D01*
X44389Y-21456D02*
X43602Y-20669D01*
X44488Y-21456D02*
X43897Y-22047D01*
X42519Y-22047D02*
X42322Y-21692D01*
X43897Y-22047D02*
X42519Y-22047D01*
G54D23*
X45374Y-15846D02*
X45472Y-15748D01*
G54D21*
X44488Y-16732D02*
X45472Y-15748D01*
X44488Y-21456D02*
X44488Y-19133D01*
X44488Y-19133D02*
X44488Y-16732D01*
X34448Y-19133D02*
X34448Y-16732D01*
X34448Y-21456D02*
X34448Y-19133D01*
X34448Y-16732D02*
X35433Y-15748D01*
G54D23*
X35334Y-15846D02*
X35433Y-15748D01*
G54D22*
X33858Y-22047D02*
X32480Y-22047D01*
X32480Y-22047D02*
X32283Y-21692D01*
X34448Y-21456D02*
X33858Y-22047D01*
X34350Y-21456D02*
X33562Y-20669D01*
X33562Y-20669D02*
X32952Y-20433D01*
X34448Y-21456D02*
X34350Y-21456D01*
X30708Y-19606D02*
X30157Y-18937D01*
G54D21*
X34645Y-19133D02*
X35314Y-18464D01*
X35314Y-18464D02*
X36850Y-18464D01*
X36850Y-18464D02*
X36889Y-18503D01*
X34448Y-19133D02*
X34645Y-19133D01*
G54D22*
X32086Y-13484D02*
X32086Y-14074D01*
X32086Y-14665D02*
X32086Y-14074D01*
X38720Y-16988D02*
X38720Y-18543D01*
X38740Y-16968D02*
X38720Y-16988D01*
X32086Y-14074D02*
X32086Y-14685D01*
G54D21*
X32007Y-18503D02*
X32066Y-18444D01*
X34606Y-15748D02*
X34448Y-15590D01*
X34448Y-15590D02*
X34448Y-15353D01*
X35433Y-15748D02*
X34606Y-15748D01*
X35433Y-25787D02*
X34606Y-25787D01*
X34448Y-25629D02*
X34448Y-25393D01*
X34606Y-25787D02*
X34448Y-25629D01*
X32007Y-28543D02*
X32066Y-28484D01*
G54D22*
X32086Y-24114D02*
X32086Y-24724D01*
X38740Y-27007D02*
X38720Y-27027D01*
X38720Y-27027D02*
X38720Y-28582D01*
X32086Y-24704D02*
X32086Y-24114D01*
X32086Y-23523D02*
X32086Y-24114D01*
G54D21*
X34448Y-29173D02*
X34645Y-29173D01*
X36850Y-28503D02*
X36889Y-28543D01*
X35314Y-28503D02*
X36850Y-28503D01*
X34645Y-29173D02*
X35314Y-28503D01*
G54D22*
X30708Y-29645D02*
X30157Y-28976D01*
X34448Y-31496D02*
X34350Y-31496D01*
X33562Y-30708D02*
X32952Y-30472D01*
X34350Y-31496D02*
X33562Y-30708D01*
X34448Y-31496D02*
X33858Y-32086D01*
X32480Y-32086D02*
X32283Y-31732D01*
X33858Y-32086D02*
X32480Y-32086D01*
G54D23*
X35334Y-25885D02*
X35433Y-25787D01*
G54D21*
X34448Y-26771D02*
X35433Y-25787D01*
X34448Y-31496D02*
X34448Y-29173D01*
X34448Y-29173D02*
X34448Y-26771D01*
X44488Y-29173D02*
X44488Y-26771D01*
X44488Y-31496D02*
X44488Y-29173D01*
X44488Y-26771D02*
X45472Y-25787D01*
G54D23*
X45374Y-25885D02*
X45472Y-25787D01*
G54D22*
X43897Y-32086D02*
X42519Y-32086D01*
X42519Y-32086D02*
X42322Y-31732D01*
X44488Y-31496D02*
X43897Y-32086D01*
X44389Y-31496D02*
X43602Y-30708D01*
X43602Y-30708D02*
X42992Y-30472D01*
X44488Y-31496D02*
X44389Y-31496D01*
X40748Y-29645D02*
X40196Y-28976D01*
G54D21*
X44685Y-29173D02*
X45354Y-28503D01*
X45354Y-28503D02*
X46889Y-28503D01*
X46889Y-28503D02*
X46929Y-28543D01*
X44488Y-29173D02*
X44685Y-29173D01*
G54D22*
X42125Y-23523D02*
X42125Y-24114D01*
X42125Y-24704D02*
X42125Y-24114D01*
X48759Y-27027D02*
X48759Y-28582D01*
X48779Y-27007D02*
X48759Y-27027D01*
X42125Y-24114D02*
X42125Y-24724D01*
G54D21*
X42047Y-28543D02*
X42106Y-28484D01*
X44645Y-25787D02*
X44488Y-25629D01*
X44488Y-25629D02*
X44488Y-25393D01*
X45472Y-25787D02*
X44645Y-25787D01*
G54D20*
X44133Y-16161D02*
X44094Y-16161D01*
X44094Y-16161D02*
X43257Y-16998D01*
X34055Y-16161D02*
X33218Y-16998D01*
X34094Y-16161D02*
X34055Y-16161D01*
X34094Y-26200D02*
X34055Y-26200D01*
X34055Y-26200D02*
X33218Y-27037D01*
X44094Y-26200D02*
X43257Y-27037D01*
X44133Y-26200D02*
X44094Y-26200D01*
X47381Y-17204D02*
X47381Y-15548D01*
X46440Y-14606D02*
X47381Y-15548D01*
X46440Y-14606D02*
X44409Y-14606D01*
X36400Y-14606D02*
X34370Y-14606D01*
X36400Y-14606D02*
X37342Y-15548D01*
X37342Y-17204D02*
X37342Y-15548D01*
X37342Y-27244D02*
X37342Y-25587D01*
X36400Y-24646D02*
X37342Y-25587D01*
X36400Y-24646D02*
X34370Y-24646D01*
X46440Y-24646D02*
X44409Y-24646D01*
X46440Y-24646D02*
X47381Y-25587D01*
X47381Y-27244D02*
X47381Y-25587D01*
G54D21*
X48031Y-17755D02*
X48366Y-17755D01*
X40708Y-15275D02*
X40433Y-15551D01*
X43582Y-14842D02*
X42480Y-14842D01*
X42047Y-15275D02*
X40708Y-15275D01*
X42047Y-15275D02*
X42480Y-14842D01*
X40433Y-15551D02*
X40433Y-15748D01*
X40433Y-15748D02*
X40433Y-15610D01*
X47539Y-20078D02*
X48031Y-19586D01*
X48031Y-17755D02*
X48031Y-19586D01*
X46515Y-20078D02*
X47539Y-20078D01*
X45509Y-14399D02*
X44988Y-13877D01*
X48031Y-15905D02*
X46525Y-14399D01*
X46525Y-14399D02*
X45509Y-14399D01*
X48031Y-17755D02*
X48031Y-15905D01*
X44988Y-13877D02*
X44988Y-13779D01*
X34948Y-13877D02*
X34948Y-13779D01*
X37992Y-17755D02*
X37992Y-15905D01*
X36486Y-14399D02*
X35470Y-14399D01*
X37992Y-15905D02*
X36486Y-14399D01*
X35470Y-14399D02*
X34948Y-13877D01*
X36476Y-20078D02*
X37500Y-20078D01*
X37992Y-17755D02*
X37992Y-19586D01*
X37500Y-20078D02*
X37992Y-19586D01*
X30393Y-15748D02*
X30393Y-15610D01*
X30393Y-15551D02*
X30393Y-15748D01*
X32007Y-15275D02*
X32440Y-14842D01*
X32007Y-15275D02*
X30669Y-15275D01*
X33543Y-14842D02*
X32440Y-14842D01*
X30669Y-15275D02*
X30393Y-15551D01*
X37992Y-17755D02*
X38326Y-17755D01*
X37992Y-27795D02*
X38326Y-27795D01*
X30669Y-25314D02*
X30393Y-25590D01*
X33543Y-24881D02*
X32440Y-24881D01*
X32007Y-25314D02*
X30669Y-25314D01*
X32007Y-25314D02*
X32440Y-24881D01*
X30393Y-25590D02*
X30393Y-25787D01*
X30393Y-25787D02*
X30393Y-25649D01*
X37500Y-30118D02*
X37992Y-29625D01*
X37992Y-27795D02*
X37992Y-29625D01*
X36476Y-30118D02*
X37500Y-30118D01*
X35470Y-24438D02*
X34948Y-23917D01*
X37992Y-25944D02*
X36486Y-24438D01*
X36486Y-24438D02*
X35470Y-24438D01*
X37992Y-27795D02*
X37992Y-25944D01*
X34948Y-23917D02*
X34948Y-23818D01*
X44988Y-23917D02*
X44988Y-23818D01*
X48031Y-27795D02*
X48031Y-25944D01*
X46525Y-24438D02*
X45509Y-24438D01*
X48031Y-25944D02*
X46525Y-24438D01*
X45509Y-24438D02*
X44988Y-23917D01*
X46515Y-30118D02*
X47539Y-30118D01*
X48031Y-27795D02*
X48031Y-29625D01*
X47539Y-30118D02*
X48031Y-29625D01*
X40433Y-25787D02*
X40433Y-25649D01*
X40433Y-25590D02*
X40433Y-25787D01*
X42047Y-25314D02*
X42480Y-24881D01*
X42047Y-25314D02*
X40708Y-25314D01*
X43582Y-24881D02*
X42480Y-24881D01*
X40708Y-25314D02*
X40433Y-25590D01*
X48031Y-27795D02*
X48366Y-27795D01*
G54D10*
G36*
X48964Y-30347D02*
X48961Y-30346D01*
X48918Y-30342D01*
X48226Y-30342D01*
X48183Y-30346D01*
X48169Y-30350D01*
X48131Y-30343D01*
X47944Y-30341D01*
X47760Y-30377D01*
X47586Y-30447D01*
X47429Y-30550D01*
X47295Y-30681D01*
X47189Y-30836D01*
X47115Y-31008D01*
X47076Y-31192D01*
X47073Y-31379D01*
X47083Y-31435D01*
X47079Y-31451D01*
X47074Y-31494D01*
X47074Y-32186D01*
X47079Y-32229D01*
X47079Y-32232D01*
X45927Y-32232D01*
X45927Y-31451D01*
X45909Y-31363D01*
X45875Y-31281D01*
X45826Y-31207D01*
X45763Y-31143D01*
X45689Y-31094D01*
X45607Y-31059D01*
X45520Y-31041D01*
X45431Y-31041D01*
X45343Y-31057D01*
X45260Y-31091D01*
X45186Y-31139D01*
X45122Y-31202D01*
X45072Y-31275D01*
X45036Y-31357D01*
X45018Y-31445D01*
X45017Y-31534D01*
X45033Y-31622D01*
X45066Y-31704D01*
X45114Y-31779D01*
X45176Y-31844D01*
X45249Y-31894D01*
X45331Y-31930D01*
X45418Y-31949D01*
X45507Y-31951D01*
X45595Y-31936D01*
X45678Y-31903D01*
X45753Y-31856D01*
X45818Y-31794D01*
X45869Y-31721D01*
X45906Y-31640D01*
X45925Y-31553D01*
X45927Y-31451D01*
X45927Y-32232D01*
X44964Y-32232D01*
X44964Y-31498D01*
X44956Y-31405D01*
X44929Y-31316D01*
X44886Y-31234D01*
X44883Y-31230D01*
X44814Y-31194D01*
X44789Y-31219D01*
X44789Y-31169D01*
X44753Y-31100D01*
X44671Y-31056D01*
X44582Y-31028D01*
X44490Y-31019D01*
X44397Y-31028D01*
X44308Y-31054D01*
X44226Y-31097D01*
X44222Y-31100D01*
X44186Y-31169D01*
X44488Y-31471D01*
X44789Y-31169D01*
X44789Y-31219D01*
X44513Y-31496D01*
X44814Y-31797D01*
X44883Y-31761D01*
X44928Y-31679D01*
X44955Y-31590D01*
X44964Y-31498D01*
X44964Y-32232D01*
X44789Y-32232D01*
X44789Y-31822D01*
X44488Y-31521D01*
X44463Y-31546D01*
X44463Y-31496D01*
X44161Y-31194D01*
X44092Y-31230D01*
X44048Y-31312D01*
X44021Y-31401D01*
X44011Y-31493D01*
X44020Y-31586D01*
X44046Y-31675D01*
X44089Y-31757D01*
X44092Y-31761D01*
X44161Y-31797D01*
X44463Y-31496D01*
X44463Y-31546D01*
X44186Y-31822D01*
X44222Y-31891D01*
X44304Y-31935D01*
X44393Y-31963D01*
X44485Y-31972D01*
X44578Y-31964D01*
X44667Y-31937D01*
X44750Y-31894D01*
X44753Y-31891D01*
X44789Y-31822D01*
X44789Y-32232D01*
X43958Y-32232D01*
X43958Y-31451D01*
X43941Y-31363D01*
X43907Y-31281D01*
X43858Y-31207D01*
X43795Y-31143D01*
X43721Y-31094D01*
X43639Y-31059D01*
X43551Y-31041D01*
X43462Y-31041D01*
X43374Y-31057D01*
X43292Y-31091D01*
X43254Y-31115D01*
X43254Y-28711D01*
X43237Y-28561D01*
X42320Y-28561D01*
X42320Y-29477D01*
X42471Y-29495D01*
X42653Y-29444D01*
X42821Y-29358D01*
X42970Y-29242D01*
X43093Y-29099D01*
X43186Y-28935D01*
X43245Y-28756D01*
X43254Y-28711D01*
X43254Y-31115D01*
X43217Y-31139D01*
X43153Y-31202D01*
X43103Y-31275D01*
X43068Y-31357D01*
X43049Y-31445D01*
X43048Y-31534D01*
X43064Y-31622D01*
X43097Y-31704D01*
X43145Y-31779D01*
X43207Y-31844D01*
X43281Y-31894D01*
X43362Y-31930D01*
X43449Y-31949D01*
X43538Y-31951D01*
X43626Y-31936D01*
X43709Y-31903D01*
X43785Y-31856D01*
X43849Y-31794D01*
X43901Y-31721D01*
X43937Y-31640D01*
X43957Y-31553D01*
X43958Y-31451D01*
X43958Y-32232D01*
X42285Y-32232D01*
X42285Y-29477D01*
X42285Y-28561D01*
X41369Y-28561D01*
X41351Y-28711D01*
X41360Y-28756D01*
X41419Y-28935D01*
X41512Y-29099D01*
X41635Y-29242D01*
X41784Y-29358D01*
X41952Y-29444D01*
X42134Y-29495D01*
X42285Y-29477D01*
X42285Y-32232D01*
X41901Y-32232D01*
X41901Y-31267D01*
X41900Y-31267D01*
X41901Y-31205D01*
X41865Y-31021D01*
X41793Y-30847D01*
X41689Y-30691D01*
X41557Y-30558D01*
X41402Y-30453D01*
X41229Y-30380D01*
X41045Y-30343D01*
X40976Y-30342D01*
X40976Y-30342D01*
X40954Y-30342D01*
X40857Y-30341D01*
X40854Y-30342D01*
X40671Y-30342D01*
X40011Y-30342D01*
X40011Y-25164D01*
X40014Y-25165D01*
X40057Y-25169D01*
X40589Y-25169D01*
X40576Y-25179D01*
X40575Y-25180D01*
X40575Y-25180D01*
X40575Y-25180D01*
X40575Y-25181D01*
X40394Y-25362D01*
X40027Y-25362D01*
X40027Y-27000D01*
X40298Y-27000D01*
X40283Y-27004D01*
X40219Y-27038D01*
X40194Y-27098D01*
X40433Y-27337D01*
X40438Y-27331D01*
X40463Y-27356D01*
X40458Y-27362D01*
X40463Y-27367D01*
X40438Y-27392D01*
X40433Y-27387D01*
X40408Y-27412D01*
X40408Y-27362D01*
X40169Y-27123D01*
X40109Y-27148D01*
X40074Y-27215D01*
X40052Y-27288D01*
X40045Y-27363D01*
X40053Y-27438D01*
X40075Y-27511D01*
X40109Y-27575D01*
X40169Y-27600D01*
X40408Y-27362D01*
X40408Y-27412D01*
X40194Y-27625D01*
X40219Y-27685D01*
X40286Y-27721D01*
X40359Y-27742D01*
X40434Y-27749D01*
X40509Y-27742D01*
X40582Y-27720D01*
X40646Y-27685D01*
X40671Y-27625D01*
X40671Y-27625D01*
X40694Y-27648D01*
X40700Y-27642D01*
X40704Y-27653D01*
X40708Y-27667D01*
X40708Y-27668D01*
X40708Y-27669D01*
X40715Y-27682D01*
X40722Y-27695D01*
X40723Y-27695D01*
X40723Y-27696D01*
X40732Y-27707D01*
X40741Y-27719D01*
X40743Y-27720D01*
X40743Y-27720D01*
X40743Y-27720D01*
X40743Y-27721D01*
X40962Y-27939D01*
X40962Y-27953D01*
X40970Y-27999D01*
X40982Y-28027D01*
X40961Y-28035D01*
X40922Y-28061D01*
X40889Y-28094D01*
X40863Y-28132D01*
X40844Y-28175D01*
X40834Y-28221D01*
X40834Y-28268D01*
X40842Y-28314D01*
X40859Y-28357D01*
X40885Y-28396D01*
X40913Y-28425D01*
X40913Y-28681D01*
X40889Y-28704D01*
X40863Y-28742D01*
X40844Y-28785D01*
X40834Y-28831D01*
X40834Y-28878D01*
X40842Y-28924D01*
X40859Y-28967D01*
X40885Y-29006D01*
X40917Y-29040D01*
X40956Y-29067D01*
X40998Y-29085D01*
X41044Y-29095D01*
X41091Y-29096D01*
X41137Y-29088D01*
X41180Y-29071D01*
X41220Y-29046D01*
X41254Y-29014D01*
X41280Y-28976D01*
X41299Y-28933D01*
X41310Y-28888D01*
X41311Y-28834D01*
X41301Y-28789D01*
X41284Y-28745D01*
X41258Y-28706D01*
X41232Y-28680D01*
X41232Y-28425D01*
X41254Y-28404D01*
X41280Y-28366D01*
X41299Y-28323D01*
X41310Y-28278D01*
X41311Y-28224D01*
X41301Y-28178D01*
X41291Y-28153D01*
X41308Y-28146D01*
X41348Y-28121D01*
X41381Y-28089D01*
X41408Y-28051D01*
X41427Y-28008D01*
X41438Y-27963D01*
X41438Y-27909D01*
X41429Y-27863D01*
X41412Y-27820D01*
X41389Y-27787D01*
X41665Y-27787D01*
X41665Y-27698D01*
X41841Y-27698D01*
X41784Y-27727D01*
X41635Y-27843D01*
X41512Y-27986D01*
X41419Y-28150D01*
X41360Y-28329D01*
X41351Y-28374D01*
X41369Y-28525D01*
X42285Y-28525D01*
X42285Y-28517D01*
X42320Y-28517D01*
X42320Y-28525D01*
X43237Y-28525D01*
X43254Y-28374D01*
X43245Y-28329D01*
X43186Y-28150D01*
X43093Y-27986D01*
X42970Y-27843D01*
X42821Y-27727D01*
X42764Y-27698D01*
X43378Y-27698D01*
X43384Y-27703D01*
X43383Y-27736D01*
X43391Y-27782D01*
X43409Y-27825D01*
X43434Y-27865D01*
X43466Y-27898D01*
X43505Y-27925D01*
X43548Y-27944D01*
X43593Y-27954D01*
X43640Y-27955D01*
X43686Y-27947D01*
X43729Y-27930D01*
X43769Y-27905D01*
X43803Y-27872D01*
X43830Y-27834D01*
X43849Y-27792D01*
X43859Y-27746D01*
X43860Y-27693D01*
X43851Y-27647D01*
X43833Y-27604D01*
X43807Y-27565D01*
X43774Y-27532D01*
X43735Y-27505D01*
X43692Y-27487D01*
X43647Y-27478D01*
X43609Y-27478D01*
X43557Y-27426D01*
X43546Y-27417D01*
X43534Y-27407D01*
X43534Y-27407D01*
X43533Y-27406D01*
X43520Y-27399D01*
X43507Y-27392D01*
X43506Y-27392D01*
X43506Y-27392D01*
X43492Y-27387D01*
X43478Y-27383D01*
X43477Y-27383D01*
X43476Y-27383D01*
X43461Y-27381D01*
X43447Y-27379D01*
X43445Y-27379D01*
X43445Y-27379D01*
X43445Y-27379D01*
X43444Y-27379D01*
X41665Y-27379D01*
X41665Y-25946D01*
X41889Y-25946D01*
X41904Y-25945D01*
X41919Y-25944D01*
X41919Y-25943D01*
X41920Y-25943D01*
X41934Y-25939D01*
X41948Y-25935D01*
X41949Y-25935D01*
X41950Y-25934D01*
X41963Y-25927D01*
X41976Y-25921D01*
X41977Y-25920D01*
X41978Y-25920D01*
X41989Y-25910D01*
X42000Y-25901D01*
X42002Y-25900D01*
X42002Y-25900D01*
X42002Y-25900D01*
X42002Y-25900D01*
X42585Y-25316D01*
X43634Y-25316D01*
X43690Y-25372D01*
X43639Y-25350D01*
X43551Y-25332D01*
X43462Y-25332D01*
X43374Y-25349D01*
X43292Y-25382D01*
X43217Y-25431D01*
X43153Y-25493D01*
X43103Y-25567D01*
X43068Y-25649D01*
X43049Y-25736D01*
X43048Y-25825D01*
X43064Y-25913D01*
X43097Y-25996D01*
X43145Y-26071D01*
X43207Y-26135D01*
X43281Y-26186D01*
X43362Y-26221D01*
X43449Y-26241D01*
X43538Y-26242D01*
X43626Y-26227D01*
X43709Y-26195D01*
X43785Y-26147D01*
X43849Y-26085D01*
X43901Y-26013D01*
X43937Y-25931D01*
X43947Y-25885D01*
X44042Y-25980D01*
X44022Y-25988D01*
X43983Y-26014D01*
X43950Y-26046D01*
X43924Y-26085D01*
X43905Y-26128D01*
X43896Y-26173D01*
X43270Y-26799D01*
X43236Y-26799D01*
X43190Y-26807D01*
X43146Y-26825D01*
X43107Y-26850D01*
X43074Y-26883D01*
X43048Y-26922D01*
X43029Y-26965D01*
X43020Y-27010D01*
X43019Y-27057D01*
X43027Y-27103D01*
X43045Y-27146D01*
X43070Y-27186D01*
X43102Y-27219D01*
X43141Y-27246D01*
X43183Y-27265D01*
X43229Y-27275D01*
X43276Y-27276D01*
X43322Y-27267D01*
X43365Y-27251D01*
X43405Y-27226D01*
X43439Y-27193D01*
X43465Y-27155D01*
X43484Y-27112D01*
X43495Y-27067D01*
X43495Y-27024D01*
X44086Y-26434D01*
X44105Y-26438D01*
X44152Y-26439D01*
X44198Y-26431D01*
X44216Y-26424D01*
X43942Y-26698D01*
X43933Y-26709D01*
X43923Y-26720D01*
X43923Y-26721D01*
X43922Y-26722D01*
X43915Y-26735D01*
X43908Y-26748D01*
X43908Y-26749D01*
X43907Y-26749D01*
X43903Y-26763D01*
X43899Y-26777D01*
X43899Y-26778D01*
X43898Y-26779D01*
X43897Y-26794D01*
X43895Y-26808D01*
X43895Y-26810D01*
X43895Y-26810D01*
X43895Y-26810D01*
X43895Y-26811D01*
X43895Y-28838D01*
X43897Y-28853D01*
X43898Y-28867D01*
X43898Y-28868D01*
X43898Y-28869D01*
X43902Y-28883D01*
X43907Y-28897D01*
X43907Y-28898D01*
X43907Y-28899D01*
X43914Y-28912D01*
X43921Y-28925D01*
X43921Y-28926D01*
X43922Y-28926D01*
X43931Y-28938D01*
X43935Y-28942D01*
X43934Y-28976D01*
X43943Y-29022D01*
X43960Y-29066D01*
X43985Y-29105D01*
X44018Y-29138D01*
X44056Y-29165D01*
X44099Y-29184D01*
X44144Y-29194D01*
X44191Y-29195D01*
X44237Y-29187D01*
X44281Y-29170D01*
X44320Y-29145D01*
X44354Y-29113D01*
X44381Y-29074D01*
X44400Y-29032D01*
X44410Y-28986D01*
X44411Y-28933D01*
X44402Y-28887D01*
X44384Y-28844D01*
X44358Y-28805D01*
X44325Y-28772D01*
X44287Y-28746D01*
X44244Y-28728D01*
X44214Y-28722D01*
X44214Y-26877D01*
X44512Y-26579D01*
X44521Y-26567D01*
X44531Y-26556D01*
X44531Y-26555D01*
X44532Y-26555D01*
X44539Y-26542D01*
X44546Y-26529D01*
X44546Y-26528D01*
X44546Y-26527D01*
X44551Y-26513D01*
X44555Y-26499D01*
X44555Y-26498D01*
X44555Y-26498D01*
X44557Y-26483D01*
X44559Y-26468D01*
X44559Y-26467D01*
X44559Y-26467D01*
X44559Y-26467D01*
X44559Y-26466D01*
X44559Y-26112D01*
X44557Y-26097D01*
X44556Y-26082D01*
X44556Y-26082D01*
X44556Y-26081D01*
X44551Y-26067D01*
X44547Y-26052D01*
X44547Y-26052D01*
X44547Y-26051D01*
X44540Y-26038D01*
X44533Y-26025D01*
X44532Y-26024D01*
X44532Y-26023D01*
X44523Y-26012D01*
X44513Y-26001D01*
X44512Y-25999D01*
X44512Y-25999D01*
X44512Y-25999D01*
X44512Y-25999D01*
X44311Y-25798D01*
X44437Y-25798D01*
X44470Y-25766D01*
X44470Y-25450D01*
X44462Y-25450D01*
X44462Y-25444D01*
X44795Y-25444D01*
X44795Y-25414D01*
X44821Y-25414D01*
X44854Y-25382D01*
X44854Y-25183D01*
X44849Y-25158D01*
X44839Y-25135D01*
X44825Y-25114D01*
X44807Y-25096D01*
X44795Y-25087D01*
X44795Y-24975D01*
X44819Y-24959D01*
X44840Y-24938D01*
X44856Y-24914D01*
X44867Y-24887D01*
X44873Y-24858D01*
X44873Y-24829D01*
X44873Y-24805D01*
X46374Y-24805D01*
X47222Y-25653D01*
X47222Y-27066D01*
X47198Y-27090D01*
X47172Y-27128D01*
X47153Y-27171D01*
X47144Y-27217D01*
X47143Y-27264D01*
X47151Y-27310D01*
X47169Y-27353D01*
X47194Y-27392D01*
X47226Y-27426D01*
X47265Y-27453D01*
X47307Y-27471D01*
X47353Y-27481D01*
X47400Y-27482D01*
X47446Y-27474D01*
X47489Y-27457D01*
X47529Y-27432D01*
X47563Y-27400D01*
X47589Y-27362D01*
X47608Y-27319D01*
X47619Y-27274D01*
X47620Y-27220D01*
X47611Y-27174D01*
X47593Y-27131D01*
X47567Y-27092D01*
X47541Y-27066D01*
X47541Y-25721D01*
X47842Y-26023D01*
X47842Y-27795D01*
X47842Y-29547D01*
X47624Y-29765D01*
X47624Y-28711D01*
X47624Y-28374D01*
X47615Y-28329D01*
X47556Y-28150D01*
X47463Y-27986D01*
X47340Y-27843D01*
X47191Y-27727D01*
X47023Y-27642D01*
X46841Y-27591D01*
X46690Y-27609D01*
X46690Y-28525D01*
X47607Y-28525D01*
X47624Y-28374D01*
X47624Y-28711D01*
X47607Y-28561D01*
X46690Y-28561D01*
X46690Y-29477D01*
X46841Y-29495D01*
X47023Y-29444D01*
X47191Y-29358D01*
X47340Y-29242D01*
X47463Y-29099D01*
X47556Y-28935D01*
X47615Y-28756D01*
X47624Y-28711D01*
X47624Y-29765D01*
X47461Y-29929D01*
X46661Y-29929D01*
X46655Y-29925D01*
X46655Y-29477D01*
X46655Y-28561D01*
X46655Y-28525D01*
X46655Y-27609D01*
X46504Y-27591D01*
X46419Y-27615D01*
X46419Y-25704D01*
X46410Y-25659D01*
X46392Y-25615D01*
X46366Y-25577D01*
X46340Y-25550D01*
X46340Y-25374D01*
X46339Y-25359D01*
X46337Y-25344D01*
X46337Y-25343D01*
X46337Y-25343D01*
X46333Y-25328D01*
X46329Y-25314D01*
X46328Y-25314D01*
X46328Y-25313D01*
X46321Y-25300D01*
X46314Y-25287D01*
X46314Y-25286D01*
X46313Y-25285D01*
X46304Y-25274D01*
X46295Y-25262D01*
X46294Y-25261D01*
X46294Y-25261D01*
X46294Y-25261D01*
X46293Y-25261D01*
X46077Y-25044D01*
X46065Y-25035D01*
X46054Y-25025D01*
X46053Y-25025D01*
X46053Y-25024D01*
X46040Y-25018D01*
X46027Y-25010D01*
X46026Y-25010D01*
X46025Y-25010D01*
X46011Y-25005D01*
X45997Y-25001D01*
X45996Y-25001D01*
X45996Y-25001D01*
X45981Y-24999D01*
X45966Y-24998D01*
X45965Y-24998D01*
X45965Y-24998D01*
X45965Y-24998D01*
X45964Y-24998D01*
X45689Y-24998D01*
X45664Y-24973D01*
X45625Y-24946D01*
X45582Y-24928D01*
X45536Y-24919D01*
X45490Y-24919D01*
X45444Y-24927D01*
X45400Y-24945D01*
X45361Y-24970D01*
X45328Y-25003D01*
X45302Y-25042D01*
X45283Y-25085D01*
X45273Y-25130D01*
X45273Y-25177D01*
X45281Y-25223D01*
X45298Y-25266D01*
X45324Y-25306D01*
X45347Y-25329D01*
X45292Y-25345D01*
X45210Y-25389D01*
X45206Y-25391D01*
X45171Y-25461D01*
X45472Y-25762D01*
X45773Y-25461D01*
X45738Y-25391D01*
X45656Y-25347D01*
X45659Y-25346D01*
X45689Y-25316D01*
X45898Y-25316D01*
X46021Y-25440D01*
X46021Y-25551D01*
X45997Y-25574D01*
X45971Y-25613D01*
X45952Y-25655D01*
X45943Y-25701D01*
X45942Y-25723D01*
X45940Y-25697D01*
X45914Y-25607D01*
X45870Y-25525D01*
X45868Y-25521D01*
X45798Y-25486D01*
X45497Y-25787D01*
X45503Y-25792D01*
X45478Y-25818D01*
X45472Y-25812D01*
X45447Y-25837D01*
X45447Y-25787D01*
X45146Y-25486D01*
X45076Y-25521D01*
X45032Y-25603D01*
X45005Y-25692D01*
X44995Y-25785D01*
X45004Y-25877D01*
X45030Y-25966D01*
X45074Y-26049D01*
X45076Y-26053D01*
X45146Y-26088D01*
X45447Y-25787D01*
X45447Y-25837D01*
X45171Y-26113D01*
X45206Y-26183D01*
X45288Y-26227D01*
X45326Y-26238D01*
X44854Y-26711D01*
X44854Y-25681D01*
X44854Y-25482D01*
X44821Y-25450D01*
X44505Y-25450D01*
X44505Y-25766D01*
X44538Y-25798D01*
X44712Y-25798D01*
X44737Y-25798D01*
X44762Y-25793D01*
X44786Y-25783D01*
X44807Y-25769D01*
X44825Y-25751D01*
X44839Y-25729D01*
X44849Y-25706D01*
X44854Y-25681D01*
X44854Y-26711D01*
X44749Y-26816D01*
X44740Y-26827D01*
X44730Y-26839D01*
X44730Y-26839D01*
X44729Y-26840D01*
X44722Y-26853D01*
X44715Y-26866D01*
X44715Y-26867D01*
X44715Y-26867D01*
X44710Y-26881D01*
X44706Y-26895D01*
X44706Y-26896D01*
X44705Y-26897D01*
X44704Y-26912D01*
X44702Y-26926D01*
X44702Y-26928D01*
X44702Y-26928D01*
X44702Y-26928D01*
X44702Y-26929D01*
X44702Y-27913D01*
X44678Y-27936D01*
X44652Y-27975D01*
X44634Y-28018D01*
X44624Y-28063D01*
X44623Y-28110D01*
X44632Y-28156D01*
X44649Y-28199D01*
X44674Y-28239D01*
X44707Y-28272D01*
X44745Y-28299D01*
X44788Y-28318D01*
X44833Y-28328D01*
X44870Y-28328D01*
X44815Y-28383D01*
X44781Y-28383D01*
X44735Y-28392D01*
X44692Y-28409D01*
X44653Y-28435D01*
X44619Y-28468D01*
X44593Y-28506D01*
X44575Y-28549D01*
X44565Y-28595D01*
X44564Y-28642D01*
X44573Y-28688D01*
X44590Y-28731D01*
X44615Y-28770D01*
X44648Y-28804D01*
X44686Y-28830D01*
X44729Y-28849D01*
X44774Y-28859D01*
X44821Y-28860D01*
X44867Y-28852D01*
X44911Y-28835D01*
X44950Y-28810D01*
X44984Y-28778D01*
X45011Y-28740D01*
X45030Y-28697D01*
X45040Y-28652D01*
X45041Y-28609D01*
X45250Y-28400D01*
X45259Y-28388D01*
X45267Y-28379D01*
X45277Y-28390D01*
X45316Y-28417D01*
X45359Y-28436D01*
X45404Y-28446D01*
X45451Y-28447D01*
X45497Y-28439D01*
X45540Y-28422D01*
X45580Y-28397D01*
X45614Y-28365D01*
X45641Y-28326D01*
X45660Y-28284D01*
X45670Y-28238D01*
X45671Y-28185D01*
X45662Y-28139D01*
X45644Y-28096D01*
X45618Y-28057D01*
X45592Y-28031D01*
X45592Y-27566D01*
X45853Y-27304D01*
X45884Y-27305D01*
X45930Y-27297D01*
X45974Y-27280D01*
X46013Y-27255D01*
X46047Y-27223D01*
X46074Y-27185D01*
X46093Y-27142D01*
X46103Y-27096D01*
X46104Y-27043D01*
X46095Y-26997D01*
X46077Y-26954D01*
X46051Y-26915D01*
X46018Y-26882D01*
X45979Y-26856D01*
X45936Y-26838D01*
X45891Y-26828D01*
X45844Y-26828D01*
X45798Y-26837D01*
X45755Y-26854D01*
X45716Y-26880D01*
X45682Y-26913D01*
X45656Y-26951D01*
X45638Y-26994D01*
X45628Y-27040D01*
X45627Y-27079D01*
X45320Y-27387D01*
X45310Y-27398D01*
X45301Y-27409D01*
X45301Y-27410D01*
X45300Y-27411D01*
X45297Y-27417D01*
X45297Y-27231D01*
X45794Y-26734D01*
X45808Y-26744D01*
X45851Y-26763D01*
X45896Y-26773D01*
X45943Y-26774D01*
X45989Y-26765D01*
X46033Y-26749D01*
X46072Y-26724D01*
X46106Y-26691D01*
X46133Y-26653D01*
X46152Y-26610D01*
X46162Y-26565D01*
X46163Y-26512D01*
X46154Y-26466D01*
X46136Y-26423D01*
X46110Y-26384D01*
X46084Y-26358D01*
X46106Y-26337D01*
X46133Y-26299D01*
X46152Y-26256D01*
X46162Y-26211D01*
X46163Y-26157D01*
X46154Y-26111D01*
X46136Y-26068D01*
X46110Y-26029D01*
X46077Y-25996D01*
X46039Y-25970D01*
X45995Y-25952D01*
X45950Y-25943D01*
X45920Y-25942D01*
X45939Y-25882D01*
X45949Y-25789D01*
X45948Y-25778D01*
X45951Y-25794D01*
X45968Y-25837D01*
X45993Y-25877D01*
X46025Y-25910D01*
X46064Y-25937D01*
X46107Y-25955D01*
X46152Y-25966D01*
X46199Y-25966D01*
X46245Y-25958D01*
X46289Y-25941D01*
X46328Y-25916D01*
X46362Y-25884D01*
X46389Y-25846D01*
X46408Y-25803D01*
X46418Y-25758D01*
X46419Y-25704D01*
X46419Y-27615D01*
X46322Y-27642D01*
X46154Y-27727D01*
X46006Y-27843D01*
X45882Y-27986D01*
X45789Y-28150D01*
X45730Y-28329D01*
X45721Y-28374D01*
X45739Y-28525D01*
X46655Y-28525D01*
X46655Y-28561D01*
X45739Y-28561D01*
X45721Y-28711D01*
X45730Y-28756D01*
X45789Y-28935D01*
X45882Y-29099D01*
X46006Y-29242D01*
X46154Y-29358D01*
X46322Y-29444D01*
X46504Y-29495D01*
X46655Y-29477D01*
X46655Y-29925D01*
X46629Y-29907D01*
X46586Y-29889D01*
X46540Y-29880D01*
X46494Y-29879D01*
X46448Y-29888D01*
X46404Y-29906D01*
X46365Y-29931D01*
X46332Y-29964D01*
X46306Y-30002D01*
X46287Y-30045D01*
X46277Y-30091D01*
X46277Y-30138D01*
X46285Y-30184D01*
X46302Y-30227D01*
X46328Y-30266D01*
X46360Y-30300D01*
X46398Y-30327D01*
X46441Y-30345D01*
X46487Y-30355D01*
X46534Y-30356D01*
X46580Y-30348D01*
X46623Y-30331D01*
X46662Y-30307D01*
X47539Y-30307D01*
X47556Y-30305D01*
X47574Y-30303D01*
X47575Y-30303D01*
X47576Y-30303D01*
X47592Y-30298D01*
X47609Y-30293D01*
X47610Y-30293D01*
X47611Y-30292D01*
X47626Y-30284D01*
X47642Y-30276D01*
X47643Y-30275D01*
X47643Y-30275D01*
X47657Y-30264D01*
X47671Y-30253D01*
X47672Y-30252D01*
X47672Y-30252D01*
X47672Y-30252D01*
X47672Y-30251D01*
X48165Y-29759D01*
X48176Y-29746D01*
X48187Y-29732D01*
X48187Y-29731D01*
X48188Y-29731D01*
X48196Y-29715D01*
X48205Y-29700D01*
X48205Y-29699D01*
X48205Y-29698D01*
X48211Y-29681D01*
X48216Y-29665D01*
X48216Y-29664D01*
X48216Y-29663D01*
X48218Y-29646D01*
X48220Y-29628D01*
X48220Y-29626D01*
X48220Y-29626D01*
X48220Y-29626D01*
X48220Y-29625D01*
X48220Y-27984D01*
X48220Y-27984D01*
X48249Y-28004D01*
X48292Y-28022D01*
X48337Y-28032D01*
X48384Y-28033D01*
X48430Y-28025D01*
X48474Y-28008D01*
X48513Y-27983D01*
X48547Y-27951D01*
X48574Y-27913D01*
X48593Y-27870D01*
X48603Y-27825D01*
X48604Y-27771D01*
X48595Y-27726D01*
X48577Y-27682D01*
X48551Y-27644D01*
X48518Y-27610D01*
X48479Y-27584D01*
X48436Y-27566D01*
X48391Y-27557D01*
X48344Y-27556D01*
X48298Y-27565D01*
X48255Y-27583D01*
X48220Y-27605D01*
X48220Y-25944D01*
X48218Y-25927D01*
X48217Y-25910D01*
X48216Y-25909D01*
X48216Y-25908D01*
X48211Y-25891D01*
X48206Y-25874D01*
X48206Y-25873D01*
X48206Y-25872D01*
X48198Y-25857D01*
X48189Y-25841D01*
X48189Y-25841D01*
X48188Y-25840D01*
X48177Y-25826D01*
X48166Y-25813D01*
X48165Y-25811D01*
X48165Y-25811D01*
X48165Y-25811D01*
X48165Y-25811D01*
X46659Y-24305D01*
X46645Y-24294D01*
X46632Y-24283D01*
X46631Y-24282D01*
X46630Y-24281D01*
X46615Y-24273D01*
X46600Y-24265D01*
X46599Y-24264D01*
X46598Y-24264D01*
X46581Y-24259D01*
X46564Y-24254D01*
X46563Y-24254D01*
X46562Y-24253D01*
X46545Y-24251D01*
X46528Y-24250D01*
X46526Y-24250D01*
X46526Y-24250D01*
X46526Y-24250D01*
X46525Y-24250D01*
X46387Y-24250D01*
X46395Y-24244D01*
X46413Y-24226D01*
X46427Y-24205D01*
X46437Y-24182D01*
X46442Y-24157D01*
X46443Y-24131D01*
X46443Y-23505D01*
X46442Y-23480D01*
X46437Y-23455D01*
X46427Y-23432D01*
X46413Y-23410D01*
X46395Y-23392D01*
X46374Y-23378D01*
X46350Y-23369D01*
X46325Y-23364D01*
X46038Y-23364D01*
X46005Y-23396D01*
X46005Y-23801D01*
X46410Y-23801D01*
X46442Y-23768D01*
X46443Y-23505D01*
X46443Y-24131D01*
X46442Y-23869D01*
X46410Y-23836D01*
X46005Y-23836D01*
X46005Y-23844D01*
X45970Y-23844D01*
X45970Y-23836D01*
X45970Y-23801D01*
X45970Y-23396D01*
X45937Y-23364D01*
X45650Y-23364D01*
X45625Y-23369D01*
X45602Y-23378D01*
X45580Y-23392D01*
X45562Y-23410D01*
X45548Y-23432D01*
X45538Y-23455D01*
X45533Y-23480D01*
X45533Y-23505D01*
X45533Y-23768D01*
X45565Y-23801D01*
X45970Y-23801D01*
X45970Y-23836D01*
X45565Y-23836D01*
X45533Y-23869D01*
X45533Y-24131D01*
X45533Y-24157D01*
X45538Y-24182D01*
X45548Y-24205D01*
X45558Y-24220D01*
X45514Y-24176D01*
X45519Y-24158D01*
X45523Y-24115D01*
X45523Y-23561D01*
X45519Y-23518D01*
X45506Y-23475D01*
X45485Y-23436D01*
X45456Y-23401D01*
X45422Y-23373D01*
X45382Y-23351D01*
X45339Y-23338D01*
X45296Y-23334D01*
X42675Y-23334D01*
X42632Y-23338D01*
X42589Y-23351D01*
X42550Y-23373D01*
X42515Y-23401D01*
X42487Y-23436D01*
X42466Y-23475D01*
X42453Y-23518D01*
X42448Y-23561D01*
X42448Y-24115D01*
X42453Y-24158D01*
X42466Y-24201D01*
X42487Y-24241D01*
X42515Y-24275D01*
X42550Y-24304D01*
X42589Y-24325D01*
X42632Y-24338D01*
X42675Y-24342D01*
X44105Y-24342D01*
X44102Y-24354D01*
X44102Y-24384D01*
X44102Y-24857D01*
X44108Y-24886D01*
X44119Y-24913D01*
X44135Y-24937D01*
X44156Y-24958D01*
X44180Y-24974D01*
X44181Y-24975D01*
X44181Y-25087D01*
X44168Y-25096D01*
X44151Y-25114D01*
X44136Y-25135D01*
X44127Y-25158D01*
X44122Y-25183D01*
X44122Y-25353D01*
X43813Y-25044D01*
X43802Y-25035D01*
X43790Y-25025D01*
X43790Y-25025D01*
X43789Y-25024D01*
X43777Y-25018D01*
X43790Y-25000D01*
X43809Y-24957D01*
X43820Y-24911D01*
X43820Y-24858D01*
X43811Y-24812D01*
X43794Y-24769D01*
X43768Y-24730D01*
X43735Y-24697D01*
X43696Y-24671D01*
X43653Y-24653D01*
X43607Y-24643D01*
X43560Y-24643D01*
X43515Y-24652D01*
X43471Y-24669D01*
X43436Y-24692D01*
X42480Y-24692D01*
X42462Y-24694D01*
X42445Y-24696D01*
X42444Y-24696D01*
X42443Y-24696D01*
X42426Y-24701D01*
X42410Y-24706D01*
X42409Y-24706D01*
X42408Y-24707D01*
X42392Y-24715D01*
X42377Y-24723D01*
X42376Y-24724D01*
X42375Y-24724D01*
X42362Y-24735D01*
X42348Y-24746D01*
X42347Y-24747D01*
X42347Y-24747D01*
X42347Y-24747D01*
X42346Y-24748D01*
X41968Y-25125D01*
X41235Y-25125D01*
X41378Y-25070D01*
X41536Y-24970D01*
X41672Y-24840D01*
X41780Y-24687D01*
X41857Y-24516D01*
X41898Y-24333D01*
X41901Y-24118D01*
X41892Y-24074D01*
X41897Y-24060D01*
X41901Y-24017D01*
X41901Y-23325D01*
X41897Y-23282D01*
X41896Y-23279D01*
X47079Y-23279D01*
X47079Y-23282D01*
X47074Y-23325D01*
X47074Y-24017D01*
X47079Y-24060D01*
X47082Y-24073D01*
X47076Y-24105D01*
X47073Y-24293D01*
X47107Y-24477D01*
X47176Y-24652D01*
X47278Y-24809D01*
X47408Y-24944D01*
X47562Y-25051D01*
X47734Y-25126D01*
X47917Y-25167D01*
X48105Y-25171D01*
X48167Y-25160D01*
X48183Y-25165D01*
X48226Y-25169D01*
X48918Y-25169D01*
X48961Y-25165D01*
X48964Y-25164D01*
X48964Y-30347D01*
X48964Y-30347D01*
G37*
G54D24*
X48964Y-30347D02*
X48961Y-30346D01*
X48918Y-30342D01*
X48226Y-30342D01*
X48183Y-30346D01*
X48169Y-30350D01*
X48131Y-30343D01*
X47944Y-30341D01*
X47760Y-30377D01*
X47586Y-30447D01*
X47429Y-30550D01*
X47295Y-30681D01*
X47189Y-30836D01*
X47115Y-31008D01*
X47076Y-31192D01*
X47073Y-31379D01*
X47083Y-31435D01*
X47079Y-31451D01*
X47074Y-31494D01*
X47074Y-32186D01*
X47079Y-32229D01*
X47079Y-32232D01*
X45927Y-32232D01*
X45927Y-31451D01*
X45909Y-31363D01*
X45875Y-31281D01*
X45826Y-31207D01*
X45763Y-31143D01*
X45689Y-31094D01*
X45607Y-31059D01*
X45520Y-31041D01*
X45431Y-31041D01*
X45343Y-31057D01*
X45260Y-31091D01*
X45186Y-31139D01*
X45122Y-31202D01*
X45072Y-31275D01*
X45036Y-31357D01*
X45018Y-31445D01*
X45017Y-31534D01*
X45033Y-31622D01*
X45066Y-31704D01*
X45114Y-31779D01*
X45176Y-31844D01*
X45249Y-31894D01*
X45331Y-31930D01*
X45418Y-31949D01*
X45507Y-31951D01*
X45595Y-31936D01*
X45678Y-31903D01*
X45753Y-31856D01*
X45818Y-31794D01*
X45869Y-31721D01*
X45906Y-31640D01*
X45925Y-31553D01*
X45927Y-31451D01*
X45927Y-32232D01*
X44964Y-32232D01*
X44964Y-31498D01*
X44956Y-31405D01*
X44929Y-31316D01*
X44886Y-31234D01*
X44883Y-31230D01*
X44814Y-31194D01*
X44789Y-31219D01*
X44789Y-31169D01*
X44753Y-31100D01*
X44671Y-31056D01*
X44582Y-31028D01*
X44490Y-31019D01*
X44397Y-31028D01*
X44308Y-31054D01*
X44226Y-31097D01*
X44222Y-31100D01*
X44186Y-31169D01*
X44488Y-31471D01*
X44789Y-31169D01*
X44789Y-31219D01*
X44513Y-31496D01*
X44814Y-31797D01*
X44883Y-31761D01*
X44928Y-31679D01*
X44955Y-31590D01*
X44964Y-31498D01*
X44964Y-32232D01*
X44789Y-32232D01*
X44789Y-31822D01*
X44488Y-31521D01*
X44463Y-31546D01*
X44463Y-31496D01*
X44161Y-31194D01*
X44092Y-31230D01*
X44048Y-31312D01*
X44021Y-31401D01*
X44011Y-31493D01*
X44020Y-31586D01*
X44046Y-31675D01*
X44089Y-31757D01*
X44092Y-31761D01*
X44161Y-31797D01*
X44463Y-31496D01*
X44463Y-31546D01*
X44186Y-31822D01*
X44222Y-31891D01*
X44304Y-31935D01*
X44393Y-31963D01*
X44485Y-31972D01*
X44578Y-31964D01*
X44667Y-31937D01*
X44750Y-31894D01*
X44753Y-31891D01*
X44789Y-31822D01*
X44789Y-32232D01*
X43958Y-32232D01*
X43958Y-31451D01*
X43941Y-31363D01*
X43907Y-31281D01*
X43858Y-31207D01*
X43795Y-31143D01*
X43721Y-31094D01*
X43639Y-31059D01*
X43551Y-31041D01*
X43462Y-31041D01*
X43374Y-31057D01*
X43292Y-31091D01*
X43254Y-31115D01*
X43254Y-28711D01*
X43237Y-28561D01*
X42320Y-28561D01*
X42320Y-29477D01*
X42471Y-29495D01*
X42653Y-29444D01*
X42821Y-29358D01*
X42970Y-29242D01*
X43093Y-29099D01*
X43186Y-28935D01*
X43245Y-28756D01*
X43254Y-28711D01*
X43254Y-31115D01*
X43217Y-31139D01*
X43153Y-31202D01*
X43103Y-31275D01*
X43068Y-31357D01*
X43049Y-31445D01*
X43048Y-31534D01*
X43064Y-31622D01*
X43097Y-31704D01*
X43145Y-31779D01*
X43207Y-31844D01*
X43281Y-31894D01*
X43362Y-31930D01*
X43449Y-31949D01*
X43538Y-31951D01*
X43626Y-31936D01*
X43709Y-31903D01*
X43785Y-31856D01*
X43849Y-31794D01*
X43901Y-31721D01*
X43937Y-31640D01*
X43957Y-31553D01*
X43958Y-31451D01*
X43958Y-32232D01*
X42285Y-32232D01*
X42285Y-29477D01*
X42285Y-28561D01*
X41369Y-28561D01*
X41351Y-28711D01*
X41360Y-28756D01*
X41419Y-28935D01*
X41512Y-29099D01*
X41635Y-29242D01*
X41784Y-29358D01*
X41952Y-29444D01*
X42134Y-29495D01*
X42285Y-29477D01*
X42285Y-32232D01*
X41901Y-32232D01*
X41901Y-31267D01*
X41900Y-31267D01*
X41901Y-31205D01*
X41865Y-31021D01*
X41793Y-30847D01*
X41689Y-30691D01*
X41557Y-30558D01*
X41402Y-30453D01*
X41229Y-30380D01*
X41045Y-30343D01*
X40976Y-30342D01*
X40976Y-30342D01*
X40954Y-30342D01*
X40857Y-30341D01*
X40854Y-30342D01*
X40671Y-30342D01*
X40011Y-30342D01*
X40011Y-25164D01*
X40014Y-25165D01*
X40057Y-25169D01*
X40589Y-25169D01*
X40576Y-25179D01*
X40575Y-25180D01*
X40575Y-25180D01*
X40575Y-25180D01*
X40575Y-25181D01*
X40394Y-25362D01*
X40027Y-25362D01*
X40027Y-27000D01*
X40298Y-27000D01*
X40283Y-27004D01*
X40219Y-27038D01*
X40194Y-27098D01*
X40433Y-27337D01*
X40438Y-27331D01*
X40463Y-27356D01*
X40458Y-27362D01*
X40463Y-27367D01*
X40438Y-27392D01*
X40433Y-27387D01*
X40408Y-27412D01*
X40408Y-27362D01*
X40169Y-27123D01*
X40109Y-27148D01*
X40074Y-27215D01*
X40052Y-27288D01*
X40045Y-27363D01*
X40053Y-27438D01*
X40075Y-27511D01*
X40109Y-27575D01*
X40169Y-27600D01*
X40408Y-27362D01*
X40408Y-27412D01*
X40194Y-27625D01*
X40219Y-27685D01*
X40286Y-27721D01*
X40359Y-27742D01*
X40434Y-27749D01*
X40509Y-27742D01*
X40582Y-27720D01*
X40646Y-27685D01*
X40671Y-27625D01*
X40671Y-27625D01*
X40694Y-27648D01*
X40700Y-27642D01*
X40704Y-27653D01*
X40708Y-27667D01*
X40708Y-27668D01*
X40708Y-27669D01*
X40715Y-27682D01*
X40722Y-27695D01*
X40723Y-27695D01*
X40723Y-27696D01*
X40732Y-27707D01*
X40741Y-27719D01*
X40743Y-27720D01*
X40743Y-27720D01*
X40743Y-27720D01*
X40743Y-27721D01*
X40962Y-27939D01*
X40962Y-27953D01*
X40970Y-27999D01*
X40982Y-28027D01*
X40961Y-28035D01*
X40922Y-28061D01*
X40889Y-28094D01*
X40863Y-28132D01*
X40844Y-28175D01*
X40834Y-28221D01*
X40834Y-28268D01*
X40842Y-28314D01*
X40859Y-28357D01*
X40885Y-28396D01*
X40913Y-28425D01*
X40913Y-28681D01*
X40889Y-28704D01*
X40863Y-28742D01*
X40844Y-28785D01*
X40834Y-28831D01*
X40834Y-28878D01*
X40842Y-28924D01*
X40859Y-28967D01*
X40885Y-29006D01*
X40917Y-29040D01*
X40956Y-29067D01*
X40998Y-29085D01*
X41044Y-29095D01*
X41091Y-29096D01*
X41137Y-29088D01*
X41180Y-29071D01*
X41220Y-29046D01*
X41254Y-29014D01*
X41280Y-28976D01*
X41299Y-28933D01*
X41310Y-28888D01*
X41311Y-28834D01*
X41301Y-28789D01*
X41284Y-28745D01*
X41258Y-28706D01*
X41232Y-28680D01*
X41232Y-28425D01*
X41254Y-28404D01*
X41280Y-28366D01*
X41299Y-28323D01*
X41310Y-28278D01*
X41311Y-28224D01*
X41301Y-28178D01*
X41291Y-28153D01*
X41308Y-28146D01*
X41348Y-28121D01*
X41381Y-28089D01*
X41408Y-28051D01*
X41427Y-28008D01*
X41438Y-27963D01*
X41438Y-27909D01*
X41429Y-27863D01*
X41412Y-27820D01*
X41389Y-27787D01*
X41665Y-27787D01*
X41665Y-27698D01*
X41841Y-27698D01*
X41784Y-27727D01*
X41635Y-27843D01*
X41512Y-27986D01*
X41419Y-28150D01*
X41360Y-28329D01*
X41351Y-28374D01*
X41369Y-28525D01*
X42285Y-28525D01*
X42285Y-28517D01*
X42320Y-28517D01*
X42320Y-28525D01*
X43237Y-28525D01*
X43254Y-28374D01*
X43245Y-28329D01*
X43186Y-28150D01*
X43093Y-27986D01*
X42970Y-27843D01*
X42821Y-27727D01*
X42764Y-27698D01*
X43378Y-27698D01*
X43384Y-27703D01*
X43383Y-27736D01*
X43391Y-27782D01*
X43409Y-27825D01*
X43434Y-27865D01*
X43466Y-27898D01*
X43505Y-27925D01*
X43548Y-27944D01*
X43593Y-27954D01*
X43640Y-27955D01*
X43686Y-27947D01*
X43729Y-27930D01*
X43769Y-27905D01*
X43803Y-27872D01*
X43830Y-27834D01*
X43849Y-27792D01*
X43859Y-27746D01*
X43860Y-27693D01*
X43851Y-27647D01*
X43833Y-27604D01*
X43807Y-27565D01*
X43774Y-27532D01*
X43735Y-27505D01*
X43692Y-27487D01*
X43647Y-27478D01*
X43609Y-27478D01*
X43557Y-27426D01*
X43546Y-27417D01*
X43534Y-27407D01*
X43534Y-27407D01*
X43533Y-27406D01*
X43520Y-27399D01*
X43507Y-27392D01*
X43506Y-27392D01*
X43506Y-27392D01*
X43492Y-27387D01*
X43478Y-27383D01*
X43477Y-27383D01*
X43476Y-27383D01*
X43461Y-27381D01*
X43447Y-27379D01*
X43445Y-27379D01*
X43445Y-27379D01*
X43445Y-27379D01*
X43444Y-27379D01*
X41665Y-27379D01*
X41665Y-25946D01*
X41889Y-25946D01*
X41904Y-25945D01*
X41919Y-25944D01*
X41919Y-25943D01*
X41920Y-25943D01*
X41934Y-25939D01*
X41948Y-25935D01*
X41949Y-25935D01*
X41950Y-25934D01*
X41963Y-25927D01*
X41976Y-25921D01*
X41977Y-25920D01*
X41978Y-25920D01*
X41989Y-25910D01*
X42000Y-25901D01*
X42002Y-25900D01*
X42002Y-25900D01*
X42002Y-25900D01*
X42002Y-25900D01*
X42585Y-25316D01*
X43634Y-25316D01*
X43690Y-25372D01*
X43639Y-25350D01*
X43551Y-25332D01*
X43462Y-25332D01*
X43374Y-25349D01*
X43292Y-25382D01*
X43217Y-25431D01*
X43153Y-25493D01*
X43103Y-25567D01*
X43068Y-25649D01*
X43049Y-25736D01*
X43048Y-25825D01*
X43064Y-25913D01*
X43097Y-25996D01*
X43145Y-26071D01*
X43207Y-26135D01*
X43281Y-26186D01*
X43362Y-26221D01*
X43449Y-26241D01*
X43538Y-26242D01*
X43626Y-26227D01*
X43709Y-26195D01*
X43785Y-26147D01*
X43849Y-26085D01*
X43901Y-26013D01*
X43937Y-25931D01*
X43947Y-25885D01*
X44042Y-25980D01*
X44022Y-25988D01*
X43983Y-26014D01*
X43950Y-26046D01*
X43924Y-26085D01*
X43905Y-26128D01*
X43896Y-26173D01*
X43270Y-26799D01*
X43236Y-26799D01*
X43190Y-26807D01*
X43146Y-26825D01*
X43107Y-26850D01*
X43074Y-26883D01*
X43048Y-26922D01*
X43029Y-26965D01*
X43020Y-27010D01*
X43019Y-27057D01*
X43027Y-27103D01*
X43045Y-27146D01*
X43070Y-27186D01*
X43102Y-27219D01*
X43141Y-27246D01*
X43183Y-27265D01*
X43229Y-27275D01*
X43276Y-27276D01*
X43322Y-27267D01*
X43365Y-27251D01*
X43405Y-27226D01*
X43439Y-27193D01*
X43465Y-27155D01*
X43484Y-27112D01*
X43495Y-27067D01*
X43495Y-27024D01*
X44086Y-26434D01*
X44105Y-26438D01*
X44152Y-26439D01*
X44198Y-26431D01*
X44216Y-26424D01*
X43942Y-26698D01*
X43933Y-26709D01*
X43923Y-26720D01*
X43923Y-26721D01*
X43922Y-26722D01*
X43915Y-26735D01*
X43908Y-26748D01*
X43908Y-26749D01*
X43907Y-26749D01*
X43903Y-26763D01*
X43899Y-26777D01*
X43899Y-26778D01*
X43898Y-26779D01*
X43897Y-26794D01*
X43895Y-26808D01*
X43895Y-26810D01*
X43895Y-26810D01*
X43895Y-26810D01*
X43895Y-26811D01*
X43895Y-28838D01*
X43897Y-28853D01*
X43898Y-28867D01*
X43898Y-28868D01*
X43898Y-28869D01*
X43902Y-28883D01*
X43907Y-28897D01*
X43907Y-28898D01*
X43907Y-28899D01*
X43914Y-28912D01*
X43921Y-28925D01*
X43921Y-28926D01*
X43922Y-28926D01*
X43931Y-28938D01*
X43935Y-28942D01*
X43934Y-28976D01*
X43943Y-29022D01*
X43960Y-29066D01*
X43985Y-29105D01*
X44018Y-29138D01*
X44056Y-29165D01*
X44099Y-29184D01*
X44144Y-29194D01*
X44191Y-29195D01*
X44237Y-29187D01*
X44281Y-29170D01*
X44320Y-29145D01*
X44354Y-29113D01*
X44381Y-29074D01*
X44400Y-29032D01*
X44410Y-28986D01*
X44411Y-28933D01*
X44402Y-28887D01*
X44384Y-28844D01*
X44358Y-28805D01*
X44325Y-28772D01*
X44287Y-28746D01*
X44244Y-28728D01*
X44214Y-28722D01*
X44214Y-26877D01*
X44512Y-26579D01*
X44521Y-26567D01*
X44531Y-26556D01*
X44531Y-26555D01*
X44532Y-26555D01*
X44539Y-26542D01*
X44546Y-26529D01*
X44546Y-26528D01*
X44546Y-26527D01*
X44551Y-26513D01*
X44555Y-26499D01*
X44555Y-26498D01*
X44555Y-26498D01*
X44557Y-26483D01*
X44559Y-26468D01*
X44559Y-26467D01*
X44559Y-26467D01*
X44559Y-26467D01*
X44559Y-26466D01*
X44559Y-26112D01*
X44557Y-26097D01*
X44556Y-26082D01*
X44556Y-26082D01*
X44556Y-26081D01*
X44551Y-26067D01*
X44547Y-26052D01*
X44547Y-26052D01*
X44547Y-26051D01*
X44540Y-26038D01*
X44533Y-26025D01*
X44532Y-26024D01*
X44532Y-26023D01*
X44523Y-26012D01*
X44513Y-26001D01*
X44512Y-25999D01*
X44512Y-25999D01*
X44512Y-25999D01*
X44512Y-25999D01*
X44311Y-25798D01*
X44437Y-25798D01*
X44470Y-25766D01*
X44470Y-25450D01*
X44462Y-25450D01*
X44462Y-25444D01*
X44795Y-25444D01*
X44795Y-25414D01*
X44821Y-25414D01*
X44854Y-25382D01*
X44854Y-25183D01*
X44849Y-25158D01*
X44839Y-25135D01*
X44825Y-25114D01*
X44807Y-25096D01*
X44795Y-25087D01*
X44795Y-24975D01*
X44819Y-24959D01*
X44840Y-24938D01*
X44856Y-24914D01*
X44867Y-24887D01*
X44873Y-24858D01*
X44873Y-24829D01*
X44873Y-24805D01*
X46374Y-24805D01*
X47222Y-25653D01*
X47222Y-27066D01*
X47198Y-27090D01*
X47172Y-27128D01*
X47153Y-27171D01*
X47144Y-27217D01*
X47143Y-27264D01*
X47151Y-27310D01*
X47169Y-27353D01*
X47194Y-27392D01*
X47226Y-27426D01*
X47265Y-27453D01*
X47307Y-27471D01*
X47353Y-27481D01*
X47400Y-27482D01*
X47446Y-27474D01*
X47489Y-27457D01*
X47529Y-27432D01*
X47563Y-27400D01*
X47589Y-27362D01*
X47608Y-27319D01*
X47619Y-27274D01*
X47620Y-27220D01*
X47611Y-27174D01*
X47593Y-27131D01*
X47567Y-27092D01*
X47541Y-27066D01*
X47541Y-25721D01*
X47842Y-26023D01*
X47842Y-27795D01*
X47842Y-29547D01*
X47624Y-29765D01*
X47624Y-28711D01*
X47624Y-28374D01*
X47615Y-28329D01*
X47556Y-28150D01*
X47463Y-27986D01*
X47340Y-27843D01*
X47191Y-27727D01*
X47023Y-27642D01*
X46841Y-27591D01*
X46690Y-27609D01*
X46690Y-28525D01*
X47607Y-28525D01*
X47624Y-28374D01*
X47624Y-28711D01*
X47607Y-28561D01*
X46690Y-28561D01*
X46690Y-29477D01*
X46841Y-29495D01*
X47023Y-29444D01*
X47191Y-29358D01*
X47340Y-29242D01*
X47463Y-29099D01*
X47556Y-28935D01*
X47615Y-28756D01*
X47624Y-28711D01*
X47624Y-29765D01*
X47461Y-29929D01*
X46661Y-29929D01*
X46655Y-29925D01*
X46655Y-29477D01*
X46655Y-28561D01*
X46655Y-28525D01*
X46655Y-27609D01*
X46504Y-27591D01*
X46419Y-27615D01*
X46419Y-25704D01*
X46410Y-25659D01*
X46392Y-25615D01*
X46366Y-25577D01*
X46340Y-25550D01*
X46340Y-25374D01*
X46339Y-25359D01*
X46337Y-25344D01*
X46337Y-25343D01*
X46337Y-25343D01*
X46333Y-25328D01*
X46329Y-25314D01*
X46328Y-25314D01*
X46328Y-25313D01*
X46321Y-25300D01*
X46314Y-25287D01*
X46314Y-25286D01*
X46313Y-25285D01*
X46304Y-25274D01*
X46295Y-25262D01*
X46294Y-25261D01*
X46294Y-25261D01*
X46294Y-25261D01*
X46293Y-25261D01*
X46077Y-25044D01*
X46065Y-25035D01*
X46054Y-25025D01*
X46053Y-25025D01*
X46053Y-25024D01*
X46040Y-25018D01*
X46027Y-25010D01*
X46026Y-25010D01*
X46025Y-25010D01*
X46011Y-25005D01*
X45997Y-25001D01*
X45996Y-25001D01*
X45996Y-25001D01*
X45981Y-24999D01*
X45966Y-24998D01*
X45965Y-24998D01*
X45965Y-24998D01*
X45965Y-24998D01*
X45964Y-24998D01*
X45689Y-24998D01*
X45664Y-24973D01*
X45625Y-24946D01*
X45582Y-24928D01*
X45536Y-24919D01*
X45490Y-24919D01*
X45444Y-24927D01*
X45400Y-24945D01*
X45361Y-24970D01*
X45328Y-25003D01*
X45302Y-25042D01*
X45283Y-25085D01*
X45273Y-25130D01*
X45273Y-25177D01*
X45281Y-25223D01*
X45298Y-25266D01*
X45324Y-25306D01*
X45347Y-25329D01*
X45292Y-25345D01*
X45210Y-25389D01*
X45206Y-25391D01*
X45171Y-25461D01*
X45472Y-25762D01*
X45773Y-25461D01*
X45738Y-25391D01*
X45656Y-25347D01*
X45659Y-25346D01*
X45689Y-25316D01*
X45898Y-25316D01*
X46021Y-25440D01*
X46021Y-25551D01*
X45997Y-25574D01*
X45971Y-25613D01*
X45952Y-25655D01*
X45943Y-25701D01*
X45942Y-25723D01*
X45940Y-25697D01*
X45914Y-25607D01*
X45870Y-25525D01*
X45868Y-25521D01*
X45798Y-25486D01*
X45497Y-25787D01*
X45503Y-25792D01*
X45478Y-25818D01*
X45472Y-25812D01*
X45447Y-25837D01*
X45447Y-25787D01*
X45146Y-25486D01*
X45076Y-25521D01*
X45032Y-25603D01*
X45005Y-25692D01*
X44995Y-25785D01*
X45004Y-25877D01*
X45030Y-25966D01*
X45074Y-26049D01*
X45076Y-26053D01*
X45146Y-26088D01*
X45447Y-25787D01*
X45447Y-25837D01*
X45171Y-26113D01*
X45206Y-26183D01*
X45288Y-26227D01*
X45326Y-26238D01*
X44854Y-26711D01*
X44854Y-25681D01*
X44854Y-25482D01*
X44821Y-25450D01*
X44505Y-25450D01*
X44505Y-25766D01*
X44538Y-25798D01*
X44712Y-25798D01*
X44737Y-25798D01*
X44762Y-25793D01*
X44786Y-25783D01*
X44807Y-25769D01*
X44825Y-25751D01*
X44839Y-25729D01*
X44849Y-25706D01*
X44854Y-25681D01*
X44854Y-26711D01*
X44749Y-26816D01*
X44740Y-26827D01*
X44730Y-26839D01*
X44730Y-26839D01*
X44729Y-26840D01*
X44722Y-26853D01*
X44715Y-26866D01*
X44715Y-26867D01*
X44715Y-26867D01*
X44710Y-26881D01*
X44706Y-26895D01*
X44706Y-26896D01*
X44705Y-26897D01*
X44704Y-26912D01*
X44702Y-26926D01*
X44702Y-26928D01*
X44702Y-26928D01*
X44702Y-26928D01*
X44702Y-26929D01*
X44702Y-27913D01*
X44678Y-27936D01*
X44652Y-27975D01*
X44634Y-28018D01*
X44624Y-28063D01*
X44623Y-28110D01*
X44632Y-28156D01*
X44649Y-28199D01*
X44674Y-28239D01*
X44707Y-28272D01*
X44745Y-28299D01*
X44788Y-28318D01*
X44833Y-28328D01*
X44870Y-28328D01*
X44815Y-28383D01*
X44781Y-28383D01*
X44735Y-28392D01*
X44692Y-28409D01*
X44653Y-28435D01*
X44619Y-28468D01*
X44593Y-28506D01*
X44575Y-28549D01*
X44565Y-28595D01*
X44564Y-28642D01*
X44573Y-28688D01*
X44590Y-28731D01*
X44615Y-28770D01*
X44648Y-28804D01*
X44686Y-28830D01*
X44729Y-28849D01*
X44774Y-28859D01*
X44821Y-28860D01*
X44867Y-28852D01*
X44911Y-28835D01*
X44950Y-28810D01*
X44984Y-28778D01*
X45011Y-28740D01*
X45030Y-28697D01*
X45040Y-28652D01*
X45041Y-28609D01*
X45250Y-28400D01*
X45259Y-28388D01*
X45267Y-28379D01*
X45277Y-28390D01*
X45316Y-28417D01*
X45359Y-28436D01*
X45404Y-28446D01*
X45451Y-28447D01*
X45497Y-28439D01*
X45540Y-28422D01*
X45580Y-28397D01*
X45614Y-28365D01*
X45641Y-28326D01*
X45660Y-28284D01*
X45670Y-28238D01*
X45671Y-28185D01*
X45662Y-28139D01*
X45644Y-28096D01*
X45618Y-28057D01*
X45592Y-28031D01*
X45592Y-27566D01*
X45853Y-27304D01*
X45884Y-27305D01*
X45930Y-27297D01*
X45974Y-27280D01*
X46013Y-27255D01*
X46047Y-27223D01*
X46074Y-27185D01*
X46093Y-27142D01*
X46103Y-27096D01*
X46104Y-27043D01*
X46095Y-26997D01*
X46077Y-26954D01*
X46051Y-26915D01*
X46018Y-26882D01*
X45979Y-26856D01*
X45936Y-26838D01*
X45891Y-26828D01*
X45844Y-26828D01*
X45798Y-26837D01*
X45755Y-26854D01*
X45716Y-26880D01*
X45682Y-26913D01*
X45656Y-26951D01*
X45638Y-26994D01*
X45628Y-27040D01*
X45627Y-27079D01*
X45320Y-27387D01*
X45310Y-27398D01*
X45301Y-27409D01*
X45301Y-27410D01*
X45300Y-27411D01*
X45297Y-27417D01*
X45297Y-27231D01*
X45794Y-26734D01*
X45808Y-26744D01*
X45851Y-26763D01*
X45896Y-26773D01*
X45943Y-26774D01*
X45989Y-26765D01*
X46033Y-26749D01*
X46072Y-26724D01*
X46106Y-26691D01*
X46133Y-26653D01*
X46152Y-26610D01*
X46162Y-26565D01*
X46163Y-26512D01*
X46154Y-26466D01*
X46136Y-26423D01*
X46110Y-26384D01*
X46084Y-26358D01*
X46106Y-26337D01*
X46133Y-26299D01*
X46152Y-26256D01*
X46162Y-26211D01*
X46163Y-26157D01*
X46154Y-26111D01*
X46136Y-26068D01*
X46110Y-26029D01*
X46077Y-25996D01*
X46039Y-25970D01*
X45995Y-25952D01*
X45950Y-25943D01*
X45920Y-25942D01*
X45939Y-25882D01*
X45949Y-25789D01*
X45948Y-25778D01*
X45951Y-25794D01*
X45968Y-25837D01*
X45993Y-25877D01*
X46025Y-25910D01*
X46064Y-25937D01*
X46107Y-25955D01*
X46152Y-25966D01*
X46199Y-25966D01*
X46245Y-25958D01*
X46289Y-25941D01*
X46328Y-25916D01*
X46362Y-25884D01*
X46389Y-25846D01*
X46408Y-25803D01*
X46418Y-25758D01*
X46419Y-25704D01*
X46419Y-27615D01*
X46322Y-27642D01*
X46154Y-27727D01*
X46006Y-27843D01*
X45882Y-27986D01*
X45789Y-28150D01*
X45730Y-28329D01*
X45721Y-28374D01*
X45739Y-28525D01*
X46655Y-28525D01*
X46655Y-28561D01*
X45739Y-28561D01*
X45721Y-28711D01*
X45730Y-28756D01*
X45789Y-28935D01*
X45882Y-29099D01*
X46006Y-29242D01*
X46154Y-29358D01*
X46322Y-29444D01*
X46504Y-29495D01*
X46655Y-29477D01*
X46655Y-29925D01*
X46629Y-29907D01*
X46586Y-29889D01*
X46540Y-29880D01*
X46494Y-29879D01*
X46448Y-29888D01*
X46404Y-29906D01*
X46365Y-29931D01*
X46332Y-29964D01*
X46306Y-30002D01*
X46287Y-30045D01*
X46277Y-30091D01*
X46277Y-30138D01*
X46285Y-30184D01*
X46302Y-30227D01*
X46328Y-30266D01*
X46360Y-30300D01*
X46398Y-30327D01*
X46441Y-30345D01*
X46487Y-30355D01*
X46534Y-30356D01*
X46580Y-30348D01*
X46623Y-30331D01*
X46662Y-30307D01*
X47539Y-30307D01*
X47556Y-30305D01*
X47574Y-30303D01*
X47575Y-30303D01*
X47576Y-30303D01*
X47592Y-30298D01*
X47609Y-30293D01*
X47610Y-30293D01*
X47611Y-30292D01*
X47626Y-30284D01*
X47642Y-30276D01*
X47643Y-30275D01*
X47643Y-30275D01*
X47657Y-30264D01*
X47671Y-30253D01*
X47672Y-30252D01*
X47672Y-30252D01*
X47672Y-30252D01*
X47672Y-30251D01*
X48165Y-29759D01*
X48176Y-29746D01*
X48187Y-29732D01*
X48187Y-29731D01*
X48188Y-29731D01*
X48196Y-29715D01*
X48205Y-29700D01*
X48205Y-29699D01*
X48205Y-29698D01*
X48211Y-29681D01*
X48216Y-29665D01*
X48216Y-29664D01*
X48216Y-29663D01*
X48218Y-29646D01*
X48220Y-29628D01*
X48220Y-29626D01*
X48220Y-29626D01*
X48220Y-29626D01*
X48220Y-29625D01*
X48220Y-27984D01*
X48220Y-27984D01*
X48249Y-28004D01*
X48292Y-28022D01*
X48337Y-28032D01*
X48384Y-28033D01*
X48430Y-28025D01*
X48474Y-28008D01*
X48513Y-27983D01*
X48547Y-27951D01*
X48574Y-27913D01*
X48593Y-27870D01*
X48603Y-27825D01*
X48604Y-27771D01*
X48595Y-27726D01*
X48577Y-27682D01*
X48551Y-27644D01*
X48518Y-27610D01*
X48479Y-27584D01*
X48436Y-27566D01*
X48391Y-27557D01*
X48344Y-27556D01*
X48298Y-27565D01*
X48255Y-27583D01*
X48220Y-27605D01*
X48220Y-25944D01*
X48218Y-25927D01*
X48217Y-25910D01*
X48216Y-25909D01*
X48216Y-25908D01*
X48211Y-25891D01*
X48206Y-25874D01*
X48206Y-25873D01*
X48206Y-25872D01*
X48198Y-25857D01*
X48189Y-25841D01*
X48189Y-25841D01*
X48188Y-25840D01*
X48177Y-25826D01*
X48166Y-25813D01*
X48165Y-25811D01*
X48165Y-25811D01*
X48165Y-25811D01*
X48165Y-25811D01*
X46659Y-24305D01*
X46645Y-24294D01*
X46632Y-24283D01*
X46631Y-24282D01*
X46630Y-24281D01*
X46615Y-24273D01*
X46600Y-24265D01*
X46599Y-24264D01*
X46598Y-24264D01*
X46581Y-24259D01*
X46564Y-24254D01*
X46563Y-24254D01*
X46562Y-24253D01*
X46545Y-24251D01*
X46528Y-24250D01*
X46526Y-24250D01*
X46526Y-24250D01*
X46526Y-24250D01*
X46525Y-24250D01*
X46387Y-24250D01*
X46395Y-24244D01*
X46413Y-24226D01*
X46427Y-24205D01*
X46437Y-24182D01*
X46442Y-24157D01*
X46443Y-24131D01*
X46443Y-23505D01*
X46442Y-23480D01*
X46437Y-23455D01*
X46427Y-23432D01*
X46413Y-23410D01*
X46395Y-23392D01*
X46374Y-23378D01*
X46350Y-23369D01*
X46325Y-23364D01*
X46038Y-23364D01*
X46005Y-23396D01*
X46005Y-23801D01*
X46410Y-23801D01*
X46442Y-23768D01*
X46443Y-23505D01*
X46443Y-24131D01*
X46442Y-23869D01*
X46410Y-23836D01*
X46005Y-23836D01*
X46005Y-23844D01*
X45970Y-23844D01*
X45970Y-23836D01*
X45970Y-23801D01*
X45970Y-23396D01*
X45937Y-23364D01*
X45650Y-23364D01*
X45625Y-23369D01*
X45602Y-23378D01*
X45580Y-23392D01*
X45562Y-23410D01*
X45548Y-23432D01*
X45538Y-23455D01*
X45533Y-23480D01*
X45533Y-23505D01*
X45533Y-23768D01*
X45565Y-23801D01*
X45970Y-23801D01*
X45970Y-23836D01*
X45565Y-23836D01*
X45533Y-23869D01*
X45533Y-24131D01*
X45533Y-24157D01*
X45538Y-24182D01*
X45548Y-24205D01*
X45558Y-24220D01*
X45514Y-24176D01*
X45519Y-24158D01*
X45523Y-24115D01*
X45523Y-23561D01*
X45519Y-23518D01*
X45506Y-23475D01*
X45485Y-23436D01*
X45456Y-23401D01*
X45422Y-23373D01*
X45382Y-23351D01*
X45339Y-23338D01*
X45296Y-23334D01*
X42675Y-23334D01*
X42632Y-23338D01*
X42589Y-23351D01*
X42550Y-23373D01*
X42515Y-23401D01*
X42487Y-23436D01*
X42466Y-23475D01*
X42453Y-23518D01*
X42448Y-23561D01*
X42448Y-24115D01*
X42453Y-24158D01*
X42466Y-24201D01*
X42487Y-24241D01*
X42515Y-24275D01*
X42550Y-24304D01*
X42589Y-24325D01*
X42632Y-24338D01*
X42675Y-24342D01*
X44105Y-24342D01*
X44102Y-24354D01*
X44102Y-24384D01*
X44102Y-24857D01*
X44108Y-24886D01*
X44119Y-24913D01*
X44135Y-24937D01*
X44156Y-24958D01*
X44180Y-24974D01*
X44181Y-24975D01*
X44181Y-25087D01*
X44168Y-25096D01*
X44151Y-25114D01*
X44136Y-25135D01*
X44127Y-25158D01*
X44122Y-25183D01*
X44122Y-25353D01*
X43813Y-25044D01*
X43802Y-25035D01*
X43790Y-25025D01*
X43790Y-25025D01*
X43789Y-25024D01*
X43777Y-25018D01*
X43790Y-25000D01*
X43809Y-24957D01*
X43820Y-24911D01*
X43820Y-24858D01*
X43811Y-24812D01*
X43794Y-24769D01*
X43768Y-24730D01*
X43735Y-24697D01*
X43696Y-24671D01*
X43653Y-24653D01*
X43607Y-24643D01*
X43560Y-24643D01*
X43515Y-24652D01*
X43471Y-24669D01*
X43436Y-24692D01*
X42480Y-24692D01*
X42462Y-24694D01*
X42445Y-24696D01*
X42444Y-24696D01*
X42443Y-24696D01*
X42426Y-24701D01*
X42410Y-24706D01*
X42409Y-24706D01*
X42408Y-24707D01*
X42392Y-24715D01*
X42377Y-24723D01*
X42376Y-24724D01*
X42375Y-24724D01*
X42362Y-24735D01*
X42348Y-24746D01*
X42347Y-24747D01*
X42347Y-24747D01*
X42347Y-24747D01*
X42346Y-24748D01*
X41968Y-25125D01*
X41235Y-25125D01*
X41378Y-25070D01*
X41536Y-24970D01*
X41672Y-24840D01*
X41780Y-24687D01*
X41857Y-24516D01*
X41898Y-24333D01*
X41901Y-24118D01*
X41892Y-24074D01*
X41897Y-24060D01*
X41901Y-24017D01*
X41901Y-23325D01*
X41897Y-23282D01*
X41896Y-23279D01*
X47079Y-23279D01*
X47079Y-23282D01*
X47074Y-23325D01*
X47074Y-24017D01*
X47079Y-24060D01*
X47082Y-24073D01*
X47076Y-24105D01*
X47073Y-24293D01*
X47107Y-24477D01*
X47176Y-24652D01*
X47278Y-24809D01*
X47408Y-24944D01*
X47562Y-25051D01*
X47734Y-25126D01*
X47917Y-25167D01*
X48105Y-25171D01*
X48167Y-25160D01*
X48183Y-25165D01*
X48226Y-25169D01*
X48918Y-25169D01*
X48961Y-25165D01*
X48964Y-25164D01*
X48964Y-30347D01*
G54D10*
G36*
X38925Y-30347D02*
X38922Y-30346D01*
X38879Y-30342D01*
X38187Y-30342D01*
X38144Y-30346D01*
X38130Y-30350D01*
X38092Y-30343D01*
X37904Y-30341D01*
X37720Y-30377D01*
X37546Y-30447D01*
X37389Y-30550D01*
X37255Y-30681D01*
X37149Y-30836D01*
X37075Y-31008D01*
X37036Y-31192D01*
X37034Y-31379D01*
X37044Y-31435D01*
X37039Y-31451D01*
X37035Y-31494D01*
X37035Y-32186D01*
X37039Y-32229D01*
X37040Y-32232D01*
X35887Y-32232D01*
X35887Y-31451D01*
X35870Y-31363D01*
X35836Y-31281D01*
X35787Y-31207D01*
X35724Y-31143D01*
X35650Y-31094D01*
X35568Y-31059D01*
X35480Y-31041D01*
X35391Y-31041D01*
X35304Y-31057D01*
X35221Y-31091D01*
X35146Y-31139D01*
X35083Y-31202D01*
X35032Y-31275D01*
X34997Y-31357D01*
X34978Y-31445D01*
X34977Y-31534D01*
X34993Y-31622D01*
X35026Y-31704D01*
X35074Y-31779D01*
X35136Y-31844D01*
X35210Y-31894D01*
X35291Y-31930D01*
X35378Y-31949D01*
X35468Y-31951D01*
X35555Y-31936D01*
X35639Y-31903D01*
X35714Y-31856D01*
X35778Y-31794D01*
X35830Y-31721D01*
X35866Y-31640D01*
X35886Y-31553D01*
X35887Y-31451D01*
X35887Y-32232D01*
X34925Y-32232D01*
X34925Y-31498D01*
X34916Y-31405D01*
X34890Y-31316D01*
X34847Y-31234D01*
X34844Y-31230D01*
X34775Y-31194D01*
X34750Y-31219D01*
X34750Y-31169D01*
X34714Y-31100D01*
X34632Y-31056D01*
X34543Y-31028D01*
X34451Y-31019D01*
X34358Y-31028D01*
X34269Y-31054D01*
X34186Y-31097D01*
X34183Y-31100D01*
X34147Y-31169D01*
X34448Y-31471D01*
X34750Y-31169D01*
X34750Y-31219D01*
X34473Y-31496D01*
X34775Y-31797D01*
X34844Y-31761D01*
X34888Y-31679D01*
X34916Y-31590D01*
X34925Y-31498D01*
X34925Y-32232D01*
X34750Y-32232D01*
X34750Y-31822D01*
X34448Y-31521D01*
X34423Y-31546D01*
X34423Y-31496D01*
X34122Y-31194D01*
X34053Y-31230D01*
X34008Y-31312D01*
X33981Y-31401D01*
X33972Y-31493D01*
X33980Y-31586D01*
X34007Y-31675D01*
X34050Y-31757D01*
X34053Y-31761D01*
X34122Y-31797D01*
X34423Y-31496D01*
X34423Y-31546D01*
X34147Y-31822D01*
X34183Y-31891D01*
X34265Y-31935D01*
X34354Y-31963D01*
X34446Y-31972D01*
X34539Y-31964D01*
X34628Y-31937D01*
X34710Y-31894D01*
X34714Y-31891D01*
X34750Y-31822D01*
X34750Y-32232D01*
X33919Y-32232D01*
X33919Y-31451D01*
X33901Y-31363D01*
X33868Y-31281D01*
X33818Y-31207D01*
X33755Y-31143D01*
X33681Y-31094D01*
X33599Y-31059D01*
X33512Y-31041D01*
X33423Y-31041D01*
X33335Y-31057D01*
X33252Y-31091D01*
X33215Y-31115D01*
X33215Y-28711D01*
X33197Y-28561D01*
X32281Y-28561D01*
X32281Y-29477D01*
X32432Y-29495D01*
X32614Y-29444D01*
X32782Y-29358D01*
X32930Y-29242D01*
X33054Y-29099D01*
X33147Y-28935D01*
X33206Y-28756D01*
X33215Y-28711D01*
X33215Y-31115D01*
X33178Y-31139D01*
X33114Y-31202D01*
X33064Y-31275D01*
X33029Y-31357D01*
X33010Y-31445D01*
X33009Y-31534D01*
X33025Y-31622D01*
X33058Y-31704D01*
X33106Y-31779D01*
X33168Y-31844D01*
X33241Y-31894D01*
X33323Y-31930D01*
X33410Y-31949D01*
X33499Y-31951D01*
X33587Y-31936D01*
X33670Y-31903D01*
X33745Y-31856D01*
X33810Y-31794D01*
X33861Y-31721D01*
X33898Y-31640D01*
X33917Y-31553D01*
X33919Y-31451D01*
X33919Y-32232D01*
X32246Y-32232D01*
X32246Y-29477D01*
X32246Y-28561D01*
X31329Y-28561D01*
X31312Y-28711D01*
X31321Y-28756D01*
X31380Y-28935D01*
X31473Y-29099D01*
X31596Y-29242D01*
X31745Y-29358D01*
X31913Y-29444D01*
X32095Y-29495D01*
X32246Y-29477D01*
X32246Y-32232D01*
X31862Y-32232D01*
X31862Y-31267D01*
X31861Y-31267D01*
X31862Y-31205D01*
X31825Y-31021D01*
X31754Y-30847D01*
X31650Y-30691D01*
X31518Y-30558D01*
X31362Y-30453D01*
X31189Y-30380D01*
X31005Y-30343D01*
X30937Y-30342D01*
X30937Y-30342D01*
X30914Y-30342D01*
X30818Y-30341D01*
X30814Y-30342D01*
X30632Y-30342D01*
X29972Y-30342D01*
X29972Y-25164D01*
X29975Y-25165D01*
X30018Y-25169D01*
X30550Y-25169D01*
X30537Y-25179D01*
X30536Y-25180D01*
X30536Y-25180D01*
X30536Y-25180D01*
X30535Y-25181D01*
X30354Y-25362D01*
X29988Y-25362D01*
X29988Y-27000D01*
X30258Y-27000D01*
X30244Y-27004D01*
X30180Y-27038D01*
X30155Y-27098D01*
X30393Y-27337D01*
X30399Y-27331D01*
X30424Y-27356D01*
X30418Y-27362D01*
X30424Y-27367D01*
X30399Y-27392D01*
X30393Y-27387D01*
X30368Y-27412D01*
X30368Y-27362D01*
X30130Y-27123D01*
X30069Y-27148D01*
X30034Y-27215D01*
X30013Y-27288D01*
X30006Y-27363D01*
X30013Y-27438D01*
X30035Y-27511D01*
X30069Y-27575D01*
X30130Y-27600D01*
X30368Y-27362D01*
X30368Y-27412D01*
X30155Y-27625D01*
X30180Y-27685D01*
X30247Y-27721D01*
X30319Y-27742D01*
X30395Y-27749D01*
X30470Y-27742D01*
X30542Y-27720D01*
X30607Y-27685D01*
X30632Y-27625D01*
X30632Y-27625D01*
X30655Y-27648D01*
X30661Y-27642D01*
X30664Y-27653D01*
X30668Y-27667D01*
X30669Y-27668D01*
X30669Y-27669D01*
X30676Y-27682D01*
X30683Y-27695D01*
X30683Y-27695D01*
X30684Y-27696D01*
X30693Y-27707D01*
X30702Y-27719D01*
X30703Y-27720D01*
X30703Y-27720D01*
X30703Y-27720D01*
X30704Y-27721D01*
X30923Y-27939D01*
X30922Y-27953D01*
X30931Y-27999D01*
X30942Y-28027D01*
X30922Y-28035D01*
X30883Y-28061D01*
X30850Y-28094D01*
X30823Y-28132D01*
X30805Y-28175D01*
X30795Y-28221D01*
X30794Y-28268D01*
X30803Y-28314D01*
X30820Y-28357D01*
X30845Y-28396D01*
X30874Y-28425D01*
X30874Y-28681D01*
X30850Y-28704D01*
X30823Y-28742D01*
X30805Y-28785D01*
X30795Y-28831D01*
X30794Y-28878D01*
X30803Y-28924D01*
X30820Y-28967D01*
X30845Y-29006D01*
X30878Y-29040D01*
X30916Y-29067D01*
X30959Y-29085D01*
X31005Y-29095D01*
X31051Y-29096D01*
X31097Y-29088D01*
X31141Y-29071D01*
X31180Y-29046D01*
X31214Y-29014D01*
X31241Y-28976D01*
X31260Y-28933D01*
X31270Y-28888D01*
X31271Y-28834D01*
X31262Y-28789D01*
X31244Y-28745D01*
X31218Y-28706D01*
X31192Y-28680D01*
X31192Y-28425D01*
X31214Y-28404D01*
X31241Y-28366D01*
X31260Y-28323D01*
X31270Y-28278D01*
X31271Y-28224D01*
X31262Y-28178D01*
X31252Y-28153D01*
X31269Y-28146D01*
X31308Y-28121D01*
X31342Y-28089D01*
X31369Y-28051D01*
X31388Y-28008D01*
X31398Y-27963D01*
X31399Y-27909D01*
X31390Y-27863D01*
X31372Y-27820D01*
X31350Y-27787D01*
X31625Y-27787D01*
X31625Y-27698D01*
X31802Y-27698D01*
X31745Y-27727D01*
X31596Y-27843D01*
X31473Y-27986D01*
X31380Y-28150D01*
X31321Y-28329D01*
X31312Y-28374D01*
X31329Y-28525D01*
X32246Y-28525D01*
X32246Y-28517D01*
X32281Y-28517D01*
X32281Y-28525D01*
X33197Y-28525D01*
X33215Y-28374D01*
X33206Y-28329D01*
X33147Y-28150D01*
X33054Y-27986D01*
X32930Y-27843D01*
X32782Y-27727D01*
X32725Y-27698D01*
X33339Y-27698D01*
X33344Y-27703D01*
X33344Y-27736D01*
X33352Y-27782D01*
X33369Y-27825D01*
X33395Y-27865D01*
X33427Y-27898D01*
X33465Y-27925D01*
X33508Y-27944D01*
X33554Y-27954D01*
X33601Y-27955D01*
X33647Y-27947D01*
X33690Y-27930D01*
X33730Y-27905D01*
X33763Y-27872D01*
X33790Y-27834D01*
X33809Y-27792D01*
X33820Y-27746D01*
X33820Y-27693D01*
X33811Y-27647D01*
X33794Y-27604D01*
X33768Y-27565D01*
X33735Y-27532D01*
X33696Y-27505D01*
X33653Y-27487D01*
X33607Y-27478D01*
X33569Y-27478D01*
X33518Y-27426D01*
X33506Y-27417D01*
X33495Y-27407D01*
X33494Y-27407D01*
X33494Y-27406D01*
X33481Y-27399D01*
X33468Y-27392D01*
X33467Y-27392D01*
X33466Y-27392D01*
X33452Y-27387D01*
X33438Y-27383D01*
X33437Y-27383D01*
X33437Y-27383D01*
X33422Y-27381D01*
X33407Y-27379D01*
X33406Y-27379D01*
X33406Y-27379D01*
X33406Y-27379D01*
X33405Y-27379D01*
X31625Y-27379D01*
X31625Y-25946D01*
X31850Y-25946D01*
X31865Y-25945D01*
X31879Y-25944D01*
X31880Y-25943D01*
X31881Y-25943D01*
X31895Y-25939D01*
X31909Y-25935D01*
X31910Y-25935D01*
X31911Y-25934D01*
X31924Y-25927D01*
X31937Y-25921D01*
X31937Y-25920D01*
X31938Y-25920D01*
X31950Y-25910D01*
X31961Y-25901D01*
X31962Y-25900D01*
X31962Y-25900D01*
X31962Y-25900D01*
X31963Y-25900D01*
X32546Y-25316D01*
X33595Y-25316D01*
X33650Y-25372D01*
X33599Y-25350D01*
X33512Y-25332D01*
X33423Y-25332D01*
X33335Y-25349D01*
X33252Y-25382D01*
X33178Y-25431D01*
X33114Y-25493D01*
X33064Y-25567D01*
X33029Y-25649D01*
X33010Y-25736D01*
X33009Y-25825D01*
X33025Y-25913D01*
X33058Y-25996D01*
X33106Y-26071D01*
X33168Y-26135D01*
X33241Y-26186D01*
X33323Y-26221D01*
X33410Y-26241D01*
X33499Y-26242D01*
X33587Y-26227D01*
X33670Y-26195D01*
X33745Y-26147D01*
X33810Y-26085D01*
X33861Y-26013D01*
X33898Y-25931D01*
X33908Y-25885D01*
X34003Y-25980D01*
X33983Y-25988D01*
X33944Y-26014D01*
X33911Y-26046D01*
X33884Y-26085D01*
X33866Y-26128D01*
X33856Y-26173D01*
X33231Y-26799D01*
X33196Y-26799D01*
X33150Y-26807D01*
X33107Y-26825D01*
X33068Y-26850D01*
X33035Y-26883D01*
X33008Y-26922D01*
X32990Y-26965D01*
X32980Y-27010D01*
X32980Y-27057D01*
X32988Y-27103D01*
X33005Y-27146D01*
X33030Y-27186D01*
X33063Y-27219D01*
X33101Y-27246D01*
X33144Y-27265D01*
X33190Y-27275D01*
X33236Y-27276D01*
X33282Y-27267D01*
X33326Y-27251D01*
X33365Y-27226D01*
X33399Y-27193D01*
X33426Y-27155D01*
X33445Y-27112D01*
X33455Y-27067D01*
X33456Y-27024D01*
X34047Y-26434D01*
X34066Y-26438D01*
X34112Y-26439D01*
X34158Y-26431D01*
X34177Y-26424D01*
X33903Y-26698D01*
X33893Y-26709D01*
X33884Y-26720D01*
X33883Y-26721D01*
X33883Y-26722D01*
X33876Y-26735D01*
X33869Y-26748D01*
X33868Y-26749D01*
X33868Y-26749D01*
X33864Y-26763D01*
X33859Y-26777D01*
X33859Y-26778D01*
X33859Y-26779D01*
X33857Y-26794D01*
X33856Y-26808D01*
X33856Y-26810D01*
X33856Y-26810D01*
X33856Y-26810D01*
X33856Y-26811D01*
X33856Y-28838D01*
X33857Y-28853D01*
X33859Y-28867D01*
X33859Y-28868D01*
X33859Y-28869D01*
X33863Y-28883D01*
X33867Y-28897D01*
X33868Y-28898D01*
X33868Y-28899D01*
X33875Y-28912D01*
X33882Y-28925D01*
X33882Y-28926D01*
X33882Y-28926D01*
X33892Y-28938D01*
X33895Y-28942D01*
X33895Y-28976D01*
X33903Y-29022D01*
X33920Y-29066D01*
X33946Y-29105D01*
X33978Y-29138D01*
X34017Y-29165D01*
X34059Y-29184D01*
X34105Y-29194D01*
X34152Y-29195D01*
X34198Y-29187D01*
X34241Y-29170D01*
X34281Y-29145D01*
X34315Y-29113D01*
X34341Y-29074D01*
X34360Y-29032D01*
X34371Y-28986D01*
X34372Y-28933D01*
X34362Y-28887D01*
X34345Y-28844D01*
X34319Y-28805D01*
X34286Y-28772D01*
X34247Y-28746D01*
X34204Y-28728D01*
X34175Y-28722D01*
X34175Y-26877D01*
X34472Y-26579D01*
X34482Y-26567D01*
X34491Y-26556D01*
X34492Y-26555D01*
X34492Y-26555D01*
X34499Y-26542D01*
X34506Y-26529D01*
X34507Y-26528D01*
X34507Y-26527D01*
X34511Y-26513D01*
X34516Y-26499D01*
X34516Y-26498D01*
X34516Y-26498D01*
X34518Y-26483D01*
X34519Y-26468D01*
X34519Y-26467D01*
X34519Y-26467D01*
X34519Y-26467D01*
X34519Y-26466D01*
X34519Y-26112D01*
X34518Y-26097D01*
X34516Y-26082D01*
X34516Y-26082D01*
X34516Y-26081D01*
X34512Y-26067D01*
X34508Y-26052D01*
X34507Y-26052D01*
X34507Y-26051D01*
X34500Y-26038D01*
X34493Y-26025D01*
X34493Y-26024D01*
X34493Y-26023D01*
X34483Y-26012D01*
X34474Y-26001D01*
X34473Y-25999D01*
X34473Y-25999D01*
X34473Y-25999D01*
X34472Y-25999D01*
X34272Y-25798D01*
X34398Y-25798D01*
X34431Y-25766D01*
X34431Y-25450D01*
X34423Y-25450D01*
X34423Y-25444D01*
X34755Y-25444D01*
X34755Y-25414D01*
X34782Y-25414D01*
X34814Y-25382D01*
X34814Y-25183D01*
X34809Y-25158D01*
X34800Y-25135D01*
X34785Y-25114D01*
X34768Y-25096D01*
X34755Y-25087D01*
X34755Y-24975D01*
X34779Y-24959D01*
X34800Y-24938D01*
X34817Y-24914D01*
X34828Y-24887D01*
X34834Y-24858D01*
X34834Y-24829D01*
X34834Y-24805D01*
X36334Y-24805D01*
X37183Y-25653D01*
X37183Y-27066D01*
X37159Y-27090D01*
X37132Y-27128D01*
X37114Y-27171D01*
X37104Y-27217D01*
X37104Y-27264D01*
X37112Y-27310D01*
X37129Y-27353D01*
X37154Y-27392D01*
X37187Y-27426D01*
X37225Y-27453D01*
X37268Y-27471D01*
X37314Y-27481D01*
X37360Y-27482D01*
X37406Y-27474D01*
X37450Y-27457D01*
X37489Y-27432D01*
X37523Y-27400D01*
X37550Y-27362D01*
X37569Y-27319D01*
X37579Y-27274D01*
X37580Y-27220D01*
X37571Y-27174D01*
X37553Y-27131D01*
X37527Y-27092D01*
X37501Y-27066D01*
X37501Y-25721D01*
X37803Y-26023D01*
X37803Y-27795D01*
X37803Y-29547D01*
X37585Y-29765D01*
X37585Y-28711D01*
X37585Y-28374D01*
X37576Y-28329D01*
X37517Y-28150D01*
X37424Y-27986D01*
X37301Y-27843D01*
X37152Y-27727D01*
X36984Y-27642D01*
X36802Y-27591D01*
X36651Y-27609D01*
X36651Y-28525D01*
X37567Y-28525D01*
X37585Y-28374D01*
X37585Y-28711D01*
X37567Y-28561D01*
X36651Y-28561D01*
X36651Y-29477D01*
X36802Y-29495D01*
X36984Y-29444D01*
X37152Y-29358D01*
X37301Y-29242D01*
X37424Y-29099D01*
X37517Y-28935D01*
X37576Y-28756D01*
X37585Y-28711D01*
X37585Y-29765D01*
X37421Y-29929D01*
X36622Y-29929D01*
X36616Y-29925D01*
X36616Y-29477D01*
X36616Y-28561D01*
X36616Y-28525D01*
X36616Y-27609D01*
X36465Y-27591D01*
X36379Y-27615D01*
X36379Y-25704D01*
X36370Y-25659D01*
X36353Y-25615D01*
X36327Y-25577D01*
X36301Y-25550D01*
X36301Y-25374D01*
X36299Y-25359D01*
X36298Y-25344D01*
X36298Y-25343D01*
X36298Y-25343D01*
X36293Y-25328D01*
X36289Y-25314D01*
X36289Y-25314D01*
X36289Y-25313D01*
X36282Y-25300D01*
X36275Y-25287D01*
X36274Y-25286D01*
X36274Y-25285D01*
X36265Y-25274D01*
X36256Y-25262D01*
X36254Y-25261D01*
X36254Y-25261D01*
X36254Y-25261D01*
X36254Y-25261D01*
X36037Y-25044D01*
X36026Y-25035D01*
X36015Y-25025D01*
X36014Y-25025D01*
X36013Y-25024D01*
X36000Y-25018D01*
X35988Y-25010D01*
X35987Y-25010D01*
X35986Y-25010D01*
X35972Y-25005D01*
X35958Y-25001D01*
X35957Y-25001D01*
X35956Y-25001D01*
X35942Y-24999D01*
X35927Y-24998D01*
X35925Y-24998D01*
X35925Y-24998D01*
X35925Y-24998D01*
X35925Y-24998D01*
X35649Y-24998D01*
X35625Y-24973D01*
X35586Y-24946D01*
X35543Y-24928D01*
X35497Y-24919D01*
X35450Y-24919D01*
X35404Y-24927D01*
X35361Y-24945D01*
X35322Y-24970D01*
X35289Y-25003D01*
X35262Y-25042D01*
X35244Y-25085D01*
X35234Y-25130D01*
X35233Y-25177D01*
X35242Y-25223D01*
X35259Y-25266D01*
X35284Y-25306D01*
X35307Y-25329D01*
X35253Y-25345D01*
X35171Y-25389D01*
X35167Y-25391D01*
X35131Y-25461D01*
X35433Y-25762D01*
X35734Y-25461D01*
X35698Y-25391D01*
X35617Y-25347D01*
X35619Y-25346D01*
X35650Y-25316D01*
X35859Y-25316D01*
X35982Y-25440D01*
X35982Y-25551D01*
X35958Y-25574D01*
X35931Y-25613D01*
X35913Y-25655D01*
X35903Y-25701D01*
X35903Y-25723D01*
X35901Y-25697D01*
X35874Y-25607D01*
X35831Y-25525D01*
X35828Y-25521D01*
X35759Y-25486D01*
X35458Y-25787D01*
X35463Y-25792D01*
X35438Y-25818D01*
X35433Y-25812D01*
X35408Y-25837D01*
X35408Y-25787D01*
X35106Y-25486D01*
X35037Y-25521D01*
X34993Y-25603D01*
X34965Y-25692D01*
X34956Y-25785D01*
X34965Y-25877D01*
X34991Y-25966D01*
X35034Y-26049D01*
X35037Y-26053D01*
X35106Y-26088D01*
X35408Y-25787D01*
X35408Y-25837D01*
X35131Y-26113D01*
X35167Y-26183D01*
X35249Y-26227D01*
X35287Y-26238D01*
X34814Y-26711D01*
X34814Y-25681D01*
X34814Y-25482D01*
X34782Y-25450D01*
X34466Y-25450D01*
X34466Y-25766D01*
X34499Y-25798D01*
X34672Y-25798D01*
X34698Y-25798D01*
X34723Y-25793D01*
X34746Y-25783D01*
X34768Y-25769D01*
X34785Y-25751D01*
X34800Y-25729D01*
X34809Y-25706D01*
X34814Y-25681D01*
X34814Y-26711D01*
X34710Y-26816D01*
X34700Y-26827D01*
X34691Y-26839D01*
X34690Y-26839D01*
X34690Y-26840D01*
X34683Y-26853D01*
X34676Y-26866D01*
X34676Y-26867D01*
X34675Y-26867D01*
X34671Y-26881D01*
X34666Y-26895D01*
X34666Y-26896D01*
X34666Y-26897D01*
X34665Y-26912D01*
X34663Y-26926D01*
X34663Y-26928D01*
X34663Y-26928D01*
X34663Y-26928D01*
X34663Y-26929D01*
X34663Y-27913D01*
X34639Y-27936D01*
X34613Y-27975D01*
X34594Y-28018D01*
X34584Y-28063D01*
X34584Y-28110D01*
X34592Y-28156D01*
X34609Y-28199D01*
X34635Y-28239D01*
X34667Y-28272D01*
X34706Y-28299D01*
X34748Y-28318D01*
X34794Y-28328D01*
X34831Y-28328D01*
X34776Y-28383D01*
X34742Y-28383D01*
X34696Y-28392D01*
X34652Y-28409D01*
X34613Y-28435D01*
X34580Y-28468D01*
X34554Y-28506D01*
X34535Y-28549D01*
X34525Y-28595D01*
X34525Y-28642D01*
X34533Y-28688D01*
X34550Y-28731D01*
X34576Y-28770D01*
X34608Y-28804D01*
X34647Y-28830D01*
X34689Y-28849D01*
X34735Y-28859D01*
X34782Y-28860D01*
X34828Y-28852D01*
X34871Y-28835D01*
X34911Y-28810D01*
X34944Y-28778D01*
X34971Y-28740D01*
X34990Y-28697D01*
X35001Y-28652D01*
X35001Y-28609D01*
X35211Y-28400D01*
X35220Y-28388D01*
X35227Y-28379D01*
X35238Y-28390D01*
X35276Y-28417D01*
X35319Y-28436D01*
X35365Y-28446D01*
X35412Y-28447D01*
X35458Y-28439D01*
X35501Y-28422D01*
X35541Y-28397D01*
X35574Y-28365D01*
X35601Y-28326D01*
X35620Y-28284D01*
X35631Y-28238D01*
X35631Y-28185D01*
X35622Y-28139D01*
X35605Y-28096D01*
X35579Y-28057D01*
X35553Y-28031D01*
X35553Y-27566D01*
X35814Y-27304D01*
X35845Y-27305D01*
X35891Y-27297D01*
X35934Y-27280D01*
X35974Y-27255D01*
X36007Y-27223D01*
X36034Y-27185D01*
X36053Y-27142D01*
X36064Y-27096D01*
X36064Y-27043D01*
X36055Y-26997D01*
X36038Y-26954D01*
X36012Y-26915D01*
X35979Y-26882D01*
X35940Y-26856D01*
X35897Y-26838D01*
X35851Y-26828D01*
X35805Y-26828D01*
X35759Y-26837D01*
X35715Y-26854D01*
X35676Y-26880D01*
X35643Y-26913D01*
X35617Y-26951D01*
X35598Y-26994D01*
X35588Y-27040D01*
X35588Y-27079D01*
X35280Y-27387D01*
X35271Y-27398D01*
X35262Y-27409D01*
X35261Y-27410D01*
X35261Y-27411D01*
X35257Y-27417D01*
X35257Y-27231D01*
X35754Y-26734D01*
X35769Y-26744D01*
X35811Y-26763D01*
X35857Y-26773D01*
X35904Y-26774D01*
X35950Y-26765D01*
X35993Y-26749D01*
X36033Y-26724D01*
X36067Y-26691D01*
X36093Y-26653D01*
X36112Y-26610D01*
X36123Y-26565D01*
X36124Y-26512D01*
X36114Y-26466D01*
X36097Y-26423D01*
X36071Y-26384D01*
X36045Y-26358D01*
X36067Y-26337D01*
X36093Y-26299D01*
X36112Y-26256D01*
X36123Y-26211D01*
X36124Y-26157D01*
X36114Y-26111D01*
X36097Y-26068D01*
X36071Y-26029D01*
X36038Y-25996D01*
X35999Y-25970D01*
X35956Y-25952D01*
X35910Y-25943D01*
X35881Y-25942D01*
X35900Y-25882D01*
X35909Y-25789D01*
X35908Y-25778D01*
X35911Y-25794D01*
X35928Y-25837D01*
X35954Y-25877D01*
X35986Y-25910D01*
X36024Y-25937D01*
X36067Y-25955D01*
X36113Y-25966D01*
X36160Y-25966D01*
X36206Y-25958D01*
X36249Y-25941D01*
X36289Y-25916D01*
X36322Y-25884D01*
X36349Y-25846D01*
X36368Y-25803D01*
X36379Y-25758D01*
X36379Y-25704D01*
X36379Y-27615D01*
X36283Y-27642D01*
X36115Y-27727D01*
X35966Y-27843D01*
X35843Y-27986D01*
X35750Y-28150D01*
X35691Y-28329D01*
X35682Y-28374D01*
X35699Y-28525D01*
X36616Y-28525D01*
X36616Y-28561D01*
X35699Y-28561D01*
X35682Y-28711D01*
X35691Y-28756D01*
X35750Y-28935D01*
X35843Y-29099D01*
X35966Y-29242D01*
X36115Y-29358D01*
X36283Y-29444D01*
X36465Y-29495D01*
X36616Y-29477D01*
X36616Y-29925D01*
X36590Y-29907D01*
X36547Y-29889D01*
X36501Y-29880D01*
X36454Y-29879D01*
X36408Y-29888D01*
X36365Y-29906D01*
X36326Y-29931D01*
X36293Y-29964D01*
X36266Y-30002D01*
X36248Y-30045D01*
X36238Y-30091D01*
X36237Y-30138D01*
X36246Y-30184D01*
X36263Y-30227D01*
X36288Y-30266D01*
X36321Y-30300D01*
X36359Y-30327D01*
X36402Y-30345D01*
X36448Y-30355D01*
X36494Y-30356D01*
X36540Y-30348D01*
X36584Y-30331D01*
X36623Y-30307D01*
X37500Y-30307D01*
X37517Y-30305D01*
X37534Y-30303D01*
X37535Y-30303D01*
X37536Y-30303D01*
X37553Y-30298D01*
X37570Y-30293D01*
X37571Y-30293D01*
X37572Y-30292D01*
X37587Y-30284D01*
X37602Y-30276D01*
X37603Y-30275D01*
X37604Y-30275D01*
X37618Y-30264D01*
X37631Y-30253D01*
X37633Y-30252D01*
X37633Y-30252D01*
X37633Y-30252D01*
X37633Y-30251D01*
X38125Y-29759D01*
X38136Y-29746D01*
X38148Y-29732D01*
X38148Y-29731D01*
X38149Y-29731D01*
X38157Y-29715D01*
X38165Y-29700D01*
X38166Y-29699D01*
X38166Y-29698D01*
X38171Y-29681D01*
X38176Y-29665D01*
X38177Y-29664D01*
X38177Y-29663D01*
X38179Y-29646D01*
X38181Y-29628D01*
X38181Y-29626D01*
X38181Y-29626D01*
X38181Y-29626D01*
X38181Y-29625D01*
X38181Y-27984D01*
X38181Y-27984D01*
X38210Y-28004D01*
X38252Y-28022D01*
X38298Y-28032D01*
X38345Y-28033D01*
X38391Y-28025D01*
X38434Y-28008D01*
X38474Y-27983D01*
X38507Y-27951D01*
X38534Y-27913D01*
X38553Y-27870D01*
X38564Y-27825D01*
X38564Y-27771D01*
X38555Y-27726D01*
X38538Y-27682D01*
X38512Y-27644D01*
X38479Y-27610D01*
X38440Y-27584D01*
X38397Y-27566D01*
X38351Y-27557D01*
X38305Y-27556D01*
X38259Y-27565D01*
X38215Y-27583D01*
X38181Y-27605D01*
X38181Y-25944D01*
X38179Y-25927D01*
X38177Y-25910D01*
X38177Y-25909D01*
X38177Y-25908D01*
X38172Y-25891D01*
X38167Y-25874D01*
X38167Y-25873D01*
X38166Y-25872D01*
X38158Y-25857D01*
X38150Y-25841D01*
X38149Y-25841D01*
X38149Y-25840D01*
X38138Y-25826D01*
X38127Y-25813D01*
X38126Y-25811D01*
X38126Y-25811D01*
X38126Y-25811D01*
X38125Y-25811D01*
X36619Y-24305D01*
X36606Y-24294D01*
X36592Y-24283D01*
X36592Y-24282D01*
X36591Y-24281D01*
X36575Y-24273D01*
X36560Y-24265D01*
X36559Y-24264D01*
X36558Y-24264D01*
X36542Y-24259D01*
X36525Y-24254D01*
X36524Y-24254D01*
X36523Y-24253D01*
X36506Y-24251D01*
X36488Y-24250D01*
X36486Y-24250D01*
X36486Y-24250D01*
X36486Y-24250D01*
X36486Y-24250D01*
X36348Y-24250D01*
X36356Y-24244D01*
X36374Y-24226D01*
X36388Y-24205D01*
X36398Y-24182D01*
X36403Y-24157D01*
X36403Y-24131D01*
X36403Y-23505D01*
X36403Y-23480D01*
X36398Y-23455D01*
X36388Y-23432D01*
X36374Y-23410D01*
X36356Y-23392D01*
X36334Y-23378D01*
X36311Y-23369D01*
X36286Y-23364D01*
X35999Y-23364D01*
X35966Y-23396D01*
X35966Y-23801D01*
X36371Y-23801D01*
X36403Y-23768D01*
X36403Y-23505D01*
X36403Y-24131D01*
X36403Y-23869D01*
X36371Y-23836D01*
X35966Y-23836D01*
X35966Y-23844D01*
X35931Y-23844D01*
X35931Y-23836D01*
X35931Y-23801D01*
X35931Y-23396D01*
X35898Y-23364D01*
X35611Y-23364D01*
X35586Y-23369D01*
X35562Y-23378D01*
X35541Y-23392D01*
X35523Y-23410D01*
X35509Y-23432D01*
X35499Y-23455D01*
X35494Y-23480D01*
X35494Y-23505D01*
X35494Y-23768D01*
X35526Y-23801D01*
X35931Y-23801D01*
X35931Y-23836D01*
X35526Y-23836D01*
X35494Y-23869D01*
X35494Y-24131D01*
X35494Y-24157D01*
X35499Y-24182D01*
X35509Y-24205D01*
X35518Y-24220D01*
X35474Y-24176D01*
X35480Y-24158D01*
X35484Y-24115D01*
X35484Y-23561D01*
X35480Y-23518D01*
X35467Y-23475D01*
X35445Y-23436D01*
X35417Y-23401D01*
X35382Y-23373D01*
X35343Y-23351D01*
X35300Y-23338D01*
X35257Y-23334D01*
X32636Y-23334D01*
X32593Y-23338D01*
X32550Y-23351D01*
X32510Y-23373D01*
X32476Y-23401D01*
X32447Y-23436D01*
X32426Y-23475D01*
X32413Y-23518D01*
X32409Y-23561D01*
X32409Y-24115D01*
X32413Y-24158D01*
X32426Y-24201D01*
X32447Y-24241D01*
X32476Y-24275D01*
X32510Y-24304D01*
X32550Y-24325D01*
X32593Y-24338D01*
X32636Y-24342D01*
X34065Y-24342D01*
X34063Y-24354D01*
X34063Y-24384D01*
X34063Y-24857D01*
X34068Y-24886D01*
X34080Y-24913D01*
X34096Y-24937D01*
X34116Y-24958D01*
X34141Y-24974D01*
X34141Y-24975D01*
X34141Y-25087D01*
X34129Y-25096D01*
X34111Y-25114D01*
X34097Y-25135D01*
X34087Y-25158D01*
X34082Y-25183D01*
X34082Y-25353D01*
X33774Y-25044D01*
X33762Y-25035D01*
X33751Y-25025D01*
X33750Y-25025D01*
X33750Y-25024D01*
X33738Y-25018D01*
X33751Y-25000D01*
X33770Y-24957D01*
X33780Y-24911D01*
X33781Y-24858D01*
X33772Y-24812D01*
X33754Y-24769D01*
X33728Y-24730D01*
X33695Y-24697D01*
X33657Y-24671D01*
X33614Y-24653D01*
X33568Y-24643D01*
X33521Y-24643D01*
X33475Y-24652D01*
X33432Y-24669D01*
X33397Y-24692D01*
X32440Y-24692D01*
X32423Y-24694D01*
X32406Y-24696D01*
X32405Y-24696D01*
X32404Y-24696D01*
X32387Y-24701D01*
X32370Y-24706D01*
X32369Y-24706D01*
X32368Y-24707D01*
X32353Y-24715D01*
X32338Y-24723D01*
X32337Y-24724D01*
X32336Y-24724D01*
X32322Y-24735D01*
X32309Y-24746D01*
X32307Y-24747D01*
X32307Y-24747D01*
X32307Y-24747D01*
X32307Y-24748D01*
X31929Y-25125D01*
X31196Y-25125D01*
X31338Y-25070D01*
X31497Y-24970D01*
X31633Y-24840D01*
X31741Y-24687D01*
X31817Y-24516D01*
X31859Y-24333D01*
X31862Y-24118D01*
X31853Y-24074D01*
X31857Y-24060D01*
X31862Y-24017D01*
X31862Y-23325D01*
X31857Y-23282D01*
X31857Y-23279D01*
X37040Y-23279D01*
X37039Y-23282D01*
X37035Y-23325D01*
X37035Y-24017D01*
X37039Y-24060D01*
X37043Y-24073D01*
X37036Y-24105D01*
X37034Y-24293D01*
X37068Y-24477D01*
X37137Y-24652D01*
X37238Y-24809D01*
X37369Y-24944D01*
X37523Y-25051D01*
X37695Y-25126D01*
X37878Y-25167D01*
X38065Y-25171D01*
X38128Y-25160D01*
X38144Y-25165D01*
X38187Y-25169D01*
X38879Y-25169D01*
X38922Y-25165D01*
X38925Y-25164D01*
X38925Y-30347D01*
X38925Y-30347D01*
G37*
G54D24*
X38925Y-30347D02*
X38922Y-30346D01*
X38879Y-30342D01*
X38187Y-30342D01*
X38144Y-30346D01*
X38130Y-30350D01*
X38092Y-30343D01*
X37904Y-30341D01*
X37720Y-30377D01*
X37546Y-30447D01*
X37389Y-30550D01*
X37255Y-30681D01*
X37149Y-30836D01*
X37075Y-31008D01*
X37036Y-31192D01*
X37034Y-31379D01*
X37044Y-31435D01*
X37039Y-31451D01*
X37035Y-31494D01*
X37035Y-32186D01*
X37039Y-32229D01*
X37040Y-32232D01*
X35887Y-32232D01*
X35887Y-31451D01*
X35870Y-31363D01*
X35836Y-31281D01*
X35787Y-31207D01*
X35724Y-31143D01*
X35650Y-31094D01*
X35568Y-31059D01*
X35480Y-31041D01*
X35391Y-31041D01*
X35304Y-31057D01*
X35221Y-31091D01*
X35146Y-31139D01*
X35083Y-31202D01*
X35032Y-31275D01*
X34997Y-31357D01*
X34978Y-31445D01*
X34977Y-31534D01*
X34993Y-31622D01*
X35026Y-31704D01*
X35074Y-31779D01*
X35136Y-31844D01*
X35210Y-31894D01*
X35291Y-31930D01*
X35378Y-31949D01*
X35468Y-31951D01*
X35555Y-31936D01*
X35639Y-31903D01*
X35714Y-31856D01*
X35778Y-31794D01*
X35830Y-31721D01*
X35866Y-31640D01*
X35886Y-31553D01*
X35887Y-31451D01*
X35887Y-32232D01*
X34925Y-32232D01*
X34925Y-31498D01*
X34916Y-31405D01*
X34890Y-31316D01*
X34847Y-31234D01*
X34844Y-31230D01*
X34775Y-31194D01*
X34750Y-31219D01*
X34750Y-31169D01*
X34714Y-31100D01*
X34632Y-31056D01*
X34543Y-31028D01*
X34451Y-31019D01*
X34358Y-31028D01*
X34269Y-31054D01*
X34186Y-31097D01*
X34183Y-31100D01*
X34147Y-31169D01*
X34448Y-31471D01*
X34750Y-31169D01*
X34750Y-31219D01*
X34473Y-31496D01*
X34775Y-31797D01*
X34844Y-31761D01*
X34888Y-31679D01*
X34916Y-31590D01*
X34925Y-31498D01*
X34925Y-32232D01*
X34750Y-32232D01*
X34750Y-31822D01*
X34448Y-31521D01*
X34423Y-31546D01*
X34423Y-31496D01*
X34122Y-31194D01*
X34053Y-31230D01*
X34008Y-31312D01*
X33981Y-31401D01*
X33972Y-31493D01*
X33980Y-31586D01*
X34007Y-31675D01*
X34050Y-31757D01*
X34053Y-31761D01*
X34122Y-31797D01*
X34423Y-31496D01*
X34423Y-31546D01*
X34147Y-31822D01*
X34183Y-31891D01*
X34265Y-31935D01*
X34354Y-31963D01*
X34446Y-31972D01*
X34539Y-31964D01*
X34628Y-31937D01*
X34710Y-31894D01*
X34714Y-31891D01*
X34750Y-31822D01*
X34750Y-32232D01*
X33919Y-32232D01*
X33919Y-31451D01*
X33901Y-31363D01*
X33868Y-31281D01*
X33818Y-31207D01*
X33755Y-31143D01*
X33681Y-31094D01*
X33599Y-31059D01*
X33512Y-31041D01*
X33423Y-31041D01*
X33335Y-31057D01*
X33252Y-31091D01*
X33215Y-31115D01*
X33215Y-28711D01*
X33197Y-28561D01*
X32281Y-28561D01*
X32281Y-29477D01*
X32432Y-29495D01*
X32614Y-29444D01*
X32782Y-29358D01*
X32930Y-29242D01*
X33054Y-29099D01*
X33147Y-28935D01*
X33206Y-28756D01*
X33215Y-28711D01*
X33215Y-31115D01*
X33178Y-31139D01*
X33114Y-31202D01*
X33064Y-31275D01*
X33029Y-31357D01*
X33010Y-31445D01*
X33009Y-31534D01*
X33025Y-31622D01*
X33058Y-31704D01*
X33106Y-31779D01*
X33168Y-31844D01*
X33241Y-31894D01*
X33323Y-31930D01*
X33410Y-31949D01*
X33499Y-31951D01*
X33587Y-31936D01*
X33670Y-31903D01*
X33745Y-31856D01*
X33810Y-31794D01*
X33861Y-31721D01*
X33898Y-31640D01*
X33917Y-31553D01*
X33919Y-31451D01*
X33919Y-32232D01*
X32246Y-32232D01*
X32246Y-29477D01*
X32246Y-28561D01*
X31329Y-28561D01*
X31312Y-28711D01*
X31321Y-28756D01*
X31380Y-28935D01*
X31473Y-29099D01*
X31596Y-29242D01*
X31745Y-29358D01*
X31913Y-29444D01*
X32095Y-29495D01*
X32246Y-29477D01*
X32246Y-32232D01*
X31862Y-32232D01*
X31862Y-31267D01*
X31861Y-31267D01*
X31862Y-31205D01*
X31825Y-31021D01*
X31754Y-30847D01*
X31650Y-30691D01*
X31518Y-30558D01*
X31362Y-30453D01*
X31189Y-30380D01*
X31005Y-30343D01*
X30937Y-30342D01*
X30937Y-30342D01*
X30914Y-30342D01*
X30818Y-30341D01*
X30814Y-30342D01*
X30632Y-30342D01*
X29972Y-30342D01*
X29972Y-25164D01*
X29975Y-25165D01*
X30018Y-25169D01*
X30550Y-25169D01*
X30537Y-25179D01*
X30536Y-25180D01*
X30536Y-25180D01*
X30536Y-25180D01*
X30535Y-25181D01*
X30354Y-25362D01*
X29988Y-25362D01*
X29988Y-27000D01*
X30258Y-27000D01*
X30244Y-27004D01*
X30180Y-27038D01*
X30155Y-27098D01*
X30393Y-27337D01*
X30399Y-27331D01*
X30424Y-27356D01*
X30418Y-27362D01*
X30424Y-27367D01*
X30399Y-27392D01*
X30393Y-27387D01*
X30368Y-27412D01*
X30368Y-27362D01*
X30130Y-27123D01*
X30069Y-27148D01*
X30034Y-27215D01*
X30013Y-27288D01*
X30006Y-27363D01*
X30013Y-27438D01*
X30035Y-27511D01*
X30069Y-27575D01*
X30130Y-27600D01*
X30368Y-27362D01*
X30368Y-27412D01*
X30155Y-27625D01*
X30180Y-27685D01*
X30247Y-27721D01*
X30319Y-27742D01*
X30395Y-27749D01*
X30470Y-27742D01*
X30542Y-27720D01*
X30607Y-27685D01*
X30632Y-27625D01*
X30632Y-27625D01*
X30655Y-27648D01*
X30661Y-27642D01*
X30664Y-27653D01*
X30668Y-27667D01*
X30669Y-27668D01*
X30669Y-27669D01*
X30676Y-27682D01*
X30683Y-27695D01*
X30683Y-27695D01*
X30684Y-27696D01*
X30693Y-27707D01*
X30702Y-27719D01*
X30703Y-27720D01*
X30703Y-27720D01*
X30703Y-27720D01*
X30704Y-27721D01*
X30923Y-27939D01*
X30922Y-27953D01*
X30931Y-27999D01*
X30942Y-28027D01*
X30922Y-28035D01*
X30883Y-28061D01*
X30850Y-28094D01*
X30823Y-28132D01*
X30805Y-28175D01*
X30795Y-28221D01*
X30794Y-28268D01*
X30803Y-28314D01*
X30820Y-28357D01*
X30845Y-28396D01*
X30874Y-28425D01*
X30874Y-28681D01*
X30850Y-28704D01*
X30823Y-28742D01*
X30805Y-28785D01*
X30795Y-28831D01*
X30794Y-28878D01*
X30803Y-28924D01*
X30820Y-28967D01*
X30845Y-29006D01*
X30878Y-29040D01*
X30916Y-29067D01*
X30959Y-29085D01*
X31005Y-29095D01*
X31051Y-29096D01*
X31097Y-29088D01*
X31141Y-29071D01*
X31180Y-29046D01*
X31214Y-29014D01*
X31241Y-28976D01*
X31260Y-28933D01*
X31270Y-28888D01*
X31271Y-28834D01*
X31262Y-28789D01*
X31244Y-28745D01*
X31218Y-28706D01*
X31192Y-28680D01*
X31192Y-28425D01*
X31214Y-28404D01*
X31241Y-28366D01*
X31260Y-28323D01*
X31270Y-28278D01*
X31271Y-28224D01*
X31262Y-28178D01*
X31252Y-28153D01*
X31269Y-28146D01*
X31308Y-28121D01*
X31342Y-28089D01*
X31369Y-28051D01*
X31388Y-28008D01*
X31398Y-27963D01*
X31399Y-27909D01*
X31390Y-27863D01*
X31372Y-27820D01*
X31350Y-27787D01*
X31625Y-27787D01*
X31625Y-27698D01*
X31802Y-27698D01*
X31745Y-27727D01*
X31596Y-27843D01*
X31473Y-27986D01*
X31380Y-28150D01*
X31321Y-28329D01*
X31312Y-28374D01*
X31329Y-28525D01*
X32246Y-28525D01*
X32246Y-28517D01*
X32281Y-28517D01*
X32281Y-28525D01*
X33197Y-28525D01*
X33215Y-28374D01*
X33206Y-28329D01*
X33147Y-28150D01*
X33054Y-27986D01*
X32930Y-27843D01*
X32782Y-27727D01*
X32725Y-27698D01*
X33339Y-27698D01*
X33344Y-27703D01*
X33344Y-27736D01*
X33352Y-27782D01*
X33369Y-27825D01*
X33395Y-27865D01*
X33427Y-27898D01*
X33465Y-27925D01*
X33508Y-27944D01*
X33554Y-27954D01*
X33601Y-27955D01*
X33647Y-27947D01*
X33690Y-27930D01*
X33730Y-27905D01*
X33763Y-27872D01*
X33790Y-27834D01*
X33809Y-27792D01*
X33820Y-27746D01*
X33820Y-27693D01*
X33811Y-27647D01*
X33794Y-27604D01*
X33768Y-27565D01*
X33735Y-27532D01*
X33696Y-27505D01*
X33653Y-27487D01*
X33607Y-27478D01*
X33569Y-27478D01*
X33518Y-27426D01*
X33506Y-27417D01*
X33495Y-27407D01*
X33494Y-27407D01*
X33494Y-27406D01*
X33481Y-27399D01*
X33468Y-27392D01*
X33467Y-27392D01*
X33466Y-27392D01*
X33452Y-27387D01*
X33438Y-27383D01*
X33437Y-27383D01*
X33437Y-27383D01*
X33422Y-27381D01*
X33407Y-27379D01*
X33406Y-27379D01*
X33406Y-27379D01*
X33406Y-27379D01*
X33405Y-27379D01*
X31625Y-27379D01*
X31625Y-25946D01*
X31850Y-25946D01*
X31865Y-25945D01*
X31879Y-25944D01*
X31880Y-25943D01*
X31881Y-25943D01*
X31895Y-25939D01*
X31909Y-25935D01*
X31910Y-25935D01*
X31911Y-25934D01*
X31924Y-25927D01*
X31937Y-25921D01*
X31937Y-25920D01*
X31938Y-25920D01*
X31950Y-25910D01*
X31961Y-25901D01*
X31962Y-25900D01*
X31962Y-25900D01*
X31962Y-25900D01*
X31963Y-25900D01*
X32546Y-25316D01*
X33595Y-25316D01*
X33650Y-25372D01*
X33599Y-25350D01*
X33512Y-25332D01*
X33423Y-25332D01*
X33335Y-25349D01*
X33252Y-25382D01*
X33178Y-25431D01*
X33114Y-25493D01*
X33064Y-25567D01*
X33029Y-25649D01*
X33010Y-25736D01*
X33009Y-25825D01*
X33025Y-25913D01*
X33058Y-25996D01*
X33106Y-26071D01*
X33168Y-26135D01*
X33241Y-26186D01*
X33323Y-26221D01*
X33410Y-26241D01*
X33499Y-26242D01*
X33587Y-26227D01*
X33670Y-26195D01*
X33745Y-26147D01*
X33810Y-26085D01*
X33861Y-26013D01*
X33898Y-25931D01*
X33908Y-25885D01*
X34003Y-25980D01*
X33983Y-25988D01*
X33944Y-26014D01*
X33911Y-26046D01*
X33884Y-26085D01*
X33866Y-26128D01*
X33856Y-26173D01*
X33231Y-26799D01*
X33196Y-26799D01*
X33150Y-26807D01*
X33107Y-26825D01*
X33068Y-26850D01*
X33035Y-26883D01*
X33008Y-26922D01*
X32990Y-26965D01*
X32980Y-27010D01*
X32980Y-27057D01*
X32988Y-27103D01*
X33005Y-27146D01*
X33030Y-27186D01*
X33063Y-27219D01*
X33101Y-27246D01*
X33144Y-27265D01*
X33190Y-27275D01*
X33236Y-27276D01*
X33282Y-27267D01*
X33326Y-27251D01*
X33365Y-27226D01*
X33399Y-27193D01*
X33426Y-27155D01*
X33445Y-27112D01*
X33455Y-27067D01*
X33456Y-27024D01*
X34047Y-26434D01*
X34066Y-26438D01*
X34112Y-26439D01*
X34158Y-26431D01*
X34177Y-26424D01*
X33903Y-26698D01*
X33893Y-26709D01*
X33884Y-26720D01*
X33883Y-26721D01*
X33883Y-26722D01*
X33876Y-26735D01*
X33869Y-26748D01*
X33868Y-26749D01*
X33868Y-26749D01*
X33864Y-26763D01*
X33859Y-26777D01*
X33859Y-26778D01*
X33859Y-26779D01*
X33857Y-26794D01*
X33856Y-26808D01*
X33856Y-26810D01*
X33856Y-26810D01*
X33856Y-26810D01*
X33856Y-26811D01*
X33856Y-28838D01*
X33857Y-28853D01*
X33859Y-28867D01*
X33859Y-28868D01*
X33859Y-28869D01*
X33863Y-28883D01*
X33867Y-28897D01*
X33868Y-28898D01*
X33868Y-28899D01*
X33875Y-28912D01*
X33882Y-28925D01*
X33882Y-28926D01*
X33882Y-28926D01*
X33892Y-28938D01*
X33895Y-28942D01*
X33895Y-28976D01*
X33903Y-29022D01*
X33920Y-29066D01*
X33946Y-29105D01*
X33978Y-29138D01*
X34017Y-29165D01*
X34059Y-29184D01*
X34105Y-29194D01*
X34152Y-29195D01*
X34198Y-29187D01*
X34241Y-29170D01*
X34281Y-29145D01*
X34315Y-29113D01*
X34341Y-29074D01*
X34360Y-29032D01*
X34371Y-28986D01*
X34372Y-28933D01*
X34362Y-28887D01*
X34345Y-28844D01*
X34319Y-28805D01*
X34286Y-28772D01*
X34247Y-28746D01*
X34204Y-28728D01*
X34175Y-28722D01*
X34175Y-26877D01*
X34472Y-26579D01*
X34482Y-26567D01*
X34491Y-26556D01*
X34492Y-26555D01*
X34492Y-26555D01*
X34499Y-26542D01*
X34506Y-26529D01*
X34507Y-26528D01*
X34507Y-26527D01*
X34511Y-26513D01*
X34516Y-26499D01*
X34516Y-26498D01*
X34516Y-26498D01*
X34518Y-26483D01*
X34519Y-26468D01*
X34519Y-26467D01*
X34519Y-26467D01*
X34519Y-26467D01*
X34519Y-26466D01*
X34519Y-26112D01*
X34518Y-26097D01*
X34516Y-26082D01*
X34516Y-26082D01*
X34516Y-26081D01*
X34512Y-26067D01*
X34508Y-26052D01*
X34507Y-26052D01*
X34507Y-26051D01*
X34500Y-26038D01*
X34493Y-26025D01*
X34493Y-26024D01*
X34493Y-26023D01*
X34483Y-26012D01*
X34474Y-26001D01*
X34473Y-25999D01*
X34473Y-25999D01*
X34473Y-25999D01*
X34472Y-25999D01*
X34272Y-25798D01*
X34398Y-25798D01*
X34431Y-25766D01*
X34431Y-25450D01*
X34423Y-25450D01*
X34423Y-25444D01*
X34755Y-25444D01*
X34755Y-25414D01*
X34782Y-25414D01*
X34814Y-25382D01*
X34814Y-25183D01*
X34809Y-25158D01*
X34800Y-25135D01*
X34785Y-25114D01*
X34768Y-25096D01*
X34755Y-25087D01*
X34755Y-24975D01*
X34779Y-24959D01*
X34800Y-24938D01*
X34817Y-24914D01*
X34828Y-24887D01*
X34834Y-24858D01*
X34834Y-24829D01*
X34834Y-24805D01*
X36334Y-24805D01*
X37183Y-25653D01*
X37183Y-27066D01*
X37159Y-27090D01*
X37132Y-27128D01*
X37114Y-27171D01*
X37104Y-27217D01*
X37104Y-27264D01*
X37112Y-27310D01*
X37129Y-27353D01*
X37154Y-27392D01*
X37187Y-27426D01*
X37225Y-27453D01*
X37268Y-27471D01*
X37314Y-27481D01*
X37360Y-27482D01*
X37406Y-27474D01*
X37450Y-27457D01*
X37489Y-27432D01*
X37523Y-27400D01*
X37550Y-27362D01*
X37569Y-27319D01*
X37579Y-27274D01*
X37580Y-27220D01*
X37571Y-27174D01*
X37553Y-27131D01*
X37527Y-27092D01*
X37501Y-27066D01*
X37501Y-25721D01*
X37803Y-26023D01*
X37803Y-27795D01*
X37803Y-29547D01*
X37585Y-29765D01*
X37585Y-28711D01*
X37585Y-28374D01*
X37576Y-28329D01*
X37517Y-28150D01*
X37424Y-27986D01*
X37301Y-27843D01*
X37152Y-27727D01*
X36984Y-27642D01*
X36802Y-27591D01*
X36651Y-27609D01*
X36651Y-28525D01*
X37567Y-28525D01*
X37585Y-28374D01*
X37585Y-28711D01*
X37567Y-28561D01*
X36651Y-28561D01*
X36651Y-29477D01*
X36802Y-29495D01*
X36984Y-29444D01*
X37152Y-29358D01*
X37301Y-29242D01*
X37424Y-29099D01*
X37517Y-28935D01*
X37576Y-28756D01*
X37585Y-28711D01*
X37585Y-29765D01*
X37421Y-29929D01*
X36622Y-29929D01*
X36616Y-29925D01*
X36616Y-29477D01*
X36616Y-28561D01*
X36616Y-28525D01*
X36616Y-27609D01*
X36465Y-27591D01*
X36379Y-27615D01*
X36379Y-25704D01*
X36370Y-25659D01*
X36353Y-25615D01*
X36327Y-25577D01*
X36301Y-25550D01*
X36301Y-25374D01*
X36299Y-25359D01*
X36298Y-25344D01*
X36298Y-25343D01*
X36298Y-25343D01*
X36293Y-25328D01*
X36289Y-25314D01*
X36289Y-25314D01*
X36289Y-25313D01*
X36282Y-25300D01*
X36275Y-25287D01*
X36274Y-25286D01*
X36274Y-25285D01*
X36265Y-25274D01*
X36256Y-25262D01*
X36254Y-25261D01*
X36254Y-25261D01*
X36254Y-25261D01*
X36254Y-25261D01*
X36037Y-25044D01*
X36026Y-25035D01*
X36015Y-25025D01*
X36014Y-25025D01*
X36013Y-25024D01*
X36000Y-25018D01*
X35988Y-25010D01*
X35987Y-25010D01*
X35986Y-25010D01*
X35972Y-25005D01*
X35958Y-25001D01*
X35957Y-25001D01*
X35956Y-25001D01*
X35942Y-24999D01*
X35927Y-24998D01*
X35925Y-24998D01*
X35925Y-24998D01*
X35925Y-24998D01*
X35925Y-24998D01*
X35649Y-24998D01*
X35625Y-24973D01*
X35586Y-24946D01*
X35543Y-24928D01*
X35497Y-24919D01*
X35450Y-24919D01*
X35404Y-24927D01*
X35361Y-24945D01*
X35322Y-24970D01*
X35289Y-25003D01*
X35262Y-25042D01*
X35244Y-25085D01*
X35234Y-25130D01*
X35233Y-25177D01*
X35242Y-25223D01*
X35259Y-25266D01*
X35284Y-25306D01*
X35307Y-25329D01*
X35253Y-25345D01*
X35171Y-25389D01*
X35167Y-25391D01*
X35131Y-25461D01*
X35433Y-25762D01*
X35734Y-25461D01*
X35698Y-25391D01*
X35617Y-25347D01*
X35619Y-25346D01*
X35650Y-25316D01*
X35859Y-25316D01*
X35982Y-25440D01*
X35982Y-25551D01*
X35958Y-25574D01*
X35931Y-25613D01*
X35913Y-25655D01*
X35903Y-25701D01*
X35903Y-25723D01*
X35901Y-25697D01*
X35874Y-25607D01*
X35831Y-25525D01*
X35828Y-25521D01*
X35759Y-25486D01*
X35458Y-25787D01*
X35463Y-25792D01*
X35438Y-25818D01*
X35433Y-25812D01*
X35408Y-25837D01*
X35408Y-25787D01*
X35106Y-25486D01*
X35037Y-25521D01*
X34993Y-25603D01*
X34965Y-25692D01*
X34956Y-25785D01*
X34965Y-25877D01*
X34991Y-25966D01*
X35034Y-26049D01*
X35037Y-26053D01*
X35106Y-26088D01*
X35408Y-25787D01*
X35408Y-25837D01*
X35131Y-26113D01*
X35167Y-26183D01*
X35249Y-26227D01*
X35287Y-26238D01*
X34814Y-26711D01*
X34814Y-25681D01*
X34814Y-25482D01*
X34782Y-25450D01*
X34466Y-25450D01*
X34466Y-25766D01*
X34499Y-25798D01*
X34672Y-25798D01*
X34698Y-25798D01*
X34723Y-25793D01*
X34746Y-25783D01*
X34768Y-25769D01*
X34785Y-25751D01*
X34800Y-25729D01*
X34809Y-25706D01*
X34814Y-25681D01*
X34814Y-26711D01*
X34710Y-26816D01*
X34700Y-26827D01*
X34691Y-26839D01*
X34690Y-26839D01*
X34690Y-26840D01*
X34683Y-26853D01*
X34676Y-26866D01*
X34676Y-26867D01*
X34675Y-26867D01*
X34671Y-26881D01*
X34666Y-26895D01*
X34666Y-26896D01*
X34666Y-26897D01*
X34665Y-26912D01*
X34663Y-26926D01*
X34663Y-26928D01*
X34663Y-26928D01*
X34663Y-26928D01*
X34663Y-26929D01*
X34663Y-27913D01*
X34639Y-27936D01*
X34613Y-27975D01*
X34594Y-28018D01*
X34584Y-28063D01*
X34584Y-28110D01*
X34592Y-28156D01*
X34609Y-28199D01*
X34635Y-28239D01*
X34667Y-28272D01*
X34706Y-28299D01*
X34748Y-28318D01*
X34794Y-28328D01*
X34831Y-28328D01*
X34776Y-28383D01*
X34742Y-28383D01*
X34696Y-28392D01*
X34652Y-28409D01*
X34613Y-28435D01*
X34580Y-28468D01*
X34554Y-28506D01*
X34535Y-28549D01*
X34525Y-28595D01*
X34525Y-28642D01*
X34533Y-28688D01*
X34550Y-28731D01*
X34576Y-28770D01*
X34608Y-28804D01*
X34647Y-28830D01*
X34689Y-28849D01*
X34735Y-28859D01*
X34782Y-28860D01*
X34828Y-28852D01*
X34871Y-28835D01*
X34911Y-28810D01*
X34944Y-28778D01*
X34971Y-28740D01*
X34990Y-28697D01*
X35001Y-28652D01*
X35001Y-28609D01*
X35211Y-28400D01*
X35220Y-28388D01*
X35227Y-28379D01*
X35238Y-28390D01*
X35276Y-28417D01*
X35319Y-28436D01*
X35365Y-28446D01*
X35412Y-28447D01*
X35458Y-28439D01*
X35501Y-28422D01*
X35541Y-28397D01*
X35574Y-28365D01*
X35601Y-28326D01*
X35620Y-28284D01*
X35631Y-28238D01*
X35631Y-28185D01*
X35622Y-28139D01*
X35605Y-28096D01*
X35579Y-28057D01*
X35553Y-28031D01*
X35553Y-27566D01*
X35814Y-27304D01*
X35845Y-27305D01*
X35891Y-27297D01*
X35934Y-27280D01*
X35974Y-27255D01*
X36007Y-27223D01*
X36034Y-27185D01*
X36053Y-27142D01*
X36064Y-27096D01*
X36064Y-27043D01*
X36055Y-26997D01*
X36038Y-26954D01*
X36012Y-26915D01*
X35979Y-26882D01*
X35940Y-26856D01*
X35897Y-26838D01*
X35851Y-26828D01*
X35805Y-26828D01*
X35759Y-26837D01*
X35715Y-26854D01*
X35676Y-26880D01*
X35643Y-26913D01*
X35617Y-26951D01*
X35598Y-26994D01*
X35588Y-27040D01*
X35588Y-27079D01*
X35280Y-27387D01*
X35271Y-27398D01*
X35262Y-27409D01*
X35261Y-27410D01*
X35261Y-27411D01*
X35257Y-27417D01*
X35257Y-27231D01*
X35754Y-26734D01*
X35769Y-26744D01*
X35811Y-26763D01*
X35857Y-26773D01*
X35904Y-26774D01*
X35950Y-26765D01*
X35993Y-26749D01*
X36033Y-26724D01*
X36067Y-26691D01*
X36093Y-26653D01*
X36112Y-26610D01*
X36123Y-26565D01*
X36124Y-26512D01*
X36114Y-26466D01*
X36097Y-26423D01*
X36071Y-26384D01*
X36045Y-26358D01*
X36067Y-26337D01*
X36093Y-26299D01*
X36112Y-26256D01*
X36123Y-26211D01*
X36124Y-26157D01*
X36114Y-26111D01*
X36097Y-26068D01*
X36071Y-26029D01*
X36038Y-25996D01*
X35999Y-25970D01*
X35956Y-25952D01*
X35910Y-25943D01*
X35881Y-25942D01*
X35900Y-25882D01*
X35909Y-25789D01*
X35908Y-25778D01*
X35911Y-25794D01*
X35928Y-25837D01*
X35954Y-25877D01*
X35986Y-25910D01*
X36024Y-25937D01*
X36067Y-25955D01*
X36113Y-25966D01*
X36160Y-25966D01*
X36206Y-25958D01*
X36249Y-25941D01*
X36289Y-25916D01*
X36322Y-25884D01*
X36349Y-25846D01*
X36368Y-25803D01*
X36379Y-25758D01*
X36379Y-25704D01*
X36379Y-27615D01*
X36283Y-27642D01*
X36115Y-27727D01*
X35966Y-27843D01*
X35843Y-27986D01*
X35750Y-28150D01*
X35691Y-28329D01*
X35682Y-28374D01*
X35699Y-28525D01*
X36616Y-28525D01*
X36616Y-28561D01*
X35699Y-28561D01*
X35682Y-28711D01*
X35691Y-28756D01*
X35750Y-28935D01*
X35843Y-29099D01*
X35966Y-29242D01*
X36115Y-29358D01*
X36283Y-29444D01*
X36465Y-29495D01*
X36616Y-29477D01*
X36616Y-29925D01*
X36590Y-29907D01*
X36547Y-29889D01*
X36501Y-29880D01*
X36454Y-29879D01*
X36408Y-29888D01*
X36365Y-29906D01*
X36326Y-29931D01*
X36293Y-29964D01*
X36266Y-30002D01*
X36248Y-30045D01*
X36238Y-30091D01*
X36237Y-30138D01*
X36246Y-30184D01*
X36263Y-30227D01*
X36288Y-30266D01*
X36321Y-30300D01*
X36359Y-30327D01*
X36402Y-30345D01*
X36448Y-30355D01*
X36494Y-30356D01*
X36540Y-30348D01*
X36584Y-30331D01*
X36623Y-30307D01*
X37500Y-30307D01*
X37517Y-30305D01*
X37534Y-30303D01*
X37535Y-30303D01*
X37536Y-30303D01*
X37553Y-30298D01*
X37570Y-30293D01*
X37571Y-30293D01*
X37572Y-30292D01*
X37587Y-30284D01*
X37602Y-30276D01*
X37603Y-30275D01*
X37604Y-30275D01*
X37618Y-30264D01*
X37631Y-30253D01*
X37633Y-30252D01*
X37633Y-30252D01*
X37633Y-30252D01*
X37633Y-30251D01*
X38125Y-29759D01*
X38136Y-29746D01*
X38148Y-29732D01*
X38148Y-29731D01*
X38149Y-29731D01*
X38157Y-29715D01*
X38165Y-29700D01*
X38166Y-29699D01*
X38166Y-29698D01*
X38171Y-29681D01*
X38176Y-29665D01*
X38177Y-29664D01*
X38177Y-29663D01*
X38179Y-29646D01*
X38181Y-29628D01*
X38181Y-29626D01*
X38181Y-29626D01*
X38181Y-29626D01*
X38181Y-29625D01*
X38181Y-27984D01*
X38181Y-27984D01*
X38210Y-28004D01*
X38252Y-28022D01*
X38298Y-28032D01*
X38345Y-28033D01*
X38391Y-28025D01*
X38434Y-28008D01*
X38474Y-27983D01*
X38507Y-27951D01*
X38534Y-27913D01*
X38553Y-27870D01*
X38564Y-27825D01*
X38564Y-27771D01*
X38555Y-27726D01*
X38538Y-27682D01*
X38512Y-27644D01*
X38479Y-27610D01*
X38440Y-27584D01*
X38397Y-27566D01*
X38351Y-27557D01*
X38305Y-27556D01*
X38259Y-27565D01*
X38215Y-27583D01*
X38181Y-27605D01*
X38181Y-25944D01*
X38179Y-25927D01*
X38177Y-25910D01*
X38177Y-25909D01*
X38177Y-25908D01*
X38172Y-25891D01*
X38167Y-25874D01*
X38167Y-25873D01*
X38166Y-25872D01*
X38158Y-25857D01*
X38150Y-25841D01*
X38149Y-25841D01*
X38149Y-25840D01*
X38138Y-25826D01*
X38127Y-25813D01*
X38126Y-25811D01*
X38126Y-25811D01*
X38126Y-25811D01*
X38125Y-25811D01*
X36619Y-24305D01*
X36606Y-24294D01*
X36592Y-24283D01*
X36592Y-24282D01*
X36591Y-24281D01*
X36575Y-24273D01*
X36560Y-24265D01*
X36559Y-24264D01*
X36558Y-24264D01*
X36542Y-24259D01*
X36525Y-24254D01*
X36524Y-24254D01*
X36523Y-24253D01*
X36506Y-24251D01*
X36488Y-24250D01*
X36486Y-24250D01*
X36486Y-24250D01*
X36486Y-24250D01*
X36486Y-24250D01*
X36348Y-24250D01*
X36356Y-24244D01*
X36374Y-24226D01*
X36388Y-24205D01*
X36398Y-24182D01*
X36403Y-24157D01*
X36403Y-24131D01*
X36403Y-23505D01*
X36403Y-23480D01*
X36398Y-23455D01*
X36388Y-23432D01*
X36374Y-23410D01*
X36356Y-23392D01*
X36334Y-23378D01*
X36311Y-23369D01*
X36286Y-23364D01*
X35999Y-23364D01*
X35966Y-23396D01*
X35966Y-23801D01*
X36371Y-23801D01*
X36403Y-23768D01*
X36403Y-23505D01*
X36403Y-24131D01*
X36403Y-23869D01*
X36371Y-23836D01*
X35966Y-23836D01*
X35966Y-23844D01*
X35931Y-23844D01*
X35931Y-23836D01*
X35931Y-23801D01*
X35931Y-23396D01*
X35898Y-23364D01*
X35611Y-23364D01*
X35586Y-23369D01*
X35562Y-23378D01*
X35541Y-23392D01*
X35523Y-23410D01*
X35509Y-23432D01*
X35499Y-23455D01*
X35494Y-23480D01*
X35494Y-23505D01*
X35494Y-23768D01*
X35526Y-23801D01*
X35931Y-23801D01*
X35931Y-23836D01*
X35526Y-23836D01*
X35494Y-23869D01*
X35494Y-24131D01*
X35494Y-24157D01*
X35499Y-24182D01*
X35509Y-24205D01*
X35518Y-24220D01*
X35474Y-24176D01*
X35480Y-24158D01*
X35484Y-24115D01*
X35484Y-23561D01*
X35480Y-23518D01*
X35467Y-23475D01*
X35445Y-23436D01*
X35417Y-23401D01*
X35382Y-23373D01*
X35343Y-23351D01*
X35300Y-23338D01*
X35257Y-23334D01*
X32636Y-23334D01*
X32593Y-23338D01*
X32550Y-23351D01*
X32510Y-23373D01*
X32476Y-23401D01*
X32447Y-23436D01*
X32426Y-23475D01*
X32413Y-23518D01*
X32409Y-23561D01*
X32409Y-24115D01*
X32413Y-24158D01*
X32426Y-24201D01*
X32447Y-24241D01*
X32476Y-24275D01*
X32510Y-24304D01*
X32550Y-24325D01*
X32593Y-24338D01*
X32636Y-24342D01*
X34065Y-24342D01*
X34063Y-24354D01*
X34063Y-24384D01*
X34063Y-24857D01*
X34068Y-24886D01*
X34080Y-24913D01*
X34096Y-24937D01*
X34116Y-24958D01*
X34141Y-24974D01*
X34141Y-24975D01*
X34141Y-25087D01*
X34129Y-25096D01*
X34111Y-25114D01*
X34097Y-25135D01*
X34087Y-25158D01*
X34082Y-25183D01*
X34082Y-25353D01*
X33774Y-25044D01*
X33762Y-25035D01*
X33751Y-25025D01*
X33750Y-25025D01*
X33750Y-25024D01*
X33738Y-25018D01*
X33751Y-25000D01*
X33770Y-24957D01*
X33780Y-24911D01*
X33781Y-24858D01*
X33772Y-24812D01*
X33754Y-24769D01*
X33728Y-24730D01*
X33695Y-24697D01*
X33657Y-24671D01*
X33614Y-24653D01*
X33568Y-24643D01*
X33521Y-24643D01*
X33475Y-24652D01*
X33432Y-24669D01*
X33397Y-24692D01*
X32440Y-24692D01*
X32423Y-24694D01*
X32406Y-24696D01*
X32405Y-24696D01*
X32404Y-24696D01*
X32387Y-24701D01*
X32370Y-24706D01*
X32369Y-24706D01*
X32368Y-24707D01*
X32353Y-24715D01*
X32338Y-24723D01*
X32337Y-24724D01*
X32336Y-24724D01*
X32322Y-24735D01*
X32309Y-24746D01*
X32307Y-24747D01*
X32307Y-24747D01*
X32307Y-24747D01*
X32307Y-24748D01*
X31929Y-25125D01*
X31196Y-25125D01*
X31338Y-25070D01*
X31497Y-24970D01*
X31633Y-24840D01*
X31741Y-24687D01*
X31817Y-24516D01*
X31859Y-24333D01*
X31862Y-24118D01*
X31853Y-24074D01*
X31857Y-24060D01*
X31862Y-24017D01*
X31862Y-23325D01*
X31857Y-23282D01*
X31857Y-23279D01*
X37040Y-23279D01*
X37039Y-23282D01*
X37035Y-23325D01*
X37035Y-24017D01*
X37039Y-24060D01*
X37043Y-24073D01*
X37036Y-24105D01*
X37034Y-24293D01*
X37068Y-24477D01*
X37137Y-24652D01*
X37238Y-24809D01*
X37369Y-24944D01*
X37523Y-25051D01*
X37695Y-25126D01*
X37878Y-25167D01*
X38065Y-25171D01*
X38128Y-25160D01*
X38144Y-25165D01*
X38187Y-25169D01*
X38879Y-25169D01*
X38922Y-25165D01*
X38925Y-25164D01*
X38925Y-30347D01*
G54D10*
G36*
X48964Y-20308D02*
X48961Y-20307D01*
X48918Y-20303D01*
X48226Y-20303D01*
X48183Y-20307D01*
X48169Y-20311D01*
X48131Y-20303D01*
X47944Y-20302D01*
X47760Y-20337D01*
X47586Y-20407D01*
X47429Y-20510D01*
X47295Y-20641D01*
X47189Y-20796D01*
X47115Y-20969D01*
X47076Y-21152D01*
X47073Y-21340D01*
X47083Y-21396D01*
X47079Y-21412D01*
X47074Y-21455D01*
X47074Y-22147D01*
X47079Y-22190D01*
X47079Y-22192D01*
X45927Y-22192D01*
X45927Y-21412D01*
X45909Y-21324D01*
X45875Y-21242D01*
X45826Y-21167D01*
X45763Y-21104D01*
X45689Y-21054D01*
X45607Y-21020D01*
X45520Y-21002D01*
X45431Y-21001D01*
X45343Y-21018D01*
X45260Y-21051D01*
X45186Y-21100D01*
X45122Y-21162D01*
X45072Y-21236D01*
X45036Y-21318D01*
X45018Y-21405D01*
X45017Y-21494D01*
X45033Y-21582D01*
X45066Y-21665D01*
X45114Y-21740D01*
X45176Y-21804D01*
X45249Y-21855D01*
X45331Y-21891D01*
X45418Y-21910D01*
X45507Y-21912D01*
X45595Y-21896D01*
X45678Y-21864D01*
X45753Y-21816D01*
X45818Y-21755D01*
X45869Y-21682D01*
X45906Y-21600D01*
X45925Y-21513D01*
X45927Y-21412D01*
X45927Y-22192D01*
X44964Y-22192D01*
X44964Y-21458D01*
X44956Y-21366D01*
X44929Y-21277D01*
X44886Y-21194D01*
X44883Y-21191D01*
X44814Y-21155D01*
X44789Y-21180D01*
X44789Y-21130D01*
X44753Y-21060D01*
X44671Y-21016D01*
X44582Y-20989D01*
X44490Y-20979D01*
X44397Y-20988D01*
X44308Y-21015D01*
X44226Y-21058D01*
X44222Y-21060D01*
X44186Y-21130D01*
X44488Y-21431D01*
X44789Y-21130D01*
X44789Y-21180D01*
X44513Y-21456D01*
X44814Y-21758D01*
X44883Y-21722D01*
X44928Y-21640D01*
X44955Y-21551D01*
X44964Y-21458D01*
X44964Y-22192D01*
X44789Y-22192D01*
X44789Y-21783D01*
X44488Y-21481D01*
X44463Y-21506D01*
X44463Y-21456D01*
X44161Y-21155D01*
X44092Y-21191D01*
X44048Y-21272D01*
X44021Y-21361D01*
X44011Y-21454D01*
X44020Y-21547D01*
X44046Y-21636D01*
X44089Y-21718D01*
X44092Y-21722D01*
X44161Y-21758D01*
X44463Y-21456D01*
X44463Y-21506D01*
X44186Y-21783D01*
X44222Y-21852D01*
X44304Y-21896D01*
X44393Y-21923D01*
X44485Y-21933D01*
X44578Y-21924D01*
X44667Y-21898D01*
X44750Y-21854D01*
X44753Y-21852D01*
X44789Y-21783D01*
X44789Y-22192D01*
X43958Y-22192D01*
X43958Y-21412D01*
X43941Y-21324D01*
X43907Y-21242D01*
X43858Y-21167D01*
X43795Y-21104D01*
X43721Y-21054D01*
X43639Y-21020D01*
X43551Y-21002D01*
X43462Y-21001D01*
X43374Y-21018D01*
X43292Y-21051D01*
X43254Y-21076D01*
X43254Y-18672D01*
X43237Y-18521D01*
X42320Y-18521D01*
X42320Y-19437D01*
X42471Y-19455D01*
X42653Y-19404D01*
X42821Y-19319D01*
X42970Y-19203D01*
X43093Y-19060D01*
X43186Y-18896D01*
X43245Y-18717D01*
X43254Y-18672D01*
X43254Y-21076D01*
X43217Y-21100D01*
X43153Y-21162D01*
X43103Y-21236D01*
X43068Y-21318D01*
X43049Y-21405D01*
X43048Y-21494D01*
X43064Y-21582D01*
X43097Y-21665D01*
X43145Y-21740D01*
X43207Y-21804D01*
X43281Y-21855D01*
X43362Y-21891D01*
X43449Y-21910D01*
X43538Y-21912D01*
X43626Y-21896D01*
X43709Y-21864D01*
X43785Y-21816D01*
X43849Y-21755D01*
X43901Y-21682D01*
X43937Y-21600D01*
X43957Y-21513D01*
X43958Y-21412D01*
X43958Y-22192D01*
X42285Y-22192D01*
X42285Y-19437D01*
X42285Y-18521D01*
X41369Y-18521D01*
X41351Y-18672D01*
X41360Y-18717D01*
X41419Y-18896D01*
X41512Y-19060D01*
X41635Y-19203D01*
X41784Y-19319D01*
X41952Y-19404D01*
X42134Y-19455D01*
X42285Y-19437D01*
X42285Y-22192D01*
X41901Y-22192D01*
X41901Y-21228D01*
X41900Y-21228D01*
X41901Y-21166D01*
X41865Y-20981D01*
X41793Y-20808D01*
X41689Y-20652D01*
X41557Y-20519D01*
X41402Y-20414D01*
X41229Y-20341D01*
X41045Y-20303D01*
X40976Y-20303D01*
X40976Y-20303D01*
X40954Y-20303D01*
X40857Y-20302D01*
X40854Y-20303D01*
X40671Y-20303D01*
X40011Y-20303D01*
X40011Y-15124D01*
X40014Y-15125D01*
X40057Y-15129D01*
X40589Y-15129D01*
X40576Y-15140D01*
X40575Y-15141D01*
X40575Y-15141D01*
X40575Y-15141D01*
X40575Y-15141D01*
X40394Y-15322D01*
X40027Y-15322D01*
X40027Y-16960D01*
X40298Y-16960D01*
X40283Y-16964D01*
X40219Y-16999D01*
X40194Y-17059D01*
X40433Y-17297D01*
X40438Y-17292D01*
X40463Y-17317D01*
X40458Y-17322D01*
X40463Y-17328D01*
X40438Y-17353D01*
X40433Y-17347D01*
X40408Y-17372D01*
X40408Y-17322D01*
X40169Y-17084D01*
X40109Y-17109D01*
X40074Y-17176D01*
X40052Y-17248D01*
X40045Y-17324D01*
X40053Y-17399D01*
X40075Y-17471D01*
X40109Y-17536D01*
X40169Y-17561D01*
X40408Y-17322D01*
X40408Y-17372D01*
X40194Y-17586D01*
X40219Y-17646D01*
X40286Y-17681D01*
X40359Y-17703D01*
X40434Y-17710D01*
X40509Y-17702D01*
X40582Y-17680D01*
X40646Y-17646D01*
X40671Y-17586D01*
X40671Y-17586D01*
X40694Y-17609D01*
X40700Y-17603D01*
X40704Y-17613D01*
X40708Y-17628D01*
X40708Y-17628D01*
X40708Y-17629D01*
X40715Y-17642D01*
X40722Y-17655D01*
X40723Y-17656D01*
X40723Y-17657D01*
X40732Y-17668D01*
X40741Y-17680D01*
X40743Y-17681D01*
X40743Y-17681D01*
X40743Y-17681D01*
X40743Y-17681D01*
X40962Y-17900D01*
X40962Y-17913D01*
X40970Y-17959D01*
X40982Y-17988D01*
X40961Y-17996D01*
X40922Y-18022D01*
X40889Y-18054D01*
X40863Y-18093D01*
X40844Y-18136D01*
X40834Y-18181D01*
X40834Y-18228D01*
X40842Y-18274D01*
X40859Y-18318D01*
X40885Y-18357D01*
X40913Y-18386D01*
X40913Y-18641D01*
X40889Y-18665D01*
X40863Y-18703D01*
X40844Y-18746D01*
X40834Y-18792D01*
X40834Y-18838D01*
X40842Y-18884D01*
X40859Y-18928D01*
X40885Y-18967D01*
X40917Y-19001D01*
X40956Y-19027D01*
X40998Y-19046D01*
X41044Y-19056D01*
X41091Y-19057D01*
X41137Y-19049D01*
X41180Y-19032D01*
X41220Y-19007D01*
X41254Y-18975D01*
X41280Y-18937D01*
X41299Y-18894D01*
X41310Y-18848D01*
X41311Y-18795D01*
X41301Y-18749D01*
X41284Y-18706D01*
X41258Y-18667D01*
X41232Y-18641D01*
X41232Y-18385D01*
X41254Y-18365D01*
X41280Y-18326D01*
X41299Y-18284D01*
X41310Y-18238D01*
X41311Y-18185D01*
X41301Y-18139D01*
X41291Y-18114D01*
X41308Y-18107D01*
X41348Y-18082D01*
X41381Y-18050D01*
X41408Y-18011D01*
X41427Y-17969D01*
X41438Y-17923D01*
X41438Y-17870D01*
X41429Y-17824D01*
X41412Y-17781D01*
X41389Y-17748D01*
X41665Y-17748D01*
X41665Y-17659D01*
X41841Y-17659D01*
X41784Y-17688D01*
X41635Y-17804D01*
X41512Y-17947D01*
X41419Y-18111D01*
X41360Y-18290D01*
X41351Y-18335D01*
X41369Y-18486D01*
X42285Y-18486D01*
X42285Y-18478D01*
X42320Y-18478D01*
X42320Y-18486D01*
X43237Y-18486D01*
X43254Y-18335D01*
X43245Y-18290D01*
X43186Y-18111D01*
X43093Y-17947D01*
X42970Y-17804D01*
X42821Y-17688D01*
X42764Y-17659D01*
X43378Y-17659D01*
X43384Y-17664D01*
X43383Y-17697D01*
X43391Y-17743D01*
X43409Y-17786D01*
X43434Y-17825D01*
X43466Y-17859D01*
X43505Y-17886D01*
X43548Y-17904D01*
X43593Y-17914D01*
X43640Y-17915D01*
X43686Y-17907D01*
X43729Y-17890D01*
X43769Y-17865D01*
X43803Y-17833D01*
X43830Y-17795D01*
X43849Y-17752D01*
X43859Y-17707D01*
X43860Y-17653D01*
X43851Y-17607D01*
X43833Y-17564D01*
X43807Y-17525D01*
X43774Y-17492D01*
X43735Y-17466D01*
X43692Y-17448D01*
X43647Y-17439D01*
X43609Y-17438D01*
X43557Y-17387D01*
X43546Y-17377D01*
X43534Y-17368D01*
X43534Y-17368D01*
X43533Y-17367D01*
X43520Y-17360D01*
X43507Y-17353D01*
X43506Y-17353D01*
X43506Y-17352D01*
X43492Y-17348D01*
X43478Y-17344D01*
X43477Y-17343D01*
X43476Y-17343D01*
X43461Y-17342D01*
X43447Y-17340D01*
X43445Y-17340D01*
X43445Y-17340D01*
X43445Y-17340D01*
X43444Y-17340D01*
X41665Y-17340D01*
X41665Y-15907D01*
X41889Y-15907D01*
X41904Y-15906D01*
X41919Y-15904D01*
X41919Y-15904D01*
X41920Y-15904D01*
X41934Y-15900D01*
X41948Y-15896D01*
X41949Y-15895D01*
X41950Y-15895D01*
X41963Y-15888D01*
X41976Y-15881D01*
X41977Y-15881D01*
X41978Y-15880D01*
X41989Y-15871D01*
X42000Y-15862D01*
X42002Y-15861D01*
X42002Y-15861D01*
X42002Y-15861D01*
X42002Y-15860D01*
X42585Y-15277D01*
X43634Y-15277D01*
X43690Y-15333D01*
X43639Y-15311D01*
X43551Y-15293D01*
X43462Y-15292D01*
X43374Y-15309D01*
X43292Y-15343D01*
X43217Y-15391D01*
X43153Y-15454D01*
X43103Y-15527D01*
X43068Y-15609D01*
X43049Y-15697D01*
X43048Y-15786D01*
X43064Y-15873D01*
X43097Y-15956D01*
X43145Y-16031D01*
X43207Y-16095D01*
X43281Y-16146D01*
X43362Y-16182D01*
X43449Y-16201D01*
X43538Y-16203D01*
X43626Y-16188D01*
X43709Y-16155D01*
X43785Y-16108D01*
X43849Y-16046D01*
X43901Y-15973D01*
X43937Y-15892D01*
X43947Y-15846D01*
X44042Y-15941D01*
X44022Y-15949D01*
X43983Y-15974D01*
X43950Y-16007D01*
X43924Y-16046D01*
X43905Y-16089D01*
X43896Y-16134D01*
X43270Y-16759D01*
X43236Y-16759D01*
X43190Y-16768D01*
X43146Y-16785D01*
X43107Y-16811D01*
X43074Y-16844D01*
X43048Y-16882D01*
X43029Y-16925D01*
X43020Y-16971D01*
X43019Y-17018D01*
X43027Y-17064D01*
X43045Y-17107D01*
X43070Y-17146D01*
X43102Y-17180D01*
X43141Y-17206D01*
X43183Y-17225D01*
X43229Y-17235D01*
X43276Y-17236D01*
X43322Y-17228D01*
X43365Y-17211D01*
X43405Y-17186D01*
X43439Y-17154D01*
X43465Y-17116D01*
X43484Y-17073D01*
X43495Y-17028D01*
X43495Y-16985D01*
X44086Y-16394D01*
X44105Y-16399D01*
X44152Y-16400D01*
X44198Y-16391D01*
X44216Y-16384D01*
X43942Y-16658D01*
X43933Y-16670D01*
X43923Y-16681D01*
X43923Y-16682D01*
X43922Y-16682D01*
X43915Y-16695D01*
X43908Y-16708D01*
X43908Y-16709D01*
X43907Y-16710D01*
X43903Y-16724D01*
X43899Y-16738D01*
X43899Y-16739D01*
X43898Y-16740D01*
X43897Y-16754D01*
X43895Y-16769D01*
X43895Y-16771D01*
X43895Y-16771D01*
X43895Y-16771D01*
X43895Y-16771D01*
X43895Y-18799D01*
X43897Y-18813D01*
X43898Y-18828D01*
X43898Y-18829D01*
X43898Y-18830D01*
X43902Y-18844D01*
X43907Y-18858D01*
X43907Y-18859D01*
X43907Y-18859D01*
X43914Y-18872D01*
X43921Y-18886D01*
X43921Y-18886D01*
X43922Y-18887D01*
X43931Y-18898D01*
X43935Y-18903D01*
X43934Y-18937D01*
X43943Y-18983D01*
X43960Y-19026D01*
X43985Y-19065D01*
X44018Y-19099D01*
X44056Y-19126D01*
X44099Y-19144D01*
X44144Y-19154D01*
X44191Y-19155D01*
X44237Y-19147D01*
X44281Y-19130D01*
X44320Y-19105D01*
X44354Y-19073D01*
X44381Y-19035D01*
X44400Y-18992D01*
X44410Y-18947D01*
X44411Y-18893D01*
X44402Y-18848D01*
X44384Y-18804D01*
X44358Y-18766D01*
X44325Y-18732D01*
X44287Y-18706D01*
X44244Y-18688D01*
X44214Y-18682D01*
X44214Y-16837D01*
X44512Y-16539D01*
X44521Y-16528D01*
X44531Y-16517D01*
X44531Y-16516D01*
X44532Y-16515D01*
X44539Y-16502D01*
X44546Y-16489D01*
X44546Y-16489D01*
X44546Y-16488D01*
X44551Y-16474D01*
X44555Y-16460D01*
X44555Y-16459D01*
X44555Y-16458D01*
X44557Y-16444D01*
X44559Y-16429D01*
X44559Y-16427D01*
X44559Y-16427D01*
X44559Y-16427D01*
X44559Y-16427D01*
X44559Y-16072D01*
X44557Y-16058D01*
X44556Y-16043D01*
X44556Y-16042D01*
X44556Y-16041D01*
X44551Y-16027D01*
X44547Y-16013D01*
X44547Y-16012D01*
X44547Y-16012D01*
X44540Y-15999D01*
X44533Y-15985D01*
X44532Y-15985D01*
X44532Y-15984D01*
X44523Y-15973D01*
X44513Y-15961D01*
X44512Y-15960D01*
X44512Y-15960D01*
X44512Y-15960D01*
X44512Y-15960D01*
X44311Y-15759D01*
X44437Y-15759D01*
X44470Y-15726D01*
X44470Y-15411D01*
X44462Y-15411D01*
X44462Y-15405D01*
X44795Y-15405D01*
X44795Y-15375D01*
X44821Y-15375D01*
X44854Y-15343D01*
X44854Y-15144D01*
X44849Y-15119D01*
X44839Y-15096D01*
X44825Y-15074D01*
X44807Y-15056D01*
X44795Y-15048D01*
X44795Y-14935D01*
X44819Y-14919D01*
X44840Y-14899D01*
X44856Y-14874D01*
X44867Y-14847D01*
X44873Y-14819D01*
X44873Y-14789D01*
X44873Y-14766D01*
X46374Y-14766D01*
X47222Y-15614D01*
X47222Y-17027D01*
X47198Y-17050D01*
X47172Y-17089D01*
X47153Y-17132D01*
X47144Y-17178D01*
X47143Y-17224D01*
X47151Y-17270D01*
X47169Y-17314D01*
X47194Y-17353D01*
X47226Y-17386D01*
X47265Y-17413D01*
X47307Y-17432D01*
X47353Y-17442D01*
X47400Y-17443D01*
X47446Y-17435D01*
X47489Y-17418D01*
X47529Y-17393D01*
X47563Y-17361D01*
X47589Y-17322D01*
X47608Y-17280D01*
X47619Y-17234D01*
X47620Y-17181D01*
X47611Y-17135D01*
X47593Y-17092D01*
X47567Y-17053D01*
X47541Y-17027D01*
X47541Y-15682D01*
X47842Y-15983D01*
X47842Y-17755D01*
X47842Y-19508D01*
X47624Y-19725D01*
X47624Y-18672D01*
X47624Y-18335D01*
X47615Y-18290D01*
X47556Y-18111D01*
X47463Y-17947D01*
X47340Y-17804D01*
X47191Y-17688D01*
X47023Y-17603D01*
X46841Y-17552D01*
X46690Y-17570D01*
X46690Y-18486D01*
X47607Y-18486D01*
X47624Y-18335D01*
X47624Y-18672D01*
X47607Y-18521D01*
X46690Y-18521D01*
X46690Y-19437D01*
X46841Y-19455D01*
X47023Y-19404D01*
X47191Y-19319D01*
X47340Y-19203D01*
X47463Y-19060D01*
X47556Y-18896D01*
X47615Y-18717D01*
X47624Y-18672D01*
X47624Y-19725D01*
X47461Y-19889D01*
X46661Y-19889D01*
X46655Y-19885D01*
X46655Y-19437D01*
X46655Y-18521D01*
X46655Y-18486D01*
X46655Y-17570D01*
X46504Y-17552D01*
X46419Y-17576D01*
X46419Y-15665D01*
X46410Y-15619D01*
X46392Y-15576D01*
X46366Y-15537D01*
X46340Y-15511D01*
X46340Y-15334D01*
X46339Y-15319D01*
X46337Y-15305D01*
X46337Y-15304D01*
X46337Y-15303D01*
X46333Y-15289D01*
X46329Y-15275D01*
X46328Y-15274D01*
X46328Y-15273D01*
X46321Y-15260D01*
X46314Y-15247D01*
X46314Y-15247D01*
X46313Y-15246D01*
X46304Y-15234D01*
X46295Y-15223D01*
X46294Y-15222D01*
X46294Y-15222D01*
X46294Y-15222D01*
X46293Y-15221D01*
X46077Y-15005D01*
X46065Y-14996D01*
X46054Y-14986D01*
X46053Y-14986D01*
X46053Y-14985D01*
X46040Y-14978D01*
X46027Y-14971D01*
X46026Y-14971D01*
X46025Y-14970D01*
X46011Y-14966D01*
X45997Y-14962D01*
X45996Y-14962D01*
X45996Y-14961D01*
X45981Y-14960D01*
X45966Y-14958D01*
X45965Y-14958D01*
X45965Y-14958D01*
X45965Y-14958D01*
X45964Y-14958D01*
X45689Y-14958D01*
X45664Y-14933D01*
X45625Y-14907D01*
X45582Y-14889D01*
X45536Y-14880D01*
X45490Y-14879D01*
X45444Y-14888D01*
X45400Y-14906D01*
X45361Y-14931D01*
X45328Y-14964D01*
X45302Y-15002D01*
X45283Y-15045D01*
X45273Y-15091D01*
X45273Y-15138D01*
X45281Y-15184D01*
X45298Y-15227D01*
X45324Y-15266D01*
X45347Y-15290D01*
X45292Y-15306D01*
X45210Y-15349D01*
X45206Y-15352D01*
X45171Y-15421D01*
X45472Y-15722D01*
X45773Y-15421D01*
X45738Y-15352D01*
X45656Y-15308D01*
X45659Y-15306D01*
X45689Y-15277D01*
X45898Y-15277D01*
X46021Y-15400D01*
X46021Y-15511D01*
X45997Y-15535D01*
X45971Y-15573D01*
X45952Y-15616D01*
X45943Y-15662D01*
X45942Y-15683D01*
X45940Y-15657D01*
X45914Y-15568D01*
X45870Y-15486D01*
X45868Y-15482D01*
X45798Y-15446D01*
X45497Y-15748D01*
X45503Y-15753D01*
X45478Y-15778D01*
X45472Y-15773D01*
X45447Y-15798D01*
X45447Y-15748D01*
X45146Y-15446D01*
X45076Y-15482D01*
X45032Y-15564D01*
X45005Y-15653D01*
X44995Y-15745D01*
X45004Y-15838D01*
X45030Y-15927D01*
X45074Y-16009D01*
X45076Y-16013D01*
X45146Y-16049D01*
X45447Y-15748D01*
X45447Y-15798D01*
X45171Y-16074D01*
X45206Y-16143D01*
X45288Y-16187D01*
X45326Y-16199D01*
X44854Y-16672D01*
X44854Y-15642D01*
X44854Y-15443D01*
X44821Y-15411D01*
X44505Y-15411D01*
X44505Y-15726D01*
X44538Y-15759D01*
X44712Y-15759D01*
X44737Y-15759D01*
X44762Y-15754D01*
X44786Y-15744D01*
X44807Y-15729D01*
X44825Y-15711D01*
X44839Y-15690D01*
X44849Y-15667D01*
X44854Y-15642D01*
X44854Y-16672D01*
X44749Y-16777D01*
X44740Y-16788D01*
X44730Y-16799D01*
X44730Y-16800D01*
X44729Y-16801D01*
X44722Y-16814D01*
X44715Y-16826D01*
X44715Y-16827D01*
X44715Y-16828D01*
X44710Y-16842D01*
X44706Y-16856D01*
X44706Y-16857D01*
X44705Y-16858D01*
X44704Y-16872D01*
X44702Y-16887D01*
X44702Y-16889D01*
X44702Y-16889D01*
X44702Y-16889D01*
X44702Y-16889D01*
X44702Y-17873D01*
X44678Y-17897D01*
X44652Y-17935D01*
X44634Y-17978D01*
X44624Y-18024D01*
X44623Y-18071D01*
X44632Y-18117D01*
X44649Y-18160D01*
X44674Y-18199D01*
X44707Y-18233D01*
X44745Y-18260D01*
X44788Y-18278D01*
X44833Y-18288D01*
X44870Y-18289D01*
X44815Y-18344D01*
X44781Y-18344D01*
X44735Y-18353D01*
X44692Y-18370D01*
X44653Y-18396D01*
X44619Y-18428D01*
X44593Y-18467D01*
X44575Y-18510D01*
X44565Y-18555D01*
X44564Y-18602D01*
X44573Y-18648D01*
X44590Y-18692D01*
X44615Y-18731D01*
X44648Y-18764D01*
X44686Y-18791D01*
X44729Y-18810D01*
X44774Y-18820D01*
X44821Y-18821D01*
X44867Y-18813D01*
X44911Y-18796D01*
X44950Y-18771D01*
X44984Y-18739D01*
X45011Y-18700D01*
X45030Y-18658D01*
X45040Y-18612D01*
X45041Y-18570D01*
X45250Y-18360D01*
X45259Y-18349D01*
X45267Y-18340D01*
X45277Y-18351D01*
X45316Y-18378D01*
X45359Y-18396D01*
X45404Y-18406D01*
X45451Y-18407D01*
X45497Y-18399D01*
X45540Y-18382D01*
X45580Y-18357D01*
X45614Y-18325D01*
X45641Y-18287D01*
X45660Y-18244D01*
X45670Y-18199D01*
X45671Y-18145D01*
X45662Y-18100D01*
X45644Y-18056D01*
X45618Y-18018D01*
X45592Y-17991D01*
X45592Y-17526D01*
X45853Y-17265D01*
X45884Y-17266D01*
X45930Y-17258D01*
X45974Y-17241D01*
X46013Y-17216D01*
X46047Y-17183D01*
X46074Y-17145D01*
X46093Y-17103D01*
X46103Y-17057D01*
X46104Y-17004D01*
X46095Y-16958D01*
X46077Y-16915D01*
X46051Y-16876D01*
X46018Y-16843D01*
X45979Y-16817D01*
X45936Y-16798D01*
X45891Y-16789D01*
X45844Y-16789D01*
X45798Y-16797D01*
X45755Y-16815D01*
X45716Y-16841D01*
X45682Y-16873D01*
X45656Y-16912D01*
X45638Y-16955D01*
X45628Y-17000D01*
X45627Y-17040D01*
X45320Y-17347D01*
X45310Y-17359D01*
X45301Y-17370D01*
X45301Y-17371D01*
X45300Y-17371D01*
X45297Y-17378D01*
X45297Y-17192D01*
X45794Y-16695D01*
X45808Y-16704D01*
X45851Y-16723D01*
X45896Y-16733D01*
X45943Y-16734D01*
X45989Y-16726D01*
X46033Y-16709D01*
X46072Y-16684D01*
X46106Y-16652D01*
X46133Y-16614D01*
X46152Y-16571D01*
X46162Y-16526D01*
X46163Y-16472D01*
X46154Y-16426D01*
X46136Y-16383D01*
X46110Y-16344D01*
X46084Y-16318D01*
X46106Y-16298D01*
X46133Y-16259D01*
X46152Y-16217D01*
X46162Y-16171D01*
X46163Y-16118D01*
X46154Y-16072D01*
X46136Y-16029D01*
X46110Y-15990D01*
X46077Y-15957D01*
X46039Y-15931D01*
X45995Y-15913D01*
X45950Y-15903D01*
X45920Y-15903D01*
X45939Y-15842D01*
X45949Y-15750D01*
X45948Y-15738D01*
X45951Y-15754D01*
X45968Y-15798D01*
X45993Y-15837D01*
X46025Y-15871D01*
X46064Y-15897D01*
X46107Y-15916D01*
X46152Y-15926D01*
X46199Y-15927D01*
X46245Y-15919D01*
X46289Y-15902D01*
X46328Y-15877D01*
X46362Y-15845D01*
X46389Y-15807D01*
X46408Y-15764D01*
X46418Y-15718D01*
X46419Y-15665D01*
X46419Y-17576D01*
X46322Y-17603D01*
X46154Y-17688D01*
X46006Y-17804D01*
X45882Y-17947D01*
X45789Y-18111D01*
X45730Y-18290D01*
X45721Y-18335D01*
X45739Y-18486D01*
X46655Y-18486D01*
X46655Y-18521D01*
X45739Y-18521D01*
X45721Y-18672D01*
X45730Y-18717D01*
X45789Y-18896D01*
X45882Y-19060D01*
X46006Y-19203D01*
X46154Y-19319D01*
X46322Y-19404D01*
X46504Y-19455D01*
X46655Y-19437D01*
X46655Y-19885D01*
X46629Y-19868D01*
X46586Y-19850D01*
X46540Y-19840D01*
X46494Y-19840D01*
X46448Y-19849D01*
X46404Y-19866D01*
X46365Y-19892D01*
X46332Y-19924D01*
X46306Y-19963D01*
X46287Y-20006D01*
X46277Y-20052D01*
X46277Y-20098D01*
X46285Y-20144D01*
X46302Y-20188D01*
X46328Y-20227D01*
X46360Y-20261D01*
X46398Y-20287D01*
X46441Y-20306D01*
X46487Y-20316D01*
X46534Y-20317D01*
X46580Y-20309D01*
X46623Y-20292D01*
X46662Y-20267D01*
X47539Y-20267D01*
X47556Y-20266D01*
X47574Y-20264D01*
X47575Y-20264D01*
X47576Y-20264D01*
X47592Y-20259D01*
X47609Y-20254D01*
X47610Y-20253D01*
X47611Y-20253D01*
X47626Y-20245D01*
X47642Y-20237D01*
X47643Y-20236D01*
X47643Y-20236D01*
X47657Y-20225D01*
X47671Y-20214D01*
X47672Y-20212D01*
X47672Y-20212D01*
X47672Y-20212D01*
X47672Y-20212D01*
X48165Y-19720D01*
X48176Y-19706D01*
X48187Y-19693D01*
X48187Y-19692D01*
X48188Y-19691D01*
X48196Y-19676D01*
X48205Y-19661D01*
X48205Y-19660D01*
X48205Y-19659D01*
X48211Y-19642D01*
X48216Y-19625D01*
X48216Y-19624D01*
X48216Y-19623D01*
X48218Y-19606D01*
X48220Y-19589D01*
X48220Y-19587D01*
X48220Y-19587D01*
X48220Y-19587D01*
X48220Y-19586D01*
X48220Y-17944D01*
X48220Y-17944D01*
X48249Y-17964D01*
X48292Y-17983D01*
X48337Y-17993D01*
X48384Y-17994D01*
X48430Y-17986D01*
X48474Y-17969D01*
X48513Y-17944D01*
X48547Y-17912D01*
X48574Y-17874D01*
X48593Y-17831D01*
X48603Y-17785D01*
X48604Y-17732D01*
X48595Y-17686D01*
X48577Y-17643D01*
X48551Y-17604D01*
X48518Y-17571D01*
X48479Y-17545D01*
X48436Y-17527D01*
X48391Y-17517D01*
X48344Y-17517D01*
X48298Y-17526D01*
X48255Y-17543D01*
X48220Y-17566D01*
X48220Y-15905D01*
X48218Y-15888D01*
X48217Y-15870D01*
X48216Y-15869D01*
X48216Y-15868D01*
X48211Y-15852D01*
X48206Y-15835D01*
X48206Y-15834D01*
X48206Y-15833D01*
X48198Y-15818D01*
X48189Y-15802D01*
X48189Y-15801D01*
X48188Y-15800D01*
X48177Y-15787D01*
X48166Y-15773D01*
X48165Y-15772D01*
X48165Y-15772D01*
X48165Y-15772D01*
X48165Y-15771D01*
X46659Y-14265D01*
X46645Y-14254D01*
X46632Y-14243D01*
X46631Y-14243D01*
X46630Y-14242D01*
X46615Y-14234D01*
X46600Y-14225D01*
X46599Y-14225D01*
X46598Y-14225D01*
X46581Y-14220D01*
X46564Y-14214D01*
X46563Y-14214D01*
X46562Y-14214D01*
X46545Y-14212D01*
X46528Y-14210D01*
X46526Y-14210D01*
X46526Y-14210D01*
X46526Y-14210D01*
X46525Y-14210D01*
X46387Y-14210D01*
X46395Y-14205D01*
X46413Y-14187D01*
X46427Y-14166D01*
X46437Y-14142D01*
X46442Y-14117D01*
X46443Y-14092D01*
X46443Y-13466D01*
X46442Y-13441D01*
X46437Y-13416D01*
X46427Y-13392D01*
X46413Y-13371D01*
X46395Y-13353D01*
X46374Y-13339D01*
X46350Y-13329D01*
X46325Y-13324D01*
X46038Y-13324D01*
X46005Y-13357D01*
X46005Y-13761D01*
X46410Y-13761D01*
X46442Y-13729D01*
X46443Y-13466D01*
X46443Y-14092D01*
X46442Y-13829D01*
X46410Y-13797D01*
X46005Y-13797D01*
X46005Y-13805D01*
X45970Y-13805D01*
X45970Y-13797D01*
X45970Y-13761D01*
X45970Y-13357D01*
X45937Y-13324D01*
X45650Y-13324D01*
X45625Y-13329D01*
X45602Y-13339D01*
X45580Y-13353D01*
X45562Y-13371D01*
X45548Y-13392D01*
X45538Y-13416D01*
X45533Y-13441D01*
X45533Y-13466D01*
X45533Y-13729D01*
X45565Y-13761D01*
X45970Y-13761D01*
X45970Y-13797D01*
X45565Y-13797D01*
X45533Y-13829D01*
X45533Y-14092D01*
X45533Y-14117D01*
X45538Y-14142D01*
X45548Y-14166D01*
X45558Y-14180D01*
X45514Y-14136D01*
X45519Y-14119D01*
X45523Y-14076D01*
X45523Y-13522D01*
X45519Y-13479D01*
X45506Y-13436D01*
X45485Y-13396D01*
X45456Y-13362D01*
X45422Y-13333D01*
X45382Y-13312D01*
X45339Y-13299D01*
X45296Y-13295D01*
X42675Y-13295D01*
X42632Y-13299D01*
X42589Y-13312D01*
X42550Y-13333D01*
X42515Y-13362D01*
X42487Y-13396D01*
X42466Y-13436D01*
X42453Y-13479D01*
X42448Y-13522D01*
X42448Y-14076D01*
X42453Y-14119D01*
X42466Y-14162D01*
X42487Y-14201D01*
X42515Y-14236D01*
X42550Y-14264D01*
X42589Y-14285D01*
X42632Y-14298D01*
X42675Y-14303D01*
X44105Y-14303D01*
X44102Y-14315D01*
X44102Y-14344D01*
X44102Y-14817D01*
X44108Y-14846D01*
X44119Y-14873D01*
X44135Y-14898D01*
X44156Y-14919D01*
X44180Y-14935D01*
X44181Y-14935D01*
X44181Y-15048D01*
X44168Y-15056D01*
X44151Y-15074D01*
X44136Y-15096D01*
X44127Y-15119D01*
X44122Y-15144D01*
X44122Y-15314D01*
X43813Y-15005D01*
X43802Y-14996D01*
X43790Y-14986D01*
X43790Y-14986D01*
X43789Y-14985D01*
X43777Y-14979D01*
X43790Y-14960D01*
X43809Y-14918D01*
X43820Y-14872D01*
X43820Y-14819D01*
X43811Y-14773D01*
X43794Y-14730D01*
X43768Y-14691D01*
X43735Y-14658D01*
X43696Y-14631D01*
X43653Y-14613D01*
X43607Y-14604D01*
X43560Y-14604D01*
X43515Y-14612D01*
X43471Y-14630D01*
X43436Y-14653D01*
X42480Y-14653D01*
X42462Y-14655D01*
X42445Y-14656D01*
X42444Y-14657D01*
X42443Y-14657D01*
X42426Y-14662D01*
X42410Y-14667D01*
X42409Y-14667D01*
X42408Y-14667D01*
X42392Y-14676D01*
X42377Y-14684D01*
X42376Y-14684D01*
X42375Y-14685D01*
X42362Y-14696D01*
X42348Y-14707D01*
X42347Y-14708D01*
X42347Y-14708D01*
X42347Y-14708D01*
X42346Y-14708D01*
X41968Y-15086D01*
X41235Y-15086D01*
X41378Y-15031D01*
X41536Y-14930D01*
X41672Y-14801D01*
X41780Y-14648D01*
X41857Y-14476D01*
X41898Y-14293D01*
X41901Y-14079D01*
X41892Y-14035D01*
X41897Y-14020D01*
X41901Y-13977D01*
X41901Y-13285D01*
X41897Y-13242D01*
X41896Y-13240D01*
X47079Y-13240D01*
X47079Y-13242D01*
X47074Y-13285D01*
X47074Y-13977D01*
X47079Y-14020D01*
X47082Y-14033D01*
X47076Y-14066D01*
X47073Y-14253D01*
X47107Y-14438D01*
X47176Y-14612D01*
X47278Y-14770D01*
X47408Y-14905D01*
X47562Y-15012D01*
X47734Y-15087D01*
X47917Y-15127D01*
X48105Y-15131D01*
X48167Y-15120D01*
X48183Y-15125D01*
X48226Y-15129D01*
X48918Y-15129D01*
X48961Y-15125D01*
X48964Y-15124D01*
X48964Y-20308D01*
X48964Y-20308D01*
G37*
G54D24*
X48964Y-20308D02*
X48961Y-20307D01*
X48918Y-20303D01*
X48226Y-20303D01*
X48183Y-20307D01*
X48169Y-20311D01*
X48131Y-20303D01*
X47944Y-20302D01*
X47760Y-20337D01*
X47586Y-20407D01*
X47429Y-20510D01*
X47295Y-20641D01*
X47189Y-20796D01*
X47115Y-20969D01*
X47076Y-21152D01*
X47073Y-21340D01*
X47083Y-21396D01*
X47079Y-21412D01*
X47074Y-21455D01*
X47074Y-22147D01*
X47079Y-22190D01*
X47079Y-22192D01*
X45927Y-22192D01*
X45927Y-21412D01*
X45909Y-21324D01*
X45875Y-21242D01*
X45826Y-21167D01*
X45763Y-21104D01*
X45689Y-21054D01*
X45607Y-21020D01*
X45520Y-21002D01*
X45431Y-21001D01*
X45343Y-21018D01*
X45260Y-21051D01*
X45186Y-21100D01*
X45122Y-21162D01*
X45072Y-21236D01*
X45036Y-21318D01*
X45018Y-21405D01*
X45017Y-21494D01*
X45033Y-21582D01*
X45066Y-21665D01*
X45114Y-21740D01*
X45176Y-21804D01*
X45249Y-21855D01*
X45331Y-21891D01*
X45418Y-21910D01*
X45507Y-21912D01*
X45595Y-21896D01*
X45678Y-21864D01*
X45753Y-21816D01*
X45818Y-21755D01*
X45869Y-21682D01*
X45906Y-21600D01*
X45925Y-21513D01*
X45927Y-21412D01*
X45927Y-22192D01*
X44964Y-22192D01*
X44964Y-21458D01*
X44956Y-21366D01*
X44929Y-21277D01*
X44886Y-21194D01*
X44883Y-21191D01*
X44814Y-21155D01*
X44789Y-21180D01*
X44789Y-21130D01*
X44753Y-21060D01*
X44671Y-21016D01*
X44582Y-20989D01*
X44490Y-20979D01*
X44397Y-20988D01*
X44308Y-21015D01*
X44226Y-21058D01*
X44222Y-21060D01*
X44186Y-21130D01*
X44488Y-21431D01*
X44789Y-21130D01*
X44789Y-21180D01*
X44513Y-21456D01*
X44814Y-21758D01*
X44883Y-21722D01*
X44928Y-21640D01*
X44955Y-21551D01*
X44964Y-21458D01*
X44964Y-22192D01*
X44789Y-22192D01*
X44789Y-21783D01*
X44488Y-21481D01*
X44463Y-21506D01*
X44463Y-21456D01*
X44161Y-21155D01*
X44092Y-21191D01*
X44048Y-21272D01*
X44021Y-21361D01*
X44011Y-21454D01*
X44020Y-21547D01*
X44046Y-21636D01*
X44089Y-21718D01*
X44092Y-21722D01*
X44161Y-21758D01*
X44463Y-21456D01*
X44463Y-21506D01*
X44186Y-21783D01*
X44222Y-21852D01*
X44304Y-21896D01*
X44393Y-21923D01*
X44485Y-21933D01*
X44578Y-21924D01*
X44667Y-21898D01*
X44750Y-21854D01*
X44753Y-21852D01*
X44789Y-21783D01*
X44789Y-22192D01*
X43958Y-22192D01*
X43958Y-21412D01*
X43941Y-21324D01*
X43907Y-21242D01*
X43858Y-21167D01*
X43795Y-21104D01*
X43721Y-21054D01*
X43639Y-21020D01*
X43551Y-21002D01*
X43462Y-21001D01*
X43374Y-21018D01*
X43292Y-21051D01*
X43254Y-21076D01*
X43254Y-18672D01*
X43237Y-18521D01*
X42320Y-18521D01*
X42320Y-19437D01*
X42471Y-19455D01*
X42653Y-19404D01*
X42821Y-19319D01*
X42970Y-19203D01*
X43093Y-19060D01*
X43186Y-18896D01*
X43245Y-18717D01*
X43254Y-18672D01*
X43254Y-21076D01*
X43217Y-21100D01*
X43153Y-21162D01*
X43103Y-21236D01*
X43068Y-21318D01*
X43049Y-21405D01*
X43048Y-21494D01*
X43064Y-21582D01*
X43097Y-21665D01*
X43145Y-21740D01*
X43207Y-21804D01*
X43281Y-21855D01*
X43362Y-21891D01*
X43449Y-21910D01*
X43538Y-21912D01*
X43626Y-21896D01*
X43709Y-21864D01*
X43785Y-21816D01*
X43849Y-21755D01*
X43901Y-21682D01*
X43937Y-21600D01*
X43957Y-21513D01*
X43958Y-21412D01*
X43958Y-22192D01*
X42285Y-22192D01*
X42285Y-19437D01*
X42285Y-18521D01*
X41369Y-18521D01*
X41351Y-18672D01*
X41360Y-18717D01*
X41419Y-18896D01*
X41512Y-19060D01*
X41635Y-19203D01*
X41784Y-19319D01*
X41952Y-19404D01*
X42134Y-19455D01*
X42285Y-19437D01*
X42285Y-22192D01*
X41901Y-22192D01*
X41901Y-21228D01*
X41900Y-21228D01*
X41901Y-21166D01*
X41865Y-20981D01*
X41793Y-20808D01*
X41689Y-20652D01*
X41557Y-20519D01*
X41402Y-20414D01*
X41229Y-20341D01*
X41045Y-20303D01*
X40976Y-20303D01*
X40976Y-20303D01*
X40954Y-20303D01*
X40857Y-20302D01*
X40854Y-20303D01*
X40671Y-20303D01*
X40011Y-20303D01*
X40011Y-15124D01*
X40014Y-15125D01*
X40057Y-15129D01*
X40589Y-15129D01*
X40576Y-15140D01*
X40575Y-15141D01*
X40575Y-15141D01*
X40575Y-15141D01*
X40575Y-15141D01*
X40394Y-15322D01*
X40027Y-15322D01*
X40027Y-16960D01*
X40298Y-16960D01*
X40283Y-16964D01*
X40219Y-16999D01*
X40194Y-17059D01*
X40433Y-17297D01*
X40438Y-17292D01*
X40463Y-17317D01*
X40458Y-17322D01*
X40463Y-17328D01*
X40438Y-17353D01*
X40433Y-17347D01*
X40408Y-17372D01*
X40408Y-17322D01*
X40169Y-17084D01*
X40109Y-17109D01*
X40074Y-17176D01*
X40052Y-17248D01*
X40045Y-17324D01*
X40053Y-17399D01*
X40075Y-17471D01*
X40109Y-17536D01*
X40169Y-17561D01*
X40408Y-17322D01*
X40408Y-17372D01*
X40194Y-17586D01*
X40219Y-17646D01*
X40286Y-17681D01*
X40359Y-17703D01*
X40434Y-17710D01*
X40509Y-17702D01*
X40582Y-17680D01*
X40646Y-17646D01*
X40671Y-17586D01*
X40671Y-17586D01*
X40694Y-17609D01*
X40700Y-17603D01*
X40704Y-17613D01*
X40708Y-17628D01*
X40708Y-17628D01*
X40708Y-17629D01*
X40715Y-17642D01*
X40722Y-17655D01*
X40723Y-17656D01*
X40723Y-17657D01*
X40732Y-17668D01*
X40741Y-17680D01*
X40743Y-17681D01*
X40743Y-17681D01*
X40743Y-17681D01*
X40743Y-17681D01*
X40962Y-17900D01*
X40962Y-17913D01*
X40970Y-17959D01*
X40982Y-17988D01*
X40961Y-17996D01*
X40922Y-18022D01*
X40889Y-18054D01*
X40863Y-18093D01*
X40844Y-18136D01*
X40834Y-18181D01*
X40834Y-18228D01*
X40842Y-18274D01*
X40859Y-18318D01*
X40885Y-18357D01*
X40913Y-18386D01*
X40913Y-18641D01*
X40889Y-18665D01*
X40863Y-18703D01*
X40844Y-18746D01*
X40834Y-18792D01*
X40834Y-18838D01*
X40842Y-18884D01*
X40859Y-18928D01*
X40885Y-18967D01*
X40917Y-19001D01*
X40956Y-19027D01*
X40998Y-19046D01*
X41044Y-19056D01*
X41091Y-19057D01*
X41137Y-19049D01*
X41180Y-19032D01*
X41220Y-19007D01*
X41254Y-18975D01*
X41280Y-18937D01*
X41299Y-18894D01*
X41310Y-18848D01*
X41311Y-18795D01*
X41301Y-18749D01*
X41284Y-18706D01*
X41258Y-18667D01*
X41232Y-18641D01*
X41232Y-18385D01*
X41254Y-18365D01*
X41280Y-18326D01*
X41299Y-18284D01*
X41310Y-18238D01*
X41311Y-18185D01*
X41301Y-18139D01*
X41291Y-18114D01*
X41308Y-18107D01*
X41348Y-18082D01*
X41381Y-18050D01*
X41408Y-18011D01*
X41427Y-17969D01*
X41438Y-17923D01*
X41438Y-17870D01*
X41429Y-17824D01*
X41412Y-17781D01*
X41389Y-17748D01*
X41665Y-17748D01*
X41665Y-17659D01*
X41841Y-17659D01*
X41784Y-17688D01*
X41635Y-17804D01*
X41512Y-17947D01*
X41419Y-18111D01*
X41360Y-18290D01*
X41351Y-18335D01*
X41369Y-18486D01*
X42285Y-18486D01*
X42285Y-18478D01*
X42320Y-18478D01*
X42320Y-18486D01*
X43237Y-18486D01*
X43254Y-18335D01*
X43245Y-18290D01*
X43186Y-18111D01*
X43093Y-17947D01*
X42970Y-17804D01*
X42821Y-17688D01*
X42764Y-17659D01*
X43378Y-17659D01*
X43384Y-17664D01*
X43383Y-17697D01*
X43391Y-17743D01*
X43409Y-17786D01*
X43434Y-17825D01*
X43466Y-17859D01*
X43505Y-17886D01*
X43548Y-17904D01*
X43593Y-17914D01*
X43640Y-17915D01*
X43686Y-17907D01*
X43729Y-17890D01*
X43769Y-17865D01*
X43803Y-17833D01*
X43830Y-17795D01*
X43849Y-17752D01*
X43859Y-17707D01*
X43860Y-17653D01*
X43851Y-17607D01*
X43833Y-17564D01*
X43807Y-17525D01*
X43774Y-17492D01*
X43735Y-17466D01*
X43692Y-17448D01*
X43647Y-17439D01*
X43609Y-17438D01*
X43557Y-17387D01*
X43546Y-17377D01*
X43534Y-17368D01*
X43534Y-17368D01*
X43533Y-17367D01*
X43520Y-17360D01*
X43507Y-17353D01*
X43506Y-17353D01*
X43506Y-17352D01*
X43492Y-17348D01*
X43478Y-17344D01*
X43477Y-17343D01*
X43476Y-17343D01*
X43461Y-17342D01*
X43447Y-17340D01*
X43445Y-17340D01*
X43445Y-17340D01*
X43445Y-17340D01*
X43444Y-17340D01*
X41665Y-17340D01*
X41665Y-15907D01*
X41889Y-15907D01*
X41904Y-15906D01*
X41919Y-15904D01*
X41919Y-15904D01*
X41920Y-15904D01*
X41934Y-15900D01*
X41948Y-15896D01*
X41949Y-15895D01*
X41950Y-15895D01*
X41963Y-15888D01*
X41976Y-15881D01*
X41977Y-15881D01*
X41978Y-15880D01*
X41989Y-15871D01*
X42000Y-15862D01*
X42002Y-15861D01*
X42002Y-15861D01*
X42002Y-15861D01*
X42002Y-15860D01*
X42585Y-15277D01*
X43634Y-15277D01*
X43690Y-15333D01*
X43639Y-15311D01*
X43551Y-15293D01*
X43462Y-15292D01*
X43374Y-15309D01*
X43292Y-15343D01*
X43217Y-15391D01*
X43153Y-15454D01*
X43103Y-15527D01*
X43068Y-15609D01*
X43049Y-15697D01*
X43048Y-15786D01*
X43064Y-15873D01*
X43097Y-15956D01*
X43145Y-16031D01*
X43207Y-16095D01*
X43281Y-16146D01*
X43362Y-16182D01*
X43449Y-16201D01*
X43538Y-16203D01*
X43626Y-16188D01*
X43709Y-16155D01*
X43785Y-16108D01*
X43849Y-16046D01*
X43901Y-15973D01*
X43937Y-15892D01*
X43947Y-15846D01*
X44042Y-15941D01*
X44022Y-15949D01*
X43983Y-15974D01*
X43950Y-16007D01*
X43924Y-16046D01*
X43905Y-16089D01*
X43896Y-16134D01*
X43270Y-16759D01*
X43236Y-16759D01*
X43190Y-16768D01*
X43146Y-16785D01*
X43107Y-16811D01*
X43074Y-16844D01*
X43048Y-16882D01*
X43029Y-16925D01*
X43020Y-16971D01*
X43019Y-17018D01*
X43027Y-17064D01*
X43045Y-17107D01*
X43070Y-17146D01*
X43102Y-17180D01*
X43141Y-17206D01*
X43183Y-17225D01*
X43229Y-17235D01*
X43276Y-17236D01*
X43322Y-17228D01*
X43365Y-17211D01*
X43405Y-17186D01*
X43439Y-17154D01*
X43465Y-17116D01*
X43484Y-17073D01*
X43495Y-17028D01*
X43495Y-16985D01*
X44086Y-16394D01*
X44105Y-16399D01*
X44152Y-16400D01*
X44198Y-16391D01*
X44216Y-16384D01*
X43942Y-16658D01*
X43933Y-16670D01*
X43923Y-16681D01*
X43923Y-16682D01*
X43922Y-16682D01*
X43915Y-16695D01*
X43908Y-16708D01*
X43908Y-16709D01*
X43907Y-16710D01*
X43903Y-16724D01*
X43899Y-16738D01*
X43899Y-16739D01*
X43898Y-16740D01*
X43897Y-16754D01*
X43895Y-16769D01*
X43895Y-16771D01*
X43895Y-16771D01*
X43895Y-16771D01*
X43895Y-16771D01*
X43895Y-18799D01*
X43897Y-18813D01*
X43898Y-18828D01*
X43898Y-18829D01*
X43898Y-18830D01*
X43902Y-18844D01*
X43907Y-18858D01*
X43907Y-18859D01*
X43907Y-18859D01*
X43914Y-18872D01*
X43921Y-18886D01*
X43921Y-18886D01*
X43922Y-18887D01*
X43931Y-18898D01*
X43935Y-18903D01*
X43934Y-18937D01*
X43943Y-18983D01*
X43960Y-19026D01*
X43985Y-19065D01*
X44018Y-19099D01*
X44056Y-19126D01*
X44099Y-19144D01*
X44144Y-19154D01*
X44191Y-19155D01*
X44237Y-19147D01*
X44281Y-19130D01*
X44320Y-19105D01*
X44354Y-19073D01*
X44381Y-19035D01*
X44400Y-18992D01*
X44410Y-18947D01*
X44411Y-18893D01*
X44402Y-18848D01*
X44384Y-18804D01*
X44358Y-18766D01*
X44325Y-18732D01*
X44287Y-18706D01*
X44244Y-18688D01*
X44214Y-18682D01*
X44214Y-16837D01*
X44512Y-16539D01*
X44521Y-16528D01*
X44531Y-16517D01*
X44531Y-16516D01*
X44532Y-16515D01*
X44539Y-16502D01*
X44546Y-16489D01*
X44546Y-16489D01*
X44546Y-16488D01*
X44551Y-16474D01*
X44555Y-16460D01*
X44555Y-16459D01*
X44555Y-16458D01*
X44557Y-16444D01*
X44559Y-16429D01*
X44559Y-16427D01*
X44559Y-16427D01*
X44559Y-16427D01*
X44559Y-16427D01*
X44559Y-16072D01*
X44557Y-16058D01*
X44556Y-16043D01*
X44556Y-16042D01*
X44556Y-16041D01*
X44551Y-16027D01*
X44547Y-16013D01*
X44547Y-16012D01*
X44547Y-16012D01*
X44540Y-15999D01*
X44533Y-15985D01*
X44532Y-15985D01*
X44532Y-15984D01*
X44523Y-15973D01*
X44513Y-15961D01*
X44512Y-15960D01*
X44512Y-15960D01*
X44512Y-15960D01*
X44512Y-15960D01*
X44311Y-15759D01*
X44437Y-15759D01*
X44470Y-15726D01*
X44470Y-15411D01*
X44462Y-15411D01*
X44462Y-15405D01*
X44795Y-15405D01*
X44795Y-15375D01*
X44821Y-15375D01*
X44854Y-15343D01*
X44854Y-15144D01*
X44849Y-15119D01*
X44839Y-15096D01*
X44825Y-15074D01*
X44807Y-15056D01*
X44795Y-15048D01*
X44795Y-14935D01*
X44819Y-14919D01*
X44840Y-14899D01*
X44856Y-14874D01*
X44867Y-14847D01*
X44873Y-14819D01*
X44873Y-14789D01*
X44873Y-14766D01*
X46374Y-14766D01*
X47222Y-15614D01*
X47222Y-17027D01*
X47198Y-17050D01*
X47172Y-17089D01*
X47153Y-17132D01*
X47144Y-17178D01*
X47143Y-17224D01*
X47151Y-17270D01*
X47169Y-17314D01*
X47194Y-17353D01*
X47226Y-17386D01*
X47265Y-17413D01*
X47307Y-17432D01*
X47353Y-17442D01*
X47400Y-17443D01*
X47446Y-17435D01*
X47489Y-17418D01*
X47529Y-17393D01*
X47563Y-17361D01*
X47589Y-17322D01*
X47608Y-17280D01*
X47619Y-17234D01*
X47620Y-17181D01*
X47611Y-17135D01*
X47593Y-17092D01*
X47567Y-17053D01*
X47541Y-17027D01*
X47541Y-15682D01*
X47842Y-15983D01*
X47842Y-17755D01*
X47842Y-19508D01*
X47624Y-19725D01*
X47624Y-18672D01*
X47624Y-18335D01*
X47615Y-18290D01*
X47556Y-18111D01*
X47463Y-17947D01*
X47340Y-17804D01*
X47191Y-17688D01*
X47023Y-17603D01*
X46841Y-17552D01*
X46690Y-17570D01*
X46690Y-18486D01*
X47607Y-18486D01*
X47624Y-18335D01*
X47624Y-18672D01*
X47607Y-18521D01*
X46690Y-18521D01*
X46690Y-19437D01*
X46841Y-19455D01*
X47023Y-19404D01*
X47191Y-19319D01*
X47340Y-19203D01*
X47463Y-19060D01*
X47556Y-18896D01*
X47615Y-18717D01*
X47624Y-18672D01*
X47624Y-19725D01*
X47461Y-19889D01*
X46661Y-19889D01*
X46655Y-19885D01*
X46655Y-19437D01*
X46655Y-18521D01*
X46655Y-18486D01*
X46655Y-17570D01*
X46504Y-17552D01*
X46419Y-17576D01*
X46419Y-15665D01*
X46410Y-15619D01*
X46392Y-15576D01*
X46366Y-15537D01*
X46340Y-15511D01*
X46340Y-15334D01*
X46339Y-15319D01*
X46337Y-15305D01*
X46337Y-15304D01*
X46337Y-15303D01*
X46333Y-15289D01*
X46329Y-15275D01*
X46328Y-15274D01*
X46328Y-15273D01*
X46321Y-15260D01*
X46314Y-15247D01*
X46314Y-15247D01*
X46313Y-15246D01*
X46304Y-15234D01*
X46295Y-15223D01*
X46294Y-15222D01*
X46294Y-15222D01*
X46294Y-15222D01*
X46293Y-15221D01*
X46077Y-15005D01*
X46065Y-14996D01*
X46054Y-14986D01*
X46053Y-14986D01*
X46053Y-14985D01*
X46040Y-14978D01*
X46027Y-14971D01*
X46026Y-14971D01*
X46025Y-14970D01*
X46011Y-14966D01*
X45997Y-14962D01*
X45996Y-14962D01*
X45996Y-14961D01*
X45981Y-14960D01*
X45966Y-14958D01*
X45965Y-14958D01*
X45965Y-14958D01*
X45965Y-14958D01*
X45964Y-14958D01*
X45689Y-14958D01*
X45664Y-14933D01*
X45625Y-14907D01*
X45582Y-14889D01*
X45536Y-14880D01*
X45490Y-14879D01*
X45444Y-14888D01*
X45400Y-14906D01*
X45361Y-14931D01*
X45328Y-14964D01*
X45302Y-15002D01*
X45283Y-15045D01*
X45273Y-15091D01*
X45273Y-15138D01*
X45281Y-15184D01*
X45298Y-15227D01*
X45324Y-15266D01*
X45347Y-15290D01*
X45292Y-15306D01*
X45210Y-15349D01*
X45206Y-15352D01*
X45171Y-15421D01*
X45472Y-15722D01*
X45773Y-15421D01*
X45738Y-15352D01*
X45656Y-15308D01*
X45659Y-15306D01*
X45689Y-15277D01*
X45898Y-15277D01*
X46021Y-15400D01*
X46021Y-15511D01*
X45997Y-15535D01*
X45971Y-15573D01*
X45952Y-15616D01*
X45943Y-15662D01*
X45942Y-15683D01*
X45940Y-15657D01*
X45914Y-15568D01*
X45870Y-15486D01*
X45868Y-15482D01*
X45798Y-15446D01*
X45497Y-15748D01*
X45503Y-15753D01*
X45478Y-15778D01*
X45472Y-15773D01*
X45447Y-15798D01*
X45447Y-15748D01*
X45146Y-15446D01*
X45076Y-15482D01*
X45032Y-15564D01*
X45005Y-15653D01*
X44995Y-15745D01*
X45004Y-15838D01*
X45030Y-15927D01*
X45074Y-16009D01*
X45076Y-16013D01*
X45146Y-16049D01*
X45447Y-15748D01*
X45447Y-15798D01*
X45171Y-16074D01*
X45206Y-16143D01*
X45288Y-16187D01*
X45326Y-16199D01*
X44854Y-16672D01*
X44854Y-15642D01*
X44854Y-15443D01*
X44821Y-15411D01*
X44505Y-15411D01*
X44505Y-15726D01*
X44538Y-15759D01*
X44712Y-15759D01*
X44737Y-15759D01*
X44762Y-15754D01*
X44786Y-15744D01*
X44807Y-15729D01*
X44825Y-15711D01*
X44839Y-15690D01*
X44849Y-15667D01*
X44854Y-15642D01*
X44854Y-16672D01*
X44749Y-16777D01*
X44740Y-16788D01*
X44730Y-16799D01*
X44730Y-16800D01*
X44729Y-16801D01*
X44722Y-16814D01*
X44715Y-16826D01*
X44715Y-16827D01*
X44715Y-16828D01*
X44710Y-16842D01*
X44706Y-16856D01*
X44706Y-16857D01*
X44705Y-16858D01*
X44704Y-16872D01*
X44702Y-16887D01*
X44702Y-16889D01*
X44702Y-16889D01*
X44702Y-16889D01*
X44702Y-16889D01*
X44702Y-17873D01*
X44678Y-17897D01*
X44652Y-17935D01*
X44634Y-17978D01*
X44624Y-18024D01*
X44623Y-18071D01*
X44632Y-18117D01*
X44649Y-18160D01*
X44674Y-18199D01*
X44707Y-18233D01*
X44745Y-18260D01*
X44788Y-18278D01*
X44833Y-18288D01*
X44870Y-18289D01*
X44815Y-18344D01*
X44781Y-18344D01*
X44735Y-18353D01*
X44692Y-18370D01*
X44653Y-18396D01*
X44619Y-18428D01*
X44593Y-18467D01*
X44575Y-18510D01*
X44565Y-18555D01*
X44564Y-18602D01*
X44573Y-18648D01*
X44590Y-18692D01*
X44615Y-18731D01*
X44648Y-18764D01*
X44686Y-18791D01*
X44729Y-18810D01*
X44774Y-18820D01*
X44821Y-18821D01*
X44867Y-18813D01*
X44911Y-18796D01*
X44950Y-18771D01*
X44984Y-18739D01*
X45011Y-18700D01*
X45030Y-18658D01*
X45040Y-18612D01*
X45041Y-18570D01*
X45250Y-18360D01*
X45259Y-18349D01*
X45267Y-18340D01*
X45277Y-18351D01*
X45316Y-18378D01*
X45359Y-18396D01*
X45404Y-18406D01*
X45451Y-18407D01*
X45497Y-18399D01*
X45540Y-18382D01*
X45580Y-18357D01*
X45614Y-18325D01*
X45641Y-18287D01*
X45660Y-18244D01*
X45670Y-18199D01*
X45671Y-18145D01*
X45662Y-18100D01*
X45644Y-18056D01*
X45618Y-18018D01*
X45592Y-17991D01*
X45592Y-17526D01*
X45853Y-17265D01*
X45884Y-17266D01*
X45930Y-17258D01*
X45974Y-17241D01*
X46013Y-17216D01*
X46047Y-17183D01*
X46074Y-17145D01*
X46093Y-17103D01*
X46103Y-17057D01*
X46104Y-17004D01*
X46095Y-16958D01*
X46077Y-16915D01*
X46051Y-16876D01*
X46018Y-16843D01*
X45979Y-16817D01*
X45936Y-16798D01*
X45891Y-16789D01*
X45844Y-16789D01*
X45798Y-16797D01*
X45755Y-16815D01*
X45716Y-16841D01*
X45682Y-16873D01*
X45656Y-16912D01*
X45638Y-16955D01*
X45628Y-17000D01*
X45627Y-17040D01*
X45320Y-17347D01*
X45310Y-17359D01*
X45301Y-17370D01*
X45301Y-17371D01*
X45300Y-17371D01*
X45297Y-17378D01*
X45297Y-17192D01*
X45794Y-16695D01*
X45808Y-16704D01*
X45851Y-16723D01*
X45896Y-16733D01*
X45943Y-16734D01*
X45989Y-16726D01*
X46033Y-16709D01*
X46072Y-16684D01*
X46106Y-16652D01*
X46133Y-16614D01*
X46152Y-16571D01*
X46162Y-16526D01*
X46163Y-16472D01*
X46154Y-16426D01*
X46136Y-16383D01*
X46110Y-16344D01*
X46084Y-16318D01*
X46106Y-16298D01*
X46133Y-16259D01*
X46152Y-16217D01*
X46162Y-16171D01*
X46163Y-16118D01*
X46154Y-16072D01*
X46136Y-16029D01*
X46110Y-15990D01*
X46077Y-15957D01*
X46039Y-15931D01*
X45995Y-15913D01*
X45950Y-15903D01*
X45920Y-15903D01*
X45939Y-15842D01*
X45949Y-15750D01*
X45948Y-15738D01*
X45951Y-15754D01*
X45968Y-15798D01*
X45993Y-15837D01*
X46025Y-15871D01*
X46064Y-15897D01*
X46107Y-15916D01*
X46152Y-15926D01*
X46199Y-15927D01*
X46245Y-15919D01*
X46289Y-15902D01*
X46328Y-15877D01*
X46362Y-15845D01*
X46389Y-15807D01*
X46408Y-15764D01*
X46418Y-15718D01*
X46419Y-15665D01*
X46419Y-17576D01*
X46322Y-17603D01*
X46154Y-17688D01*
X46006Y-17804D01*
X45882Y-17947D01*
X45789Y-18111D01*
X45730Y-18290D01*
X45721Y-18335D01*
X45739Y-18486D01*
X46655Y-18486D01*
X46655Y-18521D01*
X45739Y-18521D01*
X45721Y-18672D01*
X45730Y-18717D01*
X45789Y-18896D01*
X45882Y-19060D01*
X46006Y-19203D01*
X46154Y-19319D01*
X46322Y-19404D01*
X46504Y-19455D01*
X46655Y-19437D01*
X46655Y-19885D01*
X46629Y-19868D01*
X46586Y-19850D01*
X46540Y-19840D01*
X46494Y-19840D01*
X46448Y-19849D01*
X46404Y-19866D01*
X46365Y-19892D01*
X46332Y-19924D01*
X46306Y-19963D01*
X46287Y-20006D01*
X46277Y-20052D01*
X46277Y-20098D01*
X46285Y-20144D01*
X46302Y-20188D01*
X46328Y-20227D01*
X46360Y-20261D01*
X46398Y-20287D01*
X46441Y-20306D01*
X46487Y-20316D01*
X46534Y-20317D01*
X46580Y-20309D01*
X46623Y-20292D01*
X46662Y-20267D01*
X47539Y-20267D01*
X47556Y-20266D01*
X47574Y-20264D01*
X47575Y-20264D01*
X47576Y-20264D01*
X47592Y-20259D01*
X47609Y-20254D01*
X47610Y-20253D01*
X47611Y-20253D01*
X47626Y-20245D01*
X47642Y-20237D01*
X47643Y-20236D01*
X47643Y-20236D01*
X47657Y-20225D01*
X47671Y-20214D01*
X47672Y-20212D01*
X47672Y-20212D01*
X47672Y-20212D01*
X47672Y-20212D01*
X48165Y-19720D01*
X48176Y-19706D01*
X48187Y-19693D01*
X48187Y-19692D01*
X48188Y-19691D01*
X48196Y-19676D01*
X48205Y-19661D01*
X48205Y-19660D01*
X48205Y-19659D01*
X48211Y-19642D01*
X48216Y-19625D01*
X48216Y-19624D01*
X48216Y-19623D01*
X48218Y-19606D01*
X48220Y-19589D01*
X48220Y-19587D01*
X48220Y-19587D01*
X48220Y-19587D01*
X48220Y-19586D01*
X48220Y-17944D01*
X48220Y-17944D01*
X48249Y-17964D01*
X48292Y-17983D01*
X48337Y-17993D01*
X48384Y-17994D01*
X48430Y-17986D01*
X48474Y-17969D01*
X48513Y-17944D01*
X48547Y-17912D01*
X48574Y-17874D01*
X48593Y-17831D01*
X48603Y-17785D01*
X48604Y-17732D01*
X48595Y-17686D01*
X48577Y-17643D01*
X48551Y-17604D01*
X48518Y-17571D01*
X48479Y-17545D01*
X48436Y-17527D01*
X48391Y-17517D01*
X48344Y-17517D01*
X48298Y-17526D01*
X48255Y-17543D01*
X48220Y-17566D01*
X48220Y-15905D01*
X48218Y-15888D01*
X48217Y-15870D01*
X48216Y-15869D01*
X48216Y-15868D01*
X48211Y-15852D01*
X48206Y-15835D01*
X48206Y-15834D01*
X48206Y-15833D01*
X48198Y-15818D01*
X48189Y-15802D01*
X48189Y-15801D01*
X48188Y-15800D01*
X48177Y-15787D01*
X48166Y-15773D01*
X48165Y-15772D01*
X48165Y-15772D01*
X48165Y-15772D01*
X48165Y-15771D01*
X46659Y-14265D01*
X46645Y-14254D01*
X46632Y-14243D01*
X46631Y-14243D01*
X46630Y-14242D01*
X46615Y-14234D01*
X46600Y-14225D01*
X46599Y-14225D01*
X46598Y-14225D01*
X46581Y-14220D01*
X46564Y-14214D01*
X46563Y-14214D01*
X46562Y-14214D01*
X46545Y-14212D01*
X46528Y-14210D01*
X46526Y-14210D01*
X46526Y-14210D01*
X46526Y-14210D01*
X46525Y-14210D01*
X46387Y-14210D01*
X46395Y-14205D01*
X46413Y-14187D01*
X46427Y-14166D01*
X46437Y-14142D01*
X46442Y-14117D01*
X46443Y-14092D01*
X46443Y-13466D01*
X46442Y-13441D01*
X46437Y-13416D01*
X46427Y-13392D01*
X46413Y-13371D01*
X46395Y-13353D01*
X46374Y-13339D01*
X46350Y-13329D01*
X46325Y-13324D01*
X46038Y-13324D01*
X46005Y-13357D01*
X46005Y-13761D01*
X46410Y-13761D01*
X46442Y-13729D01*
X46443Y-13466D01*
X46443Y-14092D01*
X46442Y-13829D01*
X46410Y-13797D01*
X46005Y-13797D01*
X46005Y-13805D01*
X45970Y-13805D01*
X45970Y-13797D01*
X45970Y-13761D01*
X45970Y-13357D01*
X45937Y-13324D01*
X45650Y-13324D01*
X45625Y-13329D01*
X45602Y-13339D01*
X45580Y-13353D01*
X45562Y-13371D01*
X45548Y-13392D01*
X45538Y-13416D01*
X45533Y-13441D01*
X45533Y-13466D01*
X45533Y-13729D01*
X45565Y-13761D01*
X45970Y-13761D01*
X45970Y-13797D01*
X45565Y-13797D01*
X45533Y-13829D01*
X45533Y-14092D01*
X45533Y-14117D01*
X45538Y-14142D01*
X45548Y-14166D01*
X45558Y-14180D01*
X45514Y-14136D01*
X45519Y-14119D01*
X45523Y-14076D01*
X45523Y-13522D01*
X45519Y-13479D01*
X45506Y-13436D01*
X45485Y-13396D01*
X45456Y-13362D01*
X45422Y-13333D01*
X45382Y-13312D01*
X45339Y-13299D01*
X45296Y-13295D01*
X42675Y-13295D01*
X42632Y-13299D01*
X42589Y-13312D01*
X42550Y-13333D01*
X42515Y-13362D01*
X42487Y-13396D01*
X42466Y-13436D01*
X42453Y-13479D01*
X42448Y-13522D01*
X42448Y-14076D01*
X42453Y-14119D01*
X42466Y-14162D01*
X42487Y-14201D01*
X42515Y-14236D01*
X42550Y-14264D01*
X42589Y-14285D01*
X42632Y-14298D01*
X42675Y-14303D01*
X44105Y-14303D01*
X44102Y-14315D01*
X44102Y-14344D01*
X44102Y-14817D01*
X44108Y-14846D01*
X44119Y-14873D01*
X44135Y-14898D01*
X44156Y-14919D01*
X44180Y-14935D01*
X44181Y-14935D01*
X44181Y-15048D01*
X44168Y-15056D01*
X44151Y-15074D01*
X44136Y-15096D01*
X44127Y-15119D01*
X44122Y-15144D01*
X44122Y-15314D01*
X43813Y-15005D01*
X43802Y-14996D01*
X43790Y-14986D01*
X43790Y-14986D01*
X43789Y-14985D01*
X43777Y-14979D01*
X43790Y-14960D01*
X43809Y-14918D01*
X43820Y-14872D01*
X43820Y-14819D01*
X43811Y-14773D01*
X43794Y-14730D01*
X43768Y-14691D01*
X43735Y-14658D01*
X43696Y-14631D01*
X43653Y-14613D01*
X43607Y-14604D01*
X43560Y-14604D01*
X43515Y-14612D01*
X43471Y-14630D01*
X43436Y-14653D01*
X42480Y-14653D01*
X42462Y-14655D01*
X42445Y-14656D01*
X42444Y-14657D01*
X42443Y-14657D01*
X42426Y-14662D01*
X42410Y-14667D01*
X42409Y-14667D01*
X42408Y-14667D01*
X42392Y-14676D01*
X42377Y-14684D01*
X42376Y-14684D01*
X42375Y-14685D01*
X42362Y-14696D01*
X42348Y-14707D01*
X42347Y-14708D01*
X42347Y-14708D01*
X42347Y-14708D01*
X42346Y-14708D01*
X41968Y-15086D01*
X41235Y-15086D01*
X41378Y-15031D01*
X41536Y-14930D01*
X41672Y-14801D01*
X41780Y-14648D01*
X41857Y-14476D01*
X41898Y-14293D01*
X41901Y-14079D01*
X41892Y-14035D01*
X41897Y-14020D01*
X41901Y-13977D01*
X41901Y-13285D01*
X41897Y-13242D01*
X41896Y-13240D01*
X47079Y-13240D01*
X47079Y-13242D01*
X47074Y-13285D01*
X47074Y-13977D01*
X47079Y-14020D01*
X47082Y-14033D01*
X47076Y-14066D01*
X47073Y-14253D01*
X47107Y-14438D01*
X47176Y-14612D01*
X47278Y-14770D01*
X47408Y-14905D01*
X47562Y-15012D01*
X47734Y-15087D01*
X47917Y-15127D01*
X48105Y-15131D01*
X48167Y-15120D01*
X48183Y-15125D01*
X48226Y-15129D01*
X48918Y-15129D01*
X48961Y-15125D01*
X48964Y-15124D01*
X48964Y-20308D01*
G54D10*
G36*
X38925Y-20308D02*
X38922Y-20307D01*
X38879Y-20303D01*
X38187Y-20303D01*
X38144Y-20307D01*
X38130Y-20311D01*
X38092Y-20303D01*
X37904Y-20302D01*
X37720Y-20337D01*
X37546Y-20407D01*
X37389Y-20510D01*
X37255Y-20641D01*
X37149Y-20796D01*
X37075Y-20969D01*
X37036Y-21152D01*
X37034Y-21340D01*
X37044Y-21396D01*
X37039Y-21412D01*
X37035Y-21455D01*
X37035Y-22147D01*
X37039Y-22190D01*
X37040Y-22192D01*
X35887Y-22192D01*
X35887Y-21412D01*
X35870Y-21324D01*
X35836Y-21242D01*
X35787Y-21167D01*
X35724Y-21104D01*
X35650Y-21054D01*
X35568Y-21020D01*
X35480Y-21002D01*
X35391Y-21001D01*
X35304Y-21018D01*
X35221Y-21051D01*
X35146Y-21100D01*
X35083Y-21162D01*
X35032Y-21236D01*
X34997Y-21318D01*
X34978Y-21405D01*
X34977Y-21494D01*
X34993Y-21582D01*
X35026Y-21665D01*
X35074Y-21740D01*
X35136Y-21804D01*
X35210Y-21855D01*
X35291Y-21891D01*
X35378Y-21910D01*
X35468Y-21912D01*
X35555Y-21896D01*
X35639Y-21864D01*
X35714Y-21816D01*
X35778Y-21755D01*
X35830Y-21682D01*
X35866Y-21600D01*
X35886Y-21513D01*
X35887Y-21412D01*
X35887Y-22192D01*
X34925Y-22192D01*
X34925Y-21458D01*
X34916Y-21366D01*
X34890Y-21277D01*
X34847Y-21194D01*
X34844Y-21191D01*
X34775Y-21155D01*
X34750Y-21180D01*
X34750Y-21130D01*
X34714Y-21060D01*
X34632Y-21016D01*
X34543Y-20989D01*
X34451Y-20979D01*
X34358Y-20988D01*
X34269Y-21015D01*
X34186Y-21058D01*
X34183Y-21060D01*
X34147Y-21130D01*
X34448Y-21431D01*
X34750Y-21130D01*
X34750Y-21180D01*
X34473Y-21456D01*
X34775Y-21758D01*
X34844Y-21722D01*
X34888Y-21640D01*
X34916Y-21551D01*
X34925Y-21458D01*
X34925Y-22192D01*
X34750Y-22192D01*
X34750Y-21783D01*
X34448Y-21481D01*
X34423Y-21506D01*
X34423Y-21456D01*
X34122Y-21155D01*
X34053Y-21191D01*
X34008Y-21272D01*
X33981Y-21361D01*
X33972Y-21454D01*
X33980Y-21547D01*
X34007Y-21636D01*
X34050Y-21718D01*
X34053Y-21722D01*
X34122Y-21758D01*
X34423Y-21456D01*
X34423Y-21506D01*
X34147Y-21783D01*
X34183Y-21852D01*
X34265Y-21896D01*
X34354Y-21923D01*
X34446Y-21933D01*
X34539Y-21924D01*
X34628Y-21898D01*
X34710Y-21854D01*
X34714Y-21852D01*
X34750Y-21783D01*
X34750Y-22192D01*
X33919Y-22192D01*
X33919Y-21412D01*
X33901Y-21324D01*
X33868Y-21242D01*
X33818Y-21167D01*
X33755Y-21104D01*
X33681Y-21054D01*
X33599Y-21020D01*
X33512Y-21002D01*
X33423Y-21001D01*
X33335Y-21018D01*
X33252Y-21051D01*
X33215Y-21076D01*
X33215Y-18672D01*
X33197Y-18521D01*
X32281Y-18521D01*
X32281Y-19437D01*
X32432Y-19455D01*
X32614Y-19404D01*
X32782Y-19319D01*
X32930Y-19203D01*
X33054Y-19060D01*
X33147Y-18896D01*
X33206Y-18717D01*
X33215Y-18672D01*
X33215Y-21076D01*
X33178Y-21100D01*
X33114Y-21162D01*
X33064Y-21236D01*
X33029Y-21318D01*
X33010Y-21405D01*
X33009Y-21494D01*
X33025Y-21582D01*
X33058Y-21665D01*
X33106Y-21740D01*
X33168Y-21804D01*
X33241Y-21855D01*
X33323Y-21891D01*
X33410Y-21910D01*
X33499Y-21912D01*
X33587Y-21896D01*
X33670Y-21864D01*
X33745Y-21816D01*
X33810Y-21755D01*
X33861Y-21682D01*
X33898Y-21600D01*
X33917Y-21513D01*
X33919Y-21412D01*
X33919Y-22192D01*
X32246Y-22192D01*
X32246Y-19437D01*
X32246Y-18521D01*
X31329Y-18521D01*
X31312Y-18672D01*
X31321Y-18717D01*
X31380Y-18896D01*
X31473Y-19060D01*
X31596Y-19203D01*
X31745Y-19319D01*
X31913Y-19404D01*
X32095Y-19455D01*
X32246Y-19437D01*
X32246Y-22192D01*
X31862Y-22192D01*
X31862Y-21228D01*
X31861Y-21228D01*
X31862Y-21166D01*
X31825Y-20981D01*
X31754Y-20808D01*
X31650Y-20652D01*
X31518Y-20519D01*
X31362Y-20414D01*
X31189Y-20341D01*
X31005Y-20303D01*
X30937Y-20303D01*
X30937Y-20303D01*
X30914Y-20303D01*
X30818Y-20302D01*
X30814Y-20303D01*
X30632Y-20303D01*
X29972Y-20303D01*
X29972Y-15124D01*
X29975Y-15125D01*
X30018Y-15129D01*
X30550Y-15129D01*
X30537Y-15140D01*
X30536Y-15141D01*
X30536Y-15141D01*
X30536Y-15141D01*
X30535Y-15141D01*
X30354Y-15322D01*
X29988Y-15322D01*
X29988Y-16960D01*
X30258Y-16960D01*
X30244Y-16964D01*
X30180Y-16999D01*
X30155Y-17059D01*
X30393Y-17297D01*
X30399Y-17292D01*
X30424Y-17317D01*
X30418Y-17322D01*
X30424Y-17328D01*
X30399Y-17353D01*
X30393Y-17347D01*
X30368Y-17372D01*
X30368Y-17322D01*
X30130Y-17084D01*
X30069Y-17109D01*
X30034Y-17176D01*
X30013Y-17248D01*
X30006Y-17324D01*
X30013Y-17399D01*
X30035Y-17471D01*
X30069Y-17536D01*
X30130Y-17561D01*
X30368Y-17322D01*
X30368Y-17372D01*
X30155Y-17586D01*
X30180Y-17646D01*
X30247Y-17681D01*
X30319Y-17703D01*
X30395Y-17710D01*
X30470Y-17702D01*
X30542Y-17680D01*
X30607Y-17646D01*
X30632Y-17586D01*
X30632Y-17586D01*
X30655Y-17609D01*
X30661Y-17603D01*
X30664Y-17613D01*
X30668Y-17628D01*
X30669Y-17628D01*
X30669Y-17629D01*
X30676Y-17642D01*
X30683Y-17655D01*
X30683Y-17656D01*
X30684Y-17657D01*
X30693Y-17668D01*
X30702Y-17680D01*
X30703Y-17681D01*
X30703Y-17681D01*
X30703Y-17681D01*
X30704Y-17681D01*
X30923Y-17900D01*
X30922Y-17913D01*
X30931Y-17959D01*
X30942Y-17988D01*
X30922Y-17996D01*
X30883Y-18022D01*
X30850Y-18054D01*
X30823Y-18093D01*
X30805Y-18136D01*
X30795Y-18181D01*
X30794Y-18228D01*
X30803Y-18274D01*
X30820Y-18318D01*
X30845Y-18357D01*
X30874Y-18386D01*
X30874Y-18641D01*
X30850Y-18665D01*
X30823Y-18703D01*
X30805Y-18746D01*
X30795Y-18792D01*
X30794Y-18838D01*
X30803Y-18884D01*
X30820Y-18928D01*
X30845Y-18967D01*
X30878Y-19001D01*
X30916Y-19027D01*
X30959Y-19046D01*
X31005Y-19056D01*
X31051Y-19057D01*
X31097Y-19049D01*
X31141Y-19032D01*
X31180Y-19007D01*
X31214Y-18975D01*
X31241Y-18937D01*
X31260Y-18894D01*
X31270Y-18848D01*
X31271Y-18795D01*
X31262Y-18749D01*
X31244Y-18706D01*
X31218Y-18667D01*
X31192Y-18641D01*
X31192Y-18385D01*
X31214Y-18365D01*
X31241Y-18326D01*
X31260Y-18284D01*
X31270Y-18238D01*
X31271Y-18185D01*
X31262Y-18139D01*
X31252Y-18114D01*
X31269Y-18107D01*
X31308Y-18082D01*
X31342Y-18050D01*
X31369Y-18011D01*
X31388Y-17969D01*
X31398Y-17923D01*
X31399Y-17870D01*
X31390Y-17824D01*
X31372Y-17781D01*
X31350Y-17748D01*
X31625Y-17748D01*
X31625Y-17659D01*
X31802Y-17659D01*
X31745Y-17688D01*
X31596Y-17804D01*
X31473Y-17947D01*
X31380Y-18111D01*
X31321Y-18290D01*
X31312Y-18335D01*
X31329Y-18486D01*
X32246Y-18486D01*
X32246Y-18478D01*
X32281Y-18478D01*
X32281Y-18486D01*
X33197Y-18486D01*
X33215Y-18335D01*
X33206Y-18290D01*
X33147Y-18111D01*
X33054Y-17947D01*
X32930Y-17804D01*
X32782Y-17688D01*
X32725Y-17659D01*
X33339Y-17659D01*
X33344Y-17664D01*
X33344Y-17697D01*
X33352Y-17743D01*
X33369Y-17786D01*
X33395Y-17825D01*
X33427Y-17859D01*
X33465Y-17886D01*
X33508Y-17904D01*
X33554Y-17914D01*
X33601Y-17915D01*
X33647Y-17907D01*
X33690Y-17890D01*
X33730Y-17865D01*
X33763Y-17833D01*
X33790Y-17795D01*
X33809Y-17752D01*
X33820Y-17707D01*
X33820Y-17653D01*
X33811Y-17607D01*
X33794Y-17564D01*
X33768Y-17525D01*
X33735Y-17492D01*
X33696Y-17466D01*
X33653Y-17448D01*
X33607Y-17439D01*
X33569Y-17438D01*
X33518Y-17387D01*
X33506Y-17377D01*
X33495Y-17368D01*
X33494Y-17368D01*
X33494Y-17367D01*
X33481Y-17360D01*
X33468Y-17353D01*
X33467Y-17353D01*
X33466Y-17352D01*
X33452Y-17348D01*
X33438Y-17344D01*
X33437Y-17343D01*
X33437Y-17343D01*
X33422Y-17342D01*
X33407Y-17340D01*
X33406Y-17340D01*
X33406Y-17340D01*
X33406Y-17340D01*
X33405Y-17340D01*
X31625Y-17340D01*
X31625Y-15907D01*
X31850Y-15907D01*
X31865Y-15906D01*
X31879Y-15904D01*
X31880Y-15904D01*
X31881Y-15904D01*
X31895Y-15900D01*
X31909Y-15896D01*
X31910Y-15895D01*
X31911Y-15895D01*
X31924Y-15888D01*
X31937Y-15881D01*
X31937Y-15881D01*
X31938Y-15880D01*
X31950Y-15871D01*
X31961Y-15862D01*
X31962Y-15861D01*
X31962Y-15861D01*
X31962Y-15861D01*
X31963Y-15860D01*
X32546Y-15277D01*
X33595Y-15277D01*
X33650Y-15333D01*
X33599Y-15311D01*
X33512Y-15293D01*
X33423Y-15292D01*
X33335Y-15309D01*
X33252Y-15343D01*
X33178Y-15391D01*
X33114Y-15454D01*
X33064Y-15527D01*
X33029Y-15609D01*
X33010Y-15697D01*
X33009Y-15786D01*
X33025Y-15873D01*
X33058Y-15956D01*
X33106Y-16031D01*
X33168Y-16095D01*
X33241Y-16146D01*
X33323Y-16182D01*
X33410Y-16201D01*
X33499Y-16203D01*
X33587Y-16188D01*
X33670Y-16155D01*
X33745Y-16108D01*
X33810Y-16046D01*
X33861Y-15973D01*
X33898Y-15892D01*
X33908Y-15846D01*
X34003Y-15941D01*
X33983Y-15949D01*
X33944Y-15974D01*
X33911Y-16007D01*
X33884Y-16046D01*
X33866Y-16089D01*
X33856Y-16134D01*
X33231Y-16759D01*
X33196Y-16759D01*
X33150Y-16768D01*
X33107Y-16785D01*
X33068Y-16811D01*
X33035Y-16844D01*
X33008Y-16882D01*
X32990Y-16925D01*
X32980Y-16971D01*
X32980Y-17018D01*
X32988Y-17064D01*
X33005Y-17107D01*
X33030Y-17146D01*
X33063Y-17180D01*
X33101Y-17206D01*
X33144Y-17225D01*
X33190Y-17235D01*
X33236Y-17236D01*
X33282Y-17228D01*
X33326Y-17211D01*
X33365Y-17186D01*
X33399Y-17154D01*
X33426Y-17116D01*
X33445Y-17073D01*
X33455Y-17028D01*
X33456Y-16985D01*
X34047Y-16394D01*
X34066Y-16399D01*
X34112Y-16400D01*
X34158Y-16391D01*
X34177Y-16384D01*
X33903Y-16658D01*
X33893Y-16670D01*
X33884Y-16681D01*
X33883Y-16682D01*
X33883Y-16682D01*
X33876Y-16695D01*
X33869Y-16708D01*
X33868Y-16709D01*
X33868Y-16710D01*
X33864Y-16724D01*
X33859Y-16738D01*
X33859Y-16739D01*
X33859Y-16740D01*
X33857Y-16754D01*
X33856Y-16769D01*
X33856Y-16771D01*
X33856Y-16771D01*
X33856Y-16771D01*
X33856Y-16771D01*
X33856Y-18799D01*
X33857Y-18813D01*
X33859Y-18828D01*
X33859Y-18829D01*
X33859Y-18830D01*
X33863Y-18844D01*
X33867Y-18858D01*
X33868Y-18859D01*
X33868Y-18859D01*
X33875Y-18872D01*
X33882Y-18886D01*
X33882Y-18886D01*
X33882Y-18887D01*
X33892Y-18898D01*
X33895Y-18903D01*
X33895Y-18937D01*
X33903Y-18983D01*
X33920Y-19026D01*
X33946Y-19065D01*
X33978Y-19099D01*
X34017Y-19126D01*
X34059Y-19144D01*
X34105Y-19154D01*
X34152Y-19155D01*
X34198Y-19147D01*
X34241Y-19130D01*
X34281Y-19105D01*
X34315Y-19073D01*
X34341Y-19035D01*
X34360Y-18992D01*
X34371Y-18947D01*
X34372Y-18893D01*
X34362Y-18848D01*
X34345Y-18804D01*
X34319Y-18766D01*
X34286Y-18732D01*
X34247Y-18706D01*
X34204Y-18688D01*
X34175Y-18682D01*
X34175Y-16837D01*
X34472Y-16539D01*
X34482Y-16528D01*
X34491Y-16517D01*
X34492Y-16516D01*
X34492Y-16515D01*
X34499Y-16502D01*
X34506Y-16489D01*
X34507Y-16489D01*
X34507Y-16488D01*
X34511Y-16474D01*
X34516Y-16460D01*
X34516Y-16459D01*
X34516Y-16458D01*
X34518Y-16444D01*
X34519Y-16429D01*
X34519Y-16427D01*
X34519Y-16427D01*
X34519Y-16427D01*
X34519Y-16427D01*
X34519Y-16072D01*
X34518Y-16058D01*
X34516Y-16043D01*
X34516Y-16042D01*
X34516Y-16041D01*
X34512Y-16027D01*
X34508Y-16013D01*
X34507Y-16012D01*
X34507Y-16012D01*
X34500Y-15999D01*
X34493Y-15985D01*
X34493Y-15985D01*
X34493Y-15984D01*
X34483Y-15973D01*
X34474Y-15961D01*
X34473Y-15960D01*
X34473Y-15960D01*
X34473Y-15960D01*
X34472Y-15960D01*
X34272Y-15759D01*
X34398Y-15759D01*
X34431Y-15726D01*
X34431Y-15411D01*
X34423Y-15411D01*
X34423Y-15405D01*
X34755Y-15405D01*
X34755Y-15375D01*
X34782Y-15375D01*
X34814Y-15343D01*
X34814Y-15144D01*
X34809Y-15119D01*
X34800Y-15096D01*
X34785Y-15074D01*
X34768Y-15056D01*
X34755Y-15048D01*
X34755Y-14935D01*
X34779Y-14919D01*
X34800Y-14899D01*
X34817Y-14874D01*
X34828Y-14847D01*
X34834Y-14819D01*
X34834Y-14789D01*
X34834Y-14766D01*
X36334Y-14766D01*
X37183Y-15614D01*
X37183Y-17027D01*
X37159Y-17050D01*
X37132Y-17089D01*
X37114Y-17132D01*
X37104Y-17178D01*
X37104Y-17224D01*
X37112Y-17270D01*
X37129Y-17314D01*
X37154Y-17353D01*
X37187Y-17386D01*
X37225Y-17413D01*
X37268Y-17432D01*
X37314Y-17442D01*
X37360Y-17443D01*
X37406Y-17435D01*
X37450Y-17418D01*
X37489Y-17393D01*
X37523Y-17361D01*
X37550Y-17322D01*
X37569Y-17280D01*
X37579Y-17234D01*
X37580Y-17181D01*
X37571Y-17135D01*
X37553Y-17092D01*
X37527Y-17053D01*
X37501Y-17027D01*
X37501Y-15682D01*
X37803Y-15983D01*
X37803Y-17755D01*
X37803Y-19508D01*
X37585Y-19725D01*
X37585Y-18672D01*
X37585Y-18335D01*
X37576Y-18290D01*
X37517Y-18111D01*
X37424Y-17947D01*
X37301Y-17804D01*
X37152Y-17688D01*
X36984Y-17603D01*
X36802Y-17552D01*
X36651Y-17570D01*
X36651Y-18486D01*
X37567Y-18486D01*
X37585Y-18335D01*
X37585Y-18672D01*
X37567Y-18521D01*
X36651Y-18521D01*
X36651Y-19437D01*
X36802Y-19455D01*
X36984Y-19404D01*
X37152Y-19319D01*
X37301Y-19203D01*
X37424Y-19060D01*
X37517Y-18896D01*
X37576Y-18717D01*
X37585Y-18672D01*
X37585Y-19725D01*
X37421Y-19889D01*
X36622Y-19889D01*
X36616Y-19885D01*
X36616Y-19437D01*
X36616Y-18521D01*
X36616Y-18486D01*
X36616Y-17570D01*
X36465Y-17552D01*
X36379Y-17576D01*
X36379Y-15665D01*
X36370Y-15619D01*
X36353Y-15576D01*
X36327Y-15537D01*
X36301Y-15511D01*
X36301Y-15334D01*
X36299Y-15319D01*
X36298Y-15305D01*
X36298Y-15304D01*
X36298Y-15303D01*
X36293Y-15289D01*
X36289Y-15275D01*
X36289Y-15274D01*
X36289Y-15273D01*
X36282Y-15260D01*
X36275Y-15247D01*
X36274Y-15247D01*
X36274Y-15246D01*
X36265Y-15234D01*
X36256Y-15223D01*
X36254Y-15222D01*
X36254Y-15222D01*
X36254Y-15222D01*
X36254Y-15221D01*
X36037Y-15005D01*
X36026Y-14996D01*
X36015Y-14986D01*
X36014Y-14986D01*
X36013Y-14985D01*
X36000Y-14978D01*
X35988Y-14971D01*
X35987Y-14971D01*
X35986Y-14970D01*
X35972Y-14966D01*
X35958Y-14962D01*
X35957Y-14962D01*
X35956Y-14961D01*
X35942Y-14960D01*
X35927Y-14958D01*
X35925Y-14958D01*
X35925Y-14958D01*
X35925Y-14958D01*
X35925Y-14958D01*
X35649Y-14958D01*
X35625Y-14933D01*
X35586Y-14907D01*
X35543Y-14889D01*
X35497Y-14880D01*
X35450Y-14879D01*
X35404Y-14888D01*
X35361Y-14906D01*
X35322Y-14931D01*
X35289Y-14964D01*
X35262Y-15002D01*
X35244Y-15045D01*
X35234Y-15091D01*
X35233Y-15138D01*
X35242Y-15184D01*
X35259Y-15227D01*
X35284Y-15266D01*
X35307Y-15290D01*
X35253Y-15306D01*
X35171Y-15349D01*
X35167Y-15352D01*
X35131Y-15421D01*
X35433Y-15722D01*
X35734Y-15421D01*
X35698Y-15352D01*
X35617Y-15308D01*
X35619Y-15306D01*
X35650Y-15277D01*
X35859Y-15277D01*
X35982Y-15400D01*
X35982Y-15511D01*
X35958Y-15535D01*
X35931Y-15573D01*
X35913Y-15616D01*
X35903Y-15662D01*
X35903Y-15683D01*
X35901Y-15657D01*
X35874Y-15568D01*
X35831Y-15486D01*
X35828Y-15482D01*
X35759Y-15446D01*
X35458Y-15748D01*
X35463Y-15753D01*
X35438Y-15778D01*
X35433Y-15773D01*
X35408Y-15798D01*
X35408Y-15748D01*
X35106Y-15446D01*
X35037Y-15482D01*
X34993Y-15564D01*
X34965Y-15653D01*
X34956Y-15745D01*
X34965Y-15838D01*
X34991Y-15927D01*
X35034Y-16009D01*
X35037Y-16013D01*
X35106Y-16049D01*
X35408Y-15748D01*
X35408Y-15798D01*
X35131Y-16074D01*
X35167Y-16143D01*
X35249Y-16187D01*
X35287Y-16199D01*
X34814Y-16672D01*
X34814Y-15642D01*
X34814Y-15443D01*
X34782Y-15411D01*
X34466Y-15411D01*
X34466Y-15726D01*
X34499Y-15759D01*
X34672Y-15759D01*
X34698Y-15759D01*
X34723Y-15754D01*
X34746Y-15744D01*
X34768Y-15729D01*
X34785Y-15711D01*
X34800Y-15690D01*
X34809Y-15667D01*
X34814Y-15642D01*
X34814Y-16672D01*
X34710Y-16777D01*
X34700Y-16788D01*
X34691Y-16799D01*
X34690Y-16800D01*
X34690Y-16801D01*
X34683Y-16814D01*
X34676Y-16826D01*
X34676Y-16827D01*
X34675Y-16828D01*
X34671Y-16842D01*
X34666Y-16856D01*
X34666Y-16857D01*
X34666Y-16858D01*
X34665Y-16872D01*
X34663Y-16887D01*
X34663Y-16889D01*
X34663Y-16889D01*
X34663Y-16889D01*
X34663Y-16889D01*
X34663Y-17873D01*
X34639Y-17897D01*
X34613Y-17935D01*
X34594Y-17978D01*
X34584Y-18024D01*
X34584Y-18071D01*
X34592Y-18117D01*
X34609Y-18160D01*
X34635Y-18199D01*
X34667Y-18233D01*
X34706Y-18260D01*
X34748Y-18278D01*
X34794Y-18288D01*
X34831Y-18289D01*
X34776Y-18344D01*
X34742Y-18344D01*
X34696Y-18353D01*
X34652Y-18370D01*
X34613Y-18396D01*
X34580Y-18428D01*
X34554Y-18467D01*
X34535Y-18510D01*
X34525Y-18555D01*
X34525Y-18602D01*
X34533Y-18648D01*
X34550Y-18692D01*
X34576Y-18731D01*
X34608Y-18764D01*
X34647Y-18791D01*
X34689Y-18810D01*
X34735Y-18820D01*
X34782Y-18821D01*
X34828Y-18813D01*
X34871Y-18796D01*
X34911Y-18771D01*
X34944Y-18739D01*
X34971Y-18700D01*
X34990Y-18658D01*
X35001Y-18612D01*
X35001Y-18570D01*
X35211Y-18360D01*
X35220Y-18349D01*
X35227Y-18340D01*
X35238Y-18351D01*
X35276Y-18378D01*
X35319Y-18396D01*
X35365Y-18406D01*
X35412Y-18407D01*
X35458Y-18399D01*
X35501Y-18382D01*
X35541Y-18357D01*
X35574Y-18325D01*
X35601Y-18287D01*
X35620Y-18244D01*
X35631Y-18199D01*
X35631Y-18145D01*
X35622Y-18100D01*
X35605Y-18056D01*
X35579Y-18018D01*
X35553Y-17991D01*
X35553Y-17526D01*
X35814Y-17265D01*
X35845Y-17266D01*
X35891Y-17258D01*
X35934Y-17241D01*
X35974Y-17216D01*
X36007Y-17183D01*
X36034Y-17145D01*
X36053Y-17103D01*
X36064Y-17057D01*
X36064Y-17004D01*
X36055Y-16958D01*
X36038Y-16915D01*
X36012Y-16876D01*
X35979Y-16843D01*
X35940Y-16817D01*
X35897Y-16798D01*
X35851Y-16789D01*
X35805Y-16789D01*
X35759Y-16797D01*
X35715Y-16815D01*
X35676Y-16841D01*
X35643Y-16873D01*
X35617Y-16912D01*
X35598Y-16955D01*
X35588Y-17000D01*
X35588Y-17040D01*
X35280Y-17347D01*
X35271Y-17359D01*
X35262Y-17370D01*
X35261Y-17371D01*
X35261Y-17371D01*
X35257Y-17378D01*
X35257Y-17192D01*
X35754Y-16695D01*
X35769Y-16704D01*
X35811Y-16723D01*
X35857Y-16733D01*
X35904Y-16734D01*
X35950Y-16726D01*
X35993Y-16709D01*
X36033Y-16684D01*
X36067Y-16652D01*
X36093Y-16614D01*
X36112Y-16571D01*
X36123Y-16526D01*
X36124Y-16472D01*
X36114Y-16426D01*
X36097Y-16383D01*
X36071Y-16344D01*
X36045Y-16318D01*
X36067Y-16298D01*
X36093Y-16259D01*
X36112Y-16217D01*
X36123Y-16171D01*
X36124Y-16118D01*
X36114Y-16072D01*
X36097Y-16029D01*
X36071Y-15990D01*
X36038Y-15957D01*
X35999Y-15931D01*
X35956Y-15913D01*
X35910Y-15903D01*
X35881Y-15903D01*
X35900Y-15842D01*
X35909Y-15750D01*
X35908Y-15738D01*
X35911Y-15754D01*
X35928Y-15798D01*
X35954Y-15837D01*
X35986Y-15871D01*
X36024Y-15897D01*
X36067Y-15916D01*
X36113Y-15926D01*
X36160Y-15927D01*
X36206Y-15919D01*
X36249Y-15902D01*
X36289Y-15877D01*
X36322Y-15845D01*
X36349Y-15807D01*
X36368Y-15764D01*
X36379Y-15718D01*
X36379Y-15665D01*
X36379Y-17576D01*
X36283Y-17603D01*
X36115Y-17688D01*
X35966Y-17804D01*
X35843Y-17947D01*
X35750Y-18111D01*
X35691Y-18290D01*
X35682Y-18335D01*
X35699Y-18486D01*
X36616Y-18486D01*
X36616Y-18521D01*
X35699Y-18521D01*
X35682Y-18672D01*
X35691Y-18717D01*
X35750Y-18896D01*
X35843Y-19060D01*
X35966Y-19203D01*
X36115Y-19319D01*
X36283Y-19404D01*
X36465Y-19455D01*
X36616Y-19437D01*
X36616Y-19885D01*
X36590Y-19868D01*
X36547Y-19850D01*
X36501Y-19840D01*
X36454Y-19840D01*
X36408Y-19849D01*
X36365Y-19866D01*
X36326Y-19892D01*
X36293Y-19924D01*
X36266Y-19963D01*
X36248Y-20006D01*
X36238Y-20052D01*
X36237Y-20098D01*
X36246Y-20144D01*
X36263Y-20188D01*
X36288Y-20227D01*
X36321Y-20261D01*
X36359Y-20287D01*
X36402Y-20306D01*
X36448Y-20316D01*
X36494Y-20317D01*
X36540Y-20309D01*
X36584Y-20292D01*
X36623Y-20267D01*
X37500Y-20267D01*
X37517Y-20266D01*
X37534Y-20264D01*
X37535Y-20264D01*
X37536Y-20264D01*
X37553Y-20259D01*
X37570Y-20254D01*
X37571Y-20253D01*
X37572Y-20253D01*
X37587Y-20245D01*
X37602Y-20237D01*
X37603Y-20236D01*
X37604Y-20236D01*
X37618Y-20225D01*
X37631Y-20214D01*
X37633Y-20212D01*
X37633Y-20212D01*
X37633Y-20212D01*
X37633Y-20212D01*
X38125Y-19720D01*
X38136Y-19706D01*
X38148Y-19693D01*
X38148Y-19692D01*
X38149Y-19691D01*
X38157Y-19676D01*
X38165Y-19661D01*
X38166Y-19660D01*
X38166Y-19659D01*
X38171Y-19642D01*
X38176Y-19625D01*
X38177Y-19624D01*
X38177Y-19623D01*
X38179Y-19606D01*
X38181Y-19589D01*
X38181Y-19587D01*
X38181Y-19587D01*
X38181Y-19587D01*
X38181Y-19586D01*
X38181Y-17944D01*
X38181Y-17944D01*
X38210Y-17964D01*
X38252Y-17983D01*
X38298Y-17993D01*
X38345Y-17994D01*
X38391Y-17986D01*
X38434Y-17969D01*
X38474Y-17944D01*
X38507Y-17912D01*
X38534Y-17874D01*
X38553Y-17831D01*
X38564Y-17785D01*
X38564Y-17732D01*
X38555Y-17686D01*
X38538Y-17643D01*
X38512Y-17604D01*
X38479Y-17571D01*
X38440Y-17545D01*
X38397Y-17527D01*
X38351Y-17517D01*
X38305Y-17517D01*
X38259Y-17526D01*
X38215Y-17543D01*
X38181Y-17566D01*
X38181Y-15905D01*
X38179Y-15888D01*
X38177Y-15870D01*
X38177Y-15869D01*
X38177Y-15868D01*
X38172Y-15852D01*
X38167Y-15835D01*
X38167Y-15834D01*
X38166Y-15833D01*
X38158Y-15818D01*
X38150Y-15802D01*
X38149Y-15801D01*
X38149Y-15800D01*
X38138Y-15787D01*
X38127Y-15773D01*
X38126Y-15772D01*
X38126Y-15772D01*
X38126Y-15772D01*
X38125Y-15771D01*
X36619Y-14265D01*
X36606Y-14254D01*
X36592Y-14243D01*
X36592Y-14243D01*
X36591Y-14242D01*
X36575Y-14234D01*
X36560Y-14225D01*
X36559Y-14225D01*
X36558Y-14225D01*
X36542Y-14220D01*
X36525Y-14214D01*
X36524Y-14214D01*
X36523Y-14214D01*
X36506Y-14212D01*
X36488Y-14210D01*
X36486Y-14210D01*
X36486Y-14210D01*
X36486Y-14210D01*
X36486Y-14210D01*
X36348Y-14210D01*
X36356Y-14205D01*
X36374Y-14187D01*
X36388Y-14166D01*
X36398Y-14142D01*
X36403Y-14117D01*
X36403Y-14092D01*
X36403Y-13466D01*
X36403Y-13441D01*
X36398Y-13416D01*
X36388Y-13392D01*
X36374Y-13371D01*
X36356Y-13353D01*
X36334Y-13339D01*
X36311Y-13329D01*
X36286Y-13324D01*
X35999Y-13324D01*
X35966Y-13357D01*
X35966Y-13761D01*
X36371Y-13761D01*
X36403Y-13729D01*
X36403Y-13466D01*
X36403Y-14092D01*
X36403Y-13829D01*
X36371Y-13797D01*
X35966Y-13797D01*
X35966Y-13805D01*
X35931Y-13805D01*
X35931Y-13797D01*
X35931Y-13761D01*
X35931Y-13357D01*
X35898Y-13324D01*
X35611Y-13324D01*
X35586Y-13329D01*
X35562Y-13339D01*
X35541Y-13353D01*
X35523Y-13371D01*
X35509Y-13392D01*
X35499Y-13416D01*
X35494Y-13441D01*
X35494Y-13466D01*
X35494Y-13729D01*
X35526Y-13761D01*
X35931Y-13761D01*
X35931Y-13797D01*
X35526Y-13797D01*
X35494Y-13829D01*
X35494Y-14092D01*
X35494Y-14117D01*
X35499Y-14142D01*
X35509Y-14166D01*
X35518Y-14180D01*
X35474Y-14136D01*
X35480Y-14119D01*
X35484Y-14076D01*
X35484Y-13522D01*
X35480Y-13479D01*
X35467Y-13436D01*
X35445Y-13396D01*
X35417Y-13362D01*
X35382Y-13333D01*
X35343Y-13312D01*
X35300Y-13299D01*
X35257Y-13295D01*
X32636Y-13295D01*
X32593Y-13299D01*
X32550Y-13312D01*
X32510Y-13333D01*
X32476Y-13362D01*
X32447Y-13396D01*
X32426Y-13436D01*
X32413Y-13479D01*
X32409Y-13522D01*
X32409Y-14076D01*
X32413Y-14119D01*
X32426Y-14162D01*
X32447Y-14201D01*
X32476Y-14236D01*
X32510Y-14264D01*
X32550Y-14285D01*
X32593Y-14298D01*
X32636Y-14303D01*
X34065Y-14303D01*
X34063Y-14315D01*
X34063Y-14344D01*
X34063Y-14817D01*
X34068Y-14846D01*
X34080Y-14873D01*
X34096Y-14898D01*
X34116Y-14919D01*
X34141Y-14935D01*
X34141Y-14935D01*
X34141Y-15048D01*
X34129Y-15056D01*
X34111Y-15074D01*
X34097Y-15096D01*
X34087Y-15119D01*
X34082Y-15144D01*
X34082Y-15314D01*
X33774Y-15005D01*
X33762Y-14996D01*
X33751Y-14986D01*
X33750Y-14986D01*
X33750Y-14985D01*
X33738Y-14979D01*
X33751Y-14960D01*
X33770Y-14918D01*
X33780Y-14872D01*
X33781Y-14819D01*
X33772Y-14773D01*
X33754Y-14730D01*
X33728Y-14691D01*
X33695Y-14658D01*
X33657Y-14631D01*
X33614Y-14613D01*
X33568Y-14604D01*
X33521Y-14604D01*
X33475Y-14612D01*
X33432Y-14630D01*
X33397Y-14653D01*
X32440Y-14653D01*
X32423Y-14655D01*
X32406Y-14656D01*
X32405Y-14657D01*
X32404Y-14657D01*
X32387Y-14662D01*
X32370Y-14667D01*
X32369Y-14667D01*
X32368Y-14667D01*
X32353Y-14676D01*
X32338Y-14684D01*
X32337Y-14684D01*
X32336Y-14685D01*
X32322Y-14696D01*
X32309Y-14707D01*
X32307Y-14708D01*
X32307Y-14708D01*
X32307Y-14708D01*
X32307Y-14708D01*
X31929Y-15086D01*
X31196Y-15086D01*
X31338Y-15031D01*
X31497Y-14930D01*
X31633Y-14801D01*
X31741Y-14648D01*
X31817Y-14476D01*
X31859Y-14293D01*
X31862Y-14079D01*
X31853Y-14035D01*
X31857Y-14020D01*
X31862Y-13977D01*
X31862Y-13285D01*
X31857Y-13242D01*
X31857Y-13240D01*
X37040Y-13240D01*
X37039Y-13242D01*
X37035Y-13285D01*
X37035Y-13977D01*
X37039Y-14020D01*
X37043Y-14033D01*
X37036Y-14066D01*
X37034Y-14253D01*
X37068Y-14438D01*
X37137Y-14612D01*
X37238Y-14770D01*
X37369Y-14905D01*
X37523Y-15012D01*
X37695Y-15087D01*
X37878Y-15127D01*
X38065Y-15131D01*
X38128Y-15120D01*
X38144Y-15125D01*
X38187Y-15129D01*
X38879Y-15129D01*
X38922Y-15125D01*
X38925Y-15124D01*
X38925Y-20308D01*
X38925Y-20308D01*
G37*
G54D24*
X38925Y-20308D02*
X38922Y-20307D01*
X38879Y-20303D01*
X38187Y-20303D01*
X38144Y-20307D01*
X38130Y-20311D01*
X38092Y-20303D01*
X37904Y-20302D01*
X37720Y-20337D01*
X37546Y-20407D01*
X37389Y-20510D01*
X37255Y-20641D01*
X37149Y-20796D01*
X37075Y-20969D01*
X37036Y-21152D01*
X37034Y-21340D01*
X37044Y-21396D01*
X37039Y-21412D01*
X37035Y-21455D01*
X37035Y-22147D01*
X37039Y-22190D01*
X37040Y-22192D01*
X35887Y-22192D01*
X35887Y-21412D01*
X35870Y-21324D01*
X35836Y-21242D01*
X35787Y-21167D01*
X35724Y-21104D01*
X35650Y-21054D01*
X35568Y-21020D01*
X35480Y-21002D01*
X35391Y-21001D01*
X35304Y-21018D01*
X35221Y-21051D01*
X35146Y-21100D01*
X35083Y-21162D01*
X35032Y-21236D01*
X34997Y-21318D01*
X34978Y-21405D01*
X34977Y-21494D01*
X34993Y-21582D01*
X35026Y-21665D01*
X35074Y-21740D01*
X35136Y-21804D01*
X35210Y-21855D01*
X35291Y-21891D01*
X35378Y-21910D01*
X35468Y-21912D01*
X35555Y-21896D01*
X35639Y-21864D01*
X35714Y-21816D01*
X35778Y-21755D01*
X35830Y-21682D01*
X35866Y-21600D01*
X35886Y-21513D01*
X35887Y-21412D01*
X35887Y-22192D01*
X34925Y-22192D01*
X34925Y-21458D01*
X34916Y-21366D01*
X34890Y-21277D01*
X34847Y-21194D01*
X34844Y-21191D01*
X34775Y-21155D01*
X34750Y-21180D01*
X34750Y-21130D01*
X34714Y-21060D01*
X34632Y-21016D01*
X34543Y-20989D01*
X34451Y-20979D01*
X34358Y-20988D01*
X34269Y-21015D01*
X34186Y-21058D01*
X34183Y-21060D01*
X34147Y-21130D01*
X34448Y-21431D01*
X34750Y-21130D01*
X34750Y-21180D01*
X34473Y-21456D01*
X34775Y-21758D01*
X34844Y-21722D01*
X34888Y-21640D01*
X34916Y-21551D01*
X34925Y-21458D01*
X34925Y-22192D01*
X34750Y-22192D01*
X34750Y-21783D01*
X34448Y-21481D01*
X34423Y-21506D01*
X34423Y-21456D01*
X34122Y-21155D01*
X34053Y-21191D01*
X34008Y-21272D01*
X33981Y-21361D01*
X33972Y-21454D01*
X33980Y-21547D01*
X34007Y-21636D01*
X34050Y-21718D01*
X34053Y-21722D01*
X34122Y-21758D01*
X34423Y-21456D01*
X34423Y-21506D01*
X34147Y-21783D01*
X34183Y-21852D01*
X34265Y-21896D01*
X34354Y-21923D01*
X34446Y-21933D01*
X34539Y-21924D01*
X34628Y-21898D01*
X34710Y-21854D01*
X34714Y-21852D01*
X34750Y-21783D01*
X34750Y-22192D01*
X33919Y-22192D01*
X33919Y-21412D01*
X33901Y-21324D01*
X33868Y-21242D01*
X33818Y-21167D01*
X33755Y-21104D01*
X33681Y-21054D01*
X33599Y-21020D01*
X33512Y-21002D01*
X33423Y-21001D01*
X33335Y-21018D01*
X33252Y-21051D01*
X33215Y-21076D01*
X33215Y-18672D01*
X33197Y-18521D01*
X32281Y-18521D01*
X32281Y-19437D01*
X32432Y-19455D01*
X32614Y-19404D01*
X32782Y-19319D01*
X32930Y-19203D01*
X33054Y-19060D01*
X33147Y-18896D01*
X33206Y-18717D01*
X33215Y-18672D01*
X33215Y-21076D01*
X33178Y-21100D01*
X33114Y-21162D01*
X33064Y-21236D01*
X33029Y-21318D01*
X33010Y-21405D01*
X33009Y-21494D01*
X33025Y-21582D01*
X33058Y-21665D01*
X33106Y-21740D01*
X33168Y-21804D01*
X33241Y-21855D01*
X33323Y-21891D01*
X33410Y-21910D01*
X33499Y-21912D01*
X33587Y-21896D01*
X33670Y-21864D01*
X33745Y-21816D01*
X33810Y-21755D01*
X33861Y-21682D01*
X33898Y-21600D01*
X33917Y-21513D01*
X33919Y-21412D01*
X33919Y-22192D01*
X32246Y-22192D01*
X32246Y-19437D01*
X32246Y-18521D01*
X31329Y-18521D01*
X31312Y-18672D01*
X31321Y-18717D01*
X31380Y-18896D01*
X31473Y-19060D01*
X31596Y-19203D01*
X31745Y-19319D01*
X31913Y-19404D01*
X32095Y-19455D01*
X32246Y-19437D01*
X32246Y-22192D01*
X31862Y-22192D01*
X31862Y-21228D01*
X31861Y-21228D01*
X31862Y-21166D01*
X31825Y-20981D01*
X31754Y-20808D01*
X31650Y-20652D01*
X31518Y-20519D01*
X31362Y-20414D01*
X31189Y-20341D01*
X31005Y-20303D01*
X30937Y-20303D01*
X30937Y-20303D01*
X30914Y-20303D01*
X30818Y-20302D01*
X30814Y-20303D01*
X30632Y-20303D01*
X29972Y-20303D01*
X29972Y-15124D01*
X29975Y-15125D01*
X30018Y-15129D01*
X30550Y-15129D01*
X30537Y-15140D01*
X30536Y-15141D01*
X30536Y-15141D01*
X30536Y-15141D01*
X30535Y-15141D01*
X30354Y-15322D01*
X29988Y-15322D01*
X29988Y-16960D01*
X30258Y-16960D01*
X30244Y-16964D01*
X30180Y-16999D01*
X30155Y-17059D01*
X30393Y-17297D01*
X30399Y-17292D01*
X30424Y-17317D01*
X30418Y-17322D01*
X30424Y-17328D01*
X30399Y-17353D01*
X30393Y-17347D01*
X30368Y-17372D01*
X30368Y-17322D01*
X30130Y-17084D01*
X30069Y-17109D01*
X30034Y-17176D01*
X30013Y-17248D01*
X30006Y-17324D01*
X30013Y-17399D01*
X30035Y-17471D01*
X30069Y-17536D01*
X30130Y-17561D01*
X30368Y-17322D01*
X30368Y-17372D01*
X30155Y-17586D01*
X30180Y-17646D01*
X30247Y-17681D01*
X30319Y-17703D01*
X30395Y-17710D01*
X30470Y-17702D01*
X30542Y-17680D01*
X30607Y-17646D01*
X30632Y-17586D01*
X30632Y-17586D01*
X30655Y-17609D01*
X30661Y-17603D01*
X30664Y-17613D01*
X30668Y-17628D01*
X30669Y-17628D01*
X30669Y-17629D01*
X30676Y-17642D01*
X30683Y-17655D01*
X30683Y-17656D01*
X30684Y-17657D01*
X30693Y-17668D01*
X30702Y-17680D01*
X30703Y-17681D01*
X30703Y-17681D01*
X30703Y-17681D01*
X30704Y-17681D01*
X30923Y-17900D01*
X30922Y-17913D01*
X30931Y-17959D01*
X30942Y-17988D01*
X30922Y-17996D01*
X30883Y-18022D01*
X30850Y-18054D01*
X30823Y-18093D01*
X30805Y-18136D01*
X30795Y-18181D01*
X30794Y-18228D01*
X30803Y-18274D01*
X30820Y-18318D01*
X30845Y-18357D01*
X30874Y-18386D01*
X30874Y-18641D01*
X30850Y-18665D01*
X30823Y-18703D01*
X30805Y-18746D01*
X30795Y-18792D01*
X30794Y-18838D01*
X30803Y-18884D01*
X30820Y-18928D01*
X30845Y-18967D01*
X30878Y-19001D01*
X30916Y-19027D01*
X30959Y-19046D01*
X31005Y-19056D01*
X31051Y-19057D01*
X31097Y-19049D01*
X31141Y-19032D01*
X31180Y-19007D01*
X31214Y-18975D01*
X31241Y-18937D01*
X31260Y-18894D01*
X31270Y-18848D01*
X31271Y-18795D01*
X31262Y-18749D01*
X31244Y-18706D01*
X31218Y-18667D01*
X31192Y-18641D01*
X31192Y-18385D01*
X31214Y-18365D01*
X31241Y-18326D01*
X31260Y-18284D01*
X31270Y-18238D01*
X31271Y-18185D01*
X31262Y-18139D01*
X31252Y-18114D01*
X31269Y-18107D01*
X31308Y-18082D01*
X31342Y-18050D01*
X31369Y-18011D01*
X31388Y-17969D01*
X31398Y-17923D01*
X31399Y-17870D01*
X31390Y-17824D01*
X31372Y-17781D01*
X31350Y-17748D01*
X31625Y-17748D01*
X31625Y-17659D01*
X31802Y-17659D01*
X31745Y-17688D01*
X31596Y-17804D01*
X31473Y-17947D01*
X31380Y-18111D01*
X31321Y-18290D01*
X31312Y-18335D01*
X31329Y-18486D01*
X32246Y-18486D01*
X32246Y-18478D01*
X32281Y-18478D01*
X32281Y-18486D01*
X33197Y-18486D01*
X33215Y-18335D01*
X33206Y-18290D01*
X33147Y-18111D01*
X33054Y-17947D01*
X32930Y-17804D01*
X32782Y-17688D01*
X32725Y-17659D01*
X33339Y-17659D01*
X33344Y-17664D01*
X33344Y-17697D01*
X33352Y-17743D01*
X33369Y-17786D01*
X33395Y-17825D01*
X33427Y-17859D01*
X33465Y-17886D01*
X33508Y-17904D01*
X33554Y-17914D01*
X33601Y-17915D01*
X33647Y-17907D01*
X33690Y-17890D01*
X33730Y-17865D01*
X33763Y-17833D01*
X33790Y-17795D01*
X33809Y-17752D01*
X33820Y-17707D01*
X33820Y-17653D01*
X33811Y-17607D01*
X33794Y-17564D01*
X33768Y-17525D01*
X33735Y-17492D01*
X33696Y-17466D01*
X33653Y-17448D01*
X33607Y-17439D01*
X33569Y-17438D01*
X33518Y-17387D01*
X33506Y-17377D01*
X33495Y-17368D01*
X33494Y-17368D01*
X33494Y-17367D01*
X33481Y-17360D01*
X33468Y-17353D01*
X33467Y-17353D01*
X33466Y-17352D01*
X33452Y-17348D01*
X33438Y-17344D01*
X33437Y-17343D01*
X33437Y-17343D01*
X33422Y-17342D01*
X33407Y-17340D01*
X33406Y-17340D01*
X33406Y-17340D01*
X33406Y-17340D01*
X33405Y-17340D01*
X31625Y-17340D01*
X31625Y-15907D01*
X31850Y-15907D01*
X31865Y-15906D01*
X31879Y-15904D01*
X31880Y-15904D01*
X31881Y-15904D01*
X31895Y-15900D01*
X31909Y-15896D01*
X31910Y-15895D01*
X31911Y-15895D01*
X31924Y-15888D01*
X31937Y-15881D01*
X31937Y-15881D01*
X31938Y-15880D01*
X31950Y-15871D01*
X31961Y-15862D01*
X31962Y-15861D01*
X31962Y-15861D01*
X31962Y-15861D01*
X31963Y-15860D01*
X32546Y-15277D01*
X33595Y-15277D01*
X33650Y-15333D01*
X33599Y-15311D01*
X33512Y-15293D01*
X33423Y-15292D01*
X33335Y-15309D01*
X33252Y-15343D01*
X33178Y-15391D01*
X33114Y-15454D01*
X33064Y-15527D01*
X33029Y-15609D01*
X33010Y-15697D01*
X33009Y-15786D01*
X33025Y-15873D01*
X33058Y-15956D01*
X33106Y-16031D01*
X33168Y-16095D01*
X33241Y-16146D01*
X33323Y-16182D01*
X33410Y-16201D01*
X33499Y-16203D01*
X33587Y-16188D01*
X33670Y-16155D01*
X33745Y-16108D01*
X33810Y-16046D01*
X33861Y-15973D01*
X33898Y-15892D01*
X33908Y-15846D01*
X34003Y-15941D01*
X33983Y-15949D01*
X33944Y-15974D01*
X33911Y-16007D01*
X33884Y-16046D01*
X33866Y-16089D01*
X33856Y-16134D01*
X33231Y-16759D01*
X33196Y-16759D01*
X33150Y-16768D01*
X33107Y-16785D01*
X33068Y-16811D01*
X33035Y-16844D01*
X33008Y-16882D01*
X32990Y-16925D01*
X32980Y-16971D01*
X32980Y-17018D01*
X32988Y-17064D01*
X33005Y-17107D01*
X33030Y-17146D01*
X33063Y-17180D01*
X33101Y-17206D01*
X33144Y-17225D01*
X33190Y-17235D01*
X33236Y-17236D01*
X33282Y-17228D01*
X33326Y-17211D01*
X33365Y-17186D01*
X33399Y-17154D01*
X33426Y-17116D01*
X33445Y-17073D01*
X33455Y-17028D01*
X33456Y-16985D01*
X34047Y-16394D01*
X34066Y-16399D01*
X34112Y-16400D01*
X34158Y-16391D01*
X34177Y-16384D01*
X33903Y-16658D01*
X33893Y-16670D01*
X33884Y-16681D01*
X33883Y-16682D01*
X33883Y-16682D01*
X33876Y-16695D01*
X33869Y-16708D01*
X33868Y-16709D01*
X33868Y-16710D01*
X33864Y-16724D01*
X33859Y-16738D01*
X33859Y-16739D01*
X33859Y-16740D01*
X33857Y-16754D01*
X33856Y-16769D01*
X33856Y-16771D01*
X33856Y-16771D01*
X33856Y-16771D01*
X33856Y-16771D01*
X33856Y-18799D01*
X33857Y-18813D01*
X33859Y-18828D01*
X33859Y-18829D01*
X33859Y-18830D01*
X33863Y-18844D01*
X33867Y-18858D01*
X33868Y-18859D01*
X33868Y-18859D01*
X33875Y-18872D01*
X33882Y-18886D01*
X33882Y-18886D01*
X33882Y-18887D01*
X33892Y-18898D01*
X33895Y-18903D01*
X33895Y-18937D01*
X33903Y-18983D01*
X33920Y-19026D01*
X33946Y-19065D01*
X33978Y-19099D01*
X34017Y-19126D01*
X34059Y-19144D01*
X34105Y-19154D01*
X34152Y-19155D01*
X34198Y-19147D01*
X34241Y-19130D01*
X34281Y-19105D01*
X34315Y-19073D01*
X34341Y-19035D01*
X34360Y-18992D01*
X34371Y-18947D01*
X34372Y-18893D01*
X34362Y-18848D01*
X34345Y-18804D01*
X34319Y-18766D01*
X34286Y-18732D01*
X34247Y-18706D01*
X34204Y-18688D01*
X34175Y-18682D01*
X34175Y-16837D01*
X34472Y-16539D01*
X34482Y-16528D01*
X34491Y-16517D01*
X34492Y-16516D01*
X34492Y-16515D01*
X34499Y-16502D01*
X34506Y-16489D01*
X34507Y-16489D01*
X34507Y-16488D01*
X34511Y-16474D01*
X34516Y-16460D01*
X34516Y-16459D01*
X34516Y-16458D01*
X34518Y-16444D01*
X34519Y-16429D01*
X34519Y-16427D01*
X34519Y-16427D01*
X34519Y-16427D01*
X34519Y-16427D01*
X34519Y-16072D01*
X34518Y-16058D01*
X34516Y-16043D01*
X34516Y-16042D01*
X34516Y-16041D01*
X34512Y-16027D01*
X34508Y-16013D01*
X34507Y-16012D01*
X34507Y-16012D01*
X34500Y-15999D01*
X34493Y-15985D01*
X34493Y-15985D01*
X34493Y-15984D01*
X34483Y-15973D01*
X34474Y-15961D01*
X34473Y-15960D01*
X34473Y-15960D01*
X34473Y-15960D01*
X34472Y-15960D01*
X34272Y-15759D01*
X34398Y-15759D01*
X34431Y-15726D01*
X34431Y-15411D01*
X34423Y-15411D01*
X34423Y-15405D01*
X34755Y-15405D01*
X34755Y-15375D01*
X34782Y-15375D01*
X34814Y-15343D01*
X34814Y-15144D01*
X34809Y-15119D01*
X34800Y-15096D01*
X34785Y-15074D01*
X34768Y-15056D01*
X34755Y-15048D01*
X34755Y-14935D01*
X34779Y-14919D01*
X34800Y-14899D01*
X34817Y-14874D01*
X34828Y-14847D01*
X34834Y-14819D01*
X34834Y-14789D01*
X34834Y-14766D01*
X36334Y-14766D01*
X37183Y-15614D01*
X37183Y-17027D01*
X37159Y-17050D01*
X37132Y-17089D01*
X37114Y-17132D01*
X37104Y-17178D01*
X37104Y-17224D01*
X37112Y-17270D01*
X37129Y-17314D01*
X37154Y-17353D01*
X37187Y-17386D01*
X37225Y-17413D01*
X37268Y-17432D01*
X37314Y-17442D01*
X37360Y-17443D01*
X37406Y-17435D01*
X37450Y-17418D01*
X37489Y-17393D01*
X37523Y-17361D01*
X37550Y-17322D01*
X37569Y-17280D01*
X37579Y-17234D01*
X37580Y-17181D01*
X37571Y-17135D01*
X37553Y-17092D01*
X37527Y-17053D01*
X37501Y-17027D01*
X37501Y-15682D01*
X37803Y-15983D01*
X37803Y-17755D01*
X37803Y-19508D01*
X37585Y-19725D01*
X37585Y-18672D01*
X37585Y-18335D01*
X37576Y-18290D01*
X37517Y-18111D01*
X37424Y-17947D01*
X37301Y-17804D01*
X37152Y-17688D01*
X36984Y-17603D01*
X36802Y-17552D01*
X36651Y-17570D01*
X36651Y-18486D01*
X37567Y-18486D01*
X37585Y-18335D01*
X37585Y-18672D01*
X37567Y-18521D01*
X36651Y-18521D01*
X36651Y-19437D01*
X36802Y-19455D01*
X36984Y-19404D01*
X37152Y-19319D01*
X37301Y-19203D01*
X37424Y-19060D01*
X37517Y-18896D01*
X37576Y-18717D01*
X37585Y-18672D01*
X37585Y-19725D01*
X37421Y-19889D01*
X36622Y-19889D01*
X36616Y-19885D01*
X36616Y-19437D01*
X36616Y-18521D01*
X36616Y-18486D01*
X36616Y-17570D01*
X36465Y-17552D01*
X36379Y-17576D01*
X36379Y-15665D01*
X36370Y-15619D01*
X36353Y-15576D01*
X36327Y-15537D01*
X36301Y-15511D01*
X36301Y-15334D01*
X36299Y-15319D01*
X36298Y-15305D01*
X36298Y-15304D01*
X36298Y-15303D01*
X36293Y-15289D01*
X36289Y-15275D01*
X36289Y-15274D01*
X36289Y-15273D01*
X36282Y-15260D01*
X36275Y-15247D01*
X36274Y-15247D01*
X36274Y-15246D01*
X36265Y-15234D01*
X36256Y-15223D01*
X36254Y-15222D01*
X36254Y-15222D01*
X36254Y-15222D01*
X36254Y-15221D01*
X36037Y-15005D01*
X36026Y-14996D01*
X36015Y-14986D01*
X36014Y-14986D01*
X36013Y-14985D01*
X36000Y-14978D01*
X35988Y-14971D01*
X35987Y-14971D01*
X35986Y-14970D01*
X35972Y-14966D01*
X35958Y-14962D01*
X35957Y-14962D01*
X35956Y-14961D01*
X35942Y-14960D01*
X35927Y-14958D01*
X35925Y-14958D01*
X35925Y-14958D01*
X35925Y-14958D01*
X35925Y-14958D01*
X35649Y-14958D01*
X35625Y-14933D01*
X35586Y-14907D01*
X35543Y-14889D01*
X35497Y-14880D01*
X35450Y-14879D01*
X35404Y-14888D01*
X35361Y-14906D01*
X35322Y-14931D01*
X35289Y-14964D01*
X35262Y-15002D01*
X35244Y-15045D01*
X35234Y-15091D01*
X35233Y-15138D01*
X35242Y-15184D01*
X35259Y-15227D01*
X35284Y-15266D01*
X35307Y-15290D01*
X35253Y-15306D01*
X35171Y-15349D01*
X35167Y-15352D01*
X35131Y-15421D01*
X35433Y-15722D01*
X35734Y-15421D01*
X35698Y-15352D01*
X35617Y-15308D01*
X35619Y-15306D01*
X35650Y-15277D01*
X35859Y-15277D01*
X35982Y-15400D01*
X35982Y-15511D01*
X35958Y-15535D01*
X35931Y-15573D01*
X35913Y-15616D01*
X35903Y-15662D01*
X35903Y-15683D01*
X35901Y-15657D01*
X35874Y-15568D01*
X35831Y-15486D01*
X35828Y-15482D01*
X35759Y-15446D01*
X35458Y-15748D01*
X35463Y-15753D01*
X35438Y-15778D01*
X35433Y-15773D01*
X35408Y-15798D01*
X35408Y-15748D01*
X35106Y-15446D01*
X35037Y-15482D01*
X34993Y-15564D01*
X34965Y-15653D01*
X34956Y-15745D01*
X34965Y-15838D01*
X34991Y-15927D01*
X35034Y-16009D01*
X35037Y-16013D01*
X35106Y-16049D01*
X35408Y-15748D01*
X35408Y-15798D01*
X35131Y-16074D01*
X35167Y-16143D01*
X35249Y-16187D01*
X35287Y-16199D01*
X34814Y-16672D01*
X34814Y-15642D01*
X34814Y-15443D01*
X34782Y-15411D01*
X34466Y-15411D01*
X34466Y-15726D01*
X34499Y-15759D01*
X34672Y-15759D01*
X34698Y-15759D01*
X34723Y-15754D01*
X34746Y-15744D01*
X34768Y-15729D01*
X34785Y-15711D01*
X34800Y-15690D01*
X34809Y-15667D01*
X34814Y-15642D01*
X34814Y-16672D01*
X34710Y-16777D01*
X34700Y-16788D01*
X34691Y-16799D01*
X34690Y-16800D01*
X34690Y-16801D01*
X34683Y-16814D01*
X34676Y-16826D01*
X34676Y-16827D01*
X34675Y-16828D01*
X34671Y-16842D01*
X34666Y-16856D01*
X34666Y-16857D01*
X34666Y-16858D01*
X34665Y-16872D01*
X34663Y-16887D01*
X34663Y-16889D01*
X34663Y-16889D01*
X34663Y-16889D01*
X34663Y-16889D01*
X34663Y-17873D01*
X34639Y-17897D01*
X34613Y-17935D01*
X34594Y-17978D01*
X34584Y-18024D01*
X34584Y-18071D01*
X34592Y-18117D01*
X34609Y-18160D01*
X34635Y-18199D01*
X34667Y-18233D01*
X34706Y-18260D01*
X34748Y-18278D01*
X34794Y-18288D01*
X34831Y-18289D01*
X34776Y-18344D01*
X34742Y-18344D01*
X34696Y-18353D01*
X34652Y-18370D01*
X34613Y-18396D01*
X34580Y-18428D01*
X34554Y-18467D01*
X34535Y-18510D01*
X34525Y-18555D01*
X34525Y-18602D01*
X34533Y-18648D01*
X34550Y-18692D01*
X34576Y-18731D01*
X34608Y-18764D01*
X34647Y-18791D01*
X34689Y-18810D01*
X34735Y-18820D01*
X34782Y-18821D01*
X34828Y-18813D01*
X34871Y-18796D01*
X34911Y-18771D01*
X34944Y-18739D01*
X34971Y-18700D01*
X34990Y-18658D01*
X35001Y-18612D01*
X35001Y-18570D01*
X35211Y-18360D01*
X35220Y-18349D01*
X35227Y-18340D01*
X35238Y-18351D01*
X35276Y-18378D01*
X35319Y-18396D01*
X35365Y-18406D01*
X35412Y-18407D01*
X35458Y-18399D01*
X35501Y-18382D01*
X35541Y-18357D01*
X35574Y-18325D01*
X35601Y-18287D01*
X35620Y-18244D01*
X35631Y-18199D01*
X35631Y-18145D01*
X35622Y-18100D01*
X35605Y-18056D01*
X35579Y-18018D01*
X35553Y-17991D01*
X35553Y-17526D01*
X35814Y-17265D01*
X35845Y-17266D01*
X35891Y-17258D01*
X35934Y-17241D01*
X35974Y-17216D01*
X36007Y-17183D01*
X36034Y-17145D01*
X36053Y-17103D01*
X36064Y-17057D01*
X36064Y-17004D01*
X36055Y-16958D01*
X36038Y-16915D01*
X36012Y-16876D01*
X35979Y-16843D01*
X35940Y-16817D01*
X35897Y-16798D01*
X35851Y-16789D01*
X35805Y-16789D01*
X35759Y-16797D01*
X35715Y-16815D01*
X35676Y-16841D01*
X35643Y-16873D01*
X35617Y-16912D01*
X35598Y-16955D01*
X35588Y-17000D01*
X35588Y-17040D01*
X35280Y-17347D01*
X35271Y-17359D01*
X35262Y-17370D01*
X35261Y-17371D01*
X35261Y-17371D01*
X35257Y-17378D01*
X35257Y-17192D01*
X35754Y-16695D01*
X35769Y-16704D01*
X35811Y-16723D01*
X35857Y-16733D01*
X35904Y-16734D01*
X35950Y-16726D01*
X35993Y-16709D01*
X36033Y-16684D01*
X36067Y-16652D01*
X36093Y-16614D01*
X36112Y-16571D01*
X36123Y-16526D01*
X36124Y-16472D01*
X36114Y-16426D01*
X36097Y-16383D01*
X36071Y-16344D01*
X36045Y-16318D01*
X36067Y-16298D01*
X36093Y-16259D01*
X36112Y-16217D01*
X36123Y-16171D01*
X36124Y-16118D01*
X36114Y-16072D01*
X36097Y-16029D01*
X36071Y-15990D01*
X36038Y-15957D01*
X35999Y-15931D01*
X35956Y-15913D01*
X35910Y-15903D01*
X35881Y-15903D01*
X35900Y-15842D01*
X35909Y-15750D01*
X35908Y-15738D01*
X35911Y-15754D01*
X35928Y-15798D01*
X35954Y-15837D01*
X35986Y-15871D01*
X36024Y-15897D01*
X36067Y-15916D01*
X36113Y-15926D01*
X36160Y-15927D01*
X36206Y-15919D01*
X36249Y-15902D01*
X36289Y-15877D01*
X36322Y-15845D01*
X36349Y-15807D01*
X36368Y-15764D01*
X36379Y-15718D01*
X36379Y-15665D01*
X36379Y-17576D01*
X36283Y-17603D01*
X36115Y-17688D01*
X35966Y-17804D01*
X35843Y-17947D01*
X35750Y-18111D01*
X35691Y-18290D01*
X35682Y-18335D01*
X35699Y-18486D01*
X36616Y-18486D01*
X36616Y-18521D01*
X35699Y-18521D01*
X35682Y-18672D01*
X35691Y-18717D01*
X35750Y-18896D01*
X35843Y-19060D01*
X35966Y-19203D01*
X36115Y-19319D01*
X36283Y-19404D01*
X36465Y-19455D01*
X36616Y-19437D01*
X36616Y-19885D01*
X36590Y-19868D01*
X36547Y-19850D01*
X36501Y-19840D01*
X36454Y-19840D01*
X36408Y-19849D01*
X36365Y-19866D01*
X36326Y-19892D01*
X36293Y-19924D01*
X36266Y-19963D01*
X36248Y-20006D01*
X36238Y-20052D01*
X36237Y-20098D01*
X36246Y-20144D01*
X36263Y-20188D01*
X36288Y-20227D01*
X36321Y-20261D01*
X36359Y-20287D01*
X36402Y-20306D01*
X36448Y-20316D01*
X36494Y-20317D01*
X36540Y-20309D01*
X36584Y-20292D01*
X36623Y-20267D01*
X37500Y-20267D01*
X37517Y-20266D01*
X37534Y-20264D01*
X37535Y-20264D01*
X37536Y-20264D01*
X37553Y-20259D01*
X37570Y-20254D01*
X37571Y-20253D01*
X37572Y-20253D01*
X37587Y-20245D01*
X37602Y-20237D01*
X37603Y-20236D01*
X37604Y-20236D01*
X37618Y-20225D01*
X37631Y-20214D01*
X37633Y-20212D01*
X37633Y-20212D01*
X37633Y-20212D01*
X37633Y-20212D01*
X38125Y-19720D01*
X38136Y-19706D01*
X38148Y-19693D01*
X38148Y-19692D01*
X38149Y-19691D01*
X38157Y-19676D01*
X38165Y-19661D01*
X38166Y-19660D01*
X38166Y-19659D01*
X38171Y-19642D01*
X38176Y-19625D01*
X38177Y-19624D01*
X38177Y-19623D01*
X38179Y-19606D01*
X38181Y-19589D01*
X38181Y-19587D01*
X38181Y-19587D01*
X38181Y-19587D01*
X38181Y-19586D01*
X38181Y-17944D01*
X38181Y-17944D01*
X38210Y-17964D01*
X38252Y-17983D01*
X38298Y-17993D01*
X38345Y-17994D01*
X38391Y-17986D01*
X38434Y-17969D01*
X38474Y-17944D01*
X38507Y-17912D01*
X38534Y-17874D01*
X38553Y-17831D01*
X38564Y-17785D01*
X38564Y-17732D01*
X38555Y-17686D01*
X38538Y-17643D01*
X38512Y-17604D01*
X38479Y-17571D01*
X38440Y-17545D01*
X38397Y-17527D01*
X38351Y-17517D01*
X38305Y-17517D01*
X38259Y-17526D01*
X38215Y-17543D01*
X38181Y-17566D01*
X38181Y-15905D01*
X38179Y-15888D01*
X38177Y-15870D01*
X38177Y-15869D01*
X38177Y-15868D01*
X38172Y-15852D01*
X38167Y-15835D01*
X38167Y-15834D01*
X38166Y-15833D01*
X38158Y-15818D01*
X38150Y-15802D01*
X38149Y-15801D01*
X38149Y-15800D01*
X38138Y-15787D01*
X38127Y-15773D01*
X38126Y-15772D01*
X38126Y-15772D01*
X38126Y-15772D01*
X38125Y-15771D01*
X36619Y-14265D01*
X36606Y-14254D01*
X36592Y-14243D01*
X36592Y-14243D01*
X36591Y-14242D01*
X36575Y-14234D01*
X36560Y-14225D01*
X36559Y-14225D01*
X36558Y-14225D01*
X36542Y-14220D01*
X36525Y-14214D01*
X36524Y-14214D01*
X36523Y-14214D01*
X36506Y-14212D01*
X36488Y-14210D01*
X36486Y-14210D01*
X36486Y-14210D01*
X36486Y-14210D01*
X36486Y-14210D01*
X36348Y-14210D01*
X36356Y-14205D01*
X36374Y-14187D01*
X36388Y-14166D01*
X36398Y-14142D01*
X36403Y-14117D01*
X36403Y-14092D01*
X36403Y-13466D01*
X36403Y-13441D01*
X36398Y-13416D01*
X36388Y-13392D01*
X36374Y-13371D01*
X36356Y-13353D01*
X36334Y-13339D01*
X36311Y-13329D01*
X36286Y-13324D01*
X35999Y-13324D01*
X35966Y-13357D01*
X35966Y-13761D01*
X36371Y-13761D01*
X36403Y-13729D01*
X36403Y-13466D01*
X36403Y-14092D01*
X36403Y-13829D01*
X36371Y-13797D01*
X35966Y-13797D01*
X35966Y-13805D01*
X35931Y-13805D01*
X35931Y-13797D01*
X35931Y-13761D01*
X35931Y-13357D01*
X35898Y-13324D01*
X35611Y-13324D01*
X35586Y-13329D01*
X35562Y-13339D01*
X35541Y-13353D01*
X35523Y-13371D01*
X35509Y-13392D01*
X35499Y-13416D01*
X35494Y-13441D01*
X35494Y-13466D01*
X35494Y-13729D01*
X35526Y-13761D01*
X35931Y-13761D01*
X35931Y-13797D01*
X35526Y-13797D01*
X35494Y-13829D01*
X35494Y-14092D01*
X35494Y-14117D01*
X35499Y-14142D01*
X35509Y-14166D01*
X35518Y-14180D01*
X35474Y-14136D01*
X35480Y-14119D01*
X35484Y-14076D01*
X35484Y-13522D01*
X35480Y-13479D01*
X35467Y-13436D01*
X35445Y-13396D01*
X35417Y-13362D01*
X35382Y-13333D01*
X35343Y-13312D01*
X35300Y-13299D01*
X35257Y-13295D01*
X32636Y-13295D01*
X32593Y-13299D01*
X32550Y-13312D01*
X32510Y-13333D01*
X32476Y-13362D01*
X32447Y-13396D01*
X32426Y-13436D01*
X32413Y-13479D01*
X32409Y-13522D01*
X32409Y-14076D01*
X32413Y-14119D01*
X32426Y-14162D01*
X32447Y-14201D01*
X32476Y-14236D01*
X32510Y-14264D01*
X32550Y-14285D01*
X32593Y-14298D01*
X32636Y-14303D01*
X34065Y-14303D01*
X34063Y-14315D01*
X34063Y-14344D01*
X34063Y-14817D01*
X34068Y-14846D01*
X34080Y-14873D01*
X34096Y-14898D01*
X34116Y-14919D01*
X34141Y-14935D01*
X34141Y-14935D01*
X34141Y-15048D01*
X34129Y-15056D01*
X34111Y-15074D01*
X34097Y-15096D01*
X34087Y-15119D01*
X34082Y-15144D01*
X34082Y-15314D01*
X33774Y-15005D01*
X33762Y-14996D01*
X33751Y-14986D01*
X33750Y-14986D01*
X33750Y-14985D01*
X33738Y-14979D01*
X33751Y-14960D01*
X33770Y-14918D01*
X33780Y-14872D01*
X33781Y-14819D01*
X33772Y-14773D01*
X33754Y-14730D01*
X33728Y-14691D01*
X33695Y-14658D01*
X33657Y-14631D01*
X33614Y-14613D01*
X33568Y-14604D01*
X33521Y-14604D01*
X33475Y-14612D01*
X33432Y-14630D01*
X33397Y-14653D01*
X32440Y-14653D01*
X32423Y-14655D01*
X32406Y-14656D01*
X32405Y-14657D01*
X32404Y-14657D01*
X32387Y-14662D01*
X32370Y-14667D01*
X32369Y-14667D01*
X32368Y-14667D01*
X32353Y-14676D01*
X32338Y-14684D01*
X32337Y-14684D01*
X32336Y-14685D01*
X32322Y-14696D01*
X32309Y-14707D01*
X32307Y-14708D01*
X32307Y-14708D01*
X32307Y-14708D01*
X32307Y-14708D01*
X31929Y-15086D01*
X31196Y-15086D01*
X31338Y-15031D01*
X31497Y-14930D01*
X31633Y-14801D01*
X31741Y-14648D01*
X31817Y-14476D01*
X31859Y-14293D01*
X31862Y-14079D01*
X31853Y-14035D01*
X31857Y-14020D01*
X31862Y-13977D01*
X31862Y-13285D01*
X31857Y-13242D01*
X31857Y-13240D01*
X37040Y-13240D01*
X37039Y-13242D01*
X37035Y-13285D01*
X37035Y-13977D01*
X37039Y-14020D01*
X37043Y-14033D01*
X37036Y-14066D01*
X37034Y-14253D01*
X37068Y-14438D01*
X37137Y-14612D01*
X37238Y-14770D01*
X37369Y-14905D01*
X37523Y-15012D01*
X37695Y-15087D01*
X37878Y-15127D01*
X38065Y-15131D01*
X38128Y-15120D01*
X38144Y-15125D01*
X38187Y-15129D01*
X38879Y-15129D01*
X38922Y-15125D01*
X38925Y-15124D01*
X38925Y-20308D01*
M02*
