M48
INCH,TZ
T1C0.020
%
G90
G05
T1
X029724Y-017520
X029724Y-017913
X029724Y-027559
X029724Y-027953
X034252Y-012992
X034252Y-022441
X034252Y-023031
X034252Y-032480
X034646Y-012992
X034646Y-022441
X034646Y-023031
X034646Y-032480
X039173Y-017520
X039173Y-017913
X039173Y-027559
X039173Y-027953
X039764Y-017520
X039764Y-017913
X039764Y-027559
X039764Y-027953
X044291Y-012992
X044291Y-022441
X044291Y-023031
X044291Y-032480
X044685Y-012992
X044685Y-022441
X044685Y-023031
X044685Y-032480
X049213Y-017520
X049213Y-017913
X049213Y-027559
X049213Y-027953
T0
M30
