M48
INCH,TZ
T1C0.014
T2C0.033
T3C0.040
T4C0.043
T5C0.083
T6C0.110
%
G90
G05
T1
X030157Y-018937
X030157Y-020118
X030157Y-028976
X030157Y-030157
X030709Y-019606
X030709Y-029646
X031033Y-018209
X031033Y-018819
X031033Y-028248
X031033Y-028858
X031161Y-017894
X031161Y-027933
X031260Y-020118
X031260Y-030157
X032087Y-013484
X032087Y-014075
X032087Y-014685
X032087Y-023524
X032087Y-024114
X032087Y-024724
X032283Y-021693
X032283Y-031732
X032953Y-020433
X032953Y-030472
X033219Y-016998
X033219Y-027037
X033543Y-014843
X033543Y-024882
X033583Y-017677
X033583Y-027717
X034094Y-016161
X034094Y-026201
X034134Y-018917
X034134Y-028957
X034764Y-018583
X034764Y-028622
X034823Y-018051
X034823Y-028091
X035394Y-018169
X035394Y-028209
X035472Y-015118
X035472Y-025157
X035827Y-017028
X035827Y-027067
X035886Y-016142
X035886Y-016496
X035886Y-026181
X035886Y-026535
X036142Y-015689
X036142Y-025728
X036476Y-020079
X036476Y-030118
X036654Y-021555
X036654Y-031594
X037343Y-017205
X037343Y-027244
X038327Y-017756
X038327Y-027795
X038720Y-018543
X038720Y-019469
X038720Y-028583
X038720Y-029508
X038740Y-015472
X038740Y-016969
X038740Y-025512
X038740Y-027008
X040197Y-018937
X040197Y-020118
X040197Y-028976
X040197Y-030157
X040748Y-019606
X040748Y-029646
X041073Y-018209
X041073Y-018819
X041073Y-028248
X041073Y-028858
X041201Y-017894
X041201Y-027933
X041299Y-020118
X041299Y-030157
X042126Y-013484
X042126Y-014075
X042126Y-014685
X042126Y-023524
X042126Y-024114
X042126Y-024724
X042323Y-021693
X042323Y-031732
X042992Y-020433
X042992Y-030472
X043258Y-016998
X043258Y-027037
X043583Y-014843
X043583Y-024882
X043622Y-017677
X043622Y-027717
X044134Y-016161
X044134Y-026201
X044173Y-018917
X044173Y-028957
X044803Y-018583
X044803Y-028622
X044862Y-018051
X044862Y-028091
X045433Y-018169
X045433Y-028209
X045512Y-015118
X045512Y-025157
X045866Y-017028
X045866Y-027067
X045925Y-016142
X045925Y-016496
X045925Y-026181
X045925Y-026535
X046181Y-015689
X046181Y-025728
X046516Y-020079
X046516Y-030118
X046693Y-021555
X046693Y-031594
X047382Y-017205
X047382Y-027244
X048366Y-017756
X048366Y-027795
X048760Y-018543
X048760Y-019469
X048760Y-028583
X048760Y-029508
X048780Y-015472
X048780Y-016969
X048780Y-025512
X048780Y-027008
T2
X030394Y-015748
X030394Y-017323
X030394Y-025787
X030394Y-027362
X030433Y-016535
X030433Y-026575
X031181Y-016535
X031181Y-026575
X031220Y-015748
X031220Y-017323
X031220Y-025787
X031220Y-027362
X040433Y-015748
X040433Y-017323
X040433Y-025787
X040433Y-027362
X040472Y-016535
X040472Y-026575
X041220Y-016535
X041220Y-026575
X041260Y-015748
X041260Y-017323
X041260Y-025787
X041260Y-027362
T3
X032949Y-013780
X032949Y-023819
X033949Y-013780
X033949Y-023819
X034949Y-013780
X034949Y-023819
X035949Y-013780
X035949Y-023819
X042988Y-013780
X042988Y-023819
X043988Y-013780
X043988Y-023819
X044988Y-013780
X044988Y-023819
X045988Y-013780
X045988Y-023819
T4
X033465Y-015748
X033465Y-021457
X033465Y-025787
X033465Y-031496
X034449Y-021457
X034449Y-031496
X035433Y-015748
X035433Y-021457
X035433Y-025787
X035433Y-031496
X043504Y-015748
X043504Y-021457
X043504Y-025787
X043504Y-031496
X044488Y-021457
X044488Y-031496
X045472Y-015748
X045472Y-021457
X045472Y-025787
X045472Y-031496
T5
X030906Y-014173
X030906Y-021260
X030906Y-024213
X030906Y-031299
X037992Y-014173
X037992Y-021260
X037992Y-024213
X037992Y-031299
X040945Y-014173
X040945Y-021260
X040945Y-024213
X040945Y-031299
X048031Y-014173
X048031Y-021260
X048031Y-024213
X048031Y-031299
T6
X032264Y-018504
X032264Y-028543
X036634Y-018504
X036634Y-028543
X042303Y-018504
X042303Y-028543
X046673Y-018504
X046673Y-028543
T0
M30
