G04 (created by PCBNEW (2013-03-26 BZR 4031)-testing) date Wed 27 Mar 2013 11:57:22 AM CET*
%MOIN*%
G04 Gerber Fmt 3.4, Leading zero omitted, Abs format*
%FSLAX34Y34*%
G01*
G70*
G90*
G04 APERTURE LIST*
%ADD10C,3.14961e-06*%
%ADD11C,0.0688976*%
%ADD12O,0.167323X0.167323*%
%ADD13C,0.0826772*%
%ADD14R,0.0511811X0.0511811*%
%ADD15C,0.0511811*%
%ADD16R,0.0649606X0.0649606*%
%ADD17C,0.0649606*%
%ADD18R,0.0275591X0.0866142*%
%ADD19R,0.059X0.0511*%
%ADD20R,0.0393701X0.0255906*%
%ADD21R,0.0393701X0.019685*%
%ADD22C,0.019685*%
G04 APERTURE END LIST*
G54D10*
G54D11*
X43503Y-21456D03*
X45472Y-21456D03*
X44488Y-21456D03*
X45472Y-15748D03*
X43503Y-15748D03*
G54D12*
X46673Y-18503D03*
X42303Y-18503D03*
G54D13*
X48031Y-21259D03*
X40944Y-21259D03*
X40944Y-14173D03*
X48031Y-14173D03*
G54D14*
X41259Y-15748D03*
G54D15*
X40433Y-15748D03*
X41220Y-16535D03*
X40472Y-16535D03*
X41259Y-17322D03*
X40433Y-17322D03*
G54D16*
X45988Y-13779D03*
G54D17*
X44988Y-13779D03*
X43988Y-13779D03*
X42988Y-13779D03*
G54D18*
X43738Y-16925D03*
X44238Y-16925D03*
X44738Y-16925D03*
X45238Y-16925D03*
X45238Y-19925D03*
X44738Y-19925D03*
X44238Y-19925D03*
X43738Y-19925D03*
G54D19*
X48149Y-17106D03*
X48149Y-16358D03*
G54D20*
X47027Y-17175D03*
G54D21*
X47027Y-16811D03*
X47027Y-16496D03*
G54D20*
X47027Y-16131D03*
X46318Y-17175D03*
G54D21*
X46318Y-16811D03*
X46318Y-16496D03*
G54D20*
X46318Y-16131D03*
X42086Y-16131D03*
G54D21*
X42086Y-16496D03*
X42086Y-16811D03*
G54D20*
X42086Y-17175D03*
X42795Y-16131D03*
G54D21*
X42795Y-16496D03*
X42795Y-16811D03*
G54D20*
X42795Y-17175D03*
X32047Y-16131D03*
G54D21*
X32047Y-16496D03*
X32047Y-16811D03*
G54D20*
X32047Y-17175D03*
X32755Y-16131D03*
G54D21*
X32755Y-16496D03*
X32755Y-16811D03*
G54D20*
X32755Y-17175D03*
X36988Y-17175D03*
G54D21*
X36988Y-16811D03*
X36988Y-16496D03*
G54D20*
X36988Y-16131D03*
X36279Y-17175D03*
G54D21*
X36279Y-16811D03*
X36279Y-16496D03*
G54D20*
X36279Y-16131D03*
G54D19*
X38110Y-17106D03*
X38110Y-16358D03*
G54D18*
X33698Y-16925D03*
X34198Y-16925D03*
X34698Y-16925D03*
X35198Y-16925D03*
X35198Y-19925D03*
X34698Y-19925D03*
X34198Y-19925D03*
X33698Y-19925D03*
G54D16*
X35948Y-13779D03*
G54D17*
X34948Y-13779D03*
X33948Y-13779D03*
X32948Y-13779D03*
G54D14*
X31220Y-15748D03*
G54D15*
X30393Y-15748D03*
X31181Y-16535D03*
X30433Y-16535D03*
X31220Y-17322D03*
X30393Y-17322D03*
G54D13*
X37992Y-14173D03*
X30905Y-14173D03*
X30905Y-21259D03*
X37992Y-21259D03*
G54D11*
X33464Y-21456D03*
X35433Y-21456D03*
X34448Y-21456D03*
X35433Y-15748D03*
X33464Y-15748D03*
G54D12*
X36633Y-18503D03*
X32263Y-18503D03*
G54D11*
X33464Y-31496D03*
X35433Y-31496D03*
X34448Y-31496D03*
X35433Y-25787D03*
X33464Y-25787D03*
G54D12*
X36633Y-28543D03*
X32263Y-28543D03*
G54D13*
X37992Y-31299D03*
X30905Y-31299D03*
X30905Y-24212D03*
X37992Y-24212D03*
G54D14*
X31220Y-25787D03*
G54D15*
X30393Y-25787D03*
X31181Y-26574D03*
X30433Y-26574D03*
X31220Y-27362D03*
X30393Y-27362D03*
G54D16*
X35948Y-23818D03*
G54D17*
X34948Y-23818D03*
X33948Y-23818D03*
X32948Y-23818D03*
G54D18*
X33698Y-26964D03*
X34198Y-26964D03*
X34698Y-26964D03*
X35198Y-26964D03*
X35198Y-29964D03*
X34698Y-29964D03*
X34198Y-29964D03*
X33698Y-29964D03*
G54D19*
X38110Y-27145D03*
X38110Y-26397D03*
G54D20*
X36988Y-27214D03*
G54D21*
X36988Y-26850D03*
X36988Y-26535D03*
G54D20*
X36988Y-26171D03*
X36279Y-27214D03*
G54D21*
X36279Y-26850D03*
X36279Y-26535D03*
G54D20*
X36279Y-26171D03*
X32047Y-26171D03*
G54D21*
X32047Y-26535D03*
X32047Y-26850D03*
G54D20*
X32047Y-27214D03*
X32755Y-26171D03*
G54D21*
X32755Y-26535D03*
X32755Y-26850D03*
G54D20*
X32755Y-27214D03*
X42086Y-26171D03*
G54D21*
X42086Y-26535D03*
X42086Y-26850D03*
G54D20*
X42086Y-27214D03*
X42795Y-26171D03*
G54D21*
X42795Y-26535D03*
X42795Y-26850D03*
G54D20*
X42795Y-27214D03*
X47027Y-27214D03*
G54D21*
X47027Y-26850D03*
X47027Y-26535D03*
G54D20*
X47027Y-26171D03*
X46318Y-27214D03*
G54D21*
X46318Y-26850D03*
X46318Y-26535D03*
G54D20*
X46318Y-26171D03*
G54D19*
X48149Y-27145D03*
X48149Y-26397D03*
G54D18*
X43738Y-26964D03*
X44238Y-26964D03*
X44738Y-26964D03*
X45238Y-26964D03*
X45238Y-29964D03*
X44738Y-29964D03*
X44238Y-29964D03*
X43738Y-29964D03*
G54D16*
X45988Y-23818D03*
G54D17*
X44988Y-23818D03*
X43988Y-23818D03*
X42988Y-23818D03*
G54D14*
X41259Y-25787D03*
G54D15*
X40433Y-25787D03*
X41220Y-26574D03*
X40472Y-26574D03*
X41259Y-27362D03*
X40433Y-27362D03*
G54D13*
X48031Y-24212D03*
X40944Y-24212D03*
X40944Y-31299D03*
X48031Y-31299D03*
G54D11*
X43503Y-31496D03*
X45472Y-31496D03*
X44488Y-31496D03*
X45472Y-25787D03*
X43503Y-25787D03*
G54D12*
X46673Y-28543D03*
X42303Y-28543D03*
G54D22*
X39173Y-15452D03*
X39763Y-15452D03*
X39173Y-15157D03*
X39173Y-15748D03*
X39763Y-15748D03*
X39763Y-15157D03*
X39173Y-30019D03*
X39763Y-30019D03*
X39173Y-29724D03*
X39173Y-30314D03*
X39763Y-30314D03*
X39763Y-29724D03*
X39173Y-25492D03*
X39763Y-25492D03*
X39173Y-25196D03*
X39173Y-25787D03*
X39763Y-25787D03*
X39763Y-25196D03*
X46751Y-22440D03*
X46751Y-23031D03*
X47047Y-22440D03*
X46456Y-22440D03*
X46456Y-23031D03*
X47047Y-23031D03*
X42224Y-22440D03*
X42224Y-23031D03*
X42519Y-22440D03*
X41929Y-22440D03*
X41929Y-23031D03*
X42519Y-23031D03*
X36712Y-22440D03*
X36712Y-23031D03*
X37007Y-22440D03*
X36417Y-22440D03*
X36417Y-23031D03*
X37007Y-23031D03*
X32185Y-22440D03*
X32185Y-23031D03*
X32480Y-22440D03*
X31889Y-22440D03*
X31889Y-23031D03*
X32480Y-23031D03*
X39173Y-19980D03*
X39763Y-19980D03*
X39173Y-19685D03*
X39173Y-20275D03*
X39763Y-20275D03*
X39763Y-19685D03*
M02*
