M48
METRIC,TZ
T1C0.350
T2C0.850
T3C1.016
T4C1.100
T5C2.100
T6C2.800
%
G90
G05
T1
X076600Y-048100
X076600Y-051100
X076600Y-073600
X076600Y-076600
X078000Y-049800
X078000Y-075300
X078825Y-046250
X078825Y-047800
X078825Y-071750
X078825Y-073300
X079150Y-045450
X079150Y-070950
X079400Y-051100
X079400Y-076600
X081500Y-034250
X081500Y-035750
X081500Y-037300
X081500Y-059750
X081500Y-061250
X081500Y-062800
X082000Y-055100
X082000Y-080600
X083700Y-051900
X083700Y-077400
X084375Y-043175
X084375Y-068675
X085200Y-037700
X085200Y-063200
X085300Y-044900
X085300Y-070400
X086600Y-041050
X086600Y-066550
X086700Y-048050
X086700Y-073550
X088300Y-047200
X088300Y-072700
X088450Y-045850
X088450Y-071350
X089900Y-046150
X089900Y-071650
X090100Y-038400
X090100Y-063900
X091000Y-043250
X091000Y-068750
X091150Y-041000
X091150Y-041900
X091150Y-066500
X091150Y-067400
X091800Y-039850
X091800Y-065350
X092650Y-051000
X092650Y-076500
X093100Y-054750
X093100Y-080250
X094850Y-043700
X094850Y-069200
X097350Y-045100
X097350Y-070600
X098350Y-047100
X098350Y-049450
X098350Y-072600
X098350Y-074950
X098400Y-039300
X098400Y-043100
X098400Y-064800
X098400Y-068600
X102100Y-048100
X102100Y-051100
X102100Y-073600
X102100Y-076600
X103500Y-049800
X103500Y-075300
X104325Y-046250
X104325Y-047800
X104325Y-071750
X104325Y-073300
X104650Y-045450
X104650Y-070950
X104900Y-051100
X104900Y-076600
X107000Y-034250
X107000Y-035750
X107000Y-037300
X107000Y-059750
X107000Y-061250
X107000Y-062800
X107500Y-055100
X107500Y-080600
X109200Y-051900
X109200Y-077400
X109875Y-043175
X109875Y-068675
X110700Y-037700
X110700Y-063200
X110800Y-044900
X110800Y-070400
X112100Y-041050
X112100Y-066550
X112200Y-048050
X112200Y-073550
X113800Y-047200
X113800Y-072700
X113950Y-045850
X113950Y-071350
X115400Y-046150
X115400Y-071650
X115600Y-038400
X115600Y-063900
X116500Y-043250
X116500Y-068750
X116650Y-041000
X116650Y-041900
X116650Y-066500
X116650Y-067400
X117300Y-039850
X117300Y-065350
X118150Y-051000
X118150Y-076500
X118600Y-054750
X118600Y-080250
X120350Y-043700
X120350Y-069200
X122850Y-045100
X122850Y-070600
X123850Y-047100
X123850Y-049450
X123850Y-072600
X123850Y-074950
X123900Y-039300
X123900Y-043100
X123900Y-064800
X123900Y-068600
T2
X077200Y-040000
X077200Y-044000
X077200Y-065500
X077200Y-069500
X077300Y-042000
X077300Y-067500
X079200Y-042000
X079200Y-067500
X079300Y-040000
X079300Y-044000
X079300Y-065500
X079300Y-069500
X102700Y-040000
X102700Y-044000
X102700Y-065500
X102700Y-069500
X102800Y-042000
X102800Y-067500
X104700Y-042000
X104700Y-067500
X104800Y-040000
X104800Y-044000
X104800Y-065500
X104800Y-069500
T3
X083690Y-035000
X083690Y-060500
X086230Y-035000
X086230Y-060500
X088770Y-035000
X088770Y-060500
X091310Y-035000
X091310Y-060500
X109190Y-035000
X109190Y-060500
X111730Y-035000
X111730Y-060500
X114270Y-035000
X114270Y-060500
X116810Y-035000
X116810Y-060500
T4
X085000Y-040000
X085000Y-054500
X085000Y-065500
X085000Y-080000
X087500Y-054500
X087500Y-080000
X090000Y-040000
X090000Y-054500
X090000Y-065500
X090000Y-080000
X110500Y-040000
X110500Y-054500
X110500Y-065500
X110500Y-080000
X113000Y-054500
X113000Y-080000
X115500Y-040000
X115500Y-054500
X115500Y-065500
X115500Y-080000
T5
X078500Y-036000
X078500Y-054000
X078500Y-061500
X078500Y-079500
X096500Y-036000
X096500Y-054000
X096500Y-061500
X096500Y-079500
X104000Y-036000
X104000Y-054000
X104000Y-061500
X104000Y-079500
X122000Y-036000
X122000Y-054000
X122000Y-061500
X122000Y-079500
T6
X081950Y-047000
X081950Y-072500
X093050Y-047000
X093050Y-072500
X107450Y-047000
X107450Y-072500
X118550Y-047000
X118550Y-072500
T0
M30
