G04 This is an RS-274x file exported by *
G04 gerbv version 2.6.0 *
G04 More information is available about gerbv at *
G04 http://gerbv.gpleda.org/ *
G04 --End of header info--*
%MOIN*%
%FSLAX34Y34*%
%IPPOS*%
G04 --Define apertures--*
%ADD10C,0.0000*%
%ADD11C,0.0079*%
G04 --Start main section--*
G54D11*
G01X0039409Y-037007D02*
G01X0039409Y-037874D01*
G01X0039409Y-036220D02*
G01X0039409Y-035354D01*
G01X0039645Y-037440D02*
G01X0039409Y-037007D01*
G01X0039409Y-037007D02*
G01X0039173Y-037440D01*
G01X0039409Y-036220D02*
G01X0039645Y-035787D01*
G01X0039409Y-036220D02*
G01X0039173Y-035787D01*
G01X0038267Y-037720D02*
G01X0038248Y-037701D01*
G01X0038248Y-037701D02*
G01X0038230Y-037664D01*
G01X0038230Y-037664D02*
G01X0038230Y-037570D01*
G01X0038230Y-037570D02*
G01X0038248Y-037532D01*
G01X0038248Y-037532D02*
G01X0038267Y-037514D01*
G01X0038267Y-037514D02*
G01X0038305Y-037495D01*
G01X0038305Y-037495D02*
G01X0038342Y-037495D01*
G01X0038342Y-037495D02*
G01X0038398Y-037514D01*
G01X0038398Y-037514D02*
G01X0038623Y-037739D01*
G01X0038623Y-037739D02*
G01X0038623Y-037495D01*
G01X0038586Y-037326D02*
G01X0038605Y-037307D01*
G01X0038605Y-037307D02*
G01X0038623Y-037326D01*
G01X0038623Y-037326D02*
G01X0038605Y-037345D01*
G01X0038605Y-037345D02*
G01X0038586Y-037326D01*
G01X0038586Y-037326D02*
G01X0038623Y-037326D01*
G01X0038230Y-037064D02*
G01X0038230Y-037026D01*
G01X0038230Y-037026D02*
G01X0038248Y-036989D01*
G01X0038248Y-036989D02*
G01X0038267Y-036970D01*
G01X0038267Y-036970D02*
G01X0038305Y-036951D01*
G01X0038305Y-036951D02*
G01X0038380Y-036932D01*
G01X0038380Y-036932D02*
G01X0038473Y-036932D01*
G01X0038473Y-036932D02*
G01X0038548Y-036951D01*
G01X0038548Y-036951D02*
G01X0038586Y-036970D01*
G01X0038586Y-036970D02*
G01X0038605Y-036989D01*
G01X0038605Y-036989D02*
G01X0038623Y-037026D01*
G01X0038623Y-037026D02*
G01X0038623Y-037064D01*
G01X0038623Y-037064D02*
G01X0038605Y-037101D01*
G01X0038605Y-037101D02*
G01X0038586Y-037120D01*
G01X0038586Y-037120D02*
G01X0038548Y-037139D01*
G01X0038548Y-037139D02*
G01X0038473Y-037157D01*
G01X0038473Y-037157D02*
G01X0038380Y-037157D01*
G01X0038380Y-037157D02*
G01X0038305Y-037139D01*
G01X0038305Y-037139D02*
G01X0038267Y-037120D01*
G01X0038267Y-037120D02*
G01X0038248Y-037101D01*
G01X0038248Y-037101D02*
G01X0038230Y-037064D01*
G01X0038230Y-036689D02*
G01X0038230Y-036651D01*
G01X0038230Y-036651D02*
G01X0038248Y-036614D01*
G01X0038248Y-036614D02*
G01X0038267Y-036595D01*
G01X0038267Y-036595D02*
G01X0038305Y-036576D01*
G01X0038305Y-036576D02*
G01X0038380Y-036557D01*
G01X0038380Y-036557D02*
G01X0038473Y-036557D01*
G01X0038473Y-036557D02*
G01X0038548Y-036576D01*
G01X0038548Y-036576D02*
G01X0038586Y-036595D01*
G01X0038586Y-036595D02*
G01X0038605Y-036614D01*
G01X0038605Y-036614D02*
G01X0038623Y-036651D01*
G01X0038623Y-036651D02*
G01X0038623Y-036689D01*
G01X0038623Y-036689D02*
G01X0038605Y-036726D01*
G01X0038605Y-036726D02*
G01X0038586Y-036745D01*
G01X0038586Y-036745D02*
G01X0038548Y-036764D01*
G01X0038548Y-036764D02*
G01X0038473Y-036782D01*
G01X0038473Y-036782D02*
G01X0038380Y-036782D01*
G01X0038380Y-036782D02*
G01X0038305Y-036764D01*
G01X0038305Y-036764D02*
G01X0038267Y-036745D01*
G01X0038267Y-036745D02*
G01X0038248Y-036726D01*
G01X0038248Y-036726D02*
G01X0038230Y-036689D01*
G01X0038623Y-036389D02*
G01X0038361Y-036389D01*
G01X0038398Y-036389D02*
G01X0038380Y-036370D01*
G01X0038380Y-036370D02*
G01X0038361Y-036332D01*
G01X0038361Y-036332D02*
G01X0038361Y-036276D01*
G01X0038361Y-036276D02*
G01X0038380Y-036239D01*
G01X0038380Y-036239D02*
G01X0038417Y-036220D01*
G01X0038417Y-036220D02*
G01X0038623Y-036220D01*
G01X0038417Y-036220D02*
G01X0038380Y-036201D01*
G01X0038380Y-036201D02*
G01X0038361Y-036164D01*
G01X0038361Y-036164D02*
G01X0038361Y-036107D01*
G01X0038361Y-036107D02*
G01X0038380Y-036070D01*
G01X0038380Y-036070D02*
G01X0038417Y-036051D01*
G01X0038417Y-036051D02*
G01X0038623Y-036051D01*
G01X0038623Y-035864D02*
G01X0038361Y-035864D01*
G01X0038398Y-035864D02*
G01X0038380Y-035845D01*
G01X0038380Y-035845D02*
G01X0038361Y-035808D01*
G01X0038361Y-035808D02*
G01X0038361Y-035751D01*
G01X0038361Y-035751D02*
G01X0038380Y-035714D01*
G01X0038380Y-035714D02*
G01X0038417Y-035695D01*
G01X0038417Y-035695D02*
G01X0038623Y-035695D01*
G01X0038417Y-035695D02*
G01X0038380Y-035676D01*
G01X0038380Y-035676D02*
G01X0038361Y-035639D01*
G01X0038361Y-035639D02*
G01X0038361Y-035583D01*
G01X0038361Y-035583D02*
G01X0038380Y-035545D01*
G01X0038380Y-035545D02*
G01X0038417Y-035526D01*
G01X0038417Y-035526D02*
G01X0038623Y-035526D01*
G01X0040551Y-037007D02*
G01X0039133Y-037007D01*
G01X0040551Y-036220D02*
G01X0039133Y-036220D01*
G01X0040472Y-034645D02*
G01X0040039Y-034881D01*
G01X0040472Y-034645D02*
G01X0040039Y-034409D01*
G01X0037771Y-033722D02*
G01X0037771Y-033328D01*
G01X0037771Y-033328D02*
G01X0037903Y-033609D01*
G01X0037903Y-033609D02*
G01X0038034Y-033328D01*
G01X0038034Y-033328D02*
G01X0038034Y-033722D01*
G01X0038203Y-033366D02*
G01X0038221Y-033347D01*
G01X0038221Y-033347D02*
G01X0038259Y-033328D01*
G01X0038259Y-033328D02*
G01X0038353Y-033328D01*
G01X0038353Y-033328D02*
G01X0038390Y-033347D01*
G01X0038390Y-033347D02*
G01X0038409Y-033366D01*
G01X0038409Y-033366D02*
G01X0038428Y-033403D01*
G01X0038428Y-033403D02*
G01X0038428Y-033441D01*
G01X0038428Y-033441D02*
G01X0038409Y-033497D01*
G01X0038409Y-033497D02*
G01X0038184Y-033722D01*
G01X0038184Y-033722D02*
G01X0038428Y-033722D01*
G01X0038976Y-034645D02*
G01X0038188Y-033858D01*
G01X0040452Y-034645D02*
G01X0038976Y-034645D01*
G01X0042857Y-031535D02*
G01X0042875Y-031516D01*
G01X0042875Y-031516D02*
G01X0042913Y-031497D01*
G01X0042913Y-031497D02*
G01X0043007Y-031497D01*
G01X0043007Y-031497D02*
G01X0043044Y-031516D01*
G01X0043044Y-031516D02*
G01X0043063Y-031535D01*
G01X0043063Y-031535D02*
G01X0043082Y-031572D01*
G01X0043082Y-031572D02*
G01X0043082Y-031610D01*
G01X0043082Y-031610D02*
G01X0043063Y-031666D01*
G01X0043063Y-031666D02*
G01X0042838Y-031891D01*
G01X0042838Y-031891D02*
G01X0043082Y-031891D01*
G01X0043213Y-031497D02*
G01X0043457Y-031497D01*
G01X0043457Y-031497D02*
G01X0043325Y-031647D01*
G01X0043325Y-031647D02*
G01X0043382Y-031647D01*
G01X0043382Y-031647D02*
G01X0043419Y-031666D01*
G01X0043419Y-031666D02*
G01X0043438Y-031685D01*
G01X0043438Y-031685D02*
G01X0043457Y-031722D01*
G01X0043457Y-031722D02*
G01X0043457Y-031816D01*
G01X0043457Y-031816D02*
G01X0043438Y-031854D01*
G01X0043438Y-031854D02*
G01X0043419Y-031872D01*
G01X0043419Y-031872D02*
G01X0043382Y-031891D01*
G01X0043382Y-031891D02*
G01X0043269Y-031891D01*
G01X0043269Y-031891D02*
G01X0043232Y-031872D01*
G01X0043232Y-031872D02*
G01X0043213Y-031854D01*
G01X0043625Y-031854D02*
G01X0043644Y-031872D01*
G01X0043644Y-031872D02*
G01X0043625Y-031891D01*
G01X0043625Y-031891D02*
G01X0043607Y-031872D01*
G01X0043607Y-031872D02*
G01X0043625Y-031854D01*
G01X0043625Y-031854D02*
G01X0043625Y-031891D01*
G01X0044000Y-031497D02*
G01X0043813Y-031497D01*
G01X0043813Y-031497D02*
G01X0043794Y-031685D01*
G01X0043794Y-031685D02*
G01X0043813Y-031666D01*
G01X0043813Y-031666D02*
G01X0043850Y-031647D01*
G01X0043850Y-031647D02*
G01X0043944Y-031647D01*
G01X0043944Y-031647D02*
G01X0043982Y-031666D01*
G01X0043982Y-031666D02*
G01X0044000Y-031685D01*
G01X0044000Y-031685D02*
G01X0044019Y-031722D01*
G01X0044019Y-031722D02*
G01X0044019Y-031816D01*
G01X0044019Y-031816D02*
G01X0044000Y-031854D01*
G01X0044000Y-031854D02*
G01X0043982Y-031872D01*
G01X0043982Y-031872D02*
G01X0043944Y-031891D01*
G01X0043944Y-031891D02*
G01X0043850Y-031891D01*
G01X0043850Y-031891D02*
G01X0043813Y-031872D01*
G01X0043813Y-031872D02*
G01X0043794Y-031854D01*
G01X0044263Y-031497D02*
G01X0044300Y-031497D01*
G01X0044300Y-031497D02*
G01X0044338Y-031516D01*
G01X0044338Y-031516D02*
G01X0044356Y-031535D01*
G01X0044356Y-031535D02*
G01X0044375Y-031572D01*
G01X0044375Y-031572D02*
G01X0044394Y-031647D01*
G01X0044394Y-031647D02*
G01X0044394Y-031741D01*
G01X0044394Y-031741D02*
G01X0044375Y-031816D01*
G01X0044375Y-031816D02*
G01X0044356Y-031854D01*
G01X0044356Y-031854D02*
G01X0044338Y-031872D01*
G01X0044338Y-031872D02*
G01X0044300Y-031891D01*
G01X0044300Y-031891D02*
G01X0044263Y-031891D01*
G01X0044263Y-031891D02*
G01X0044225Y-031872D01*
G01X0044225Y-031872D02*
G01X0044206Y-031854D01*
G01X0044206Y-031854D02*
G01X0044188Y-031816D01*
G01X0044188Y-031816D02*
G01X0044169Y-031741D01*
G01X0044169Y-031741D02*
G01X0044169Y-031647D01*
G01X0044169Y-031647D02*
G01X0044188Y-031572D01*
G01X0044188Y-031572D02*
G01X0044206Y-031535D01*
G01X0044206Y-031535D02*
G01X0044225Y-031516D01*
G01X0044225Y-031516D02*
G01X0044263Y-031497D01*
G01X0044638Y-031497D02*
G01X0044675Y-031497D01*
G01X0044675Y-031497D02*
G01X0044713Y-031516D01*
G01X0044713Y-031516D02*
G01X0044731Y-031535D01*
G01X0044731Y-031535D02*
G01X0044750Y-031572D01*
G01X0044750Y-031572D02*
G01X0044769Y-031647D01*
G01X0044769Y-031647D02*
G01X0044769Y-031741D01*
G01X0044769Y-031741D02*
G01X0044750Y-031816D01*
G01X0044750Y-031816D02*
G01X0044731Y-031854D01*
G01X0044731Y-031854D02*
G01X0044713Y-031872D01*
G01X0044713Y-031872D02*
G01X0044675Y-031891D01*
G01X0044675Y-031891D02*
G01X0044638Y-031891D01*
G01X0044638Y-031891D02*
G01X0044600Y-031872D01*
G01X0044600Y-031872D02*
G01X0044581Y-031854D01*
G01X0044581Y-031854D02*
G01X0044563Y-031816D01*
G01X0044563Y-031816D02*
G01X0044544Y-031741D01*
G01X0044544Y-031741D02*
G01X0044544Y-031647D01*
G01X0044544Y-031647D02*
G01X0044563Y-031572D01*
G01X0044563Y-031572D02*
G01X0044581Y-031535D01*
G01X0044581Y-031535D02*
G01X0044600Y-031516D01*
G01X0044600Y-031516D02*
G01X0044638Y-031497D01*
G01X0045238Y-031891D02*
G01X0045238Y-031629D01*
G01X0045238Y-031666D02*
G01X0045256Y-031647D01*
G01X0045256Y-031647D02*
G01X0045294Y-031629D01*
G01X0045294Y-031629D02*
G01X0045350Y-031629D01*
G01X0045350Y-031629D02*
G01X0045388Y-031647D01*
G01X0045388Y-031647D02*
G01X0045406Y-031685D01*
G01X0045406Y-031685D02*
G01X0045406Y-031891D01*
G01X0045406Y-031685D02*
G01X0045425Y-031647D01*
G01X0045425Y-031647D02*
G01X0045463Y-031629D01*
G01X0045463Y-031629D02*
G01X0045519Y-031629D01*
G01X0045519Y-031629D02*
G01X0045556Y-031647D01*
G01X0045556Y-031647D02*
G01X0045575Y-031685D01*
G01X0045575Y-031685D02*
G01X0045575Y-031891D01*
G01X0045763Y-031891D02*
G01X0045763Y-031629D01*
G01X0045763Y-031666D02*
G01X0045781Y-031647D01*
G01X0045781Y-031647D02*
G01X0045819Y-031629D01*
G01X0045819Y-031629D02*
G01X0045875Y-031629D01*
G01X0045875Y-031629D02*
G01X0045913Y-031647D01*
G01X0045913Y-031647D02*
G01X0045931Y-031685D01*
G01X0045931Y-031685D02*
G01X0045931Y-031891D01*
G01X0045931Y-031685D02*
G01X0045950Y-031647D01*
G01X0045950Y-031647D02*
G01X0045988Y-031629D01*
G01X0045988Y-031629D02*
G01X0046044Y-031629D01*
G01X0046044Y-031629D02*
G01X0046081Y-031647D01*
G01X0046081Y-031647D02*
G01X0046100Y-031685D01*
G01X0046100Y-031685D02*
G01X0046100Y-031891D01*
G01X0039862Y-032086D02*
G01X0049114Y-032086D01*
G01X0039862Y-033562D02*
G01X0039862Y-031377D01*
G01X0049114Y-033562D02*
G01X0049114Y-031377D01*
G01X0049114Y-032086D02*
G01X0048670Y-032317D01*
G01X0049114Y-032086D02*
G01X0048670Y-031855D01*
G01X0039862Y-032086D02*
G01X0040305Y-032317D01*
G01X0039862Y-032086D02*
G01X0040305Y-031855D01*
G01X0050748Y-039820D02*
G01X0050729Y-039801D01*
G01X0050729Y-039801D02*
G01X0050710Y-039763D01*
G01X0050710Y-039763D02*
G01X0050710Y-039670D01*
G01X0050710Y-039670D02*
G01X0050729Y-039632D01*
G01X0050729Y-039632D02*
G01X0050748Y-039613D01*
G01X0050748Y-039613D02*
G01X0050785Y-039595D01*
G01X0050785Y-039595D02*
G01X0050823Y-039595D01*
G01X0050823Y-039595D02*
G01X0050879Y-039613D01*
G01X0050879Y-039613D02*
G01X0051104Y-039838D01*
G01X0051104Y-039838D02*
G01X0051104Y-039595D01*
G01X0050710Y-039463D02*
G01X0050710Y-039220D01*
G01X0050710Y-039220D02*
G01X0050860Y-039351D01*
G01X0050860Y-039351D02*
G01X0050860Y-039295D01*
G01X0050860Y-039295D02*
G01X0050879Y-039257D01*
G01X0050879Y-039257D02*
G01X0050898Y-039238D01*
G01X0050898Y-039238D02*
G01X0050935Y-039220D01*
G01X0050935Y-039220D02*
G01X0051029Y-039220D01*
G01X0051029Y-039220D02*
G01X0051066Y-039238D01*
G01X0051066Y-039238D02*
G01X0051085Y-039257D01*
G01X0051085Y-039257D02*
G01X0051104Y-039295D01*
G01X0051104Y-039295D02*
G01X0051104Y-039407D01*
G01X0051104Y-039407D02*
G01X0051085Y-039445D01*
G01X0051085Y-039445D02*
G01X0051066Y-039463D01*
G01X0051066Y-039051D02*
G01X0051085Y-039032D01*
G01X0051085Y-039032D02*
G01X0051104Y-039051D01*
G01X0051104Y-039051D02*
G01X0051085Y-039070D01*
G01X0051085Y-039070D02*
G01X0051066Y-039051D01*
G01X0051066Y-039051D02*
G01X0051104Y-039051D01*
G01X0050710Y-038676D02*
G01X0050710Y-038863D01*
G01X0050710Y-038863D02*
G01X0050898Y-038882D01*
G01X0050898Y-038882D02*
G01X0050879Y-038863D01*
G01X0050879Y-038863D02*
G01X0050860Y-038826D01*
G01X0050860Y-038826D02*
G01X0050860Y-038732D01*
G01X0050860Y-038732D02*
G01X0050879Y-038695D01*
G01X0050879Y-038695D02*
G01X0050898Y-038676D01*
G01X0050898Y-038676D02*
G01X0050935Y-038657D01*
G01X0050935Y-038657D02*
G01X0051029Y-038657D01*
G01X0051029Y-038657D02*
G01X0051066Y-038676D01*
G01X0051066Y-038676D02*
G01X0051085Y-038695D01*
G01X0051085Y-038695D02*
G01X0051104Y-038732D01*
G01X0051104Y-038732D02*
G01X0051104Y-038826D01*
G01X0051104Y-038826D02*
G01X0051085Y-038863D01*
G01X0051085Y-038863D02*
G01X0051066Y-038882D01*
G01X0050710Y-038413D02*
G01X0050710Y-038376D01*
G01X0050710Y-038376D02*
G01X0050729Y-038338D01*
G01X0050729Y-038338D02*
G01X0050748Y-038320D01*
G01X0050748Y-038320D02*
G01X0050785Y-038301D01*
G01X0050785Y-038301D02*
G01X0050860Y-038282D01*
G01X0050860Y-038282D02*
G01X0050954Y-038282D01*
G01X0050954Y-038282D02*
G01X0051029Y-038301D01*
G01X0051029Y-038301D02*
G01X0051066Y-038320D01*
G01X0051066Y-038320D02*
G01X0051085Y-038338D01*
G01X0051085Y-038338D02*
G01X0051104Y-038376D01*
G01X0051104Y-038376D02*
G01X0051104Y-038413D01*
G01X0051104Y-038413D02*
G01X0051085Y-038451D01*
G01X0051085Y-038451D02*
G01X0051066Y-038470D01*
G01X0051066Y-038470D02*
G01X0051029Y-038488D01*
G01X0051029Y-038488D02*
G01X0050954Y-038507D01*
G01X0050954Y-038507D02*
G01X0050860Y-038507D01*
G01X0050860Y-038507D02*
G01X0050785Y-038488D01*
G01X0050785Y-038488D02*
G01X0050748Y-038470D01*
G01X0050748Y-038470D02*
G01X0050729Y-038451D01*
G01X0050729Y-038451D02*
G01X0050710Y-038413D01*
G01X0050710Y-038038D02*
G01X0050710Y-038001D01*
G01X0050710Y-038001D02*
G01X0050729Y-037964D01*
G01X0050729Y-037964D02*
G01X0050748Y-037945D01*
G01X0050748Y-037945D02*
G01X0050785Y-037926D01*
G01X0050785Y-037926D02*
G01X0050860Y-037907D01*
G01X0050860Y-037907D02*
G01X0050954Y-037907D01*
G01X0050954Y-037907D02*
G01X0051029Y-037926D01*
G01X0051029Y-037926D02*
G01X0051066Y-037945D01*
G01X0051066Y-037945D02*
G01X0051085Y-037964D01*
G01X0051085Y-037964D02*
G01X0051104Y-038001D01*
G01X0051104Y-038001D02*
G01X0051104Y-038038D01*
G01X0051104Y-038038D02*
G01X0051085Y-038076D01*
G01X0051085Y-038076D02*
G01X0051066Y-038095D01*
G01X0051066Y-038095D02*
G01X0051029Y-038113D01*
G01X0051029Y-038113D02*
G01X0050954Y-038132D01*
G01X0050954Y-038132D02*
G01X0050860Y-038132D01*
G01X0050860Y-038132D02*
G01X0050785Y-038113D01*
G01X0050785Y-038113D02*
G01X0050748Y-038095D01*
G01X0050748Y-038095D02*
G01X0050729Y-038076D01*
G01X0050729Y-038076D02*
G01X0050710Y-038038D01*
G01X0051104Y-037439D02*
G01X0050841Y-037439D01*
G01X0050879Y-037439D02*
G01X0050860Y-037420D01*
G01X0050860Y-037420D02*
G01X0050841Y-037382D01*
G01X0050841Y-037382D02*
G01X0050841Y-037326D01*
G01X0050841Y-037326D02*
G01X0050860Y-037289D01*
G01X0050860Y-037289D02*
G01X0050898Y-037270D01*
G01X0050898Y-037270D02*
G01X0051104Y-037270D01*
G01X0050898Y-037270D02*
G01X0050860Y-037251D01*
G01X0050860Y-037251D02*
G01X0050841Y-037214D01*
G01X0050841Y-037214D02*
G01X0050841Y-037157D01*
G01X0050841Y-037157D02*
G01X0050860Y-037120D01*
G01X0050860Y-037120D02*
G01X0050898Y-037101D01*
G01X0050898Y-037101D02*
G01X0051104Y-037101D01*
G01X0051104Y-036914D02*
G01X0050841Y-036914D01*
G01X0050879Y-036914D02*
G01X0050860Y-036895D01*
G01X0050860Y-036895D02*
G01X0050841Y-036857D01*
G01X0050841Y-036857D02*
G01X0050841Y-036801D01*
G01X0050841Y-036801D02*
G01X0050860Y-036764D01*
G01X0050860Y-036764D02*
G01X0050898Y-036745D01*
G01X0050898Y-036745D02*
G01X0051104Y-036745D01*
G01X0050898Y-036745D02*
G01X0050860Y-036726D01*
G01X0050860Y-036726D02*
G01X0050841Y-036689D01*
G01X0050841Y-036689D02*
G01X0050841Y-036632D01*
G01X0050841Y-036632D02*
G01X0050860Y-036595D01*
G01X0050860Y-036595D02*
G01X0050898Y-036576D01*
G01X0050898Y-036576D02*
G01X0051104Y-036576D01*
G01X0050590Y-042814D02*
G01X0050590Y-033562D01*
G01X0049114Y-042814D02*
G01X0051299Y-042814D01*
G01X0049114Y-033562D02*
G01X0051299Y-033562D01*
G01X0050590Y-033562D02*
G01X0050821Y-034006D01*
G01X0050590Y-033562D02*
G01X0050359Y-034006D01*
G01X0050590Y-042814D02*
G01X0050821Y-042371D01*
G01X0050590Y-042814D02*
G01X0050359Y-042371D01*
G01X0050119Y-039595D02*
G01X0050119Y-039820D01*
G01X0050119Y-039707D02*
G01X0049726Y-039707D01*
G01X0049726Y-039707D02*
G01X0049782Y-039745D01*
G01X0049782Y-039745D02*
G01X0049820Y-039782D01*
G01X0049820Y-039782D02*
G01X0049838Y-039820D01*
G01X0049895Y-039370D02*
G01X0049876Y-039407D01*
G01X0049876Y-039407D02*
G01X0049857Y-039426D01*
G01X0049857Y-039426D02*
G01X0049820Y-039445D01*
G01X0049820Y-039445D02*
G01X0049801Y-039445D01*
G01X0049801Y-039445D02*
G01X0049763Y-039426D01*
G01X0049763Y-039426D02*
G01X0049745Y-039407D01*
G01X0049745Y-039407D02*
G01X0049726Y-039370D01*
G01X0049726Y-039370D02*
G01X0049726Y-039295D01*
G01X0049726Y-039295D02*
G01X0049745Y-039257D01*
G01X0049745Y-039257D02*
G01X0049763Y-039238D01*
G01X0049763Y-039238D02*
G01X0049801Y-039220D01*
G01X0049801Y-039220D02*
G01X0049820Y-039220D01*
G01X0049820Y-039220D02*
G01X0049857Y-039238D01*
G01X0049857Y-039238D02*
G01X0049876Y-039257D01*
G01X0049876Y-039257D02*
G01X0049895Y-039295D01*
G01X0049895Y-039295D02*
G01X0049895Y-039370D01*
G01X0049895Y-039370D02*
G01X0049913Y-039407D01*
G01X0049913Y-039407D02*
G01X0049932Y-039426D01*
G01X0049932Y-039426D02*
G01X0049970Y-039445D01*
G01X0049970Y-039445D02*
G01X0050044Y-039445D01*
G01X0050044Y-039445D02*
G01X0050082Y-039426D01*
G01X0050082Y-039426D02*
G01X0050101Y-039407D01*
G01X0050101Y-039407D02*
G01X0050119Y-039370D01*
G01X0050119Y-039370D02*
G01X0050119Y-039295D01*
G01X0050119Y-039295D02*
G01X0050101Y-039257D01*
G01X0050101Y-039257D02*
G01X0050082Y-039238D01*
G01X0050082Y-039238D02*
G01X0050044Y-039220D01*
G01X0050044Y-039220D02*
G01X0049970Y-039220D01*
G01X0049970Y-039220D02*
G01X0049932Y-039238D01*
G01X0049932Y-039238D02*
G01X0049913Y-039257D01*
G01X0049913Y-039257D02*
G01X0049895Y-039295D01*
G01X0050082Y-039051D02*
G01X0050101Y-039032D01*
G01X0050101Y-039032D02*
G01X0050119Y-039051D01*
G01X0050119Y-039051D02*
G01X0050101Y-039070D01*
G01X0050101Y-039070D02*
G01X0050082Y-039051D01*
G01X0050082Y-039051D02*
G01X0050119Y-039051D01*
G01X0049726Y-038788D02*
G01X0049726Y-038751D01*
G01X0049726Y-038751D02*
G01X0049745Y-038713D01*
G01X0049745Y-038713D02*
G01X0049763Y-038695D01*
G01X0049763Y-038695D02*
G01X0049801Y-038676D01*
G01X0049801Y-038676D02*
G01X0049876Y-038657D01*
G01X0049876Y-038657D02*
G01X0049970Y-038657D01*
G01X0049970Y-038657D02*
G01X0050044Y-038676D01*
G01X0050044Y-038676D02*
G01X0050082Y-038695D01*
G01X0050082Y-038695D02*
G01X0050101Y-038713D01*
G01X0050101Y-038713D02*
G01X0050119Y-038751D01*
G01X0050119Y-038751D02*
G01X0050119Y-038788D01*
G01X0050119Y-038788D02*
G01X0050101Y-038826D01*
G01X0050101Y-038826D02*
G01X0050082Y-038845D01*
G01X0050082Y-038845D02*
G01X0050044Y-038863D01*
G01X0050044Y-038863D02*
G01X0049970Y-038882D01*
G01X0049970Y-038882D02*
G01X0049876Y-038882D01*
G01X0049876Y-038882D02*
G01X0049801Y-038863D01*
G01X0049801Y-038863D02*
G01X0049763Y-038845D01*
G01X0049763Y-038845D02*
G01X0049745Y-038826D01*
G01X0049745Y-038826D02*
G01X0049726Y-038788D01*
G01X0049726Y-038413D02*
G01X0049726Y-038376D01*
G01X0049726Y-038376D02*
G01X0049745Y-038338D01*
G01X0049745Y-038338D02*
G01X0049763Y-038320D01*
G01X0049763Y-038320D02*
G01X0049801Y-038301D01*
G01X0049801Y-038301D02*
G01X0049876Y-038282D01*
G01X0049876Y-038282D02*
G01X0049970Y-038282D01*
G01X0049970Y-038282D02*
G01X0050044Y-038301D01*
G01X0050044Y-038301D02*
G01X0050082Y-038320D01*
G01X0050082Y-038320D02*
G01X0050101Y-038338D01*
G01X0050101Y-038338D02*
G01X0050119Y-038376D01*
G01X0050119Y-038376D02*
G01X0050119Y-038413D01*
G01X0050119Y-038413D02*
G01X0050101Y-038451D01*
G01X0050101Y-038451D02*
G01X0050082Y-038470D01*
G01X0050082Y-038470D02*
G01X0050044Y-038488D01*
G01X0050044Y-038488D02*
G01X0049970Y-038507D01*
G01X0049970Y-038507D02*
G01X0049876Y-038507D01*
G01X0049876Y-038507D02*
G01X0049801Y-038488D01*
G01X0049801Y-038488D02*
G01X0049763Y-038470D01*
G01X0049763Y-038470D02*
G01X0049745Y-038451D01*
G01X0049745Y-038451D02*
G01X0049726Y-038413D01*
G01X0049726Y-038038D02*
G01X0049726Y-038001D01*
G01X0049726Y-038001D02*
G01X0049745Y-037964D01*
G01X0049745Y-037964D02*
G01X0049763Y-037945D01*
G01X0049763Y-037945D02*
G01X0049801Y-037926D01*
G01X0049801Y-037926D02*
G01X0049876Y-037907D01*
G01X0049876Y-037907D02*
G01X0049970Y-037907D01*
G01X0049970Y-037907D02*
G01X0050044Y-037926D01*
G01X0050044Y-037926D02*
G01X0050082Y-037945D01*
G01X0050082Y-037945D02*
G01X0050101Y-037964D01*
G01X0050101Y-037964D02*
G01X0050119Y-038001D01*
G01X0050119Y-038001D02*
G01X0050119Y-038038D01*
G01X0050119Y-038038D02*
G01X0050101Y-038076D01*
G01X0050101Y-038076D02*
G01X0050082Y-038095D01*
G01X0050082Y-038095D02*
G01X0050044Y-038113D01*
G01X0050044Y-038113D02*
G01X0049970Y-038132D01*
G01X0049970Y-038132D02*
G01X0049876Y-038132D01*
G01X0049876Y-038132D02*
G01X0049801Y-038113D01*
G01X0049801Y-038113D02*
G01X0049763Y-038095D01*
G01X0049763Y-038095D02*
G01X0049745Y-038076D01*
G01X0049745Y-038076D02*
G01X0049726Y-038038D01*
G01X0050119Y-037439D02*
G01X0049857Y-037439D01*
G01X0049895Y-037439D02*
G01X0049876Y-037420D01*
G01X0049876Y-037420D02*
G01X0049857Y-037382D01*
G01X0049857Y-037382D02*
G01X0049857Y-037326D01*
G01X0049857Y-037326D02*
G01X0049876Y-037289D01*
G01X0049876Y-037289D02*
G01X0049913Y-037270D01*
G01X0049913Y-037270D02*
G01X0050119Y-037270D01*
G01X0049913Y-037270D02*
G01X0049876Y-037251D01*
G01X0049876Y-037251D02*
G01X0049857Y-037214D01*
G01X0049857Y-037214D02*
G01X0049857Y-037157D01*
G01X0049857Y-037157D02*
G01X0049876Y-037120D01*
G01X0049876Y-037120D02*
G01X0049913Y-037101D01*
G01X0049913Y-037101D02*
G01X0050119Y-037101D01*
G01X0050119Y-036914D02*
G01X0049857Y-036914D01*
G01X0049895Y-036914D02*
G01X0049876Y-036895D01*
G01X0049876Y-036895D02*
G01X0049857Y-036857D01*
G01X0049857Y-036857D02*
G01X0049857Y-036801D01*
G01X0049857Y-036801D02*
G01X0049876Y-036764D01*
G01X0049876Y-036764D02*
G01X0049913Y-036745D01*
G01X0049913Y-036745D02*
G01X0050119Y-036745D01*
G01X0049913Y-036745D02*
G01X0049876Y-036726D01*
G01X0049876Y-036726D02*
G01X0049857Y-036689D01*
G01X0049857Y-036689D02*
G01X0049857Y-036632D01*
G01X0049857Y-036632D02*
G01X0049876Y-036595D01*
G01X0049876Y-036595D02*
G01X0049913Y-036576D01*
G01X0049913Y-036576D02*
G01X0050119Y-036576D01*
G01X0049606Y-041732D02*
G01X0049606Y-034645D01*
G01X0048031Y-041732D02*
G01X0050314Y-041732D01*
G01X0048031Y-034645D02*
G01X0050314Y-034645D01*
G01X0049606Y-034645D02*
G01X0049837Y-035089D01*
G01X0049606Y-034645D02*
G01X0049375Y-035089D01*
G01X0049606Y-041732D02*
G01X0049837Y-041288D01*
G01X0049606Y-041732D02*
G01X0049375Y-041288D01*
G01X0043082Y-032875D02*
G01X0042857Y-032875D01*
G01X0042969Y-032875D02*
G01X0042969Y-032482D01*
G01X0042969Y-032482D02*
G01X0042932Y-032538D01*
G01X0042932Y-032538D02*
G01X0042894Y-032575D01*
G01X0042894Y-032575D02*
G01X0042857Y-032594D01*
G01X0043307Y-032650D02*
G01X0043269Y-032632D01*
G01X0043269Y-032632D02*
G01X0043250Y-032613D01*
G01X0043250Y-032613D02*
G01X0043232Y-032575D01*
G01X0043232Y-032575D02*
G01X0043232Y-032557D01*
G01X0043232Y-032557D02*
G01X0043250Y-032519D01*
G01X0043250Y-032519D02*
G01X0043269Y-032500D01*
G01X0043269Y-032500D02*
G01X0043307Y-032482D01*
G01X0043307Y-032482D02*
G01X0043382Y-032482D01*
G01X0043382Y-032482D02*
G01X0043419Y-032500D01*
G01X0043419Y-032500D02*
G01X0043438Y-032519D01*
G01X0043438Y-032519D02*
G01X0043457Y-032557D01*
G01X0043457Y-032557D02*
G01X0043457Y-032575D01*
G01X0043457Y-032575D02*
G01X0043438Y-032613D01*
G01X0043438Y-032613D02*
G01X0043419Y-032632D01*
G01X0043419Y-032632D02*
G01X0043382Y-032650D01*
G01X0043382Y-032650D02*
G01X0043307Y-032650D01*
G01X0043307Y-032650D02*
G01X0043269Y-032669D01*
G01X0043269Y-032669D02*
G01X0043250Y-032688D01*
G01X0043250Y-032688D02*
G01X0043232Y-032725D01*
G01X0043232Y-032725D02*
G01X0043232Y-032800D01*
G01X0043232Y-032800D02*
G01X0043250Y-032838D01*
G01X0043250Y-032838D02*
G01X0043269Y-032857D01*
G01X0043269Y-032857D02*
G01X0043307Y-032875D01*
G01X0043307Y-032875D02*
G01X0043382Y-032875D01*
G01X0043382Y-032875D02*
G01X0043419Y-032857D01*
G01X0043419Y-032857D02*
G01X0043438Y-032838D01*
G01X0043438Y-032838D02*
G01X0043457Y-032800D01*
G01X0043457Y-032800D02*
G01X0043457Y-032725D01*
G01X0043457Y-032725D02*
G01X0043438Y-032688D01*
G01X0043438Y-032688D02*
G01X0043419Y-032669D01*
G01X0043419Y-032669D02*
G01X0043382Y-032650D01*
G01X0043625Y-032838D02*
G01X0043644Y-032857D01*
G01X0043644Y-032857D02*
G01X0043625Y-032875D01*
G01X0043625Y-032875D02*
G01X0043607Y-032857D01*
G01X0043607Y-032857D02*
G01X0043625Y-032838D01*
G01X0043625Y-032838D02*
G01X0043625Y-032875D01*
G01X0043888Y-032482D02*
G01X0043925Y-032482D01*
G01X0043925Y-032482D02*
G01X0043963Y-032500D01*
G01X0043963Y-032500D02*
G01X0043982Y-032519D01*
G01X0043982Y-032519D02*
G01X0044000Y-032557D01*
G01X0044000Y-032557D02*
G01X0044019Y-032632D01*
G01X0044019Y-032632D02*
G01X0044019Y-032725D01*
G01X0044019Y-032725D02*
G01X0044000Y-032800D01*
G01X0044000Y-032800D02*
G01X0043982Y-032838D01*
G01X0043982Y-032838D02*
G01X0043963Y-032857D01*
G01X0043963Y-032857D02*
G01X0043925Y-032875D01*
G01X0043925Y-032875D02*
G01X0043888Y-032875D01*
G01X0043888Y-032875D02*
G01X0043850Y-032857D01*
G01X0043850Y-032857D02*
G01X0043832Y-032838D01*
G01X0043832Y-032838D02*
G01X0043813Y-032800D01*
G01X0043813Y-032800D02*
G01X0043794Y-032725D01*
G01X0043794Y-032725D02*
G01X0043794Y-032632D01*
G01X0043794Y-032632D02*
G01X0043813Y-032557D01*
G01X0043813Y-032557D02*
G01X0043832Y-032519D01*
G01X0043832Y-032519D02*
G01X0043850Y-032500D01*
G01X0043850Y-032500D02*
G01X0043888Y-032482D01*
G01X0044263Y-032482D02*
G01X0044300Y-032482D01*
G01X0044300Y-032482D02*
G01X0044338Y-032500D01*
G01X0044338Y-032500D02*
G01X0044356Y-032519D01*
G01X0044356Y-032519D02*
G01X0044375Y-032557D01*
G01X0044375Y-032557D02*
G01X0044394Y-032632D01*
G01X0044394Y-032632D02*
G01X0044394Y-032725D01*
G01X0044394Y-032725D02*
G01X0044375Y-032800D01*
G01X0044375Y-032800D02*
G01X0044356Y-032838D01*
G01X0044356Y-032838D02*
G01X0044338Y-032857D01*
G01X0044338Y-032857D02*
G01X0044300Y-032875D01*
G01X0044300Y-032875D02*
G01X0044263Y-032875D01*
G01X0044263Y-032875D02*
G01X0044225Y-032857D01*
G01X0044225Y-032857D02*
G01X0044206Y-032838D01*
G01X0044206Y-032838D02*
G01X0044188Y-032800D01*
G01X0044188Y-032800D02*
G01X0044169Y-032725D01*
G01X0044169Y-032725D02*
G01X0044169Y-032632D01*
G01X0044169Y-032632D02*
G01X0044188Y-032557D01*
G01X0044188Y-032557D02*
G01X0044206Y-032519D01*
G01X0044206Y-032519D02*
G01X0044225Y-032500D01*
G01X0044225Y-032500D02*
G01X0044263Y-032482D01*
G01X0044638Y-032482D02*
G01X0044675Y-032482D01*
G01X0044675Y-032482D02*
G01X0044713Y-032500D01*
G01X0044713Y-032500D02*
G01X0044731Y-032519D01*
G01X0044731Y-032519D02*
G01X0044750Y-032557D01*
G01X0044750Y-032557D02*
G01X0044769Y-032632D01*
G01X0044769Y-032632D02*
G01X0044769Y-032725D01*
G01X0044769Y-032725D02*
G01X0044750Y-032800D01*
G01X0044750Y-032800D02*
G01X0044731Y-032838D01*
G01X0044731Y-032838D02*
G01X0044713Y-032857D01*
G01X0044713Y-032857D02*
G01X0044675Y-032875D01*
G01X0044675Y-032875D02*
G01X0044638Y-032875D01*
G01X0044638Y-032875D02*
G01X0044600Y-032857D01*
G01X0044600Y-032857D02*
G01X0044581Y-032838D01*
G01X0044581Y-032838D02*
G01X0044563Y-032800D01*
G01X0044563Y-032800D02*
G01X0044544Y-032725D01*
G01X0044544Y-032725D02*
G01X0044544Y-032632D01*
G01X0044544Y-032632D02*
G01X0044563Y-032557D01*
G01X0044563Y-032557D02*
G01X0044581Y-032519D01*
G01X0044581Y-032519D02*
G01X0044600Y-032500D01*
G01X0044600Y-032500D02*
G01X0044638Y-032482D01*
G01X0045238Y-032875D02*
G01X0045238Y-032613D01*
G01X0045238Y-032650D02*
G01X0045256Y-032632D01*
G01X0045256Y-032632D02*
G01X0045294Y-032613D01*
G01X0045294Y-032613D02*
G01X0045350Y-032613D01*
G01X0045350Y-032613D02*
G01X0045388Y-032632D01*
G01X0045388Y-032632D02*
G01X0045406Y-032669D01*
G01X0045406Y-032669D02*
G01X0045406Y-032875D01*
G01X0045406Y-032669D02*
G01X0045425Y-032632D01*
G01X0045425Y-032632D02*
G01X0045463Y-032613D01*
G01X0045463Y-032613D02*
G01X0045519Y-032613D01*
G01X0045519Y-032613D02*
G01X0045556Y-032632D01*
G01X0045556Y-032632D02*
G01X0045575Y-032669D01*
G01X0045575Y-032669D02*
G01X0045575Y-032875D01*
G01X0045763Y-032875D02*
G01X0045763Y-032613D01*
G01X0045763Y-032650D02*
G01X0045781Y-032632D01*
G01X0045781Y-032632D02*
G01X0045819Y-032613D01*
G01X0045819Y-032613D02*
G01X0045875Y-032613D01*
G01X0045875Y-032613D02*
G01X0045913Y-032632D01*
G01X0045913Y-032632D02*
G01X0045931Y-032669D01*
G01X0045931Y-032669D02*
G01X0045931Y-032875D01*
G01X0045931Y-032669D02*
G01X0045950Y-032632D01*
G01X0045950Y-032632D02*
G01X0045988Y-032613D01*
G01X0045988Y-032613D02*
G01X0046044Y-032613D01*
G01X0046044Y-032613D02*
G01X0046081Y-032632D01*
G01X0046081Y-032632D02*
G01X0046100Y-032669D01*
G01X0046100Y-032669D02*
G01X0046100Y-032875D01*
G01X0040944Y-033070D02*
G01X0048031Y-033070D01*
G01X0040944Y-034645D02*
G01X0040944Y-032362D01*
G01X0048031Y-034645D02*
G01X0048031Y-032362D01*
G01X0048031Y-033070D02*
G01X0047587Y-033301D01*
G01X0048031Y-033070D02*
G01X0047587Y-032839D01*
G01X0040944Y-033070D02*
G01X0041388Y-033301D01*
G01X0040944Y-033070D02*
G01X0041388Y-032839D01*
M02*
