G04 (created by PCBNEW (2013-01-21 BZR 3918)-testing) date Tue 22 Jan 2013 11:48:31 PM CET*
%MOIN*%
G04 Gerber Fmt 3.4, Leading zero omitted, Abs format*
%FSLAX34Y34*%
G01*
G70*
G90*
G04 APERTURE LIST*
%ADD10C,3.14961e-06*%
%ADD11C,0.00984252*%
%ADD12C,0.0531496*%
%ADD13C,0.0688976*%
%ADD14C,0.15748*%
%ADD15O,0.15748X0.15748*%
%ADD16R,0.06X0.06*%
%ADD17C,0.06*%
%ADD18R,0.0314X0.0314*%
%ADD19C,0.0984252*%
%ADD20C,0.025*%
%ADD21C,0.008*%
G04 APERTURE END LIST*
G54D10*
G54D11*
X39960Y-41732D02*
X39960Y-34645D01*
X48031Y-42716D02*
X40944Y-42716D01*
X49015Y-34645D02*
X49015Y-41732D01*
X40944Y-33661D02*
X48031Y-33661D01*
X39960Y-41732D02*
G75*
G03X40944Y-42716I984J0D01*
G74*
G01*
X48031Y-42716D02*
G75*
G03X49015Y-41732I0J984D01*
G74*
G01*
X49015Y-34645D02*
G75*
G03X48031Y-33661I-984J0D01*
G74*
G01*
X40944Y-33661D02*
G75*
G03X39960Y-34645I0J-984D01*
G74*
G01*
G54D12*
X40551Y-36122D03*
X41338Y-36122D03*
X40551Y-36909D03*
X41338Y-36909D03*
X40551Y-37696D03*
X41338Y-37696D03*
G54D13*
X43503Y-41830D03*
X45472Y-41830D03*
X44488Y-41830D03*
X45472Y-36122D03*
X43503Y-36122D03*
G54D14*
X46929Y-38877D03*
G54D15*
X42047Y-38877D03*
G54D16*
X45988Y-34350D03*
G54D17*
X44988Y-34350D03*
X43988Y-34350D03*
X42988Y-34350D03*
G54D18*
X44488Y-35256D03*
X44488Y-35846D03*
G54D19*
X48031Y-41732D03*
X40944Y-34645D03*
X40944Y-41732D03*
X48031Y-34645D03*
G54D20*
X42814Y-37795D03*
X42992Y-38149D03*
X42401Y-35472D03*
X44232Y-38444D03*
X45255Y-38602D03*
X45236Y-39566D03*
X46358Y-35492D03*
X43740Y-37992D03*
X43937Y-38858D03*
X47401Y-36811D03*
X46000Y-41150D03*
X42460Y-35039D03*
X43385Y-35137D03*
G54D21*
X42814Y-37795D02*
X43188Y-37795D01*
X43503Y-36633D02*
X43287Y-36850D01*
X43287Y-36850D02*
X43287Y-37696D01*
X43503Y-36122D02*
X43503Y-36633D01*
X43188Y-37795D02*
X43287Y-37696D01*
X40551Y-36122D02*
X40944Y-36515D01*
X42814Y-38149D02*
X42992Y-38149D01*
X42500Y-37834D02*
X42814Y-38149D01*
X42500Y-36889D02*
X42500Y-37834D01*
X42125Y-36515D02*
X42500Y-36889D01*
X40944Y-36515D02*
X42125Y-36515D01*
X44074Y-38129D02*
X44232Y-38287D01*
X44074Y-35708D02*
X44074Y-38129D01*
X43818Y-35452D02*
X44074Y-35708D01*
X42421Y-35452D02*
X43818Y-35452D01*
X42401Y-35472D02*
X42421Y-35452D01*
X44232Y-38287D02*
X44232Y-38444D01*
X45236Y-38622D02*
X45255Y-38602D01*
X45236Y-39566D02*
X45236Y-38622D01*
X46003Y-35137D02*
X46358Y-35492D01*
X45236Y-34842D02*
X45531Y-35137D01*
X45531Y-35137D02*
X46003Y-35137D01*
X44480Y-34842D02*
X45236Y-34842D01*
X43988Y-34350D02*
X44480Y-34842D01*
X40551Y-39547D02*
X40551Y-37696D01*
X40964Y-39960D02*
X40551Y-39547D01*
X42755Y-39960D02*
X40964Y-39960D01*
X43307Y-39409D02*
X42755Y-39960D01*
X43307Y-38425D02*
X43307Y-39409D01*
X43740Y-37992D02*
X43307Y-38425D01*
X44488Y-38858D02*
X43937Y-38858D01*
X44488Y-35846D02*
X44546Y-35787D01*
X45137Y-35787D02*
X45472Y-36122D01*
X44546Y-35787D02*
X45137Y-35787D01*
X45374Y-36220D02*
X45472Y-36122D01*
X44488Y-41830D02*
X44488Y-38858D01*
X44488Y-38858D02*
X44488Y-37106D01*
X44488Y-37106D02*
X45472Y-36122D01*
X44488Y-35256D02*
X45374Y-35256D01*
X47401Y-36555D02*
X47401Y-36811D01*
X47125Y-36279D02*
X47401Y-36555D01*
X46653Y-36279D02*
X47125Y-36279D01*
X45905Y-35531D02*
X46653Y-36279D01*
X45649Y-35531D02*
X45905Y-35531D01*
X45374Y-35256D02*
X45649Y-35531D01*
X46350Y-41150D02*
X47047Y-40452D01*
X48031Y-36751D02*
X46240Y-34960D01*
X47047Y-40452D02*
X47539Y-40452D01*
X47539Y-40452D02*
X48031Y-39960D01*
X48031Y-39960D02*
X48031Y-36751D01*
X45598Y-34960D02*
X44988Y-34350D01*
X46240Y-34960D02*
X45598Y-34960D01*
X46000Y-41150D02*
X46350Y-41150D01*
X42460Y-35039D02*
X42559Y-35137D01*
X42559Y-35137D02*
X43385Y-35137D01*
M02*
