G04 (created by PCBNEW (2013-02-22 BZR 3968)-testing) date Thu 28 Feb 2013 03:11:46 PM CET*
%MOIN*%
G04 Gerber Fmt 3.4, Leading zero omitted, Abs format*
%FSLAX34Y34*%
G01*
G70*
G90*
G04 APERTURE LIST*
%ADD10C,3.14961e-06*%
%ADD11C,0.00787402*%
%ADD12R,0.059X0.0511*%
%ADD13R,0.0511811X0.0511811*%
%ADD14C,0.0511811*%
%ADD15R,0.0649606X0.0649606*%
%ADD16C,0.0649606*%
%ADD17R,0.0275591X0.0866142*%
%ADD18C,0.0688976*%
%ADD19C,0.15748*%
%ADD20O,0.15748X0.15748*%
%ADD21C,0.0984252*%
%ADD22C,0.0255906*%
%ADD23C,0.0393701*%
%ADD24C,0.00984252*%
%ADD25C,0.000393701*%
%ADD26C,0.015748*%
%ADD27C,0.00629921*%
G04 APERTURE END LIST*
G54D10*
G54D11*
X48129Y-33562D02*
X40846Y-33562D01*
X49114Y-41830D02*
X49114Y-34547D01*
X40846Y-42814D02*
X48129Y-42814D01*
X39862Y-34547D02*
X39862Y-41830D01*
X39862Y-41830D02*
G75*
G03X40846Y-42814I984J0D01*
G74*
G01*
X48129Y-42814D02*
G75*
G03X49114Y-41830I0J984D01*
G74*
G01*
X49114Y-34547D02*
G75*
G03X48129Y-33562I-984J0D01*
G74*
G01*
X40846Y-33562D02*
G75*
G03X39862Y-34547I0J-984D01*
G74*
G01*
G54D12*
X44488Y-35669D03*
X44488Y-36417D03*
G54D13*
X41200Y-36220D03*
G54D14*
X40374Y-36220D03*
X41161Y-37007D03*
X40413Y-37007D03*
X41200Y-37795D03*
X40374Y-37795D03*
G54D15*
X45988Y-34251D03*
G54D16*
X44988Y-34251D03*
X43988Y-34251D03*
X42988Y-34251D03*
G54D17*
X43738Y-37476D03*
X44238Y-37476D03*
X44738Y-37476D03*
X45238Y-37476D03*
X45238Y-40476D03*
X44738Y-40476D03*
X44238Y-40476D03*
X43738Y-40476D03*
G54D18*
X43503Y-41929D03*
X45472Y-41929D03*
X44488Y-41929D03*
X45472Y-36220D03*
X43503Y-36220D03*
G54D19*
X46929Y-38976D03*
G54D20*
X42047Y-38976D03*
G54D12*
X48149Y-37578D03*
X48149Y-36830D03*
G54D21*
X48031Y-34645D03*
X40944Y-41732D03*
X40944Y-34645D03*
X48031Y-41732D03*
G54D12*
X42322Y-41200D03*
X42322Y-40452D03*
X46653Y-41200D03*
X46653Y-40452D03*
X46161Y-36830D03*
X46161Y-37578D03*
X46929Y-36712D03*
X46929Y-37460D03*
X42814Y-36830D03*
X42814Y-37578D03*
X42047Y-37460D03*
X42047Y-36712D03*
G54D22*
X42047Y-37480D03*
X44173Y-39015D03*
X45157Y-38976D03*
X45196Y-39566D03*
X43188Y-39055D03*
X46299Y-35531D03*
X43740Y-38090D03*
X40905Y-39370D03*
X40905Y-38622D03*
X43031Y-38070D03*
X42125Y-33956D03*
X42125Y-34547D03*
X42125Y-35137D03*
X42125Y-35984D03*
X46732Y-35748D03*
X47559Y-36456D03*
X48700Y-36456D03*
X48700Y-37440D03*
X40196Y-39409D03*
X40748Y-40078D03*
X46732Y-42165D03*
X48700Y-39960D03*
X48700Y-38188D03*
X48700Y-39094D03*
X40196Y-40590D03*
X42992Y-40905D03*
X42322Y-42165D03*
X41299Y-40590D03*
X46929Y-36712D03*
G54D23*
X43503Y-35295D03*
X47559Y-37559D03*
X45984Y-40905D03*
G54D24*
X42047Y-37421D02*
X42047Y-37480D01*
X42322Y-41200D02*
X42322Y-41653D01*
X42598Y-41929D02*
X43503Y-41929D01*
X42322Y-41653D02*
X42598Y-41929D01*
X46653Y-41200D02*
X46653Y-41692D01*
X46417Y-41929D02*
X45472Y-41929D01*
X46653Y-41692D02*
X46417Y-41929D01*
X46791Y-37972D02*
X46929Y-37834D01*
X44238Y-38160D02*
X44242Y-38160D01*
X44242Y-38160D02*
X44527Y-38444D01*
X45925Y-38444D02*
X46397Y-37972D01*
X46397Y-37972D02*
X46791Y-37972D01*
X44527Y-38444D02*
X45925Y-38444D01*
X46929Y-37834D02*
X46929Y-37578D01*
X44238Y-38160D02*
X44238Y-37476D01*
X44051Y-38346D02*
X44238Y-38160D01*
X42814Y-37499D02*
X43198Y-37499D01*
X43198Y-37499D02*
X43339Y-37640D01*
X43339Y-37640D02*
X43339Y-38260D01*
X43339Y-38260D02*
X43425Y-38346D01*
X43425Y-38346D02*
X44051Y-38346D01*
X44488Y-39165D02*
X44738Y-39415D01*
X44488Y-39015D02*
X44488Y-39165D01*
X44173Y-39015D02*
X44488Y-39015D01*
X45669Y-40157D02*
X45964Y-40452D01*
X44738Y-39415D02*
X44881Y-39271D01*
X44881Y-39271D02*
X45570Y-39271D01*
X45570Y-39271D02*
X45669Y-39370D01*
X45669Y-39370D02*
X45669Y-40157D01*
X45964Y-40452D02*
X46653Y-40452D01*
X44738Y-40476D02*
X44738Y-39415D01*
X40807Y-36614D02*
X41948Y-36614D01*
X40413Y-37007D02*
X40807Y-36614D01*
G54D25*
X41948Y-36614D02*
X42047Y-36712D01*
G54D24*
X45157Y-38976D02*
X44881Y-38700D01*
X45196Y-39566D02*
X45238Y-39608D01*
X45238Y-40476D02*
X45238Y-39608D01*
X43543Y-38700D02*
X43188Y-39055D01*
X44881Y-38700D02*
X43543Y-38700D01*
X40393Y-37007D02*
X40413Y-37007D01*
X46299Y-35531D02*
X46161Y-35669D01*
X46161Y-36909D02*
X46161Y-35669D01*
X44485Y-36339D02*
X44485Y-36617D01*
X43738Y-36950D02*
X43738Y-37476D01*
X43937Y-36751D02*
X43738Y-36950D01*
X44350Y-36751D02*
X43937Y-36751D01*
X44485Y-36617D02*
X44350Y-36751D01*
X43738Y-38088D02*
X43738Y-37476D01*
X43740Y-38090D02*
X43738Y-38088D01*
X41161Y-37106D02*
X41161Y-37007D01*
X40787Y-37480D02*
X40787Y-38503D01*
X42322Y-40452D02*
X41771Y-40452D01*
X41161Y-37106D02*
X40787Y-37480D01*
X40905Y-39586D02*
X41771Y-40452D01*
X40905Y-39370D02*
X40905Y-39586D01*
X40787Y-38503D02*
X40905Y-38622D01*
X42322Y-40452D02*
X42854Y-40452D01*
X43188Y-39488D02*
X43188Y-40118D01*
X44238Y-39474D02*
X44015Y-39251D01*
X44015Y-39251D02*
X43425Y-39251D01*
X43425Y-39251D02*
X43188Y-39488D01*
X44238Y-39474D02*
X44238Y-40476D01*
X42854Y-40452D02*
X43188Y-40118D01*
X41181Y-37007D02*
X41181Y-37027D01*
X42814Y-36909D02*
X42814Y-34523D01*
X42814Y-34523D02*
X42988Y-34350D01*
G54D25*
X42047Y-38976D02*
X42952Y-38070D01*
X42952Y-38070D02*
X43031Y-38070D01*
X42125Y-35984D02*
X42125Y-35137D01*
X45988Y-33881D02*
X45866Y-33759D01*
X45866Y-33759D02*
X42322Y-33759D01*
X42322Y-33759D02*
X42125Y-33956D01*
X42125Y-34547D02*
X42125Y-35137D01*
X45988Y-33881D02*
X45988Y-34251D01*
X48661Y-36102D02*
X48425Y-35866D01*
X48425Y-35866D02*
X46732Y-35748D01*
X48700Y-38188D02*
X48700Y-37440D01*
X48700Y-36456D02*
X48661Y-36102D01*
X40196Y-39409D02*
X40196Y-37972D01*
X40196Y-37972D02*
X40374Y-37795D01*
G54D26*
X40374Y-37795D02*
X40374Y-38720D01*
X40629Y-38976D02*
X42047Y-38976D01*
X40374Y-38720D02*
X40629Y-38976D01*
X45988Y-34295D02*
X48149Y-36456D01*
X45988Y-34251D02*
X45988Y-34295D01*
X48149Y-36456D02*
X48149Y-36830D01*
G54D25*
X48700Y-39960D02*
X48700Y-39094D01*
X45078Y-42519D02*
X46555Y-42519D01*
X46555Y-42519D02*
X46732Y-42165D01*
X44488Y-41929D02*
X45078Y-42519D01*
X48700Y-38188D02*
X48740Y-38149D01*
X40748Y-40078D02*
X40708Y-40078D01*
X40708Y-40078D02*
X40196Y-40590D01*
X40748Y-40078D02*
X41299Y-40590D01*
G54D26*
X45909Y-35783D02*
X45909Y-34330D01*
X45472Y-36220D02*
X45909Y-35783D01*
X45909Y-34330D02*
X45988Y-34251D01*
X45238Y-37476D02*
X45238Y-36454D01*
X45238Y-36454D02*
X45472Y-36220D01*
G54D24*
X46161Y-37933D02*
X46161Y-37499D01*
X44738Y-37476D02*
X44738Y-38143D01*
X44738Y-38143D02*
X44822Y-38228D01*
X44822Y-38228D02*
X45866Y-38228D01*
X45866Y-38228D02*
X46161Y-37933D01*
G54D26*
X44488Y-35295D02*
X43503Y-35295D01*
X47559Y-37559D02*
X47578Y-37578D01*
X47578Y-37578D02*
X48149Y-37578D01*
X43738Y-41179D02*
X43779Y-41220D01*
X43738Y-41179D02*
X43738Y-40476D01*
X45984Y-41141D02*
X45984Y-40905D01*
X45905Y-41220D02*
X45984Y-41141D01*
X43779Y-41220D02*
X45905Y-41220D01*
X44485Y-35749D02*
X44485Y-35295D01*
X44485Y-35295D02*
X44488Y-35295D01*
X44488Y-35295D02*
X44842Y-35295D01*
X44988Y-34350D02*
X44988Y-35149D01*
X44842Y-35295D02*
X44988Y-35149D01*
X44485Y-35749D02*
X44450Y-35749D01*
G54D10*
G36*
X44398Y-38541D02*
X43543Y-38541D01*
X43528Y-38542D01*
X43513Y-38544D01*
X43513Y-38544D01*
X43512Y-38544D01*
X43498Y-38548D01*
X43484Y-38552D01*
X43483Y-38553D01*
X43482Y-38553D01*
X43469Y-38560D01*
X43456Y-38567D01*
X43455Y-38567D01*
X43455Y-38567D01*
X43443Y-38577D01*
X43432Y-38586D01*
X43430Y-38587D01*
X43430Y-38587D01*
X43430Y-38587D01*
X43430Y-38588D01*
X43201Y-38817D01*
X43167Y-38816D01*
X43121Y-38825D01*
X43078Y-38843D01*
X43039Y-38868D01*
X43005Y-38901D01*
X42979Y-38939D01*
X42964Y-38974D01*
X42964Y-38958D01*
X42950Y-38958D01*
X42931Y-38958D01*
X42950Y-38815D01*
X42942Y-38774D01*
X42885Y-38604D01*
X42797Y-38448D01*
X42681Y-38313D01*
X42540Y-38202D01*
X42380Y-38121D01*
X42208Y-38073D01*
X42064Y-38091D01*
X42064Y-38958D01*
X42072Y-38958D01*
X42072Y-38994D01*
X42064Y-38994D01*
X42064Y-39861D01*
X42208Y-39879D01*
X42380Y-39831D01*
X42540Y-39749D01*
X42681Y-39639D01*
X42797Y-39503D01*
X42885Y-39347D01*
X42942Y-39177D01*
X42950Y-39137D01*
X42931Y-38994D01*
X42950Y-38994D01*
X42958Y-38994D01*
X42951Y-39028D01*
X42950Y-39075D01*
X42958Y-39121D01*
X42976Y-39164D01*
X43001Y-39203D01*
X43033Y-39237D01*
X43072Y-39264D01*
X43115Y-39282D01*
X43159Y-39292D01*
X43076Y-39375D01*
X43066Y-39386D01*
X43057Y-39398D01*
X43057Y-39398D01*
X43056Y-39399D01*
X43049Y-39412D01*
X43042Y-39425D01*
X43042Y-39426D01*
X43041Y-39426D01*
X43037Y-39440D01*
X43033Y-39455D01*
X43032Y-39455D01*
X43032Y-39456D01*
X43031Y-39471D01*
X43029Y-39485D01*
X43029Y-39487D01*
X43029Y-39487D01*
X43029Y-39487D01*
X43029Y-39488D01*
X43029Y-40052D01*
X42950Y-40131D01*
X42788Y-40293D01*
X42748Y-40293D01*
X42748Y-40007D01*
X42029Y-40007D01*
X42029Y-39861D01*
X42029Y-38994D01*
X41162Y-38994D01*
X41144Y-39137D01*
X41152Y-39177D01*
X41208Y-39347D01*
X41296Y-39503D01*
X41413Y-39639D01*
X41554Y-39749D01*
X41713Y-39831D01*
X41886Y-39879D01*
X42029Y-39861D01*
X42029Y-40007D01*
X41897Y-40007D01*
X41897Y-40293D01*
X41837Y-40293D01*
X41078Y-39534D01*
X41086Y-39526D01*
X41113Y-39488D01*
X41132Y-39445D01*
X41142Y-39400D01*
X41143Y-39346D01*
X41134Y-39300D01*
X41116Y-39257D01*
X41090Y-39218D01*
X41058Y-39185D01*
X41019Y-39159D01*
X40976Y-39141D01*
X40930Y-39132D01*
X40883Y-39131D01*
X40837Y-39140D01*
X40794Y-39157D01*
X40755Y-39183D01*
X40722Y-39216D01*
X40695Y-39254D01*
X40677Y-39297D01*
X40667Y-39343D01*
X40667Y-39390D01*
X40675Y-39436D01*
X40692Y-39479D01*
X40717Y-39518D01*
X40746Y-39547D01*
X40746Y-39586D01*
X40747Y-39601D01*
X40748Y-39615D01*
X40749Y-39616D01*
X40749Y-39617D01*
X40753Y-39631D01*
X40757Y-39645D01*
X40757Y-39646D01*
X40758Y-39647D01*
X40765Y-39660D01*
X40771Y-39673D01*
X40772Y-39674D01*
X40772Y-39674D01*
X40782Y-39686D01*
X40791Y-39697D01*
X40792Y-39698D01*
X40792Y-39698D01*
X40792Y-39699D01*
X40792Y-39699D01*
X41658Y-40565D01*
X41670Y-40574D01*
X41681Y-40584D01*
X41682Y-40584D01*
X41682Y-40585D01*
X41695Y-40592D01*
X41708Y-40599D01*
X41709Y-40599D01*
X41710Y-40599D01*
X41724Y-40604D01*
X41738Y-40608D01*
X41739Y-40608D01*
X41740Y-40609D01*
X41754Y-40610D01*
X41769Y-40612D01*
X41771Y-40612D01*
X41771Y-40612D01*
X41771Y-40612D01*
X41771Y-40612D01*
X41897Y-40612D01*
X41897Y-41618D01*
X41865Y-41454D01*
X41793Y-41280D01*
X41689Y-41124D01*
X41557Y-40991D01*
X41402Y-40886D01*
X41229Y-40813D01*
X41045Y-40776D01*
X40857Y-40774D01*
X40807Y-40784D01*
X40792Y-40779D01*
X40749Y-40775D01*
X40612Y-40775D01*
X40057Y-40775D01*
X40014Y-40779D01*
X40011Y-40780D01*
X40011Y-37930D01*
X40016Y-37944D01*
X40050Y-38008D01*
X40110Y-38033D01*
X40348Y-37795D01*
X40110Y-37556D01*
X40050Y-37581D01*
X40015Y-37648D01*
X40011Y-37659D01*
X40011Y-37433D01*
X40239Y-37433D01*
X40224Y-37437D01*
X40160Y-37471D01*
X40135Y-37531D01*
X40374Y-37770D01*
X40379Y-37764D01*
X40404Y-37789D01*
X40399Y-37795D01*
X40404Y-37800D01*
X40379Y-37825D01*
X40374Y-37820D01*
X40135Y-38058D01*
X40160Y-38119D01*
X40227Y-38154D01*
X40300Y-38175D01*
X40375Y-38182D01*
X40450Y-38175D01*
X40523Y-38153D01*
X40587Y-38119D01*
X40612Y-38058D01*
X40612Y-38058D01*
X40627Y-38074D01*
X40627Y-38503D01*
X40629Y-38518D01*
X40630Y-38533D01*
X40630Y-38534D01*
X40630Y-38534D01*
X40635Y-38549D01*
X40639Y-38563D01*
X40639Y-38563D01*
X40639Y-38564D01*
X40646Y-38577D01*
X40653Y-38590D01*
X40654Y-38591D01*
X40654Y-38592D01*
X40663Y-38603D01*
X40667Y-38608D01*
X40667Y-38642D01*
X40675Y-38688D01*
X40692Y-38731D01*
X40717Y-38770D01*
X40750Y-38804D01*
X40788Y-38830D01*
X40831Y-38849D01*
X40877Y-38859D01*
X40923Y-38860D01*
X40969Y-38852D01*
X41013Y-38835D01*
X41052Y-38810D01*
X41086Y-38778D01*
X41113Y-38740D01*
X41132Y-38697D01*
X41142Y-38652D01*
X41143Y-38598D01*
X41134Y-38552D01*
X41116Y-38509D01*
X41090Y-38470D01*
X41058Y-38437D01*
X41019Y-38411D01*
X40976Y-38393D01*
X40946Y-38387D01*
X40946Y-38220D01*
X41531Y-38220D01*
X41413Y-38313D01*
X41296Y-38448D01*
X41208Y-38604D01*
X41152Y-38774D01*
X41144Y-38815D01*
X41162Y-38958D01*
X42029Y-38958D01*
X42029Y-38091D01*
X41886Y-38073D01*
X41713Y-38121D01*
X41606Y-38176D01*
X41606Y-36773D01*
X41622Y-36773D01*
X41622Y-37944D01*
X43179Y-37944D01*
X43179Y-38260D01*
X43181Y-38275D01*
X43182Y-38289D01*
X43182Y-38290D01*
X43182Y-38291D01*
X43187Y-38305D01*
X43191Y-38319D01*
X43191Y-38320D01*
X43191Y-38321D01*
X43198Y-38334D01*
X43205Y-38347D01*
X43206Y-38348D01*
X43206Y-38348D01*
X43215Y-38360D01*
X43225Y-38371D01*
X43226Y-38372D01*
X43226Y-38372D01*
X43226Y-38373D01*
X43226Y-38373D01*
X43312Y-38459D01*
X43323Y-38468D01*
X43335Y-38478D01*
X43335Y-38478D01*
X43336Y-38478D01*
X43349Y-38485D01*
X43362Y-38493D01*
X43363Y-38493D01*
X43363Y-38493D01*
X43378Y-38497D01*
X43392Y-38502D01*
X43392Y-38502D01*
X43393Y-38502D01*
X43408Y-38504D01*
X43422Y-38505D01*
X43424Y-38505D01*
X43424Y-38505D01*
X43424Y-38505D01*
X43425Y-38505D01*
X44051Y-38505D01*
X44066Y-38504D01*
X44081Y-38503D01*
X44082Y-38502D01*
X44082Y-38502D01*
X44097Y-38498D01*
X44111Y-38494D01*
X44111Y-38494D01*
X44112Y-38493D01*
X44125Y-38486D01*
X44138Y-38480D01*
X44139Y-38479D01*
X44140Y-38479D01*
X44151Y-38469D01*
X44163Y-38460D01*
X44164Y-38459D01*
X44164Y-38459D01*
X44164Y-38459D01*
X44164Y-38459D01*
X44240Y-38383D01*
X44398Y-38541D01*
X44398Y-38541D01*
G37*
G54D27*
X44398Y-38541D02*
X43543Y-38541D01*
X43528Y-38542D01*
X43513Y-38544D01*
X43513Y-38544D01*
X43512Y-38544D01*
X43498Y-38548D01*
X43484Y-38552D01*
X43483Y-38553D01*
X43482Y-38553D01*
X43469Y-38560D01*
X43456Y-38567D01*
X43455Y-38567D01*
X43455Y-38567D01*
X43443Y-38577D01*
X43432Y-38586D01*
X43430Y-38587D01*
X43430Y-38587D01*
X43430Y-38587D01*
X43430Y-38588D01*
X43201Y-38817D01*
X43167Y-38816D01*
X43121Y-38825D01*
X43078Y-38843D01*
X43039Y-38868D01*
X43005Y-38901D01*
X42979Y-38939D01*
X42964Y-38974D01*
X42964Y-38958D01*
X42950Y-38958D01*
X42931Y-38958D01*
X42950Y-38815D01*
X42942Y-38774D01*
X42885Y-38604D01*
X42797Y-38448D01*
X42681Y-38313D01*
X42540Y-38202D01*
X42380Y-38121D01*
X42208Y-38073D01*
X42064Y-38091D01*
X42064Y-38958D01*
X42072Y-38958D01*
X42072Y-38994D01*
X42064Y-38994D01*
X42064Y-39861D01*
X42208Y-39879D01*
X42380Y-39831D01*
X42540Y-39749D01*
X42681Y-39639D01*
X42797Y-39503D01*
X42885Y-39347D01*
X42942Y-39177D01*
X42950Y-39137D01*
X42931Y-38994D01*
X42950Y-38994D01*
X42958Y-38994D01*
X42951Y-39028D01*
X42950Y-39075D01*
X42958Y-39121D01*
X42976Y-39164D01*
X43001Y-39203D01*
X43033Y-39237D01*
X43072Y-39264D01*
X43115Y-39282D01*
X43159Y-39292D01*
X43076Y-39375D01*
X43066Y-39386D01*
X43057Y-39398D01*
X43057Y-39398D01*
X43056Y-39399D01*
X43049Y-39412D01*
X43042Y-39425D01*
X43042Y-39426D01*
X43041Y-39426D01*
X43037Y-39440D01*
X43033Y-39455D01*
X43032Y-39455D01*
X43032Y-39456D01*
X43031Y-39471D01*
X43029Y-39485D01*
X43029Y-39487D01*
X43029Y-39487D01*
X43029Y-39487D01*
X43029Y-39488D01*
X43029Y-40052D01*
X42950Y-40131D01*
X42788Y-40293D01*
X42748Y-40293D01*
X42748Y-40007D01*
X42029Y-40007D01*
X42029Y-39861D01*
X42029Y-38994D01*
X41162Y-38994D01*
X41144Y-39137D01*
X41152Y-39177D01*
X41208Y-39347D01*
X41296Y-39503D01*
X41413Y-39639D01*
X41554Y-39749D01*
X41713Y-39831D01*
X41886Y-39879D01*
X42029Y-39861D01*
X42029Y-40007D01*
X41897Y-40007D01*
X41897Y-40293D01*
X41837Y-40293D01*
X41078Y-39534D01*
X41086Y-39526D01*
X41113Y-39488D01*
X41132Y-39445D01*
X41142Y-39400D01*
X41143Y-39346D01*
X41134Y-39300D01*
X41116Y-39257D01*
X41090Y-39218D01*
X41058Y-39185D01*
X41019Y-39159D01*
X40976Y-39141D01*
X40930Y-39132D01*
X40883Y-39131D01*
X40837Y-39140D01*
X40794Y-39157D01*
X40755Y-39183D01*
X40722Y-39216D01*
X40695Y-39254D01*
X40677Y-39297D01*
X40667Y-39343D01*
X40667Y-39390D01*
X40675Y-39436D01*
X40692Y-39479D01*
X40717Y-39518D01*
X40746Y-39547D01*
X40746Y-39586D01*
X40747Y-39601D01*
X40748Y-39615D01*
X40749Y-39616D01*
X40749Y-39617D01*
X40753Y-39631D01*
X40757Y-39645D01*
X40757Y-39646D01*
X40758Y-39647D01*
X40765Y-39660D01*
X40771Y-39673D01*
X40772Y-39674D01*
X40772Y-39674D01*
X40782Y-39686D01*
X40791Y-39697D01*
X40792Y-39698D01*
X40792Y-39698D01*
X40792Y-39699D01*
X40792Y-39699D01*
X41658Y-40565D01*
X41670Y-40574D01*
X41681Y-40584D01*
X41682Y-40584D01*
X41682Y-40585D01*
X41695Y-40592D01*
X41708Y-40599D01*
X41709Y-40599D01*
X41710Y-40599D01*
X41724Y-40604D01*
X41738Y-40608D01*
X41739Y-40608D01*
X41740Y-40609D01*
X41754Y-40610D01*
X41769Y-40612D01*
X41771Y-40612D01*
X41771Y-40612D01*
X41771Y-40612D01*
X41771Y-40612D01*
X41897Y-40612D01*
X41897Y-41618D01*
X41865Y-41454D01*
X41793Y-41280D01*
X41689Y-41124D01*
X41557Y-40991D01*
X41402Y-40886D01*
X41229Y-40813D01*
X41045Y-40776D01*
X40857Y-40774D01*
X40807Y-40784D01*
X40792Y-40779D01*
X40749Y-40775D01*
X40612Y-40775D01*
X40057Y-40775D01*
X40014Y-40779D01*
X40011Y-40780D01*
X40011Y-37930D01*
X40016Y-37944D01*
X40050Y-38008D01*
X40110Y-38033D01*
X40348Y-37795D01*
X40110Y-37556D01*
X40050Y-37581D01*
X40015Y-37648D01*
X40011Y-37659D01*
X40011Y-37433D01*
X40239Y-37433D01*
X40224Y-37437D01*
X40160Y-37471D01*
X40135Y-37531D01*
X40374Y-37770D01*
X40379Y-37764D01*
X40404Y-37789D01*
X40399Y-37795D01*
X40404Y-37800D01*
X40379Y-37825D01*
X40374Y-37820D01*
X40135Y-38058D01*
X40160Y-38119D01*
X40227Y-38154D01*
X40300Y-38175D01*
X40375Y-38182D01*
X40450Y-38175D01*
X40523Y-38153D01*
X40587Y-38119D01*
X40612Y-38058D01*
X40612Y-38058D01*
X40627Y-38074D01*
X40627Y-38503D01*
X40629Y-38518D01*
X40630Y-38533D01*
X40630Y-38534D01*
X40630Y-38534D01*
X40635Y-38549D01*
X40639Y-38563D01*
X40639Y-38563D01*
X40639Y-38564D01*
X40646Y-38577D01*
X40653Y-38590D01*
X40654Y-38591D01*
X40654Y-38592D01*
X40663Y-38603D01*
X40667Y-38608D01*
X40667Y-38642D01*
X40675Y-38688D01*
X40692Y-38731D01*
X40717Y-38770D01*
X40750Y-38804D01*
X40788Y-38830D01*
X40831Y-38849D01*
X40877Y-38859D01*
X40923Y-38860D01*
X40969Y-38852D01*
X41013Y-38835D01*
X41052Y-38810D01*
X41086Y-38778D01*
X41113Y-38740D01*
X41132Y-38697D01*
X41142Y-38652D01*
X41143Y-38598D01*
X41134Y-38552D01*
X41116Y-38509D01*
X41090Y-38470D01*
X41058Y-38437D01*
X41019Y-38411D01*
X40976Y-38393D01*
X40946Y-38387D01*
X40946Y-38220D01*
X41531Y-38220D01*
X41413Y-38313D01*
X41296Y-38448D01*
X41208Y-38604D01*
X41152Y-38774D01*
X41144Y-38815D01*
X41162Y-38958D01*
X42029Y-38958D01*
X42029Y-38091D01*
X41886Y-38073D01*
X41713Y-38121D01*
X41606Y-38176D01*
X41606Y-36773D01*
X41622Y-36773D01*
X41622Y-37944D01*
X43179Y-37944D01*
X43179Y-38260D01*
X43181Y-38275D01*
X43182Y-38289D01*
X43182Y-38290D01*
X43182Y-38291D01*
X43187Y-38305D01*
X43191Y-38319D01*
X43191Y-38320D01*
X43191Y-38321D01*
X43198Y-38334D01*
X43205Y-38347D01*
X43206Y-38348D01*
X43206Y-38348D01*
X43215Y-38360D01*
X43225Y-38371D01*
X43226Y-38372D01*
X43226Y-38372D01*
X43226Y-38373D01*
X43226Y-38373D01*
X43312Y-38459D01*
X43323Y-38468D01*
X43335Y-38478D01*
X43335Y-38478D01*
X43336Y-38478D01*
X43349Y-38485D01*
X43362Y-38493D01*
X43363Y-38493D01*
X43363Y-38493D01*
X43378Y-38497D01*
X43392Y-38502D01*
X43392Y-38502D01*
X43393Y-38502D01*
X43408Y-38504D01*
X43422Y-38505D01*
X43424Y-38505D01*
X43424Y-38505D01*
X43424Y-38505D01*
X43425Y-38505D01*
X44051Y-38505D01*
X44066Y-38504D01*
X44081Y-38503D01*
X44082Y-38502D01*
X44082Y-38502D01*
X44097Y-38498D01*
X44111Y-38494D01*
X44111Y-38494D01*
X44112Y-38493D01*
X44125Y-38486D01*
X44138Y-38480D01*
X44139Y-38479D01*
X44140Y-38479D01*
X44151Y-38469D01*
X44163Y-38460D01*
X44164Y-38459D01*
X44164Y-38459D01*
X44164Y-38459D01*
X44164Y-38459D01*
X44240Y-38383D01*
X44398Y-38541D01*
G54D10*
G36*
X47083Y-41868D02*
X47079Y-41884D01*
X47074Y-41927D01*
X47074Y-42619D01*
X47079Y-42662D01*
X47079Y-42665D01*
X44964Y-42665D01*
X44964Y-41931D01*
X44956Y-41838D01*
X44929Y-41749D01*
X44886Y-41667D01*
X44883Y-41663D01*
X44814Y-41627D01*
X44789Y-41652D01*
X44789Y-41602D01*
X44753Y-41533D01*
X44671Y-41489D01*
X44582Y-41461D01*
X44490Y-41452D01*
X44397Y-41461D01*
X44308Y-41487D01*
X44226Y-41530D01*
X44222Y-41533D01*
X44186Y-41602D01*
X44488Y-41904D01*
X44789Y-41602D01*
X44789Y-41652D01*
X44513Y-41929D01*
X44814Y-42230D01*
X44883Y-42194D01*
X44928Y-42112D01*
X44955Y-42023D01*
X44964Y-41931D01*
X44964Y-42665D01*
X44789Y-42665D01*
X44789Y-42255D01*
X44488Y-41954D01*
X44463Y-41979D01*
X44463Y-41929D01*
X44161Y-41627D01*
X44092Y-41663D01*
X44048Y-41745D01*
X44021Y-41834D01*
X44011Y-41926D01*
X44020Y-42019D01*
X44046Y-42108D01*
X44089Y-42191D01*
X44092Y-42194D01*
X44161Y-42230D01*
X44463Y-41929D01*
X44463Y-41979D01*
X44186Y-42255D01*
X44222Y-42324D01*
X44304Y-42369D01*
X44393Y-42396D01*
X44485Y-42405D01*
X44578Y-42397D01*
X44667Y-42370D01*
X44750Y-42327D01*
X44753Y-42324D01*
X44789Y-42255D01*
X44789Y-42665D01*
X41896Y-42665D01*
X41897Y-42662D01*
X41901Y-42619D01*
X41901Y-41927D01*
X41897Y-41884D01*
X41893Y-41873D01*
X41898Y-41852D01*
X41901Y-41645D01*
X42163Y-41645D01*
X42163Y-41653D01*
X42164Y-41668D01*
X42166Y-41682D01*
X42166Y-41683D01*
X42166Y-41684D01*
X42170Y-41698D01*
X42174Y-41712D01*
X42175Y-41713D01*
X42175Y-41714D01*
X42182Y-41727D01*
X42189Y-41740D01*
X42189Y-41741D01*
X42190Y-41741D01*
X42199Y-41753D01*
X42208Y-41764D01*
X42209Y-41765D01*
X42209Y-41765D01*
X42209Y-41765D01*
X42210Y-41766D01*
X42485Y-42041D01*
X42497Y-42051D01*
X42508Y-42060D01*
X42509Y-42061D01*
X42509Y-42061D01*
X42522Y-42068D01*
X42535Y-42075D01*
X42536Y-42075D01*
X42537Y-42076D01*
X42551Y-42080D01*
X42565Y-42085D01*
X42566Y-42085D01*
X42566Y-42085D01*
X42581Y-42086D01*
X42596Y-42088D01*
X42597Y-42088D01*
X42597Y-42088D01*
X42597Y-42088D01*
X42598Y-42088D01*
X43035Y-42088D01*
X43062Y-42156D01*
X43114Y-42237D01*
X43182Y-42307D01*
X43261Y-42362D01*
X43350Y-42401D01*
X43445Y-42422D01*
X43542Y-42424D01*
X43637Y-42407D01*
X43727Y-42372D01*
X43809Y-42320D01*
X43879Y-42253D01*
X43935Y-42174D01*
X43975Y-42085D01*
X43996Y-41991D01*
X43998Y-41880D01*
X43979Y-41785D01*
X43942Y-41696D01*
X43888Y-41615D01*
X43820Y-41546D01*
X43740Y-41492D01*
X43650Y-41454D01*
X43555Y-41435D01*
X43458Y-41434D01*
X43363Y-41452D01*
X43273Y-41489D01*
X43192Y-41542D01*
X43123Y-41609D01*
X43068Y-41689D01*
X43034Y-41769D01*
X42664Y-41769D01*
X42540Y-41645D01*
X42748Y-41645D01*
X42748Y-40612D01*
X42854Y-40612D01*
X42868Y-40610D01*
X42883Y-40609D01*
X42884Y-40609D01*
X42885Y-40609D01*
X42899Y-40604D01*
X42913Y-40600D01*
X42914Y-40600D01*
X42915Y-40600D01*
X42928Y-40593D01*
X42941Y-40586D01*
X42941Y-40585D01*
X42942Y-40585D01*
X42953Y-40576D01*
X42965Y-40567D01*
X42966Y-40565D01*
X42966Y-40565D01*
X42966Y-40565D01*
X42967Y-40565D01*
X43301Y-40230D01*
X43311Y-40219D01*
X43320Y-40208D01*
X43320Y-40207D01*
X43321Y-40206D01*
X43328Y-40193D01*
X43335Y-40180D01*
X43335Y-40180D01*
X43336Y-40179D01*
X43340Y-40165D01*
X43344Y-40151D01*
X43345Y-40150D01*
X43345Y-40149D01*
X43346Y-40134D01*
X43348Y-40120D01*
X43348Y-40118D01*
X43348Y-40118D01*
X43348Y-40118D01*
X43348Y-40118D01*
X43348Y-39554D01*
X43491Y-39411D01*
X43949Y-39411D01*
X44078Y-39540D01*
X44078Y-39814D01*
X44078Y-39814D01*
X44034Y-39823D01*
X43992Y-39840D01*
X43988Y-39843D01*
X43985Y-39841D01*
X43943Y-39824D01*
X43899Y-39815D01*
X43855Y-39814D01*
X43578Y-39814D01*
X43534Y-39823D01*
X43492Y-39840D01*
X43455Y-39865D01*
X43423Y-39897D01*
X43398Y-39934D01*
X43381Y-39975D01*
X43372Y-40019D01*
X43371Y-40064D01*
X43372Y-40931D01*
X43380Y-40975D01*
X43397Y-41017D01*
X43422Y-41054D01*
X43454Y-41086D01*
X43491Y-41111D01*
X43532Y-41128D01*
X43549Y-41132D01*
X43549Y-41179D01*
X43550Y-41196D01*
X43552Y-41213D01*
X43552Y-41214D01*
X43552Y-41215D01*
X43557Y-41232D01*
X43562Y-41249D01*
X43563Y-41250D01*
X43563Y-41251D01*
X43571Y-41266D01*
X43579Y-41282D01*
X43580Y-41282D01*
X43580Y-41283D01*
X43591Y-41297D01*
X43602Y-41310D01*
X43604Y-41312D01*
X43604Y-41312D01*
X43604Y-41312D01*
X43604Y-41312D01*
X43645Y-41354D01*
X43659Y-41365D01*
X43672Y-41376D01*
X43673Y-41376D01*
X43674Y-41377D01*
X43689Y-41385D01*
X43705Y-41394D01*
X43706Y-41394D01*
X43706Y-41394D01*
X43723Y-41400D01*
X43740Y-41405D01*
X43741Y-41405D01*
X43742Y-41405D01*
X43759Y-41407D01*
X43776Y-41409D01*
X43778Y-41409D01*
X43778Y-41409D01*
X43778Y-41409D01*
X43779Y-41409D01*
X45905Y-41409D01*
X45922Y-41407D01*
X45940Y-41406D01*
X45941Y-41405D01*
X45942Y-41405D01*
X45958Y-41400D01*
X45975Y-41395D01*
X45976Y-41395D01*
X45977Y-41395D01*
X45992Y-41386D01*
X46008Y-41378D01*
X46009Y-41378D01*
X46010Y-41377D01*
X46023Y-41366D01*
X46037Y-41355D01*
X46038Y-41354D01*
X46038Y-41354D01*
X46038Y-41354D01*
X46039Y-41354D01*
X46117Y-41275D01*
X46128Y-41261D01*
X46140Y-41248D01*
X46140Y-41247D01*
X46141Y-41246D01*
X46149Y-41231D01*
X46157Y-41216D01*
X46158Y-41215D01*
X46158Y-41214D01*
X46163Y-41197D01*
X46169Y-41181D01*
X46169Y-41180D01*
X46169Y-41179D01*
X46171Y-41161D01*
X46172Y-41149D01*
X46174Y-41148D01*
X46217Y-41107D01*
X46228Y-41092D01*
X46228Y-41645D01*
X46475Y-41645D01*
X46351Y-41769D01*
X45941Y-41769D01*
X45910Y-41696D01*
X45857Y-41615D01*
X45788Y-41546D01*
X45708Y-41492D01*
X45619Y-41454D01*
X45524Y-41435D01*
X45427Y-41434D01*
X45332Y-41452D01*
X45242Y-41489D01*
X45161Y-41542D01*
X45092Y-41609D01*
X45037Y-41689D01*
X44999Y-41779D01*
X44979Y-41873D01*
X44977Y-41970D01*
X44995Y-42065D01*
X45030Y-42156D01*
X45083Y-42237D01*
X45150Y-42307D01*
X45230Y-42362D01*
X45319Y-42401D01*
X45413Y-42422D01*
X45510Y-42424D01*
X45605Y-42407D01*
X45696Y-42372D01*
X45778Y-42320D01*
X45848Y-42253D01*
X45904Y-42174D01*
X45942Y-42088D01*
X46417Y-42088D01*
X46431Y-42087D01*
X46446Y-42085D01*
X46447Y-42085D01*
X46448Y-42085D01*
X46462Y-42081D01*
X46476Y-42077D01*
X46477Y-42076D01*
X46478Y-42076D01*
X46491Y-42069D01*
X46504Y-42062D01*
X46504Y-42062D01*
X46505Y-42061D01*
X46516Y-42052D01*
X46528Y-42043D01*
X46529Y-42042D01*
X46529Y-42042D01*
X46529Y-42042D01*
X46530Y-42041D01*
X46766Y-41805D01*
X46775Y-41794D01*
X46785Y-41782D01*
X46785Y-41782D01*
X46786Y-41781D01*
X46793Y-41768D01*
X46800Y-41755D01*
X46800Y-41754D01*
X46800Y-41754D01*
X46805Y-41740D01*
X46809Y-41726D01*
X46809Y-41725D01*
X46809Y-41724D01*
X46811Y-41709D01*
X46812Y-41695D01*
X46812Y-41693D01*
X46812Y-41693D01*
X46812Y-41693D01*
X46812Y-41692D01*
X46812Y-41645D01*
X47075Y-41645D01*
X47073Y-41812D01*
X47083Y-41868D01*
X47083Y-41868D01*
G37*
G54D27*
X47083Y-41868D02*
X47079Y-41884D01*
X47074Y-41927D01*
X47074Y-42619D01*
X47079Y-42662D01*
X47079Y-42665D01*
X44964Y-42665D01*
X44964Y-41931D01*
X44956Y-41838D01*
X44929Y-41749D01*
X44886Y-41667D01*
X44883Y-41663D01*
X44814Y-41627D01*
X44789Y-41652D01*
X44789Y-41602D01*
X44753Y-41533D01*
X44671Y-41489D01*
X44582Y-41461D01*
X44490Y-41452D01*
X44397Y-41461D01*
X44308Y-41487D01*
X44226Y-41530D01*
X44222Y-41533D01*
X44186Y-41602D01*
X44488Y-41904D01*
X44789Y-41602D01*
X44789Y-41652D01*
X44513Y-41929D01*
X44814Y-42230D01*
X44883Y-42194D01*
X44928Y-42112D01*
X44955Y-42023D01*
X44964Y-41931D01*
X44964Y-42665D01*
X44789Y-42665D01*
X44789Y-42255D01*
X44488Y-41954D01*
X44463Y-41979D01*
X44463Y-41929D01*
X44161Y-41627D01*
X44092Y-41663D01*
X44048Y-41745D01*
X44021Y-41834D01*
X44011Y-41926D01*
X44020Y-42019D01*
X44046Y-42108D01*
X44089Y-42191D01*
X44092Y-42194D01*
X44161Y-42230D01*
X44463Y-41929D01*
X44463Y-41979D01*
X44186Y-42255D01*
X44222Y-42324D01*
X44304Y-42369D01*
X44393Y-42396D01*
X44485Y-42405D01*
X44578Y-42397D01*
X44667Y-42370D01*
X44750Y-42327D01*
X44753Y-42324D01*
X44789Y-42255D01*
X44789Y-42665D01*
X41896Y-42665D01*
X41897Y-42662D01*
X41901Y-42619D01*
X41901Y-41927D01*
X41897Y-41884D01*
X41893Y-41873D01*
X41898Y-41852D01*
X41901Y-41645D01*
X42163Y-41645D01*
X42163Y-41653D01*
X42164Y-41668D01*
X42166Y-41682D01*
X42166Y-41683D01*
X42166Y-41684D01*
X42170Y-41698D01*
X42174Y-41712D01*
X42175Y-41713D01*
X42175Y-41714D01*
X42182Y-41727D01*
X42189Y-41740D01*
X42189Y-41741D01*
X42190Y-41741D01*
X42199Y-41753D01*
X42208Y-41764D01*
X42209Y-41765D01*
X42209Y-41765D01*
X42209Y-41765D01*
X42210Y-41766D01*
X42485Y-42041D01*
X42497Y-42051D01*
X42508Y-42060D01*
X42509Y-42061D01*
X42509Y-42061D01*
X42522Y-42068D01*
X42535Y-42075D01*
X42536Y-42075D01*
X42537Y-42076D01*
X42551Y-42080D01*
X42565Y-42085D01*
X42566Y-42085D01*
X42566Y-42085D01*
X42581Y-42086D01*
X42596Y-42088D01*
X42597Y-42088D01*
X42597Y-42088D01*
X42597Y-42088D01*
X42598Y-42088D01*
X43035Y-42088D01*
X43062Y-42156D01*
X43114Y-42237D01*
X43182Y-42307D01*
X43261Y-42362D01*
X43350Y-42401D01*
X43445Y-42422D01*
X43542Y-42424D01*
X43637Y-42407D01*
X43727Y-42372D01*
X43809Y-42320D01*
X43879Y-42253D01*
X43935Y-42174D01*
X43975Y-42085D01*
X43996Y-41991D01*
X43998Y-41880D01*
X43979Y-41785D01*
X43942Y-41696D01*
X43888Y-41615D01*
X43820Y-41546D01*
X43740Y-41492D01*
X43650Y-41454D01*
X43555Y-41435D01*
X43458Y-41434D01*
X43363Y-41452D01*
X43273Y-41489D01*
X43192Y-41542D01*
X43123Y-41609D01*
X43068Y-41689D01*
X43034Y-41769D01*
X42664Y-41769D01*
X42540Y-41645D01*
X42748Y-41645D01*
X42748Y-40612D01*
X42854Y-40612D01*
X42868Y-40610D01*
X42883Y-40609D01*
X42884Y-40609D01*
X42885Y-40609D01*
X42899Y-40604D01*
X42913Y-40600D01*
X42914Y-40600D01*
X42915Y-40600D01*
X42928Y-40593D01*
X42941Y-40586D01*
X42941Y-40585D01*
X42942Y-40585D01*
X42953Y-40576D01*
X42965Y-40567D01*
X42966Y-40565D01*
X42966Y-40565D01*
X42966Y-40565D01*
X42967Y-40565D01*
X43301Y-40230D01*
X43311Y-40219D01*
X43320Y-40208D01*
X43320Y-40207D01*
X43321Y-40206D01*
X43328Y-40193D01*
X43335Y-40180D01*
X43335Y-40180D01*
X43336Y-40179D01*
X43340Y-40165D01*
X43344Y-40151D01*
X43345Y-40150D01*
X43345Y-40149D01*
X43346Y-40134D01*
X43348Y-40120D01*
X43348Y-40118D01*
X43348Y-40118D01*
X43348Y-40118D01*
X43348Y-40118D01*
X43348Y-39554D01*
X43491Y-39411D01*
X43949Y-39411D01*
X44078Y-39540D01*
X44078Y-39814D01*
X44078Y-39814D01*
X44034Y-39823D01*
X43992Y-39840D01*
X43988Y-39843D01*
X43985Y-39841D01*
X43943Y-39824D01*
X43899Y-39815D01*
X43855Y-39814D01*
X43578Y-39814D01*
X43534Y-39823D01*
X43492Y-39840D01*
X43455Y-39865D01*
X43423Y-39897D01*
X43398Y-39934D01*
X43381Y-39975D01*
X43372Y-40019D01*
X43371Y-40064D01*
X43372Y-40931D01*
X43380Y-40975D01*
X43397Y-41017D01*
X43422Y-41054D01*
X43454Y-41086D01*
X43491Y-41111D01*
X43532Y-41128D01*
X43549Y-41132D01*
X43549Y-41179D01*
X43550Y-41196D01*
X43552Y-41213D01*
X43552Y-41214D01*
X43552Y-41215D01*
X43557Y-41232D01*
X43562Y-41249D01*
X43563Y-41250D01*
X43563Y-41251D01*
X43571Y-41266D01*
X43579Y-41282D01*
X43580Y-41282D01*
X43580Y-41283D01*
X43591Y-41297D01*
X43602Y-41310D01*
X43604Y-41312D01*
X43604Y-41312D01*
X43604Y-41312D01*
X43604Y-41312D01*
X43645Y-41354D01*
X43659Y-41365D01*
X43672Y-41376D01*
X43673Y-41376D01*
X43674Y-41377D01*
X43689Y-41385D01*
X43705Y-41394D01*
X43706Y-41394D01*
X43706Y-41394D01*
X43723Y-41400D01*
X43740Y-41405D01*
X43741Y-41405D01*
X43742Y-41405D01*
X43759Y-41407D01*
X43776Y-41409D01*
X43778Y-41409D01*
X43778Y-41409D01*
X43778Y-41409D01*
X43779Y-41409D01*
X45905Y-41409D01*
X45922Y-41407D01*
X45940Y-41406D01*
X45941Y-41405D01*
X45942Y-41405D01*
X45958Y-41400D01*
X45975Y-41395D01*
X45976Y-41395D01*
X45977Y-41395D01*
X45992Y-41386D01*
X46008Y-41378D01*
X46009Y-41378D01*
X46010Y-41377D01*
X46023Y-41366D01*
X46037Y-41355D01*
X46038Y-41354D01*
X46038Y-41354D01*
X46038Y-41354D01*
X46039Y-41354D01*
X46117Y-41275D01*
X46128Y-41261D01*
X46140Y-41248D01*
X46140Y-41247D01*
X46141Y-41246D01*
X46149Y-41231D01*
X46157Y-41216D01*
X46158Y-41215D01*
X46158Y-41214D01*
X46163Y-41197D01*
X46169Y-41181D01*
X46169Y-41180D01*
X46169Y-41179D01*
X46171Y-41161D01*
X46172Y-41149D01*
X46174Y-41148D01*
X46217Y-41107D01*
X46228Y-41092D01*
X46228Y-41645D01*
X46475Y-41645D01*
X46351Y-41769D01*
X45941Y-41769D01*
X45910Y-41696D01*
X45857Y-41615D01*
X45788Y-41546D01*
X45708Y-41492D01*
X45619Y-41454D01*
X45524Y-41435D01*
X45427Y-41434D01*
X45332Y-41452D01*
X45242Y-41489D01*
X45161Y-41542D01*
X45092Y-41609D01*
X45037Y-41689D01*
X44999Y-41779D01*
X44979Y-41873D01*
X44977Y-41970D01*
X44995Y-42065D01*
X45030Y-42156D01*
X45083Y-42237D01*
X45150Y-42307D01*
X45230Y-42362D01*
X45319Y-42401D01*
X45413Y-42422D01*
X45510Y-42424D01*
X45605Y-42407D01*
X45696Y-42372D01*
X45778Y-42320D01*
X45848Y-42253D01*
X45904Y-42174D01*
X45942Y-42088D01*
X46417Y-42088D01*
X46431Y-42087D01*
X46446Y-42085D01*
X46447Y-42085D01*
X46448Y-42085D01*
X46462Y-42081D01*
X46476Y-42077D01*
X46477Y-42076D01*
X46478Y-42076D01*
X46491Y-42069D01*
X46504Y-42062D01*
X46504Y-42062D01*
X46505Y-42061D01*
X46516Y-42052D01*
X46528Y-42043D01*
X46529Y-42042D01*
X46529Y-42042D01*
X46529Y-42042D01*
X46530Y-42041D01*
X46766Y-41805D01*
X46775Y-41794D01*
X46785Y-41782D01*
X46785Y-41782D01*
X46786Y-41781D01*
X46793Y-41768D01*
X46800Y-41755D01*
X46800Y-41754D01*
X46800Y-41754D01*
X46805Y-41740D01*
X46809Y-41726D01*
X46809Y-41725D01*
X46809Y-41724D01*
X46811Y-41709D01*
X46812Y-41695D01*
X46812Y-41693D01*
X46812Y-41693D01*
X46812Y-41693D01*
X46812Y-41692D01*
X46812Y-41645D01*
X47075Y-41645D01*
X47073Y-41812D01*
X47083Y-41868D01*
G54D10*
G36*
X48964Y-40780D02*
X48961Y-40779D01*
X48918Y-40775D01*
X48226Y-40775D01*
X48183Y-40779D01*
X48169Y-40784D01*
X48131Y-40776D01*
X47944Y-40774D01*
X47850Y-40792D01*
X47850Y-38997D01*
X47837Y-38817D01*
X47789Y-38644D01*
X47708Y-38483D01*
X47685Y-38449D01*
X47570Y-38360D01*
X46954Y-38976D01*
X47570Y-39592D01*
X47685Y-39503D01*
X47773Y-39346D01*
X47829Y-39175D01*
X47850Y-38997D01*
X47850Y-40792D01*
X47760Y-40810D01*
X47586Y-40880D01*
X47545Y-40907D01*
X47545Y-39617D01*
X46929Y-39001D01*
X46904Y-39026D01*
X46904Y-38976D01*
X46287Y-38360D01*
X46173Y-38449D01*
X46085Y-38605D01*
X46029Y-38776D01*
X46007Y-38955D01*
X46021Y-39134D01*
X46069Y-39308D01*
X46150Y-39468D01*
X46173Y-39503D01*
X46287Y-39592D01*
X46904Y-38976D01*
X46904Y-39026D01*
X46312Y-39617D01*
X46401Y-39732D01*
X46558Y-39820D01*
X46729Y-39876D01*
X46908Y-39897D01*
X47087Y-39884D01*
X47260Y-39836D01*
X47421Y-39755D01*
X47456Y-39732D01*
X47545Y-39617D01*
X47545Y-40907D01*
X47429Y-40983D01*
X47295Y-41114D01*
X47189Y-41269D01*
X47115Y-41441D01*
X47078Y-41613D01*
X47078Y-40007D01*
X46228Y-40007D01*
X46228Y-40293D01*
X46030Y-40293D01*
X45828Y-40091D01*
X45828Y-39370D01*
X45827Y-39355D01*
X45826Y-39340D01*
X45825Y-39339D01*
X45825Y-39339D01*
X45821Y-39324D01*
X45817Y-39310D01*
X45816Y-39310D01*
X45816Y-39309D01*
X45809Y-39296D01*
X45803Y-39283D01*
X45802Y-39282D01*
X45802Y-39281D01*
X45792Y-39270D01*
X45783Y-39258D01*
X45782Y-39257D01*
X45782Y-39257D01*
X45782Y-39257D01*
X45782Y-39257D01*
X45683Y-39158D01*
X45672Y-39149D01*
X45660Y-39140D01*
X45660Y-39139D01*
X45659Y-39139D01*
X45646Y-39132D01*
X45633Y-39125D01*
X45632Y-39124D01*
X45632Y-39124D01*
X45618Y-39120D01*
X45604Y-39115D01*
X45603Y-39115D01*
X45602Y-39115D01*
X45587Y-39113D01*
X45573Y-39112D01*
X45571Y-39112D01*
X45571Y-39112D01*
X45571Y-39112D01*
X45570Y-39112D01*
X45353Y-39112D01*
X45365Y-39094D01*
X45384Y-39051D01*
X45394Y-39006D01*
X45395Y-38953D01*
X45386Y-38907D01*
X45368Y-38864D01*
X45342Y-38825D01*
X45310Y-38791D01*
X45271Y-38765D01*
X45228Y-38747D01*
X45182Y-38738D01*
X45144Y-38738D01*
X45010Y-38604D01*
X45925Y-38604D01*
X45939Y-38602D01*
X45954Y-38601D01*
X45955Y-38601D01*
X45956Y-38601D01*
X45970Y-38597D01*
X45984Y-38592D01*
X45985Y-38592D01*
X45985Y-38592D01*
X45998Y-38585D01*
X46012Y-38578D01*
X46012Y-38578D01*
X46013Y-38577D01*
X46024Y-38568D01*
X46036Y-38559D01*
X46037Y-38558D01*
X46037Y-38558D01*
X46037Y-38557D01*
X46037Y-38557D01*
X46463Y-38131D01*
X46566Y-38131D01*
X46436Y-38197D01*
X46401Y-38220D01*
X46312Y-38335D01*
X46929Y-38951D01*
X47545Y-38335D01*
X47456Y-38220D01*
X47299Y-38132D01*
X47128Y-38076D01*
X46950Y-38054D01*
X46933Y-38056D01*
X47041Y-37947D01*
X47043Y-37944D01*
X47354Y-37944D01*
X47354Y-37789D01*
X47359Y-37794D01*
X47408Y-37828D01*
X47463Y-37852D01*
X47522Y-37865D01*
X47582Y-37866D01*
X47642Y-37856D01*
X47698Y-37834D01*
X47704Y-37830D01*
X47704Y-37848D01*
X47710Y-37877D01*
X47721Y-37904D01*
X47738Y-37929D01*
X47758Y-37950D01*
X47783Y-37966D01*
X47810Y-37977D01*
X47838Y-37983D01*
X47868Y-37983D01*
X48459Y-37983D01*
X48488Y-37978D01*
X48515Y-37966D01*
X48539Y-37950D01*
X48560Y-37930D01*
X48576Y-37905D01*
X48588Y-37878D01*
X48594Y-37849D01*
X48594Y-37820D01*
X48594Y-37308D01*
X48588Y-37279D01*
X48577Y-37252D01*
X48561Y-37228D01*
X48540Y-37207D01*
X48518Y-37192D01*
X48527Y-37186D01*
X48545Y-37168D01*
X48559Y-37147D01*
X48569Y-37123D01*
X48574Y-37098D01*
X48574Y-36562D01*
X48569Y-36537D01*
X48559Y-36513D01*
X48545Y-36492D01*
X48527Y-36474D01*
X48506Y-36460D01*
X48483Y-36450D01*
X48458Y-36445D01*
X48432Y-36445D01*
X48199Y-36445D01*
X48167Y-36477D01*
X48167Y-36813D01*
X48542Y-36813D01*
X48574Y-36780D01*
X48574Y-36562D01*
X48574Y-37098D01*
X48574Y-36880D01*
X48542Y-36848D01*
X48167Y-36848D01*
X48167Y-36856D01*
X48131Y-36856D01*
X48131Y-36848D01*
X48131Y-36813D01*
X48131Y-36477D01*
X48099Y-36445D01*
X47866Y-36445D01*
X47840Y-36445D01*
X47816Y-36450D01*
X47792Y-36460D01*
X47771Y-36474D01*
X47753Y-36492D01*
X47739Y-36513D01*
X47729Y-36537D01*
X47724Y-36562D01*
X47724Y-36780D01*
X47757Y-36813D01*
X48131Y-36813D01*
X48131Y-36848D01*
X47757Y-36848D01*
X47724Y-36880D01*
X47724Y-37098D01*
X47729Y-37123D01*
X47739Y-37147D01*
X47753Y-37168D01*
X47771Y-37186D01*
X47780Y-37192D01*
X47759Y-37206D01*
X47738Y-37227D01*
X47722Y-37251D01*
X47710Y-37278D01*
X47708Y-37289D01*
X47705Y-37287D01*
X47650Y-37264D01*
X47591Y-37252D01*
X47531Y-37251D01*
X47471Y-37263D01*
X47416Y-37285D01*
X47365Y-37318D01*
X47354Y-37329D01*
X47354Y-36464D01*
X47334Y-36464D01*
X47334Y-36446D01*
X47330Y-36425D01*
X47321Y-36405D01*
X47309Y-36387D01*
X47294Y-36371D01*
X47276Y-36359D01*
X47256Y-36351D01*
X47235Y-36346D01*
X47214Y-36346D01*
X46623Y-36346D01*
X46602Y-36351D01*
X46582Y-36359D01*
X46564Y-36371D01*
X46548Y-36386D01*
X46536Y-36404D01*
X46528Y-36424D01*
X46523Y-36445D01*
X46523Y-36464D01*
X46320Y-36464D01*
X46320Y-35769D01*
X46363Y-35762D01*
X46407Y-35745D01*
X46446Y-35720D01*
X46480Y-35687D01*
X46507Y-35649D01*
X46526Y-35607D01*
X46536Y-35561D01*
X46537Y-35508D01*
X46528Y-35462D01*
X46510Y-35419D01*
X46484Y-35380D01*
X46451Y-35347D01*
X46443Y-35341D01*
X46443Y-34564D01*
X46443Y-33938D01*
X46442Y-33913D01*
X46437Y-33888D01*
X46427Y-33865D01*
X46413Y-33843D01*
X46395Y-33825D01*
X46374Y-33811D01*
X46350Y-33802D01*
X46325Y-33797D01*
X46038Y-33797D01*
X46005Y-33829D01*
X46005Y-34234D01*
X46410Y-34234D01*
X46442Y-34201D01*
X46443Y-33938D01*
X46443Y-34564D01*
X46442Y-34302D01*
X46410Y-34269D01*
X46005Y-34269D01*
X46005Y-34674D01*
X46038Y-34706D01*
X46325Y-34706D01*
X46350Y-34701D01*
X46374Y-34692D01*
X46395Y-34677D01*
X46413Y-34659D01*
X46427Y-34638D01*
X46437Y-34615D01*
X46442Y-34590D01*
X46443Y-34564D01*
X46443Y-35341D01*
X46413Y-35320D01*
X46369Y-35302D01*
X46324Y-35293D01*
X46277Y-35293D01*
X46231Y-35301D01*
X46188Y-35319D01*
X46149Y-35344D01*
X46115Y-35377D01*
X46089Y-35416D01*
X46071Y-35459D01*
X46061Y-35504D01*
X46060Y-35544D01*
X46048Y-35556D01*
X46039Y-35567D01*
X46029Y-35579D01*
X46029Y-35579D01*
X46028Y-35580D01*
X46021Y-35593D01*
X46014Y-35606D01*
X46014Y-35607D01*
X46014Y-35608D01*
X46009Y-35622D01*
X46005Y-35636D01*
X46005Y-35636D01*
X46005Y-35637D01*
X46003Y-35652D01*
X46001Y-35667D01*
X46001Y-35668D01*
X46001Y-35668D01*
X46001Y-35668D01*
X46001Y-35669D01*
X46001Y-36464D01*
X45970Y-36464D01*
X45970Y-34674D01*
X45970Y-34269D01*
X45970Y-34234D01*
X45970Y-33829D01*
X45937Y-33797D01*
X45650Y-33797D01*
X45625Y-33802D01*
X45602Y-33811D01*
X45580Y-33825D01*
X45562Y-33843D01*
X45548Y-33865D01*
X45538Y-33888D01*
X45533Y-33913D01*
X45533Y-33938D01*
X45533Y-34201D01*
X45565Y-34234D01*
X45970Y-34234D01*
X45970Y-34269D01*
X45565Y-34269D01*
X45533Y-34302D01*
X45533Y-34564D01*
X45533Y-34590D01*
X45538Y-34615D01*
X45548Y-34638D01*
X45562Y-34659D01*
X45580Y-34677D01*
X45602Y-34692D01*
X45625Y-34701D01*
X45650Y-34706D01*
X45937Y-34706D01*
X45970Y-34674D01*
X45970Y-36464D01*
X45879Y-36464D01*
X45912Y-36404D01*
X45939Y-36315D01*
X45949Y-36222D01*
X45940Y-36130D01*
X45914Y-36040D01*
X45870Y-35958D01*
X45868Y-35954D01*
X45798Y-35919D01*
X45773Y-35944D01*
X45773Y-35894D01*
X45738Y-35824D01*
X45656Y-35780D01*
X45567Y-35753D01*
X45474Y-35743D01*
X45382Y-35752D01*
X45292Y-35778D01*
X45210Y-35822D01*
X45206Y-35824D01*
X45171Y-35894D01*
X45472Y-36195D01*
X45773Y-35894D01*
X45773Y-35944D01*
X45497Y-36220D01*
X45503Y-36226D01*
X45478Y-36251D01*
X45472Y-36245D01*
X45447Y-36270D01*
X45447Y-36220D01*
X45146Y-35919D01*
X45076Y-35954D01*
X45032Y-36036D01*
X45005Y-36125D01*
X44995Y-36218D01*
X45004Y-36310D01*
X45030Y-36400D01*
X45074Y-36482D01*
X45076Y-36486D01*
X45146Y-36521D01*
X45447Y-36220D01*
X45447Y-36270D01*
X45171Y-36546D01*
X45206Y-36616D01*
X45288Y-36660D01*
X45377Y-36687D01*
X45470Y-36697D01*
X45562Y-36688D01*
X45652Y-36662D01*
X45734Y-36618D01*
X45738Y-36616D01*
X45755Y-36581D01*
X45755Y-37944D01*
X45924Y-37944D01*
X45800Y-38068D01*
X45505Y-38068D01*
X45505Y-37897D01*
X45505Y-37055D01*
X45505Y-37029D01*
X45500Y-37004D01*
X45490Y-36981D01*
X45476Y-36960D01*
X45458Y-36942D01*
X45437Y-36928D01*
X45413Y-36918D01*
X45388Y-36913D01*
X45288Y-36913D01*
X45255Y-36945D01*
X45255Y-37458D01*
X45473Y-37458D01*
X45505Y-37426D01*
X45505Y-37055D01*
X45505Y-37897D01*
X45505Y-37526D01*
X45473Y-37494D01*
X45255Y-37494D01*
X45255Y-38006D01*
X45288Y-38039D01*
X45388Y-38039D01*
X45413Y-38034D01*
X45437Y-38024D01*
X45458Y-38010D01*
X45476Y-37992D01*
X45490Y-37971D01*
X45500Y-37948D01*
X45505Y-37923D01*
X45505Y-37897D01*
X45505Y-38068D01*
X45039Y-38068D01*
X45052Y-38055D01*
X45066Y-38035D01*
X45087Y-38039D01*
X45187Y-38039D01*
X45220Y-38006D01*
X45220Y-37494D01*
X45212Y-37494D01*
X45212Y-37458D01*
X45220Y-37458D01*
X45220Y-36945D01*
X45187Y-36913D01*
X45087Y-36913D01*
X45066Y-36917D01*
X45053Y-36898D01*
X45022Y-36866D01*
X44985Y-36841D01*
X44943Y-36824D01*
X44899Y-36815D01*
X44855Y-36814D01*
X44578Y-36814D01*
X44534Y-36823D01*
X44492Y-36840D01*
X44488Y-36843D01*
X44485Y-36841D01*
X44544Y-36783D01*
X44793Y-36783D01*
X44815Y-36778D01*
X44835Y-36770D01*
X44853Y-36758D01*
X44868Y-36743D01*
X44880Y-36725D01*
X44889Y-36705D01*
X44893Y-36684D01*
X44893Y-36662D01*
X44893Y-36150D01*
X44889Y-36129D01*
X44880Y-36109D01*
X44869Y-36091D01*
X44853Y-36076D01*
X44835Y-36064D01*
X44815Y-36055D01*
X44794Y-36051D01*
X44773Y-36051D01*
X44182Y-36051D01*
X44161Y-36055D01*
X44141Y-36064D01*
X44123Y-36075D01*
X44107Y-36091D01*
X44095Y-36109D01*
X44087Y-36129D01*
X44083Y-36150D01*
X44082Y-36171D01*
X44082Y-36592D01*
X43937Y-36592D01*
X43922Y-36593D01*
X43907Y-36595D01*
X43906Y-36595D01*
X43906Y-36595D01*
X43891Y-36599D01*
X43877Y-36603D01*
X43877Y-36604D01*
X43876Y-36604D01*
X43863Y-36611D01*
X43850Y-36618D01*
X43849Y-36618D01*
X43848Y-36619D01*
X43837Y-36628D01*
X43825Y-36637D01*
X43824Y-36638D01*
X43824Y-36638D01*
X43824Y-36638D01*
X43824Y-36639D01*
X43648Y-36814D01*
X43578Y-36814D01*
X43534Y-36823D01*
X43492Y-36840D01*
X43455Y-36865D01*
X43423Y-36897D01*
X43398Y-36934D01*
X43381Y-36975D01*
X43372Y-37019D01*
X43371Y-37064D01*
X43371Y-37448D01*
X43310Y-37386D01*
X43299Y-37377D01*
X43288Y-37368D01*
X43287Y-37367D01*
X43286Y-37367D01*
X43273Y-37360D01*
X43260Y-37353D01*
X43260Y-37352D01*
X43259Y-37352D01*
X43245Y-37348D01*
X43231Y-37343D01*
X43230Y-37343D01*
X43229Y-37343D01*
X43220Y-37342D01*
X43220Y-36625D01*
X43261Y-36653D01*
X43350Y-36692D01*
X43445Y-36713D01*
X43542Y-36715D01*
X43637Y-36698D01*
X43727Y-36663D01*
X43809Y-36611D01*
X43879Y-36544D01*
X43935Y-36465D01*
X43975Y-36377D01*
X43996Y-36282D01*
X43998Y-36172D01*
X43979Y-36076D01*
X43942Y-35987D01*
X43888Y-35906D01*
X43820Y-35837D01*
X43740Y-35783D01*
X43650Y-35746D01*
X43555Y-35726D01*
X43458Y-35726D01*
X43363Y-35744D01*
X43273Y-35780D01*
X43192Y-35833D01*
X43123Y-35901D01*
X43068Y-35981D01*
X43030Y-36070D01*
X43010Y-36165D01*
X43009Y-36262D01*
X43026Y-36357D01*
X43062Y-36447D01*
X43073Y-36464D01*
X42974Y-36464D01*
X42974Y-34775D01*
X44799Y-34775D01*
X44799Y-35071D01*
X44764Y-35106D01*
X44488Y-35106D01*
X44485Y-35106D01*
X43747Y-35106D01*
X43743Y-35100D01*
X43700Y-35057D01*
X43650Y-35023D01*
X43595Y-35000D01*
X43536Y-34988D01*
X43475Y-34987D01*
X43416Y-34999D01*
X43360Y-35021D01*
X43310Y-35054D01*
X43267Y-35096D01*
X43233Y-35146D01*
X43209Y-35201D01*
X43197Y-35260D01*
X43196Y-35321D01*
X43207Y-35380D01*
X43229Y-35436D01*
X43262Y-35486D01*
X43303Y-35530D01*
X43353Y-35564D01*
X43408Y-35588D01*
X43467Y-35601D01*
X43527Y-35602D01*
X43586Y-35592D01*
X43643Y-35570D01*
X43693Y-35538D01*
X43737Y-35496D01*
X43746Y-35484D01*
X44082Y-35484D01*
X44082Y-35935D01*
X44087Y-35956D01*
X44095Y-35976D01*
X44107Y-35994D01*
X44122Y-36010D01*
X44140Y-36022D01*
X44160Y-36030D01*
X44181Y-36034D01*
X44203Y-36035D01*
X44793Y-36035D01*
X44815Y-36030D01*
X44835Y-36022D01*
X44853Y-36010D01*
X44868Y-35995D01*
X44880Y-35977D01*
X44889Y-35957D01*
X44893Y-35936D01*
X44893Y-35914D01*
X44893Y-35476D01*
X44895Y-35475D01*
X44912Y-35470D01*
X44913Y-35470D01*
X44914Y-35469D01*
X44929Y-35461D01*
X44945Y-35453D01*
X44946Y-35453D01*
X44947Y-35452D01*
X44960Y-35441D01*
X44974Y-35430D01*
X44975Y-35429D01*
X44975Y-35429D01*
X44975Y-35429D01*
X44976Y-35428D01*
X45121Y-35283D01*
X45132Y-35269D01*
X45144Y-35256D01*
X45144Y-35255D01*
X45145Y-35254D01*
X45153Y-35239D01*
X45161Y-35224D01*
X45162Y-35223D01*
X45162Y-35222D01*
X45167Y-35205D01*
X45173Y-35188D01*
X45173Y-35187D01*
X45173Y-35186D01*
X45175Y-35169D01*
X45177Y-35152D01*
X45177Y-35150D01*
X45177Y-35150D01*
X45177Y-35150D01*
X45177Y-35149D01*
X45177Y-34775D01*
X45296Y-34775D01*
X45339Y-34771D01*
X45382Y-34758D01*
X45422Y-34737D01*
X45456Y-34708D01*
X45485Y-34674D01*
X45506Y-34634D01*
X45519Y-34591D01*
X45523Y-34548D01*
X45523Y-33994D01*
X45519Y-33951D01*
X45506Y-33908D01*
X45485Y-33869D01*
X45456Y-33834D01*
X45422Y-33806D01*
X45382Y-33784D01*
X45339Y-33771D01*
X45296Y-33767D01*
X42675Y-33767D01*
X42632Y-33771D01*
X42589Y-33784D01*
X42550Y-33806D01*
X42515Y-33834D01*
X42487Y-33869D01*
X42466Y-33908D01*
X42453Y-33951D01*
X42448Y-33994D01*
X42448Y-34548D01*
X42453Y-34591D01*
X42466Y-34634D01*
X42487Y-34674D01*
X42515Y-34708D01*
X42550Y-34737D01*
X42589Y-34758D01*
X42632Y-34771D01*
X42655Y-34773D01*
X42655Y-36464D01*
X42452Y-36464D01*
X42452Y-36446D01*
X42448Y-36425D01*
X42440Y-36405D01*
X42428Y-36387D01*
X42412Y-36371D01*
X42394Y-36359D01*
X42374Y-36351D01*
X42353Y-36346D01*
X42332Y-36346D01*
X41741Y-36346D01*
X41720Y-36351D01*
X41700Y-36359D01*
X41682Y-36371D01*
X41666Y-36386D01*
X41654Y-36404D01*
X41646Y-36424D01*
X41642Y-36445D01*
X41642Y-36454D01*
X41606Y-36454D01*
X41606Y-35795D01*
X40011Y-35795D01*
X40011Y-35597D01*
X40014Y-35598D01*
X40057Y-35602D01*
X40749Y-35602D01*
X40792Y-35598D01*
X40804Y-35594D01*
X40831Y-35600D01*
X41018Y-35604D01*
X41203Y-35571D01*
X41378Y-35503D01*
X41536Y-35403D01*
X41672Y-35273D01*
X41780Y-35120D01*
X41857Y-34949D01*
X41898Y-34766D01*
X41901Y-34551D01*
X41892Y-34507D01*
X41897Y-34493D01*
X41901Y-34450D01*
X41901Y-33758D01*
X41897Y-33715D01*
X41896Y-33712D01*
X47079Y-33712D01*
X47079Y-33715D01*
X47074Y-33758D01*
X47074Y-34450D01*
X47079Y-34493D01*
X47082Y-34506D01*
X47076Y-34538D01*
X47073Y-34726D01*
X47107Y-34910D01*
X47176Y-35085D01*
X47278Y-35242D01*
X47408Y-35377D01*
X47562Y-35484D01*
X47734Y-35559D01*
X47917Y-35600D01*
X48105Y-35604D01*
X48167Y-35593D01*
X48183Y-35598D01*
X48226Y-35602D01*
X48918Y-35602D01*
X48961Y-35598D01*
X48964Y-35597D01*
X48964Y-40780D01*
X48964Y-40780D01*
G37*
G54D27*
X48964Y-40780D02*
X48961Y-40779D01*
X48918Y-40775D01*
X48226Y-40775D01*
X48183Y-40779D01*
X48169Y-40784D01*
X48131Y-40776D01*
X47944Y-40774D01*
X47850Y-40792D01*
X47850Y-38997D01*
X47837Y-38817D01*
X47789Y-38644D01*
X47708Y-38483D01*
X47685Y-38449D01*
X47570Y-38360D01*
X46954Y-38976D01*
X47570Y-39592D01*
X47685Y-39503D01*
X47773Y-39346D01*
X47829Y-39175D01*
X47850Y-38997D01*
X47850Y-40792D01*
X47760Y-40810D01*
X47586Y-40880D01*
X47545Y-40907D01*
X47545Y-39617D01*
X46929Y-39001D01*
X46904Y-39026D01*
X46904Y-38976D01*
X46287Y-38360D01*
X46173Y-38449D01*
X46085Y-38605D01*
X46029Y-38776D01*
X46007Y-38955D01*
X46021Y-39134D01*
X46069Y-39308D01*
X46150Y-39468D01*
X46173Y-39503D01*
X46287Y-39592D01*
X46904Y-38976D01*
X46904Y-39026D01*
X46312Y-39617D01*
X46401Y-39732D01*
X46558Y-39820D01*
X46729Y-39876D01*
X46908Y-39897D01*
X47087Y-39884D01*
X47260Y-39836D01*
X47421Y-39755D01*
X47456Y-39732D01*
X47545Y-39617D01*
X47545Y-40907D01*
X47429Y-40983D01*
X47295Y-41114D01*
X47189Y-41269D01*
X47115Y-41441D01*
X47078Y-41613D01*
X47078Y-40007D01*
X46228Y-40007D01*
X46228Y-40293D01*
X46030Y-40293D01*
X45828Y-40091D01*
X45828Y-39370D01*
X45827Y-39355D01*
X45826Y-39340D01*
X45825Y-39339D01*
X45825Y-39339D01*
X45821Y-39324D01*
X45817Y-39310D01*
X45816Y-39310D01*
X45816Y-39309D01*
X45809Y-39296D01*
X45803Y-39283D01*
X45802Y-39282D01*
X45802Y-39281D01*
X45792Y-39270D01*
X45783Y-39258D01*
X45782Y-39257D01*
X45782Y-39257D01*
X45782Y-39257D01*
X45782Y-39257D01*
X45683Y-39158D01*
X45672Y-39149D01*
X45660Y-39140D01*
X45660Y-39139D01*
X45659Y-39139D01*
X45646Y-39132D01*
X45633Y-39125D01*
X45632Y-39124D01*
X45632Y-39124D01*
X45618Y-39120D01*
X45604Y-39115D01*
X45603Y-39115D01*
X45602Y-39115D01*
X45587Y-39113D01*
X45573Y-39112D01*
X45571Y-39112D01*
X45571Y-39112D01*
X45571Y-39112D01*
X45570Y-39112D01*
X45353Y-39112D01*
X45365Y-39094D01*
X45384Y-39051D01*
X45394Y-39006D01*
X45395Y-38953D01*
X45386Y-38907D01*
X45368Y-38864D01*
X45342Y-38825D01*
X45310Y-38791D01*
X45271Y-38765D01*
X45228Y-38747D01*
X45182Y-38738D01*
X45144Y-38738D01*
X45010Y-38604D01*
X45925Y-38604D01*
X45939Y-38602D01*
X45954Y-38601D01*
X45955Y-38601D01*
X45956Y-38601D01*
X45970Y-38597D01*
X45984Y-38592D01*
X45985Y-38592D01*
X45985Y-38592D01*
X45998Y-38585D01*
X46012Y-38578D01*
X46012Y-38578D01*
X46013Y-38577D01*
X46024Y-38568D01*
X46036Y-38559D01*
X46037Y-38558D01*
X46037Y-38558D01*
X46037Y-38557D01*
X46037Y-38557D01*
X46463Y-38131D01*
X46566Y-38131D01*
X46436Y-38197D01*
X46401Y-38220D01*
X46312Y-38335D01*
X46929Y-38951D01*
X47545Y-38335D01*
X47456Y-38220D01*
X47299Y-38132D01*
X47128Y-38076D01*
X46950Y-38054D01*
X46933Y-38056D01*
X47041Y-37947D01*
X47043Y-37944D01*
X47354Y-37944D01*
X47354Y-37789D01*
X47359Y-37794D01*
X47408Y-37828D01*
X47463Y-37852D01*
X47522Y-37865D01*
X47582Y-37866D01*
X47642Y-37856D01*
X47698Y-37834D01*
X47704Y-37830D01*
X47704Y-37848D01*
X47710Y-37877D01*
X47721Y-37904D01*
X47738Y-37929D01*
X47758Y-37950D01*
X47783Y-37966D01*
X47810Y-37977D01*
X47838Y-37983D01*
X47868Y-37983D01*
X48459Y-37983D01*
X48488Y-37978D01*
X48515Y-37966D01*
X48539Y-37950D01*
X48560Y-37930D01*
X48576Y-37905D01*
X48588Y-37878D01*
X48594Y-37849D01*
X48594Y-37820D01*
X48594Y-37308D01*
X48588Y-37279D01*
X48577Y-37252D01*
X48561Y-37228D01*
X48540Y-37207D01*
X48518Y-37192D01*
X48527Y-37186D01*
X48545Y-37168D01*
X48559Y-37147D01*
X48569Y-37123D01*
X48574Y-37098D01*
X48574Y-36562D01*
X48569Y-36537D01*
X48559Y-36513D01*
X48545Y-36492D01*
X48527Y-36474D01*
X48506Y-36460D01*
X48483Y-36450D01*
X48458Y-36445D01*
X48432Y-36445D01*
X48199Y-36445D01*
X48167Y-36477D01*
X48167Y-36813D01*
X48542Y-36813D01*
X48574Y-36780D01*
X48574Y-36562D01*
X48574Y-37098D01*
X48574Y-36880D01*
X48542Y-36848D01*
X48167Y-36848D01*
X48167Y-36856D01*
X48131Y-36856D01*
X48131Y-36848D01*
X48131Y-36813D01*
X48131Y-36477D01*
X48099Y-36445D01*
X47866Y-36445D01*
X47840Y-36445D01*
X47816Y-36450D01*
X47792Y-36460D01*
X47771Y-36474D01*
X47753Y-36492D01*
X47739Y-36513D01*
X47729Y-36537D01*
X47724Y-36562D01*
X47724Y-36780D01*
X47757Y-36813D01*
X48131Y-36813D01*
X48131Y-36848D01*
X47757Y-36848D01*
X47724Y-36880D01*
X47724Y-37098D01*
X47729Y-37123D01*
X47739Y-37147D01*
X47753Y-37168D01*
X47771Y-37186D01*
X47780Y-37192D01*
X47759Y-37206D01*
X47738Y-37227D01*
X47722Y-37251D01*
X47710Y-37278D01*
X47708Y-37289D01*
X47705Y-37287D01*
X47650Y-37264D01*
X47591Y-37252D01*
X47531Y-37251D01*
X47471Y-37263D01*
X47416Y-37285D01*
X47365Y-37318D01*
X47354Y-37329D01*
X47354Y-36464D01*
X47334Y-36464D01*
X47334Y-36446D01*
X47330Y-36425D01*
X47321Y-36405D01*
X47309Y-36387D01*
X47294Y-36371D01*
X47276Y-36359D01*
X47256Y-36351D01*
X47235Y-36346D01*
X47214Y-36346D01*
X46623Y-36346D01*
X46602Y-36351D01*
X46582Y-36359D01*
X46564Y-36371D01*
X46548Y-36386D01*
X46536Y-36404D01*
X46528Y-36424D01*
X46523Y-36445D01*
X46523Y-36464D01*
X46320Y-36464D01*
X46320Y-35769D01*
X46363Y-35762D01*
X46407Y-35745D01*
X46446Y-35720D01*
X46480Y-35687D01*
X46507Y-35649D01*
X46526Y-35607D01*
X46536Y-35561D01*
X46537Y-35508D01*
X46528Y-35462D01*
X46510Y-35419D01*
X46484Y-35380D01*
X46451Y-35347D01*
X46443Y-35341D01*
X46443Y-34564D01*
X46443Y-33938D01*
X46442Y-33913D01*
X46437Y-33888D01*
X46427Y-33865D01*
X46413Y-33843D01*
X46395Y-33825D01*
X46374Y-33811D01*
X46350Y-33802D01*
X46325Y-33797D01*
X46038Y-33797D01*
X46005Y-33829D01*
X46005Y-34234D01*
X46410Y-34234D01*
X46442Y-34201D01*
X46443Y-33938D01*
X46443Y-34564D01*
X46442Y-34302D01*
X46410Y-34269D01*
X46005Y-34269D01*
X46005Y-34674D01*
X46038Y-34706D01*
X46325Y-34706D01*
X46350Y-34701D01*
X46374Y-34692D01*
X46395Y-34677D01*
X46413Y-34659D01*
X46427Y-34638D01*
X46437Y-34615D01*
X46442Y-34590D01*
X46443Y-34564D01*
X46443Y-35341D01*
X46413Y-35320D01*
X46369Y-35302D01*
X46324Y-35293D01*
X46277Y-35293D01*
X46231Y-35301D01*
X46188Y-35319D01*
X46149Y-35344D01*
X46115Y-35377D01*
X46089Y-35416D01*
X46071Y-35459D01*
X46061Y-35504D01*
X46060Y-35544D01*
X46048Y-35556D01*
X46039Y-35567D01*
X46029Y-35579D01*
X46029Y-35579D01*
X46028Y-35580D01*
X46021Y-35593D01*
X46014Y-35606D01*
X46014Y-35607D01*
X46014Y-35608D01*
X46009Y-35622D01*
X46005Y-35636D01*
X46005Y-35636D01*
X46005Y-35637D01*
X46003Y-35652D01*
X46001Y-35667D01*
X46001Y-35668D01*
X46001Y-35668D01*
X46001Y-35668D01*
X46001Y-35669D01*
X46001Y-36464D01*
X45970Y-36464D01*
X45970Y-34674D01*
X45970Y-34269D01*
X45970Y-34234D01*
X45970Y-33829D01*
X45937Y-33797D01*
X45650Y-33797D01*
X45625Y-33802D01*
X45602Y-33811D01*
X45580Y-33825D01*
X45562Y-33843D01*
X45548Y-33865D01*
X45538Y-33888D01*
X45533Y-33913D01*
X45533Y-33938D01*
X45533Y-34201D01*
X45565Y-34234D01*
X45970Y-34234D01*
X45970Y-34269D01*
X45565Y-34269D01*
X45533Y-34302D01*
X45533Y-34564D01*
X45533Y-34590D01*
X45538Y-34615D01*
X45548Y-34638D01*
X45562Y-34659D01*
X45580Y-34677D01*
X45602Y-34692D01*
X45625Y-34701D01*
X45650Y-34706D01*
X45937Y-34706D01*
X45970Y-34674D01*
X45970Y-36464D01*
X45879Y-36464D01*
X45912Y-36404D01*
X45939Y-36315D01*
X45949Y-36222D01*
X45940Y-36130D01*
X45914Y-36040D01*
X45870Y-35958D01*
X45868Y-35954D01*
X45798Y-35919D01*
X45773Y-35944D01*
X45773Y-35894D01*
X45738Y-35824D01*
X45656Y-35780D01*
X45567Y-35753D01*
X45474Y-35743D01*
X45382Y-35752D01*
X45292Y-35778D01*
X45210Y-35822D01*
X45206Y-35824D01*
X45171Y-35894D01*
X45472Y-36195D01*
X45773Y-35894D01*
X45773Y-35944D01*
X45497Y-36220D01*
X45503Y-36226D01*
X45478Y-36251D01*
X45472Y-36245D01*
X45447Y-36270D01*
X45447Y-36220D01*
X45146Y-35919D01*
X45076Y-35954D01*
X45032Y-36036D01*
X45005Y-36125D01*
X44995Y-36218D01*
X45004Y-36310D01*
X45030Y-36400D01*
X45074Y-36482D01*
X45076Y-36486D01*
X45146Y-36521D01*
X45447Y-36220D01*
X45447Y-36270D01*
X45171Y-36546D01*
X45206Y-36616D01*
X45288Y-36660D01*
X45377Y-36687D01*
X45470Y-36697D01*
X45562Y-36688D01*
X45652Y-36662D01*
X45734Y-36618D01*
X45738Y-36616D01*
X45755Y-36581D01*
X45755Y-37944D01*
X45924Y-37944D01*
X45800Y-38068D01*
X45505Y-38068D01*
X45505Y-37897D01*
X45505Y-37055D01*
X45505Y-37029D01*
X45500Y-37004D01*
X45490Y-36981D01*
X45476Y-36960D01*
X45458Y-36942D01*
X45437Y-36928D01*
X45413Y-36918D01*
X45388Y-36913D01*
X45288Y-36913D01*
X45255Y-36945D01*
X45255Y-37458D01*
X45473Y-37458D01*
X45505Y-37426D01*
X45505Y-37055D01*
X45505Y-37897D01*
X45505Y-37526D01*
X45473Y-37494D01*
X45255Y-37494D01*
X45255Y-38006D01*
X45288Y-38039D01*
X45388Y-38039D01*
X45413Y-38034D01*
X45437Y-38024D01*
X45458Y-38010D01*
X45476Y-37992D01*
X45490Y-37971D01*
X45500Y-37948D01*
X45505Y-37923D01*
X45505Y-37897D01*
X45505Y-38068D01*
X45039Y-38068D01*
X45052Y-38055D01*
X45066Y-38035D01*
X45087Y-38039D01*
X45187Y-38039D01*
X45220Y-38006D01*
X45220Y-37494D01*
X45212Y-37494D01*
X45212Y-37458D01*
X45220Y-37458D01*
X45220Y-36945D01*
X45187Y-36913D01*
X45087Y-36913D01*
X45066Y-36917D01*
X45053Y-36898D01*
X45022Y-36866D01*
X44985Y-36841D01*
X44943Y-36824D01*
X44899Y-36815D01*
X44855Y-36814D01*
X44578Y-36814D01*
X44534Y-36823D01*
X44492Y-36840D01*
X44488Y-36843D01*
X44485Y-36841D01*
X44544Y-36783D01*
X44793Y-36783D01*
X44815Y-36778D01*
X44835Y-36770D01*
X44853Y-36758D01*
X44868Y-36743D01*
X44880Y-36725D01*
X44889Y-36705D01*
X44893Y-36684D01*
X44893Y-36662D01*
X44893Y-36150D01*
X44889Y-36129D01*
X44880Y-36109D01*
X44869Y-36091D01*
X44853Y-36076D01*
X44835Y-36064D01*
X44815Y-36055D01*
X44794Y-36051D01*
X44773Y-36051D01*
X44182Y-36051D01*
X44161Y-36055D01*
X44141Y-36064D01*
X44123Y-36075D01*
X44107Y-36091D01*
X44095Y-36109D01*
X44087Y-36129D01*
X44083Y-36150D01*
X44082Y-36171D01*
X44082Y-36592D01*
X43937Y-36592D01*
X43922Y-36593D01*
X43907Y-36595D01*
X43906Y-36595D01*
X43906Y-36595D01*
X43891Y-36599D01*
X43877Y-36603D01*
X43877Y-36604D01*
X43876Y-36604D01*
X43863Y-36611D01*
X43850Y-36618D01*
X43849Y-36618D01*
X43848Y-36619D01*
X43837Y-36628D01*
X43825Y-36637D01*
X43824Y-36638D01*
X43824Y-36638D01*
X43824Y-36638D01*
X43824Y-36639D01*
X43648Y-36814D01*
X43578Y-36814D01*
X43534Y-36823D01*
X43492Y-36840D01*
X43455Y-36865D01*
X43423Y-36897D01*
X43398Y-36934D01*
X43381Y-36975D01*
X43372Y-37019D01*
X43371Y-37064D01*
X43371Y-37448D01*
X43310Y-37386D01*
X43299Y-37377D01*
X43288Y-37368D01*
X43287Y-37367D01*
X43286Y-37367D01*
X43273Y-37360D01*
X43260Y-37353D01*
X43260Y-37352D01*
X43259Y-37352D01*
X43245Y-37348D01*
X43231Y-37343D01*
X43230Y-37343D01*
X43229Y-37343D01*
X43220Y-37342D01*
X43220Y-36625D01*
X43261Y-36653D01*
X43350Y-36692D01*
X43445Y-36713D01*
X43542Y-36715D01*
X43637Y-36698D01*
X43727Y-36663D01*
X43809Y-36611D01*
X43879Y-36544D01*
X43935Y-36465D01*
X43975Y-36377D01*
X43996Y-36282D01*
X43998Y-36172D01*
X43979Y-36076D01*
X43942Y-35987D01*
X43888Y-35906D01*
X43820Y-35837D01*
X43740Y-35783D01*
X43650Y-35746D01*
X43555Y-35726D01*
X43458Y-35726D01*
X43363Y-35744D01*
X43273Y-35780D01*
X43192Y-35833D01*
X43123Y-35901D01*
X43068Y-35981D01*
X43030Y-36070D01*
X43010Y-36165D01*
X43009Y-36262D01*
X43026Y-36357D01*
X43062Y-36447D01*
X43073Y-36464D01*
X42974Y-36464D01*
X42974Y-34775D01*
X44799Y-34775D01*
X44799Y-35071D01*
X44764Y-35106D01*
X44488Y-35106D01*
X44485Y-35106D01*
X43747Y-35106D01*
X43743Y-35100D01*
X43700Y-35057D01*
X43650Y-35023D01*
X43595Y-35000D01*
X43536Y-34988D01*
X43475Y-34987D01*
X43416Y-34999D01*
X43360Y-35021D01*
X43310Y-35054D01*
X43267Y-35096D01*
X43233Y-35146D01*
X43209Y-35201D01*
X43197Y-35260D01*
X43196Y-35321D01*
X43207Y-35380D01*
X43229Y-35436D01*
X43262Y-35486D01*
X43303Y-35530D01*
X43353Y-35564D01*
X43408Y-35588D01*
X43467Y-35601D01*
X43527Y-35602D01*
X43586Y-35592D01*
X43643Y-35570D01*
X43693Y-35538D01*
X43737Y-35496D01*
X43746Y-35484D01*
X44082Y-35484D01*
X44082Y-35935D01*
X44087Y-35956D01*
X44095Y-35976D01*
X44107Y-35994D01*
X44122Y-36010D01*
X44140Y-36022D01*
X44160Y-36030D01*
X44181Y-36034D01*
X44203Y-36035D01*
X44793Y-36035D01*
X44815Y-36030D01*
X44835Y-36022D01*
X44853Y-36010D01*
X44868Y-35995D01*
X44880Y-35977D01*
X44889Y-35957D01*
X44893Y-35936D01*
X44893Y-35914D01*
X44893Y-35476D01*
X44895Y-35475D01*
X44912Y-35470D01*
X44913Y-35470D01*
X44914Y-35469D01*
X44929Y-35461D01*
X44945Y-35453D01*
X44946Y-35453D01*
X44947Y-35452D01*
X44960Y-35441D01*
X44974Y-35430D01*
X44975Y-35429D01*
X44975Y-35429D01*
X44975Y-35429D01*
X44976Y-35428D01*
X45121Y-35283D01*
X45132Y-35269D01*
X45144Y-35256D01*
X45144Y-35255D01*
X45145Y-35254D01*
X45153Y-35239D01*
X45161Y-35224D01*
X45162Y-35223D01*
X45162Y-35222D01*
X45167Y-35205D01*
X45173Y-35188D01*
X45173Y-35187D01*
X45173Y-35186D01*
X45175Y-35169D01*
X45177Y-35152D01*
X45177Y-35150D01*
X45177Y-35150D01*
X45177Y-35150D01*
X45177Y-35149D01*
X45177Y-34775D01*
X45296Y-34775D01*
X45339Y-34771D01*
X45382Y-34758D01*
X45422Y-34737D01*
X45456Y-34708D01*
X45485Y-34674D01*
X45506Y-34634D01*
X45519Y-34591D01*
X45523Y-34548D01*
X45523Y-33994D01*
X45519Y-33951D01*
X45506Y-33908D01*
X45485Y-33869D01*
X45456Y-33834D01*
X45422Y-33806D01*
X45382Y-33784D01*
X45339Y-33771D01*
X45296Y-33767D01*
X42675Y-33767D01*
X42632Y-33771D01*
X42589Y-33784D01*
X42550Y-33806D01*
X42515Y-33834D01*
X42487Y-33869D01*
X42466Y-33908D01*
X42453Y-33951D01*
X42448Y-33994D01*
X42448Y-34548D01*
X42453Y-34591D01*
X42466Y-34634D01*
X42487Y-34674D01*
X42515Y-34708D01*
X42550Y-34737D01*
X42589Y-34758D01*
X42632Y-34771D01*
X42655Y-34773D01*
X42655Y-36464D01*
X42452Y-36464D01*
X42452Y-36446D01*
X42448Y-36425D01*
X42440Y-36405D01*
X42428Y-36387D01*
X42412Y-36371D01*
X42394Y-36359D01*
X42374Y-36351D01*
X42353Y-36346D01*
X42332Y-36346D01*
X41741Y-36346D01*
X41720Y-36351D01*
X41700Y-36359D01*
X41682Y-36371D01*
X41666Y-36386D01*
X41654Y-36404D01*
X41646Y-36424D01*
X41642Y-36445D01*
X41642Y-36454D01*
X41606Y-36454D01*
X41606Y-35795D01*
X40011Y-35795D01*
X40011Y-35597D01*
X40014Y-35598D01*
X40057Y-35602D01*
X40749Y-35602D01*
X40792Y-35598D01*
X40804Y-35594D01*
X40831Y-35600D01*
X41018Y-35604D01*
X41203Y-35571D01*
X41378Y-35503D01*
X41536Y-35403D01*
X41672Y-35273D01*
X41780Y-35120D01*
X41857Y-34949D01*
X41898Y-34766D01*
X41901Y-34551D01*
X41892Y-34507D01*
X41897Y-34493D01*
X41901Y-34450D01*
X41901Y-33758D01*
X41897Y-33715D01*
X41896Y-33712D01*
X47079Y-33712D01*
X47079Y-33715D01*
X47074Y-33758D01*
X47074Y-34450D01*
X47079Y-34493D01*
X47082Y-34506D01*
X47076Y-34538D01*
X47073Y-34726D01*
X47107Y-34910D01*
X47176Y-35085D01*
X47278Y-35242D01*
X47408Y-35377D01*
X47562Y-35484D01*
X47734Y-35559D01*
X47917Y-35600D01*
X48105Y-35604D01*
X48167Y-35593D01*
X48183Y-35598D01*
X48226Y-35602D01*
X48918Y-35602D01*
X48961Y-35598D01*
X48964Y-35597D01*
X48964Y-40780D01*
M02*
