M48
METRIC,TZ
T1C0.350
T2C0.850
T3C1.016
T4C1.100
T5C2.800
%
G90
G05
T1
X102100Y-100100
X102100Y-103100
X103500Y-101800
X104325Y-098250
X104325Y-099800
X104650Y-097450
X104900Y-103100
X107000Y-086250
X107000Y-087750
X107000Y-089300
X107500Y-107100
X109200Y-103900
X109875Y-095175
X110700Y-089700
X110800Y-096900
X112100Y-093050
X112200Y-100050
X113800Y-099200
X113950Y-097850
X115400Y-098150
X115600Y-090400
X116500Y-095250
X116650Y-093000
X116650Y-093900
X117300Y-091850
X118150Y-103000
X118600Y-106750
X120350Y-095700
X122850Y-097100
X123850Y-099100
X123850Y-101450
X123900Y-091300
X123900Y-095100
T2
X102700Y-092000
X102700Y-096000
X102800Y-094000
X104700Y-094000
X104800Y-092000
X104800Y-096000
T3
X109190Y-087000
X111730Y-087000
X114270Y-087000
X116810Y-087000
T4
X110500Y-092000
X110500Y-106500
X113000Y-106500
X115500Y-092000
X115500Y-106500
T5
X107450Y-099000
X118550Y-099000
T0
M30
