G04 (created by PCBNEW (2013-01-21 BZR 3918)-testing) date Tue 22 Jan 2013 11:18:51 AM CET*
%MOIN*%
G04 Gerber Fmt 3.4, Leading zero omitted, Abs format*
%FSLAX34Y34*%
G01*
G70*
G90*
G04 APERTURE LIST*
%ADD10C,3.14961e-06*%
%ADD11C,0.015*%
%ADD12R,0.06X0.06*%
%ADD13C,0.06*%
%ADD14R,0.0275591X0.0866142*%
%ADD15C,0.0688976*%
%ADD16R,0.137795X0.19685*%
%ADD17R,0.0314X0.0314*%
%ADD18R,0.0511X0.059*%
%ADD19C,0.0984252*%
%ADD20C,0.025*%
%ADD21C,0.008*%
G04 APERTURE END LIST*
G54D10*
G54D11*
X49015Y-42716D02*
X49015Y-33661D01*
X39960Y-42716D02*
X49015Y-42716D01*
X39960Y-33661D02*
X39960Y-42716D01*
X39960Y-33661D02*
X49015Y-33661D01*
G54D12*
X45988Y-34350D03*
G54D13*
X44988Y-34350D03*
X43988Y-34350D03*
X42988Y-34350D03*
G54D14*
X43738Y-37377D03*
X44238Y-37377D03*
X44738Y-37377D03*
X45238Y-37377D03*
X45238Y-40377D03*
X44738Y-40377D03*
X44238Y-40377D03*
X43738Y-40377D03*
G54D15*
X43503Y-41830D03*
X45472Y-41830D03*
X44488Y-41830D03*
X45472Y-36122D03*
X43503Y-36122D03*
G54D16*
X46692Y-38877D03*
X42283Y-38877D03*
G54D17*
X42814Y-36811D03*
X42814Y-37401D03*
X42224Y-36811D03*
X42224Y-37401D03*
X42027Y-40551D03*
X42617Y-40551D03*
X46948Y-40551D03*
X46358Y-40551D03*
X41633Y-36811D03*
X41633Y-37401D03*
G54D18*
X44862Y-35236D03*
X44114Y-35236D03*
G54D19*
X48031Y-41732D03*
X40944Y-34645D03*
X40944Y-41732D03*
X48031Y-34645D03*
G54D17*
X44488Y-35925D03*
X44488Y-36515D03*
X46948Y-37106D03*
X46358Y-37106D03*
G54D20*
X41633Y-36122D03*
X45275Y-39566D03*
X45275Y-38779D03*
X43700Y-38779D03*
X41141Y-37401D03*
X46948Y-36614D03*
X44094Y-36220D03*
X42224Y-35334D03*
X46358Y-41141D03*
G54D21*
X41633Y-36811D02*
X41633Y-36122D01*
X42027Y-40551D02*
X42027Y-41240D01*
X42618Y-41830D02*
X43503Y-41830D01*
X42027Y-41240D02*
X42618Y-41830D01*
X45472Y-41830D02*
X46456Y-41830D01*
X46948Y-41338D02*
X46948Y-40551D01*
X46456Y-41830D02*
X46948Y-41338D01*
X42814Y-37401D02*
X42224Y-37401D01*
X43110Y-37401D02*
X42815Y-37401D01*
X42815Y-37401D02*
X42814Y-37401D01*
X44238Y-37377D02*
X44238Y-38242D01*
X43307Y-37598D02*
X43110Y-37401D01*
X43307Y-38188D02*
X43307Y-37598D01*
X43503Y-38385D02*
X43307Y-38188D01*
X44094Y-38385D02*
X43503Y-38385D01*
X44238Y-38242D02*
X44094Y-38385D01*
X44738Y-40377D02*
X44738Y-39316D01*
X45866Y-40551D02*
X46358Y-40551D01*
X45669Y-40354D02*
X45866Y-40551D01*
X45669Y-39271D02*
X45669Y-40354D01*
X45570Y-39173D02*
X45669Y-39271D01*
X44881Y-39173D02*
X45570Y-39173D01*
X44738Y-39316D02*
X44881Y-39173D01*
X45238Y-39604D02*
X45275Y-39566D01*
X45275Y-38779D02*
X43700Y-38779D01*
X45238Y-40377D02*
X45238Y-39604D01*
X41142Y-37401D02*
X41633Y-37401D01*
X41141Y-37401D02*
X41142Y-37401D01*
X46948Y-37106D02*
X46948Y-37106D01*
X46948Y-36614D02*
X46948Y-37106D01*
X44488Y-36515D02*
X43996Y-36515D01*
X43738Y-36773D02*
X43738Y-37377D01*
X43996Y-36515D02*
X43738Y-36773D01*
X43307Y-40255D02*
X43307Y-39271D01*
X43011Y-40551D02*
X43307Y-40255D01*
X42617Y-40551D02*
X43011Y-40551D01*
X44238Y-39316D02*
X44238Y-40377D01*
X44094Y-39173D02*
X44238Y-39316D01*
X43405Y-39173D02*
X44094Y-39173D01*
X43307Y-39271D02*
X43405Y-39173D01*
X42814Y-36811D02*
X42814Y-34523D01*
X42814Y-34523D02*
X42988Y-34350D01*
X44114Y-36200D02*
X44094Y-36220D01*
X44114Y-35236D02*
X44114Y-36200D01*
X45238Y-37377D02*
X45238Y-36356D01*
X45238Y-36356D02*
X45472Y-36122D01*
X45988Y-34350D02*
X45988Y-35606D01*
X45988Y-35606D02*
X45472Y-36122D01*
X42224Y-36811D02*
X42224Y-35334D01*
X45669Y-37598D02*
X45767Y-37500D01*
X44738Y-38242D02*
X44881Y-38385D01*
X44881Y-38385D02*
X45472Y-38385D01*
X45472Y-38385D02*
X45669Y-38188D01*
X45669Y-38188D02*
X45669Y-37598D01*
X44738Y-37377D02*
X44738Y-38242D01*
X46358Y-37401D02*
X46358Y-37106D01*
X46259Y-37500D02*
X46358Y-37401D01*
X45767Y-37500D02*
X46259Y-37500D01*
X44488Y-35925D02*
X44684Y-35925D01*
X44684Y-35925D02*
X44862Y-35748D01*
X43738Y-41080D02*
X43799Y-41141D01*
X43799Y-41141D02*
X46358Y-41141D01*
X43738Y-40377D02*
X43738Y-41080D01*
X44862Y-35748D02*
X44862Y-35236D01*
X44988Y-34350D02*
X44988Y-35110D01*
X44988Y-35110D02*
X44862Y-35236D01*
M02*
