G04 (created by PCBNEW (2013-01-21 BZR 3918)-testing) date Tue 22 Jan 2013 11:18:51 AM CET*
%MOIN*%
G04 Gerber Fmt 3.4, Leading zero omitted, Abs format*
%FSLAX34Y34*%
G01*
G70*
G90*
G04 APERTURE LIST*
%ADD10C,3.14961e-06*%
%ADD11C,0.00787402*%
%ADD12C,0.008*%
%ADD13C,0.015*%
%ADD14C,0.00984252*%
%ADD15C,0.00393701*%
%ADD16C,0.0026*%
%ADD17C,0.002*%
%ADD18C,0.004*%
%ADD19R,0.06X0.06*%
%ADD20C,0.06*%
%ADD21R,0.0275591X0.0866142*%
%ADD22C,0.0688976*%
%ADD23R,0.137795X0.19685*%
%ADD24R,0.0314X0.0314*%
%ADD25R,0.0511X0.059*%
%ADD26C,0.0984252*%
G04 APERTURE END LIST*
G54D10*
G54D11*
X46102Y-34960D02*
X45984Y-34763D01*
X45866Y-34960D02*
X46102Y-34960D01*
X45984Y-34763D02*
X45866Y-34960D01*
X46850Y-36220D02*
X47716Y-36220D01*
X45984Y-35354D02*
X46850Y-36220D01*
X45984Y-34763D02*
X45984Y-35354D01*
G54D12*
X47830Y-40148D02*
X48230Y-40148D01*
X48230Y-39995D01*
X48211Y-39957D01*
X48192Y-39938D01*
X48154Y-39919D01*
X48096Y-39919D01*
X48058Y-39938D01*
X48039Y-39957D01*
X48020Y-39995D01*
X48020Y-40148D01*
X48039Y-39614D02*
X48020Y-39557D01*
X48001Y-39538D01*
X47963Y-39519D01*
X47906Y-39519D01*
X47868Y-39538D01*
X47849Y-39557D01*
X47830Y-39595D01*
X47830Y-39748D01*
X48230Y-39748D01*
X48230Y-39614D01*
X48211Y-39576D01*
X48192Y-39557D01*
X48154Y-39538D01*
X48115Y-39538D01*
X48077Y-39557D01*
X48058Y-39576D01*
X48039Y-39614D01*
X48039Y-39748D01*
X48230Y-39386D02*
X48230Y-39138D01*
X48077Y-39272D01*
X48077Y-39214D01*
X48058Y-39176D01*
X48039Y-39157D01*
X48001Y-39138D01*
X47906Y-39138D01*
X47868Y-39157D01*
X47849Y-39176D01*
X47830Y-39214D01*
X47830Y-39329D01*
X47849Y-39367D01*
X47868Y-39386D01*
X47830Y-38662D02*
X48230Y-38662D01*
X48230Y-38510D01*
X48211Y-38472D01*
X48192Y-38453D01*
X48154Y-38434D01*
X48096Y-38434D01*
X48058Y-38453D01*
X48039Y-38472D01*
X48020Y-38510D01*
X48020Y-38662D01*
X48039Y-38129D02*
X48020Y-38072D01*
X48001Y-38053D01*
X47963Y-38034D01*
X47906Y-38034D01*
X47868Y-38053D01*
X47849Y-38072D01*
X47830Y-38110D01*
X47830Y-38262D01*
X48230Y-38262D01*
X48230Y-38129D01*
X48211Y-38091D01*
X48192Y-38072D01*
X48154Y-38053D01*
X48115Y-38053D01*
X48077Y-38072D01*
X48058Y-38091D01*
X48039Y-38129D01*
X48039Y-38262D01*
X48096Y-37691D02*
X47830Y-37691D01*
X48249Y-37786D02*
X47963Y-37881D01*
X47963Y-37634D01*
X47982Y-37176D02*
X47982Y-36872D01*
X47830Y-37024D02*
X48134Y-37024D01*
X47982Y-36376D02*
X47982Y-36072D01*
G54D11*
X40991Y-35667D02*
X40991Y-35854D01*
X41104Y-35629D02*
X40710Y-35761D01*
X41104Y-35892D01*
X41104Y-36211D02*
X41104Y-36023D01*
X40710Y-36023D01*
X41104Y-36342D02*
X40710Y-36342D01*
X40710Y-36492D01*
X40729Y-36529D01*
X40748Y-36548D01*
X40785Y-36567D01*
X40841Y-36567D01*
X40879Y-36548D01*
X40898Y-36529D01*
X40916Y-36492D01*
X40916Y-36342D01*
X41085Y-36717D02*
X41104Y-36773D01*
X41104Y-36867D01*
X41085Y-36904D01*
X41066Y-36923D01*
X41029Y-36942D01*
X40991Y-36942D01*
X40954Y-36923D01*
X40935Y-36904D01*
X40916Y-36867D01*
X40898Y-36792D01*
X40879Y-36754D01*
X40860Y-36736D01*
X40823Y-36717D01*
X40785Y-36717D01*
X40748Y-36736D01*
X40729Y-36754D01*
X40710Y-36792D01*
X40710Y-36886D01*
X40729Y-36942D01*
X40954Y-37110D02*
X40954Y-37410D01*
X41085Y-37579D02*
X41104Y-37635D01*
X41104Y-37729D01*
X41085Y-37767D01*
X41066Y-37785D01*
X41029Y-37804D01*
X40991Y-37804D01*
X40954Y-37785D01*
X40935Y-37767D01*
X40916Y-37729D01*
X40898Y-37654D01*
X40879Y-37617D01*
X40860Y-37598D01*
X40823Y-37579D01*
X40785Y-37579D01*
X40748Y-37598D01*
X40729Y-37617D01*
X40710Y-37654D01*
X40710Y-37748D01*
X40729Y-37804D01*
X40710Y-37917D02*
X40710Y-38142D01*
X41104Y-38029D02*
X40710Y-38029D01*
X40898Y-38273D02*
X40898Y-38404D01*
X41104Y-38460D02*
X41104Y-38273D01*
X40710Y-38273D01*
X40710Y-38460D01*
X41066Y-38854D02*
X41085Y-38835D01*
X41104Y-38779D01*
X41104Y-38742D01*
X41085Y-38685D01*
X41047Y-38648D01*
X41010Y-38629D01*
X40935Y-38610D01*
X40879Y-38610D01*
X40804Y-38629D01*
X40766Y-38648D01*
X40729Y-38685D01*
X40710Y-38742D01*
X40710Y-38779D01*
X40729Y-38835D01*
X40748Y-38854D01*
X41104Y-39229D02*
X41104Y-39004D01*
X41104Y-39116D02*
X40710Y-39116D01*
X40766Y-39079D01*
X40804Y-39041D01*
X40823Y-39004D01*
X40748Y-39379D02*
X40729Y-39398D01*
X40710Y-39435D01*
X40710Y-39529D01*
X40729Y-39566D01*
X40748Y-39585D01*
X40785Y-39604D01*
X40823Y-39604D01*
X40879Y-39585D01*
X41104Y-39360D01*
X41104Y-39604D01*
X40898Y-39773D02*
X40898Y-39904D01*
X41104Y-39960D02*
X41104Y-39773D01*
X40710Y-39773D01*
X40710Y-39960D01*
X40710Y-40204D02*
X40710Y-40241D01*
X40729Y-40279D01*
X40748Y-40298D01*
X40785Y-40316D01*
X40860Y-40335D01*
X40954Y-40335D01*
X41029Y-40316D01*
X41066Y-40298D01*
X41085Y-40279D01*
X41104Y-40241D01*
X41104Y-40204D01*
X41085Y-40166D01*
X41066Y-40148D01*
X41029Y-40129D01*
X40954Y-40110D01*
X40860Y-40110D01*
X40785Y-40129D01*
X40748Y-40148D01*
X40729Y-40166D01*
X40710Y-40204D01*
X40879Y-40560D02*
X40860Y-40523D01*
X40841Y-40504D01*
X40804Y-40485D01*
X40785Y-40485D01*
X40748Y-40504D01*
X40729Y-40523D01*
X40710Y-40560D01*
X40710Y-40635D01*
X40729Y-40673D01*
X40748Y-40691D01*
X40785Y-40710D01*
X40804Y-40710D01*
X40841Y-40691D01*
X40860Y-40673D01*
X40879Y-40635D01*
X40879Y-40560D01*
X40898Y-40523D01*
X40916Y-40504D01*
X40954Y-40485D01*
X41029Y-40485D01*
X41066Y-40504D01*
X41085Y-40523D01*
X41104Y-40560D01*
X41104Y-40635D01*
X41085Y-40673D01*
X41066Y-40691D01*
X41029Y-40710D01*
X40954Y-40710D01*
X40916Y-40691D01*
X40898Y-40673D01*
X40879Y-40635D01*
G54D13*
X49015Y-42716D02*
X49015Y-33661D01*
X39960Y-42716D02*
X49015Y-42716D01*
X39960Y-33661D02*
X39960Y-42716D01*
X39960Y-33661D02*
X49015Y-33661D01*
G54D14*
X43307Y-41043D02*
X45669Y-41043D01*
X45669Y-41043D02*
X45669Y-36712D01*
X45669Y-36712D02*
X43307Y-36712D01*
X43307Y-36712D02*
X43307Y-41043D01*
G54D15*
X43813Y-37827D02*
X43813Y-37277D01*
X43813Y-37277D02*
X43663Y-37277D01*
X43663Y-37277D02*
X43663Y-37827D01*
X44313Y-37827D02*
X44313Y-37277D01*
X44313Y-37277D02*
X44163Y-37277D01*
X44163Y-37277D02*
X44163Y-37827D01*
X44813Y-37827D02*
X44813Y-37277D01*
X44813Y-37277D02*
X44663Y-37277D01*
X44663Y-37277D02*
X44663Y-37827D01*
X45313Y-37827D02*
X45313Y-37277D01*
X45313Y-37277D02*
X45163Y-37277D01*
X45163Y-37277D02*
X45163Y-37827D01*
X43663Y-39927D02*
X43663Y-40477D01*
X43663Y-40477D02*
X43813Y-40477D01*
X43813Y-40477D02*
X43813Y-39927D01*
X44163Y-39927D02*
X44163Y-40477D01*
X44163Y-40477D02*
X44313Y-40477D01*
X44313Y-40477D02*
X44313Y-39927D01*
X44663Y-39927D02*
X44663Y-40477D01*
X44663Y-40477D02*
X44813Y-40477D01*
X44813Y-40477D02*
X44813Y-39927D01*
X45163Y-40477D02*
X45313Y-40477D01*
X45163Y-39927D02*
X45163Y-40477D01*
X45313Y-40477D02*
X45313Y-39927D01*
G54D14*
X43843Y-38169D02*
G75*
G03X43843Y-38169I-44J0D01*
G74*
G01*
X45511Y-39921D02*
X45511Y-37834D01*
X45511Y-37834D02*
X43464Y-37834D01*
X43464Y-37834D02*
X43464Y-39921D01*
X43464Y-39921D02*
X45511Y-39921D01*
G54D12*
X42964Y-37406D02*
X42964Y-36806D01*
X42964Y-36806D02*
X42664Y-36806D01*
X42664Y-36806D02*
X42664Y-37406D01*
X42664Y-37406D02*
X42964Y-37406D01*
X42374Y-37406D02*
X42374Y-36806D01*
X42374Y-36806D02*
X42074Y-36806D01*
X42074Y-36806D02*
X42074Y-37406D01*
X42074Y-37406D02*
X42374Y-37406D01*
X42622Y-40401D02*
X42022Y-40401D01*
X42022Y-40401D02*
X42022Y-40701D01*
X42022Y-40701D02*
X42622Y-40701D01*
X42622Y-40701D02*
X42622Y-40401D01*
X46353Y-40701D02*
X46953Y-40701D01*
X46953Y-40701D02*
X46953Y-40401D01*
X46953Y-40401D02*
X46353Y-40401D01*
X46353Y-40401D02*
X46353Y-40701D01*
X41783Y-37406D02*
X41783Y-36806D01*
X41783Y-36806D02*
X41483Y-36806D01*
X41483Y-36806D02*
X41483Y-37406D01*
X41483Y-37406D02*
X41783Y-37406D01*
G54D16*
X44917Y-35521D02*
X44622Y-35521D01*
X44622Y-35521D02*
X44622Y-34951D01*
X44917Y-34951D02*
X44622Y-34951D01*
X44917Y-35521D02*
X44917Y-34951D01*
X44348Y-35521D02*
X44053Y-35521D01*
X44053Y-35521D02*
X44053Y-34951D01*
X44348Y-34951D02*
X44053Y-34951D01*
X44348Y-35521D02*
X44348Y-34951D01*
X44527Y-35393D02*
X44449Y-35393D01*
X44449Y-35393D02*
X44449Y-35079D01*
X44527Y-35079D02*
X44449Y-35079D01*
X44527Y-35393D02*
X44527Y-35079D01*
G54D17*
X45264Y-34849D02*
X43712Y-34849D01*
X43712Y-35623D02*
X45264Y-35623D01*
X45264Y-35623D02*
X45264Y-34849D01*
G54D18*
X44638Y-34977D02*
X44338Y-34977D01*
X44628Y-35495D02*
X44338Y-35495D01*
G54D17*
X43712Y-34849D02*
X43712Y-35623D01*
G54D12*
X44638Y-36520D02*
X44638Y-35920D01*
X44638Y-35920D02*
X44338Y-35920D01*
X44338Y-35920D02*
X44338Y-36520D01*
X44338Y-36520D02*
X44638Y-36520D01*
X46353Y-37256D02*
X46953Y-37256D01*
X46953Y-37256D02*
X46953Y-36956D01*
X46953Y-36956D02*
X46353Y-36956D01*
X46353Y-36956D02*
X46353Y-37256D01*
G54D14*
X44833Y-39076D02*
X44833Y-38682D01*
X44420Y-39039D02*
X44439Y-39057D01*
X44495Y-39076D01*
X44533Y-39076D01*
X44589Y-39057D01*
X44626Y-39020D01*
X44645Y-38982D01*
X44664Y-38907D01*
X44664Y-38851D01*
X44645Y-38776D01*
X44626Y-38739D01*
X44589Y-38701D01*
X44533Y-38682D01*
X44495Y-38682D01*
X44439Y-38701D01*
X44420Y-38720D01*
X44045Y-39076D02*
X44270Y-39076D01*
X44158Y-39076D02*
X44158Y-38682D01*
X44195Y-38739D01*
X44233Y-38776D01*
X44270Y-38795D01*
X42994Y-36115D02*
X42806Y-35984D01*
X42994Y-35890D02*
X42600Y-35890D01*
X42600Y-36040D01*
X42619Y-36077D01*
X42637Y-36096D01*
X42675Y-36115D01*
X42731Y-36115D01*
X42769Y-36096D01*
X42787Y-36077D01*
X42806Y-36040D01*
X42806Y-35890D01*
X42600Y-36471D02*
X42600Y-36284D01*
X42787Y-36265D01*
X42769Y-36284D01*
X42750Y-36321D01*
X42750Y-36415D01*
X42769Y-36452D01*
X42787Y-36471D01*
X42825Y-36490D01*
X42919Y-36490D01*
X42956Y-36471D01*
X42975Y-36452D01*
X42994Y-36415D01*
X42994Y-36321D01*
X42975Y-36284D01*
X42956Y-36265D01*
X42403Y-36115D02*
X42215Y-35984D01*
X42403Y-35890D02*
X42009Y-35890D01*
X42009Y-36040D01*
X42028Y-36077D01*
X42047Y-36096D01*
X42084Y-36115D01*
X42140Y-36115D01*
X42178Y-36096D01*
X42197Y-36077D01*
X42215Y-36040D01*
X42215Y-35890D01*
X42140Y-36452D02*
X42403Y-36452D01*
X41991Y-36359D02*
X42272Y-36265D01*
X42272Y-36509D01*
X42388Y-41301D02*
X42519Y-41113D01*
X42613Y-41301D02*
X42613Y-40907D01*
X42463Y-40907D01*
X42425Y-40926D01*
X42407Y-40944D01*
X42388Y-40982D01*
X42388Y-41038D01*
X42407Y-41076D01*
X42425Y-41094D01*
X42463Y-41113D01*
X42613Y-41113D01*
X42013Y-41301D02*
X42238Y-41301D01*
X42125Y-41301D02*
X42125Y-40907D01*
X42163Y-40963D01*
X42200Y-41001D01*
X42238Y-41019D01*
X46719Y-41301D02*
X46850Y-41113D01*
X46944Y-41301D02*
X46944Y-40907D01*
X46794Y-40907D01*
X46756Y-40926D01*
X46737Y-40944D01*
X46719Y-40982D01*
X46719Y-41038D01*
X46737Y-41076D01*
X46756Y-41094D01*
X46794Y-41113D01*
X46944Y-41113D01*
X46569Y-40944D02*
X46550Y-40926D01*
X46512Y-40907D01*
X46419Y-40907D01*
X46381Y-40926D01*
X46362Y-40944D01*
X46344Y-40982D01*
X46344Y-41019D01*
X46362Y-41076D01*
X46587Y-41301D01*
X46344Y-41301D01*
X41812Y-36115D02*
X41625Y-35984D01*
X41812Y-35890D02*
X41419Y-35890D01*
X41419Y-36040D01*
X41437Y-36077D01*
X41456Y-36096D01*
X41494Y-36115D01*
X41550Y-36115D01*
X41587Y-36096D01*
X41606Y-36077D01*
X41625Y-36040D01*
X41625Y-35890D01*
X41419Y-36246D02*
X41419Y-36490D01*
X41569Y-36359D01*
X41569Y-36415D01*
X41587Y-36452D01*
X41606Y-36471D01*
X41644Y-36490D01*
X41737Y-36490D01*
X41775Y-36471D01*
X41794Y-36452D01*
X41812Y-36415D01*
X41812Y-36302D01*
X41794Y-36265D01*
X41775Y-36246D01*
X43274Y-35358D02*
X43293Y-35376D01*
X43349Y-35395D01*
X43386Y-35395D01*
X43443Y-35376D01*
X43480Y-35339D01*
X43499Y-35301D01*
X43517Y-35226D01*
X43517Y-35170D01*
X43499Y-35095D01*
X43480Y-35058D01*
X43443Y-35020D01*
X43386Y-35001D01*
X43349Y-35001D01*
X43293Y-35020D01*
X43274Y-35039D01*
X42899Y-35395D02*
X43124Y-35395D01*
X43011Y-35395D02*
X43011Y-35001D01*
X43049Y-35058D01*
X43086Y-35095D01*
X43124Y-35114D01*
X46576Y-36391D02*
X46389Y-36259D01*
X46576Y-36166D02*
X46182Y-36166D01*
X46182Y-36316D01*
X46201Y-36353D01*
X46220Y-36372D01*
X46257Y-36391D01*
X46314Y-36391D01*
X46351Y-36372D01*
X46370Y-36353D01*
X46389Y-36316D01*
X46389Y-36166D01*
X46182Y-36728D02*
X46182Y-36653D01*
X46201Y-36616D01*
X46220Y-36597D01*
X46276Y-36559D01*
X46351Y-36541D01*
X46501Y-36541D01*
X46539Y-36559D01*
X46557Y-36578D01*
X46576Y-36616D01*
X46576Y-36691D01*
X46557Y-36728D01*
X46539Y-36747D01*
X46501Y-36766D01*
X46407Y-36766D01*
X46370Y-36747D01*
X46351Y-36728D01*
X46332Y-36691D01*
X46332Y-36616D01*
X46351Y-36578D01*
X46370Y-36559D01*
X46407Y-36541D01*
%LPC*%
G54D19*
X45988Y-34350D03*
G54D20*
X44988Y-34350D03*
X43988Y-34350D03*
X42988Y-34350D03*
G54D21*
X43738Y-37377D03*
X44238Y-37377D03*
X44738Y-37377D03*
X45238Y-37377D03*
X45238Y-40377D03*
X44738Y-40377D03*
X44238Y-40377D03*
X43738Y-40377D03*
G54D22*
X43503Y-41830D03*
X45472Y-41830D03*
X44488Y-41830D03*
X45472Y-36122D03*
X43503Y-36122D03*
G54D23*
X46692Y-38877D03*
X42283Y-38877D03*
G54D24*
X42814Y-36811D03*
X42814Y-37401D03*
X42224Y-36811D03*
X42224Y-37401D03*
X42027Y-40551D03*
X42617Y-40551D03*
X46948Y-40551D03*
X46358Y-40551D03*
X41633Y-36811D03*
X41633Y-37401D03*
G54D25*
X44862Y-35236D03*
X44114Y-35236D03*
G54D26*
X48031Y-41732D03*
X40944Y-34645D03*
X40944Y-41732D03*
X48031Y-34645D03*
G54D24*
X44488Y-35925D03*
X44488Y-36515D03*
X46948Y-37106D03*
X46358Y-37106D03*
M02*
