G04 (created by PCBNEW (2013-01-21 BZR 3918)-testing) date Tue 22 Jan 2013 11:48:31 PM CET*
%MOIN*%
G04 Gerber Fmt 3.4, Leading zero omitted, Abs format*
%FSLAX34Y34*%
G01*
G70*
G90*
G04 APERTURE LIST*
%ADD10C,3.14961e-06*%
%ADD11C,0.00984252*%
%ADD12C,0.008*%
%ADD13C,0.0001*%
%ADD14C,0.00393701*%
%ADD15C,0.0026*%
%ADD16C,0.002*%
%ADD17C,0.004*%
%ADD18C,0.0531496*%
%ADD19C,0.0688976*%
%ADD20C,0.15748*%
%ADD21O,0.15748X0.15748*%
%ADD22R,0.06X0.06*%
%ADD23C,0.06*%
%ADD24R,0.0275591X0.0866142*%
%ADD25R,0.0314X0.0314*%
%ADD26R,0.0511X0.059*%
%ADD27C,0.0984252*%
G04 APERTURE END LIST*
G54D10*
G54D11*
X39960Y-41732D02*
X39960Y-34645D01*
X48031Y-42716D02*
X40944Y-42716D01*
X49015Y-34645D02*
X49015Y-41732D01*
X40944Y-33661D02*
X48031Y-33661D01*
X39960Y-41732D02*
G75*
G03X40944Y-42716I984J0D01*
G74*
G01*
X48031Y-42716D02*
G75*
G03X49015Y-41732I0J984D01*
G74*
G01*
X49015Y-34645D02*
G75*
G03X48031Y-33661I-984J0D01*
G74*
G01*
X40944Y-33661D02*
G75*
G03X39960Y-34645I0J-984D01*
G74*
G01*
G54D12*
X48642Y-37861D02*
X48642Y-37461D01*
X48509Y-37747D01*
X48376Y-37461D01*
X48376Y-37861D01*
X48109Y-37461D02*
X48033Y-37461D01*
X47995Y-37480D01*
X47957Y-37519D01*
X47938Y-37595D01*
X47938Y-37728D01*
X47957Y-37804D01*
X47995Y-37842D01*
X48033Y-37861D01*
X48109Y-37861D01*
X48147Y-37842D01*
X48185Y-37804D01*
X48204Y-37728D01*
X48204Y-37595D01*
X48185Y-37519D01*
X48147Y-37480D01*
X48109Y-37461D01*
X48528Y-38501D02*
X48528Y-38101D01*
X48395Y-38387D01*
X48261Y-38101D01*
X48261Y-38501D01*
X48071Y-38501D02*
X48071Y-38101D01*
X48614Y-39122D02*
X48557Y-39141D01*
X48461Y-39141D01*
X48423Y-39122D01*
X48404Y-39103D01*
X48385Y-39065D01*
X48385Y-39027D01*
X48404Y-38989D01*
X48423Y-38970D01*
X48461Y-38951D01*
X48538Y-38932D01*
X48576Y-38913D01*
X48595Y-38894D01*
X48614Y-38856D01*
X48614Y-38818D01*
X48595Y-38780D01*
X48576Y-38760D01*
X48538Y-38741D01*
X48442Y-38741D01*
X48385Y-38760D01*
X47985Y-39103D02*
X48004Y-39122D01*
X48061Y-39141D01*
X48100Y-39141D01*
X48157Y-39122D01*
X48195Y-39084D01*
X48214Y-39046D01*
X48233Y-38970D01*
X48233Y-38913D01*
X48214Y-38837D01*
X48195Y-38799D01*
X48157Y-38760D01*
X48100Y-38741D01*
X48061Y-38741D01*
X48004Y-38760D01*
X47985Y-38780D01*
X48366Y-39781D02*
X48499Y-39591D01*
X48595Y-39781D02*
X48595Y-39381D01*
X48442Y-39381D01*
X48404Y-39400D01*
X48385Y-39420D01*
X48366Y-39458D01*
X48366Y-39515D01*
X48385Y-39553D01*
X48404Y-39572D01*
X48442Y-39591D01*
X48595Y-39591D01*
X48214Y-39762D02*
X48157Y-39781D01*
X48061Y-39781D01*
X48023Y-39762D01*
X48004Y-39743D01*
X47985Y-39705D01*
X47985Y-39667D01*
X48004Y-39629D01*
X48023Y-39610D01*
X48061Y-39591D01*
X48138Y-39572D01*
X48176Y-39553D01*
X48195Y-39534D01*
X48214Y-39496D01*
X48214Y-39458D01*
X48195Y-39420D01*
X48176Y-39400D01*
X48138Y-39381D01*
X48042Y-39381D01*
X47985Y-39400D01*
X48690Y-40421D02*
X48690Y-40021D01*
X48519Y-40402D02*
X48461Y-40421D01*
X48366Y-40421D01*
X48328Y-40402D01*
X48309Y-40383D01*
X48290Y-40345D01*
X48290Y-40307D01*
X48309Y-40269D01*
X48328Y-40250D01*
X48366Y-40231D01*
X48442Y-40212D01*
X48480Y-40193D01*
X48499Y-40174D01*
X48519Y-40136D01*
X48519Y-40098D01*
X48499Y-40060D01*
X48480Y-40040D01*
X48442Y-40021D01*
X48347Y-40021D01*
X48290Y-40040D01*
X48119Y-40421D02*
X48119Y-40021D01*
X47966Y-40021D01*
X47928Y-40040D01*
X47909Y-40060D01*
X47890Y-40098D01*
X47890Y-40155D01*
X47909Y-40193D01*
X47928Y-40212D01*
X47966Y-40231D01*
X48119Y-40231D01*
G54D13*
G36*
X47633Y-36908D02*
X47640Y-36904D01*
X47655Y-36895D01*
X47677Y-36880D01*
X47703Y-36863D01*
X47729Y-36845D01*
X47751Y-36831D01*
X47766Y-36821D01*
X47772Y-36818D01*
X47775Y-36819D01*
X47788Y-36825D01*
X47805Y-36834D01*
X47816Y-36840D01*
X47832Y-36847D01*
X47841Y-36848D01*
X47842Y-36846D01*
X47848Y-36834D01*
X47857Y-36812D01*
X47870Y-36784D01*
X47884Y-36750D01*
X47899Y-36714D01*
X47915Y-36678D01*
X47929Y-36643D01*
X47942Y-36611D01*
X47952Y-36585D01*
X47959Y-36568D01*
X47962Y-36560D01*
X47961Y-36558D01*
X47953Y-36550D01*
X47938Y-36540D01*
X47907Y-36514D01*
X47876Y-36476D01*
X47858Y-36433D01*
X47851Y-36384D01*
X47857Y-36339D01*
X47874Y-36297D01*
X47904Y-36258D01*
X47941Y-36229D01*
X47983Y-36211D01*
X48031Y-36205D01*
X48076Y-36210D01*
X48120Y-36228D01*
X48159Y-36257D01*
X48176Y-36276D01*
X48198Y-36315D01*
X48211Y-36357D01*
X48212Y-36368D01*
X48210Y-36414D01*
X48197Y-36458D01*
X48172Y-36497D01*
X48139Y-36530D01*
X48134Y-36533D01*
X48119Y-36545D01*
X48108Y-36553D01*
X48100Y-36559D01*
X48159Y-36701D01*
X48168Y-36723D01*
X48184Y-36762D01*
X48198Y-36795D01*
X48210Y-36822D01*
X48218Y-36840D01*
X48221Y-36847D01*
X48221Y-36847D01*
X48227Y-36848D01*
X48237Y-36844D01*
X48257Y-36835D01*
X48270Y-36828D01*
X48285Y-36821D01*
X48292Y-36818D01*
X48298Y-36821D01*
X48312Y-36830D01*
X48333Y-36844D01*
X48359Y-36862D01*
X48383Y-36878D01*
X48405Y-36893D01*
X48421Y-36903D01*
X48429Y-36907D01*
X48430Y-36907D01*
X48437Y-36903D01*
X48450Y-36893D01*
X48469Y-36875D01*
X48496Y-36848D01*
X48500Y-36843D01*
X48523Y-36821D01*
X48541Y-36802D01*
X48553Y-36788D01*
X48558Y-36782D01*
X48558Y-36782D01*
X48554Y-36774D01*
X48543Y-36758D01*
X48529Y-36735D01*
X48511Y-36709D01*
X48464Y-36641D01*
X48490Y-36577D01*
X48498Y-36557D01*
X48508Y-36533D01*
X48515Y-36516D01*
X48519Y-36509D01*
X48526Y-36506D01*
X48543Y-36502D01*
X48569Y-36497D01*
X48599Y-36491D01*
X48628Y-36486D01*
X48654Y-36481D01*
X48673Y-36477D01*
X48682Y-36476D01*
X48684Y-36474D01*
X48686Y-36470D01*
X48687Y-36461D01*
X48687Y-36445D01*
X48688Y-36420D01*
X48688Y-36384D01*
X48688Y-36380D01*
X48687Y-36346D01*
X48687Y-36318D01*
X48686Y-36301D01*
X48685Y-36294D01*
X48685Y-36294D01*
X48676Y-36292D01*
X48658Y-36288D01*
X48632Y-36283D01*
X48601Y-36277D01*
X48599Y-36276D01*
X48568Y-36270D01*
X48541Y-36265D01*
X48523Y-36261D01*
X48516Y-36258D01*
X48514Y-36256D01*
X48508Y-36244D01*
X48499Y-36225D01*
X48488Y-36201D01*
X48478Y-36177D01*
X48470Y-36155D01*
X48464Y-36138D01*
X48462Y-36131D01*
X48462Y-36131D01*
X48467Y-36123D01*
X48477Y-36107D01*
X48492Y-36085D01*
X48511Y-36058D01*
X48512Y-36056D01*
X48530Y-36030D01*
X48544Y-36008D01*
X48554Y-35992D01*
X48558Y-35985D01*
X48557Y-35984D01*
X48552Y-35977D01*
X48538Y-35962D01*
X48519Y-35942D01*
X48496Y-35918D01*
X48489Y-35911D01*
X48463Y-35886D01*
X48445Y-35870D01*
X48434Y-35861D01*
X48429Y-35859D01*
X48429Y-35859D01*
X48421Y-35864D01*
X48404Y-35875D01*
X48382Y-35890D01*
X48355Y-35908D01*
X48353Y-35910D01*
X48327Y-35928D01*
X48305Y-35942D01*
X48290Y-35953D01*
X48283Y-35957D01*
X48282Y-35957D01*
X48271Y-35954D01*
X48252Y-35947D01*
X48229Y-35938D01*
X48205Y-35928D01*
X48183Y-35919D01*
X48166Y-35912D01*
X48159Y-35907D01*
X48158Y-35907D01*
X48156Y-35897D01*
X48151Y-35878D01*
X48145Y-35851D01*
X48139Y-35818D01*
X48138Y-35813D01*
X48132Y-35782D01*
X48127Y-35756D01*
X48124Y-35738D01*
X48122Y-35731D01*
X48117Y-35730D01*
X48102Y-35729D01*
X48079Y-35728D01*
X48051Y-35728D01*
X48021Y-35728D01*
X47992Y-35729D01*
X47968Y-35729D01*
X47950Y-35731D01*
X47942Y-35732D01*
X47942Y-35733D01*
X47939Y-35742D01*
X47935Y-35762D01*
X47930Y-35789D01*
X47923Y-35821D01*
X47922Y-35827D01*
X47916Y-35858D01*
X47911Y-35884D01*
X47907Y-35902D01*
X47905Y-35909D01*
X47903Y-35910D01*
X47890Y-35916D01*
X47869Y-35924D01*
X47843Y-35935D01*
X47783Y-35959D01*
X47709Y-35909D01*
X47702Y-35904D01*
X47676Y-35886D01*
X47654Y-35871D01*
X47639Y-35862D01*
X47632Y-35858D01*
X47632Y-35858D01*
X47624Y-35865D01*
X47610Y-35878D01*
X47590Y-35898D01*
X47567Y-35921D01*
X47549Y-35938D01*
X47529Y-35959D01*
X47516Y-35973D01*
X47509Y-35982D01*
X47507Y-35987D01*
X47507Y-35991D01*
X47512Y-35998D01*
X47523Y-36015D01*
X47538Y-36037D01*
X47556Y-36063D01*
X47571Y-36085D01*
X47587Y-36110D01*
X47597Y-36127D01*
X47601Y-36136D01*
X47600Y-36140D01*
X47595Y-36154D01*
X47586Y-36176D01*
X47575Y-36202D01*
X47549Y-36260D01*
X47511Y-36268D01*
X47488Y-36272D01*
X47455Y-36278D01*
X47424Y-36284D01*
X47376Y-36294D01*
X47374Y-36471D01*
X47382Y-36474D01*
X47389Y-36476D01*
X47407Y-36480D01*
X47432Y-36485D01*
X47463Y-36491D01*
X47488Y-36496D01*
X47514Y-36501D01*
X47533Y-36504D01*
X47541Y-36506D01*
X47543Y-36509D01*
X47550Y-36521D01*
X47559Y-36541D01*
X47569Y-36565D01*
X47580Y-36590D01*
X47589Y-36613D01*
X47595Y-36631D01*
X47598Y-36640D01*
X47594Y-36647D01*
X47584Y-36662D01*
X47570Y-36684D01*
X47552Y-36710D01*
X47535Y-36735D01*
X47520Y-36758D01*
X47510Y-36773D01*
X47505Y-36781D01*
X47507Y-36786D01*
X47518Y-36798D01*
X47537Y-36818D01*
X47566Y-36847D01*
X47571Y-36851D01*
X47594Y-36874D01*
X47613Y-36892D01*
X47627Y-36904D01*
X47633Y-36908D01*
X47633Y-36908D01*
G37*
G54D11*
X43307Y-41043D02*
X45669Y-41043D01*
X45669Y-41043D02*
X45669Y-36712D01*
X45669Y-36712D02*
X43307Y-36712D01*
X43307Y-36712D02*
X43307Y-41043D01*
G54D14*
X43813Y-37827D02*
X43813Y-37277D01*
X43813Y-37277D02*
X43663Y-37277D01*
X43663Y-37277D02*
X43663Y-37827D01*
X44313Y-37827D02*
X44313Y-37277D01*
X44313Y-37277D02*
X44163Y-37277D01*
X44163Y-37277D02*
X44163Y-37827D01*
X44813Y-37827D02*
X44813Y-37277D01*
X44813Y-37277D02*
X44663Y-37277D01*
X44663Y-37277D02*
X44663Y-37827D01*
X45313Y-37827D02*
X45313Y-37277D01*
X45313Y-37277D02*
X45163Y-37277D01*
X45163Y-37277D02*
X45163Y-37827D01*
X43663Y-39927D02*
X43663Y-40477D01*
X43663Y-40477D02*
X43813Y-40477D01*
X43813Y-40477D02*
X43813Y-39927D01*
X44163Y-39927D02*
X44163Y-40477D01*
X44163Y-40477D02*
X44313Y-40477D01*
X44313Y-40477D02*
X44313Y-39927D01*
X44663Y-39927D02*
X44663Y-40477D01*
X44663Y-40477D02*
X44813Y-40477D01*
X44813Y-40477D02*
X44813Y-39927D01*
X45163Y-40477D02*
X45313Y-40477D01*
X45163Y-39927D02*
X45163Y-40477D01*
X45313Y-40477D02*
X45313Y-39927D01*
G54D11*
X43843Y-38169D02*
G75*
G03X43843Y-38169I-44J0D01*
G74*
G01*
X45511Y-39921D02*
X45511Y-37834D01*
X45511Y-37834D02*
X43464Y-37834D01*
X43464Y-37834D02*
X43464Y-39921D01*
X43464Y-39921D02*
X45511Y-39921D01*
G54D12*
X42964Y-37406D02*
X42964Y-36806D01*
X42964Y-36806D02*
X42664Y-36806D01*
X42664Y-36806D02*
X42664Y-37406D01*
X42664Y-37406D02*
X42964Y-37406D01*
X47000Y-37406D02*
X47000Y-36806D01*
X47000Y-36806D02*
X46700Y-36806D01*
X46700Y-36806D02*
X46700Y-37406D01*
X46700Y-37406D02*
X47000Y-37406D01*
X42622Y-40401D02*
X42022Y-40401D01*
X42022Y-40401D02*
X42022Y-40701D01*
X42022Y-40701D02*
X42622Y-40701D01*
X42622Y-40701D02*
X42622Y-40401D01*
X46353Y-40701D02*
X46953Y-40701D01*
X46953Y-40701D02*
X46953Y-40401D01*
X46953Y-40401D02*
X46353Y-40401D01*
X46353Y-40401D02*
X46353Y-40701D01*
X41975Y-36806D02*
X41975Y-37406D01*
X41975Y-37406D02*
X42275Y-37406D01*
X42275Y-37406D02*
X42275Y-36806D01*
X42275Y-36806D02*
X41975Y-36806D01*
G54D15*
X44917Y-35521D02*
X44622Y-35521D01*
X44622Y-35521D02*
X44622Y-34951D01*
X44917Y-34951D02*
X44622Y-34951D01*
X44917Y-35521D02*
X44917Y-34951D01*
X44348Y-35521D02*
X44053Y-35521D01*
X44053Y-35521D02*
X44053Y-34951D01*
X44348Y-34951D02*
X44053Y-34951D01*
X44348Y-35521D02*
X44348Y-34951D01*
X44527Y-35393D02*
X44449Y-35393D01*
X44449Y-35393D02*
X44449Y-35079D01*
X44527Y-35079D02*
X44449Y-35079D01*
X44527Y-35393D02*
X44527Y-35079D01*
G54D16*
X45264Y-34849D02*
X43712Y-34849D01*
X43712Y-35623D02*
X45264Y-35623D01*
X45264Y-35623D02*
X45264Y-34849D01*
G54D17*
X44638Y-34977D02*
X44338Y-34977D01*
X44628Y-35495D02*
X44338Y-35495D01*
G54D16*
X43712Y-34849D02*
X43712Y-35623D01*
G54D12*
X44638Y-36520D02*
X44638Y-35920D01*
X44638Y-35920D02*
X44338Y-35920D01*
X44338Y-35920D02*
X44338Y-36520D01*
X44338Y-36520D02*
X44638Y-36520D01*
X46311Y-37406D02*
X46311Y-36806D01*
X46311Y-36806D02*
X46011Y-36806D01*
X46011Y-36806D02*
X46011Y-37406D01*
X46011Y-37406D02*
X46311Y-37406D01*
G54D11*
X44833Y-39076D02*
X44833Y-38682D01*
X44420Y-39039D02*
X44439Y-39057D01*
X44495Y-39076D01*
X44533Y-39076D01*
X44589Y-39057D01*
X44626Y-39020D01*
X44645Y-38982D01*
X44664Y-38907D01*
X44664Y-38851D01*
X44645Y-38776D01*
X44626Y-38739D01*
X44589Y-38701D01*
X44533Y-38682D01*
X44495Y-38682D01*
X44439Y-38701D01*
X44420Y-38720D01*
X44045Y-39076D02*
X44270Y-39076D01*
X44158Y-39076D02*
X44158Y-38682D01*
X44195Y-38739D01*
X44233Y-38776D01*
X44270Y-38795D01*
X42994Y-36076D02*
X42806Y-35944D01*
X42994Y-35851D02*
X42600Y-35851D01*
X42600Y-36001D01*
X42619Y-36038D01*
X42637Y-36057D01*
X42675Y-36076D01*
X42731Y-36076D01*
X42769Y-36057D01*
X42787Y-36038D01*
X42806Y-36001D01*
X42806Y-35851D01*
X42600Y-36432D02*
X42600Y-36244D01*
X42787Y-36226D01*
X42769Y-36244D01*
X42750Y-36282D01*
X42750Y-36376D01*
X42769Y-36413D01*
X42787Y-36432D01*
X42825Y-36451D01*
X42919Y-36451D01*
X42956Y-36432D01*
X42975Y-36413D01*
X42994Y-36376D01*
X42994Y-36282D01*
X42975Y-36244D01*
X42956Y-36226D01*
X47009Y-36076D02*
X46822Y-35944D01*
X47009Y-35851D02*
X46616Y-35851D01*
X46616Y-36001D01*
X46634Y-36038D01*
X46653Y-36057D01*
X46691Y-36076D01*
X46747Y-36076D01*
X46784Y-36057D01*
X46803Y-36038D01*
X46822Y-36001D01*
X46822Y-35851D01*
X46747Y-36413D02*
X47009Y-36413D01*
X46597Y-36319D02*
X46878Y-36226D01*
X46878Y-36469D01*
X42482Y-41174D02*
X42294Y-41043D01*
X42482Y-40949D02*
X42088Y-40949D01*
X42088Y-41099D01*
X42107Y-41137D01*
X42125Y-41155D01*
X42163Y-41174D01*
X42219Y-41174D01*
X42257Y-41155D01*
X42275Y-41137D01*
X42294Y-41099D01*
X42294Y-40949D01*
X42482Y-41549D02*
X42482Y-41324D01*
X42482Y-41437D02*
X42088Y-41437D01*
X42144Y-41399D01*
X42182Y-41362D01*
X42200Y-41324D01*
X46812Y-41174D02*
X46625Y-41043D01*
X46812Y-40949D02*
X46419Y-40949D01*
X46419Y-41099D01*
X46437Y-41137D01*
X46456Y-41155D01*
X46494Y-41174D01*
X46550Y-41174D01*
X46587Y-41155D01*
X46606Y-41137D01*
X46625Y-41099D01*
X46625Y-40949D01*
X46456Y-41324D02*
X46437Y-41343D01*
X46419Y-41380D01*
X46419Y-41474D01*
X46437Y-41511D01*
X46456Y-41530D01*
X46494Y-41549D01*
X46531Y-41549D01*
X46587Y-41530D01*
X46812Y-41305D01*
X46812Y-41549D01*
X42285Y-36076D02*
X42097Y-35944D01*
X42285Y-35851D02*
X41891Y-35851D01*
X41891Y-36001D01*
X41910Y-36038D01*
X41929Y-36057D01*
X41966Y-36076D01*
X42022Y-36076D01*
X42060Y-36057D01*
X42079Y-36038D01*
X42097Y-36001D01*
X42097Y-35851D01*
X41891Y-36207D02*
X41891Y-36451D01*
X42041Y-36319D01*
X42041Y-36376D01*
X42060Y-36413D01*
X42079Y-36432D01*
X42116Y-36451D01*
X42210Y-36451D01*
X42247Y-36432D01*
X42266Y-36413D01*
X42285Y-36376D01*
X42285Y-36263D01*
X42266Y-36226D01*
X42247Y-36207D01*
X43527Y-35170D02*
X43546Y-35151D01*
X43564Y-35095D01*
X43564Y-35058D01*
X43546Y-35001D01*
X43508Y-34964D01*
X43471Y-34945D01*
X43396Y-34926D01*
X43339Y-34926D01*
X43264Y-34945D01*
X43227Y-34964D01*
X43189Y-35001D01*
X43171Y-35058D01*
X43171Y-35095D01*
X43189Y-35151D01*
X43208Y-35170D01*
X43564Y-35545D02*
X43564Y-35320D01*
X43564Y-35433D02*
X43171Y-35433D01*
X43227Y-35395D01*
X43264Y-35358D01*
X43283Y-35320D01*
X46301Y-36076D02*
X46113Y-35944D01*
X46301Y-35851D02*
X45907Y-35851D01*
X45907Y-36001D01*
X45926Y-36038D01*
X45944Y-36057D01*
X45982Y-36076D01*
X46038Y-36076D01*
X46076Y-36057D01*
X46094Y-36038D01*
X46113Y-36001D01*
X46113Y-35851D01*
X45907Y-36413D02*
X45907Y-36338D01*
X45926Y-36301D01*
X45944Y-36282D01*
X46001Y-36244D01*
X46076Y-36226D01*
X46226Y-36226D01*
X46263Y-36244D01*
X46282Y-36263D01*
X46301Y-36301D01*
X46301Y-36376D01*
X46282Y-36413D01*
X46263Y-36432D01*
X46226Y-36451D01*
X46132Y-36451D01*
X46094Y-36432D01*
X46076Y-36413D01*
X46057Y-36376D01*
X46057Y-36301D01*
X46076Y-36263D01*
X46094Y-36244D01*
X46132Y-36226D01*
%LPC*%
G54D18*
X40551Y-36122D03*
X41338Y-36122D03*
X40551Y-36909D03*
X41338Y-36909D03*
X40551Y-37696D03*
X41338Y-37696D03*
G54D19*
X43503Y-41830D03*
X45472Y-41830D03*
X44488Y-41830D03*
X45472Y-36122D03*
X43503Y-36122D03*
G54D20*
X46929Y-38877D03*
G54D21*
X42047Y-38877D03*
G54D22*
X45988Y-34350D03*
G54D23*
X44988Y-34350D03*
X43988Y-34350D03*
X42988Y-34350D03*
G54D24*
X43738Y-37377D03*
X44238Y-37377D03*
X44738Y-37377D03*
X45238Y-37377D03*
X45238Y-40377D03*
X44738Y-40377D03*
X44238Y-40377D03*
X43738Y-40377D03*
G54D25*
X42814Y-36811D03*
X42814Y-37401D03*
X46850Y-36811D03*
X46850Y-37401D03*
X42027Y-40551D03*
X42617Y-40551D03*
X46948Y-40551D03*
X46358Y-40551D03*
X42125Y-37401D03*
X42125Y-36811D03*
G54D26*
X44862Y-35236D03*
X44114Y-35236D03*
G54D27*
X48031Y-41732D03*
X40944Y-34645D03*
X40944Y-41732D03*
X48031Y-34645D03*
G54D25*
X44488Y-35925D03*
X44488Y-36515D03*
X46161Y-36811D03*
X46161Y-37401D03*
M02*
