G04 (created by PCBNEW (2013-02-28 BZR 3978)-testing) date Fri 01 Mar 2013 12:32:55 PM CET*
%MOIN*%
G04 Gerber Fmt 3.4, Leading zero omitted, Abs format*
%FSLAX34Y34*%
G01*
G70*
G90*
G04 APERTURE LIST*
%ADD10C,3.14961e-06*%
%ADD11C,0.00787402*%
%ADD12R,0.0511811X0.0511811*%
%ADD13C,0.0511811*%
%ADD14R,0.0649606X0.0649606*%
%ADD15C,0.0649606*%
%ADD16R,0.0275591X0.0866142*%
%ADD17R,0.059X0.0511*%
%ADD18C,0.0984252*%
%ADD19R,0.0393701X0.0255906*%
%ADD20R,0.0393701X0.019685*%
%ADD21C,0.0688976*%
%ADD22O,0.15748X0.15748*%
G04 APERTURE END LIST*
G54D10*
G54D11*
X48129Y-33562D02*
X40846Y-33562D01*
X49114Y-41830D02*
X49114Y-34547D01*
X40846Y-42814D02*
X48129Y-42814D01*
X39862Y-34547D02*
X39862Y-41830D01*
X39862Y-41830D02*
G75*
G03X40846Y-42814I984J0D01*
G74*
G01*
X48129Y-42814D02*
G75*
G03X49114Y-41830I0J984D01*
G74*
G01*
X49114Y-34547D02*
G75*
G03X48129Y-33562I-984J0D01*
G74*
G01*
X40846Y-33562D02*
G75*
G03X39862Y-34547I0J-984D01*
G74*
G01*
G54D12*
X41200Y-36220D03*
G54D13*
X40374Y-36220D03*
X41161Y-37007D03*
X40413Y-37007D03*
X41200Y-37795D03*
X40374Y-37795D03*
G54D14*
X45988Y-34251D03*
G54D15*
X44988Y-34251D03*
X43988Y-34251D03*
X42988Y-34251D03*
G54D16*
X43738Y-37476D03*
X44238Y-37476D03*
X44738Y-37476D03*
X45238Y-37476D03*
X45238Y-40476D03*
X44738Y-40476D03*
X44238Y-40476D03*
X43738Y-40476D03*
G54D17*
X48149Y-37578D03*
X48149Y-36830D03*
G54D18*
X48031Y-34645D03*
X40944Y-41732D03*
X40944Y-34645D03*
X48031Y-41732D03*
G54D17*
X42322Y-41200D03*
X42322Y-40452D03*
G54D19*
X47027Y-37647D03*
G54D20*
X47027Y-37283D03*
X47027Y-36968D03*
G54D19*
X47027Y-36604D03*
X46318Y-37647D03*
G54D20*
X46318Y-37283D03*
X46318Y-36968D03*
G54D19*
X46318Y-36604D03*
X42086Y-36604D03*
G54D20*
X42086Y-36968D03*
X42086Y-37283D03*
G54D19*
X42086Y-37647D03*
X42795Y-36604D03*
G54D20*
X42795Y-36968D03*
X42795Y-37283D03*
G54D19*
X42795Y-37647D03*
G54D21*
X43503Y-41929D03*
X45472Y-41929D03*
X44488Y-41929D03*
X45472Y-36220D03*
X43503Y-36220D03*
G54D22*
X46929Y-38976D03*
X42047Y-38976D03*
M02*
