G04 (created by PCBNEW (2013-01-21 BZR 3918)-testing) date Tue 22 Jan 2013 11:48:31 PM CET*
%MOIN*%
G04 Gerber Fmt 3.4, Leading zero omitted, Abs format*
%FSLAX34Y34*%
G01*
G70*
G90*
G04 APERTURE LIST*
%ADD10C,3.14961e-06*%
%ADD11C,0.00984252*%
%ADD12C,0.0531496*%
%ADD13C,0.0688976*%
%ADD14C,0.15748*%
%ADD15O,0.15748X0.15748*%
%ADD16R,0.06X0.06*%
%ADD17C,0.06*%
%ADD18R,0.0275591X0.0866142*%
%ADD19R,0.0314X0.0314*%
%ADD20R,0.0511X0.059*%
%ADD21C,0.0984252*%
G04 APERTURE END LIST*
G54D10*
G54D11*
X39960Y-41732D02*
X39960Y-34645D01*
X48031Y-42716D02*
X40944Y-42716D01*
X49015Y-34645D02*
X49015Y-41732D01*
X40944Y-33661D02*
X48031Y-33661D01*
X39960Y-41732D02*
G75*
G03X40944Y-42716I984J0D01*
G74*
G01*
X48031Y-42716D02*
G75*
G03X49015Y-41732I0J984D01*
G74*
G01*
X49015Y-34645D02*
G75*
G03X48031Y-33661I-984J0D01*
G74*
G01*
X40944Y-33661D02*
G75*
G03X39960Y-34645I0J-984D01*
G74*
G01*
G54D12*
X40551Y-36122D03*
X41338Y-36122D03*
X40551Y-36909D03*
X41338Y-36909D03*
X40551Y-37696D03*
X41338Y-37696D03*
G54D13*
X43503Y-41830D03*
X45472Y-41830D03*
X44488Y-41830D03*
X45472Y-36122D03*
X43503Y-36122D03*
G54D14*
X46929Y-38877D03*
G54D15*
X42047Y-38877D03*
G54D16*
X45988Y-34350D03*
G54D17*
X44988Y-34350D03*
X43988Y-34350D03*
X42988Y-34350D03*
G54D18*
X43738Y-37377D03*
X44238Y-37377D03*
X44738Y-37377D03*
X45238Y-37377D03*
X45238Y-40377D03*
X44738Y-40377D03*
X44238Y-40377D03*
X43738Y-40377D03*
G54D19*
X42814Y-36811D03*
X42814Y-37401D03*
X46850Y-36811D03*
X46850Y-37401D03*
X42027Y-40551D03*
X42617Y-40551D03*
X46948Y-40551D03*
X46358Y-40551D03*
X42125Y-37401D03*
X42125Y-36811D03*
G54D20*
X44862Y-35236D03*
X44114Y-35236D03*
G54D21*
X48031Y-41732D03*
X40944Y-34645D03*
X40944Y-41732D03*
X48031Y-34645D03*
G54D19*
X44488Y-35925D03*
X44488Y-36515D03*
X46161Y-36811D03*
X46161Y-37401D03*
M02*
