G04 (created by PCBNEW (2013-02-04 BZR 3930)-testing) date Tue 05 Feb 2013 12:34:07 PM CET*
%MOIN*%
G04 Gerber Fmt 3.4, Leading zero omitted, Abs format*
%FSLAX34Y34*%
G01*
G70*
G90*
G04 APERTURE LIST*
%ADD10C,3.14961e-06*%
%ADD11C,0.00787402*%
%ADD12C,0.00393701*%
%ADD13C,0.0001*%
%ADD14C,0.0026*%
%ADD15C,0.002*%
%ADD16C,0.004*%
%ADD17R,0.0275591X0.0866142*%
%ADD18C,0.0688976*%
%ADD19C,0.15748*%
%ADD20O,0.15748X0.15748*%
%ADD21R,0.06X0.06*%
%ADD22C,0.06*%
%ADD23R,0.0531496X0.0531496*%
%ADD24C,0.0531496*%
%ADD25R,0.0511X0.059*%
%ADD26C,0.0984252*%
%ADD27R,0.0314X0.0314*%
G04 APERTURE END LIST*
G54D10*
G54D11*
X48129Y-33562D02*
X40846Y-33562D01*
X49114Y-41830D02*
X49114Y-34547D01*
X40846Y-42814D02*
X48129Y-42814D01*
X39862Y-34547D02*
X39862Y-41830D01*
X39862Y-41830D02*
G75*
G03X40846Y-42814I984J0D01*
G74*
G01*
X48129Y-42814D02*
G75*
G03X49114Y-41830I0J984D01*
G74*
G01*
X49114Y-34547D02*
G75*
G03X48129Y-33562I-984J0D01*
G74*
G01*
X40846Y-33562D02*
G75*
G03X39862Y-34547I0J-984D01*
G74*
G01*
X44055Y-38385D02*
G75*
G03X44055Y-38385I-137J0D01*
G74*
G01*
X43307Y-41141D02*
X45669Y-41141D01*
X45669Y-41141D02*
X45669Y-36811D01*
X45669Y-36811D02*
X43307Y-36811D01*
X43307Y-36811D02*
X43307Y-41141D01*
G54D12*
X43813Y-37926D02*
X43813Y-37376D01*
X43813Y-37376D02*
X43663Y-37376D01*
X43663Y-37376D02*
X43663Y-37926D01*
X44313Y-37926D02*
X44313Y-37376D01*
X44313Y-37376D02*
X44163Y-37376D01*
X44163Y-37376D02*
X44163Y-37926D01*
X44813Y-37926D02*
X44813Y-37376D01*
X44813Y-37376D02*
X44663Y-37376D01*
X44663Y-37376D02*
X44663Y-37926D01*
X45313Y-37926D02*
X45313Y-37376D01*
X45313Y-37376D02*
X45163Y-37376D01*
X45163Y-37376D02*
X45163Y-37926D01*
X43663Y-40026D02*
X43663Y-40576D01*
X43663Y-40576D02*
X43813Y-40576D01*
X43813Y-40576D02*
X43813Y-40026D01*
X44163Y-40026D02*
X44163Y-40576D01*
X44163Y-40576D02*
X44313Y-40576D01*
X44313Y-40576D02*
X44313Y-40026D01*
X44663Y-40026D02*
X44663Y-40576D01*
X44663Y-40576D02*
X44813Y-40576D01*
X44813Y-40576D02*
X44813Y-40026D01*
X45163Y-40576D02*
X45313Y-40576D01*
X45163Y-40026D02*
X45163Y-40576D01*
X45313Y-40576D02*
X45313Y-40026D01*
G54D11*
X45511Y-40019D02*
X45511Y-37933D01*
X45511Y-37933D02*
X43464Y-37933D01*
X43464Y-37933D02*
X43464Y-40019D01*
X43464Y-40019D02*
X45511Y-40019D01*
G54D13*
G36*
X47633Y-37007D02*
X47640Y-37003D01*
X47655Y-36994D01*
X47677Y-36979D01*
X47703Y-36962D01*
X47729Y-36944D01*
X47751Y-36930D01*
X47766Y-36920D01*
X47772Y-36917D01*
X47775Y-36918D01*
X47788Y-36924D01*
X47805Y-36933D01*
X47816Y-36939D01*
X47832Y-36946D01*
X47841Y-36947D01*
X47842Y-36945D01*
X47848Y-36933D01*
X47857Y-36911D01*
X47870Y-36883D01*
X47884Y-36849D01*
X47899Y-36813D01*
X47915Y-36777D01*
X47929Y-36742D01*
X47942Y-36710D01*
X47952Y-36684D01*
X47959Y-36667D01*
X47962Y-36659D01*
X47961Y-36657D01*
X47953Y-36649D01*
X47938Y-36639D01*
X47907Y-36613D01*
X47876Y-36575D01*
X47858Y-36532D01*
X47851Y-36483D01*
X47857Y-36438D01*
X47874Y-36396D01*
X47904Y-36357D01*
X47941Y-36328D01*
X47983Y-36310D01*
X48031Y-36304D01*
X48076Y-36309D01*
X48120Y-36327D01*
X48159Y-36356D01*
X48176Y-36375D01*
X48198Y-36414D01*
X48211Y-36456D01*
X48212Y-36467D01*
X48210Y-36513D01*
X48197Y-36557D01*
X48172Y-36596D01*
X48139Y-36629D01*
X48134Y-36632D01*
X48119Y-36644D01*
X48108Y-36652D01*
X48100Y-36658D01*
X48159Y-36800D01*
X48168Y-36822D01*
X48184Y-36861D01*
X48198Y-36894D01*
X48210Y-36921D01*
X48218Y-36939D01*
X48221Y-36946D01*
X48221Y-36946D01*
X48227Y-36947D01*
X48237Y-36943D01*
X48257Y-36934D01*
X48270Y-36927D01*
X48285Y-36920D01*
X48292Y-36917D01*
X48298Y-36920D01*
X48312Y-36929D01*
X48333Y-36943D01*
X48359Y-36961D01*
X48383Y-36977D01*
X48405Y-36992D01*
X48421Y-37002D01*
X48429Y-37006D01*
X48430Y-37006D01*
X48437Y-37002D01*
X48450Y-36992D01*
X48469Y-36974D01*
X48496Y-36947D01*
X48500Y-36942D01*
X48523Y-36920D01*
X48541Y-36901D01*
X48553Y-36887D01*
X48558Y-36881D01*
X48558Y-36881D01*
X48554Y-36873D01*
X48543Y-36857D01*
X48529Y-36834D01*
X48511Y-36808D01*
X48464Y-36740D01*
X48490Y-36676D01*
X48498Y-36656D01*
X48508Y-36632D01*
X48515Y-36615D01*
X48519Y-36608D01*
X48526Y-36605D01*
X48543Y-36601D01*
X48569Y-36596D01*
X48599Y-36590D01*
X48628Y-36585D01*
X48654Y-36580D01*
X48673Y-36576D01*
X48682Y-36575D01*
X48684Y-36573D01*
X48686Y-36569D01*
X48687Y-36560D01*
X48687Y-36544D01*
X48688Y-36519D01*
X48688Y-36483D01*
X48688Y-36479D01*
X48687Y-36445D01*
X48687Y-36417D01*
X48686Y-36400D01*
X48685Y-36393D01*
X48685Y-36393D01*
X48676Y-36391D01*
X48658Y-36387D01*
X48632Y-36382D01*
X48601Y-36376D01*
X48599Y-36375D01*
X48568Y-36369D01*
X48541Y-36364D01*
X48523Y-36360D01*
X48516Y-36357D01*
X48514Y-36355D01*
X48508Y-36343D01*
X48499Y-36324D01*
X48488Y-36300D01*
X48478Y-36276D01*
X48470Y-36254D01*
X48464Y-36237D01*
X48462Y-36230D01*
X48462Y-36230D01*
X48467Y-36222D01*
X48477Y-36206D01*
X48492Y-36184D01*
X48511Y-36157D01*
X48512Y-36155D01*
X48530Y-36129D01*
X48544Y-36107D01*
X48554Y-36091D01*
X48558Y-36084D01*
X48557Y-36083D01*
X48552Y-36076D01*
X48538Y-36061D01*
X48519Y-36041D01*
X48496Y-36017D01*
X48489Y-36010D01*
X48463Y-35985D01*
X48445Y-35969D01*
X48434Y-35960D01*
X48429Y-35958D01*
X48429Y-35958D01*
X48421Y-35963D01*
X48404Y-35974D01*
X48382Y-35989D01*
X48355Y-36007D01*
X48353Y-36009D01*
X48327Y-36027D01*
X48305Y-36041D01*
X48290Y-36052D01*
X48283Y-36056D01*
X48282Y-36056D01*
X48271Y-36053D01*
X48252Y-36046D01*
X48229Y-36037D01*
X48205Y-36027D01*
X48183Y-36018D01*
X48166Y-36011D01*
X48159Y-36006D01*
X48158Y-36006D01*
X48156Y-35996D01*
X48151Y-35977D01*
X48145Y-35950D01*
X48139Y-35917D01*
X48138Y-35912D01*
X48132Y-35881D01*
X48127Y-35855D01*
X48124Y-35837D01*
X48122Y-35830D01*
X48117Y-35829D01*
X48102Y-35828D01*
X48079Y-35827D01*
X48051Y-35827D01*
X48021Y-35827D01*
X47992Y-35828D01*
X47968Y-35828D01*
X47950Y-35830D01*
X47942Y-35831D01*
X47942Y-35832D01*
X47939Y-35841D01*
X47935Y-35861D01*
X47930Y-35888D01*
X47923Y-35920D01*
X47922Y-35926D01*
X47916Y-35957D01*
X47911Y-35983D01*
X47907Y-36001D01*
X47905Y-36008D01*
X47903Y-36009D01*
X47890Y-36015D01*
X47869Y-36023D01*
X47843Y-36034D01*
X47783Y-36058D01*
X47709Y-36008D01*
X47702Y-36003D01*
X47676Y-35985D01*
X47654Y-35970D01*
X47639Y-35961D01*
X47632Y-35957D01*
X47632Y-35957D01*
X47624Y-35964D01*
X47610Y-35977D01*
X47590Y-35997D01*
X47567Y-36020D01*
X47549Y-36037D01*
X47529Y-36058D01*
X47516Y-36072D01*
X47509Y-36081D01*
X47507Y-36086D01*
X47507Y-36090D01*
X47512Y-36097D01*
X47523Y-36114D01*
X47538Y-36136D01*
X47556Y-36162D01*
X47571Y-36184D01*
X47587Y-36209D01*
X47597Y-36226D01*
X47601Y-36235D01*
X47600Y-36239D01*
X47595Y-36253D01*
X47586Y-36275D01*
X47575Y-36301D01*
X47549Y-36359D01*
X47511Y-36367D01*
X47488Y-36371D01*
X47455Y-36377D01*
X47424Y-36383D01*
X47376Y-36393D01*
X47374Y-36570D01*
X47382Y-36573D01*
X47389Y-36575D01*
X47407Y-36579D01*
X47432Y-36584D01*
X47463Y-36590D01*
X47488Y-36595D01*
X47514Y-36600D01*
X47533Y-36603D01*
X47541Y-36605D01*
X47543Y-36608D01*
X47550Y-36620D01*
X47559Y-36640D01*
X47569Y-36664D01*
X47580Y-36689D01*
X47589Y-36712D01*
X47595Y-36730D01*
X47598Y-36739D01*
X47594Y-36746D01*
X47584Y-36761D01*
X47570Y-36783D01*
X47552Y-36809D01*
X47535Y-36834D01*
X47520Y-36857D01*
X47510Y-36872D01*
X47505Y-36880D01*
X47507Y-36885D01*
X47518Y-36897D01*
X47537Y-36917D01*
X47566Y-36946D01*
X47571Y-36950D01*
X47594Y-36973D01*
X47613Y-36991D01*
X47627Y-37003D01*
X47633Y-37007D01*
X47633Y-37007D01*
G37*
G54D14*
X44917Y-35619D02*
X44622Y-35619D01*
X44622Y-35619D02*
X44622Y-35049D01*
X44917Y-35049D02*
X44622Y-35049D01*
X44917Y-35619D02*
X44917Y-35049D01*
X44348Y-35619D02*
X44053Y-35619D01*
X44053Y-35619D02*
X44053Y-35049D01*
X44348Y-35049D02*
X44053Y-35049D01*
X44348Y-35619D02*
X44348Y-35049D01*
X44527Y-35491D02*
X44449Y-35491D01*
X44449Y-35491D02*
X44449Y-35177D01*
X44527Y-35177D02*
X44449Y-35177D01*
X44527Y-35491D02*
X44527Y-35177D01*
G54D15*
X45264Y-34947D02*
X43712Y-34947D01*
X43712Y-35721D02*
X45264Y-35721D01*
X45264Y-35721D02*
X45264Y-34947D01*
G54D16*
X44638Y-35075D02*
X44338Y-35075D01*
X44628Y-35593D02*
X44338Y-35593D01*
G54D15*
X43712Y-34947D02*
X43712Y-35721D01*
G54D11*
X46008Y-36905D02*
X46008Y-37505D01*
X46008Y-37505D02*
X46308Y-37505D01*
X46308Y-37505D02*
X46308Y-36905D01*
X46308Y-36905D02*
X46008Y-36905D01*
X44335Y-36019D02*
X44335Y-36619D01*
X44335Y-36619D02*
X44635Y-36619D01*
X44635Y-36619D02*
X44635Y-36019D01*
X44635Y-36019D02*
X44335Y-36019D01*
X42278Y-37503D02*
X42278Y-36903D01*
X42278Y-36903D02*
X41978Y-36903D01*
X41978Y-36903D02*
X41978Y-37503D01*
X41978Y-37503D02*
X42278Y-37503D01*
X46952Y-40496D02*
X46352Y-40496D01*
X46352Y-40496D02*
X46352Y-40796D01*
X46352Y-40796D02*
X46952Y-40796D01*
X46952Y-40796D02*
X46952Y-40496D01*
X42023Y-40802D02*
X42623Y-40802D01*
X42623Y-40802D02*
X42623Y-40502D01*
X42623Y-40502D02*
X42023Y-40502D01*
X42023Y-40502D02*
X42023Y-40802D01*
X46697Y-36905D02*
X46697Y-37505D01*
X46697Y-37505D02*
X46997Y-37505D01*
X46997Y-37505D02*
X46997Y-36905D01*
X46997Y-36905D02*
X46697Y-36905D01*
X42662Y-36905D02*
X42662Y-37505D01*
X42662Y-37505D02*
X42962Y-37505D01*
X42962Y-37505D02*
X42962Y-36905D01*
X42962Y-36905D02*
X42662Y-36905D01*
X44872Y-39135D02*
X44872Y-38742D01*
X44460Y-39098D02*
X44478Y-39116D01*
X44535Y-39135D01*
X44572Y-39135D01*
X44628Y-39116D01*
X44666Y-39079D01*
X44685Y-39041D01*
X44703Y-38967D01*
X44703Y-38910D01*
X44685Y-38835D01*
X44666Y-38798D01*
X44628Y-38760D01*
X44572Y-38742D01*
X44535Y-38742D01*
X44478Y-38760D01*
X44460Y-38779D01*
X44085Y-39135D02*
X44310Y-39135D01*
X44197Y-39135D02*
X44197Y-38742D01*
X44235Y-38798D01*
X44272Y-38835D01*
X44310Y-38854D01*
X43527Y-35269D02*
X43546Y-35250D01*
X43564Y-35194D01*
X43564Y-35156D01*
X43546Y-35100D01*
X43508Y-35062D01*
X43471Y-35044D01*
X43396Y-35025D01*
X43339Y-35025D01*
X43264Y-35044D01*
X43227Y-35062D01*
X43189Y-35100D01*
X43171Y-35156D01*
X43171Y-35194D01*
X43189Y-35250D01*
X43208Y-35269D01*
X43564Y-35643D02*
X43564Y-35419D01*
X43564Y-35531D02*
X43171Y-35531D01*
X43227Y-35494D01*
X43264Y-35456D01*
X43283Y-35419D01*
X46340Y-36154D02*
X46152Y-36023D01*
X46340Y-35929D02*
X45946Y-35929D01*
X45946Y-36079D01*
X45965Y-36117D01*
X45984Y-36136D01*
X46021Y-36154D01*
X46077Y-36154D01*
X46115Y-36136D01*
X46134Y-36117D01*
X46152Y-36079D01*
X46152Y-35929D01*
X45946Y-36492D02*
X45946Y-36417D01*
X45965Y-36379D01*
X45984Y-36361D01*
X46040Y-36323D01*
X46115Y-36304D01*
X46265Y-36304D01*
X46302Y-36323D01*
X46321Y-36342D01*
X46340Y-36379D01*
X46340Y-36454D01*
X46321Y-36492D01*
X46302Y-36511D01*
X46265Y-36529D01*
X46171Y-36529D01*
X46134Y-36511D01*
X46115Y-36492D01*
X46096Y-36454D01*
X46096Y-36379D01*
X46115Y-36342D01*
X46134Y-36323D01*
X46171Y-36304D01*
X42285Y-36154D02*
X42097Y-36023D01*
X42285Y-35929D02*
X41891Y-35929D01*
X41891Y-36079D01*
X41910Y-36117D01*
X41929Y-36136D01*
X41966Y-36154D01*
X42022Y-36154D01*
X42060Y-36136D01*
X42079Y-36117D01*
X42097Y-36079D01*
X42097Y-35929D01*
X41891Y-36286D02*
X41891Y-36529D01*
X42041Y-36398D01*
X42041Y-36454D01*
X42060Y-36492D01*
X42079Y-36511D01*
X42116Y-36529D01*
X42210Y-36529D01*
X42247Y-36511D01*
X42266Y-36492D01*
X42285Y-36454D01*
X42285Y-36342D01*
X42266Y-36304D01*
X42247Y-36286D01*
X46719Y-41379D02*
X46850Y-41192D01*
X46944Y-41379D02*
X46944Y-40986D01*
X46794Y-40986D01*
X46756Y-41004D01*
X46737Y-41023D01*
X46719Y-41061D01*
X46719Y-41117D01*
X46737Y-41154D01*
X46756Y-41173D01*
X46794Y-41192D01*
X46944Y-41192D01*
X46569Y-41023D02*
X46550Y-41004D01*
X46512Y-40986D01*
X46419Y-40986D01*
X46381Y-41004D01*
X46362Y-41023D01*
X46344Y-41061D01*
X46344Y-41098D01*
X46362Y-41154D01*
X46587Y-41379D01*
X46344Y-41379D01*
X42388Y-41379D02*
X42519Y-41192D01*
X42613Y-41379D02*
X42613Y-40986D01*
X42463Y-40986D01*
X42425Y-41004D01*
X42407Y-41023D01*
X42388Y-41061D01*
X42388Y-41117D01*
X42407Y-41154D01*
X42425Y-41173D01*
X42463Y-41192D01*
X42613Y-41192D01*
X42013Y-41379D02*
X42238Y-41379D01*
X42125Y-41379D02*
X42125Y-40986D01*
X42163Y-41042D01*
X42200Y-41079D01*
X42238Y-41098D01*
X47009Y-36154D02*
X46822Y-36023D01*
X47009Y-35929D02*
X46616Y-35929D01*
X46616Y-36079D01*
X46634Y-36117D01*
X46653Y-36136D01*
X46691Y-36154D01*
X46747Y-36154D01*
X46784Y-36136D01*
X46803Y-36117D01*
X46822Y-36079D01*
X46822Y-35929D01*
X46747Y-36492D02*
X47009Y-36492D01*
X46597Y-36398D02*
X46878Y-36304D01*
X46878Y-36548D01*
X42994Y-36154D02*
X42806Y-36023D01*
X42994Y-35929D02*
X42600Y-35929D01*
X42600Y-36079D01*
X42619Y-36117D01*
X42637Y-36136D01*
X42675Y-36154D01*
X42731Y-36154D01*
X42769Y-36136D01*
X42787Y-36117D01*
X42806Y-36079D01*
X42806Y-35929D01*
X42600Y-36511D02*
X42600Y-36323D01*
X42787Y-36304D01*
X42769Y-36323D01*
X42750Y-36361D01*
X42750Y-36454D01*
X42769Y-36492D01*
X42787Y-36511D01*
X42825Y-36529D01*
X42919Y-36529D01*
X42956Y-36511D01*
X42975Y-36492D01*
X42994Y-36454D01*
X42994Y-36361D01*
X42975Y-36323D01*
X42956Y-36304D01*
%LPC*%
G54D17*
X43738Y-37476D03*
X44238Y-37476D03*
X44738Y-37476D03*
X45238Y-37476D03*
X45238Y-40476D03*
X44738Y-40476D03*
X44238Y-40476D03*
X43738Y-40476D03*
G54D18*
X43503Y-41929D03*
X45472Y-41929D03*
X44488Y-41929D03*
X45472Y-36220D03*
X43503Y-36220D03*
G54D19*
X46929Y-38976D03*
G54D20*
X42047Y-38976D03*
G54D21*
X45988Y-34251D03*
G54D22*
X44988Y-34251D03*
X43988Y-34251D03*
X42988Y-34251D03*
G54D23*
X40551Y-36220D03*
G54D24*
X41338Y-36220D03*
X40551Y-37007D03*
X41338Y-37007D03*
X40551Y-37795D03*
X41338Y-37795D03*
G54D25*
X44862Y-35334D03*
X44114Y-35334D03*
G54D26*
X48031Y-34645D03*
X40944Y-41732D03*
X40944Y-34645D03*
X48031Y-41732D03*
G54D27*
X46158Y-37500D03*
X46158Y-36910D03*
X44485Y-36614D03*
X44485Y-36024D03*
X42128Y-36908D03*
X42128Y-37498D03*
X46357Y-40646D03*
X46947Y-40646D03*
X42618Y-40652D03*
X42028Y-40652D03*
X46847Y-37500D03*
X46847Y-36910D03*
X42812Y-37500D03*
X42812Y-36910D03*
M02*
