M48
INCH,TZ
T1C0.013
T2C0.033
T3C0.040
T4C0.043
T5C0.083
T6C0.098
%
G90
G05
T1
X042402Y-035472
X042461Y-035039
X042815Y-037795
X042992Y-038150
X043386Y-035138
X043740Y-037992
X043937Y-038858
X044232Y-038445
X045236Y-039567
X045256Y-038602
X046000Y-041150
X046358Y-035492
X047402Y-036811
T2
X040551Y-036122
X040551Y-036909
X040551Y-037697
X041339Y-036122
X041339Y-036909
X041339Y-037697
T3
X042988Y-034350
X043988Y-034350
X044988Y-034350
X045988Y-034350
T4
X043504Y-036122
X043504Y-041831
X044488Y-041831
X045472Y-036122
X045472Y-041831
T5
X040945Y-034646
X040945Y-041732
X048031Y-034646
X048031Y-041732
T6
X042047Y-038878
X046929Y-038878
T0
M30
