M48
INCH,TZ
T1C0.014
T2C0.020
T3C0.033
T4C0.040
T5C0.043
T6C0.083
T7C0.098
%
G90
G05
T1
X040197Y-039409
X040197Y-040591
X040748Y-040079
X040906Y-038622
X040906Y-039370
X041299Y-040591
X042047Y-037480
X042126Y-033957
X042126Y-034547
X042126Y-035138
X042126Y-035984
X042323Y-042165
X042992Y-040906
X043031Y-038071
X043189Y-039055
X043740Y-038091
X044173Y-039016
X045157Y-038976
X045197Y-039567
X046299Y-035531
X046732Y-035748
X046732Y-042165
X046929Y-036713
X047559Y-036457
X048701Y-036457
X048701Y-037441
X048701Y-038189
X048701Y-039094
X048701Y-039961
T2
X043504Y-035295
X045984Y-040906
X047559Y-037559
T3
X040374Y-036220
X040374Y-037795
X040413Y-037008
X041161Y-037008
X041201Y-036220
X041201Y-037795
T4
X042988Y-034252
X043988Y-034252
X044988Y-034252
X045988Y-034252
T5
X043504Y-036220
X043504Y-041929
X044488Y-041929
X045472Y-036220
X045472Y-041929
T6
X040945Y-034646
X040945Y-041732
X048031Y-034646
X048031Y-041732
T7
X042047Y-038976
X046929Y-038976
T0
M30
