G04 (created by PCBNEW (2013-02-28 BZR 3978)-testing) date Fri 01 Mar 2013 12:32:55 PM CET*
%MOIN*%
G04 Gerber Fmt 3.4, Leading zero omitted, Abs format*
%FSLAX34Y34*%
G01*
G70*
G90*
G04 APERTURE LIST*
%ADD10C,3.14961e-06*%
%ADD11C,0.00787402*%
%ADD12C,0.0019685*%
%ADD13C,0.00393701*%
%ADD14C,0.0026*%
%ADD15C,0.002*%
%ADD16C,0.004*%
%ADD17C,0.006*%
%ADD18C,0.00590551*%
%ADD19R,0.0511811X0.0511811*%
%ADD20C,0.0511811*%
%ADD21R,0.0649606X0.0649606*%
%ADD22C,0.0649606*%
%ADD23R,0.0275591X0.0866142*%
%ADD24R,0.059X0.0511*%
%ADD25C,0.0984252*%
%ADD26R,0.0393701X0.0255906*%
%ADD27R,0.0393701X0.019685*%
%ADD28C,0.0688976*%
%ADD29O,0.15748X0.15748*%
G04 APERTURE END LIST*
G54D10*
G54D11*
X45834Y-35284D02*
X46134Y-35284D01*
X44850Y-35284D02*
X45149Y-35284D01*
X45000Y-35434D02*
X45000Y-35134D01*
X42797Y-34975D02*
X42797Y-35200D01*
X43190Y-35088D02*
X42797Y-35088D01*
X42797Y-35294D02*
X43190Y-35556D01*
X42797Y-35556D02*
X43190Y-35294D01*
X44175Y-34960D02*
X43781Y-34960D01*
X43781Y-35054D01*
X43800Y-35110D01*
X43837Y-35148D01*
X43875Y-35166D01*
X43950Y-35185D01*
X44006Y-35185D01*
X44081Y-35166D01*
X44118Y-35148D01*
X44156Y-35110D01*
X44175Y-35054D01*
X44175Y-34960D01*
X44175Y-35354D02*
X43781Y-35354D01*
X44175Y-35766D02*
X43987Y-35635D01*
X44175Y-35541D02*
X43781Y-35541D01*
X43781Y-35691D01*
X43800Y-35729D01*
X43818Y-35748D01*
X43856Y-35766D01*
X43912Y-35766D01*
X43950Y-35748D01*
X43968Y-35729D01*
X43987Y-35691D01*
X43987Y-35541D01*
X48129Y-33562D02*
X40846Y-33562D01*
X49114Y-41830D02*
X49114Y-34547D01*
X40846Y-42814D02*
X48129Y-42814D01*
X39862Y-34547D02*
X39862Y-41830D01*
X39862Y-41830D02*
G75*
G03X40846Y-42814I984J0D01*
G74*
G01*
X48129Y-42814D02*
G75*
G03X49114Y-41830I0J984D01*
G74*
G01*
X49114Y-34547D02*
G75*
G03X48129Y-33562I-984J0D01*
G74*
G01*
X40846Y-33562D02*
G75*
G03X39862Y-34547I0J-984D01*
G74*
G01*
G54D12*
X41082Y-37696D02*
X41082Y-37893D01*
X41082Y-37893D02*
X41279Y-37893D01*
X41279Y-37893D02*
X41279Y-37696D01*
X41279Y-37696D02*
X41082Y-37696D01*
X41082Y-36909D02*
X41082Y-37106D01*
X41082Y-37106D02*
X41279Y-37106D01*
X41279Y-37106D02*
X41279Y-36909D01*
X41279Y-36909D02*
X41082Y-36909D01*
X41082Y-36122D02*
X41082Y-36318D01*
X41082Y-36318D02*
X41279Y-36318D01*
X41279Y-36318D02*
X41279Y-36122D01*
X41279Y-36122D02*
X41082Y-36122D01*
X40295Y-37696D02*
X40295Y-37893D01*
X40295Y-37893D02*
X40492Y-37893D01*
X40492Y-37893D02*
X40492Y-37696D01*
X40492Y-37696D02*
X40295Y-37696D01*
X40295Y-36909D02*
X40295Y-37106D01*
X40295Y-37106D02*
X40492Y-37106D01*
X40492Y-37106D02*
X40492Y-36909D01*
X40492Y-36909D02*
X40295Y-36909D01*
X40295Y-36122D02*
X40295Y-36318D01*
X40295Y-36318D02*
X40492Y-36318D01*
X40492Y-36318D02*
X40492Y-36122D01*
X40492Y-36122D02*
X40295Y-36122D01*
G54D11*
X41574Y-35629D02*
G75*
G03X41574Y-35629I-98J0D01*
G74*
G01*
X40000Y-35826D02*
X40000Y-38188D01*
X40000Y-38188D02*
X41574Y-38188D01*
X41574Y-38188D02*
X41574Y-35826D01*
X41574Y-35826D02*
X40000Y-35826D01*
X45488Y-34751D02*
X45488Y-33751D01*
X46488Y-34751D02*
X42488Y-34751D01*
X42488Y-34751D02*
X42488Y-33751D01*
X42488Y-33751D02*
X46488Y-33751D01*
X46488Y-33751D02*
X46488Y-34751D01*
X44055Y-38385D02*
G75*
G03X44055Y-38385I-137J0D01*
G74*
G01*
X43307Y-41141D02*
X45669Y-41141D01*
X45669Y-41141D02*
X45669Y-36811D01*
X45669Y-36811D02*
X43307Y-36811D01*
X43307Y-36811D02*
X43307Y-41141D01*
G54D13*
X43813Y-37926D02*
X43813Y-37376D01*
X43813Y-37376D02*
X43663Y-37376D01*
X43663Y-37376D02*
X43663Y-37926D01*
X44313Y-37926D02*
X44313Y-37376D01*
X44313Y-37376D02*
X44163Y-37376D01*
X44163Y-37376D02*
X44163Y-37926D01*
X44813Y-37926D02*
X44813Y-37376D01*
X44813Y-37376D02*
X44663Y-37376D01*
X44663Y-37376D02*
X44663Y-37926D01*
X45313Y-37926D02*
X45313Y-37376D01*
X45313Y-37376D02*
X45163Y-37376D01*
X45163Y-37376D02*
X45163Y-37926D01*
X43663Y-40026D02*
X43663Y-40576D01*
X43663Y-40576D02*
X43813Y-40576D01*
X43813Y-40576D02*
X43813Y-40026D01*
X44163Y-40026D02*
X44163Y-40576D01*
X44163Y-40576D02*
X44313Y-40576D01*
X44313Y-40576D02*
X44313Y-40026D01*
X44663Y-40026D02*
X44663Y-40576D01*
X44663Y-40576D02*
X44813Y-40576D01*
X44813Y-40576D02*
X44813Y-40026D01*
X45163Y-40576D02*
X45313Y-40576D01*
X45163Y-40026D02*
X45163Y-40576D01*
X45313Y-40576D02*
X45313Y-40026D01*
G54D11*
X45511Y-40019D02*
X45511Y-37933D01*
X45511Y-37933D02*
X43464Y-37933D01*
X43464Y-37933D02*
X43464Y-40019D01*
X43464Y-40019D02*
X45511Y-40019D01*
G54D14*
X47864Y-37633D02*
X47864Y-37338D01*
X47864Y-37338D02*
X48434Y-37338D01*
X48434Y-37633D02*
X48434Y-37338D01*
X47864Y-37633D02*
X48434Y-37633D01*
X47864Y-37064D02*
X47864Y-36769D01*
X47864Y-36769D02*
X48434Y-36769D01*
X48434Y-37064D02*
X48434Y-36769D01*
X47864Y-37064D02*
X48434Y-37064D01*
X47992Y-37243D02*
X47992Y-37165D01*
X47992Y-37165D02*
X48306Y-37165D01*
X48306Y-37243D02*
X48306Y-37165D01*
X47992Y-37243D02*
X48306Y-37243D01*
G54D15*
X48536Y-37980D02*
X48536Y-36428D01*
X47762Y-36428D02*
X47762Y-37980D01*
X47762Y-37980D02*
X48536Y-37980D01*
G54D16*
X48408Y-37354D02*
X48408Y-37054D01*
X47890Y-37344D02*
X47890Y-37054D01*
G54D15*
X48536Y-36428D02*
X47762Y-36428D01*
G54D14*
X42047Y-40666D02*
X42047Y-40411D01*
X42047Y-40411D02*
X42598Y-40411D01*
X42598Y-40666D02*
X42598Y-40411D01*
X42047Y-40666D02*
X42598Y-40666D01*
X42047Y-41246D02*
X42047Y-40990D01*
X42047Y-40990D02*
X42598Y-40990D01*
X42598Y-41246D02*
X42598Y-40990D01*
X42047Y-41246D02*
X42598Y-41246D01*
X42126Y-40904D02*
X42126Y-40748D01*
X42126Y-40748D02*
X42518Y-40748D01*
X42518Y-40904D02*
X42518Y-40748D01*
X42126Y-40904D02*
X42518Y-40904D01*
G54D17*
X42572Y-40987D02*
X42572Y-40665D01*
X42072Y-40987D02*
X42072Y-40665D01*
G54D15*
X42709Y-41602D02*
X42709Y-40050D01*
X42709Y-40050D02*
X41935Y-40050D01*
X41935Y-40050D02*
X41935Y-41602D01*
X41935Y-41602D02*
X42709Y-41602D01*
G54D18*
X46358Y-36732D02*
X46358Y-36476D01*
X46358Y-37066D02*
X46358Y-36870D01*
X46358Y-37381D02*
X46358Y-37185D01*
X46358Y-37775D02*
X46358Y-37519D01*
X46988Y-36732D02*
X46988Y-36476D01*
X46988Y-37066D02*
X46988Y-36870D01*
X46988Y-37381D02*
X46988Y-37185D01*
X46988Y-37775D02*
X46988Y-37519D01*
X46358Y-36870D02*
X46437Y-36870D01*
X46437Y-36870D02*
X46437Y-36732D01*
X46437Y-36732D02*
X46358Y-36732D01*
X46358Y-37185D02*
X46437Y-37185D01*
X46437Y-37185D02*
X46437Y-37066D01*
X46437Y-37066D02*
X46358Y-37066D01*
X46358Y-37519D02*
X46437Y-37519D01*
X46437Y-37519D02*
X46437Y-37381D01*
X46437Y-37381D02*
X46358Y-37381D01*
X46988Y-36870D02*
X46909Y-36870D01*
X46909Y-36870D02*
X46909Y-36732D01*
X46909Y-36732D02*
X46988Y-36732D01*
X46988Y-37185D02*
X46909Y-37185D01*
X46909Y-37185D02*
X46909Y-37066D01*
X46909Y-37066D02*
X46988Y-37066D01*
X46988Y-37519D02*
X46909Y-37519D01*
X46909Y-37519D02*
X46909Y-37381D01*
X46909Y-37381D02*
X46988Y-37381D01*
X46988Y-36476D02*
X46358Y-36476D01*
X46358Y-37775D02*
X46988Y-37775D01*
X42755Y-37519D02*
X42755Y-37775D01*
X42755Y-37185D02*
X42755Y-37381D01*
X42755Y-36870D02*
X42755Y-37066D01*
X42755Y-36476D02*
X42755Y-36732D01*
X42125Y-37519D02*
X42125Y-37775D01*
X42125Y-37185D02*
X42125Y-37381D01*
X42125Y-36870D02*
X42125Y-37066D01*
X42125Y-36476D02*
X42125Y-36732D01*
X42755Y-37381D02*
X42677Y-37381D01*
X42677Y-37381D02*
X42677Y-37519D01*
X42677Y-37519D02*
X42755Y-37519D01*
X42755Y-37066D02*
X42677Y-37066D01*
X42677Y-37066D02*
X42677Y-37185D01*
X42677Y-37185D02*
X42755Y-37185D01*
X42755Y-36732D02*
X42677Y-36732D01*
X42677Y-36732D02*
X42677Y-36870D01*
X42677Y-36870D02*
X42755Y-36870D01*
X42125Y-37381D02*
X42204Y-37381D01*
X42204Y-37381D02*
X42204Y-37519D01*
X42204Y-37519D02*
X42125Y-37519D01*
X42125Y-37066D02*
X42204Y-37066D01*
X42204Y-37066D02*
X42204Y-37185D01*
X42204Y-37185D02*
X42125Y-37185D01*
X42125Y-36732D02*
X42204Y-36732D01*
X42204Y-36732D02*
X42204Y-36870D01*
X42204Y-36870D02*
X42125Y-36870D01*
X42125Y-37775D02*
X42755Y-37775D01*
X42755Y-36476D02*
X42125Y-36476D01*
G54D11*
X40817Y-38781D02*
X40817Y-38387D01*
X40648Y-38762D02*
X40592Y-38781D01*
X40498Y-38781D01*
X40461Y-38762D01*
X40442Y-38743D01*
X40423Y-38706D01*
X40423Y-38668D01*
X40442Y-38631D01*
X40461Y-38612D01*
X40498Y-38593D01*
X40573Y-38575D01*
X40611Y-38556D01*
X40629Y-38537D01*
X40648Y-38500D01*
X40648Y-38462D01*
X40629Y-38425D01*
X40611Y-38406D01*
X40573Y-38387D01*
X40479Y-38387D01*
X40423Y-38406D01*
X40254Y-38781D02*
X40254Y-38387D01*
X40104Y-38387D01*
X40067Y-38406D01*
X40048Y-38425D01*
X40029Y-38462D01*
X40029Y-38518D01*
X40048Y-38556D01*
X40067Y-38575D01*
X40104Y-38593D01*
X40254Y-38593D01*
X44872Y-39135D02*
X44872Y-38742D01*
X44460Y-39098D02*
X44478Y-39116D01*
X44535Y-39135D01*
X44572Y-39135D01*
X44628Y-39116D01*
X44666Y-39079D01*
X44685Y-39041D01*
X44703Y-38967D01*
X44703Y-38910D01*
X44685Y-38835D01*
X44666Y-38798D01*
X44628Y-38760D01*
X44572Y-38742D01*
X44535Y-38742D01*
X44478Y-38760D01*
X44460Y-38779D01*
X44085Y-39135D02*
X44310Y-39135D01*
X44197Y-39135D02*
X44197Y-38742D01*
X44235Y-38798D01*
X44272Y-38835D01*
X44310Y-38854D01*
X48271Y-35958D02*
X48290Y-35939D01*
X48308Y-35883D01*
X48308Y-35845D01*
X48290Y-35789D01*
X48252Y-35751D01*
X48215Y-35733D01*
X48140Y-35714D01*
X48083Y-35714D01*
X48008Y-35733D01*
X47971Y-35751D01*
X47934Y-35789D01*
X47915Y-35845D01*
X47915Y-35883D01*
X47934Y-35939D01*
X47952Y-35958D01*
X48308Y-36332D02*
X48308Y-36107D01*
X48308Y-36220D02*
X47915Y-36220D01*
X47971Y-36182D01*
X48008Y-36145D01*
X48027Y-36107D01*
X42388Y-42088D02*
X42519Y-41901D01*
X42613Y-42088D02*
X42613Y-41694D01*
X42463Y-41694D01*
X42425Y-41713D01*
X42407Y-41732D01*
X42388Y-41769D01*
X42388Y-41826D01*
X42407Y-41863D01*
X42425Y-41882D01*
X42463Y-41901D01*
X42613Y-41901D01*
X42013Y-42088D02*
X42238Y-42088D01*
X42125Y-42088D02*
X42125Y-41694D01*
X42163Y-41751D01*
X42200Y-41788D01*
X42238Y-41807D01*
X46935Y-36360D02*
X47066Y-36172D01*
X47160Y-36360D02*
X47160Y-35966D01*
X47010Y-35966D01*
X46973Y-35985D01*
X46954Y-36003D01*
X46935Y-36041D01*
X46935Y-36097D01*
X46954Y-36135D01*
X46973Y-36153D01*
X47010Y-36172D01*
X47160Y-36172D01*
X46766Y-36360D02*
X46766Y-35966D01*
X46616Y-35966D01*
X46579Y-35985D01*
X46560Y-36003D01*
X46541Y-36041D01*
X46541Y-36097D01*
X46560Y-36135D01*
X46579Y-36153D01*
X46616Y-36172D01*
X46766Y-36172D01*
X46392Y-36003D02*
X46373Y-35985D01*
X46335Y-35966D01*
X46242Y-35966D01*
X46204Y-35985D01*
X46185Y-36003D01*
X46167Y-36041D01*
X46167Y-36078D01*
X46185Y-36135D01*
X46410Y-36360D01*
X46167Y-36360D01*
X42703Y-36360D02*
X42834Y-36172D01*
X42928Y-36360D02*
X42928Y-35966D01*
X42778Y-35966D01*
X42740Y-35985D01*
X42722Y-36003D01*
X42703Y-36041D01*
X42703Y-36097D01*
X42722Y-36135D01*
X42740Y-36153D01*
X42778Y-36172D01*
X42928Y-36172D01*
X42534Y-36360D02*
X42534Y-35966D01*
X42384Y-35966D01*
X42347Y-35985D01*
X42328Y-36003D01*
X42309Y-36041D01*
X42309Y-36097D01*
X42328Y-36135D01*
X42347Y-36153D01*
X42384Y-36172D01*
X42534Y-36172D01*
X41934Y-36360D02*
X42159Y-36360D01*
X42047Y-36360D02*
X42047Y-35966D01*
X42084Y-36022D01*
X42122Y-36060D01*
X42159Y-36078D01*
%LPC*%
G54D19*
X41200Y-36220D03*
G54D20*
X40374Y-36220D03*
X41161Y-37007D03*
X40413Y-37007D03*
X41200Y-37795D03*
X40374Y-37795D03*
G54D21*
X45988Y-34251D03*
G54D22*
X44988Y-34251D03*
X43988Y-34251D03*
X42988Y-34251D03*
G54D23*
X43738Y-37476D03*
X44238Y-37476D03*
X44738Y-37476D03*
X45238Y-37476D03*
X45238Y-40476D03*
X44738Y-40476D03*
X44238Y-40476D03*
X43738Y-40476D03*
G54D24*
X48149Y-37578D03*
X48149Y-36830D03*
G54D25*
X48031Y-34645D03*
X40944Y-41732D03*
X40944Y-34645D03*
X48031Y-41732D03*
G54D24*
X42322Y-41200D03*
X42322Y-40452D03*
G54D26*
X47027Y-37647D03*
G54D27*
X47027Y-37283D03*
X47027Y-36968D03*
G54D26*
X47027Y-36604D03*
X46318Y-37647D03*
G54D27*
X46318Y-37283D03*
X46318Y-36968D03*
G54D26*
X46318Y-36604D03*
X42086Y-36604D03*
G54D27*
X42086Y-36968D03*
X42086Y-37283D03*
G54D26*
X42086Y-37647D03*
X42795Y-36604D03*
G54D27*
X42795Y-36968D03*
X42795Y-37283D03*
G54D26*
X42795Y-37647D03*
G54D28*
X43503Y-41929D03*
X45472Y-41929D03*
X44488Y-41929D03*
X45472Y-36220D03*
X43503Y-36220D03*
G54D29*
X46929Y-38976D03*
X42047Y-38976D03*
M02*
