G04 (created by PCBNEW (2013-02-28 BZR 3978)-testing) date Fri 01 Mar 2013 02:42:22 PM CET*
%MOIN*%
G04 Gerber Fmt 3.4, Leading zero omitted, Abs format*
%FSLAX34Y34*%
G01*
G70*
G90*
G04 APERTURE LIST*
%ADD10C,3.14961e-06*%
%ADD11C,0.00787402*%
%ADD12C,0.0688976*%
%ADD13O,0.15748X0.15748*%
%ADD14R,0.0511811X0.0511811*%
%ADD15C,0.0511811*%
%ADD16R,0.0649606X0.0649606*%
%ADD17C,0.0649606*%
%ADD18R,0.0275591X0.0866142*%
%ADD19R,0.059X0.0511*%
%ADD20C,0.0984252*%
%ADD21R,0.0393701X0.0255906*%
%ADD22R,0.0393701X0.019685*%
%ADD23C,0.0255906*%
%ADD24C,0.00984252*%
%ADD25C,0.000393701*%
%ADD26C,0.015748*%
%ADD27C,0.00629921*%
G04 APERTURE END LIST*
G54D10*
G54D11*
X48129Y-33562D02*
X40846Y-33562D01*
X49114Y-41830D02*
X49114Y-34547D01*
X40846Y-42814D02*
X48129Y-42814D01*
X39862Y-34547D02*
X39862Y-41830D01*
X39862Y-41830D02*
G75*
G03X40846Y-42814I984J0D01*
G74*
G01*
X48129Y-42814D02*
G75*
G03X49114Y-41830I0J984D01*
G74*
G01*
X49114Y-34547D02*
G75*
G03X48129Y-33562I-984J0D01*
G74*
G01*
X40846Y-33562D02*
G75*
G03X39862Y-34547I0J-984D01*
G74*
G01*
G54D12*
X43503Y-41929D03*
X45472Y-41929D03*
X44488Y-41929D03*
X45472Y-36220D03*
X43503Y-36220D03*
G54D13*
X46929Y-38976D03*
X42047Y-38976D03*
G54D14*
X41200Y-36220D03*
G54D15*
X40374Y-36220D03*
X41161Y-37007D03*
X40413Y-37007D03*
X41200Y-37795D03*
X40374Y-37795D03*
G54D16*
X45988Y-34251D03*
G54D17*
X44988Y-34251D03*
X43988Y-34251D03*
X42988Y-34251D03*
G54D18*
X43738Y-37397D03*
X44238Y-37397D03*
X44738Y-37397D03*
X45238Y-37397D03*
X45238Y-40397D03*
X44738Y-40397D03*
X44238Y-40397D03*
X43738Y-40397D03*
G54D19*
X48149Y-37578D03*
X48149Y-36830D03*
G54D20*
X48031Y-34645D03*
X40944Y-41732D03*
X40944Y-34645D03*
X48031Y-41732D03*
G54D21*
X47027Y-37647D03*
G54D22*
X47027Y-37283D03*
X47027Y-36968D03*
G54D21*
X47027Y-36604D03*
X46318Y-37647D03*
G54D22*
X46318Y-37283D03*
X46318Y-36968D03*
G54D21*
X46318Y-36604D03*
X42086Y-36604D03*
G54D22*
X42086Y-36968D03*
X42086Y-37283D03*
G54D21*
X42086Y-37647D03*
X42795Y-36604D03*
G54D22*
X42795Y-36968D03*
X42795Y-37283D03*
G54D21*
X42795Y-37647D03*
G54D23*
X45511Y-35590D03*
X46181Y-36161D03*
X44173Y-39055D03*
X44803Y-39055D03*
X45925Y-36968D03*
X43641Y-39055D03*
X44862Y-38523D03*
X45925Y-36614D03*
X43622Y-38149D03*
X40787Y-38622D03*
X40748Y-39330D03*
X45866Y-37500D03*
X45688Y-38523D03*
X42125Y-34547D03*
X42125Y-35157D03*
X48779Y-35944D03*
X48779Y-37578D03*
X48759Y-38937D03*
X48759Y-39940D03*
X46692Y-42027D03*
X42125Y-33956D03*
X40196Y-39409D03*
X40748Y-40078D03*
X40196Y-40590D03*
X42992Y-40905D03*
X42322Y-42165D03*
X41299Y-40590D03*
X43248Y-37401D03*
X43976Y-36633D03*
X47381Y-37677D03*
X46515Y-40551D03*
X43858Y-35039D03*
X48267Y-38228D03*
G54D24*
X44606Y-36220D02*
X45236Y-35590D01*
X45236Y-35590D02*
X45511Y-35590D01*
X43503Y-36220D02*
X44606Y-36220D01*
X47027Y-36220D02*
X46968Y-36161D01*
X46968Y-36161D02*
X46181Y-36161D01*
X47027Y-36220D02*
X47027Y-36604D01*
X43956Y-42460D02*
X45787Y-42460D01*
X43503Y-42007D02*
X43956Y-42460D01*
X43503Y-41929D02*
X43503Y-42007D01*
X46161Y-41535D02*
X48307Y-39389D01*
X46161Y-42086D02*
X46161Y-41535D01*
X45787Y-42460D02*
X46161Y-42086D01*
X47027Y-37283D02*
X47440Y-37283D01*
X47637Y-37992D02*
X47637Y-37480D01*
X48307Y-38661D02*
X48307Y-39389D01*
X47637Y-37992D02*
X48307Y-38661D01*
X47440Y-37283D02*
X47637Y-37480D01*
X47066Y-37322D02*
X47027Y-37283D01*
X47281Y-37954D02*
X46691Y-37954D01*
X46712Y-36968D02*
X47027Y-36968D01*
X46673Y-37007D02*
X46712Y-36968D01*
X46673Y-37936D02*
X46673Y-37007D01*
X46691Y-37954D02*
X46673Y-37936D01*
X45472Y-41929D02*
X45511Y-41929D01*
X45511Y-41929D02*
X48070Y-39370D01*
X48070Y-38743D02*
X48070Y-39370D01*
X47281Y-37954D02*
X48070Y-38743D01*
X46318Y-37647D02*
X46112Y-37647D01*
X45531Y-38228D02*
X44238Y-38228D01*
X46112Y-37647D02*
X45531Y-38228D01*
X42795Y-37647D02*
X43080Y-37647D01*
X44238Y-38267D02*
X44238Y-38228D01*
X44238Y-38228D02*
X44238Y-37476D01*
X43080Y-37647D02*
X43346Y-37913D01*
X43346Y-37913D02*
X43346Y-38267D01*
X44238Y-38281D02*
X44238Y-38267D01*
X44094Y-38425D02*
X44238Y-38281D01*
X43503Y-38425D02*
X44094Y-38425D01*
X43346Y-38267D02*
X43503Y-38425D01*
X44572Y-39415D02*
X44557Y-39399D01*
X44557Y-39399D02*
X44173Y-39055D01*
X44572Y-39415D02*
X44738Y-39415D01*
X44738Y-39415D02*
X44738Y-39120D01*
X44738Y-39120D02*
X44803Y-39055D01*
X46318Y-36968D02*
X45925Y-36968D01*
X44738Y-40476D02*
X44738Y-39415D01*
X44862Y-38779D02*
X43917Y-38779D01*
X43917Y-38779D02*
X43641Y-39055D01*
X44862Y-38779D02*
X45000Y-38779D01*
X45238Y-39017D02*
X45238Y-40476D01*
X45000Y-38779D02*
X45238Y-39017D01*
X46318Y-36604D02*
X45935Y-36604D01*
X44862Y-38523D02*
X44862Y-38779D01*
X45935Y-36604D02*
X45925Y-36614D01*
X40393Y-37007D02*
X40413Y-37007D01*
X42086Y-37283D02*
X42362Y-37283D01*
X43818Y-34251D02*
X43988Y-34251D01*
X42440Y-35944D02*
X44055Y-34330D01*
X42440Y-37204D02*
X42440Y-35944D01*
X42362Y-37283D02*
X42440Y-37204D01*
X43738Y-37476D02*
X43738Y-38033D01*
X43622Y-38149D02*
X43738Y-38033D01*
X42795Y-36968D02*
X43230Y-36968D01*
X43230Y-36968D02*
X43738Y-37476D01*
X45728Y-40905D02*
X45728Y-39744D01*
X41161Y-37145D02*
X40787Y-37519D01*
X40787Y-37519D02*
X40787Y-38622D01*
X40748Y-39330D02*
X41594Y-40177D01*
X41594Y-40177D02*
X42775Y-40177D01*
X43267Y-39685D02*
X42775Y-40177D01*
X44224Y-39685D02*
X43267Y-39685D01*
X41161Y-37007D02*
X41161Y-37145D01*
X44224Y-40462D02*
X44238Y-40476D01*
X44224Y-39685D02*
X44224Y-40462D01*
X45866Y-37381D02*
X45866Y-37500D01*
X45964Y-37283D02*
X46318Y-37283D01*
X45964Y-37283D02*
X45866Y-37381D01*
X45511Y-41122D02*
X45728Y-40905D01*
X44238Y-40476D02*
X44238Y-41088D01*
X44271Y-41122D02*
X44238Y-41088D01*
X44271Y-41122D02*
X45511Y-41122D01*
X45433Y-38779D02*
X45688Y-38523D01*
X45433Y-39572D02*
X45433Y-38779D01*
X45486Y-39625D02*
X45433Y-39572D01*
X45610Y-39625D02*
X45486Y-39625D01*
X45728Y-39744D02*
X45610Y-39625D01*
X46338Y-37283D02*
X46318Y-37283D01*
X41181Y-37007D02*
X41181Y-37027D01*
X42992Y-35137D02*
X42992Y-34255D01*
X42992Y-35137D02*
X41692Y-36437D01*
X41692Y-36437D02*
X41692Y-37598D01*
X41692Y-37598D02*
X41742Y-37647D01*
X42086Y-37647D02*
X41742Y-37647D01*
X42992Y-34255D02*
X42988Y-34251D01*
X42988Y-34251D02*
X42988Y-34295D01*
G54D25*
X48661Y-36830D02*
X48661Y-36062D01*
X48661Y-36062D02*
X48779Y-35944D01*
X48759Y-39940D02*
X48759Y-40177D01*
X48661Y-36830D02*
X48779Y-36948D01*
X48779Y-36948D02*
X48779Y-37578D01*
X48759Y-38937D02*
X48759Y-39940D01*
X48149Y-36830D02*
X48661Y-36830D01*
X46692Y-41496D02*
X46692Y-42027D01*
X47381Y-40807D02*
X46692Y-41496D01*
X47637Y-40807D02*
X47381Y-40807D01*
X47795Y-40649D02*
X47637Y-40807D01*
X48287Y-40649D02*
X47795Y-40649D01*
X48759Y-40177D02*
X48287Y-40649D01*
X45988Y-34251D02*
X45988Y-33881D01*
X42322Y-33759D02*
X42125Y-33956D01*
X45866Y-33759D02*
X42322Y-33759D01*
X45988Y-33881D02*
X45866Y-33759D01*
X40196Y-39409D02*
X40196Y-37972D01*
X40196Y-37972D02*
X40374Y-37795D01*
G54D26*
X40374Y-37795D02*
X40374Y-38720D01*
X40629Y-38976D02*
X42047Y-38976D01*
X40374Y-38720D02*
X40629Y-38976D01*
X45988Y-34295D02*
X48149Y-36456D01*
X45988Y-34251D02*
X45988Y-34295D01*
X48149Y-36456D02*
X48149Y-36830D01*
G54D25*
X40748Y-40078D02*
X40708Y-40078D01*
X40708Y-40078D02*
X40196Y-40590D01*
X40748Y-40078D02*
X41299Y-40590D01*
G54D26*
X45909Y-35783D02*
X45909Y-34330D01*
X45472Y-36220D02*
X45909Y-35783D01*
X45909Y-34330D02*
X45988Y-34251D01*
X45238Y-37476D02*
X45238Y-36454D01*
X45238Y-36454D02*
X45472Y-36220D01*
G54D24*
X43976Y-36633D02*
X44724Y-36633D01*
X43129Y-37283D02*
X43248Y-37401D01*
X42795Y-37283D02*
X43129Y-37283D01*
X44738Y-36647D02*
X44738Y-37476D01*
X44724Y-36633D02*
X44738Y-36647D01*
X42086Y-36604D02*
X42086Y-36968D01*
X47027Y-37647D02*
X47352Y-37647D01*
X47381Y-37677D02*
X47352Y-37647D01*
G54D26*
X45688Y-41338D02*
X46476Y-40551D01*
X43897Y-41338D02*
X45688Y-41338D01*
X43738Y-41179D02*
X43738Y-40476D01*
X43738Y-41179D02*
X43897Y-41338D01*
X46476Y-40551D02*
X46515Y-40551D01*
X42795Y-36604D02*
X42795Y-36102D01*
X42795Y-36102D02*
X43858Y-35039D01*
X44200Y-35039D02*
X44988Y-34251D01*
X43858Y-35039D02*
X44200Y-35039D01*
X48149Y-37578D02*
X48149Y-38110D01*
X48149Y-38110D02*
X48267Y-38228D01*
G54D10*
G36*
X47911Y-39304D02*
X47832Y-39383D01*
X47832Y-39137D01*
X47813Y-38994D01*
X46946Y-38994D01*
X46946Y-39861D01*
X47090Y-39879D01*
X47262Y-39831D01*
X47422Y-39749D01*
X47562Y-39639D01*
X47679Y-39503D01*
X47767Y-39347D01*
X47824Y-39177D01*
X47832Y-39137D01*
X47832Y-39383D01*
X46911Y-40304D01*
X46911Y-39861D01*
X46911Y-38994D01*
X46044Y-38994D01*
X46026Y-39137D01*
X46034Y-39177D01*
X46090Y-39347D01*
X46178Y-39503D01*
X46295Y-39639D01*
X46436Y-39749D01*
X46595Y-39831D01*
X46768Y-39879D01*
X46911Y-39861D01*
X46911Y-40304D01*
X46741Y-40473D01*
X46727Y-40438D01*
X46701Y-40399D01*
X46668Y-40366D01*
X46629Y-40340D01*
X46586Y-40322D01*
X46540Y-40313D01*
X46494Y-40312D01*
X46448Y-40321D01*
X46404Y-40339D01*
X46365Y-40364D01*
X46332Y-40397D01*
X46306Y-40435D01*
X46292Y-40468D01*
X45887Y-40872D01*
X45887Y-39744D01*
X45886Y-39729D01*
X45885Y-39714D01*
X45884Y-39713D01*
X45884Y-39713D01*
X45880Y-39699D01*
X45876Y-39684D01*
X45876Y-39684D01*
X45875Y-39683D01*
X45868Y-39670D01*
X45862Y-39657D01*
X45861Y-39656D01*
X45861Y-39655D01*
X45851Y-39644D01*
X45842Y-39632D01*
X45841Y-39631D01*
X45841Y-39631D01*
X45841Y-39631D01*
X45841Y-39631D01*
X45722Y-39513D01*
X45711Y-39503D01*
X45700Y-39494D01*
X45699Y-39494D01*
X45698Y-39493D01*
X45685Y-39486D01*
X45673Y-39479D01*
X45672Y-39479D01*
X45671Y-39478D01*
X45657Y-39474D01*
X45643Y-39470D01*
X45642Y-39469D01*
X45641Y-39469D01*
X45627Y-39468D01*
X45612Y-39466D01*
X45610Y-39466D01*
X45610Y-39466D01*
X45610Y-39466D01*
X45610Y-39466D01*
X45592Y-39466D01*
X45592Y-38845D01*
X45676Y-38761D01*
X45707Y-38762D01*
X45753Y-38754D01*
X45796Y-38737D01*
X45836Y-38712D01*
X45870Y-38680D01*
X45897Y-38641D01*
X45916Y-38599D01*
X45926Y-38553D01*
X45927Y-38500D01*
X45918Y-38454D01*
X45900Y-38411D01*
X45874Y-38372D01*
X45841Y-38339D01*
X45802Y-38313D01*
X45759Y-38294D01*
X45713Y-38285D01*
X45699Y-38285D01*
X46099Y-37885D01*
X46121Y-37885D01*
X46132Y-37885D01*
X46513Y-37885D01*
X46513Y-37936D01*
X46515Y-37950D01*
X46516Y-37965D01*
X46516Y-37966D01*
X46516Y-37967D01*
X46521Y-37981D01*
X46525Y-37995D01*
X46525Y-37996D01*
X46525Y-37997D01*
X46532Y-38010D01*
X46539Y-38023D01*
X46540Y-38023D01*
X46540Y-38024D01*
X46549Y-38035D01*
X46558Y-38047D01*
X46560Y-38048D01*
X46560Y-38048D01*
X46560Y-38048D01*
X46560Y-38049D01*
X46578Y-38067D01*
X46589Y-38076D01*
X46601Y-38085D01*
X46601Y-38086D01*
X46602Y-38086D01*
X46615Y-38093D01*
X46628Y-38100D01*
X46629Y-38101D01*
X46630Y-38101D01*
X46644Y-38105D01*
X46647Y-38107D01*
X46595Y-38121D01*
X46436Y-38202D01*
X46295Y-38313D01*
X46178Y-38448D01*
X46090Y-38604D01*
X46034Y-38774D01*
X46026Y-38815D01*
X46044Y-38958D01*
X46911Y-38958D01*
X46911Y-38950D01*
X46946Y-38950D01*
X46946Y-38958D01*
X47813Y-38958D01*
X47832Y-38815D01*
X47824Y-38774D01*
X47797Y-38695D01*
X47911Y-38809D01*
X47911Y-39304D01*
X47911Y-39304D01*
G37*
G54D27*
X47911Y-39304D02*
X47832Y-39383D01*
X47832Y-39137D01*
X47813Y-38994D01*
X46946Y-38994D01*
X46946Y-39861D01*
X47090Y-39879D01*
X47262Y-39831D01*
X47422Y-39749D01*
X47562Y-39639D01*
X47679Y-39503D01*
X47767Y-39347D01*
X47824Y-39177D01*
X47832Y-39137D01*
X47832Y-39383D01*
X46911Y-40304D01*
X46911Y-39861D01*
X46911Y-38994D01*
X46044Y-38994D01*
X46026Y-39137D01*
X46034Y-39177D01*
X46090Y-39347D01*
X46178Y-39503D01*
X46295Y-39639D01*
X46436Y-39749D01*
X46595Y-39831D01*
X46768Y-39879D01*
X46911Y-39861D01*
X46911Y-40304D01*
X46741Y-40473D01*
X46727Y-40438D01*
X46701Y-40399D01*
X46668Y-40366D01*
X46629Y-40340D01*
X46586Y-40322D01*
X46540Y-40313D01*
X46494Y-40312D01*
X46448Y-40321D01*
X46404Y-40339D01*
X46365Y-40364D01*
X46332Y-40397D01*
X46306Y-40435D01*
X46292Y-40468D01*
X45887Y-40872D01*
X45887Y-39744D01*
X45886Y-39729D01*
X45885Y-39714D01*
X45884Y-39713D01*
X45884Y-39713D01*
X45880Y-39699D01*
X45876Y-39684D01*
X45876Y-39684D01*
X45875Y-39683D01*
X45868Y-39670D01*
X45862Y-39657D01*
X45861Y-39656D01*
X45861Y-39655D01*
X45851Y-39644D01*
X45842Y-39632D01*
X45841Y-39631D01*
X45841Y-39631D01*
X45841Y-39631D01*
X45841Y-39631D01*
X45722Y-39513D01*
X45711Y-39503D01*
X45700Y-39494D01*
X45699Y-39494D01*
X45698Y-39493D01*
X45685Y-39486D01*
X45673Y-39479D01*
X45672Y-39479D01*
X45671Y-39478D01*
X45657Y-39474D01*
X45643Y-39470D01*
X45642Y-39469D01*
X45641Y-39469D01*
X45627Y-39468D01*
X45612Y-39466D01*
X45610Y-39466D01*
X45610Y-39466D01*
X45610Y-39466D01*
X45610Y-39466D01*
X45592Y-39466D01*
X45592Y-38845D01*
X45676Y-38761D01*
X45707Y-38762D01*
X45753Y-38754D01*
X45796Y-38737D01*
X45836Y-38712D01*
X45870Y-38680D01*
X45897Y-38641D01*
X45916Y-38599D01*
X45926Y-38553D01*
X45927Y-38500D01*
X45918Y-38454D01*
X45900Y-38411D01*
X45874Y-38372D01*
X45841Y-38339D01*
X45802Y-38313D01*
X45759Y-38294D01*
X45713Y-38285D01*
X45699Y-38285D01*
X46099Y-37885D01*
X46121Y-37885D01*
X46132Y-37885D01*
X46513Y-37885D01*
X46513Y-37936D01*
X46515Y-37950D01*
X46516Y-37965D01*
X46516Y-37966D01*
X46516Y-37967D01*
X46521Y-37981D01*
X46525Y-37995D01*
X46525Y-37996D01*
X46525Y-37997D01*
X46532Y-38010D01*
X46539Y-38023D01*
X46540Y-38023D01*
X46540Y-38024D01*
X46549Y-38035D01*
X46558Y-38047D01*
X46560Y-38048D01*
X46560Y-38048D01*
X46560Y-38048D01*
X46560Y-38049D01*
X46578Y-38067D01*
X46589Y-38076D01*
X46601Y-38085D01*
X46601Y-38086D01*
X46602Y-38086D01*
X46615Y-38093D01*
X46628Y-38100D01*
X46629Y-38101D01*
X46630Y-38101D01*
X46644Y-38105D01*
X46647Y-38107D01*
X46595Y-38121D01*
X46436Y-38202D01*
X46295Y-38313D01*
X46178Y-38448D01*
X46090Y-38604D01*
X46034Y-38774D01*
X46026Y-38815D01*
X46044Y-38958D01*
X46911Y-38958D01*
X46911Y-38950D01*
X46946Y-38950D01*
X46946Y-38958D01*
X47813Y-38958D01*
X47832Y-38815D01*
X47824Y-38774D01*
X47797Y-38695D01*
X47911Y-38809D01*
X47911Y-39304D01*
G54D10*
G36*
X48964Y-40780D02*
X48961Y-40779D01*
X48918Y-40775D01*
X48226Y-40775D01*
X48183Y-40779D01*
X48169Y-40784D01*
X48131Y-40776D01*
X47944Y-40774D01*
X47760Y-40810D01*
X47586Y-40880D01*
X47429Y-40983D01*
X47295Y-41114D01*
X47189Y-41269D01*
X47115Y-41441D01*
X47076Y-41625D01*
X47073Y-41812D01*
X47083Y-41868D01*
X47079Y-41884D01*
X47074Y-41927D01*
X47074Y-42619D01*
X47079Y-42662D01*
X47079Y-42665D01*
X41896Y-42665D01*
X41897Y-42662D01*
X41901Y-42619D01*
X41901Y-41927D01*
X41897Y-41884D01*
X41893Y-41873D01*
X41898Y-41852D01*
X41901Y-41638D01*
X41865Y-41454D01*
X41793Y-41280D01*
X41689Y-41124D01*
X41557Y-40991D01*
X41402Y-40886D01*
X41229Y-40813D01*
X41045Y-40776D01*
X40857Y-40774D01*
X40807Y-40784D01*
X40792Y-40779D01*
X40749Y-40775D01*
X40057Y-40775D01*
X40014Y-40779D01*
X40011Y-40780D01*
X40011Y-37930D01*
X40016Y-37944D01*
X40050Y-38008D01*
X40110Y-38033D01*
X40348Y-37795D01*
X40110Y-37556D01*
X40050Y-37581D01*
X40015Y-37648D01*
X40011Y-37659D01*
X40011Y-37433D01*
X40239Y-37433D01*
X40224Y-37437D01*
X40160Y-37471D01*
X40135Y-37531D01*
X40374Y-37770D01*
X40379Y-37764D01*
X40404Y-37789D01*
X40399Y-37795D01*
X40404Y-37800D01*
X40379Y-37825D01*
X40374Y-37820D01*
X40135Y-38058D01*
X40160Y-38119D01*
X40227Y-38154D01*
X40300Y-38175D01*
X40375Y-38182D01*
X40450Y-38175D01*
X40523Y-38153D01*
X40587Y-38119D01*
X40612Y-38058D01*
X40612Y-38058D01*
X40627Y-38074D01*
X40627Y-38444D01*
X40612Y-38460D01*
X40604Y-38468D01*
X40577Y-38506D01*
X40559Y-38549D01*
X40549Y-38595D01*
X40548Y-38642D01*
X40557Y-38688D01*
X40574Y-38731D01*
X40599Y-38770D01*
X40632Y-38804D01*
X40670Y-38830D01*
X40713Y-38849D01*
X40759Y-38859D01*
X40805Y-38860D01*
X40851Y-38852D01*
X40895Y-38835D01*
X40934Y-38810D01*
X40968Y-38778D01*
X40995Y-38740D01*
X41014Y-38697D01*
X41024Y-38652D01*
X41025Y-38598D01*
X41016Y-38552D01*
X40998Y-38509D01*
X40972Y-38470D01*
X40946Y-38444D01*
X40946Y-38220D01*
X41531Y-38220D01*
X41413Y-38313D01*
X41296Y-38448D01*
X41208Y-38604D01*
X41152Y-38774D01*
X41144Y-38815D01*
X41162Y-38958D01*
X42029Y-38958D01*
X42029Y-38091D01*
X41886Y-38073D01*
X41713Y-38121D01*
X41606Y-38176D01*
X41606Y-37737D01*
X41629Y-37760D01*
X41640Y-37769D01*
X41652Y-37779D01*
X41652Y-37779D01*
X41653Y-37780D01*
X41666Y-37787D01*
X41679Y-37794D01*
X41680Y-37794D01*
X41680Y-37794D01*
X41694Y-37799D01*
X41708Y-37803D01*
X41709Y-37803D01*
X41710Y-37803D01*
X41725Y-37805D01*
X41739Y-37807D01*
X41741Y-37807D01*
X41741Y-37807D01*
X41741Y-37807D01*
X41742Y-37807D01*
X41779Y-37807D01*
X41779Y-37885D01*
X41888Y-37885D01*
X41899Y-37885D01*
X42294Y-37885D01*
X42294Y-37885D01*
X42597Y-37885D01*
X42608Y-37885D01*
X43002Y-37885D01*
X43002Y-37885D01*
X43093Y-37885D01*
X43187Y-37979D01*
X43187Y-38267D01*
X43188Y-38282D01*
X43189Y-38297D01*
X43189Y-38297D01*
X43190Y-38298D01*
X43194Y-38312D01*
X43198Y-38326D01*
X43198Y-38327D01*
X43199Y-38328D01*
X43205Y-38341D01*
X43212Y-38354D01*
X43213Y-38355D01*
X43213Y-38355D01*
X43222Y-38367D01*
X43232Y-38378D01*
X43233Y-38380D01*
X43233Y-38380D01*
X43233Y-38380D01*
X43233Y-38380D01*
X43391Y-38537D01*
X43402Y-38547D01*
X43413Y-38556D01*
X43414Y-38557D01*
X43415Y-38557D01*
X43428Y-38564D01*
X43441Y-38571D01*
X43441Y-38572D01*
X43442Y-38572D01*
X43456Y-38576D01*
X43470Y-38581D01*
X43471Y-38581D01*
X43472Y-38581D01*
X43487Y-38582D01*
X43501Y-38584D01*
X43503Y-38584D01*
X43503Y-38584D01*
X43503Y-38584D01*
X43503Y-38584D01*
X44094Y-38584D01*
X44109Y-38583D01*
X44123Y-38581D01*
X44124Y-38581D01*
X44125Y-38581D01*
X44139Y-38577D01*
X44153Y-38573D01*
X44154Y-38572D01*
X44155Y-38572D01*
X44168Y-38565D01*
X44181Y-38558D01*
X44181Y-38558D01*
X44182Y-38558D01*
X44194Y-38548D01*
X44205Y-38539D01*
X44206Y-38538D01*
X44206Y-38538D01*
X44206Y-38538D01*
X44207Y-38537D01*
X44350Y-38394D01*
X44356Y-38387D01*
X44666Y-38387D01*
X44652Y-38408D01*
X44634Y-38451D01*
X44624Y-38496D01*
X44623Y-38543D01*
X44632Y-38589D01*
X44644Y-38620D01*
X43917Y-38620D01*
X43902Y-38621D01*
X43887Y-38622D01*
X43887Y-38623D01*
X43886Y-38623D01*
X43872Y-38627D01*
X43858Y-38631D01*
X43857Y-38631D01*
X43856Y-38632D01*
X43843Y-38639D01*
X43830Y-38645D01*
X43829Y-38646D01*
X43829Y-38646D01*
X43817Y-38656D01*
X43806Y-38665D01*
X43804Y-38666D01*
X43804Y-38666D01*
X43804Y-38666D01*
X43804Y-38666D01*
X43654Y-38817D01*
X43620Y-38816D01*
X43574Y-38825D01*
X43530Y-38843D01*
X43491Y-38868D01*
X43458Y-38901D01*
X43431Y-38939D01*
X43413Y-38982D01*
X43403Y-39028D01*
X43403Y-39075D01*
X43411Y-39121D01*
X43428Y-39164D01*
X43454Y-39203D01*
X43486Y-39237D01*
X43524Y-39264D01*
X43567Y-39282D01*
X43613Y-39292D01*
X43660Y-39293D01*
X43706Y-39285D01*
X43749Y-39268D01*
X43789Y-39243D01*
X43822Y-39211D01*
X43849Y-39173D01*
X43868Y-39130D01*
X43879Y-39085D01*
X43879Y-39042D01*
X43949Y-38973D01*
X43945Y-38982D01*
X43935Y-39028D01*
X43934Y-39075D01*
X43943Y-39121D01*
X43960Y-39164D01*
X43985Y-39203D01*
X44018Y-39237D01*
X44056Y-39264D01*
X44099Y-39282D01*
X44144Y-39292D01*
X44191Y-39293D01*
X44198Y-39292D01*
X44446Y-39514D01*
X44460Y-39528D01*
X44471Y-39537D01*
X44482Y-39546D01*
X44483Y-39547D01*
X44484Y-39547D01*
X44497Y-39554D01*
X44510Y-39561D01*
X44510Y-39562D01*
X44511Y-39562D01*
X44525Y-39566D01*
X44539Y-39571D01*
X44540Y-39571D01*
X44541Y-39571D01*
X44555Y-39573D01*
X44570Y-39574D01*
X44572Y-39574D01*
X44572Y-39574D01*
X44572Y-39574D01*
X44572Y-39574D01*
X44578Y-39574D01*
X44578Y-39736D01*
X44578Y-39736D01*
X44534Y-39744D01*
X44492Y-39761D01*
X44488Y-39764D01*
X44485Y-39762D01*
X44443Y-39745D01*
X44399Y-39736D01*
X44383Y-39736D01*
X44383Y-39685D01*
X44382Y-39670D01*
X44381Y-39655D01*
X44380Y-39654D01*
X44380Y-39654D01*
X44376Y-39639D01*
X44372Y-39625D01*
X44371Y-39624D01*
X44371Y-39624D01*
X44364Y-39611D01*
X44357Y-39597D01*
X44357Y-39597D01*
X44357Y-39596D01*
X44347Y-39585D01*
X44338Y-39573D01*
X44337Y-39573D01*
X44337Y-39572D01*
X44325Y-39563D01*
X44314Y-39553D01*
X44314Y-39553D01*
X44313Y-39552D01*
X44300Y-39545D01*
X44287Y-39538D01*
X44286Y-39538D01*
X44286Y-39538D01*
X44271Y-39533D01*
X44257Y-39529D01*
X44257Y-39529D01*
X44256Y-39528D01*
X44241Y-39527D01*
X44226Y-39525D01*
X44225Y-39525D01*
X44225Y-39525D01*
X44225Y-39525D01*
X44224Y-39525D01*
X43267Y-39525D01*
X43253Y-39527D01*
X43238Y-39528D01*
X43237Y-39528D01*
X43236Y-39528D01*
X43222Y-39532D01*
X43208Y-39536D01*
X43207Y-39537D01*
X43206Y-39537D01*
X43193Y-39544D01*
X43180Y-39551D01*
X43180Y-39551D01*
X43179Y-39552D01*
X43168Y-39561D01*
X43156Y-39570D01*
X43155Y-39571D01*
X43155Y-39571D01*
X43155Y-39571D01*
X43154Y-39572D01*
X42950Y-39776D01*
X42950Y-39137D01*
X42950Y-38815D01*
X42942Y-38774D01*
X42885Y-38604D01*
X42797Y-38448D01*
X42681Y-38313D01*
X42540Y-38202D01*
X42380Y-38121D01*
X42208Y-38073D01*
X42064Y-38091D01*
X42064Y-38958D01*
X42931Y-38958D01*
X42950Y-38815D01*
X42950Y-39137D01*
X42931Y-38994D01*
X42064Y-38994D01*
X42064Y-39861D01*
X42208Y-39879D01*
X42380Y-39831D01*
X42540Y-39749D01*
X42681Y-39639D01*
X42797Y-39503D01*
X42885Y-39347D01*
X42942Y-39177D01*
X42950Y-39137D01*
X42950Y-39776D01*
X42709Y-40017D01*
X42029Y-40017D01*
X42029Y-39861D01*
X42029Y-38994D01*
X41162Y-38994D01*
X41144Y-39137D01*
X41152Y-39177D01*
X41208Y-39347D01*
X41296Y-39503D01*
X41413Y-39639D01*
X41554Y-39749D01*
X41713Y-39831D01*
X41886Y-39879D01*
X42029Y-39861D01*
X42029Y-40017D01*
X41660Y-40017D01*
X40985Y-39342D01*
X40986Y-39307D01*
X40977Y-39261D01*
X40959Y-39218D01*
X40933Y-39179D01*
X40900Y-39146D01*
X40861Y-39120D01*
X40818Y-39102D01*
X40773Y-39092D01*
X40726Y-39092D01*
X40680Y-39101D01*
X40637Y-39118D01*
X40598Y-39144D01*
X40564Y-39176D01*
X40538Y-39215D01*
X40519Y-39258D01*
X40510Y-39304D01*
X40509Y-39350D01*
X40517Y-39396D01*
X40535Y-39440D01*
X40560Y-39479D01*
X40592Y-39512D01*
X40631Y-39539D01*
X40674Y-39558D01*
X40719Y-39568D01*
X40761Y-39569D01*
X41481Y-40289D01*
X41493Y-40299D01*
X41504Y-40308D01*
X41505Y-40309D01*
X41505Y-40309D01*
X41518Y-40316D01*
X41531Y-40323D01*
X41532Y-40323D01*
X41533Y-40324D01*
X41547Y-40328D01*
X41561Y-40333D01*
X41562Y-40333D01*
X41562Y-40333D01*
X41577Y-40334D01*
X41592Y-40336D01*
X41593Y-40336D01*
X41593Y-40336D01*
X41593Y-40336D01*
X41594Y-40336D01*
X42775Y-40336D01*
X42790Y-40335D01*
X42804Y-40333D01*
X42805Y-40333D01*
X42806Y-40333D01*
X42820Y-40329D01*
X42834Y-40325D01*
X42835Y-40324D01*
X42836Y-40324D01*
X42849Y-40317D01*
X42862Y-40310D01*
X42863Y-40310D01*
X42863Y-40309D01*
X42875Y-40300D01*
X42886Y-40291D01*
X42887Y-40290D01*
X42887Y-40290D01*
X42887Y-40290D01*
X42888Y-40289D01*
X43333Y-39844D01*
X43405Y-39844D01*
X43398Y-39855D01*
X43381Y-39896D01*
X43372Y-39940D01*
X43371Y-39985D01*
X43372Y-40853D01*
X43380Y-40897D01*
X43397Y-40938D01*
X43422Y-40975D01*
X43454Y-41007D01*
X43491Y-41032D01*
X43532Y-41049D01*
X43549Y-41053D01*
X43549Y-41179D01*
X43550Y-41196D01*
X43552Y-41213D01*
X43552Y-41214D01*
X43552Y-41215D01*
X43557Y-41232D01*
X43562Y-41249D01*
X43563Y-41250D01*
X43563Y-41251D01*
X43571Y-41266D01*
X43579Y-41282D01*
X43580Y-41282D01*
X43580Y-41283D01*
X43591Y-41297D01*
X43602Y-41310D01*
X43604Y-41312D01*
X43604Y-41312D01*
X43604Y-41312D01*
X43604Y-41312D01*
X43764Y-41472D01*
X43777Y-41483D01*
X43790Y-41494D01*
X43791Y-41494D01*
X43792Y-41495D01*
X43807Y-41503D01*
X43823Y-41512D01*
X43824Y-41512D01*
X43825Y-41513D01*
X43841Y-41518D01*
X43858Y-41523D01*
X43859Y-41523D01*
X43860Y-41523D01*
X43877Y-41525D01*
X43894Y-41527D01*
X43896Y-41527D01*
X43896Y-41527D01*
X43897Y-41527D01*
X43897Y-41527D01*
X44232Y-41527D01*
X44226Y-41530D01*
X44222Y-41533D01*
X44186Y-41602D01*
X44488Y-41904D01*
X44789Y-41602D01*
X44753Y-41533D01*
X44743Y-41527D01*
X45255Y-41527D01*
X45186Y-41573D01*
X45122Y-41635D01*
X45072Y-41709D01*
X45036Y-41790D01*
X45018Y-41878D01*
X45017Y-41967D01*
X45033Y-42055D01*
X45066Y-42137D01*
X45114Y-42212D01*
X45176Y-42277D01*
X45210Y-42301D01*
X44964Y-42301D01*
X44964Y-41931D01*
X44956Y-41838D01*
X44929Y-41749D01*
X44886Y-41667D01*
X44883Y-41663D01*
X44814Y-41627D01*
X44513Y-41929D01*
X44814Y-42230D01*
X44883Y-42194D01*
X44928Y-42112D01*
X44955Y-42023D01*
X44964Y-41931D01*
X44964Y-42301D01*
X44766Y-42301D01*
X44789Y-42255D01*
X44488Y-41954D01*
X44463Y-41979D01*
X44463Y-41929D01*
X44161Y-41627D01*
X44092Y-41663D01*
X44048Y-41745D01*
X44021Y-41834D01*
X44011Y-41926D01*
X44020Y-42019D01*
X44046Y-42108D01*
X44089Y-42191D01*
X44092Y-42194D01*
X44161Y-42230D01*
X44463Y-41929D01*
X44463Y-41979D01*
X44186Y-42255D01*
X44210Y-42301D01*
X44022Y-42301D01*
X43890Y-42169D01*
X43901Y-42154D01*
X43937Y-42073D01*
X43957Y-41986D01*
X43958Y-41884D01*
X43941Y-41797D01*
X43907Y-41714D01*
X43858Y-41640D01*
X43795Y-41577D01*
X43721Y-41527D01*
X43639Y-41492D01*
X43551Y-41474D01*
X43462Y-41474D01*
X43374Y-41490D01*
X43292Y-41524D01*
X43217Y-41573D01*
X43153Y-41635D01*
X43103Y-41709D01*
X43068Y-41790D01*
X43049Y-41878D01*
X43048Y-41967D01*
X43064Y-42055D01*
X43097Y-42137D01*
X43145Y-42212D01*
X43207Y-42277D01*
X43281Y-42327D01*
X43362Y-42363D01*
X43449Y-42382D01*
X43538Y-42384D01*
X43626Y-42369D01*
X43636Y-42365D01*
X43843Y-42573D01*
X43855Y-42582D01*
X43866Y-42592D01*
X43867Y-42592D01*
X43867Y-42593D01*
X43880Y-42600D01*
X43893Y-42607D01*
X43894Y-42607D01*
X43895Y-42607D01*
X43909Y-42612D01*
X43923Y-42616D01*
X43924Y-42616D01*
X43925Y-42616D01*
X43939Y-42618D01*
X43954Y-42620D01*
X43956Y-42620D01*
X43956Y-42620D01*
X43956Y-42620D01*
X43956Y-42620D01*
X45787Y-42620D01*
X45802Y-42618D01*
X45816Y-42617D01*
X45817Y-42617D01*
X45818Y-42617D01*
X45832Y-42612D01*
X45846Y-42608D01*
X45847Y-42608D01*
X45848Y-42608D01*
X45861Y-42601D01*
X45874Y-42594D01*
X45874Y-42593D01*
X45875Y-42593D01*
X45887Y-42584D01*
X45898Y-42574D01*
X45899Y-42573D01*
X45899Y-42573D01*
X45899Y-42573D01*
X45900Y-42573D01*
X46274Y-42199D01*
X46283Y-42187D01*
X46292Y-42176D01*
X46293Y-42175D01*
X46293Y-42175D01*
X46300Y-42162D01*
X46307Y-42149D01*
X46308Y-42148D01*
X46308Y-42147D01*
X46312Y-42133D01*
X46317Y-42119D01*
X46317Y-42118D01*
X46317Y-42118D01*
X46319Y-42103D01*
X46320Y-42088D01*
X46320Y-42087D01*
X46320Y-42087D01*
X46320Y-42087D01*
X46320Y-42086D01*
X46320Y-41601D01*
X48419Y-39502D01*
X48429Y-39491D01*
X48438Y-39479D01*
X48439Y-39479D01*
X48439Y-39478D01*
X48446Y-39465D01*
X48453Y-39452D01*
X48453Y-39451D01*
X48454Y-39451D01*
X48458Y-39436D01*
X48463Y-39422D01*
X48463Y-39422D01*
X48463Y-39421D01*
X48464Y-39406D01*
X48466Y-39391D01*
X48466Y-39390D01*
X48466Y-39390D01*
X48466Y-39390D01*
X48466Y-39389D01*
X48466Y-38661D01*
X48465Y-38646D01*
X48463Y-38632D01*
X48463Y-38631D01*
X48463Y-38630D01*
X48459Y-38616D01*
X48455Y-38602D01*
X48454Y-38601D01*
X48454Y-38600D01*
X48447Y-38587D01*
X48440Y-38574D01*
X48440Y-38573D01*
X48439Y-38573D01*
X48430Y-38561D01*
X48421Y-38550D01*
X48420Y-38549D01*
X48420Y-38549D01*
X48420Y-38549D01*
X48419Y-38548D01*
X48330Y-38459D01*
X48332Y-38458D01*
X48375Y-38441D01*
X48415Y-38416D01*
X48448Y-38384D01*
X48475Y-38346D01*
X48494Y-38303D01*
X48505Y-38258D01*
X48505Y-38204D01*
X48496Y-38159D01*
X48479Y-38115D01*
X48453Y-38077D01*
X48420Y-38043D01*
X48381Y-38017D01*
X48338Y-37999D01*
X48338Y-37983D01*
X48459Y-37983D01*
X48488Y-37978D01*
X48515Y-37966D01*
X48539Y-37950D01*
X48560Y-37930D01*
X48576Y-37905D01*
X48588Y-37878D01*
X48594Y-37849D01*
X48594Y-37820D01*
X48594Y-37308D01*
X48588Y-37279D01*
X48577Y-37252D01*
X48561Y-37228D01*
X48540Y-37207D01*
X48518Y-37192D01*
X48527Y-37186D01*
X48545Y-37168D01*
X48559Y-37147D01*
X48569Y-37123D01*
X48574Y-37098D01*
X48574Y-36562D01*
X48569Y-36537D01*
X48559Y-36513D01*
X48545Y-36492D01*
X48527Y-36474D01*
X48506Y-36460D01*
X48483Y-36450D01*
X48458Y-36445D01*
X48432Y-36445D01*
X48199Y-36445D01*
X48167Y-36477D01*
X48167Y-36813D01*
X48542Y-36813D01*
X48574Y-36780D01*
X48574Y-36562D01*
X48574Y-37098D01*
X48574Y-36880D01*
X48542Y-36848D01*
X48167Y-36848D01*
X48167Y-36856D01*
X48131Y-36856D01*
X48131Y-36848D01*
X48131Y-36813D01*
X48131Y-36477D01*
X48099Y-36445D01*
X47866Y-36445D01*
X47840Y-36445D01*
X47816Y-36450D01*
X47792Y-36460D01*
X47771Y-36474D01*
X47753Y-36492D01*
X47739Y-36513D01*
X47729Y-36537D01*
X47724Y-36562D01*
X47724Y-36780D01*
X47757Y-36813D01*
X48131Y-36813D01*
X48131Y-36848D01*
X47757Y-36848D01*
X47724Y-36880D01*
X47724Y-37098D01*
X47729Y-37123D01*
X47739Y-37147D01*
X47753Y-37168D01*
X47771Y-37186D01*
X47780Y-37192D01*
X47759Y-37206D01*
X47738Y-37227D01*
X47722Y-37251D01*
X47710Y-37278D01*
X47705Y-37307D01*
X47704Y-37322D01*
X47553Y-37170D01*
X47542Y-37161D01*
X47531Y-37151D01*
X47530Y-37151D01*
X47529Y-37150D01*
X47516Y-37144D01*
X47503Y-37136D01*
X47502Y-37136D01*
X47502Y-37136D01*
X47488Y-37131D01*
X47474Y-37127D01*
X47473Y-37127D01*
X47472Y-37127D01*
X47457Y-37125D01*
X47443Y-37124D01*
X47441Y-37124D01*
X47441Y-37124D01*
X47441Y-37124D01*
X47440Y-37124D01*
X47334Y-37124D01*
X47334Y-37067D01*
X47334Y-37056D01*
X47334Y-36859D01*
X47334Y-36859D01*
X47334Y-36733D01*
X47334Y-36722D01*
X47334Y-36465D01*
X47334Y-36465D01*
X47334Y-36366D01*
X47225Y-36366D01*
X47214Y-36366D01*
X47187Y-36366D01*
X47187Y-36220D01*
X47185Y-36205D01*
X47184Y-36191D01*
X47184Y-36190D01*
X47183Y-36189D01*
X47179Y-36175D01*
X47175Y-36161D01*
X47175Y-36160D01*
X47174Y-36159D01*
X47168Y-36146D01*
X47161Y-36133D01*
X47160Y-36132D01*
X47160Y-36132D01*
X47151Y-36120D01*
X47141Y-36109D01*
X47140Y-36108D01*
X47140Y-36108D01*
X47140Y-36108D01*
X47140Y-36107D01*
X47081Y-36048D01*
X47069Y-36039D01*
X47058Y-36029D01*
X47057Y-36029D01*
X47057Y-36028D01*
X47044Y-36021D01*
X47031Y-36014D01*
X47030Y-36014D01*
X47029Y-36014D01*
X47015Y-36009D01*
X47001Y-36005D01*
X47000Y-36005D01*
X47000Y-36005D01*
X46985Y-36003D01*
X46970Y-36001D01*
X46969Y-36001D01*
X46969Y-36001D01*
X46969Y-36001D01*
X46968Y-36001D01*
X46443Y-36001D01*
X46443Y-34564D01*
X46443Y-33938D01*
X46442Y-33913D01*
X46437Y-33888D01*
X46427Y-33865D01*
X46413Y-33843D01*
X46395Y-33825D01*
X46374Y-33811D01*
X46350Y-33802D01*
X46325Y-33797D01*
X46038Y-33797D01*
X46005Y-33829D01*
X46005Y-34234D01*
X46410Y-34234D01*
X46442Y-34201D01*
X46443Y-33938D01*
X46443Y-34564D01*
X46442Y-34302D01*
X46410Y-34269D01*
X46005Y-34269D01*
X46005Y-34674D01*
X46038Y-34706D01*
X46325Y-34706D01*
X46350Y-34701D01*
X46374Y-34692D01*
X46395Y-34677D01*
X46413Y-34659D01*
X46427Y-34638D01*
X46437Y-34615D01*
X46442Y-34590D01*
X46443Y-34564D01*
X46443Y-36001D01*
X46358Y-36001D01*
X46333Y-35977D01*
X46294Y-35950D01*
X46251Y-35932D01*
X46206Y-35923D01*
X46159Y-35923D01*
X46113Y-35931D01*
X46070Y-35949D01*
X46031Y-35974D01*
X45997Y-36007D01*
X45971Y-36046D01*
X45970Y-36048D01*
X45970Y-34674D01*
X45970Y-34269D01*
X45970Y-34234D01*
X45970Y-33829D01*
X45937Y-33797D01*
X45650Y-33797D01*
X45625Y-33802D01*
X45602Y-33811D01*
X45580Y-33825D01*
X45562Y-33843D01*
X45548Y-33865D01*
X45538Y-33888D01*
X45533Y-33913D01*
X45533Y-33938D01*
X45533Y-34201D01*
X45565Y-34234D01*
X45970Y-34234D01*
X45970Y-34269D01*
X45565Y-34269D01*
X45533Y-34302D01*
X45533Y-34564D01*
X45533Y-34590D01*
X45538Y-34615D01*
X45548Y-34638D01*
X45562Y-34659D01*
X45580Y-34677D01*
X45602Y-34692D01*
X45625Y-34701D01*
X45650Y-34706D01*
X45937Y-34706D01*
X45970Y-34674D01*
X45970Y-36048D01*
X45952Y-36089D01*
X45943Y-36134D01*
X45942Y-36156D01*
X45940Y-36130D01*
X45914Y-36040D01*
X45870Y-35958D01*
X45868Y-35954D01*
X45798Y-35919D01*
X45497Y-36220D01*
X45503Y-36226D01*
X45478Y-36251D01*
X45472Y-36245D01*
X45171Y-36546D01*
X45206Y-36616D01*
X45288Y-36660D01*
X45377Y-36687D01*
X45470Y-36697D01*
X45562Y-36688D01*
X45652Y-36662D01*
X45688Y-36642D01*
X45695Y-36680D01*
X45712Y-36723D01*
X45737Y-36762D01*
X45765Y-36791D01*
X45741Y-36814D01*
X45715Y-36853D01*
X45697Y-36896D01*
X45687Y-36941D01*
X45686Y-36988D01*
X45695Y-37034D01*
X45712Y-37077D01*
X45737Y-37117D01*
X45770Y-37150D01*
X45808Y-37177D01*
X45833Y-37188D01*
X45753Y-37269D01*
X45744Y-37280D01*
X45734Y-37291D01*
X45734Y-37292D01*
X45733Y-37293D01*
X45726Y-37306D01*
X45726Y-37306D01*
X45716Y-37313D01*
X45682Y-37346D01*
X45656Y-37384D01*
X45638Y-37427D01*
X45628Y-37473D01*
X45627Y-37520D01*
X45636Y-37565D01*
X45653Y-37609D01*
X45678Y-37648D01*
X45711Y-37682D01*
X45749Y-37708D01*
X45792Y-37727D01*
X45804Y-37730D01*
X45505Y-38028D01*
X45505Y-37818D01*
X45505Y-36976D01*
X45505Y-36950D01*
X45500Y-36925D01*
X45490Y-36902D01*
X45476Y-36881D01*
X45458Y-36863D01*
X45437Y-36849D01*
X45413Y-36839D01*
X45388Y-36834D01*
X45288Y-36834D01*
X45255Y-36867D01*
X45255Y-37379D01*
X45473Y-37379D01*
X45505Y-37347D01*
X45505Y-36976D01*
X45505Y-37818D01*
X45505Y-37447D01*
X45473Y-37415D01*
X45255Y-37415D01*
X45255Y-37928D01*
X45288Y-37960D01*
X45388Y-37960D01*
X45413Y-37955D01*
X45437Y-37945D01*
X45458Y-37931D01*
X45476Y-37913D01*
X45490Y-37892D01*
X45500Y-37869D01*
X45505Y-37844D01*
X45505Y-37818D01*
X45505Y-38028D01*
X45465Y-38068D01*
X44397Y-38068D01*
X44397Y-38059D01*
X44398Y-38059D01*
X44442Y-38050D01*
X44483Y-38033D01*
X44488Y-38030D01*
X44491Y-38032D01*
X44532Y-38049D01*
X44576Y-38058D01*
X44621Y-38059D01*
X44898Y-38059D01*
X44942Y-38050D01*
X44983Y-38033D01*
X45021Y-38008D01*
X45052Y-37976D01*
X45066Y-37956D01*
X45087Y-37960D01*
X45187Y-37960D01*
X45220Y-37928D01*
X45220Y-37415D01*
X45212Y-37415D01*
X45212Y-37379D01*
X45220Y-37379D01*
X45220Y-36867D01*
X45187Y-36834D01*
X45087Y-36834D01*
X45066Y-36838D01*
X45053Y-36819D01*
X45022Y-36787D01*
X44985Y-36762D01*
X44943Y-36745D01*
X44899Y-36736D01*
X44897Y-36736D01*
X44897Y-36647D01*
X44896Y-36632D01*
X44894Y-36618D01*
X44894Y-36617D01*
X44894Y-36616D01*
X44890Y-36602D01*
X44886Y-36588D01*
X44885Y-36587D01*
X44885Y-36586D01*
X44878Y-36573D01*
X44871Y-36560D01*
X44871Y-36560D01*
X44870Y-36559D01*
X44861Y-36547D01*
X44852Y-36536D01*
X44851Y-36535D01*
X44851Y-36535D01*
X44851Y-36535D01*
X44850Y-36534D01*
X44837Y-36521D01*
X44825Y-36511D01*
X44814Y-36502D01*
X44813Y-36501D01*
X44813Y-36501D01*
X44800Y-36494D01*
X44787Y-36487D01*
X44786Y-36487D01*
X44785Y-36486D01*
X44771Y-36482D01*
X44757Y-36477D01*
X44756Y-36477D01*
X44755Y-36477D01*
X44741Y-36476D01*
X44726Y-36474D01*
X44724Y-36474D01*
X44724Y-36474D01*
X44724Y-36474D01*
X44724Y-36474D01*
X44153Y-36474D01*
X44128Y-36449D01*
X44090Y-36423D01*
X44047Y-36405D01*
X44001Y-36395D01*
X43954Y-36395D01*
X43920Y-36401D01*
X43930Y-36379D01*
X44606Y-36379D01*
X44620Y-36378D01*
X44635Y-36377D01*
X44636Y-36376D01*
X44637Y-36376D01*
X44651Y-36372D01*
X44665Y-36368D01*
X44666Y-36368D01*
X44667Y-36367D01*
X44680Y-36360D01*
X44693Y-36354D01*
X44693Y-36353D01*
X44694Y-36353D01*
X44705Y-36343D01*
X44717Y-36334D01*
X44718Y-36333D01*
X44718Y-36333D01*
X44718Y-36333D01*
X44719Y-36333D01*
X45052Y-35999D01*
X45032Y-36036D01*
X45005Y-36125D01*
X44995Y-36218D01*
X45004Y-36310D01*
X45030Y-36400D01*
X45074Y-36482D01*
X45076Y-36486D01*
X45146Y-36521D01*
X45447Y-36220D01*
X45441Y-36214D01*
X45466Y-36189D01*
X45472Y-36195D01*
X45773Y-35894D01*
X45738Y-35824D01*
X45656Y-35780D01*
X45659Y-35779D01*
X45692Y-35746D01*
X45719Y-35708D01*
X45738Y-35666D01*
X45749Y-35620D01*
X45750Y-35567D01*
X45740Y-35521D01*
X45723Y-35478D01*
X45697Y-35439D01*
X45664Y-35406D01*
X45625Y-35380D01*
X45582Y-35361D01*
X45536Y-35352D01*
X45490Y-35352D01*
X45444Y-35360D01*
X45400Y-35378D01*
X45361Y-35404D01*
X45334Y-35431D01*
X45236Y-35431D01*
X45221Y-35432D01*
X45206Y-35433D01*
X45206Y-35434D01*
X45205Y-35434D01*
X45191Y-35438D01*
X45177Y-35442D01*
X45176Y-35442D01*
X45175Y-35443D01*
X45162Y-35450D01*
X45149Y-35456D01*
X45148Y-35457D01*
X45147Y-35457D01*
X45136Y-35467D01*
X45125Y-35476D01*
X45123Y-35477D01*
X45123Y-35477D01*
X45123Y-35477D01*
X45123Y-35477D01*
X44540Y-36061D01*
X43930Y-36061D01*
X43907Y-36005D01*
X43858Y-35931D01*
X43795Y-35868D01*
X43721Y-35818D01*
X43639Y-35783D01*
X43551Y-35766D01*
X43462Y-35765D01*
X43384Y-35780D01*
X43889Y-35275D01*
X43922Y-35269D01*
X43966Y-35253D01*
X44005Y-35228D01*
X44200Y-35228D01*
X44218Y-35226D01*
X44235Y-35225D01*
X44236Y-35224D01*
X44237Y-35224D01*
X44254Y-35219D01*
X44270Y-35214D01*
X44271Y-35214D01*
X44272Y-35214D01*
X44288Y-35205D01*
X44303Y-35197D01*
X44304Y-35197D01*
X44305Y-35196D01*
X44318Y-35185D01*
X44332Y-35174D01*
X44333Y-35173D01*
X44333Y-35173D01*
X44333Y-35173D01*
X44334Y-35172D01*
X44731Y-34775D01*
X45296Y-34775D01*
X45339Y-34771D01*
X45382Y-34758D01*
X45422Y-34737D01*
X45456Y-34708D01*
X45485Y-34674D01*
X45506Y-34634D01*
X45519Y-34591D01*
X45523Y-34548D01*
X45523Y-33994D01*
X45519Y-33951D01*
X45506Y-33908D01*
X45485Y-33869D01*
X45456Y-33834D01*
X45422Y-33806D01*
X45382Y-33784D01*
X45339Y-33771D01*
X45296Y-33767D01*
X42675Y-33767D01*
X42632Y-33771D01*
X42589Y-33784D01*
X42550Y-33806D01*
X42515Y-33834D01*
X42487Y-33869D01*
X42466Y-33908D01*
X42453Y-33951D01*
X42448Y-33994D01*
X42448Y-34548D01*
X42453Y-34591D01*
X42466Y-34634D01*
X42487Y-34674D01*
X42515Y-34708D01*
X42550Y-34737D01*
X42589Y-34758D01*
X42632Y-34771D01*
X42675Y-34775D01*
X42832Y-34775D01*
X42832Y-35071D01*
X41606Y-36298D01*
X41606Y-35795D01*
X40011Y-35795D01*
X40011Y-35597D01*
X40014Y-35598D01*
X40057Y-35602D01*
X40749Y-35602D01*
X40792Y-35598D01*
X40804Y-35594D01*
X40831Y-35600D01*
X41018Y-35604D01*
X41203Y-35571D01*
X41378Y-35503D01*
X41536Y-35403D01*
X41672Y-35273D01*
X41780Y-35120D01*
X41857Y-34949D01*
X41898Y-34766D01*
X41901Y-34551D01*
X41892Y-34507D01*
X41897Y-34493D01*
X41901Y-34450D01*
X41901Y-33758D01*
X41897Y-33715D01*
X41896Y-33712D01*
X47079Y-33712D01*
X47079Y-33715D01*
X47074Y-33758D01*
X47074Y-34450D01*
X47079Y-34493D01*
X47082Y-34506D01*
X47076Y-34538D01*
X47073Y-34726D01*
X47107Y-34910D01*
X47176Y-35085D01*
X47278Y-35242D01*
X47408Y-35377D01*
X47562Y-35484D01*
X47734Y-35559D01*
X47917Y-35600D01*
X48105Y-35604D01*
X48167Y-35593D01*
X48183Y-35598D01*
X48226Y-35602D01*
X48918Y-35602D01*
X48961Y-35598D01*
X48964Y-35597D01*
X48964Y-40780D01*
X48964Y-40780D01*
G37*
G54D27*
X48964Y-40780D02*
X48961Y-40779D01*
X48918Y-40775D01*
X48226Y-40775D01*
X48183Y-40779D01*
X48169Y-40784D01*
X48131Y-40776D01*
X47944Y-40774D01*
X47760Y-40810D01*
X47586Y-40880D01*
X47429Y-40983D01*
X47295Y-41114D01*
X47189Y-41269D01*
X47115Y-41441D01*
X47076Y-41625D01*
X47073Y-41812D01*
X47083Y-41868D01*
X47079Y-41884D01*
X47074Y-41927D01*
X47074Y-42619D01*
X47079Y-42662D01*
X47079Y-42665D01*
X41896Y-42665D01*
X41897Y-42662D01*
X41901Y-42619D01*
X41901Y-41927D01*
X41897Y-41884D01*
X41893Y-41873D01*
X41898Y-41852D01*
X41901Y-41638D01*
X41865Y-41454D01*
X41793Y-41280D01*
X41689Y-41124D01*
X41557Y-40991D01*
X41402Y-40886D01*
X41229Y-40813D01*
X41045Y-40776D01*
X40857Y-40774D01*
X40807Y-40784D01*
X40792Y-40779D01*
X40749Y-40775D01*
X40057Y-40775D01*
X40014Y-40779D01*
X40011Y-40780D01*
X40011Y-37930D01*
X40016Y-37944D01*
X40050Y-38008D01*
X40110Y-38033D01*
X40348Y-37795D01*
X40110Y-37556D01*
X40050Y-37581D01*
X40015Y-37648D01*
X40011Y-37659D01*
X40011Y-37433D01*
X40239Y-37433D01*
X40224Y-37437D01*
X40160Y-37471D01*
X40135Y-37531D01*
X40374Y-37770D01*
X40379Y-37764D01*
X40404Y-37789D01*
X40399Y-37795D01*
X40404Y-37800D01*
X40379Y-37825D01*
X40374Y-37820D01*
X40135Y-38058D01*
X40160Y-38119D01*
X40227Y-38154D01*
X40300Y-38175D01*
X40375Y-38182D01*
X40450Y-38175D01*
X40523Y-38153D01*
X40587Y-38119D01*
X40612Y-38058D01*
X40612Y-38058D01*
X40627Y-38074D01*
X40627Y-38444D01*
X40612Y-38460D01*
X40604Y-38468D01*
X40577Y-38506D01*
X40559Y-38549D01*
X40549Y-38595D01*
X40548Y-38642D01*
X40557Y-38688D01*
X40574Y-38731D01*
X40599Y-38770D01*
X40632Y-38804D01*
X40670Y-38830D01*
X40713Y-38849D01*
X40759Y-38859D01*
X40805Y-38860D01*
X40851Y-38852D01*
X40895Y-38835D01*
X40934Y-38810D01*
X40968Y-38778D01*
X40995Y-38740D01*
X41014Y-38697D01*
X41024Y-38652D01*
X41025Y-38598D01*
X41016Y-38552D01*
X40998Y-38509D01*
X40972Y-38470D01*
X40946Y-38444D01*
X40946Y-38220D01*
X41531Y-38220D01*
X41413Y-38313D01*
X41296Y-38448D01*
X41208Y-38604D01*
X41152Y-38774D01*
X41144Y-38815D01*
X41162Y-38958D01*
X42029Y-38958D01*
X42029Y-38091D01*
X41886Y-38073D01*
X41713Y-38121D01*
X41606Y-38176D01*
X41606Y-37737D01*
X41629Y-37760D01*
X41640Y-37769D01*
X41652Y-37779D01*
X41652Y-37779D01*
X41653Y-37780D01*
X41666Y-37787D01*
X41679Y-37794D01*
X41680Y-37794D01*
X41680Y-37794D01*
X41694Y-37799D01*
X41708Y-37803D01*
X41709Y-37803D01*
X41710Y-37803D01*
X41725Y-37805D01*
X41739Y-37807D01*
X41741Y-37807D01*
X41741Y-37807D01*
X41741Y-37807D01*
X41742Y-37807D01*
X41779Y-37807D01*
X41779Y-37885D01*
X41888Y-37885D01*
X41899Y-37885D01*
X42294Y-37885D01*
X42294Y-37885D01*
X42597Y-37885D01*
X42608Y-37885D01*
X43002Y-37885D01*
X43002Y-37885D01*
X43093Y-37885D01*
X43187Y-37979D01*
X43187Y-38267D01*
X43188Y-38282D01*
X43189Y-38297D01*
X43189Y-38297D01*
X43190Y-38298D01*
X43194Y-38312D01*
X43198Y-38326D01*
X43198Y-38327D01*
X43199Y-38328D01*
X43205Y-38341D01*
X43212Y-38354D01*
X43213Y-38355D01*
X43213Y-38355D01*
X43222Y-38367D01*
X43232Y-38378D01*
X43233Y-38380D01*
X43233Y-38380D01*
X43233Y-38380D01*
X43233Y-38380D01*
X43391Y-38537D01*
X43402Y-38547D01*
X43413Y-38556D01*
X43414Y-38557D01*
X43415Y-38557D01*
X43428Y-38564D01*
X43441Y-38571D01*
X43441Y-38572D01*
X43442Y-38572D01*
X43456Y-38576D01*
X43470Y-38581D01*
X43471Y-38581D01*
X43472Y-38581D01*
X43487Y-38582D01*
X43501Y-38584D01*
X43503Y-38584D01*
X43503Y-38584D01*
X43503Y-38584D01*
X43503Y-38584D01*
X44094Y-38584D01*
X44109Y-38583D01*
X44123Y-38581D01*
X44124Y-38581D01*
X44125Y-38581D01*
X44139Y-38577D01*
X44153Y-38573D01*
X44154Y-38572D01*
X44155Y-38572D01*
X44168Y-38565D01*
X44181Y-38558D01*
X44181Y-38558D01*
X44182Y-38558D01*
X44194Y-38548D01*
X44205Y-38539D01*
X44206Y-38538D01*
X44206Y-38538D01*
X44206Y-38538D01*
X44207Y-38537D01*
X44350Y-38394D01*
X44356Y-38387D01*
X44666Y-38387D01*
X44652Y-38408D01*
X44634Y-38451D01*
X44624Y-38496D01*
X44623Y-38543D01*
X44632Y-38589D01*
X44644Y-38620D01*
X43917Y-38620D01*
X43902Y-38621D01*
X43887Y-38622D01*
X43887Y-38623D01*
X43886Y-38623D01*
X43872Y-38627D01*
X43858Y-38631D01*
X43857Y-38631D01*
X43856Y-38632D01*
X43843Y-38639D01*
X43830Y-38645D01*
X43829Y-38646D01*
X43829Y-38646D01*
X43817Y-38656D01*
X43806Y-38665D01*
X43804Y-38666D01*
X43804Y-38666D01*
X43804Y-38666D01*
X43804Y-38666D01*
X43654Y-38817D01*
X43620Y-38816D01*
X43574Y-38825D01*
X43530Y-38843D01*
X43491Y-38868D01*
X43458Y-38901D01*
X43431Y-38939D01*
X43413Y-38982D01*
X43403Y-39028D01*
X43403Y-39075D01*
X43411Y-39121D01*
X43428Y-39164D01*
X43454Y-39203D01*
X43486Y-39237D01*
X43524Y-39264D01*
X43567Y-39282D01*
X43613Y-39292D01*
X43660Y-39293D01*
X43706Y-39285D01*
X43749Y-39268D01*
X43789Y-39243D01*
X43822Y-39211D01*
X43849Y-39173D01*
X43868Y-39130D01*
X43879Y-39085D01*
X43879Y-39042D01*
X43949Y-38973D01*
X43945Y-38982D01*
X43935Y-39028D01*
X43934Y-39075D01*
X43943Y-39121D01*
X43960Y-39164D01*
X43985Y-39203D01*
X44018Y-39237D01*
X44056Y-39264D01*
X44099Y-39282D01*
X44144Y-39292D01*
X44191Y-39293D01*
X44198Y-39292D01*
X44446Y-39514D01*
X44460Y-39528D01*
X44471Y-39537D01*
X44482Y-39546D01*
X44483Y-39547D01*
X44484Y-39547D01*
X44497Y-39554D01*
X44510Y-39561D01*
X44510Y-39562D01*
X44511Y-39562D01*
X44525Y-39566D01*
X44539Y-39571D01*
X44540Y-39571D01*
X44541Y-39571D01*
X44555Y-39573D01*
X44570Y-39574D01*
X44572Y-39574D01*
X44572Y-39574D01*
X44572Y-39574D01*
X44572Y-39574D01*
X44578Y-39574D01*
X44578Y-39736D01*
X44578Y-39736D01*
X44534Y-39744D01*
X44492Y-39761D01*
X44488Y-39764D01*
X44485Y-39762D01*
X44443Y-39745D01*
X44399Y-39736D01*
X44383Y-39736D01*
X44383Y-39685D01*
X44382Y-39670D01*
X44381Y-39655D01*
X44380Y-39654D01*
X44380Y-39654D01*
X44376Y-39639D01*
X44372Y-39625D01*
X44371Y-39624D01*
X44371Y-39624D01*
X44364Y-39611D01*
X44357Y-39597D01*
X44357Y-39597D01*
X44357Y-39596D01*
X44347Y-39585D01*
X44338Y-39573D01*
X44337Y-39573D01*
X44337Y-39572D01*
X44325Y-39563D01*
X44314Y-39553D01*
X44314Y-39553D01*
X44313Y-39552D01*
X44300Y-39545D01*
X44287Y-39538D01*
X44286Y-39538D01*
X44286Y-39538D01*
X44271Y-39533D01*
X44257Y-39529D01*
X44257Y-39529D01*
X44256Y-39528D01*
X44241Y-39527D01*
X44226Y-39525D01*
X44225Y-39525D01*
X44225Y-39525D01*
X44225Y-39525D01*
X44224Y-39525D01*
X43267Y-39525D01*
X43253Y-39527D01*
X43238Y-39528D01*
X43237Y-39528D01*
X43236Y-39528D01*
X43222Y-39532D01*
X43208Y-39536D01*
X43207Y-39537D01*
X43206Y-39537D01*
X43193Y-39544D01*
X43180Y-39551D01*
X43180Y-39551D01*
X43179Y-39552D01*
X43168Y-39561D01*
X43156Y-39570D01*
X43155Y-39571D01*
X43155Y-39571D01*
X43155Y-39571D01*
X43154Y-39572D01*
X42950Y-39776D01*
X42950Y-39137D01*
X42950Y-38815D01*
X42942Y-38774D01*
X42885Y-38604D01*
X42797Y-38448D01*
X42681Y-38313D01*
X42540Y-38202D01*
X42380Y-38121D01*
X42208Y-38073D01*
X42064Y-38091D01*
X42064Y-38958D01*
X42931Y-38958D01*
X42950Y-38815D01*
X42950Y-39137D01*
X42931Y-38994D01*
X42064Y-38994D01*
X42064Y-39861D01*
X42208Y-39879D01*
X42380Y-39831D01*
X42540Y-39749D01*
X42681Y-39639D01*
X42797Y-39503D01*
X42885Y-39347D01*
X42942Y-39177D01*
X42950Y-39137D01*
X42950Y-39776D01*
X42709Y-40017D01*
X42029Y-40017D01*
X42029Y-39861D01*
X42029Y-38994D01*
X41162Y-38994D01*
X41144Y-39137D01*
X41152Y-39177D01*
X41208Y-39347D01*
X41296Y-39503D01*
X41413Y-39639D01*
X41554Y-39749D01*
X41713Y-39831D01*
X41886Y-39879D01*
X42029Y-39861D01*
X42029Y-40017D01*
X41660Y-40017D01*
X40985Y-39342D01*
X40986Y-39307D01*
X40977Y-39261D01*
X40959Y-39218D01*
X40933Y-39179D01*
X40900Y-39146D01*
X40861Y-39120D01*
X40818Y-39102D01*
X40773Y-39092D01*
X40726Y-39092D01*
X40680Y-39101D01*
X40637Y-39118D01*
X40598Y-39144D01*
X40564Y-39176D01*
X40538Y-39215D01*
X40519Y-39258D01*
X40510Y-39304D01*
X40509Y-39350D01*
X40517Y-39396D01*
X40535Y-39440D01*
X40560Y-39479D01*
X40592Y-39512D01*
X40631Y-39539D01*
X40674Y-39558D01*
X40719Y-39568D01*
X40761Y-39569D01*
X41481Y-40289D01*
X41493Y-40299D01*
X41504Y-40308D01*
X41505Y-40309D01*
X41505Y-40309D01*
X41518Y-40316D01*
X41531Y-40323D01*
X41532Y-40323D01*
X41533Y-40324D01*
X41547Y-40328D01*
X41561Y-40333D01*
X41562Y-40333D01*
X41562Y-40333D01*
X41577Y-40334D01*
X41592Y-40336D01*
X41593Y-40336D01*
X41593Y-40336D01*
X41593Y-40336D01*
X41594Y-40336D01*
X42775Y-40336D01*
X42790Y-40335D01*
X42804Y-40333D01*
X42805Y-40333D01*
X42806Y-40333D01*
X42820Y-40329D01*
X42834Y-40325D01*
X42835Y-40324D01*
X42836Y-40324D01*
X42849Y-40317D01*
X42862Y-40310D01*
X42863Y-40310D01*
X42863Y-40309D01*
X42875Y-40300D01*
X42886Y-40291D01*
X42887Y-40290D01*
X42887Y-40290D01*
X42887Y-40290D01*
X42888Y-40289D01*
X43333Y-39844D01*
X43405Y-39844D01*
X43398Y-39855D01*
X43381Y-39896D01*
X43372Y-39940D01*
X43371Y-39985D01*
X43372Y-40853D01*
X43380Y-40897D01*
X43397Y-40938D01*
X43422Y-40975D01*
X43454Y-41007D01*
X43491Y-41032D01*
X43532Y-41049D01*
X43549Y-41053D01*
X43549Y-41179D01*
X43550Y-41196D01*
X43552Y-41213D01*
X43552Y-41214D01*
X43552Y-41215D01*
X43557Y-41232D01*
X43562Y-41249D01*
X43563Y-41250D01*
X43563Y-41251D01*
X43571Y-41266D01*
X43579Y-41282D01*
X43580Y-41282D01*
X43580Y-41283D01*
X43591Y-41297D01*
X43602Y-41310D01*
X43604Y-41312D01*
X43604Y-41312D01*
X43604Y-41312D01*
X43604Y-41312D01*
X43764Y-41472D01*
X43777Y-41483D01*
X43790Y-41494D01*
X43791Y-41494D01*
X43792Y-41495D01*
X43807Y-41503D01*
X43823Y-41512D01*
X43824Y-41512D01*
X43825Y-41513D01*
X43841Y-41518D01*
X43858Y-41523D01*
X43859Y-41523D01*
X43860Y-41523D01*
X43877Y-41525D01*
X43894Y-41527D01*
X43896Y-41527D01*
X43896Y-41527D01*
X43897Y-41527D01*
X43897Y-41527D01*
X44232Y-41527D01*
X44226Y-41530D01*
X44222Y-41533D01*
X44186Y-41602D01*
X44488Y-41904D01*
X44789Y-41602D01*
X44753Y-41533D01*
X44743Y-41527D01*
X45255Y-41527D01*
X45186Y-41573D01*
X45122Y-41635D01*
X45072Y-41709D01*
X45036Y-41790D01*
X45018Y-41878D01*
X45017Y-41967D01*
X45033Y-42055D01*
X45066Y-42137D01*
X45114Y-42212D01*
X45176Y-42277D01*
X45210Y-42301D01*
X44964Y-42301D01*
X44964Y-41931D01*
X44956Y-41838D01*
X44929Y-41749D01*
X44886Y-41667D01*
X44883Y-41663D01*
X44814Y-41627D01*
X44513Y-41929D01*
X44814Y-42230D01*
X44883Y-42194D01*
X44928Y-42112D01*
X44955Y-42023D01*
X44964Y-41931D01*
X44964Y-42301D01*
X44766Y-42301D01*
X44789Y-42255D01*
X44488Y-41954D01*
X44463Y-41979D01*
X44463Y-41929D01*
X44161Y-41627D01*
X44092Y-41663D01*
X44048Y-41745D01*
X44021Y-41834D01*
X44011Y-41926D01*
X44020Y-42019D01*
X44046Y-42108D01*
X44089Y-42191D01*
X44092Y-42194D01*
X44161Y-42230D01*
X44463Y-41929D01*
X44463Y-41979D01*
X44186Y-42255D01*
X44210Y-42301D01*
X44022Y-42301D01*
X43890Y-42169D01*
X43901Y-42154D01*
X43937Y-42073D01*
X43957Y-41986D01*
X43958Y-41884D01*
X43941Y-41797D01*
X43907Y-41714D01*
X43858Y-41640D01*
X43795Y-41577D01*
X43721Y-41527D01*
X43639Y-41492D01*
X43551Y-41474D01*
X43462Y-41474D01*
X43374Y-41490D01*
X43292Y-41524D01*
X43217Y-41573D01*
X43153Y-41635D01*
X43103Y-41709D01*
X43068Y-41790D01*
X43049Y-41878D01*
X43048Y-41967D01*
X43064Y-42055D01*
X43097Y-42137D01*
X43145Y-42212D01*
X43207Y-42277D01*
X43281Y-42327D01*
X43362Y-42363D01*
X43449Y-42382D01*
X43538Y-42384D01*
X43626Y-42369D01*
X43636Y-42365D01*
X43843Y-42573D01*
X43855Y-42582D01*
X43866Y-42592D01*
X43867Y-42592D01*
X43867Y-42593D01*
X43880Y-42600D01*
X43893Y-42607D01*
X43894Y-42607D01*
X43895Y-42607D01*
X43909Y-42612D01*
X43923Y-42616D01*
X43924Y-42616D01*
X43925Y-42616D01*
X43939Y-42618D01*
X43954Y-42620D01*
X43956Y-42620D01*
X43956Y-42620D01*
X43956Y-42620D01*
X43956Y-42620D01*
X45787Y-42620D01*
X45802Y-42618D01*
X45816Y-42617D01*
X45817Y-42617D01*
X45818Y-42617D01*
X45832Y-42612D01*
X45846Y-42608D01*
X45847Y-42608D01*
X45848Y-42608D01*
X45861Y-42601D01*
X45874Y-42594D01*
X45874Y-42593D01*
X45875Y-42593D01*
X45887Y-42584D01*
X45898Y-42574D01*
X45899Y-42573D01*
X45899Y-42573D01*
X45899Y-42573D01*
X45900Y-42573D01*
X46274Y-42199D01*
X46283Y-42187D01*
X46292Y-42176D01*
X46293Y-42175D01*
X46293Y-42175D01*
X46300Y-42162D01*
X46307Y-42149D01*
X46308Y-42148D01*
X46308Y-42147D01*
X46312Y-42133D01*
X46317Y-42119D01*
X46317Y-42118D01*
X46317Y-42118D01*
X46319Y-42103D01*
X46320Y-42088D01*
X46320Y-42087D01*
X46320Y-42087D01*
X46320Y-42087D01*
X46320Y-42086D01*
X46320Y-41601D01*
X48419Y-39502D01*
X48429Y-39491D01*
X48438Y-39479D01*
X48439Y-39479D01*
X48439Y-39478D01*
X48446Y-39465D01*
X48453Y-39452D01*
X48453Y-39451D01*
X48454Y-39451D01*
X48458Y-39436D01*
X48463Y-39422D01*
X48463Y-39422D01*
X48463Y-39421D01*
X48464Y-39406D01*
X48466Y-39391D01*
X48466Y-39390D01*
X48466Y-39390D01*
X48466Y-39390D01*
X48466Y-39389D01*
X48466Y-38661D01*
X48465Y-38646D01*
X48463Y-38632D01*
X48463Y-38631D01*
X48463Y-38630D01*
X48459Y-38616D01*
X48455Y-38602D01*
X48454Y-38601D01*
X48454Y-38600D01*
X48447Y-38587D01*
X48440Y-38574D01*
X48440Y-38573D01*
X48439Y-38573D01*
X48430Y-38561D01*
X48421Y-38550D01*
X48420Y-38549D01*
X48420Y-38549D01*
X48420Y-38549D01*
X48419Y-38548D01*
X48330Y-38459D01*
X48332Y-38458D01*
X48375Y-38441D01*
X48415Y-38416D01*
X48448Y-38384D01*
X48475Y-38346D01*
X48494Y-38303D01*
X48505Y-38258D01*
X48505Y-38204D01*
X48496Y-38159D01*
X48479Y-38115D01*
X48453Y-38077D01*
X48420Y-38043D01*
X48381Y-38017D01*
X48338Y-37999D01*
X48338Y-37983D01*
X48459Y-37983D01*
X48488Y-37978D01*
X48515Y-37966D01*
X48539Y-37950D01*
X48560Y-37930D01*
X48576Y-37905D01*
X48588Y-37878D01*
X48594Y-37849D01*
X48594Y-37820D01*
X48594Y-37308D01*
X48588Y-37279D01*
X48577Y-37252D01*
X48561Y-37228D01*
X48540Y-37207D01*
X48518Y-37192D01*
X48527Y-37186D01*
X48545Y-37168D01*
X48559Y-37147D01*
X48569Y-37123D01*
X48574Y-37098D01*
X48574Y-36562D01*
X48569Y-36537D01*
X48559Y-36513D01*
X48545Y-36492D01*
X48527Y-36474D01*
X48506Y-36460D01*
X48483Y-36450D01*
X48458Y-36445D01*
X48432Y-36445D01*
X48199Y-36445D01*
X48167Y-36477D01*
X48167Y-36813D01*
X48542Y-36813D01*
X48574Y-36780D01*
X48574Y-36562D01*
X48574Y-37098D01*
X48574Y-36880D01*
X48542Y-36848D01*
X48167Y-36848D01*
X48167Y-36856D01*
X48131Y-36856D01*
X48131Y-36848D01*
X48131Y-36813D01*
X48131Y-36477D01*
X48099Y-36445D01*
X47866Y-36445D01*
X47840Y-36445D01*
X47816Y-36450D01*
X47792Y-36460D01*
X47771Y-36474D01*
X47753Y-36492D01*
X47739Y-36513D01*
X47729Y-36537D01*
X47724Y-36562D01*
X47724Y-36780D01*
X47757Y-36813D01*
X48131Y-36813D01*
X48131Y-36848D01*
X47757Y-36848D01*
X47724Y-36880D01*
X47724Y-37098D01*
X47729Y-37123D01*
X47739Y-37147D01*
X47753Y-37168D01*
X47771Y-37186D01*
X47780Y-37192D01*
X47759Y-37206D01*
X47738Y-37227D01*
X47722Y-37251D01*
X47710Y-37278D01*
X47705Y-37307D01*
X47704Y-37322D01*
X47553Y-37170D01*
X47542Y-37161D01*
X47531Y-37151D01*
X47530Y-37151D01*
X47529Y-37150D01*
X47516Y-37144D01*
X47503Y-37136D01*
X47502Y-37136D01*
X47502Y-37136D01*
X47488Y-37131D01*
X47474Y-37127D01*
X47473Y-37127D01*
X47472Y-37127D01*
X47457Y-37125D01*
X47443Y-37124D01*
X47441Y-37124D01*
X47441Y-37124D01*
X47441Y-37124D01*
X47440Y-37124D01*
X47334Y-37124D01*
X47334Y-37067D01*
X47334Y-37056D01*
X47334Y-36859D01*
X47334Y-36859D01*
X47334Y-36733D01*
X47334Y-36722D01*
X47334Y-36465D01*
X47334Y-36465D01*
X47334Y-36366D01*
X47225Y-36366D01*
X47214Y-36366D01*
X47187Y-36366D01*
X47187Y-36220D01*
X47185Y-36205D01*
X47184Y-36191D01*
X47184Y-36190D01*
X47183Y-36189D01*
X47179Y-36175D01*
X47175Y-36161D01*
X47175Y-36160D01*
X47174Y-36159D01*
X47168Y-36146D01*
X47161Y-36133D01*
X47160Y-36132D01*
X47160Y-36132D01*
X47151Y-36120D01*
X47141Y-36109D01*
X47140Y-36108D01*
X47140Y-36108D01*
X47140Y-36108D01*
X47140Y-36107D01*
X47081Y-36048D01*
X47069Y-36039D01*
X47058Y-36029D01*
X47057Y-36029D01*
X47057Y-36028D01*
X47044Y-36021D01*
X47031Y-36014D01*
X47030Y-36014D01*
X47029Y-36014D01*
X47015Y-36009D01*
X47001Y-36005D01*
X47000Y-36005D01*
X47000Y-36005D01*
X46985Y-36003D01*
X46970Y-36001D01*
X46969Y-36001D01*
X46969Y-36001D01*
X46969Y-36001D01*
X46968Y-36001D01*
X46443Y-36001D01*
X46443Y-34564D01*
X46443Y-33938D01*
X46442Y-33913D01*
X46437Y-33888D01*
X46427Y-33865D01*
X46413Y-33843D01*
X46395Y-33825D01*
X46374Y-33811D01*
X46350Y-33802D01*
X46325Y-33797D01*
X46038Y-33797D01*
X46005Y-33829D01*
X46005Y-34234D01*
X46410Y-34234D01*
X46442Y-34201D01*
X46443Y-33938D01*
X46443Y-34564D01*
X46442Y-34302D01*
X46410Y-34269D01*
X46005Y-34269D01*
X46005Y-34674D01*
X46038Y-34706D01*
X46325Y-34706D01*
X46350Y-34701D01*
X46374Y-34692D01*
X46395Y-34677D01*
X46413Y-34659D01*
X46427Y-34638D01*
X46437Y-34615D01*
X46442Y-34590D01*
X46443Y-34564D01*
X46443Y-36001D01*
X46358Y-36001D01*
X46333Y-35977D01*
X46294Y-35950D01*
X46251Y-35932D01*
X46206Y-35923D01*
X46159Y-35923D01*
X46113Y-35931D01*
X46070Y-35949D01*
X46031Y-35974D01*
X45997Y-36007D01*
X45971Y-36046D01*
X45970Y-36048D01*
X45970Y-34674D01*
X45970Y-34269D01*
X45970Y-34234D01*
X45970Y-33829D01*
X45937Y-33797D01*
X45650Y-33797D01*
X45625Y-33802D01*
X45602Y-33811D01*
X45580Y-33825D01*
X45562Y-33843D01*
X45548Y-33865D01*
X45538Y-33888D01*
X45533Y-33913D01*
X45533Y-33938D01*
X45533Y-34201D01*
X45565Y-34234D01*
X45970Y-34234D01*
X45970Y-34269D01*
X45565Y-34269D01*
X45533Y-34302D01*
X45533Y-34564D01*
X45533Y-34590D01*
X45538Y-34615D01*
X45548Y-34638D01*
X45562Y-34659D01*
X45580Y-34677D01*
X45602Y-34692D01*
X45625Y-34701D01*
X45650Y-34706D01*
X45937Y-34706D01*
X45970Y-34674D01*
X45970Y-36048D01*
X45952Y-36089D01*
X45943Y-36134D01*
X45942Y-36156D01*
X45940Y-36130D01*
X45914Y-36040D01*
X45870Y-35958D01*
X45868Y-35954D01*
X45798Y-35919D01*
X45497Y-36220D01*
X45503Y-36226D01*
X45478Y-36251D01*
X45472Y-36245D01*
X45171Y-36546D01*
X45206Y-36616D01*
X45288Y-36660D01*
X45377Y-36687D01*
X45470Y-36697D01*
X45562Y-36688D01*
X45652Y-36662D01*
X45688Y-36642D01*
X45695Y-36680D01*
X45712Y-36723D01*
X45737Y-36762D01*
X45765Y-36791D01*
X45741Y-36814D01*
X45715Y-36853D01*
X45697Y-36896D01*
X45687Y-36941D01*
X45686Y-36988D01*
X45695Y-37034D01*
X45712Y-37077D01*
X45737Y-37117D01*
X45770Y-37150D01*
X45808Y-37177D01*
X45833Y-37188D01*
X45753Y-37269D01*
X45744Y-37280D01*
X45734Y-37291D01*
X45734Y-37292D01*
X45733Y-37293D01*
X45726Y-37306D01*
X45726Y-37306D01*
X45716Y-37313D01*
X45682Y-37346D01*
X45656Y-37384D01*
X45638Y-37427D01*
X45628Y-37473D01*
X45627Y-37520D01*
X45636Y-37565D01*
X45653Y-37609D01*
X45678Y-37648D01*
X45711Y-37682D01*
X45749Y-37708D01*
X45792Y-37727D01*
X45804Y-37730D01*
X45505Y-38028D01*
X45505Y-37818D01*
X45505Y-36976D01*
X45505Y-36950D01*
X45500Y-36925D01*
X45490Y-36902D01*
X45476Y-36881D01*
X45458Y-36863D01*
X45437Y-36849D01*
X45413Y-36839D01*
X45388Y-36834D01*
X45288Y-36834D01*
X45255Y-36867D01*
X45255Y-37379D01*
X45473Y-37379D01*
X45505Y-37347D01*
X45505Y-36976D01*
X45505Y-37818D01*
X45505Y-37447D01*
X45473Y-37415D01*
X45255Y-37415D01*
X45255Y-37928D01*
X45288Y-37960D01*
X45388Y-37960D01*
X45413Y-37955D01*
X45437Y-37945D01*
X45458Y-37931D01*
X45476Y-37913D01*
X45490Y-37892D01*
X45500Y-37869D01*
X45505Y-37844D01*
X45505Y-37818D01*
X45505Y-38028D01*
X45465Y-38068D01*
X44397Y-38068D01*
X44397Y-38059D01*
X44398Y-38059D01*
X44442Y-38050D01*
X44483Y-38033D01*
X44488Y-38030D01*
X44491Y-38032D01*
X44532Y-38049D01*
X44576Y-38058D01*
X44621Y-38059D01*
X44898Y-38059D01*
X44942Y-38050D01*
X44983Y-38033D01*
X45021Y-38008D01*
X45052Y-37976D01*
X45066Y-37956D01*
X45087Y-37960D01*
X45187Y-37960D01*
X45220Y-37928D01*
X45220Y-37415D01*
X45212Y-37415D01*
X45212Y-37379D01*
X45220Y-37379D01*
X45220Y-36867D01*
X45187Y-36834D01*
X45087Y-36834D01*
X45066Y-36838D01*
X45053Y-36819D01*
X45022Y-36787D01*
X44985Y-36762D01*
X44943Y-36745D01*
X44899Y-36736D01*
X44897Y-36736D01*
X44897Y-36647D01*
X44896Y-36632D01*
X44894Y-36618D01*
X44894Y-36617D01*
X44894Y-36616D01*
X44890Y-36602D01*
X44886Y-36588D01*
X44885Y-36587D01*
X44885Y-36586D01*
X44878Y-36573D01*
X44871Y-36560D01*
X44871Y-36560D01*
X44870Y-36559D01*
X44861Y-36547D01*
X44852Y-36536D01*
X44851Y-36535D01*
X44851Y-36535D01*
X44851Y-36535D01*
X44850Y-36534D01*
X44837Y-36521D01*
X44825Y-36511D01*
X44814Y-36502D01*
X44813Y-36501D01*
X44813Y-36501D01*
X44800Y-36494D01*
X44787Y-36487D01*
X44786Y-36487D01*
X44785Y-36486D01*
X44771Y-36482D01*
X44757Y-36477D01*
X44756Y-36477D01*
X44755Y-36477D01*
X44741Y-36476D01*
X44726Y-36474D01*
X44724Y-36474D01*
X44724Y-36474D01*
X44724Y-36474D01*
X44724Y-36474D01*
X44153Y-36474D01*
X44128Y-36449D01*
X44090Y-36423D01*
X44047Y-36405D01*
X44001Y-36395D01*
X43954Y-36395D01*
X43920Y-36401D01*
X43930Y-36379D01*
X44606Y-36379D01*
X44620Y-36378D01*
X44635Y-36377D01*
X44636Y-36376D01*
X44637Y-36376D01*
X44651Y-36372D01*
X44665Y-36368D01*
X44666Y-36368D01*
X44667Y-36367D01*
X44680Y-36360D01*
X44693Y-36354D01*
X44693Y-36353D01*
X44694Y-36353D01*
X44705Y-36343D01*
X44717Y-36334D01*
X44718Y-36333D01*
X44718Y-36333D01*
X44718Y-36333D01*
X44719Y-36333D01*
X45052Y-35999D01*
X45032Y-36036D01*
X45005Y-36125D01*
X44995Y-36218D01*
X45004Y-36310D01*
X45030Y-36400D01*
X45074Y-36482D01*
X45076Y-36486D01*
X45146Y-36521D01*
X45447Y-36220D01*
X45441Y-36214D01*
X45466Y-36189D01*
X45472Y-36195D01*
X45773Y-35894D01*
X45738Y-35824D01*
X45656Y-35780D01*
X45659Y-35779D01*
X45692Y-35746D01*
X45719Y-35708D01*
X45738Y-35666D01*
X45749Y-35620D01*
X45750Y-35567D01*
X45740Y-35521D01*
X45723Y-35478D01*
X45697Y-35439D01*
X45664Y-35406D01*
X45625Y-35380D01*
X45582Y-35361D01*
X45536Y-35352D01*
X45490Y-35352D01*
X45444Y-35360D01*
X45400Y-35378D01*
X45361Y-35404D01*
X45334Y-35431D01*
X45236Y-35431D01*
X45221Y-35432D01*
X45206Y-35433D01*
X45206Y-35434D01*
X45205Y-35434D01*
X45191Y-35438D01*
X45177Y-35442D01*
X45176Y-35442D01*
X45175Y-35443D01*
X45162Y-35450D01*
X45149Y-35456D01*
X45148Y-35457D01*
X45147Y-35457D01*
X45136Y-35467D01*
X45125Y-35476D01*
X45123Y-35477D01*
X45123Y-35477D01*
X45123Y-35477D01*
X45123Y-35477D01*
X44540Y-36061D01*
X43930Y-36061D01*
X43907Y-36005D01*
X43858Y-35931D01*
X43795Y-35868D01*
X43721Y-35818D01*
X43639Y-35783D01*
X43551Y-35766D01*
X43462Y-35765D01*
X43384Y-35780D01*
X43889Y-35275D01*
X43922Y-35269D01*
X43966Y-35253D01*
X44005Y-35228D01*
X44200Y-35228D01*
X44218Y-35226D01*
X44235Y-35225D01*
X44236Y-35224D01*
X44237Y-35224D01*
X44254Y-35219D01*
X44270Y-35214D01*
X44271Y-35214D01*
X44272Y-35214D01*
X44288Y-35205D01*
X44303Y-35197D01*
X44304Y-35197D01*
X44305Y-35196D01*
X44318Y-35185D01*
X44332Y-35174D01*
X44333Y-35173D01*
X44333Y-35173D01*
X44333Y-35173D01*
X44334Y-35172D01*
X44731Y-34775D01*
X45296Y-34775D01*
X45339Y-34771D01*
X45382Y-34758D01*
X45422Y-34737D01*
X45456Y-34708D01*
X45485Y-34674D01*
X45506Y-34634D01*
X45519Y-34591D01*
X45523Y-34548D01*
X45523Y-33994D01*
X45519Y-33951D01*
X45506Y-33908D01*
X45485Y-33869D01*
X45456Y-33834D01*
X45422Y-33806D01*
X45382Y-33784D01*
X45339Y-33771D01*
X45296Y-33767D01*
X42675Y-33767D01*
X42632Y-33771D01*
X42589Y-33784D01*
X42550Y-33806D01*
X42515Y-33834D01*
X42487Y-33869D01*
X42466Y-33908D01*
X42453Y-33951D01*
X42448Y-33994D01*
X42448Y-34548D01*
X42453Y-34591D01*
X42466Y-34634D01*
X42487Y-34674D01*
X42515Y-34708D01*
X42550Y-34737D01*
X42589Y-34758D01*
X42632Y-34771D01*
X42675Y-34775D01*
X42832Y-34775D01*
X42832Y-35071D01*
X41606Y-36298D01*
X41606Y-35795D01*
X40011Y-35795D01*
X40011Y-35597D01*
X40014Y-35598D01*
X40057Y-35602D01*
X40749Y-35602D01*
X40792Y-35598D01*
X40804Y-35594D01*
X40831Y-35600D01*
X41018Y-35604D01*
X41203Y-35571D01*
X41378Y-35503D01*
X41536Y-35403D01*
X41672Y-35273D01*
X41780Y-35120D01*
X41857Y-34949D01*
X41898Y-34766D01*
X41901Y-34551D01*
X41892Y-34507D01*
X41897Y-34493D01*
X41901Y-34450D01*
X41901Y-33758D01*
X41897Y-33715D01*
X41896Y-33712D01*
X47079Y-33712D01*
X47079Y-33715D01*
X47074Y-33758D01*
X47074Y-34450D01*
X47079Y-34493D01*
X47082Y-34506D01*
X47076Y-34538D01*
X47073Y-34726D01*
X47107Y-34910D01*
X47176Y-35085D01*
X47278Y-35242D01*
X47408Y-35377D01*
X47562Y-35484D01*
X47734Y-35559D01*
X47917Y-35600D01*
X48105Y-35604D01*
X48167Y-35593D01*
X48183Y-35598D01*
X48226Y-35602D01*
X48918Y-35602D01*
X48961Y-35598D01*
X48964Y-35597D01*
X48964Y-40780D01*
M02*
