M48
INCH,TZ
T1C0.014
T2C0.033
T3C0.040
T4C0.043
T5C0.083
T6C0.110
%
G90
G05
T1
X040197Y-039409
X040197Y-040591
X040748Y-039331
X040748Y-040079
X040787Y-038622
X041299Y-040591
X042126Y-033957
X042126Y-034547
X042126Y-035157
X042323Y-042165
X042992Y-040906
X043248Y-037402
X043622Y-038150
X043642Y-039055
X043858Y-035039
X043976Y-036634
X044173Y-039390
X044803Y-039055
X044862Y-038524
X045433Y-038642
X045512Y-035591
X045866Y-037500
X045925Y-036614
X045925Y-036969
X046181Y-036161
X046516Y-040551
X046693Y-042028
X047382Y-037677
X048268Y-038228
X048760Y-038937
X048760Y-039941
X048780Y-035945
X048780Y-037579
T2
X040374Y-036220
X040374Y-037795
X040413Y-037008
X041161Y-037008
X041201Y-036220
X041201Y-037795
T3
X042988Y-034252
X043988Y-034252
X044988Y-034252
X045988Y-034252
T4
X043504Y-036220
X043504Y-041929
X044488Y-041929
X045472Y-036220
X045472Y-041929
T5
X040945Y-034646
X040945Y-041732
X048031Y-034646
X048031Y-041732
T6
X042303Y-038976
X046673Y-038976
T0
M30
