G04 (created by PCBNEW (2013-01-21 BZR 3918)-testing) date Tue 22 Jan 2013 10:21:49 PM CET*
%MOIN*%
G04 Gerber Fmt 3.4, Leading zero omitted, Abs format*
%FSLAX34Y34*%
G01*
G70*
G90*
G04 APERTURE LIST*
%ADD10C,3.14961e-06*%
%ADD11C,0.00984252*%
%ADD12C,0.00787402*%
%ADD13C,0.008*%
%ADD14C,0.012*%
%ADD15C,0.0001*%
%ADD16C,0.0026*%
%ADD17C,0.004*%
%ADD18C,0.001*%
%ADD19C,0.002*%
%ADD20C,0.0688976*%
%ADD21C,0.15748*%
%ADD22O,0.15748X0.15748*%
%ADD23R,0.06X0.06*%
%ADD24C,0.06*%
%ADD25R,0.0314X0.0314*%
%ADD26C,0.0984252*%
G04 APERTURE END LIST*
G54D10*
G54D11*
X39960Y-41732D02*
X39960Y-34645D01*
X48031Y-42716D02*
X40944Y-42716D01*
X49015Y-34645D02*
X49015Y-41732D01*
X40944Y-33661D02*
X48031Y-33661D01*
X39960Y-41732D02*
G75*
G03X40944Y-42716I984J0D01*
G74*
G01*
X48031Y-42716D02*
G75*
G03X49015Y-41732I0J984D01*
G74*
G01*
X49015Y-34645D02*
G75*
G03X48031Y-33661I-984J0D01*
G74*
G01*
X40944Y-33661D02*
G75*
G03X39960Y-34645I0J-984D01*
G74*
G01*
G54D12*
X43850Y-41109D02*
X44038Y-41109D01*
X43813Y-41222D02*
X43944Y-40828D01*
X44075Y-41222D01*
X44394Y-41222D02*
X44206Y-41222D01*
X44206Y-40828D01*
X44525Y-41222D02*
X44525Y-40828D01*
X44675Y-40828D01*
X44713Y-40847D01*
X44731Y-40866D01*
X44750Y-40903D01*
X44750Y-40959D01*
X44731Y-40997D01*
X44713Y-41016D01*
X44675Y-41034D01*
X44525Y-41034D01*
X44900Y-41203D02*
X44956Y-41222D01*
X45050Y-41222D01*
X45088Y-41203D01*
X45106Y-41184D01*
X45125Y-41147D01*
X45125Y-41109D01*
X45106Y-41072D01*
X45088Y-41053D01*
X45050Y-41034D01*
X44975Y-41016D01*
X44938Y-40997D01*
X44919Y-40978D01*
X44900Y-40941D01*
X44900Y-40903D01*
X44919Y-40866D01*
X44938Y-40847D01*
X44975Y-40828D01*
X45069Y-40828D01*
X45125Y-40847D01*
X44051Y-35211D02*
X44051Y-35474D01*
X43957Y-35061D02*
X43863Y-35343D01*
X44107Y-35343D01*
X44850Y-35284D02*
X45149Y-35284D01*
X45000Y-35434D02*
X45000Y-35134D01*
X45834Y-35284D02*
X46134Y-35284D01*
X42692Y-35080D02*
X42917Y-35080D01*
X42804Y-35474D02*
X42804Y-35080D01*
X43010Y-35080D02*
X43273Y-35474D01*
X43273Y-35080D02*
X43010Y-35474D01*
G54D13*
X48450Y-39585D02*
X48430Y-39566D01*
X48411Y-39528D01*
X48411Y-39433D01*
X48430Y-39395D01*
X48450Y-39376D01*
X48488Y-39357D01*
X48526Y-39357D01*
X48583Y-39376D01*
X48811Y-39604D01*
X48811Y-39357D01*
X48411Y-39109D02*
X48411Y-39071D01*
X48430Y-39033D01*
X48450Y-39014D01*
X48488Y-38995D01*
X48564Y-38976D01*
X48659Y-38976D01*
X48735Y-38995D01*
X48773Y-39014D01*
X48792Y-39033D01*
X48811Y-39071D01*
X48811Y-39109D01*
X48792Y-39147D01*
X48773Y-39166D01*
X48735Y-39185D01*
X48659Y-39204D01*
X48564Y-39204D01*
X48488Y-39185D01*
X48450Y-39166D01*
X48430Y-39147D01*
X48411Y-39109D01*
X48811Y-38595D02*
X48811Y-38823D01*
X48811Y-38709D02*
X48411Y-38709D01*
X48469Y-38747D01*
X48507Y-38785D01*
X48526Y-38823D01*
X48411Y-38461D02*
X48411Y-38214D01*
X48564Y-38347D01*
X48564Y-38290D01*
X48583Y-38252D01*
X48602Y-38233D01*
X48640Y-38214D01*
X48735Y-38214D01*
X48773Y-38233D01*
X48792Y-38252D01*
X48811Y-38290D01*
X48811Y-38404D01*
X48792Y-38442D01*
X48773Y-38461D01*
G54D12*
X48240Y-40509D02*
X48259Y-40452D01*
X48259Y-40359D01*
X48240Y-40321D01*
X48221Y-40302D01*
X48184Y-40284D01*
X48146Y-40284D01*
X48109Y-40302D01*
X48090Y-40321D01*
X48071Y-40359D01*
X48053Y-40434D01*
X48034Y-40471D01*
X48015Y-40490D01*
X47978Y-40509D01*
X47940Y-40509D01*
X47903Y-40490D01*
X47884Y-40471D01*
X47865Y-40434D01*
X47865Y-40340D01*
X47884Y-40284D01*
X48240Y-39965D02*
X48259Y-40002D01*
X48259Y-40077D01*
X48240Y-40115D01*
X48203Y-40134D01*
X48053Y-40134D01*
X48015Y-40115D01*
X47996Y-40077D01*
X47996Y-40002D01*
X48015Y-39965D01*
X48053Y-39946D01*
X48090Y-39946D01*
X48128Y-40134D01*
X48259Y-39778D02*
X47996Y-39778D01*
X48071Y-39778D02*
X48034Y-39759D01*
X48015Y-39740D01*
X47996Y-39703D01*
X47996Y-39665D01*
X48259Y-39534D02*
X47996Y-39534D01*
X47865Y-39534D02*
X47884Y-39553D01*
X47903Y-39534D01*
X47884Y-39515D01*
X47865Y-39534D01*
X47903Y-39534D01*
X48259Y-39178D02*
X48053Y-39178D01*
X48015Y-39196D01*
X47996Y-39234D01*
X47996Y-39309D01*
X48015Y-39346D01*
X48240Y-39178D02*
X48259Y-39215D01*
X48259Y-39309D01*
X48240Y-39346D01*
X48203Y-39365D01*
X48165Y-39365D01*
X48128Y-39346D01*
X48109Y-39309D01*
X48109Y-39215D01*
X48090Y-39178D01*
X48259Y-38934D02*
X48240Y-38971D01*
X48203Y-38990D01*
X47865Y-38990D01*
X48259Y-38484D02*
X47865Y-38484D01*
X48259Y-38259D02*
X48034Y-38428D01*
X47865Y-38259D02*
X48090Y-38484D01*
X47996Y-38090D02*
X48259Y-38090D01*
X48034Y-38090D02*
X48015Y-38071D01*
X47996Y-38034D01*
X47996Y-37978D01*
X48015Y-37940D01*
X48053Y-37921D01*
X48259Y-37921D01*
X48259Y-37678D02*
X48240Y-37715D01*
X48221Y-37734D01*
X48184Y-37753D01*
X48071Y-37753D01*
X48034Y-37734D01*
X48015Y-37715D01*
X47996Y-37678D01*
X47996Y-37622D01*
X48015Y-37584D01*
X48034Y-37565D01*
X48071Y-37547D01*
X48184Y-37547D01*
X48221Y-37565D01*
X48240Y-37584D01*
X48259Y-37622D01*
X48259Y-37678D01*
X48259Y-37378D02*
X47865Y-37378D01*
X48015Y-37378D02*
X47996Y-37340D01*
X47996Y-37265D01*
X48015Y-37228D01*
X48034Y-37209D01*
X48071Y-37190D01*
X48184Y-37190D01*
X48221Y-37209D01*
X48240Y-37228D01*
X48259Y-37265D01*
X48259Y-37340D01*
X48240Y-37378D01*
X42922Y-40573D02*
X42979Y-40592D01*
X43072Y-40592D01*
X43110Y-40573D01*
X43128Y-40554D01*
X43147Y-40517D01*
X43147Y-40479D01*
X43128Y-40442D01*
X43110Y-40423D01*
X43072Y-40404D01*
X42997Y-40386D01*
X42960Y-40367D01*
X42941Y-40348D01*
X42922Y-40311D01*
X42922Y-40273D01*
X42941Y-40236D01*
X42960Y-40217D01*
X42997Y-40198D01*
X43091Y-40198D01*
X43147Y-40217D01*
X43260Y-40198D02*
X43485Y-40198D01*
X43372Y-40592D02*
X43372Y-40198D01*
X43616Y-40386D02*
X43747Y-40386D01*
X43803Y-40592D02*
X43616Y-40592D01*
X43616Y-40198D01*
X43803Y-40198D01*
X44197Y-40554D02*
X44178Y-40573D01*
X44122Y-40592D01*
X44085Y-40592D01*
X44028Y-40573D01*
X43991Y-40536D01*
X43972Y-40498D01*
X43953Y-40423D01*
X43953Y-40367D01*
X43972Y-40292D01*
X43991Y-40254D01*
X44028Y-40217D01*
X44085Y-40198D01*
X44122Y-40198D01*
X44178Y-40217D01*
X44197Y-40236D01*
X44572Y-40592D02*
X44347Y-40592D01*
X44460Y-40592D02*
X44460Y-40198D01*
X44422Y-40254D01*
X44385Y-40292D01*
X44347Y-40311D01*
X44722Y-40236D02*
X44741Y-40217D01*
X44778Y-40198D01*
X44872Y-40198D01*
X44910Y-40217D01*
X44928Y-40236D01*
X44947Y-40273D01*
X44947Y-40311D01*
X44928Y-40367D01*
X44703Y-40592D01*
X44947Y-40592D01*
X45116Y-40386D02*
X45247Y-40386D01*
X45303Y-40592D02*
X45116Y-40592D01*
X45116Y-40198D01*
X45303Y-40198D01*
X45547Y-40198D02*
X45584Y-40198D01*
X45622Y-40217D01*
X45641Y-40236D01*
X45659Y-40273D01*
X45678Y-40348D01*
X45678Y-40442D01*
X45659Y-40517D01*
X45641Y-40554D01*
X45622Y-40573D01*
X45584Y-40592D01*
X45547Y-40592D01*
X45509Y-40573D01*
X45491Y-40554D01*
X45472Y-40517D01*
X45453Y-40442D01*
X45453Y-40348D01*
X45472Y-40273D01*
X45491Y-40236D01*
X45509Y-40217D01*
X45547Y-40198D01*
X45903Y-40367D02*
X45866Y-40348D01*
X45847Y-40329D01*
X45828Y-40292D01*
X45828Y-40273D01*
X45847Y-40236D01*
X45866Y-40217D01*
X45903Y-40198D01*
X45978Y-40198D01*
X46016Y-40217D01*
X46034Y-40236D01*
X46053Y-40273D01*
X46053Y-40292D01*
X46034Y-40329D01*
X46016Y-40348D01*
X45978Y-40367D01*
X45903Y-40367D01*
X45866Y-40386D01*
X45847Y-40404D01*
X45828Y-40442D01*
X45828Y-40517D01*
X45847Y-40554D01*
X45866Y-40573D01*
X45903Y-40592D01*
X45978Y-40592D01*
X46016Y-40573D01*
X46034Y-40554D01*
X46053Y-40517D01*
X46053Y-40442D01*
X46034Y-40404D01*
X46016Y-40386D01*
X45978Y-40367D01*
G54D11*
X43070Y-40905D02*
G75*
G03X43070Y-40905I-196J0D01*
G74*
G01*
X46299Y-40905D02*
G75*
G03X46299Y-40905I-196J0D01*
G74*
G01*
X46299Y-36889D02*
G75*
G03X46299Y-36889I-196J0D01*
G74*
G01*
X43070Y-36889D02*
G75*
G03X43070Y-36889I-196J0D01*
G74*
G01*
X42047Y-41161D02*
X42047Y-36594D01*
X46929Y-36594D02*
X46929Y-41161D01*
X42362Y-36279D02*
X46614Y-36279D01*
X42362Y-41476D02*
X46614Y-41476D01*
X42362Y-36279D02*
G75*
G03X42047Y-36594I0J-314D01*
G74*
G01*
X42047Y-41161D02*
G75*
G03X42362Y-41476I314J0D01*
G74*
G01*
X46614Y-41476D02*
G75*
G03X46929Y-41161I0J314D01*
G74*
G01*
X46929Y-36594D02*
G75*
G03X46614Y-36279I-314J0D01*
G74*
G01*
X43464Y-38287D02*
X45511Y-38287D01*
X45669Y-38877D02*
G75*
G03X45669Y-38877I-1181J0D01*
G74*
G01*
G54D14*
X40248Y-40188D02*
X40248Y-40188D01*
X41248Y-40188D02*
X40248Y-40188D01*
X40248Y-40188D02*
X40248Y-40188D01*
X40248Y-40188D02*
X40248Y-36188D01*
X40248Y-36188D02*
X41248Y-36188D01*
X41248Y-36188D02*
X41248Y-40188D01*
X41248Y-39188D02*
X40248Y-39188D01*
X46488Y-34850D02*
X46488Y-34850D01*
X46488Y-33850D02*
X46488Y-34850D01*
X46488Y-34850D02*
X46488Y-34850D01*
X46488Y-34850D02*
X42488Y-34850D01*
X42488Y-34850D02*
X42488Y-33850D01*
X42488Y-33850D02*
X46488Y-33850D01*
X45488Y-33850D02*
X45488Y-34850D01*
G54D15*
G36*
X48285Y-36907D02*
X48302Y-36905D01*
X48318Y-36900D01*
X48325Y-36896D01*
X48339Y-36886D01*
X48350Y-36874D01*
X48359Y-36860D01*
X48365Y-36844D01*
X48367Y-36828D01*
X48367Y-36811D01*
X48363Y-36795D01*
X48355Y-36779D01*
X48350Y-36772D01*
X48343Y-36764D01*
X48336Y-36757D01*
X48328Y-36752D01*
X48326Y-36750D01*
X48312Y-36744D01*
X48297Y-36740D01*
X48280Y-36739D01*
X48274Y-36740D01*
X48265Y-36741D01*
X48257Y-36743D01*
X48248Y-36747D01*
X48238Y-36752D01*
X48224Y-36763D01*
X48213Y-36776D01*
X48205Y-36792D01*
X48202Y-36799D01*
X48200Y-36807D01*
X48199Y-36814D01*
X48199Y-36815D01*
X48199Y-36815D01*
X48198Y-36812D01*
X48198Y-36811D01*
X48196Y-36800D01*
X48192Y-36789D01*
X48187Y-36779D01*
X48177Y-36767D01*
X48164Y-36755D01*
X48150Y-36746D01*
X48133Y-36741D01*
X48115Y-36739D01*
X48111Y-36739D01*
X48097Y-36741D01*
X48085Y-36744D01*
X48082Y-36745D01*
X48068Y-36753D01*
X48055Y-36764D01*
X48045Y-36776D01*
X48037Y-36791D01*
X48032Y-36806D01*
X48032Y-36806D01*
X48031Y-36810D01*
X48031Y-36812D01*
X48031Y-36812D01*
X48031Y-36810D01*
X48030Y-36806D01*
X48029Y-36804D01*
X48024Y-36789D01*
X48016Y-36775D01*
X48005Y-36762D01*
X47995Y-36754D01*
X47981Y-36746D01*
X47965Y-36741D01*
X47947Y-36739D01*
X47934Y-36740D01*
X47917Y-36744D01*
X47902Y-36752D01*
X47889Y-36763D01*
X47877Y-36776D01*
X47876Y-36778D01*
X47872Y-36784D01*
X47870Y-36789D01*
X47868Y-36793D01*
X47866Y-36801D01*
X47864Y-36808D01*
X47863Y-36814D01*
X47863Y-36815D01*
X47863Y-36815D01*
X47862Y-36811D01*
X47860Y-36802D01*
X47856Y-36790D01*
X47851Y-36780D01*
X47841Y-36767D01*
X47828Y-36755D01*
X47813Y-36746D01*
X47797Y-36741D01*
X47779Y-36739D01*
X47763Y-36740D01*
X47747Y-36745D01*
X47732Y-36753D01*
X47718Y-36765D01*
X47712Y-36772D01*
X47705Y-36781D01*
X47700Y-36792D01*
X47697Y-36801D01*
X47695Y-36818D01*
X47695Y-36834D01*
X47699Y-36850D01*
X47705Y-36865D01*
X47715Y-36878D01*
X47726Y-36889D01*
X47740Y-36898D01*
X47755Y-36904D01*
X47772Y-36907D01*
X47774Y-36907D01*
X47791Y-36906D01*
X47807Y-36903D01*
X47823Y-36895D01*
X47828Y-36892D01*
X47839Y-36882D01*
X47849Y-36870D01*
X47856Y-36857D01*
X47858Y-36852D01*
X47860Y-36845D01*
X47862Y-36838D01*
X47863Y-36832D01*
X47863Y-36829D01*
X47863Y-36832D01*
X47864Y-36835D01*
X47865Y-36842D01*
X47868Y-36851D01*
X47870Y-36858D01*
X47874Y-36865D01*
X47885Y-36879D01*
X47897Y-36891D01*
X47912Y-36900D01*
X47929Y-36906D01*
X47932Y-36906D01*
X47944Y-36907D01*
X47956Y-36907D01*
X47967Y-36905D01*
X47978Y-36902D01*
X47994Y-36893D01*
X48008Y-36882D01*
X48009Y-36881D01*
X48018Y-36869D01*
X48025Y-36855D01*
X48030Y-36841D01*
X48030Y-36840D01*
X48031Y-36836D01*
X48031Y-36834D01*
X48031Y-36835D01*
X48032Y-36839D01*
X48032Y-36840D01*
X48034Y-36849D01*
X48038Y-36858D01*
X48043Y-36868D01*
X48051Y-36878D01*
X48063Y-36890D01*
X48078Y-36899D01*
X48095Y-36905D01*
X48098Y-36906D01*
X48109Y-36907D01*
X48121Y-36907D01*
X48132Y-36906D01*
X48142Y-36903D01*
X48157Y-36896D01*
X48171Y-36885D01*
X48183Y-36873D01*
X48192Y-36858D01*
X48194Y-36853D01*
X48196Y-36845D01*
X48198Y-36838D01*
X48199Y-36832D01*
X48199Y-36831D01*
X48199Y-36831D01*
X48200Y-36835D01*
X48200Y-36835D01*
X48202Y-36846D01*
X48206Y-36857D01*
X48211Y-36867D01*
X48214Y-36870D01*
X48224Y-36883D01*
X48238Y-36894D01*
X48252Y-36902D01*
X48268Y-36906D01*
X48285Y-36907D01*
X48285Y-36907D01*
G37*
G36*
X47605Y-36739D02*
X47615Y-36739D01*
X47625Y-36738D01*
X47636Y-36735D01*
X47652Y-36728D01*
X47666Y-36718D01*
X47678Y-36705D01*
X47686Y-36691D01*
X47692Y-36675D01*
X47694Y-36657D01*
X47693Y-36640D01*
X47689Y-36624D01*
X47681Y-36609D01*
X47671Y-36596D01*
X47657Y-36585D01*
X47653Y-36582D01*
X47637Y-36574D01*
X47620Y-36571D01*
X47602Y-36571D01*
X47585Y-36574D01*
X47571Y-36580D01*
X47556Y-36590D01*
X47544Y-36602D01*
X47535Y-36617D01*
X47528Y-36634D01*
X47527Y-36642D01*
X47526Y-36653D01*
X47526Y-36664D01*
X47528Y-36673D01*
X47529Y-36676D01*
X47535Y-36693D01*
X47545Y-36708D01*
X47558Y-36721D01*
X47573Y-36730D01*
X47580Y-36733D01*
X47590Y-36737D01*
X47599Y-36738D01*
X47605Y-36739D01*
X47605Y-36739D01*
G37*
G36*
X48454Y-36739D02*
X48471Y-36737D01*
X48488Y-36731D01*
X48503Y-36721D01*
X48507Y-36719D01*
X48518Y-36706D01*
X48528Y-36692D01*
X48534Y-36675D01*
X48535Y-36667D01*
X48536Y-36656D01*
X48536Y-36645D01*
X48534Y-36636D01*
X48533Y-36632D01*
X48526Y-36615D01*
X48517Y-36601D01*
X48505Y-36589D01*
X48490Y-36580D01*
X48474Y-36573D01*
X48456Y-36570D01*
X48450Y-36570D01*
X48433Y-36572D01*
X48417Y-36578D01*
X48403Y-36586D01*
X48391Y-36597D01*
X48381Y-36610D01*
X48373Y-36625D01*
X48369Y-36641D01*
X48368Y-36658D01*
X48369Y-36669D01*
X48371Y-36678D01*
X48374Y-36688D01*
X48381Y-36701D01*
X48392Y-36714D01*
X48405Y-36725D01*
X48420Y-36733D01*
X48436Y-36738D01*
X48454Y-36739D01*
X48454Y-36739D01*
G37*
G36*
X47437Y-36570D02*
X47449Y-36570D01*
X47459Y-36569D01*
X47471Y-36565D01*
X47487Y-36557D01*
X47501Y-36546D01*
X47510Y-36535D01*
X47519Y-36521D01*
X47524Y-36504D01*
X47525Y-36497D01*
X47526Y-36487D01*
X47525Y-36477D01*
X47524Y-36469D01*
X47523Y-36463D01*
X47516Y-36447D01*
X47507Y-36432D01*
X47494Y-36420D01*
X47479Y-36411D01*
X47473Y-36408D01*
X47462Y-36404D01*
X47451Y-36402D01*
X47439Y-36402D01*
X47431Y-36403D01*
X47422Y-36404D01*
X47413Y-36406D01*
X47404Y-36411D01*
X47399Y-36413D01*
X47385Y-36424D01*
X47373Y-36437D01*
X47364Y-36452D01*
X47359Y-36469D01*
X47358Y-36473D01*
X47357Y-36483D01*
X47358Y-36494D01*
X47359Y-36503D01*
X47360Y-36509D01*
X47367Y-36525D01*
X47376Y-36540D01*
X47389Y-36552D01*
X47404Y-36561D01*
X47421Y-36568D01*
X47426Y-36569D01*
X47437Y-36570D01*
X47437Y-36570D01*
G37*
G36*
X48113Y-36570D02*
X48130Y-36569D01*
X48146Y-36565D01*
X48155Y-36560D01*
X48169Y-36550D01*
X48181Y-36538D01*
X48191Y-36523D01*
X48196Y-36506D01*
X48197Y-36503D01*
X48199Y-36489D01*
X48199Y-36476D01*
X48195Y-36462D01*
X48189Y-36445D01*
X48179Y-36431D01*
X48166Y-36419D01*
X48151Y-36410D01*
X48134Y-36404D01*
X48123Y-36401D01*
X48129Y-36401D01*
X48130Y-36400D01*
X48142Y-36397D01*
X48155Y-36392D01*
X48166Y-36384D01*
X48168Y-36382D01*
X48181Y-36370D01*
X48190Y-36356D01*
X48196Y-36340D01*
X48199Y-36324D01*
X48198Y-36308D01*
X48195Y-36291D01*
X48187Y-36276D01*
X48187Y-36275D01*
X48177Y-36261D01*
X48164Y-36250D01*
X48150Y-36242D01*
X48134Y-36237D01*
X48118Y-36234D01*
X48102Y-36235D01*
X48086Y-36239D01*
X48071Y-36247D01*
X48057Y-36257D01*
X48049Y-36265D01*
X48041Y-36278D01*
X48035Y-36291D01*
X48032Y-36303D01*
X48031Y-36306D01*
X48031Y-36308D01*
X48031Y-36307D01*
X48030Y-36303D01*
X48027Y-36292D01*
X48022Y-36280D01*
X48015Y-36269D01*
X48011Y-36263D01*
X47998Y-36251D01*
X47984Y-36242D01*
X47967Y-36237D01*
X47950Y-36234D01*
X47933Y-36235D01*
X47923Y-36238D01*
X47906Y-36245D01*
X47892Y-36255D01*
X47880Y-36267D01*
X47871Y-36282D01*
X47865Y-36298D01*
X47864Y-36307D01*
X47863Y-36323D01*
X47866Y-36340D01*
X47872Y-36356D01*
X47882Y-36370D01*
X47894Y-36382D01*
X47909Y-36392D01*
X47915Y-36395D01*
X47923Y-36398D01*
X47930Y-36400D01*
X47936Y-36401D01*
X47937Y-36401D01*
X47936Y-36402D01*
X47933Y-36403D01*
X47924Y-36405D01*
X47913Y-36409D01*
X47903Y-36414D01*
X47898Y-36417D01*
X47887Y-36427D01*
X47877Y-36439D01*
X47870Y-36452D01*
X47865Y-36466D01*
X47863Y-36481D01*
X47863Y-36496D01*
X47864Y-36499D01*
X47869Y-36516D01*
X47876Y-36532D01*
X47888Y-36546D01*
X47897Y-36554D01*
X47912Y-36563D01*
X47929Y-36569D01*
X47936Y-36569D01*
X47945Y-36570D01*
X47954Y-36569D01*
X47963Y-36569D01*
X47970Y-36567D01*
X47976Y-36566D01*
X47992Y-36557D01*
X48006Y-36546D01*
X48017Y-36533D01*
X48021Y-36526D01*
X48027Y-36515D01*
X48030Y-36504D01*
X48030Y-36503D01*
X48031Y-36499D01*
X48031Y-36497D01*
X48031Y-36497D01*
X48031Y-36475D01*
X48031Y-36475D01*
X48031Y-36473D01*
X48030Y-36469D01*
X48030Y-36467D01*
X48025Y-36452D01*
X48016Y-36438D01*
X48006Y-36426D01*
X47993Y-36415D01*
X47979Y-36408D01*
X47978Y-36407D01*
X47970Y-36405D01*
X47963Y-36403D01*
X47956Y-36402D01*
X47963Y-36400D01*
X47973Y-36398D01*
X47988Y-36391D01*
X48002Y-36382D01*
X48013Y-36370D01*
X48022Y-36356D01*
X48026Y-36349D01*
X48029Y-36340D01*
X48030Y-36333D01*
X48031Y-36330D01*
X48031Y-36328D01*
X48031Y-36329D01*
X48032Y-36333D01*
X48033Y-36339D01*
X48036Y-36348D01*
X48040Y-36356D01*
X48045Y-36365D01*
X48056Y-36377D01*
X48069Y-36388D01*
X48084Y-36396D01*
X48099Y-36400D01*
X48107Y-36402D01*
X48099Y-36403D01*
X48098Y-36403D01*
X48091Y-36405D01*
X48083Y-36408D01*
X48082Y-36408D01*
X48068Y-36416D01*
X48055Y-36427D01*
X48045Y-36439D01*
X48037Y-36454D01*
X48032Y-36468D01*
X48032Y-36469D01*
X48031Y-36473D01*
X48031Y-36475D01*
X48031Y-36497D01*
X48031Y-36497D01*
X48031Y-36499D01*
X48032Y-36504D01*
X48035Y-36514D01*
X48042Y-36529D01*
X48053Y-36543D01*
X48065Y-36554D01*
X48080Y-36563D01*
X48080Y-36563D01*
X48096Y-36568D01*
X48113Y-36570D01*
X48113Y-36570D01*
G37*
G36*
X48614Y-36570D02*
X48628Y-36570D01*
X48640Y-36568D01*
X48648Y-36566D01*
X48664Y-36558D01*
X48678Y-36548D01*
X48689Y-36535D01*
X48698Y-36520D01*
X48703Y-36504D01*
X48705Y-36486D01*
X48704Y-36479D01*
X48701Y-36462D01*
X48694Y-36445D01*
X48684Y-36430D01*
X48681Y-36427D01*
X48669Y-36417D01*
X48655Y-36409D01*
X48640Y-36404D01*
X48640Y-36404D01*
X48627Y-36402D01*
X48613Y-36402D01*
X48601Y-36404D01*
X48596Y-36405D01*
X48580Y-36412D01*
X48566Y-36421D01*
X48555Y-36433D01*
X48546Y-36447D01*
X48539Y-36462D01*
X48536Y-36479D01*
X48537Y-36496D01*
X48540Y-36513D01*
X48546Y-36526D01*
X48556Y-36540D01*
X48568Y-36552D01*
X48583Y-36561D01*
X48599Y-36568D01*
X48601Y-36568D01*
X48614Y-36570D01*
X48614Y-36570D01*
G37*
G36*
X47781Y-36066D02*
X47798Y-36064D01*
X47814Y-36058D01*
X47822Y-36054D01*
X47829Y-36049D01*
X47837Y-36042D01*
X47846Y-36032D01*
X47855Y-36018D01*
X47861Y-36002D01*
X47862Y-35997D01*
X47863Y-35986D01*
X47863Y-35974D01*
X47861Y-35964D01*
X47857Y-35950D01*
X47849Y-35935D01*
X47839Y-35922D01*
X47837Y-35920D01*
X47829Y-35914D01*
X47820Y-35908D01*
X47812Y-35904D01*
X47809Y-35903D01*
X47802Y-35900D01*
X47795Y-35899D01*
X47790Y-35898D01*
X47787Y-35898D01*
X47790Y-35897D01*
X47794Y-35896D01*
X47800Y-35895D01*
X47806Y-35893D01*
X47818Y-35887D01*
X47831Y-35879D01*
X47841Y-35870D01*
X47842Y-35868D01*
X47853Y-35854D01*
X47859Y-35838D01*
X47863Y-35821D01*
X47863Y-35804D01*
X47862Y-35800D01*
X47857Y-35783D01*
X47849Y-35767D01*
X47838Y-35753D01*
X47828Y-35744D01*
X47813Y-35736D01*
X47797Y-35730D01*
X47793Y-35730D01*
X47782Y-35729D01*
X47770Y-35729D01*
X47759Y-35731D01*
X47750Y-35734D01*
X47734Y-35741D01*
X47721Y-35752D01*
X47710Y-35764D01*
X47701Y-35779D01*
X47696Y-35795D01*
X47696Y-35797D01*
X47695Y-35801D01*
X47694Y-35803D01*
X47694Y-35801D01*
X47693Y-35797D01*
X47691Y-35790D01*
X47689Y-35783D01*
X47686Y-35776D01*
X47683Y-35771D01*
X47673Y-35757D01*
X47660Y-35745D01*
X47645Y-35736D01*
X47629Y-35731D01*
X47611Y-35729D01*
X47597Y-35730D01*
X47581Y-35734D01*
X47566Y-35741D01*
X47557Y-35747D01*
X47545Y-35759D01*
X47536Y-35774D01*
X47529Y-35789D01*
X47526Y-35806D01*
X47526Y-35823D01*
X47530Y-35838D01*
X47537Y-35855D01*
X47547Y-35869D01*
X47560Y-35880D01*
X47575Y-35889D01*
X47592Y-35895D01*
X47602Y-35898D01*
X47596Y-35898D01*
X47593Y-35899D01*
X47579Y-35903D01*
X47566Y-35910D01*
X47554Y-35919D01*
X47544Y-35929D01*
X47538Y-35938D01*
X47532Y-35950D01*
X47528Y-35961D01*
X47527Y-35970D01*
X47526Y-35980D01*
X47526Y-35991D01*
X47528Y-36000D01*
X47531Y-36010D01*
X47539Y-36026D01*
X47549Y-36040D01*
X47563Y-36051D01*
X47578Y-36059D01*
X47596Y-36065D01*
X47600Y-36065D01*
X47611Y-36066D01*
X47622Y-36065D01*
X47631Y-36063D01*
X47638Y-36061D01*
X47654Y-36053D01*
X47668Y-36043D01*
X47679Y-36030D01*
X47688Y-36015D01*
X47693Y-35998D01*
X47693Y-35997D01*
X47694Y-35993D01*
X47695Y-35993D01*
X47695Y-35970D01*
X47694Y-35969D01*
X47693Y-35966D01*
X47693Y-35965D01*
X47690Y-35954D01*
X47685Y-35942D01*
X47678Y-35931D01*
X47673Y-35925D01*
X47660Y-35913D01*
X47644Y-35904D01*
X47627Y-35899D01*
X47619Y-35897D01*
X47625Y-35896D01*
X47630Y-35895D01*
X47635Y-35893D01*
X47639Y-35892D01*
X47654Y-35885D01*
X47668Y-35874D01*
X47679Y-35862D01*
X47687Y-35847D01*
X47693Y-35831D01*
X47693Y-35827D01*
X47694Y-35824D01*
X47695Y-35826D01*
X47696Y-35831D01*
X47696Y-35831D01*
X47699Y-35840D01*
X47703Y-35850D01*
X47708Y-35859D01*
X47713Y-35865D01*
X47720Y-35873D01*
X47729Y-35881D01*
X47737Y-35886D01*
X47737Y-35886D01*
X47750Y-35892D01*
X47764Y-35896D01*
X47770Y-35897D01*
X47763Y-35898D01*
X47748Y-35903D01*
X47733Y-35911D01*
X47720Y-35921D01*
X47709Y-35934D01*
X47706Y-35938D01*
X47702Y-35946D01*
X47699Y-35955D01*
X47696Y-35963D01*
X47695Y-35968D01*
X47695Y-35968D01*
X47695Y-35970D01*
X47695Y-35993D01*
X47695Y-35993D01*
X47696Y-35997D01*
X47697Y-36002D01*
X47698Y-36007D01*
X47702Y-36016D01*
X47710Y-36031D01*
X47721Y-36043D01*
X47734Y-36053D01*
X47749Y-36060D01*
X47765Y-36065D01*
X47781Y-36066D01*
X47781Y-36066D01*
G37*
G36*
X48288Y-36066D02*
X48304Y-36063D01*
X48320Y-36057D01*
X48334Y-36048D01*
X48347Y-36037D01*
X48356Y-36023D01*
X48364Y-36007D01*
X48365Y-36002D01*
X48366Y-35997D01*
X48366Y-35996D01*
X48367Y-35993D01*
X48367Y-35993D01*
X48367Y-35970D01*
X48367Y-35967D01*
X48365Y-35961D01*
X48362Y-35952D01*
X48355Y-35937D01*
X48344Y-35923D01*
X48332Y-35912D01*
X48317Y-35904D01*
X48300Y-35899D01*
X48292Y-35897D01*
X48298Y-35896D01*
X48299Y-35896D01*
X48312Y-35892D01*
X48325Y-35886D01*
X48331Y-35883D01*
X48339Y-35876D01*
X48347Y-35867D01*
X48354Y-35859D01*
X48358Y-35852D01*
X48363Y-35841D01*
X48366Y-35831D01*
X48367Y-35827D01*
X48367Y-35824D01*
X48368Y-35826D01*
X48369Y-35831D01*
X48373Y-35842D01*
X48380Y-35857D01*
X48391Y-35871D01*
X48404Y-35882D01*
X48420Y-35891D01*
X48437Y-35896D01*
X48443Y-35897D01*
X48435Y-35899D01*
X48427Y-35901D01*
X48411Y-35908D01*
X48396Y-35918D01*
X48384Y-35931D01*
X48381Y-35936D01*
X48376Y-35944D01*
X48373Y-35953D01*
X48371Y-35959D01*
X48369Y-35965D01*
X48369Y-35965D01*
X48368Y-35969D01*
X48367Y-35970D01*
X48367Y-35993D01*
X48368Y-35994D01*
X48369Y-35998D01*
X48370Y-36004D01*
X48375Y-36016D01*
X48382Y-36028D01*
X48387Y-36035D01*
X48399Y-36047D01*
X48414Y-36057D01*
X48431Y-36063D01*
X48439Y-36065D01*
X48450Y-36065D01*
X48462Y-36065D01*
X48473Y-36063D01*
X48474Y-36063D01*
X48491Y-36056D01*
X48505Y-36046D01*
X48518Y-36034D01*
X48527Y-36019D01*
X48534Y-36002D01*
X48535Y-35995D01*
X48536Y-35983D01*
X48535Y-35971D01*
X48534Y-35961D01*
X48531Y-35952D01*
X48525Y-35940D01*
X48518Y-35929D01*
X48510Y-35921D01*
X48500Y-35912D01*
X48489Y-35906D01*
X48485Y-35904D01*
X48477Y-35901D01*
X48469Y-35899D01*
X48463Y-35898D01*
X48463Y-35898D01*
X48465Y-35897D01*
X48470Y-35895D01*
X48479Y-35892D01*
X48490Y-35888D01*
X48500Y-35883D01*
X48501Y-35881D01*
X48512Y-35871D01*
X48522Y-35859D01*
X48529Y-35847D01*
X48532Y-35841D01*
X48535Y-35824D01*
X48536Y-35806D01*
X48533Y-35789D01*
X48532Y-35786D01*
X48525Y-35770D01*
X48514Y-35756D01*
X48501Y-35745D01*
X48486Y-35736D01*
X48470Y-35730D01*
X48467Y-35730D01*
X48456Y-35729D01*
X48443Y-35729D01*
X48432Y-35731D01*
X48430Y-35731D01*
X48413Y-35738D01*
X48398Y-35748D01*
X48386Y-35760D01*
X48376Y-35776D01*
X48374Y-35781D01*
X48371Y-35788D01*
X48369Y-35795D01*
X48368Y-35801D01*
X48368Y-35802D01*
X48368Y-35803D01*
X48367Y-35800D01*
X48366Y-35796D01*
X48363Y-35784D01*
X48356Y-35769D01*
X48345Y-35756D01*
X48333Y-35745D01*
X48318Y-35736D01*
X48318Y-35736D01*
X48302Y-35731D01*
X48285Y-35729D01*
X48268Y-35730D01*
X48252Y-35734D01*
X48243Y-35739D01*
X48229Y-35749D01*
X48217Y-35761D01*
X48207Y-35776D01*
X48202Y-35792D01*
X48201Y-35796D01*
X48199Y-35810D01*
X48199Y-35823D01*
X48203Y-35838D01*
X48210Y-35854D01*
X48220Y-35869D01*
X48233Y-35880D01*
X48248Y-35889D01*
X48265Y-35895D01*
X48269Y-35896D01*
X48272Y-35897D01*
X48272Y-35898D01*
X48267Y-35898D01*
X48257Y-35901D01*
X48247Y-35906D01*
X48237Y-35911D01*
X48227Y-35918D01*
X48216Y-35931D01*
X48207Y-35947D01*
X48205Y-35949D01*
X48200Y-35966D01*
X48199Y-35983D01*
X48201Y-36000D01*
X48207Y-36016D01*
X48210Y-36024D01*
X48216Y-36032D01*
X48223Y-36040D01*
X48223Y-36040D01*
X48237Y-36052D01*
X48252Y-36060D01*
X48269Y-36065D01*
X48271Y-36065D01*
X48288Y-36066D01*
X48288Y-36066D01*
G37*
G54D16*
X44665Y-35826D02*
X44586Y-35826D01*
X44586Y-35826D02*
X44586Y-35885D01*
X44665Y-35885D02*
X44586Y-35885D01*
X44665Y-35826D02*
X44665Y-35885D01*
X44596Y-35767D02*
X44576Y-35767D01*
X44576Y-35767D02*
X44576Y-35787D01*
X44596Y-35787D02*
X44576Y-35787D01*
X44596Y-35767D02*
X44596Y-35787D01*
X44665Y-35688D02*
X44645Y-35688D01*
X44645Y-35688D02*
X44645Y-35836D01*
X44665Y-35836D02*
X44645Y-35836D01*
X44665Y-35688D02*
X44665Y-35836D01*
X44390Y-35767D02*
X44311Y-35767D01*
X44311Y-35767D02*
X44311Y-35885D01*
X44390Y-35885D02*
X44311Y-35885D01*
X44390Y-35767D02*
X44390Y-35885D01*
X44665Y-35688D02*
X44311Y-35688D01*
X44311Y-35688D02*
X44311Y-35777D01*
X44665Y-35777D02*
X44311Y-35777D01*
X44665Y-35688D02*
X44665Y-35777D01*
X44665Y-35217D02*
X44586Y-35217D01*
X44586Y-35217D02*
X44586Y-35414D01*
X44665Y-35414D02*
X44586Y-35414D01*
X44665Y-35217D02*
X44665Y-35414D01*
X44390Y-35217D02*
X44311Y-35217D01*
X44311Y-35217D02*
X44311Y-35414D01*
X44390Y-35414D02*
X44311Y-35414D01*
X44390Y-35217D02*
X44390Y-35414D01*
X44596Y-35325D02*
X44380Y-35325D01*
X44380Y-35325D02*
X44380Y-35414D01*
X44596Y-35414D02*
X44380Y-35414D01*
X44596Y-35325D02*
X44596Y-35414D01*
X44596Y-35296D02*
X44556Y-35296D01*
X44556Y-35296D02*
X44556Y-35335D01*
X44596Y-35335D02*
X44556Y-35335D01*
X44596Y-35296D02*
X44596Y-35335D01*
X44420Y-35296D02*
X44380Y-35296D01*
X44380Y-35296D02*
X44380Y-35335D01*
X44420Y-35335D02*
X44380Y-35335D01*
X44420Y-35296D02*
X44420Y-35335D01*
X44537Y-35551D02*
X44439Y-35551D01*
X44439Y-35551D02*
X44439Y-35649D01*
X44537Y-35649D02*
X44439Y-35649D01*
X44537Y-35551D02*
X44537Y-35649D01*
G54D17*
X44645Y-35698D02*
X44645Y-35414D01*
X44331Y-35688D02*
X44331Y-35414D01*
G54D18*
X44644Y-35797D02*
G75*
G03X44644Y-35797I-19J0D01*
G74*
G01*
G54D17*
X44606Y-35875D02*
G75*
G03X44370Y-35875I-118J0D01*
G74*
G01*
G54D19*
X44380Y-35227D02*
G75*
G03X44596Y-35227I108J0D01*
G74*
G01*
G54D11*
X48897Y-41732D02*
G75*
G03X48897Y-41732I-866J0D01*
G74*
G01*
X41811Y-34645D02*
G75*
G03X41811Y-34645I-866J0D01*
G74*
G01*
X41811Y-41732D02*
G75*
G03X41811Y-41732I-866J0D01*
G74*
G01*
X48897Y-34645D02*
G75*
G03X48897Y-34645I-866J0D01*
G74*
G01*
X40403Y-40749D02*
X40403Y-40356D01*
X40571Y-40731D02*
X40628Y-40749D01*
X40721Y-40749D01*
X40759Y-40731D01*
X40778Y-40712D01*
X40796Y-40674D01*
X40796Y-40637D01*
X40778Y-40599D01*
X40759Y-40581D01*
X40721Y-40562D01*
X40646Y-40543D01*
X40609Y-40524D01*
X40590Y-40506D01*
X40571Y-40468D01*
X40571Y-40431D01*
X40590Y-40393D01*
X40609Y-40374D01*
X40646Y-40356D01*
X40740Y-40356D01*
X40796Y-40374D01*
X40965Y-40749D02*
X40965Y-40356D01*
X41115Y-40356D01*
X41152Y-40374D01*
X41171Y-40393D01*
X41190Y-40431D01*
X41190Y-40487D01*
X41171Y-40524D01*
X41152Y-40543D01*
X41115Y-40562D01*
X40965Y-40562D01*
X44197Y-36891D02*
X44197Y-36497D01*
X44291Y-36497D01*
X44347Y-36516D01*
X44385Y-36554D01*
X44403Y-36591D01*
X44422Y-36666D01*
X44422Y-36722D01*
X44403Y-36797D01*
X44385Y-36835D01*
X44347Y-36872D01*
X44291Y-36891D01*
X44197Y-36891D01*
X44797Y-36891D02*
X44572Y-36891D01*
X44685Y-36891D02*
X44685Y-36497D01*
X44647Y-36554D01*
X44610Y-36591D01*
X44572Y-36610D01*
%LPC*%
G54D20*
X43503Y-41830D03*
X45472Y-41830D03*
X44488Y-41830D03*
X45472Y-36122D03*
X43503Y-36122D03*
G54D21*
X46929Y-38877D03*
G54D22*
X42047Y-38877D03*
G54D23*
X40748Y-39688D03*
G54D24*
X40748Y-38688D03*
X40748Y-37688D03*
X40748Y-36688D03*
G54D23*
X45988Y-34350D03*
G54D24*
X44988Y-34350D03*
X43988Y-34350D03*
X42988Y-34350D03*
G54D25*
X44488Y-35256D03*
X44488Y-35846D03*
G54D26*
X48031Y-41732D03*
X40944Y-34645D03*
X40944Y-41732D03*
X48031Y-34645D03*
M02*
