G04 (created by PCBNEW (2013-01-21 BZR 3918)-testing) date Tue 22 Jan 2013 10:21:49 PM CET*
%MOIN*%
G04 Gerber Fmt 3.4, Leading zero omitted, Abs format*
%FSLAX34Y34*%
G01*
G70*
G90*
G04 APERTURE LIST*
%ADD10C,3.14961e-06*%
%ADD11C,0.00984252*%
%ADD12C,0.0688976*%
%ADD13C,0.15748*%
%ADD14O,0.15748X0.15748*%
%ADD15R,0.06X0.06*%
%ADD16C,0.06*%
%ADD17R,0.0275591X0.0866142*%
%ADD18R,0.0314X0.0314*%
%ADD19R,0.0511X0.059*%
%ADD20C,0.0984252*%
%ADD21C,0.025*%
%ADD22C,0.008*%
G04 APERTURE END LIST*
G54D10*
G54D11*
X39960Y-41732D02*
X39960Y-34645D01*
X48031Y-42716D02*
X40944Y-42716D01*
X49015Y-34645D02*
X49015Y-41732D01*
X40944Y-33661D02*
X48031Y-33661D01*
X39960Y-41732D02*
G75*
G03X40944Y-42716I984J0D01*
G74*
G01*
X48031Y-42716D02*
G75*
G03X49015Y-41732I0J984D01*
G74*
G01*
X49015Y-34645D02*
G75*
G03X48031Y-33661I-984J0D01*
G74*
G01*
X40944Y-33661D02*
G75*
G03X39960Y-34645I0J-984D01*
G74*
G01*
G54D12*
X43503Y-41830D03*
X45472Y-41830D03*
X44488Y-41830D03*
X45472Y-36122D03*
X43503Y-36122D03*
G54D13*
X46929Y-38877D03*
G54D14*
X42047Y-38877D03*
G54D15*
X40748Y-39688D03*
G54D16*
X40748Y-38688D03*
X40748Y-37688D03*
X40748Y-36688D03*
G54D15*
X45988Y-34350D03*
G54D16*
X44988Y-34350D03*
X43988Y-34350D03*
X42988Y-34350D03*
G54D17*
X43738Y-37377D03*
X44238Y-37377D03*
X44738Y-37377D03*
X45238Y-37377D03*
X45238Y-40377D03*
X44738Y-40377D03*
X44238Y-40377D03*
X43738Y-40377D03*
G54D18*
X42814Y-36811D03*
X42814Y-37401D03*
X42224Y-36811D03*
X42224Y-37401D03*
X42027Y-40551D03*
X42617Y-40551D03*
X46948Y-40551D03*
X46358Y-40551D03*
X41633Y-36811D03*
X41633Y-37401D03*
G54D19*
X44862Y-35236D03*
X44114Y-35236D03*
G54D20*
X48031Y-41732D03*
X40944Y-34645D03*
X40944Y-41732D03*
X48031Y-34645D03*
G54D18*
X44488Y-35925D03*
X44488Y-36515D03*
X46948Y-37106D03*
X46358Y-37106D03*
G54D21*
X41633Y-36122D03*
X43700Y-38450D03*
X45275Y-38877D03*
X45275Y-39566D03*
X47440Y-37106D03*
X43307Y-36909D03*
X42519Y-36417D03*
X42519Y-35629D03*
X41830Y-35629D03*
X43400Y-39500D03*
X44094Y-36220D03*
X42224Y-35334D03*
X46000Y-41150D03*
G54D22*
X41633Y-36811D02*
X41633Y-36122D01*
X42027Y-40551D02*
X42027Y-41240D01*
X42618Y-41830D02*
X43503Y-41830D01*
X42027Y-41240D02*
X42618Y-41830D01*
X45472Y-41830D02*
X46456Y-41830D01*
X46948Y-41338D02*
X46948Y-40551D01*
X46456Y-41830D02*
X46948Y-41338D01*
X42814Y-37401D02*
X43001Y-37401D01*
X44238Y-38061D02*
X44238Y-37377D01*
X44150Y-38150D02*
X44238Y-38061D01*
X43450Y-38150D02*
X44150Y-38150D01*
X43300Y-38000D02*
X43450Y-38150D01*
X43300Y-37700D02*
X43300Y-38000D01*
X43001Y-37401D02*
X43300Y-37700D01*
X42814Y-37401D02*
X42224Y-37401D01*
X43700Y-38450D02*
X45450Y-38450D01*
X45450Y-38450D02*
X45669Y-38681D01*
X45669Y-38681D02*
X45669Y-39074D01*
X45570Y-39173D02*
X45669Y-39074D01*
X44738Y-40377D02*
X44738Y-39316D01*
X45866Y-40551D02*
X46358Y-40551D01*
X45669Y-40354D02*
X45866Y-40551D01*
X45669Y-39271D02*
X45669Y-40354D01*
X45570Y-39173D02*
X45669Y-39271D01*
X44881Y-39173D02*
X45570Y-39173D01*
X44738Y-39316D02*
X44881Y-39173D01*
X45275Y-38877D02*
X43627Y-38877D01*
X41633Y-37401D02*
X41633Y-37598D01*
X45238Y-39604D02*
X45275Y-39566D01*
X45238Y-39604D02*
X45238Y-40377D01*
X41885Y-37850D02*
X41633Y-37598D01*
X42600Y-37850D02*
X41885Y-37850D01*
X43627Y-38877D02*
X42600Y-37850D01*
X40748Y-36688D02*
X40748Y-36811D01*
X40748Y-36811D02*
X41141Y-37204D01*
X41141Y-37204D02*
X41437Y-37204D01*
X41437Y-37204D02*
X41633Y-37401D01*
X41142Y-37204D02*
X41141Y-37204D01*
X47440Y-37106D02*
X46948Y-37106D01*
X46948Y-37106D02*
X46948Y-37106D01*
X40748Y-39688D02*
X40748Y-39665D01*
X43405Y-36811D02*
X43738Y-36811D01*
X43307Y-36909D02*
X43405Y-36811D01*
X42519Y-35629D02*
X42519Y-36417D01*
X41732Y-35728D02*
X41830Y-35629D01*
X40846Y-35728D02*
X41732Y-35728D01*
X40255Y-36318D02*
X40846Y-35728D01*
X40255Y-39173D02*
X40255Y-36318D01*
X40748Y-39665D02*
X40255Y-39173D01*
X44488Y-36515D02*
X43996Y-36515D01*
X43738Y-36773D02*
X43738Y-36811D01*
X43738Y-36811D02*
X43738Y-37377D01*
X43996Y-36515D02*
X43738Y-36773D01*
X40748Y-38551D02*
X40748Y-38688D01*
X43000Y-40551D02*
X43250Y-40301D01*
X43250Y-40301D02*
X43250Y-39650D01*
X43250Y-39650D02*
X43400Y-39500D01*
X44238Y-39588D02*
X44238Y-40377D01*
X43400Y-39500D02*
X44150Y-39500D01*
X44150Y-39500D02*
X44238Y-39588D01*
X42617Y-40551D02*
X43000Y-40551D01*
X43000Y-40551D02*
X43011Y-40551D01*
X42814Y-36811D02*
X42814Y-34523D01*
X42814Y-34523D02*
X42988Y-34350D01*
X44114Y-36200D02*
X44094Y-36220D01*
X44114Y-35236D02*
X44114Y-36200D01*
X45238Y-37377D02*
X45238Y-36356D01*
X45238Y-36356D02*
X45472Y-36122D01*
X45988Y-34350D02*
X45988Y-35606D01*
X45988Y-35606D02*
X45472Y-36122D01*
X44738Y-37377D02*
X44738Y-38088D01*
X46350Y-37114D02*
X46358Y-37106D01*
X46350Y-37550D02*
X46350Y-37114D01*
X45750Y-38150D02*
X46350Y-37550D01*
X44800Y-38150D02*
X45750Y-38150D01*
X44738Y-38088D02*
X44800Y-38150D01*
X42224Y-36811D02*
X42224Y-35334D01*
X43738Y-41080D02*
X43738Y-40377D01*
X43799Y-41141D02*
X46000Y-41150D01*
X43738Y-41080D02*
X43799Y-41141D01*
X44488Y-35925D02*
X44684Y-35925D01*
X44684Y-35925D02*
X44862Y-35748D01*
X44862Y-35748D02*
X44862Y-35236D01*
X44988Y-34350D02*
X44988Y-35110D01*
X44988Y-35110D02*
X44862Y-35236D01*
M02*
