G04 (created by PCBNEW (2013-02-09 BZR 3938)-testing) date Mon 11 Feb 2013 04:10:21 PM CET*
%MOIN*%
G04 Gerber Fmt 3.4, Leading zero omitted, Abs format*
%FSLAX34Y34*%
G01*
G70*
G90*
G04 APERTURE LIST*
%ADD10C,3.14961e-06*%
%ADD11C,0.00787402*%
%ADD12R,0.0275591X0.0866142*%
%ADD13C,0.0688976*%
%ADD14C,0.15748*%
%ADD15O,0.15748X0.15748*%
%ADD16R,0.0649606X0.0649606*%
%ADD17C,0.0649606*%
%ADD18R,0.0531496X0.0531496*%
%ADD19C,0.0531496*%
%ADD20R,0.0511X0.059*%
%ADD21C,0.0984252*%
%ADD22R,0.0314X0.0314*%
%ADD23C,0.025*%
%ADD24C,0.008*%
G04 APERTURE END LIST*
G54D10*
G54D11*
X48129Y-33562D02*
X40846Y-33562D01*
X49114Y-41830D02*
X49114Y-34547D01*
X40846Y-42814D02*
X48129Y-42814D01*
X39862Y-34547D02*
X39862Y-41830D01*
X39862Y-41830D02*
G75*
G03X40846Y-42814I984J0D01*
G74*
G01*
X48129Y-42814D02*
G75*
G03X49114Y-41830I0J984D01*
G74*
G01*
X49114Y-34547D02*
G75*
G03X48129Y-33562I-984J0D01*
G74*
G01*
X40846Y-33562D02*
G75*
G03X39862Y-34547I0J-984D01*
G74*
G01*
G54D12*
X43738Y-37476D03*
X44238Y-37476D03*
X44738Y-37476D03*
X45238Y-37476D03*
X45238Y-40476D03*
X44738Y-40476D03*
X44238Y-40476D03*
X43738Y-40476D03*
G54D13*
X43503Y-41929D03*
X45472Y-41929D03*
X44488Y-41929D03*
X45472Y-36220D03*
X43503Y-36220D03*
G54D14*
X46929Y-38976D03*
G54D15*
X42047Y-38976D03*
G54D16*
X45988Y-34251D03*
G54D17*
X44988Y-34251D03*
X43988Y-34251D03*
X42988Y-34251D03*
G54D18*
X40551Y-36220D03*
G54D19*
X41338Y-36220D03*
X40551Y-37007D03*
X41338Y-37007D03*
X40551Y-37795D03*
X41338Y-37795D03*
G54D20*
X44862Y-35334D03*
X44114Y-35334D03*
G54D21*
X48031Y-34645D03*
X40944Y-41732D03*
X40944Y-34645D03*
X48031Y-41732D03*
G54D22*
X46158Y-37500D03*
X46158Y-36910D03*
X44485Y-36614D03*
X44485Y-36024D03*
X42128Y-36908D03*
X42128Y-37498D03*
X46357Y-40646D03*
X46947Y-40646D03*
X42618Y-40652D03*
X42028Y-40652D03*
X46847Y-37500D03*
X46847Y-36910D03*
X42812Y-37500D03*
X42812Y-36910D03*
G54D23*
X43031Y-37893D03*
X43149Y-38661D03*
X42401Y-35570D03*
X44232Y-38543D03*
X45255Y-38700D03*
X45236Y-39665D03*
X46299Y-35531D03*
X43740Y-38090D03*
X43937Y-38956D03*
X47401Y-36909D03*
X43385Y-35236D03*
X42460Y-35137D03*
X46000Y-41248D03*
G54D24*
X43031Y-37893D02*
X42519Y-37893D01*
X42519Y-37893D02*
X42125Y-37499D01*
X42618Y-41929D02*
X43503Y-41929D01*
X42027Y-40649D02*
X42027Y-41338D01*
X42027Y-41338D02*
X42618Y-41929D01*
X45472Y-41929D02*
X46456Y-41929D01*
X46456Y-41929D02*
X46948Y-41437D01*
X46948Y-41437D02*
X46948Y-40649D01*
X44527Y-38444D02*
X45925Y-38444D01*
X44242Y-38160D02*
X44238Y-38160D01*
X44242Y-38160D02*
X44527Y-38444D01*
X45925Y-38444D02*
X46397Y-37972D01*
X44238Y-38160D02*
X44238Y-37476D01*
X44032Y-38366D02*
X44238Y-38160D01*
X43444Y-38366D02*
X44032Y-38366D01*
X43300Y-38221D02*
X43444Y-38366D01*
X43300Y-37798D02*
X43300Y-38221D01*
X46397Y-37972D02*
X46791Y-37972D01*
X46791Y-37972D02*
X46850Y-37913D01*
X43001Y-37499D02*
X43300Y-37798D01*
X42814Y-37499D02*
X43001Y-37499D01*
X46850Y-37499D02*
X46850Y-37913D01*
X43996Y-38661D02*
X44738Y-39403D01*
X44738Y-39415D02*
X44738Y-39403D01*
X43149Y-38661D02*
X43996Y-38661D01*
X45866Y-40649D02*
X46358Y-40649D01*
X45669Y-40452D02*
X45866Y-40649D01*
X45669Y-39370D02*
X45669Y-40452D01*
X45570Y-39271D02*
X45669Y-39370D01*
X44881Y-39271D02*
X45570Y-39271D01*
X44738Y-40476D02*
X44738Y-39415D01*
X44738Y-39415D02*
X44881Y-39271D01*
X42125Y-36909D02*
X42125Y-35846D01*
X42125Y-35846D02*
X42401Y-35570D01*
X45236Y-40474D02*
X45238Y-40476D01*
X45236Y-40474D02*
X45236Y-39665D01*
X42125Y-36909D02*
X41436Y-36909D01*
X41436Y-36909D02*
X41338Y-37007D01*
X45255Y-38700D02*
X44389Y-38700D01*
X44389Y-38700D02*
X44232Y-38543D01*
X46299Y-35531D02*
X46161Y-35669D01*
X46161Y-36909D02*
X46161Y-35669D01*
X43738Y-37476D02*
X43738Y-38088D01*
X43738Y-38088D02*
X43740Y-38090D01*
X43738Y-36872D02*
X43738Y-37476D01*
X44488Y-36613D02*
X43996Y-36613D01*
X43996Y-36613D02*
X43738Y-36872D01*
X41062Y-40255D02*
X42578Y-40255D01*
X42578Y-40255D02*
X42617Y-40295D01*
X42617Y-40649D02*
X42617Y-40295D01*
X43000Y-40649D02*
X43250Y-40399D01*
X43250Y-40399D02*
X43250Y-39748D01*
X43250Y-39748D02*
X43400Y-39598D01*
X43400Y-39598D02*
X44150Y-39598D01*
X42617Y-40649D02*
X43000Y-40649D01*
X41062Y-40255D02*
X40708Y-39901D01*
X40944Y-37401D02*
X40551Y-37007D01*
X40944Y-38110D02*
X40944Y-37401D01*
X40708Y-38346D02*
X40944Y-38110D01*
X40708Y-39901D02*
X40708Y-38346D01*
X44238Y-39686D02*
X44238Y-40476D01*
X44150Y-39598D02*
X44238Y-39686D01*
X42814Y-36909D02*
X42814Y-34523D01*
X42814Y-34523D02*
X42988Y-34350D01*
X44232Y-36318D02*
X45374Y-36318D01*
X44114Y-36200D02*
X44232Y-36318D01*
X42637Y-40059D02*
X43740Y-38956D01*
X41338Y-37992D02*
X40905Y-38425D01*
X40905Y-38425D02*
X40905Y-39822D01*
X40905Y-39822D02*
X41141Y-40059D01*
X41141Y-40059D02*
X42637Y-40059D01*
X41338Y-37992D02*
X41338Y-37795D01*
X43740Y-38956D02*
X43937Y-38956D01*
X44114Y-35334D02*
X44114Y-36200D01*
X45374Y-36318D02*
X45472Y-36220D01*
X45238Y-37476D02*
X45238Y-36454D01*
X45238Y-36454D02*
X45472Y-36220D01*
X45988Y-34350D02*
X45988Y-35704D01*
X45988Y-35704D02*
X45472Y-36220D01*
X46850Y-36909D02*
X46850Y-36909D01*
X47401Y-36909D02*
X46850Y-36909D01*
X46161Y-37933D02*
X46161Y-37499D01*
X45866Y-38228D02*
X46161Y-37933D01*
X44822Y-38228D02*
X45866Y-38228D01*
X44738Y-38143D02*
X44822Y-38228D01*
X44738Y-37476D02*
X44738Y-38143D01*
X44488Y-36023D02*
X44684Y-36023D01*
X44684Y-36023D02*
X44862Y-35846D01*
X44988Y-34744D02*
X43622Y-34744D01*
X41338Y-36082D02*
X41338Y-36220D01*
X42283Y-35137D02*
X42460Y-35137D01*
X41338Y-36082D02*
X42283Y-35137D01*
X43385Y-34980D02*
X43385Y-35236D01*
X43622Y-34744D02*
X43385Y-34980D01*
X46000Y-41248D02*
X45991Y-41240D01*
X43738Y-41179D02*
X43799Y-41240D01*
X43738Y-40476D02*
X43738Y-41179D01*
X45991Y-41240D02*
X43799Y-41240D01*
X44862Y-35846D02*
X44862Y-35334D01*
X44988Y-34350D02*
X44988Y-34744D01*
X44988Y-34744D02*
X44988Y-35208D01*
X44988Y-35208D02*
X44862Y-35334D01*
G54D10*
G36*
X44578Y-39807D02*
X44577Y-39807D01*
X44531Y-39816D01*
X44488Y-39833D01*
X44488Y-39834D01*
X44446Y-39816D01*
X44400Y-39807D01*
X44397Y-39807D01*
X44397Y-39686D01*
X44396Y-39671D01*
X44394Y-39657D01*
X44394Y-39656D01*
X44394Y-39655D01*
X44390Y-39641D01*
X44386Y-39627D01*
X44385Y-39626D01*
X44385Y-39625D01*
X44378Y-39612D01*
X44371Y-39599D01*
X44371Y-39599D01*
X44370Y-39598D01*
X44361Y-39586D01*
X44352Y-39575D01*
X44351Y-39574D01*
X44351Y-39574D01*
X44351Y-39574D01*
X44350Y-39573D01*
X44262Y-39485D01*
X44251Y-39476D01*
X44240Y-39466D01*
X44239Y-39466D01*
X44238Y-39465D01*
X44225Y-39459D01*
X44212Y-39451D01*
X44211Y-39451D01*
X44211Y-39451D01*
X44197Y-39446D01*
X44183Y-39442D01*
X44182Y-39442D01*
X44181Y-39442D01*
X44166Y-39440D01*
X44152Y-39439D01*
X44150Y-39439D01*
X44150Y-39439D01*
X44150Y-39439D01*
X44150Y-39439D01*
X43400Y-39439D01*
X43385Y-39440D01*
X43370Y-39441D01*
X43369Y-39442D01*
X43369Y-39442D01*
X43354Y-39446D01*
X43340Y-39450D01*
X43340Y-39450D01*
X43339Y-39451D01*
X43326Y-39457D01*
X43313Y-39464D01*
X43312Y-39465D01*
X43311Y-39465D01*
X43300Y-39474D01*
X43288Y-39484D01*
X43287Y-39485D01*
X43287Y-39485D01*
X43287Y-39485D01*
X43287Y-39485D01*
X43137Y-39635D01*
X43127Y-39647D01*
X43118Y-39658D01*
X43118Y-39659D01*
X43117Y-39659D01*
X43110Y-39672D01*
X43103Y-39685D01*
X43103Y-39686D01*
X43102Y-39687D01*
X43098Y-39701D01*
X43094Y-39715D01*
X43094Y-39716D01*
X43093Y-39716D01*
X43092Y-39731D01*
X43090Y-39746D01*
X43090Y-39747D01*
X43090Y-39747D01*
X43090Y-39747D01*
X43090Y-39748D01*
X43090Y-40333D01*
X42959Y-40464D01*
X42959Y-39130D01*
X42937Y-38986D01*
X42057Y-38986D01*
X42057Y-39867D01*
X42201Y-39888D01*
X42375Y-39841D01*
X42537Y-39760D01*
X42680Y-39650D01*
X42799Y-39514D01*
X42889Y-39358D01*
X42948Y-39187D01*
X42959Y-39130D01*
X42959Y-40464D01*
X42933Y-40490D01*
X42933Y-40490D01*
X42933Y-40480D01*
X42927Y-40449D01*
X42915Y-40421D01*
X42898Y-40395D01*
X42876Y-40373D01*
X42851Y-40356D01*
X42822Y-40344D01*
X42792Y-40338D01*
X42777Y-40338D01*
X42777Y-40295D01*
X42775Y-40280D01*
X42774Y-40265D01*
X42774Y-40264D01*
X42774Y-40264D01*
X42769Y-40249D01*
X42765Y-40235D01*
X42765Y-40235D01*
X42765Y-40234D01*
X42758Y-40221D01*
X42751Y-40208D01*
X42750Y-40207D01*
X42750Y-40206D01*
X42741Y-40195D01*
X42732Y-40183D01*
X42730Y-40182D01*
X42730Y-40182D01*
X42730Y-40182D01*
X42730Y-40182D01*
X42691Y-40143D01*
X42680Y-40133D01*
X42668Y-40124D01*
X42668Y-40124D01*
X42667Y-40123D01*
X42654Y-40116D01*
X42641Y-40109D01*
X42640Y-40109D01*
X42639Y-40108D01*
X42625Y-40104D01*
X42611Y-40100D01*
X42611Y-40099D01*
X42610Y-40099D01*
X42595Y-40098D01*
X42580Y-40096D01*
X42579Y-40096D01*
X42579Y-40096D01*
X42579Y-40096D01*
X42578Y-40096D01*
X42037Y-40096D01*
X42037Y-39867D01*
X42037Y-38986D01*
X42037Y-38966D01*
X42037Y-38085D01*
X41892Y-38064D01*
X41744Y-38104D01*
X41744Y-37802D01*
X41737Y-37723D01*
X41716Y-37647D01*
X41680Y-37576D01*
X41672Y-37564D01*
X41607Y-37539D01*
X41352Y-37795D01*
X41607Y-38050D01*
X41672Y-38025D01*
X41710Y-37956D01*
X41734Y-37881D01*
X41744Y-37802D01*
X41744Y-38104D01*
X41718Y-38111D01*
X41556Y-38191D01*
X41413Y-38302D01*
X41294Y-38437D01*
X41204Y-38594D01*
X41146Y-38765D01*
X41135Y-38821D01*
X41156Y-38966D01*
X42037Y-38966D01*
X42037Y-38986D01*
X41156Y-38986D01*
X41135Y-39130D01*
X41146Y-39187D01*
X41204Y-39358D01*
X41294Y-39514D01*
X41413Y-39650D01*
X41556Y-39760D01*
X41718Y-39841D01*
X41892Y-39888D01*
X42037Y-39867D01*
X42037Y-40096D01*
X41129Y-40096D01*
X40868Y-39835D01*
X40868Y-38412D01*
X41057Y-38222D01*
X41066Y-38211D01*
X41076Y-38200D01*
X41076Y-38199D01*
X41077Y-38198D01*
X41084Y-38185D01*
X41091Y-38173D01*
X41091Y-38172D01*
X41092Y-38171D01*
X41096Y-38157D01*
X41100Y-38143D01*
X41100Y-38142D01*
X41101Y-38141D01*
X41102Y-38127D01*
X41103Y-38117D01*
X41108Y-38129D01*
X41177Y-38167D01*
X41252Y-38191D01*
X41331Y-38200D01*
X41410Y-38194D01*
X41486Y-38172D01*
X41556Y-38136D01*
X41568Y-38129D01*
X41593Y-38064D01*
X41338Y-37809D01*
X41333Y-37814D01*
X41319Y-37800D01*
X41324Y-37795D01*
X41319Y-37789D01*
X41333Y-37775D01*
X41338Y-37781D01*
X41593Y-37526D01*
X41568Y-37461D01*
X41531Y-37440D01*
X41537Y-37440D01*
X41581Y-37436D01*
X41625Y-37423D01*
X41666Y-37401D01*
X41702Y-37371D01*
X41732Y-37336D01*
X41753Y-37295D01*
X41767Y-37250D01*
X41771Y-37206D01*
X41771Y-37069D01*
X41814Y-37069D01*
X41814Y-37081D01*
X41820Y-37111D01*
X41832Y-37140D01*
X41849Y-37165D01*
X41871Y-37187D01*
X41894Y-37203D01*
X41871Y-37219D01*
X41850Y-37240D01*
X41832Y-37266D01*
X41820Y-37294D01*
X41814Y-37325D01*
X41814Y-37356D01*
X41814Y-37671D01*
X41820Y-37701D01*
X41832Y-37730D01*
X41849Y-37755D01*
X41871Y-37777D01*
X41896Y-37794D01*
X41925Y-37806D01*
X41955Y-37813D01*
X41986Y-37813D01*
X42214Y-37813D01*
X42407Y-38006D01*
X42418Y-38015D01*
X42429Y-38025D01*
X42430Y-38025D01*
X42431Y-38026D01*
X42444Y-38033D01*
X42457Y-38040D01*
X42457Y-38040D01*
X42458Y-38040D01*
X42472Y-38045D01*
X42486Y-38049D01*
X42487Y-38049D01*
X42488Y-38049D01*
X42503Y-38051D01*
X42517Y-38053D01*
X42519Y-38053D01*
X42519Y-38053D01*
X42519Y-38053D01*
X42519Y-38053D01*
X42845Y-38053D01*
X42872Y-38080D01*
X42911Y-38108D01*
X42955Y-38127D01*
X43002Y-38137D01*
X43050Y-38138D01*
X43097Y-38130D01*
X43140Y-38113D01*
X43140Y-38221D01*
X43142Y-38235D01*
X43143Y-38250D01*
X43143Y-38251D01*
X43143Y-38252D01*
X43147Y-38266D01*
X43152Y-38280D01*
X43152Y-38281D01*
X43152Y-38281D01*
X43159Y-38294D01*
X43166Y-38308D01*
X43166Y-38308D01*
X43167Y-38309D01*
X43176Y-38320D01*
X43185Y-38332D01*
X43186Y-38333D01*
X43186Y-38333D01*
X43186Y-38333D01*
X43187Y-38333D01*
X43332Y-38478D01*
X43343Y-38488D01*
X43354Y-38497D01*
X43355Y-38498D01*
X43356Y-38498D01*
X43362Y-38502D01*
X43335Y-38502D01*
X43306Y-38472D01*
X43266Y-38445D01*
X43222Y-38426D01*
X43175Y-38417D01*
X43127Y-38416D01*
X43080Y-38425D01*
X43035Y-38443D01*
X42995Y-38470D01*
X42961Y-38503D01*
X42934Y-38543D01*
X42915Y-38587D01*
X42905Y-38634D01*
X42905Y-38640D01*
X42889Y-38594D01*
X42799Y-38437D01*
X42680Y-38302D01*
X42537Y-38191D01*
X42375Y-38111D01*
X42201Y-38064D01*
X42057Y-38085D01*
X42057Y-38966D01*
X42937Y-38966D01*
X42959Y-38821D01*
X42958Y-38814D01*
X42990Y-38848D01*
X43029Y-38875D01*
X43073Y-38894D01*
X43120Y-38905D01*
X43168Y-38906D01*
X43215Y-38897D01*
X43260Y-38880D01*
X43300Y-38854D01*
X43335Y-38821D01*
X43336Y-38820D01*
X43930Y-38820D01*
X44578Y-39469D01*
X44578Y-39807D01*
X44578Y-39807D01*
G37*
G54D11*
X44578Y-39807D02*
X44577Y-39807D01*
X44531Y-39816D01*
X44488Y-39833D01*
X44488Y-39834D01*
X44446Y-39816D01*
X44400Y-39807D01*
X44397Y-39807D01*
X44397Y-39686D01*
X44396Y-39671D01*
X44394Y-39657D01*
X44394Y-39656D01*
X44394Y-39655D01*
X44390Y-39641D01*
X44386Y-39627D01*
X44385Y-39626D01*
X44385Y-39625D01*
X44378Y-39612D01*
X44371Y-39599D01*
X44371Y-39599D01*
X44370Y-39598D01*
X44361Y-39586D01*
X44352Y-39575D01*
X44351Y-39574D01*
X44351Y-39574D01*
X44351Y-39574D01*
X44350Y-39573D01*
X44262Y-39485D01*
X44251Y-39476D01*
X44240Y-39466D01*
X44239Y-39466D01*
X44238Y-39465D01*
X44225Y-39459D01*
X44212Y-39451D01*
X44211Y-39451D01*
X44211Y-39451D01*
X44197Y-39446D01*
X44183Y-39442D01*
X44182Y-39442D01*
X44181Y-39442D01*
X44166Y-39440D01*
X44152Y-39439D01*
X44150Y-39439D01*
X44150Y-39439D01*
X44150Y-39439D01*
X44150Y-39439D01*
X43400Y-39439D01*
X43385Y-39440D01*
X43370Y-39441D01*
X43369Y-39442D01*
X43369Y-39442D01*
X43354Y-39446D01*
X43340Y-39450D01*
X43340Y-39450D01*
X43339Y-39451D01*
X43326Y-39457D01*
X43313Y-39464D01*
X43312Y-39465D01*
X43311Y-39465D01*
X43300Y-39474D01*
X43288Y-39484D01*
X43287Y-39485D01*
X43287Y-39485D01*
X43287Y-39485D01*
X43287Y-39485D01*
X43137Y-39635D01*
X43127Y-39647D01*
X43118Y-39658D01*
X43118Y-39659D01*
X43117Y-39659D01*
X43110Y-39672D01*
X43103Y-39685D01*
X43103Y-39686D01*
X43102Y-39687D01*
X43098Y-39701D01*
X43094Y-39715D01*
X43094Y-39716D01*
X43093Y-39716D01*
X43092Y-39731D01*
X43090Y-39746D01*
X43090Y-39747D01*
X43090Y-39747D01*
X43090Y-39747D01*
X43090Y-39748D01*
X43090Y-40333D01*
X42959Y-40464D01*
X42959Y-39130D01*
X42937Y-38986D01*
X42057Y-38986D01*
X42057Y-39867D01*
X42201Y-39888D01*
X42375Y-39841D01*
X42537Y-39760D01*
X42680Y-39650D01*
X42799Y-39514D01*
X42889Y-39358D01*
X42948Y-39187D01*
X42959Y-39130D01*
X42959Y-40464D01*
X42933Y-40490D01*
X42933Y-40490D01*
X42933Y-40480D01*
X42927Y-40449D01*
X42915Y-40421D01*
X42898Y-40395D01*
X42876Y-40373D01*
X42851Y-40356D01*
X42822Y-40344D01*
X42792Y-40338D01*
X42777Y-40338D01*
X42777Y-40295D01*
X42775Y-40280D01*
X42774Y-40265D01*
X42774Y-40264D01*
X42774Y-40264D01*
X42769Y-40249D01*
X42765Y-40235D01*
X42765Y-40235D01*
X42765Y-40234D01*
X42758Y-40221D01*
X42751Y-40208D01*
X42750Y-40207D01*
X42750Y-40206D01*
X42741Y-40195D01*
X42732Y-40183D01*
X42730Y-40182D01*
X42730Y-40182D01*
X42730Y-40182D01*
X42730Y-40182D01*
X42691Y-40143D01*
X42680Y-40133D01*
X42668Y-40124D01*
X42668Y-40124D01*
X42667Y-40123D01*
X42654Y-40116D01*
X42641Y-40109D01*
X42640Y-40109D01*
X42639Y-40108D01*
X42625Y-40104D01*
X42611Y-40100D01*
X42611Y-40099D01*
X42610Y-40099D01*
X42595Y-40098D01*
X42580Y-40096D01*
X42579Y-40096D01*
X42579Y-40096D01*
X42579Y-40096D01*
X42578Y-40096D01*
X42037Y-40096D01*
X42037Y-39867D01*
X42037Y-38986D01*
X42037Y-38966D01*
X42037Y-38085D01*
X41892Y-38064D01*
X41744Y-38104D01*
X41744Y-37802D01*
X41737Y-37723D01*
X41716Y-37647D01*
X41680Y-37576D01*
X41672Y-37564D01*
X41607Y-37539D01*
X41352Y-37795D01*
X41607Y-38050D01*
X41672Y-38025D01*
X41710Y-37956D01*
X41734Y-37881D01*
X41744Y-37802D01*
X41744Y-38104D01*
X41718Y-38111D01*
X41556Y-38191D01*
X41413Y-38302D01*
X41294Y-38437D01*
X41204Y-38594D01*
X41146Y-38765D01*
X41135Y-38821D01*
X41156Y-38966D01*
X42037Y-38966D01*
X42037Y-38986D01*
X41156Y-38986D01*
X41135Y-39130D01*
X41146Y-39187D01*
X41204Y-39358D01*
X41294Y-39514D01*
X41413Y-39650D01*
X41556Y-39760D01*
X41718Y-39841D01*
X41892Y-39888D01*
X42037Y-39867D01*
X42037Y-40096D01*
X41129Y-40096D01*
X40868Y-39835D01*
X40868Y-38412D01*
X41057Y-38222D01*
X41066Y-38211D01*
X41076Y-38200D01*
X41076Y-38199D01*
X41077Y-38198D01*
X41084Y-38185D01*
X41091Y-38173D01*
X41091Y-38172D01*
X41092Y-38171D01*
X41096Y-38157D01*
X41100Y-38143D01*
X41100Y-38142D01*
X41101Y-38141D01*
X41102Y-38127D01*
X41103Y-38117D01*
X41108Y-38129D01*
X41177Y-38167D01*
X41252Y-38191D01*
X41331Y-38200D01*
X41410Y-38194D01*
X41486Y-38172D01*
X41556Y-38136D01*
X41568Y-38129D01*
X41593Y-38064D01*
X41338Y-37809D01*
X41333Y-37814D01*
X41319Y-37800D01*
X41324Y-37795D01*
X41319Y-37789D01*
X41333Y-37775D01*
X41338Y-37781D01*
X41593Y-37526D01*
X41568Y-37461D01*
X41531Y-37440D01*
X41537Y-37440D01*
X41581Y-37436D01*
X41625Y-37423D01*
X41666Y-37401D01*
X41702Y-37371D01*
X41732Y-37336D01*
X41753Y-37295D01*
X41767Y-37250D01*
X41771Y-37206D01*
X41771Y-37069D01*
X41814Y-37069D01*
X41814Y-37081D01*
X41820Y-37111D01*
X41832Y-37140D01*
X41849Y-37165D01*
X41871Y-37187D01*
X41894Y-37203D01*
X41871Y-37219D01*
X41850Y-37240D01*
X41832Y-37266D01*
X41820Y-37294D01*
X41814Y-37325D01*
X41814Y-37356D01*
X41814Y-37671D01*
X41820Y-37701D01*
X41832Y-37730D01*
X41849Y-37755D01*
X41871Y-37777D01*
X41896Y-37794D01*
X41925Y-37806D01*
X41955Y-37813D01*
X41986Y-37813D01*
X42214Y-37813D01*
X42407Y-38006D01*
X42418Y-38015D01*
X42429Y-38025D01*
X42430Y-38025D01*
X42431Y-38026D01*
X42444Y-38033D01*
X42457Y-38040D01*
X42457Y-38040D01*
X42458Y-38040D01*
X42472Y-38045D01*
X42486Y-38049D01*
X42487Y-38049D01*
X42488Y-38049D01*
X42503Y-38051D01*
X42517Y-38053D01*
X42519Y-38053D01*
X42519Y-38053D01*
X42519Y-38053D01*
X42519Y-38053D01*
X42845Y-38053D01*
X42872Y-38080D01*
X42911Y-38108D01*
X42955Y-38127D01*
X43002Y-38137D01*
X43050Y-38138D01*
X43097Y-38130D01*
X43140Y-38113D01*
X43140Y-38221D01*
X43142Y-38235D01*
X43143Y-38250D01*
X43143Y-38251D01*
X43143Y-38252D01*
X43147Y-38266D01*
X43152Y-38280D01*
X43152Y-38281D01*
X43152Y-38281D01*
X43159Y-38294D01*
X43166Y-38308D01*
X43166Y-38308D01*
X43167Y-38309D01*
X43176Y-38320D01*
X43185Y-38332D01*
X43186Y-38333D01*
X43186Y-38333D01*
X43186Y-38333D01*
X43187Y-38333D01*
X43332Y-38478D01*
X43343Y-38488D01*
X43354Y-38497D01*
X43355Y-38498D01*
X43356Y-38498D01*
X43362Y-38502D01*
X43335Y-38502D01*
X43306Y-38472D01*
X43266Y-38445D01*
X43222Y-38426D01*
X43175Y-38417D01*
X43127Y-38416D01*
X43080Y-38425D01*
X43035Y-38443D01*
X42995Y-38470D01*
X42961Y-38503D01*
X42934Y-38543D01*
X42915Y-38587D01*
X42905Y-38634D01*
X42905Y-38640D01*
X42889Y-38594D01*
X42799Y-38437D01*
X42680Y-38302D01*
X42537Y-38191D01*
X42375Y-38111D01*
X42201Y-38064D01*
X42057Y-38085D01*
X42057Y-38966D01*
X42937Y-38966D01*
X42959Y-38821D01*
X42958Y-38814D01*
X42990Y-38848D01*
X43029Y-38875D01*
X43073Y-38894D01*
X43120Y-38905D01*
X43168Y-38906D01*
X43215Y-38897D01*
X43260Y-38880D01*
X43300Y-38854D01*
X43335Y-38821D01*
X43336Y-38820D01*
X43930Y-38820D01*
X44578Y-39469D01*
X44578Y-39807D01*
G54D10*
G36*
X48956Y-40771D02*
X48919Y-40767D01*
X48226Y-40767D01*
X48182Y-40772D01*
X48169Y-40775D01*
X48132Y-40768D01*
X47943Y-40767D01*
X47858Y-40783D01*
X47858Y-39005D01*
X47846Y-38824D01*
X47799Y-38649D01*
X47719Y-38486D01*
X47686Y-38437D01*
X47569Y-38350D01*
X46943Y-38976D01*
X47569Y-39602D01*
X47686Y-39514D01*
X47777Y-39357D01*
X47835Y-39185D01*
X47858Y-39005D01*
X47858Y-40783D01*
X47757Y-40802D01*
X47582Y-40873D01*
X47555Y-40891D01*
X47555Y-39616D01*
X46929Y-38990D01*
X46915Y-39004D01*
X46303Y-39616D01*
X46390Y-39734D01*
X46548Y-39824D01*
X46720Y-39882D01*
X46900Y-39905D01*
X47081Y-39893D01*
X47256Y-39846D01*
X47419Y-39766D01*
X47467Y-39734D01*
X47555Y-39616D01*
X47555Y-40891D01*
X47424Y-40976D01*
X47289Y-41109D01*
X47182Y-41265D01*
X47107Y-41438D01*
X47107Y-41437D01*
X47107Y-41437D01*
X47107Y-41437D01*
X47107Y-41437D01*
X47107Y-40961D01*
X47120Y-40961D01*
X47150Y-40955D01*
X47178Y-40943D01*
X47204Y-40926D01*
X47226Y-40904D01*
X47243Y-40878D01*
X47255Y-40850D01*
X47261Y-40820D01*
X47262Y-40789D01*
X47262Y-40474D01*
X47256Y-40443D01*
X47244Y-40415D01*
X47227Y-40389D01*
X47205Y-40367D01*
X47179Y-40350D01*
X47151Y-40338D01*
X47121Y-40332D01*
X47090Y-40332D01*
X46775Y-40332D01*
X46744Y-40338D01*
X46716Y-40349D01*
X46690Y-40367D01*
X46668Y-40388D01*
X46652Y-40412D01*
X46637Y-40389D01*
X46615Y-40367D01*
X46589Y-40350D01*
X46561Y-40338D01*
X46531Y-40332D01*
X46500Y-40332D01*
X46185Y-40332D01*
X46154Y-40338D01*
X46126Y-40349D01*
X46100Y-40367D01*
X46078Y-40388D01*
X46061Y-40414D01*
X46049Y-40442D01*
X46043Y-40473D01*
X46043Y-40490D01*
X45932Y-40490D01*
X45828Y-40386D01*
X45828Y-39370D01*
X45827Y-39355D01*
X45825Y-39340D01*
X45825Y-39339D01*
X45825Y-39339D01*
X45821Y-39325D01*
X45817Y-39310D01*
X45816Y-39310D01*
X45816Y-39309D01*
X45809Y-39296D01*
X45802Y-39283D01*
X45802Y-39282D01*
X45802Y-39281D01*
X45792Y-39270D01*
X45783Y-39258D01*
X45782Y-39257D01*
X45782Y-39257D01*
X45782Y-39257D01*
X45781Y-39257D01*
X45683Y-39158D01*
X45672Y-39149D01*
X45660Y-39140D01*
X45660Y-39139D01*
X45659Y-39139D01*
X45646Y-39132D01*
X45633Y-39125D01*
X45632Y-39124D01*
X45632Y-39124D01*
X45618Y-39120D01*
X45604Y-39115D01*
X45603Y-39115D01*
X45602Y-39115D01*
X45587Y-39113D01*
X45573Y-39112D01*
X45571Y-39112D01*
X45571Y-39112D01*
X45571Y-39112D01*
X45570Y-39112D01*
X44881Y-39112D01*
X44867Y-39113D01*
X44852Y-39115D01*
X44851Y-39115D01*
X44850Y-39115D01*
X44836Y-39119D01*
X44822Y-39123D01*
X44821Y-39124D01*
X44821Y-39124D01*
X44808Y-39131D01*
X44795Y-39137D01*
X44794Y-39138D01*
X44793Y-39138D01*
X44782Y-39148D01*
X44770Y-39157D01*
X44769Y-39158D01*
X44769Y-39158D01*
X44769Y-39158D01*
X44769Y-39158D01*
X44744Y-39184D01*
X44420Y-38860D01*
X45070Y-38860D01*
X45096Y-38887D01*
X45136Y-38915D01*
X45180Y-38934D01*
X45226Y-38944D01*
X45274Y-38945D01*
X45321Y-38937D01*
X45366Y-38919D01*
X45407Y-38894D01*
X45441Y-38861D01*
X45469Y-38822D01*
X45488Y-38778D01*
X45499Y-38731D01*
X45500Y-38676D01*
X45490Y-38629D01*
X45480Y-38604D01*
X45925Y-38604D01*
X45939Y-38602D01*
X45954Y-38601D01*
X45955Y-38601D01*
X45956Y-38601D01*
X45970Y-38596D01*
X45984Y-38592D01*
X45985Y-38592D01*
X45985Y-38592D01*
X45998Y-38585D01*
X46011Y-38578D01*
X46012Y-38578D01*
X46013Y-38577D01*
X46024Y-38568D01*
X46036Y-38559D01*
X46037Y-38557D01*
X46037Y-38557D01*
X46037Y-38557D01*
X46037Y-38557D01*
X46267Y-38328D01*
X46289Y-38350D01*
X46171Y-38437D01*
X46081Y-38595D01*
X46023Y-38767D01*
X45999Y-38947D01*
X46011Y-39128D01*
X46058Y-39303D01*
X46139Y-39466D01*
X46171Y-39514D01*
X46289Y-39602D01*
X46915Y-38976D01*
X46909Y-38970D01*
X46923Y-38956D01*
X46929Y-38962D01*
X47555Y-38336D01*
X47467Y-38218D01*
X47310Y-38128D01*
X47138Y-38070D01*
X46958Y-38047D01*
X46940Y-38048D01*
X46963Y-38026D01*
X46972Y-38014D01*
X46981Y-38003D01*
X46982Y-38002D01*
X46982Y-38002D01*
X46989Y-37989D01*
X46996Y-37976D01*
X46997Y-37975D01*
X46997Y-37974D01*
X47001Y-37960D01*
X47006Y-37946D01*
X47006Y-37945D01*
X47006Y-37944D01*
X47008Y-37930D01*
X47009Y-37915D01*
X47009Y-37913D01*
X47009Y-37913D01*
X47009Y-37913D01*
X47009Y-37913D01*
X47009Y-37815D01*
X47019Y-37815D01*
X47050Y-37809D01*
X47078Y-37797D01*
X47104Y-37780D01*
X47126Y-37758D01*
X47143Y-37732D01*
X47155Y-37704D01*
X47161Y-37674D01*
X47162Y-37643D01*
X47161Y-37328D01*
X47155Y-37297D01*
X47144Y-37269D01*
X47127Y-37243D01*
X47105Y-37221D01*
X47081Y-37205D01*
X47104Y-37190D01*
X47126Y-37168D01*
X47143Y-37142D01*
X47155Y-37114D01*
X47161Y-37084D01*
X47161Y-37068D01*
X47215Y-37068D01*
X47242Y-37096D01*
X47281Y-37123D01*
X47325Y-37142D01*
X47372Y-37153D01*
X47420Y-37154D01*
X47467Y-37145D01*
X47512Y-37128D01*
X47552Y-37102D01*
X47587Y-37069D01*
X47615Y-37030D01*
X47634Y-36986D01*
X47645Y-36940D01*
X47645Y-36885D01*
X47636Y-36838D01*
X47618Y-36794D01*
X47591Y-36754D01*
X47558Y-36720D01*
X47518Y-36693D01*
X47474Y-36674D01*
X47427Y-36665D01*
X47379Y-36664D01*
X47332Y-36673D01*
X47287Y-36691D01*
X47247Y-36718D01*
X47215Y-36750D01*
X47161Y-36750D01*
X47161Y-36738D01*
X47155Y-36707D01*
X47144Y-36679D01*
X47127Y-36653D01*
X47105Y-36631D01*
X47079Y-36614D01*
X47051Y-36602D01*
X47020Y-36596D01*
X46990Y-36596D01*
X46674Y-36596D01*
X46644Y-36602D01*
X46616Y-36613D01*
X46590Y-36631D01*
X46568Y-36652D01*
X46551Y-36678D01*
X46539Y-36706D01*
X46533Y-36737D01*
X46532Y-36768D01*
X46532Y-37083D01*
X46538Y-37113D01*
X46550Y-37141D01*
X46567Y-37167D01*
X46589Y-37189D01*
X46613Y-37205D01*
X46590Y-37221D01*
X46568Y-37242D01*
X46551Y-37268D01*
X46539Y-37296D01*
X46533Y-37327D01*
X46532Y-37358D01*
X46532Y-37673D01*
X46538Y-37703D01*
X46550Y-37731D01*
X46567Y-37757D01*
X46589Y-37779D01*
X46615Y-37796D01*
X46643Y-37808D01*
X46664Y-37813D01*
X46397Y-37813D01*
X46382Y-37814D01*
X46368Y-37815D01*
X46367Y-37816D01*
X46366Y-37816D01*
X46352Y-37820D01*
X46338Y-37824D01*
X46337Y-37824D01*
X46336Y-37825D01*
X46323Y-37832D01*
X46320Y-37833D01*
X46320Y-37815D01*
X46330Y-37815D01*
X46361Y-37809D01*
X46389Y-37797D01*
X46415Y-37780D01*
X46437Y-37758D01*
X46454Y-37732D01*
X46466Y-37704D01*
X46472Y-37674D01*
X46473Y-37643D01*
X46472Y-37328D01*
X46466Y-37297D01*
X46455Y-37269D01*
X46438Y-37243D01*
X46416Y-37221D01*
X46392Y-37205D01*
X46415Y-37190D01*
X46437Y-37168D01*
X46454Y-37142D01*
X46466Y-37114D01*
X46472Y-37084D01*
X46473Y-37053D01*
X46472Y-36738D01*
X46466Y-36707D01*
X46455Y-36679D01*
X46438Y-36653D01*
X46416Y-36631D01*
X46390Y-36614D01*
X46362Y-36602D01*
X46332Y-36596D01*
X46320Y-36596D01*
X46320Y-35775D01*
X46365Y-35768D01*
X46409Y-35750D01*
X46450Y-35724D01*
X46485Y-35691D01*
X46512Y-35652D01*
X46532Y-35609D01*
X46542Y-35562D01*
X46543Y-35507D01*
X46534Y-35460D01*
X46516Y-35416D01*
X46489Y-35376D01*
X46455Y-35342D01*
X46450Y-35339D01*
X46450Y-34564D01*
X46450Y-33939D01*
X46450Y-33912D01*
X46445Y-33886D01*
X46434Y-33861D01*
X46419Y-33838D01*
X46400Y-33819D01*
X46377Y-33804D01*
X46353Y-33794D01*
X46326Y-33789D01*
X46032Y-33789D01*
X45998Y-33823D01*
X45998Y-34242D01*
X46416Y-34242D01*
X46450Y-34207D01*
X46450Y-33939D01*
X46450Y-34564D01*
X46450Y-34296D01*
X46416Y-34261D01*
X45998Y-34261D01*
X45998Y-34680D01*
X46032Y-34714D01*
X46326Y-34714D01*
X46353Y-34709D01*
X46377Y-34699D01*
X46400Y-34684D01*
X46419Y-34665D01*
X46434Y-34642D01*
X46445Y-34617D01*
X46450Y-34591D01*
X46450Y-34564D01*
X46450Y-35339D01*
X46416Y-35315D01*
X46371Y-35296D01*
X46324Y-35287D01*
X46276Y-35286D01*
X46229Y-35295D01*
X46185Y-35313D01*
X46145Y-35340D01*
X46111Y-35373D01*
X46084Y-35413D01*
X46065Y-35457D01*
X46055Y-35504D01*
X46054Y-35550D01*
X46048Y-35556D01*
X46039Y-35567D01*
X46029Y-35579D01*
X46029Y-35579D01*
X46028Y-35580D01*
X46022Y-35593D01*
X46014Y-35606D01*
X46014Y-35607D01*
X46014Y-35608D01*
X46009Y-35622D01*
X46005Y-35636D01*
X46005Y-35636D01*
X46005Y-35637D01*
X46003Y-35652D01*
X46002Y-35667D01*
X46002Y-35668D01*
X46002Y-35668D01*
X46002Y-35668D01*
X46002Y-35669D01*
X46002Y-36596D01*
X45986Y-36596D01*
X45956Y-36601D01*
X45956Y-36230D01*
X45949Y-36136D01*
X45924Y-36045D01*
X45881Y-35961D01*
X45870Y-35943D01*
X45797Y-35909D01*
X45783Y-35923D01*
X45783Y-35895D01*
X45749Y-35822D01*
X45666Y-35776D01*
X45576Y-35747D01*
X45482Y-35735D01*
X45388Y-35743D01*
X45297Y-35768D01*
X45213Y-35811D01*
X45195Y-35822D01*
X45161Y-35895D01*
X45472Y-36206D01*
X45783Y-35895D01*
X45783Y-35923D01*
X45486Y-36220D01*
X45797Y-36531D01*
X45870Y-36497D01*
X45916Y-36414D01*
X45945Y-36324D01*
X45956Y-36230D01*
X45956Y-36601D01*
X45955Y-36602D01*
X45927Y-36613D01*
X45901Y-36631D01*
X45879Y-36652D01*
X45862Y-36678D01*
X45850Y-36706D01*
X45844Y-36737D01*
X45843Y-36768D01*
X45843Y-37083D01*
X45849Y-37113D01*
X45861Y-37141D01*
X45878Y-37167D01*
X45900Y-37189D01*
X45924Y-37205D01*
X45901Y-37221D01*
X45879Y-37242D01*
X45862Y-37268D01*
X45850Y-37296D01*
X45844Y-37327D01*
X45843Y-37358D01*
X45843Y-37673D01*
X45849Y-37703D01*
X45861Y-37731D01*
X45878Y-37757D01*
X45900Y-37779D01*
X45926Y-37796D01*
X45954Y-37808D01*
X45984Y-37815D01*
X46002Y-37815D01*
X46002Y-37867D01*
X45800Y-38068D01*
X45783Y-38068D01*
X45783Y-36545D01*
X45472Y-36234D01*
X45458Y-36248D01*
X45458Y-36220D01*
X45147Y-35909D01*
X45074Y-35943D01*
X45028Y-36026D01*
X44999Y-36116D01*
X44987Y-36210D01*
X44995Y-36304D01*
X45020Y-36395D01*
X45063Y-36479D01*
X45074Y-36497D01*
X45147Y-36531D01*
X45458Y-36220D01*
X45458Y-36248D01*
X45161Y-36545D01*
X45195Y-36618D01*
X45278Y-36664D01*
X45368Y-36693D01*
X45461Y-36704D01*
X45556Y-36697D01*
X45647Y-36672D01*
X45731Y-36629D01*
X45749Y-36618D01*
X45783Y-36545D01*
X45783Y-38068D01*
X45513Y-38068D01*
X45513Y-37896D01*
X45513Y-37055D01*
X45513Y-37028D01*
X45508Y-37002D01*
X45497Y-36977D01*
X45482Y-36955D01*
X45463Y-36936D01*
X45440Y-36921D01*
X45416Y-36910D01*
X45389Y-36905D01*
X45282Y-36905D01*
X45248Y-36939D01*
X45248Y-37466D01*
X45479Y-37466D01*
X45513Y-37432D01*
X45513Y-37055D01*
X45513Y-37896D01*
X45513Y-37520D01*
X45479Y-37486D01*
X45248Y-37486D01*
X45248Y-38012D01*
X45282Y-38047D01*
X45389Y-38047D01*
X45416Y-38042D01*
X45440Y-38031D01*
X45463Y-38016D01*
X45482Y-37997D01*
X45497Y-37975D01*
X45508Y-37950D01*
X45513Y-37923D01*
X45513Y-37896D01*
X45513Y-38068D01*
X45050Y-38068D01*
X45058Y-38060D01*
X45070Y-38043D01*
X45086Y-38047D01*
X45193Y-38047D01*
X45228Y-38012D01*
X45228Y-37486D01*
X45220Y-37486D01*
X45220Y-37466D01*
X45228Y-37466D01*
X45228Y-36939D01*
X45193Y-36905D01*
X45086Y-36905D01*
X45070Y-36908D01*
X45059Y-36893D01*
X45027Y-36860D01*
X44988Y-36834D01*
X44946Y-36816D01*
X44900Y-36807D01*
X44854Y-36806D01*
X44756Y-36806D01*
X44761Y-36784D01*
X44761Y-36761D01*
X44761Y-36446D01*
X44757Y-36423D01*
X44748Y-36401D01*
X44735Y-36382D01*
X44718Y-36365D01*
X44699Y-36352D01*
X44677Y-36343D01*
X44654Y-36338D01*
X44631Y-36338D01*
X44316Y-36338D01*
X44293Y-36343D01*
X44271Y-36351D01*
X44252Y-36364D01*
X44235Y-36381D01*
X44222Y-36400D01*
X44213Y-36422D01*
X44208Y-36445D01*
X44208Y-36454D01*
X44104Y-36454D01*
X44104Y-35732D01*
X44104Y-35344D01*
X43755Y-35344D01*
X43720Y-35378D01*
X43720Y-35617D01*
X43720Y-35644D01*
X43726Y-35670D01*
X43736Y-35695D01*
X43752Y-35717D01*
X43771Y-35736D01*
X43793Y-35751D01*
X43818Y-35762D01*
X43845Y-35767D01*
X44069Y-35767D01*
X44104Y-35732D01*
X44104Y-36454D01*
X43996Y-36454D01*
X43981Y-36455D01*
X43967Y-36457D01*
X43966Y-36457D01*
X43965Y-36457D01*
X43951Y-36461D01*
X43945Y-36463D01*
X43982Y-36379D01*
X44004Y-36283D01*
X44005Y-36171D01*
X43986Y-36074D01*
X43949Y-35983D01*
X43894Y-35901D01*
X43825Y-35831D01*
X43743Y-35776D01*
X43653Y-35738D01*
X43556Y-35718D01*
X43458Y-35718D01*
X43361Y-35736D01*
X43270Y-35773D01*
X43187Y-35827D01*
X43117Y-35896D01*
X43061Y-35977D01*
X43023Y-36067D01*
X43002Y-36164D01*
X43001Y-36262D01*
X43019Y-36359D01*
X43055Y-36451D01*
X43108Y-36533D01*
X43177Y-36604D01*
X43257Y-36660D01*
X43348Y-36700D01*
X43444Y-36721D01*
X43542Y-36723D01*
X43639Y-36706D01*
X43703Y-36681D01*
X43625Y-36759D01*
X43616Y-36770D01*
X43606Y-36782D01*
X43606Y-36782D01*
X43605Y-36783D01*
X43598Y-36796D01*
X43592Y-36807D01*
X43577Y-36807D01*
X43531Y-36816D01*
X43488Y-36833D01*
X43450Y-36859D01*
X43417Y-36892D01*
X43391Y-36930D01*
X43373Y-36973D01*
X43364Y-37018D01*
X43364Y-37064D01*
X43364Y-37637D01*
X43126Y-37399D01*
X43126Y-37328D01*
X43120Y-37297D01*
X43108Y-37269D01*
X43091Y-37243D01*
X43069Y-37221D01*
X43045Y-37205D01*
X43069Y-37190D01*
X43090Y-37168D01*
X43108Y-37142D01*
X43120Y-37114D01*
X43126Y-37084D01*
X43126Y-37053D01*
X43126Y-36738D01*
X43120Y-36707D01*
X43108Y-36679D01*
X43091Y-36653D01*
X43069Y-36631D01*
X43044Y-36614D01*
X43015Y-36602D01*
X42985Y-36596D01*
X42974Y-36596D01*
X42974Y-34783D01*
X43357Y-34783D01*
X43273Y-34867D01*
X43263Y-34879D01*
X43254Y-34890D01*
X43253Y-34891D01*
X43253Y-34891D01*
X43246Y-34904D01*
X43239Y-34917D01*
X43239Y-34918D01*
X43238Y-34919D01*
X43234Y-34933D01*
X43229Y-34947D01*
X43229Y-34948D01*
X43229Y-34948D01*
X43228Y-34963D01*
X43226Y-34978D01*
X43226Y-34979D01*
X43226Y-34979D01*
X43226Y-34979D01*
X43226Y-34980D01*
X43226Y-35050D01*
X43197Y-35078D01*
X43170Y-35117D01*
X43151Y-35161D01*
X43141Y-35208D01*
X43141Y-35256D01*
X43149Y-35303D01*
X43167Y-35348D01*
X43193Y-35388D01*
X43226Y-35423D01*
X43266Y-35450D01*
X43309Y-35469D01*
X43356Y-35480D01*
X43404Y-35481D01*
X43451Y-35472D01*
X43496Y-35455D01*
X43537Y-35429D01*
X43571Y-35396D01*
X43599Y-35357D01*
X43618Y-35313D01*
X43629Y-35266D01*
X43630Y-35212D01*
X43620Y-35165D01*
X43602Y-35120D01*
X43576Y-35081D01*
X43545Y-35049D01*
X43545Y-35046D01*
X43688Y-34903D01*
X43836Y-34903D01*
X43818Y-34907D01*
X43793Y-34917D01*
X43771Y-34932D01*
X43752Y-34951D01*
X43736Y-34973D01*
X43726Y-34998D01*
X43720Y-35025D01*
X43720Y-35052D01*
X43720Y-35290D01*
X43755Y-35324D01*
X44104Y-35324D01*
X44104Y-35316D01*
X44124Y-35316D01*
X44124Y-35324D01*
X44131Y-35324D01*
X44131Y-35344D01*
X44124Y-35344D01*
X44124Y-35732D01*
X44158Y-35767D01*
X44263Y-35767D01*
X44252Y-35774D01*
X44235Y-35791D01*
X44222Y-35810D01*
X44213Y-35832D01*
X44208Y-35855D01*
X44208Y-35878D01*
X44208Y-36193D01*
X44213Y-36216D01*
X44222Y-36238D01*
X44235Y-36257D01*
X44251Y-36274D01*
X44271Y-36287D01*
X44292Y-36296D01*
X44315Y-36301D01*
X44339Y-36301D01*
X44653Y-36301D01*
X44676Y-36296D01*
X44698Y-36287D01*
X44718Y-36274D01*
X44734Y-36258D01*
X44747Y-36238D01*
X44756Y-36217D01*
X44761Y-36194D01*
X44761Y-36171D01*
X44761Y-36162D01*
X44771Y-36157D01*
X44772Y-36157D01*
X44772Y-36156D01*
X44784Y-36147D01*
X44795Y-36138D01*
X44797Y-36137D01*
X44797Y-36136D01*
X44797Y-36136D01*
X44797Y-36136D01*
X44974Y-35959D01*
X44984Y-35947D01*
X44993Y-35936D01*
X44994Y-35935D01*
X44994Y-35935D01*
X45001Y-35922D01*
X45008Y-35909D01*
X45008Y-35908D01*
X45009Y-35907D01*
X45013Y-35893D01*
X45018Y-35879D01*
X45018Y-35878D01*
X45018Y-35877D01*
X45019Y-35863D01*
X45021Y-35848D01*
X45021Y-35847D01*
X45021Y-35847D01*
X45021Y-35847D01*
X45021Y-35846D01*
X45021Y-35787D01*
X45133Y-35787D01*
X45163Y-35781D01*
X45191Y-35769D01*
X45217Y-35752D01*
X45239Y-35730D01*
X45256Y-35704D01*
X45268Y-35676D01*
X45275Y-35646D01*
X45275Y-35615D01*
X45275Y-35024D01*
X45269Y-34993D01*
X45257Y-34965D01*
X45240Y-34939D01*
X45218Y-34917D01*
X45192Y-34900D01*
X45164Y-34888D01*
X45147Y-34885D01*
X45147Y-34783D01*
X45297Y-34783D01*
X45341Y-34779D01*
X45385Y-34765D01*
X45426Y-34743D01*
X45462Y-34714D01*
X45491Y-34678D01*
X45513Y-34637D01*
X45526Y-34595D01*
X45531Y-34617D01*
X45541Y-34642D01*
X45556Y-34665D01*
X45575Y-34684D01*
X45598Y-34699D01*
X45623Y-34709D01*
X45649Y-34714D01*
X45943Y-34714D01*
X45978Y-34680D01*
X45978Y-34261D01*
X45970Y-34261D01*
X45970Y-34242D01*
X45978Y-34242D01*
X45978Y-33823D01*
X45943Y-33789D01*
X45649Y-33789D01*
X45623Y-33794D01*
X45598Y-33804D01*
X45575Y-33819D01*
X45556Y-33838D01*
X45541Y-33861D01*
X45531Y-33886D01*
X45525Y-33912D01*
X45525Y-33939D01*
X45525Y-33944D01*
X45513Y-33905D01*
X45491Y-33864D01*
X45462Y-33828D01*
X45426Y-33799D01*
X45385Y-33777D01*
X45341Y-33764D01*
X45297Y-33759D01*
X42675Y-33759D01*
X42631Y-33764D01*
X42586Y-33777D01*
X42545Y-33799D01*
X42509Y-33828D01*
X42480Y-33864D01*
X42458Y-33905D01*
X42445Y-33949D01*
X42440Y-33994D01*
X42440Y-34549D01*
X42445Y-34593D01*
X42458Y-34637D01*
X42480Y-34678D01*
X42509Y-34714D01*
X42545Y-34743D01*
X42586Y-34765D01*
X42631Y-34779D01*
X42655Y-34781D01*
X42655Y-34989D01*
X42650Y-34982D01*
X42617Y-34948D01*
X42577Y-34921D01*
X42533Y-34903D01*
X42486Y-34893D01*
X42438Y-34893D01*
X42391Y-34902D01*
X42346Y-34920D01*
X42306Y-34946D01*
X42273Y-34979D01*
X42268Y-34979D01*
X42254Y-34981D01*
X42253Y-34981D01*
X42252Y-34981D01*
X42238Y-34985D01*
X42224Y-34989D01*
X42223Y-34990D01*
X42222Y-34990D01*
X42209Y-34997D01*
X42196Y-35004D01*
X42196Y-35004D01*
X42195Y-35005D01*
X42183Y-35014D01*
X42172Y-35023D01*
X42171Y-35024D01*
X42171Y-35024D01*
X42171Y-35024D01*
X42170Y-35025D01*
X41408Y-35787D01*
X40352Y-35787D01*
X40308Y-35791D01*
X40263Y-35805D01*
X40222Y-35827D01*
X40187Y-35856D01*
X40157Y-35892D01*
X40135Y-35933D01*
X40122Y-35977D01*
X40118Y-36021D01*
X40118Y-37994D01*
X40122Y-38038D01*
X40135Y-38082D01*
X40157Y-38123D01*
X40187Y-38159D01*
X40222Y-38188D01*
X40263Y-38210D01*
X40308Y-38223D01*
X40352Y-38228D01*
X40601Y-38228D01*
X40595Y-38233D01*
X40586Y-38245D01*
X40577Y-38256D01*
X40576Y-38257D01*
X40576Y-38257D01*
X40569Y-38270D01*
X40562Y-38283D01*
X40561Y-38284D01*
X40561Y-38285D01*
X40557Y-38299D01*
X40552Y-38313D01*
X40552Y-38314D01*
X40552Y-38314D01*
X40550Y-38329D01*
X40549Y-38344D01*
X40549Y-38345D01*
X40549Y-38345D01*
X40549Y-38345D01*
X40549Y-38346D01*
X40549Y-39901D01*
X40550Y-39916D01*
X40552Y-39930D01*
X40552Y-39931D01*
X40552Y-39932D01*
X40556Y-39946D01*
X40560Y-39960D01*
X40561Y-39961D01*
X40561Y-39962D01*
X40568Y-39975D01*
X40575Y-39988D01*
X40575Y-39989D01*
X40575Y-39989D01*
X40585Y-40001D01*
X40594Y-40012D01*
X40595Y-40013D01*
X40595Y-40013D01*
X40595Y-40013D01*
X40595Y-40014D01*
X40950Y-40368D01*
X40961Y-40377D01*
X40972Y-40387D01*
X40973Y-40387D01*
X40974Y-40388D01*
X40987Y-40395D01*
X41000Y-40402D01*
X41001Y-40402D01*
X41001Y-40403D01*
X41015Y-40407D01*
X41029Y-40411D01*
X41030Y-40411D01*
X41031Y-40412D01*
X41046Y-40413D01*
X41060Y-40415D01*
X41062Y-40415D01*
X41062Y-40415D01*
X41062Y-40415D01*
X41062Y-40415D01*
X41736Y-40415D01*
X41732Y-40420D01*
X41720Y-40448D01*
X41714Y-40479D01*
X41714Y-40509D01*
X41714Y-40825D01*
X41720Y-40855D01*
X41732Y-40883D01*
X41749Y-40909D01*
X41770Y-40931D01*
X41796Y-40948D01*
X41825Y-40960D01*
X41855Y-40966D01*
X41868Y-40967D01*
X41868Y-41338D01*
X41869Y-41353D01*
X41871Y-41368D01*
X41871Y-41368D01*
X41871Y-41369D01*
X41875Y-41383D01*
X41879Y-41398D01*
X41880Y-41398D01*
X41880Y-41399D01*
X41887Y-41412D01*
X41894Y-41425D01*
X41894Y-41426D01*
X41895Y-41427D01*
X41904Y-41438D01*
X41913Y-41449D01*
X41914Y-41451D01*
X41914Y-41451D01*
X41914Y-41451D01*
X41915Y-41451D01*
X42505Y-42041D01*
X42516Y-42051D01*
X42528Y-42060D01*
X42528Y-42061D01*
X42529Y-42061D01*
X42542Y-42068D01*
X42555Y-42075D01*
X42556Y-42075D01*
X42556Y-42076D01*
X42570Y-42080D01*
X42584Y-42085D01*
X42585Y-42085D01*
X42586Y-42085D01*
X42601Y-42086D01*
X42615Y-42088D01*
X42617Y-42088D01*
X42617Y-42088D01*
X42617Y-42088D01*
X42618Y-42088D01*
X43027Y-42088D01*
X43055Y-42159D01*
X43108Y-42242D01*
X43177Y-42313D01*
X43257Y-42369D01*
X43348Y-42408D01*
X43444Y-42429D01*
X43542Y-42432D01*
X43639Y-42414D01*
X43731Y-42379D01*
X43814Y-42326D01*
X43885Y-42258D01*
X43942Y-42178D01*
X43982Y-42088D01*
X44004Y-41992D01*
X44005Y-41937D01*
X44010Y-42012D01*
X44036Y-42104D01*
X44078Y-42188D01*
X44090Y-42205D01*
X44162Y-42240D01*
X44474Y-41929D01*
X44162Y-41617D01*
X44090Y-41652D01*
X44044Y-41734D01*
X44014Y-41824D01*
X44005Y-41902D01*
X44005Y-41879D01*
X43986Y-41783D01*
X43949Y-41692D01*
X43894Y-41610D01*
X43825Y-41540D01*
X43743Y-41485D01*
X43653Y-41447D01*
X43556Y-41427D01*
X43458Y-41426D01*
X43361Y-41445D01*
X43270Y-41482D01*
X43187Y-41536D01*
X43117Y-41604D01*
X43061Y-41686D01*
X43026Y-41769D01*
X42684Y-41769D01*
X42187Y-41272D01*
X42187Y-40967D01*
X42201Y-40967D01*
X42231Y-40961D01*
X42260Y-40949D01*
X42285Y-40932D01*
X42307Y-40910D01*
X42323Y-40886D01*
X42339Y-40909D01*
X42360Y-40931D01*
X42386Y-40948D01*
X42415Y-40960D01*
X42445Y-40966D01*
X42476Y-40967D01*
X42791Y-40967D01*
X42821Y-40961D01*
X42850Y-40949D01*
X42875Y-40932D01*
X42897Y-40910D01*
X42915Y-40884D01*
X42926Y-40856D01*
X42933Y-40826D01*
X42933Y-40808D01*
X43000Y-40808D01*
X43014Y-40807D01*
X43029Y-40806D01*
X43030Y-40806D01*
X43030Y-40805D01*
X43045Y-40801D01*
X43059Y-40797D01*
X43059Y-40797D01*
X43060Y-40796D01*
X43073Y-40790D01*
X43086Y-40783D01*
X43087Y-40782D01*
X43088Y-40782D01*
X43099Y-40773D01*
X43111Y-40763D01*
X43112Y-40762D01*
X43112Y-40762D01*
X43112Y-40762D01*
X43112Y-40762D01*
X43362Y-40512D01*
X43364Y-40510D01*
X43364Y-40932D01*
X43373Y-40978D01*
X43390Y-41020D01*
X43416Y-41059D01*
X43449Y-41092D01*
X43487Y-41118D01*
X43530Y-41136D01*
X43575Y-41145D01*
X43578Y-41145D01*
X43578Y-41179D01*
X43580Y-41193D01*
X43581Y-41208D01*
X43581Y-41209D01*
X43581Y-41210D01*
X43586Y-41224D01*
X43590Y-41238D01*
X43590Y-41239D01*
X43590Y-41239D01*
X43597Y-41252D01*
X43604Y-41265D01*
X43605Y-41266D01*
X43605Y-41267D01*
X43614Y-41278D01*
X43623Y-41290D01*
X43625Y-41291D01*
X43625Y-41291D01*
X43625Y-41291D01*
X43625Y-41291D01*
X43686Y-41352D01*
X43697Y-41362D01*
X43709Y-41371D01*
X43709Y-41372D01*
X43710Y-41372D01*
X43723Y-41379D01*
X43736Y-41386D01*
X43737Y-41386D01*
X43737Y-41387D01*
X43752Y-41391D01*
X43766Y-41396D01*
X43766Y-41396D01*
X43767Y-41396D01*
X43782Y-41397D01*
X43796Y-41399D01*
X43798Y-41399D01*
X43798Y-41399D01*
X43798Y-41399D01*
X43799Y-41399D01*
X45806Y-41399D01*
X45807Y-41400D01*
X45840Y-41435D01*
X45880Y-41462D01*
X45924Y-41481D01*
X45970Y-41492D01*
X46018Y-41493D01*
X46066Y-41484D01*
X46110Y-41467D01*
X46151Y-41441D01*
X46185Y-41408D01*
X46213Y-41369D01*
X46232Y-41325D01*
X46243Y-41279D01*
X46244Y-41224D01*
X46235Y-41177D01*
X46216Y-41133D01*
X46190Y-41093D01*
X46156Y-41059D01*
X46116Y-41032D01*
X46072Y-41013D01*
X46025Y-41004D01*
X45977Y-41003D01*
X45930Y-41012D01*
X45886Y-41030D01*
X45846Y-41057D01*
X45821Y-41080D01*
X45538Y-41080D01*
X45558Y-41060D01*
X45584Y-41022D01*
X45602Y-40979D01*
X45612Y-40934D01*
X45612Y-40887D01*
X45612Y-40621D01*
X45753Y-40762D01*
X45764Y-40771D01*
X45776Y-40781D01*
X45776Y-40781D01*
X45777Y-40782D01*
X45790Y-40788D01*
X45803Y-40796D01*
X45804Y-40796D01*
X45804Y-40796D01*
X45818Y-40801D01*
X45833Y-40805D01*
X45833Y-40805D01*
X45834Y-40805D01*
X45849Y-40807D01*
X45863Y-40808D01*
X45865Y-40808D01*
X45865Y-40808D01*
X45865Y-40808D01*
X45866Y-40808D01*
X46043Y-40808D01*
X46043Y-40819D01*
X46049Y-40849D01*
X46060Y-40877D01*
X46077Y-40903D01*
X46099Y-40925D01*
X46125Y-40942D01*
X46153Y-40954D01*
X46184Y-40961D01*
X46214Y-40961D01*
X46530Y-40961D01*
X46560Y-40955D01*
X46588Y-40943D01*
X46614Y-40926D01*
X46636Y-40904D01*
X46652Y-40880D01*
X46667Y-40903D01*
X46689Y-40925D01*
X46715Y-40942D01*
X46743Y-40954D01*
X46774Y-40961D01*
X46789Y-40961D01*
X46789Y-41371D01*
X46390Y-41769D01*
X45949Y-41769D01*
X45917Y-41692D01*
X45863Y-41610D01*
X45793Y-41540D01*
X45712Y-41485D01*
X45621Y-41447D01*
X45525Y-41427D01*
X45426Y-41426D01*
X45330Y-41445D01*
X45238Y-41482D01*
X45156Y-41536D01*
X45086Y-41604D01*
X45030Y-41686D01*
X44991Y-41776D01*
X44971Y-41872D01*
X44970Y-41912D01*
X44965Y-41845D01*
X44940Y-41754D01*
X44897Y-41669D01*
X44885Y-41652D01*
X44813Y-41617D01*
X44799Y-41631D01*
X44799Y-41603D01*
X44765Y-41531D01*
X44682Y-41485D01*
X44592Y-41455D01*
X44498Y-41444D01*
X44404Y-41451D01*
X44313Y-41477D01*
X44228Y-41519D01*
X44211Y-41531D01*
X44176Y-41603D01*
X44488Y-41915D01*
X44799Y-41603D01*
X44799Y-41631D01*
X44502Y-41929D01*
X44813Y-42240D01*
X44885Y-42205D01*
X44932Y-42123D01*
X44961Y-42033D01*
X44969Y-41962D01*
X44969Y-41971D01*
X44987Y-42068D01*
X45023Y-42159D01*
X45077Y-42242D01*
X45145Y-42313D01*
X45226Y-42369D01*
X45316Y-42408D01*
X45412Y-42429D01*
X45511Y-42432D01*
X45608Y-42414D01*
X45699Y-42379D01*
X45782Y-42326D01*
X45854Y-42258D01*
X45911Y-42178D01*
X45950Y-42088D01*
X46456Y-42088D01*
X46471Y-42087D01*
X46486Y-42085D01*
X46486Y-42085D01*
X46487Y-42085D01*
X46501Y-42081D01*
X46515Y-42077D01*
X46516Y-42076D01*
X46517Y-42076D01*
X46530Y-42069D01*
X46543Y-42062D01*
X46544Y-42062D01*
X46544Y-42061D01*
X46556Y-42052D01*
X46567Y-42043D01*
X46568Y-42042D01*
X46568Y-42042D01*
X46569Y-42042D01*
X46569Y-42041D01*
X47061Y-41549D01*
X47070Y-41538D01*
X47080Y-41527D01*
X47080Y-41526D01*
X47080Y-41525D01*
X47087Y-41512D01*
X47094Y-41501D01*
X47068Y-41624D01*
X47065Y-41813D01*
X47075Y-41868D01*
X47071Y-41883D01*
X47066Y-41927D01*
X47066Y-42620D01*
X47070Y-42657D01*
X44799Y-42657D01*
X44799Y-42254D01*
X44488Y-41943D01*
X44176Y-42254D01*
X44211Y-42326D01*
X44293Y-42373D01*
X44383Y-42402D01*
X44477Y-42413D01*
X44572Y-42406D01*
X44663Y-42381D01*
X44747Y-42338D01*
X44765Y-42326D01*
X44799Y-42254D01*
X44799Y-42657D01*
X41905Y-42657D01*
X41909Y-42620D01*
X41909Y-41927D01*
X41905Y-41883D01*
X41902Y-41873D01*
X41906Y-41853D01*
X41909Y-41637D01*
X41872Y-41452D01*
X41800Y-41277D01*
X41695Y-41119D01*
X41562Y-40985D01*
X41405Y-40879D01*
X41231Y-40806D01*
X41046Y-40768D01*
X40857Y-40767D01*
X40808Y-40776D01*
X40794Y-40772D01*
X40749Y-40767D01*
X40057Y-40767D01*
X40019Y-40771D01*
X40019Y-35606D01*
X40057Y-35610D01*
X40749Y-35610D01*
X40794Y-35605D01*
X40805Y-35602D01*
X40830Y-35608D01*
X41019Y-35612D01*
X41205Y-35579D01*
X41381Y-35510D01*
X41541Y-35409D01*
X41678Y-35278D01*
X41787Y-35124D01*
X41864Y-34951D01*
X41906Y-34767D01*
X41909Y-34551D01*
X41901Y-34508D01*
X41905Y-34494D01*
X41909Y-34450D01*
X41909Y-33757D01*
X41905Y-33720D01*
X47070Y-33720D01*
X47066Y-33757D01*
X47066Y-34450D01*
X47071Y-34494D01*
X47074Y-34506D01*
X47068Y-34537D01*
X47065Y-34726D01*
X47099Y-34912D01*
X47169Y-35088D01*
X47271Y-35247D01*
X47403Y-35383D01*
X47558Y-35491D01*
X47731Y-35567D01*
X47916Y-35608D01*
X48105Y-35612D01*
X48166Y-35601D01*
X48182Y-35605D01*
X48226Y-35610D01*
X48919Y-35610D01*
X48956Y-35606D01*
X48956Y-40771D01*
X48956Y-40771D01*
G37*
G54D11*
X48956Y-40771D02*
X48919Y-40767D01*
X48226Y-40767D01*
X48182Y-40772D01*
X48169Y-40775D01*
X48132Y-40768D01*
X47943Y-40767D01*
X47858Y-40783D01*
X47858Y-39005D01*
X47846Y-38824D01*
X47799Y-38649D01*
X47719Y-38486D01*
X47686Y-38437D01*
X47569Y-38350D01*
X46943Y-38976D01*
X47569Y-39602D01*
X47686Y-39514D01*
X47777Y-39357D01*
X47835Y-39185D01*
X47858Y-39005D01*
X47858Y-40783D01*
X47757Y-40802D01*
X47582Y-40873D01*
X47555Y-40891D01*
X47555Y-39616D01*
X46929Y-38990D01*
X46915Y-39004D01*
X46303Y-39616D01*
X46390Y-39734D01*
X46548Y-39824D01*
X46720Y-39882D01*
X46900Y-39905D01*
X47081Y-39893D01*
X47256Y-39846D01*
X47419Y-39766D01*
X47467Y-39734D01*
X47555Y-39616D01*
X47555Y-40891D01*
X47424Y-40976D01*
X47289Y-41109D01*
X47182Y-41265D01*
X47107Y-41438D01*
X47107Y-41437D01*
X47107Y-41437D01*
X47107Y-41437D01*
X47107Y-41437D01*
X47107Y-40961D01*
X47120Y-40961D01*
X47150Y-40955D01*
X47178Y-40943D01*
X47204Y-40926D01*
X47226Y-40904D01*
X47243Y-40878D01*
X47255Y-40850D01*
X47261Y-40820D01*
X47262Y-40789D01*
X47262Y-40474D01*
X47256Y-40443D01*
X47244Y-40415D01*
X47227Y-40389D01*
X47205Y-40367D01*
X47179Y-40350D01*
X47151Y-40338D01*
X47121Y-40332D01*
X47090Y-40332D01*
X46775Y-40332D01*
X46744Y-40338D01*
X46716Y-40349D01*
X46690Y-40367D01*
X46668Y-40388D01*
X46652Y-40412D01*
X46637Y-40389D01*
X46615Y-40367D01*
X46589Y-40350D01*
X46561Y-40338D01*
X46531Y-40332D01*
X46500Y-40332D01*
X46185Y-40332D01*
X46154Y-40338D01*
X46126Y-40349D01*
X46100Y-40367D01*
X46078Y-40388D01*
X46061Y-40414D01*
X46049Y-40442D01*
X46043Y-40473D01*
X46043Y-40490D01*
X45932Y-40490D01*
X45828Y-40386D01*
X45828Y-39370D01*
X45827Y-39355D01*
X45825Y-39340D01*
X45825Y-39339D01*
X45825Y-39339D01*
X45821Y-39325D01*
X45817Y-39310D01*
X45816Y-39310D01*
X45816Y-39309D01*
X45809Y-39296D01*
X45802Y-39283D01*
X45802Y-39282D01*
X45802Y-39281D01*
X45792Y-39270D01*
X45783Y-39258D01*
X45782Y-39257D01*
X45782Y-39257D01*
X45782Y-39257D01*
X45781Y-39257D01*
X45683Y-39158D01*
X45672Y-39149D01*
X45660Y-39140D01*
X45660Y-39139D01*
X45659Y-39139D01*
X45646Y-39132D01*
X45633Y-39125D01*
X45632Y-39124D01*
X45632Y-39124D01*
X45618Y-39120D01*
X45604Y-39115D01*
X45603Y-39115D01*
X45602Y-39115D01*
X45587Y-39113D01*
X45573Y-39112D01*
X45571Y-39112D01*
X45571Y-39112D01*
X45571Y-39112D01*
X45570Y-39112D01*
X44881Y-39112D01*
X44867Y-39113D01*
X44852Y-39115D01*
X44851Y-39115D01*
X44850Y-39115D01*
X44836Y-39119D01*
X44822Y-39123D01*
X44821Y-39124D01*
X44821Y-39124D01*
X44808Y-39131D01*
X44795Y-39137D01*
X44794Y-39138D01*
X44793Y-39138D01*
X44782Y-39148D01*
X44770Y-39157D01*
X44769Y-39158D01*
X44769Y-39158D01*
X44769Y-39158D01*
X44769Y-39158D01*
X44744Y-39184D01*
X44420Y-38860D01*
X45070Y-38860D01*
X45096Y-38887D01*
X45136Y-38915D01*
X45180Y-38934D01*
X45226Y-38944D01*
X45274Y-38945D01*
X45321Y-38937D01*
X45366Y-38919D01*
X45407Y-38894D01*
X45441Y-38861D01*
X45469Y-38822D01*
X45488Y-38778D01*
X45499Y-38731D01*
X45500Y-38676D01*
X45490Y-38629D01*
X45480Y-38604D01*
X45925Y-38604D01*
X45939Y-38602D01*
X45954Y-38601D01*
X45955Y-38601D01*
X45956Y-38601D01*
X45970Y-38596D01*
X45984Y-38592D01*
X45985Y-38592D01*
X45985Y-38592D01*
X45998Y-38585D01*
X46011Y-38578D01*
X46012Y-38578D01*
X46013Y-38577D01*
X46024Y-38568D01*
X46036Y-38559D01*
X46037Y-38557D01*
X46037Y-38557D01*
X46037Y-38557D01*
X46037Y-38557D01*
X46267Y-38328D01*
X46289Y-38350D01*
X46171Y-38437D01*
X46081Y-38595D01*
X46023Y-38767D01*
X45999Y-38947D01*
X46011Y-39128D01*
X46058Y-39303D01*
X46139Y-39466D01*
X46171Y-39514D01*
X46289Y-39602D01*
X46915Y-38976D01*
X46909Y-38970D01*
X46923Y-38956D01*
X46929Y-38962D01*
X47555Y-38336D01*
X47467Y-38218D01*
X47310Y-38128D01*
X47138Y-38070D01*
X46958Y-38047D01*
X46940Y-38048D01*
X46963Y-38026D01*
X46972Y-38014D01*
X46981Y-38003D01*
X46982Y-38002D01*
X46982Y-38002D01*
X46989Y-37989D01*
X46996Y-37976D01*
X46997Y-37975D01*
X46997Y-37974D01*
X47001Y-37960D01*
X47006Y-37946D01*
X47006Y-37945D01*
X47006Y-37944D01*
X47008Y-37930D01*
X47009Y-37915D01*
X47009Y-37913D01*
X47009Y-37913D01*
X47009Y-37913D01*
X47009Y-37913D01*
X47009Y-37815D01*
X47019Y-37815D01*
X47050Y-37809D01*
X47078Y-37797D01*
X47104Y-37780D01*
X47126Y-37758D01*
X47143Y-37732D01*
X47155Y-37704D01*
X47161Y-37674D01*
X47162Y-37643D01*
X47161Y-37328D01*
X47155Y-37297D01*
X47144Y-37269D01*
X47127Y-37243D01*
X47105Y-37221D01*
X47081Y-37205D01*
X47104Y-37190D01*
X47126Y-37168D01*
X47143Y-37142D01*
X47155Y-37114D01*
X47161Y-37084D01*
X47161Y-37068D01*
X47215Y-37068D01*
X47242Y-37096D01*
X47281Y-37123D01*
X47325Y-37142D01*
X47372Y-37153D01*
X47420Y-37154D01*
X47467Y-37145D01*
X47512Y-37128D01*
X47552Y-37102D01*
X47587Y-37069D01*
X47615Y-37030D01*
X47634Y-36986D01*
X47645Y-36940D01*
X47645Y-36885D01*
X47636Y-36838D01*
X47618Y-36794D01*
X47591Y-36754D01*
X47558Y-36720D01*
X47518Y-36693D01*
X47474Y-36674D01*
X47427Y-36665D01*
X47379Y-36664D01*
X47332Y-36673D01*
X47287Y-36691D01*
X47247Y-36718D01*
X47215Y-36750D01*
X47161Y-36750D01*
X47161Y-36738D01*
X47155Y-36707D01*
X47144Y-36679D01*
X47127Y-36653D01*
X47105Y-36631D01*
X47079Y-36614D01*
X47051Y-36602D01*
X47020Y-36596D01*
X46990Y-36596D01*
X46674Y-36596D01*
X46644Y-36602D01*
X46616Y-36613D01*
X46590Y-36631D01*
X46568Y-36652D01*
X46551Y-36678D01*
X46539Y-36706D01*
X46533Y-36737D01*
X46532Y-36768D01*
X46532Y-37083D01*
X46538Y-37113D01*
X46550Y-37141D01*
X46567Y-37167D01*
X46589Y-37189D01*
X46613Y-37205D01*
X46590Y-37221D01*
X46568Y-37242D01*
X46551Y-37268D01*
X46539Y-37296D01*
X46533Y-37327D01*
X46532Y-37358D01*
X46532Y-37673D01*
X46538Y-37703D01*
X46550Y-37731D01*
X46567Y-37757D01*
X46589Y-37779D01*
X46615Y-37796D01*
X46643Y-37808D01*
X46664Y-37813D01*
X46397Y-37813D01*
X46382Y-37814D01*
X46368Y-37815D01*
X46367Y-37816D01*
X46366Y-37816D01*
X46352Y-37820D01*
X46338Y-37824D01*
X46337Y-37824D01*
X46336Y-37825D01*
X46323Y-37832D01*
X46320Y-37833D01*
X46320Y-37815D01*
X46330Y-37815D01*
X46361Y-37809D01*
X46389Y-37797D01*
X46415Y-37780D01*
X46437Y-37758D01*
X46454Y-37732D01*
X46466Y-37704D01*
X46472Y-37674D01*
X46473Y-37643D01*
X46472Y-37328D01*
X46466Y-37297D01*
X46455Y-37269D01*
X46438Y-37243D01*
X46416Y-37221D01*
X46392Y-37205D01*
X46415Y-37190D01*
X46437Y-37168D01*
X46454Y-37142D01*
X46466Y-37114D01*
X46472Y-37084D01*
X46473Y-37053D01*
X46472Y-36738D01*
X46466Y-36707D01*
X46455Y-36679D01*
X46438Y-36653D01*
X46416Y-36631D01*
X46390Y-36614D01*
X46362Y-36602D01*
X46332Y-36596D01*
X46320Y-36596D01*
X46320Y-35775D01*
X46365Y-35768D01*
X46409Y-35750D01*
X46450Y-35724D01*
X46485Y-35691D01*
X46512Y-35652D01*
X46532Y-35609D01*
X46542Y-35562D01*
X46543Y-35507D01*
X46534Y-35460D01*
X46516Y-35416D01*
X46489Y-35376D01*
X46455Y-35342D01*
X46450Y-35339D01*
X46450Y-34564D01*
X46450Y-33939D01*
X46450Y-33912D01*
X46445Y-33886D01*
X46434Y-33861D01*
X46419Y-33838D01*
X46400Y-33819D01*
X46377Y-33804D01*
X46353Y-33794D01*
X46326Y-33789D01*
X46032Y-33789D01*
X45998Y-33823D01*
X45998Y-34242D01*
X46416Y-34242D01*
X46450Y-34207D01*
X46450Y-33939D01*
X46450Y-34564D01*
X46450Y-34296D01*
X46416Y-34261D01*
X45998Y-34261D01*
X45998Y-34680D01*
X46032Y-34714D01*
X46326Y-34714D01*
X46353Y-34709D01*
X46377Y-34699D01*
X46400Y-34684D01*
X46419Y-34665D01*
X46434Y-34642D01*
X46445Y-34617D01*
X46450Y-34591D01*
X46450Y-34564D01*
X46450Y-35339D01*
X46416Y-35315D01*
X46371Y-35296D01*
X46324Y-35287D01*
X46276Y-35286D01*
X46229Y-35295D01*
X46185Y-35313D01*
X46145Y-35340D01*
X46111Y-35373D01*
X46084Y-35413D01*
X46065Y-35457D01*
X46055Y-35504D01*
X46054Y-35550D01*
X46048Y-35556D01*
X46039Y-35567D01*
X46029Y-35579D01*
X46029Y-35579D01*
X46028Y-35580D01*
X46022Y-35593D01*
X46014Y-35606D01*
X46014Y-35607D01*
X46014Y-35608D01*
X46009Y-35622D01*
X46005Y-35636D01*
X46005Y-35636D01*
X46005Y-35637D01*
X46003Y-35652D01*
X46002Y-35667D01*
X46002Y-35668D01*
X46002Y-35668D01*
X46002Y-35668D01*
X46002Y-35669D01*
X46002Y-36596D01*
X45986Y-36596D01*
X45956Y-36601D01*
X45956Y-36230D01*
X45949Y-36136D01*
X45924Y-36045D01*
X45881Y-35961D01*
X45870Y-35943D01*
X45797Y-35909D01*
X45783Y-35923D01*
X45783Y-35895D01*
X45749Y-35822D01*
X45666Y-35776D01*
X45576Y-35747D01*
X45482Y-35735D01*
X45388Y-35743D01*
X45297Y-35768D01*
X45213Y-35811D01*
X45195Y-35822D01*
X45161Y-35895D01*
X45472Y-36206D01*
X45783Y-35895D01*
X45783Y-35923D01*
X45486Y-36220D01*
X45797Y-36531D01*
X45870Y-36497D01*
X45916Y-36414D01*
X45945Y-36324D01*
X45956Y-36230D01*
X45956Y-36601D01*
X45955Y-36602D01*
X45927Y-36613D01*
X45901Y-36631D01*
X45879Y-36652D01*
X45862Y-36678D01*
X45850Y-36706D01*
X45844Y-36737D01*
X45843Y-36768D01*
X45843Y-37083D01*
X45849Y-37113D01*
X45861Y-37141D01*
X45878Y-37167D01*
X45900Y-37189D01*
X45924Y-37205D01*
X45901Y-37221D01*
X45879Y-37242D01*
X45862Y-37268D01*
X45850Y-37296D01*
X45844Y-37327D01*
X45843Y-37358D01*
X45843Y-37673D01*
X45849Y-37703D01*
X45861Y-37731D01*
X45878Y-37757D01*
X45900Y-37779D01*
X45926Y-37796D01*
X45954Y-37808D01*
X45984Y-37815D01*
X46002Y-37815D01*
X46002Y-37867D01*
X45800Y-38068D01*
X45783Y-38068D01*
X45783Y-36545D01*
X45472Y-36234D01*
X45458Y-36248D01*
X45458Y-36220D01*
X45147Y-35909D01*
X45074Y-35943D01*
X45028Y-36026D01*
X44999Y-36116D01*
X44987Y-36210D01*
X44995Y-36304D01*
X45020Y-36395D01*
X45063Y-36479D01*
X45074Y-36497D01*
X45147Y-36531D01*
X45458Y-36220D01*
X45458Y-36248D01*
X45161Y-36545D01*
X45195Y-36618D01*
X45278Y-36664D01*
X45368Y-36693D01*
X45461Y-36704D01*
X45556Y-36697D01*
X45647Y-36672D01*
X45731Y-36629D01*
X45749Y-36618D01*
X45783Y-36545D01*
X45783Y-38068D01*
X45513Y-38068D01*
X45513Y-37896D01*
X45513Y-37055D01*
X45513Y-37028D01*
X45508Y-37002D01*
X45497Y-36977D01*
X45482Y-36955D01*
X45463Y-36936D01*
X45440Y-36921D01*
X45416Y-36910D01*
X45389Y-36905D01*
X45282Y-36905D01*
X45248Y-36939D01*
X45248Y-37466D01*
X45479Y-37466D01*
X45513Y-37432D01*
X45513Y-37055D01*
X45513Y-37896D01*
X45513Y-37520D01*
X45479Y-37486D01*
X45248Y-37486D01*
X45248Y-38012D01*
X45282Y-38047D01*
X45389Y-38047D01*
X45416Y-38042D01*
X45440Y-38031D01*
X45463Y-38016D01*
X45482Y-37997D01*
X45497Y-37975D01*
X45508Y-37950D01*
X45513Y-37923D01*
X45513Y-37896D01*
X45513Y-38068D01*
X45050Y-38068D01*
X45058Y-38060D01*
X45070Y-38043D01*
X45086Y-38047D01*
X45193Y-38047D01*
X45228Y-38012D01*
X45228Y-37486D01*
X45220Y-37486D01*
X45220Y-37466D01*
X45228Y-37466D01*
X45228Y-36939D01*
X45193Y-36905D01*
X45086Y-36905D01*
X45070Y-36908D01*
X45059Y-36893D01*
X45027Y-36860D01*
X44988Y-36834D01*
X44946Y-36816D01*
X44900Y-36807D01*
X44854Y-36806D01*
X44756Y-36806D01*
X44761Y-36784D01*
X44761Y-36761D01*
X44761Y-36446D01*
X44757Y-36423D01*
X44748Y-36401D01*
X44735Y-36382D01*
X44718Y-36365D01*
X44699Y-36352D01*
X44677Y-36343D01*
X44654Y-36338D01*
X44631Y-36338D01*
X44316Y-36338D01*
X44293Y-36343D01*
X44271Y-36351D01*
X44252Y-36364D01*
X44235Y-36381D01*
X44222Y-36400D01*
X44213Y-36422D01*
X44208Y-36445D01*
X44208Y-36454D01*
X44104Y-36454D01*
X44104Y-35732D01*
X44104Y-35344D01*
X43755Y-35344D01*
X43720Y-35378D01*
X43720Y-35617D01*
X43720Y-35644D01*
X43726Y-35670D01*
X43736Y-35695D01*
X43752Y-35717D01*
X43771Y-35736D01*
X43793Y-35751D01*
X43818Y-35762D01*
X43845Y-35767D01*
X44069Y-35767D01*
X44104Y-35732D01*
X44104Y-36454D01*
X43996Y-36454D01*
X43981Y-36455D01*
X43967Y-36457D01*
X43966Y-36457D01*
X43965Y-36457D01*
X43951Y-36461D01*
X43945Y-36463D01*
X43982Y-36379D01*
X44004Y-36283D01*
X44005Y-36171D01*
X43986Y-36074D01*
X43949Y-35983D01*
X43894Y-35901D01*
X43825Y-35831D01*
X43743Y-35776D01*
X43653Y-35738D01*
X43556Y-35718D01*
X43458Y-35718D01*
X43361Y-35736D01*
X43270Y-35773D01*
X43187Y-35827D01*
X43117Y-35896D01*
X43061Y-35977D01*
X43023Y-36067D01*
X43002Y-36164D01*
X43001Y-36262D01*
X43019Y-36359D01*
X43055Y-36451D01*
X43108Y-36533D01*
X43177Y-36604D01*
X43257Y-36660D01*
X43348Y-36700D01*
X43444Y-36721D01*
X43542Y-36723D01*
X43639Y-36706D01*
X43703Y-36681D01*
X43625Y-36759D01*
X43616Y-36770D01*
X43606Y-36782D01*
X43606Y-36782D01*
X43605Y-36783D01*
X43598Y-36796D01*
X43592Y-36807D01*
X43577Y-36807D01*
X43531Y-36816D01*
X43488Y-36833D01*
X43450Y-36859D01*
X43417Y-36892D01*
X43391Y-36930D01*
X43373Y-36973D01*
X43364Y-37018D01*
X43364Y-37064D01*
X43364Y-37637D01*
X43126Y-37399D01*
X43126Y-37328D01*
X43120Y-37297D01*
X43108Y-37269D01*
X43091Y-37243D01*
X43069Y-37221D01*
X43045Y-37205D01*
X43069Y-37190D01*
X43090Y-37168D01*
X43108Y-37142D01*
X43120Y-37114D01*
X43126Y-37084D01*
X43126Y-37053D01*
X43126Y-36738D01*
X43120Y-36707D01*
X43108Y-36679D01*
X43091Y-36653D01*
X43069Y-36631D01*
X43044Y-36614D01*
X43015Y-36602D01*
X42985Y-36596D01*
X42974Y-36596D01*
X42974Y-34783D01*
X43357Y-34783D01*
X43273Y-34867D01*
X43263Y-34879D01*
X43254Y-34890D01*
X43253Y-34891D01*
X43253Y-34891D01*
X43246Y-34904D01*
X43239Y-34917D01*
X43239Y-34918D01*
X43238Y-34919D01*
X43234Y-34933D01*
X43229Y-34947D01*
X43229Y-34948D01*
X43229Y-34948D01*
X43228Y-34963D01*
X43226Y-34978D01*
X43226Y-34979D01*
X43226Y-34979D01*
X43226Y-34979D01*
X43226Y-34980D01*
X43226Y-35050D01*
X43197Y-35078D01*
X43170Y-35117D01*
X43151Y-35161D01*
X43141Y-35208D01*
X43141Y-35256D01*
X43149Y-35303D01*
X43167Y-35348D01*
X43193Y-35388D01*
X43226Y-35423D01*
X43266Y-35450D01*
X43309Y-35469D01*
X43356Y-35480D01*
X43404Y-35481D01*
X43451Y-35472D01*
X43496Y-35455D01*
X43537Y-35429D01*
X43571Y-35396D01*
X43599Y-35357D01*
X43618Y-35313D01*
X43629Y-35266D01*
X43630Y-35212D01*
X43620Y-35165D01*
X43602Y-35120D01*
X43576Y-35081D01*
X43545Y-35049D01*
X43545Y-35046D01*
X43688Y-34903D01*
X43836Y-34903D01*
X43818Y-34907D01*
X43793Y-34917D01*
X43771Y-34932D01*
X43752Y-34951D01*
X43736Y-34973D01*
X43726Y-34998D01*
X43720Y-35025D01*
X43720Y-35052D01*
X43720Y-35290D01*
X43755Y-35324D01*
X44104Y-35324D01*
X44104Y-35316D01*
X44124Y-35316D01*
X44124Y-35324D01*
X44131Y-35324D01*
X44131Y-35344D01*
X44124Y-35344D01*
X44124Y-35732D01*
X44158Y-35767D01*
X44263Y-35767D01*
X44252Y-35774D01*
X44235Y-35791D01*
X44222Y-35810D01*
X44213Y-35832D01*
X44208Y-35855D01*
X44208Y-35878D01*
X44208Y-36193D01*
X44213Y-36216D01*
X44222Y-36238D01*
X44235Y-36257D01*
X44251Y-36274D01*
X44271Y-36287D01*
X44292Y-36296D01*
X44315Y-36301D01*
X44339Y-36301D01*
X44653Y-36301D01*
X44676Y-36296D01*
X44698Y-36287D01*
X44718Y-36274D01*
X44734Y-36258D01*
X44747Y-36238D01*
X44756Y-36217D01*
X44761Y-36194D01*
X44761Y-36171D01*
X44761Y-36162D01*
X44771Y-36157D01*
X44772Y-36157D01*
X44772Y-36156D01*
X44784Y-36147D01*
X44795Y-36138D01*
X44797Y-36137D01*
X44797Y-36136D01*
X44797Y-36136D01*
X44797Y-36136D01*
X44974Y-35959D01*
X44984Y-35947D01*
X44993Y-35936D01*
X44994Y-35935D01*
X44994Y-35935D01*
X45001Y-35922D01*
X45008Y-35909D01*
X45008Y-35908D01*
X45009Y-35907D01*
X45013Y-35893D01*
X45018Y-35879D01*
X45018Y-35878D01*
X45018Y-35877D01*
X45019Y-35863D01*
X45021Y-35848D01*
X45021Y-35847D01*
X45021Y-35847D01*
X45021Y-35847D01*
X45021Y-35846D01*
X45021Y-35787D01*
X45133Y-35787D01*
X45163Y-35781D01*
X45191Y-35769D01*
X45217Y-35752D01*
X45239Y-35730D01*
X45256Y-35704D01*
X45268Y-35676D01*
X45275Y-35646D01*
X45275Y-35615D01*
X45275Y-35024D01*
X45269Y-34993D01*
X45257Y-34965D01*
X45240Y-34939D01*
X45218Y-34917D01*
X45192Y-34900D01*
X45164Y-34888D01*
X45147Y-34885D01*
X45147Y-34783D01*
X45297Y-34783D01*
X45341Y-34779D01*
X45385Y-34765D01*
X45426Y-34743D01*
X45462Y-34714D01*
X45491Y-34678D01*
X45513Y-34637D01*
X45526Y-34595D01*
X45531Y-34617D01*
X45541Y-34642D01*
X45556Y-34665D01*
X45575Y-34684D01*
X45598Y-34699D01*
X45623Y-34709D01*
X45649Y-34714D01*
X45943Y-34714D01*
X45978Y-34680D01*
X45978Y-34261D01*
X45970Y-34261D01*
X45970Y-34242D01*
X45978Y-34242D01*
X45978Y-33823D01*
X45943Y-33789D01*
X45649Y-33789D01*
X45623Y-33794D01*
X45598Y-33804D01*
X45575Y-33819D01*
X45556Y-33838D01*
X45541Y-33861D01*
X45531Y-33886D01*
X45525Y-33912D01*
X45525Y-33939D01*
X45525Y-33944D01*
X45513Y-33905D01*
X45491Y-33864D01*
X45462Y-33828D01*
X45426Y-33799D01*
X45385Y-33777D01*
X45341Y-33764D01*
X45297Y-33759D01*
X42675Y-33759D01*
X42631Y-33764D01*
X42586Y-33777D01*
X42545Y-33799D01*
X42509Y-33828D01*
X42480Y-33864D01*
X42458Y-33905D01*
X42445Y-33949D01*
X42440Y-33994D01*
X42440Y-34549D01*
X42445Y-34593D01*
X42458Y-34637D01*
X42480Y-34678D01*
X42509Y-34714D01*
X42545Y-34743D01*
X42586Y-34765D01*
X42631Y-34779D01*
X42655Y-34781D01*
X42655Y-34989D01*
X42650Y-34982D01*
X42617Y-34948D01*
X42577Y-34921D01*
X42533Y-34903D01*
X42486Y-34893D01*
X42438Y-34893D01*
X42391Y-34902D01*
X42346Y-34920D01*
X42306Y-34946D01*
X42273Y-34979D01*
X42268Y-34979D01*
X42254Y-34981D01*
X42253Y-34981D01*
X42252Y-34981D01*
X42238Y-34985D01*
X42224Y-34989D01*
X42223Y-34990D01*
X42222Y-34990D01*
X42209Y-34997D01*
X42196Y-35004D01*
X42196Y-35004D01*
X42195Y-35005D01*
X42183Y-35014D01*
X42172Y-35023D01*
X42171Y-35024D01*
X42171Y-35024D01*
X42171Y-35024D01*
X42170Y-35025D01*
X41408Y-35787D01*
X40352Y-35787D01*
X40308Y-35791D01*
X40263Y-35805D01*
X40222Y-35827D01*
X40187Y-35856D01*
X40157Y-35892D01*
X40135Y-35933D01*
X40122Y-35977D01*
X40118Y-36021D01*
X40118Y-37994D01*
X40122Y-38038D01*
X40135Y-38082D01*
X40157Y-38123D01*
X40187Y-38159D01*
X40222Y-38188D01*
X40263Y-38210D01*
X40308Y-38223D01*
X40352Y-38228D01*
X40601Y-38228D01*
X40595Y-38233D01*
X40586Y-38245D01*
X40577Y-38256D01*
X40576Y-38257D01*
X40576Y-38257D01*
X40569Y-38270D01*
X40562Y-38283D01*
X40561Y-38284D01*
X40561Y-38285D01*
X40557Y-38299D01*
X40552Y-38313D01*
X40552Y-38314D01*
X40552Y-38314D01*
X40550Y-38329D01*
X40549Y-38344D01*
X40549Y-38345D01*
X40549Y-38345D01*
X40549Y-38345D01*
X40549Y-38346D01*
X40549Y-39901D01*
X40550Y-39916D01*
X40552Y-39930D01*
X40552Y-39931D01*
X40552Y-39932D01*
X40556Y-39946D01*
X40560Y-39960D01*
X40561Y-39961D01*
X40561Y-39962D01*
X40568Y-39975D01*
X40575Y-39988D01*
X40575Y-39989D01*
X40575Y-39989D01*
X40585Y-40001D01*
X40594Y-40012D01*
X40595Y-40013D01*
X40595Y-40013D01*
X40595Y-40013D01*
X40595Y-40014D01*
X40950Y-40368D01*
X40961Y-40377D01*
X40972Y-40387D01*
X40973Y-40387D01*
X40974Y-40388D01*
X40987Y-40395D01*
X41000Y-40402D01*
X41001Y-40402D01*
X41001Y-40403D01*
X41015Y-40407D01*
X41029Y-40411D01*
X41030Y-40411D01*
X41031Y-40412D01*
X41046Y-40413D01*
X41060Y-40415D01*
X41062Y-40415D01*
X41062Y-40415D01*
X41062Y-40415D01*
X41062Y-40415D01*
X41736Y-40415D01*
X41732Y-40420D01*
X41720Y-40448D01*
X41714Y-40479D01*
X41714Y-40509D01*
X41714Y-40825D01*
X41720Y-40855D01*
X41732Y-40883D01*
X41749Y-40909D01*
X41770Y-40931D01*
X41796Y-40948D01*
X41825Y-40960D01*
X41855Y-40966D01*
X41868Y-40967D01*
X41868Y-41338D01*
X41869Y-41353D01*
X41871Y-41368D01*
X41871Y-41368D01*
X41871Y-41369D01*
X41875Y-41383D01*
X41879Y-41398D01*
X41880Y-41398D01*
X41880Y-41399D01*
X41887Y-41412D01*
X41894Y-41425D01*
X41894Y-41426D01*
X41895Y-41427D01*
X41904Y-41438D01*
X41913Y-41449D01*
X41914Y-41451D01*
X41914Y-41451D01*
X41914Y-41451D01*
X41915Y-41451D01*
X42505Y-42041D01*
X42516Y-42051D01*
X42528Y-42060D01*
X42528Y-42061D01*
X42529Y-42061D01*
X42542Y-42068D01*
X42555Y-42075D01*
X42556Y-42075D01*
X42556Y-42076D01*
X42570Y-42080D01*
X42584Y-42085D01*
X42585Y-42085D01*
X42586Y-42085D01*
X42601Y-42086D01*
X42615Y-42088D01*
X42617Y-42088D01*
X42617Y-42088D01*
X42617Y-42088D01*
X42618Y-42088D01*
X43027Y-42088D01*
X43055Y-42159D01*
X43108Y-42242D01*
X43177Y-42313D01*
X43257Y-42369D01*
X43348Y-42408D01*
X43444Y-42429D01*
X43542Y-42432D01*
X43639Y-42414D01*
X43731Y-42379D01*
X43814Y-42326D01*
X43885Y-42258D01*
X43942Y-42178D01*
X43982Y-42088D01*
X44004Y-41992D01*
X44005Y-41937D01*
X44010Y-42012D01*
X44036Y-42104D01*
X44078Y-42188D01*
X44090Y-42205D01*
X44162Y-42240D01*
X44474Y-41929D01*
X44162Y-41617D01*
X44090Y-41652D01*
X44044Y-41734D01*
X44014Y-41824D01*
X44005Y-41902D01*
X44005Y-41879D01*
X43986Y-41783D01*
X43949Y-41692D01*
X43894Y-41610D01*
X43825Y-41540D01*
X43743Y-41485D01*
X43653Y-41447D01*
X43556Y-41427D01*
X43458Y-41426D01*
X43361Y-41445D01*
X43270Y-41482D01*
X43187Y-41536D01*
X43117Y-41604D01*
X43061Y-41686D01*
X43026Y-41769D01*
X42684Y-41769D01*
X42187Y-41272D01*
X42187Y-40967D01*
X42201Y-40967D01*
X42231Y-40961D01*
X42260Y-40949D01*
X42285Y-40932D01*
X42307Y-40910D01*
X42323Y-40886D01*
X42339Y-40909D01*
X42360Y-40931D01*
X42386Y-40948D01*
X42415Y-40960D01*
X42445Y-40966D01*
X42476Y-40967D01*
X42791Y-40967D01*
X42821Y-40961D01*
X42850Y-40949D01*
X42875Y-40932D01*
X42897Y-40910D01*
X42915Y-40884D01*
X42926Y-40856D01*
X42933Y-40826D01*
X42933Y-40808D01*
X43000Y-40808D01*
X43014Y-40807D01*
X43029Y-40806D01*
X43030Y-40806D01*
X43030Y-40805D01*
X43045Y-40801D01*
X43059Y-40797D01*
X43059Y-40797D01*
X43060Y-40796D01*
X43073Y-40790D01*
X43086Y-40783D01*
X43087Y-40782D01*
X43088Y-40782D01*
X43099Y-40773D01*
X43111Y-40763D01*
X43112Y-40762D01*
X43112Y-40762D01*
X43112Y-40762D01*
X43112Y-40762D01*
X43362Y-40512D01*
X43364Y-40510D01*
X43364Y-40932D01*
X43373Y-40978D01*
X43390Y-41020D01*
X43416Y-41059D01*
X43449Y-41092D01*
X43487Y-41118D01*
X43530Y-41136D01*
X43575Y-41145D01*
X43578Y-41145D01*
X43578Y-41179D01*
X43580Y-41193D01*
X43581Y-41208D01*
X43581Y-41209D01*
X43581Y-41210D01*
X43586Y-41224D01*
X43590Y-41238D01*
X43590Y-41239D01*
X43590Y-41239D01*
X43597Y-41252D01*
X43604Y-41265D01*
X43605Y-41266D01*
X43605Y-41267D01*
X43614Y-41278D01*
X43623Y-41290D01*
X43625Y-41291D01*
X43625Y-41291D01*
X43625Y-41291D01*
X43625Y-41291D01*
X43686Y-41352D01*
X43697Y-41362D01*
X43709Y-41371D01*
X43709Y-41372D01*
X43710Y-41372D01*
X43723Y-41379D01*
X43736Y-41386D01*
X43737Y-41386D01*
X43737Y-41387D01*
X43752Y-41391D01*
X43766Y-41396D01*
X43766Y-41396D01*
X43767Y-41396D01*
X43782Y-41397D01*
X43796Y-41399D01*
X43798Y-41399D01*
X43798Y-41399D01*
X43798Y-41399D01*
X43799Y-41399D01*
X45806Y-41399D01*
X45807Y-41400D01*
X45840Y-41435D01*
X45880Y-41462D01*
X45924Y-41481D01*
X45970Y-41492D01*
X46018Y-41493D01*
X46066Y-41484D01*
X46110Y-41467D01*
X46151Y-41441D01*
X46185Y-41408D01*
X46213Y-41369D01*
X46232Y-41325D01*
X46243Y-41279D01*
X46244Y-41224D01*
X46235Y-41177D01*
X46216Y-41133D01*
X46190Y-41093D01*
X46156Y-41059D01*
X46116Y-41032D01*
X46072Y-41013D01*
X46025Y-41004D01*
X45977Y-41003D01*
X45930Y-41012D01*
X45886Y-41030D01*
X45846Y-41057D01*
X45821Y-41080D01*
X45538Y-41080D01*
X45558Y-41060D01*
X45584Y-41022D01*
X45602Y-40979D01*
X45612Y-40934D01*
X45612Y-40887D01*
X45612Y-40621D01*
X45753Y-40762D01*
X45764Y-40771D01*
X45776Y-40781D01*
X45776Y-40781D01*
X45777Y-40782D01*
X45790Y-40788D01*
X45803Y-40796D01*
X45804Y-40796D01*
X45804Y-40796D01*
X45818Y-40801D01*
X45833Y-40805D01*
X45833Y-40805D01*
X45834Y-40805D01*
X45849Y-40807D01*
X45863Y-40808D01*
X45865Y-40808D01*
X45865Y-40808D01*
X45865Y-40808D01*
X45866Y-40808D01*
X46043Y-40808D01*
X46043Y-40819D01*
X46049Y-40849D01*
X46060Y-40877D01*
X46077Y-40903D01*
X46099Y-40925D01*
X46125Y-40942D01*
X46153Y-40954D01*
X46184Y-40961D01*
X46214Y-40961D01*
X46530Y-40961D01*
X46560Y-40955D01*
X46588Y-40943D01*
X46614Y-40926D01*
X46636Y-40904D01*
X46652Y-40880D01*
X46667Y-40903D01*
X46689Y-40925D01*
X46715Y-40942D01*
X46743Y-40954D01*
X46774Y-40961D01*
X46789Y-40961D01*
X46789Y-41371D01*
X46390Y-41769D01*
X45949Y-41769D01*
X45917Y-41692D01*
X45863Y-41610D01*
X45793Y-41540D01*
X45712Y-41485D01*
X45621Y-41447D01*
X45525Y-41427D01*
X45426Y-41426D01*
X45330Y-41445D01*
X45238Y-41482D01*
X45156Y-41536D01*
X45086Y-41604D01*
X45030Y-41686D01*
X44991Y-41776D01*
X44971Y-41872D01*
X44970Y-41912D01*
X44965Y-41845D01*
X44940Y-41754D01*
X44897Y-41669D01*
X44885Y-41652D01*
X44813Y-41617D01*
X44799Y-41631D01*
X44799Y-41603D01*
X44765Y-41531D01*
X44682Y-41485D01*
X44592Y-41455D01*
X44498Y-41444D01*
X44404Y-41451D01*
X44313Y-41477D01*
X44228Y-41519D01*
X44211Y-41531D01*
X44176Y-41603D01*
X44488Y-41915D01*
X44799Y-41603D01*
X44799Y-41631D01*
X44502Y-41929D01*
X44813Y-42240D01*
X44885Y-42205D01*
X44932Y-42123D01*
X44961Y-42033D01*
X44969Y-41962D01*
X44969Y-41971D01*
X44987Y-42068D01*
X45023Y-42159D01*
X45077Y-42242D01*
X45145Y-42313D01*
X45226Y-42369D01*
X45316Y-42408D01*
X45412Y-42429D01*
X45511Y-42432D01*
X45608Y-42414D01*
X45699Y-42379D01*
X45782Y-42326D01*
X45854Y-42258D01*
X45911Y-42178D01*
X45950Y-42088D01*
X46456Y-42088D01*
X46471Y-42087D01*
X46486Y-42085D01*
X46486Y-42085D01*
X46487Y-42085D01*
X46501Y-42081D01*
X46515Y-42077D01*
X46516Y-42076D01*
X46517Y-42076D01*
X46530Y-42069D01*
X46543Y-42062D01*
X46544Y-42062D01*
X46544Y-42061D01*
X46556Y-42052D01*
X46567Y-42043D01*
X46568Y-42042D01*
X46568Y-42042D01*
X46569Y-42042D01*
X46569Y-42041D01*
X47061Y-41549D01*
X47070Y-41538D01*
X47080Y-41527D01*
X47080Y-41526D01*
X47080Y-41525D01*
X47087Y-41512D01*
X47094Y-41501D01*
X47068Y-41624D01*
X47065Y-41813D01*
X47075Y-41868D01*
X47071Y-41883D01*
X47066Y-41927D01*
X47066Y-42620D01*
X47070Y-42657D01*
X44799Y-42657D01*
X44799Y-42254D01*
X44488Y-41943D01*
X44176Y-42254D01*
X44211Y-42326D01*
X44293Y-42373D01*
X44383Y-42402D01*
X44477Y-42413D01*
X44572Y-42406D01*
X44663Y-42381D01*
X44747Y-42338D01*
X44765Y-42326D01*
X44799Y-42254D01*
X44799Y-42657D01*
X41905Y-42657D01*
X41909Y-42620D01*
X41909Y-41927D01*
X41905Y-41883D01*
X41902Y-41873D01*
X41906Y-41853D01*
X41909Y-41637D01*
X41872Y-41452D01*
X41800Y-41277D01*
X41695Y-41119D01*
X41562Y-40985D01*
X41405Y-40879D01*
X41231Y-40806D01*
X41046Y-40768D01*
X40857Y-40767D01*
X40808Y-40776D01*
X40794Y-40772D01*
X40749Y-40767D01*
X40057Y-40767D01*
X40019Y-40771D01*
X40019Y-35606D01*
X40057Y-35610D01*
X40749Y-35610D01*
X40794Y-35605D01*
X40805Y-35602D01*
X40830Y-35608D01*
X41019Y-35612D01*
X41205Y-35579D01*
X41381Y-35510D01*
X41541Y-35409D01*
X41678Y-35278D01*
X41787Y-35124D01*
X41864Y-34951D01*
X41906Y-34767D01*
X41909Y-34551D01*
X41901Y-34508D01*
X41905Y-34494D01*
X41909Y-34450D01*
X41909Y-33757D01*
X41905Y-33720D01*
X47070Y-33720D01*
X47066Y-33757D01*
X47066Y-34450D01*
X47071Y-34494D01*
X47074Y-34506D01*
X47068Y-34537D01*
X47065Y-34726D01*
X47099Y-34912D01*
X47169Y-35088D01*
X47271Y-35247D01*
X47403Y-35383D01*
X47558Y-35491D01*
X47731Y-35567D01*
X47916Y-35608D01*
X48105Y-35612D01*
X48166Y-35601D01*
X48182Y-35605D01*
X48226Y-35610D01*
X48919Y-35610D01*
X48956Y-35606D01*
X48956Y-40771D01*
M02*
