M48
INCH,TZ
T1C0.013
T2C0.040
T3C0.043
T4C0.083
T5C0.098
%
G90
G05
T1
X041634Y-036122
X041831Y-035630
X042224Y-035335
X042520Y-035630
X042520Y-036417
X043307Y-036909
X043400Y-039500
X043700Y-038450
X044094Y-036220
X045276Y-038878
X045276Y-039567
X046000Y-041150
X047441Y-037106
T2
X040748Y-036689
X040748Y-037689
X040748Y-038689
X040748Y-039689
X042988Y-034350
X043988Y-034350
X044988Y-034350
X045988Y-034350
T3
X043504Y-036122
X043504Y-041831
X044488Y-041831
X045472Y-036122
X045472Y-041831
T4
X040945Y-034646
X040945Y-041732
X048031Y-034646
X048031Y-041732
T5
X042047Y-038878
X046929Y-038878
T0
M30
