M48
INCH,TZ
T1C0.014
T2C0.020
T3C0.033
T4C0.040
T5C0.043
T6C0.083
T7C0.098
%
G90
G05
T1
X042461Y-036476
X043091Y-037894
X043425Y-038996
X043740Y-038091
X043839Y-038996
X045236Y-039547
X045256Y-038917
X046299Y-035531
X047402Y-036909
T2
X043504Y-035295
X046102Y-041004
X048386Y-038307
T3
X040551Y-036220
X040551Y-037008
X040551Y-037795
X041339Y-036220
X041339Y-037008
X041339Y-037795
T4
X042988Y-034252
X043988Y-034252
X044988Y-034252
X045988Y-034252
T5
X043504Y-036220
X043504Y-041929
X044488Y-041929
X045472Y-036220
X045472Y-041929
T6
X040945Y-034646
X040945Y-041732
X048031Y-034646
X048031Y-041732
T7
X042047Y-038976
X046929Y-038976
T0
M30
