G04 (created by PCBNEW (2013-01-27 BZR 3925)-testing) date Sun 27 Jan 2013 04:36:55 PM CET*
%MOIN*%
G04 Gerber Fmt 3.4, Leading zero omitted, Abs format*
%FSLAX34Y34*%
G01*
G70*
G90*
G04 APERTURE LIST*
%ADD10C,3.14961e-06*%
%ADD11C,0.00984252*%
%ADD12C,0.0531496*%
%ADD13C,0.0688976*%
%ADD14C,0.15748*%
%ADD15O,0.15748X0.15748*%
%ADD16R,0.0275591X0.0866142*%
%ADD17R,0.0314X0.0314*%
%ADD18R,0.0511X0.059*%
%ADD19C,0.0984252*%
%ADD20R,0.06X0.06*%
%ADD21C,0.06*%
G04 APERTURE END LIST*
G54D10*
G54D11*
X48129Y-33562D02*
X40846Y-33562D01*
X49114Y-41830D02*
X49114Y-34547D01*
X40846Y-42814D02*
X48129Y-42814D01*
X39862Y-34547D02*
X39862Y-41830D01*
X39862Y-41830D02*
G75*
G03X40846Y-42814I984J0D01*
G74*
G01*
X48129Y-42814D02*
G75*
G03X49114Y-41830I0J984D01*
G74*
G01*
X49114Y-34547D02*
G75*
G03X48129Y-33562I-984J0D01*
G74*
G01*
X40846Y-33562D02*
G75*
G03X39862Y-34547I0J-984D01*
G74*
G01*
G54D12*
X40551Y-36220D03*
X41338Y-36220D03*
X40551Y-37007D03*
X41338Y-37007D03*
X40551Y-37795D03*
X41338Y-37795D03*
G54D13*
X43503Y-41929D03*
X45472Y-41929D03*
X44488Y-41929D03*
X45472Y-36220D03*
X43503Y-36220D03*
G54D14*
X46929Y-38976D03*
G54D15*
X42047Y-38976D03*
G54D16*
X43738Y-37476D03*
X44238Y-37476D03*
X44738Y-37476D03*
X45238Y-37476D03*
X45238Y-40476D03*
X44738Y-40476D03*
X44238Y-40476D03*
X43738Y-40476D03*
G54D17*
X42814Y-36909D03*
X42814Y-37499D03*
X46850Y-36909D03*
X46850Y-37499D03*
X42027Y-40649D03*
X42617Y-40649D03*
X46948Y-40649D03*
X46358Y-40649D03*
X42125Y-37499D03*
X42125Y-36909D03*
G54D18*
X44862Y-35334D03*
X44114Y-35334D03*
G54D19*
X48031Y-41732D03*
X40944Y-34645D03*
X40944Y-41732D03*
X48031Y-34645D03*
G54D17*
X44488Y-36023D03*
X44488Y-36613D03*
X46161Y-36909D03*
X46161Y-37499D03*
G54D20*
X45988Y-34251D03*
G54D21*
X44988Y-34251D03*
X43988Y-34251D03*
X42988Y-34251D03*
M02*
