G04 (created by PCBNEW (2013-03-26 BZR 4031)-testing) date Wed 27 Mar 2013 11:42:19 AM CET*
%MOIN*%
G04 Gerber Fmt 3.4, Leading zero omitted, Abs format*
%FSLAX34Y34*%
G01*
G70*
G90*
G04 APERTURE LIST*
%ADD10C,3.14961e-06*%
%ADD11C,0.00787402*%
%ADD12C,0.0688976*%
%ADD13O,0.167323X0.167323*%
%ADD14R,0.0511811X0.0511811*%
%ADD15C,0.0511811*%
%ADD16R,0.0649606X0.0649606*%
%ADD17C,0.0649606*%
%ADD18R,0.0275591X0.0866142*%
%ADD19R,0.059X0.0511*%
%ADD20R,0.0393701X0.0255906*%
%ADD21R,0.0393701X0.019685*%
%ADD22C,0.0255906*%
%ADD23C,0.00984252*%
%ADD24C,0.015748*%
%ADD25C,0.000393701*%
%ADD26C,0.00629921*%
G04 APERTURE END LIST*
G54D10*
G54D11*
X48129Y-33562D02*
X40846Y-33562D01*
X49114Y-41830D02*
X49114Y-34547D01*
X40846Y-42814D02*
X48129Y-42814D01*
X39862Y-34547D02*
X39862Y-41830D01*
X39862Y-41830D02*
G75*
G03X40846Y-42814I984J0D01*
G74*
G01*
X48129Y-42814D02*
G75*
G03X49114Y-41830I0J984D01*
G74*
G01*
X49114Y-34547D02*
G75*
G03X48129Y-33562I-984J0D01*
G74*
G01*
X40846Y-33562D02*
G75*
G03X39862Y-34547I0J-984D01*
G74*
G01*
G54D12*
X43503Y-41929D03*
X45472Y-41929D03*
X44488Y-41929D03*
X45472Y-36220D03*
X43503Y-36220D03*
G54D13*
X46673Y-38976D03*
X42303Y-38976D03*
G54D14*
X41259Y-36220D03*
G54D15*
X40433Y-36220D03*
X41220Y-37007D03*
X40472Y-37007D03*
X41259Y-37795D03*
X40433Y-37795D03*
G54D16*
X45988Y-34251D03*
G54D17*
X44988Y-34251D03*
X43988Y-34251D03*
X42988Y-34251D03*
G54D18*
X43738Y-37397D03*
X44238Y-37397D03*
X44738Y-37397D03*
X45238Y-37397D03*
X45238Y-40397D03*
X44738Y-40397D03*
X44238Y-40397D03*
X43738Y-40397D03*
G54D19*
X48149Y-37578D03*
X48149Y-36830D03*
G54D20*
X47027Y-37647D03*
G54D21*
X47027Y-37283D03*
X47027Y-36968D03*
G54D20*
X47027Y-36604D03*
X46318Y-37647D03*
G54D21*
X46318Y-37283D03*
X46318Y-36968D03*
G54D20*
X46318Y-36604D03*
X42086Y-36604D03*
G54D21*
X42086Y-36968D03*
X42086Y-37283D03*
G54D20*
X42086Y-37647D03*
X42795Y-36604D03*
G54D21*
X42795Y-36968D03*
X42795Y-37283D03*
G54D20*
X42795Y-37647D03*
G54D22*
X45511Y-35590D03*
X46181Y-36161D03*
X44173Y-39389D03*
X44803Y-39055D03*
X45925Y-36968D03*
X41200Y-38366D03*
X44862Y-38523D03*
X45925Y-36614D03*
X43622Y-38149D03*
X41072Y-38681D03*
X41072Y-39291D03*
X45866Y-37500D03*
X45433Y-38641D03*
X42125Y-34547D03*
X42125Y-35157D03*
X48779Y-35944D03*
X48779Y-37440D03*
X48759Y-39015D03*
X48759Y-39940D03*
X46692Y-42027D03*
X42125Y-33956D03*
X40196Y-39409D03*
X40748Y-40078D03*
X40196Y-40590D03*
X42992Y-40905D03*
X42322Y-42165D03*
X41299Y-40590D03*
X44133Y-36633D03*
X43257Y-37470D03*
X47381Y-37677D03*
X48366Y-38228D03*
X43582Y-35314D03*
X46515Y-40551D03*
G54D23*
X44606Y-36220D02*
X45236Y-35590D01*
X45236Y-35590D02*
X45511Y-35590D01*
X43503Y-36220D02*
X44606Y-36220D01*
X47027Y-36220D02*
X46968Y-36161D01*
X46968Y-36161D02*
X46181Y-36161D01*
X47027Y-36220D02*
X47027Y-36604D01*
X43956Y-42460D02*
X45787Y-42460D01*
X43503Y-42007D02*
X43956Y-42460D01*
X43503Y-41929D02*
X43503Y-42007D01*
X46161Y-41535D02*
X48307Y-39389D01*
X46161Y-42086D02*
X46161Y-41535D01*
X45787Y-42460D02*
X46161Y-42086D01*
X47027Y-37283D02*
X47440Y-37283D01*
X47637Y-37992D02*
X47637Y-37480D01*
X48307Y-38661D02*
X48307Y-39389D01*
X47637Y-37992D02*
X48307Y-38661D01*
X47440Y-37283D02*
X47637Y-37480D01*
X47066Y-37322D02*
X47027Y-37283D01*
X47281Y-37954D02*
X46691Y-37954D01*
X46712Y-36968D02*
X47027Y-36968D01*
X46673Y-37007D02*
X46712Y-36968D01*
X46673Y-37936D02*
X46673Y-37007D01*
X46691Y-37954D02*
X46673Y-37936D01*
X45472Y-41929D02*
X45511Y-41929D01*
X45511Y-41929D02*
X48070Y-39370D01*
X48070Y-38743D02*
X48070Y-39370D01*
X47281Y-37954D02*
X48070Y-38743D01*
X46318Y-37647D02*
X46112Y-37647D01*
X45531Y-38228D02*
X44238Y-38228D01*
X46112Y-37647D02*
X45531Y-38228D01*
X42795Y-37647D02*
X43080Y-37647D01*
X44238Y-38281D02*
X44238Y-38228D01*
X44238Y-38228D02*
X44238Y-37476D01*
X43080Y-37647D02*
X43346Y-37913D01*
X43346Y-37913D02*
X43346Y-38267D01*
X44094Y-38425D02*
X44238Y-38281D01*
X43503Y-38425D02*
X44094Y-38425D01*
X43346Y-38267D02*
X43503Y-38425D01*
X44173Y-39389D02*
X44198Y-39415D01*
X44738Y-39415D02*
X44198Y-39415D01*
X44738Y-39415D02*
X44738Y-39120D01*
X44738Y-39120D02*
X44803Y-39055D01*
X46318Y-36968D02*
X45925Y-36968D01*
X44738Y-40476D02*
X44738Y-39415D01*
X41840Y-37972D02*
X41446Y-38366D01*
X42982Y-37972D02*
X41840Y-37972D01*
X43159Y-38366D02*
X43572Y-38779D01*
X43572Y-38779D02*
X43917Y-38779D01*
X44862Y-38779D02*
X43917Y-38779D01*
X43159Y-38149D02*
X42982Y-37972D01*
X43159Y-38149D02*
X43159Y-38366D01*
X41446Y-38366D02*
X41200Y-38366D01*
X44901Y-38779D02*
X45059Y-38937D01*
X44862Y-38779D02*
X44901Y-38779D01*
X45236Y-40395D02*
X45238Y-40397D01*
X45236Y-39763D02*
X45236Y-40395D01*
X45059Y-39763D02*
X45236Y-39763D01*
X45059Y-38937D02*
X45059Y-39763D01*
X46318Y-36604D02*
X45935Y-36604D01*
X44862Y-38523D02*
X44862Y-38779D01*
X45935Y-36604D02*
X45925Y-36614D01*
X43988Y-34251D02*
X43988Y-34535D01*
X43988Y-34535D02*
X42440Y-36082D01*
X42086Y-37283D02*
X42362Y-37283D01*
X42440Y-37204D02*
X42440Y-36082D01*
X42362Y-37283D02*
X42440Y-37204D01*
X43230Y-36968D02*
X43738Y-37476D01*
X42795Y-36968D02*
X43230Y-36968D01*
X43622Y-38149D02*
X43738Y-38033D01*
X43738Y-37476D02*
X43738Y-38033D01*
X41072Y-39291D02*
X41072Y-39665D01*
X40856Y-38248D02*
X40856Y-38464D01*
X40856Y-38464D02*
X41072Y-38681D01*
X43267Y-39685D02*
X42795Y-40157D01*
X45728Y-40905D02*
X45728Y-39744D01*
X44224Y-39685D02*
X43267Y-39685D01*
X44224Y-40462D02*
X44238Y-40476D01*
X44224Y-39685D02*
X44224Y-40462D01*
X45866Y-37381D02*
X45866Y-37500D01*
X46318Y-37283D02*
X45964Y-37283D01*
X45964Y-37283D02*
X45866Y-37381D01*
X45511Y-41122D02*
X45728Y-40905D01*
X44238Y-40476D02*
X44238Y-41088D01*
X44271Y-41122D02*
X44238Y-41088D01*
X44271Y-41122D02*
X45511Y-41122D01*
X45433Y-39572D02*
X45433Y-38641D01*
X45486Y-39625D02*
X45433Y-39572D01*
X45610Y-39625D02*
X45486Y-39625D01*
X45728Y-39744D02*
X45610Y-39625D01*
X42795Y-40157D02*
X41938Y-40157D01*
X40856Y-37372D02*
X41220Y-37007D01*
X40856Y-37372D02*
X40856Y-38248D01*
X41564Y-40157D02*
X41938Y-40157D01*
X41072Y-39665D02*
X41564Y-40157D01*
X46338Y-37283D02*
X46318Y-37283D01*
X42992Y-35137D02*
X42992Y-34255D01*
X42992Y-35137D02*
X41692Y-36437D01*
X41692Y-36437D02*
X41692Y-37598D01*
X41692Y-37598D02*
X41742Y-37647D01*
X42086Y-37647D02*
X41742Y-37647D01*
X42992Y-34255D02*
X42988Y-34251D01*
X42988Y-34251D02*
X42988Y-34295D01*
G54D24*
X40629Y-38976D02*
X40433Y-38779D01*
X42047Y-38976D02*
X40629Y-38976D01*
X40433Y-38779D02*
X40433Y-37795D01*
G54D25*
X48661Y-36830D02*
X48661Y-36062D01*
X48661Y-36062D02*
X48779Y-35944D01*
X48759Y-39940D02*
X48759Y-40177D01*
X48661Y-36830D02*
X48779Y-36948D01*
X48779Y-36948D02*
X48779Y-37440D01*
X48759Y-39015D02*
X48759Y-39940D01*
X48149Y-36830D02*
X48661Y-36830D01*
X46692Y-41496D02*
X46692Y-42027D01*
X47381Y-40807D02*
X46692Y-41496D01*
X47637Y-40807D02*
X47381Y-40807D01*
X47795Y-40649D02*
X47637Y-40807D01*
X48287Y-40649D02*
X47795Y-40649D01*
X48759Y-40177D02*
X48287Y-40649D01*
X45988Y-34251D02*
X45988Y-33881D01*
X42322Y-33759D02*
X42125Y-33956D01*
X45866Y-33759D02*
X42322Y-33759D01*
X45988Y-33881D02*
X45866Y-33759D01*
X40196Y-39409D02*
X40255Y-37972D01*
X40255Y-37972D02*
X40433Y-37795D01*
G54D24*
X45988Y-34295D02*
X48149Y-36456D01*
X45988Y-34251D02*
X45988Y-34295D01*
X48149Y-36456D02*
X48149Y-36830D01*
G54D25*
X40748Y-40078D02*
X40708Y-40078D01*
X40708Y-40078D02*
X40196Y-40590D01*
X40748Y-40078D02*
X41299Y-40590D01*
G54D24*
X45909Y-35783D02*
X45909Y-34330D01*
X45472Y-36220D02*
X45909Y-35783D01*
X45909Y-34330D02*
X45988Y-34251D01*
X45238Y-37476D02*
X45238Y-36454D01*
X45238Y-36454D02*
X45472Y-36220D01*
G54D23*
X44724Y-36633D02*
X44738Y-36647D01*
X44738Y-37476D02*
X44738Y-36647D01*
X44133Y-36633D02*
X44724Y-36633D01*
X42795Y-37283D02*
X43070Y-37283D01*
X43070Y-37283D02*
X43257Y-37470D01*
X42086Y-36604D02*
X42086Y-36968D01*
X47027Y-37647D02*
X47352Y-37647D01*
X47381Y-37677D02*
X47352Y-37647D01*
G54D24*
X48149Y-38110D02*
X48267Y-38228D01*
X48149Y-38110D02*
X48149Y-37578D01*
X48267Y-38228D02*
X48366Y-38228D01*
X45688Y-41338D02*
X46476Y-40551D01*
X43897Y-41338D02*
X45688Y-41338D01*
X43738Y-41179D02*
X43738Y-40476D01*
X43738Y-41179D02*
X43897Y-41338D01*
X46476Y-40551D02*
X46515Y-40551D01*
X42795Y-36604D02*
X42795Y-36102D01*
X42795Y-36102D02*
X43582Y-35314D01*
X43582Y-35314D02*
X43858Y-35039D01*
X44200Y-35039D02*
X44988Y-34251D01*
X43858Y-35039D02*
X44200Y-35039D01*
G54D10*
G36*
X47911Y-39304D02*
X47624Y-39590D01*
X47624Y-39145D01*
X47607Y-38994D01*
X46690Y-38994D01*
X46690Y-39910D01*
X46841Y-39928D01*
X47023Y-39877D01*
X47191Y-39791D01*
X47340Y-39675D01*
X47463Y-39532D01*
X47556Y-39368D01*
X47615Y-39189D01*
X47624Y-39145D01*
X47624Y-39590D01*
X46741Y-40473D01*
X46727Y-40438D01*
X46701Y-40399D01*
X46668Y-40366D01*
X46655Y-40358D01*
X46655Y-39910D01*
X46655Y-38994D01*
X45739Y-38994D01*
X45721Y-39145D01*
X45730Y-39189D01*
X45789Y-39368D01*
X45882Y-39532D01*
X46006Y-39675D01*
X46154Y-39791D01*
X46322Y-39877D01*
X46504Y-39928D01*
X46655Y-39910D01*
X46655Y-40358D01*
X46629Y-40340D01*
X46586Y-40322D01*
X46540Y-40313D01*
X46494Y-40312D01*
X46448Y-40321D01*
X46404Y-40339D01*
X46365Y-40364D01*
X46332Y-40397D01*
X46306Y-40435D01*
X46292Y-40468D01*
X45887Y-40872D01*
X45887Y-39744D01*
X45886Y-39729D01*
X45885Y-39714D01*
X45884Y-39713D01*
X45884Y-39713D01*
X45880Y-39699D01*
X45876Y-39684D01*
X45876Y-39684D01*
X45875Y-39683D01*
X45868Y-39670D01*
X45862Y-39657D01*
X45861Y-39656D01*
X45861Y-39655D01*
X45851Y-39644D01*
X45842Y-39632D01*
X45841Y-39631D01*
X45841Y-39631D01*
X45841Y-39631D01*
X45841Y-39631D01*
X45722Y-39513D01*
X45711Y-39503D01*
X45700Y-39494D01*
X45699Y-39494D01*
X45698Y-39493D01*
X45685Y-39486D01*
X45673Y-39479D01*
X45672Y-39479D01*
X45671Y-39478D01*
X45657Y-39474D01*
X45643Y-39470D01*
X45642Y-39469D01*
X45641Y-39469D01*
X45627Y-39468D01*
X45612Y-39466D01*
X45610Y-39466D01*
X45610Y-39466D01*
X45610Y-39466D01*
X45610Y-39466D01*
X45592Y-39466D01*
X45592Y-38818D01*
X45614Y-38798D01*
X45641Y-38759D01*
X45660Y-38717D01*
X45670Y-38671D01*
X45671Y-38618D01*
X45662Y-38572D01*
X45644Y-38529D01*
X45618Y-38490D01*
X45585Y-38457D01*
X45546Y-38431D01*
X45503Y-38413D01*
X45458Y-38403D01*
X45411Y-38403D01*
X45365Y-38412D01*
X45322Y-38429D01*
X45283Y-38455D01*
X45249Y-38487D01*
X45223Y-38526D01*
X45204Y-38569D01*
X45195Y-38615D01*
X45194Y-38661D01*
X45203Y-38707D01*
X45220Y-38751D01*
X45245Y-38790D01*
X45273Y-38819D01*
X45273Y-39572D01*
X45275Y-39587D01*
X45276Y-39602D01*
X45276Y-39602D01*
X45276Y-39603D01*
X45278Y-39610D01*
X45269Y-39607D01*
X45268Y-39607D01*
X45268Y-39607D01*
X45253Y-39606D01*
X45238Y-39604D01*
X45237Y-39604D01*
X45237Y-39604D01*
X45237Y-39604D01*
X45236Y-39604D01*
X45218Y-39604D01*
X45218Y-38937D01*
X45217Y-38922D01*
X45215Y-38907D01*
X45215Y-38906D01*
X45215Y-38906D01*
X45211Y-38891D01*
X45207Y-38877D01*
X45206Y-38877D01*
X45206Y-38876D01*
X45199Y-38863D01*
X45192Y-38850D01*
X45192Y-38849D01*
X45191Y-38848D01*
X45182Y-38837D01*
X45173Y-38825D01*
X45172Y-38824D01*
X45172Y-38824D01*
X45172Y-38824D01*
X45171Y-38824D01*
X45035Y-38687D01*
X45043Y-38680D01*
X45070Y-38641D01*
X45089Y-38599D01*
X45099Y-38553D01*
X45100Y-38500D01*
X45091Y-38454D01*
X45073Y-38411D01*
X45057Y-38387D01*
X45531Y-38387D01*
X45546Y-38386D01*
X45560Y-38385D01*
X45561Y-38384D01*
X45562Y-38384D01*
X45576Y-38380D01*
X45590Y-38376D01*
X45591Y-38376D01*
X45592Y-38375D01*
X45605Y-38368D01*
X45618Y-38362D01*
X45618Y-38361D01*
X45619Y-38361D01*
X45631Y-38351D01*
X45642Y-38342D01*
X45643Y-38341D01*
X45643Y-38341D01*
X45643Y-38341D01*
X45644Y-38341D01*
X46099Y-37885D01*
X46121Y-37885D01*
X46132Y-37885D01*
X46513Y-37885D01*
X46513Y-37936D01*
X46515Y-37950D01*
X46516Y-37965D01*
X46516Y-37966D01*
X46516Y-37967D01*
X46521Y-37981D01*
X46525Y-37995D01*
X46525Y-37996D01*
X46525Y-37997D01*
X46532Y-38010D01*
X46539Y-38023D01*
X46540Y-38023D01*
X46540Y-38024D01*
X46544Y-38029D01*
X46504Y-38024D01*
X46322Y-38075D01*
X46154Y-38160D01*
X46006Y-38277D01*
X45882Y-38419D01*
X45789Y-38584D01*
X45730Y-38763D01*
X45721Y-38807D01*
X45739Y-38958D01*
X46655Y-38958D01*
X46655Y-38950D01*
X46690Y-38950D01*
X46690Y-38958D01*
X47607Y-38958D01*
X47624Y-38807D01*
X47615Y-38763D01*
X47556Y-38584D01*
X47463Y-38419D01*
X47340Y-38277D01*
X47191Y-38160D01*
X47099Y-38113D01*
X47215Y-38113D01*
X47911Y-38809D01*
X47911Y-39304D01*
X47911Y-39304D01*
G37*
G54D26*
X47911Y-39304D02*
X47624Y-39590D01*
X47624Y-39145D01*
X47607Y-38994D01*
X46690Y-38994D01*
X46690Y-39910D01*
X46841Y-39928D01*
X47023Y-39877D01*
X47191Y-39791D01*
X47340Y-39675D01*
X47463Y-39532D01*
X47556Y-39368D01*
X47615Y-39189D01*
X47624Y-39145D01*
X47624Y-39590D01*
X46741Y-40473D01*
X46727Y-40438D01*
X46701Y-40399D01*
X46668Y-40366D01*
X46655Y-40358D01*
X46655Y-39910D01*
X46655Y-38994D01*
X45739Y-38994D01*
X45721Y-39145D01*
X45730Y-39189D01*
X45789Y-39368D01*
X45882Y-39532D01*
X46006Y-39675D01*
X46154Y-39791D01*
X46322Y-39877D01*
X46504Y-39928D01*
X46655Y-39910D01*
X46655Y-40358D01*
X46629Y-40340D01*
X46586Y-40322D01*
X46540Y-40313D01*
X46494Y-40312D01*
X46448Y-40321D01*
X46404Y-40339D01*
X46365Y-40364D01*
X46332Y-40397D01*
X46306Y-40435D01*
X46292Y-40468D01*
X45887Y-40872D01*
X45887Y-39744D01*
X45886Y-39729D01*
X45885Y-39714D01*
X45884Y-39713D01*
X45884Y-39713D01*
X45880Y-39699D01*
X45876Y-39684D01*
X45876Y-39684D01*
X45875Y-39683D01*
X45868Y-39670D01*
X45862Y-39657D01*
X45861Y-39656D01*
X45861Y-39655D01*
X45851Y-39644D01*
X45842Y-39632D01*
X45841Y-39631D01*
X45841Y-39631D01*
X45841Y-39631D01*
X45841Y-39631D01*
X45722Y-39513D01*
X45711Y-39503D01*
X45700Y-39494D01*
X45699Y-39494D01*
X45698Y-39493D01*
X45685Y-39486D01*
X45673Y-39479D01*
X45672Y-39479D01*
X45671Y-39478D01*
X45657Y-39474D01*
X45643Y-39470D01*
X45642Y-39469D01*
X45641Y-39469D01*
X45627Y-39468D01*
X45612Y-39466D01*
X45610Y-39466D01*
X45610Y-39466D01*
X45610Y-39466D01*
X45610Y-39466D01*
X45592Y-39466D01*
X45592Y-38818D01*
X45614Y-38798D01*
X45641Y-38759D01*
X45660Y-38717D01*
X45670Y-38671D01*
X45671Y-38618D01*
X45662Y-38572D01*
X45644Y-38529D01*
X45618Y-38490D01*
X45585Y-38457D01*
X45546Y-38431D01*
X45503Y-38413D01*
X45458Y-38403D01*
X45411Y-38403D01*
X45365Y-38412D01*
X45322Y-38429D01*
X45283Y-38455D01*
X45249Y-38487D01*
X45223Y-38526D01*
X45204Y-38569D01*
X45195Y-38615D01*
X45194Y-38661D01*
X45203Y-38707D01*
X45220Y-38751D01*
X45245Y-38790D01*
X45273Y-38819D01*
X45273Y-39572D01*
X45275Y-39587D01*
X45276Y-39602D01*
X45276Y-39602D01*
X45276Y-39603D01*
X45278Y-39610D01*
X45269Y-39607D01*
X45268Y-39607D01*
X45268Y-39607D01*
X45253Y-39606D01*
X45238Y-39604D01*
X45237Y-39604D01*
X45237Y-39604D01*
X45237Y-39604D01*
X45236Y-39604D01*
X45218Y-39604D01*
X45218Y-38937D01*
X45217Y-38922D01*
X45215Y-38907D01*
X45215Y-38906D01*
X45215Y-38906D01*
X45211Y-38891D01*
X45207Y-38877D01*
X45206Y-38877D01*
X45206Y-38876D01*
X45199Y-38863D01*
X45192Y-38850D01*
X45192Y-38849D01*
X45191Y-38848D01*
X45182Y-38837D01*
X45173Y-38825D01*
X45172Y-38824D01*
X45172Y-38824D01*
X45172Y-38824D01*
X45171Y-38824D01*
X45035Y-38687D01*
X45043Y-38680D01*
X45070Y-38641D01*
X45089Y-38599D01*
X45099Y-38553D01*
X45100Y-38500D01*
X45091Y-38454D01*
X45073Y-38411D01*
X45057Y-38387D01*
X45531Y-38387D01*
X45546Y-38386D01*
X45560Y-38385D01*
X45561Y-38384D01*
X45562Y-38384D01*
X45576Y-38380D01*
X45590Y-38376D01*
X45591Y-38376D01*
X45592Y-38375D01*
X45605Y-38368D01*
X45618Y-38362D01*
X45618Y-38361D01*
X45619Y-38361D01*
X45631Y-38351D01*
X45642Y-38342D01*
X45643Y-38341D01*
X45643Y-38341D01*
X45643Y-38341D01*
X45644Y-38341D01*
X46099Y-37885D01*
X46121Y-37885D01*
X46132Y-37885D01*
X46513Y-37885D01*
X46513Y-37936D01*
X46515Y-37950D01*
X46516Y-37965D01*
X46516Y-37966D01*
X46516Y-37967D01*
X46521Y-37981D01*
X46525Y-37995D01*
X46525Y-37996D01*
X46525Y-37997D01*
X46532Y-38010D01*
X46539Y-38023D01*
X46540Y-38023D01*
X46540Y-38024D01*
X46544Y-38029D01*
X46504Y-38024D01*
X46322Y-38075D01*
X46154Y-38160D01*
X46006Y-38277D01*
X45882Y-38419D01*
X45789Y-38584D01*
X45730Y-38763D01*
X45721Y-38807D01*
X45739Y-38958D01*
X46655Y-38958D01*
X46655Y-38950D01*
X46690Y-38950D01*
X46690Y-38958D01*
X47607Y-38958D01*
X47624Y-38807D01*
X47615Y-38763D01*
X47556Y-38584D01*
X47463Y-38419D01*
X47340Y-38277D01*
X47191Y-38160D01*
X47099Y-38113D01*
X47215Y-38113D01*
X47911Y-38809D01*
X47911Y-39304D01*
G54D10*
G36*
X48964Y-40780D02*
X48961Y-40779D01*
X48918Y-40775D01*
X48604Y-40775D01*
X48604Y-38204D01*
X48595Y-38159D01*
X48577Y-38115D01*
X48551Y-38077D01*
X48518Y-38043D01*
X48479Y-38017D01*
X48436Y-37999D01*
X48391Y-37990D01*
X48344Y-37989D01*
X48338Y-37991D01*
X48338Y-37983D01*
X48459Y-37983D01*
X48488Y-37978D01*
X48515Y-37966D01*
X48539Y-37950D01*
X48560Y-37930D01*
X48576Y-37905D01*
X48588Y-37878D01*
X48594Y-37849D01*
X48594Y-37820D01*
X48594Y-37308D01*
X48588Y-37279D01*
X48577Y-37252D01*
X48561Y-37228D01*
X48540Y-37207D01*
X48518Y-37192D01*
X48527Y-37186D01*
X48545Y-37168D01*
X48559Y-37147D01*
X48569Y-37123D01*
X48574Y-37098D01*
X48574Y-36562D01*
X48569Y-36537D01*
X48559Y-36513D01*
X48545Y-36492D01*
X48527Y-36474D01*
X48506Y-36460D01*
X48483Y-36450D01*
X48458Y-36445D01*
X48432Y-36445D01*
X48199Y-36445D01*
X48167Y-36477D01*
X48167Y-36813D01*
X48542Y-36813D01*
X48574Y-36780D01*
X48574Y-36562D01*
X48574Y-37098D01*
X48574Y-36880D01*
X48542Y-36848D01*
X48167Y-36848D01*
X48167Y-36856D01*
X48131Y-36856D01*
X48131Y-36848D01*
X48131Y-36813D01*
X48131Y-36477D01*
X48099Y-36445D01*
X47866Y-36445D01*
X47840Y-36445D01*
X47816Y-36450D01*
X47792Y-36460D01*
X47771Y-36474D01*
X47753Y-36492D01*
X47739Y-36513D01*
X47729Y-36537D01*
X47724Y-36562D01*
X47724Y-36780D01*
X47757Y-36813D01*
X48131Y-36813D01*
X48131Y-36848D01*
X47757Y-36848D01*
X47724Y-36880D01*
X47724Y-37098D01*
X47729Y-37123D01*
X47739Y-37147D01*
X47753Y-37168D01*
X47771Y-37186D01*
X47780Y-37192D01*
X47759Y-37206D01*
X47738Y-37227D01*
X47722Y-37251D01*
X47710Y-37278D01*
X47705Y-37307D01*
X47704Y-37322D01*
X47553Y-37170D01*
X47542Y-37161D01*
X47531Y-37151D01*
X47530Y-37151D01*
X47529Y-37150D01*
X47516Y-37144D01*
X47503Y-37136D01*
X47502Y-37136D01*
X47502Y-37136D01*
X47488Y-37131D01*
X47474Y-37127D01*
X47473Y-37127D01*
X47472Y-37127D01*
X47457Y-37125D01*
X47443Y-37124D01*
X47441Y-37124D01*
X47441Y-37124D01*
X47441Y-37124D01*
X47440Y-37124D01*
X47334Y-37124D01*
X47334Y-37067D01*
X47334Y-37056D01*
X47334Y-36859D01*
X47334Y-36859D01*
X47334Y-36733D01*
X47334Y-36722D01*
X47334Y-36465D01*
X47334Y-36465D01*
X47334Y-36366D01*
X47225Y-36366D01*
X47214Y-36366D01*
X47187Y-36366D01*
X47187Y-36220D01*
X47185Y-36205D01*
X47184Y-36191D01*
X47184Y-36190D01*
X47183Y-36189D01*
X47179Y-36175D01*
X47175Y-36161D01*
X47175Y-36160D01*
X47174Y-36159D01*
X47168Y-36146D01*
X47161Y-36133D01*
X47160Y-36132D01*
X47160Y-36132D01*
X47151Y-36120D01*
X47141Y-36109D01*
X47140Y-36108D01*
X47140Y-36108D01*
X47140Y-36108D01*
X47140Y-36107D01*
X47081Y-36048D01*
X47069Y-36039D01*
X47058Y-36029D01*
X47057Y-36029D01*
X47057Y-36028D01*
X47044Y-36021D01*
X47031Y-36014D01*
X47030Y-36014D01*
X47029Y-36014D01*
X47015Y-36009D01*
X47001Y-36005D01*
X47000Y-36005D01*
X47000Y-36005D01*
X46985Y-36003D01*
X46970Y-36001D01*
X46969Y-36001D01*
X46969Y-36001D01*
X46969Y-36001D01*
X46968Y-36001D01*
X46443Y-36001D01*
X46443Y-34564D01*
X46443Y-33938D01*
X46442Y-33913D01*
X46437Y-33888D01*
X46427Y-33865D01*
X46413Y-33843D01*
X46395Y-33825D01*
X46374Y-33811D01*
X46350Y-33802D01*
X46325Y-33797D01*
X46038Y-33797D01*
X46005Y-33829D01*
X46005Y-34234D01*
X46410Y-34234D01*
X46442Y-34201D01*
X46443Y-33938D01*
X46443Y-34564D01*
X46442Y-34302D01*
X46410Y-34269D01*
X46005Y-34269D01*
X46005Y-34674D01*
X46038Y-34706D01*
X46325Y-34706D01*
X46350Y-34701D01*
X46374Y-34692D01*
X46395Y-34677D01*
X46413Y-34659D01*
X46427Y-34638D01*
X46437Y-34615D01*
X46442Y-34590D01*
X46443Y-34564D01*
X46443Y-36001D01*
X46358Y-36001D01*
X46333Y-35977D01*
X46294Y-35950D01*
X46251Y-35932D01*
X46206Y-35923D01*
X46159Y-35923D01*
X46113Y-35931D01*
X46070Y-35949D01*
X46031Y-35974D01*
X45997Y-36007D01*
X45971Y-36046D01*
X45970Y-36048D01*
X45970Y-34674D01*
X45970Y-34269D01*
X45970Y-34234D01*
X45970Y-33829D01*
X45937Y-33797D01*
X45650Y-33797D01*
X45625Y-33802D01*
X45602Y-33811D01*
X45580Y-33825D01*
X45562Y-33843D01*
X45548Y-33865D01*
X45538Y-33888D01*
X45533Y-33913D01*
X45533Y-33938D01*
X45533Y-34201D01*
X45565Y-34234D01*
X45970Y-34234D01*
X45970Y-34269D01*
X45565Y-34269D01*
X45533Y-34302D01*
X45533Y-34564D01*
X45533Y-34590D01*
X45538Y-34615D01*
X45548Y-34638D01*
X45562Y-34659D01*
X45580Y-34677D01*
X45602Y-34692D01*
X45625Y-34701D01*
X45650Y-34706D01*
X45937Y-34706D01*
X45970Y-34674D01*
X45970Y-36048D01*
X45952Y-36089D01*
X45943Y-36134D01*
X45942Y-36156D01*
X45940Y-36130D01*
X45914Y-36040D01*
X45870Y-35958D01*
X45868Y-35954D01*
X45798Y-35919D01*
X45497Y-36220D01*
X45503Y-36226D01*
X45478Y-36251D01*
X45472Y-36245D01*
X45171Y-36546D01*
X45206Y-36616D01*
X45288Y-36660D01*
X45377Y-36687D01*
X45470Y-36697D01*
X45562Y-36688D01*
X45652Y-36662D01*
X45688Y-36642D01*
X45695Y-36680D01*
X45712Y-36723D01*
X45737Y-36762D01*
X45765Y-36791D01*
X45741Y-36814D01*
X45715Y-36853D01*
X45697Y-36896D01*
X45687Y-36941D01*
X45686Y-36988D01*
X45695Y-37034D01*
X45712Y-37077D01*
X45737Y-37117D01*
X45770Y-37150D01*
X45808Y-37177D01*
X45833Y-37188D01*
X45753Y-37269D01*
X45744Y-37280D01*
X45734Y-37291D01*
X45734Y-37292D01*
X45733Y-37293D01*
X45726Y-37306D01*
X45726Y-37306D01*
X45716Y-37313D01*
X45682Y-37346D01*
X45656Y-37384D01*
X45638Y-37427D01*
X45628Y-37473D01*
X45627Y-37520D01*
X45636Y-37565D01*
X45653Y-37609D01*
X45678Y-37648D01*
X45711Y-37682D01*
X45749Y-37708D01*
X45792Y-37727D01*
X45804Y-37730D01*
X45505Y-38028D01*
X45505Y-37818D01*
X45505Y-36976D01*
X45505Y-36950D01*
X45500Y-36925D01*
X45490Y-36902D01*
X45476Y-36881D01*
X45458Y-36863D01*
X45437Y-36849D01*
X45413Y-36839D01*
X45388Y-36834D01*
X45288Y-36834D01*
X45255Y-36867D01*
X45255Y-37379D01*
X45473Y-37379D01*
X45505Y-37347D01*
X45505Y-36976D01*
X45505Y-37818D01*
X45505Y-37447D01*
X45473Y-37415D01*
X45255Y-37415D01*
X45255Y-37928D01*
X45288Y-37960D01*
X45388Y-37960D01*
X45413Y-37955D01*
X45437Y-37945D01*
X45458Y-37931D01*
X45476Y-37913D01*
X45490Y-37892D01*
X45500Y-37869D01*
X45505Y-37844D01*
X45505Y-37818D01*
X45505Y-38028D01*
X45465Y-38068D01*
X44397Y-38068D01*
X44397Y-38059D01*
X44398Y-38059D01*
X44442Y-38050D01*
X44483Y-38033D01*
X44488Y-38030D01*
X44491Y-38032D01*
X44532Y-38049D01*
X44576Y-38058D01*
X44621Y-38059D01*
X44898Y-38059D01*
X44942Y-38050D01*
X44983Y-38033D01*
X45021Y-38008D01*
X45052Y-37976D01*
X45066Y-37956D01*
X45087Y-37960D01*
X45187Y-37960D01*
X45220Y-37928D01*
X45220Y-37415D01*
X45212Y-37415D01*
X45212Y-37379D01*
X45220Y-37379D01*
X45220Y-36867D01*
X45187Y-36834D01*
X45087Y-36834D01*
X45066Y-36838D01*
X45053Y-36819D01*
X45022Y-36787D01*
X44985Y-36762D01*
X44943Y-36745D01*
X44899Y-36736D01*
X44897Y-36736D01*
X44897Y-36647D01*
X44896Y-36632D01*
X44894Y-36618D01*
X44894Y-36617D01*
X44894Y-36616D01*
X44890Y-36602D01*
X44886Y-36588D01*
X44885Y-36587D01*
X44885Y-36586D01*
X44878Y-36573D01*
X44871Y-36560D01*
X44871Y-36560D01*
X44870Y-36559D01*
X44861Y-36547D01*
X44852Y-36536D01*
X44851Y-36535D01*
X44851Y-36535D01*
X44851Y-36535D01*
X44850Y-36534D01*
X44837Y-36521D01*
X44825Y-36511D01*
X44814Y-36502D01*
X44813Y-36501D01*
X44813Y-36501D01*
X44800Y-36494D01*
X44787Y-36487D01*
X44786Y-36487D01*
X44785Y-36486D01*
X44771Y-36482D01*
X44757Y-36477D01*
X44756Y-36477D01*
X44755Y-36477D01*
X44741Y-36476D01*
X44726Y-36474D01*
X44724Y-36474D01*
X44724Y-36474D01*
X44724Y-36474D01*
X44724Y-36474D01*
X44311Y-36474D01*
X44286Y-36449D01*
X44247Y-36423D01*
X44204Y-36405D01*
X44158Y-36395D01*
X44112Y-36395D01*
X44066Y-36404D01*
X44022Y-36421D01*
X43983Y-36447D01*
X43950Y-36480D01*
X43924Y-36518D01*
X43905Y-36561D01*
X43896Y-36607D01*
X43895Y-36653D01*
X43903Y-36699D01*
X43919Y-36740D01*
X43899Y-36736D01*
X43855Y-36736D01*
X43578Y-36736D01*
X43534Y-36744D01*
X43492Y-36761D01*
X43455Y-36786D01*
X43423Y-36818D01*
X43398Y-36855D01*
X43382Y-36894D01*
X43343Y-36855D01*
X43331Y-36846D01*
X43320Y-36836D01*
X43319Y-36836D01*
X43319Y-36836D01*
X43306Y-36829D01*
X43293Y-36821D01*
X43292Y-36821D01*
X43291Y-36821D01*
X43277Y-36816D01*
X43263Y-36812D01*
X43262Y-36812D01*
X43261Y-36812D01*
X43247Y-36810D01*
X43232Y-36809D01*
X43230Y-36809D01*
X43230Y-36809D01*
X43230Y-36809D01*
X43230Y-36809D01*
X43102Y-36809D01*
X43102Y-36733D01*
X43102Y-36722D01*
X43102Y-36465D01*
X43102Y-36465D01*
X43102Y-36436D01*
X43145Y-36504D01*
X43207Y-36568D01*
X43281Y-36619D01*
X43362Y-36655D01*
X43449Y-36674D01*
X43538Y-36676D01*
X43626Y-36660D01*
X43709Y-36628D01*
X43785Y-36580D01*
X43849Y-36519D01*
X43901Y-36446D01*
X43930Y-36379D01*
X44606Y-36379D01*
X44620Y-36378D01*
X44635Y-36377D01*
X44636Y-36376D01*
X44637Y-36376D01*
X44651Y-36372D01*
X44665Y-36368D01*
X44666Y-36368D01*
X44667Y-36367D01*
X44680Y-36360D01*
X44693Y-36354D01*
X44693Y-36353D01*
X44694Y-36353D01*
X44705Y-36343D01*
X44717Y-36334D01*
X44718Y-36333D01*
X44718Y-36333D01*
X44718Y-36333D01*
X44719Y-36333D01*
X45052Y-35999D01*
X45032Y-36036D01*
X45005Y-36125D01*
X44995Y-36218D01*
X45004Y-36310D01*
X45030Y-36400D01*
X45074Y-36482D01*
X45076Y-36486D01*
X45146Y-36521D01*
X45447Y-36220D01*
X45441Y-36214D01*
X45466Y-36189D01*
X45472Y-36195D01*
X45773Y-35894D01*
X45738Y-35824D01*
X45656Y-35780D01*
X45659Y-35779D01*
X45692Y-35746D01*
X45719Y-35708D01*
X45738Y-35666D01*
X45749Y-35620D01*
X45750Y-35567D01*
X45740Y-35521D01*
X45723Y-35478D01*
X45697Y-35439D01*
X45664Y-35406D01*
X45625Y-35380D01*
X45582Y-35361D01*
X45536Y-35352D01*
X45490Y-35352D01*
X45444Y-35360D01*
X45400Y-35378D01*
X45361Y-35404D01*
X45334Y-35431D01*
X45236Y-35431D01*
X45221Y-35432D01*
X45206Y-35433D01*
X45206Y-35434D01*
X45205Y-35434D01*
X45191Y-35438D01*
X45177Y-35442D01*
X45176Y-35442D01*
X45175Y-35443D01*
X45162Y-35450D01*
X45149Y-35456D01*
X45148Y-35457D01*
X45147Y-35457D01*
X45136Y-35467D01*
X45125Y-35476D01*
X45123Y-35477D01*
X45123Y-35477D01*
X45123Y-35477D01*
X45123Y-35477D01*
X44540Y-36061D01*
X43930Y-36061D01*
X43907Y-36005D01*
X43858Y-35931D01*
X43795Y-35868D01*
X43721Y-35818D01*
X43639Y-35783D01*
X43551Y-35766D01*
X43462Y-35765D01*
X43384Y-35780D01*
X43613Y-35551D01*
X43647Y-35545D01*
X43690Y-35528D01*
X43730Y-35503D01*
X43763Y-35471D01*
X43790Y-35433D01*
X43809Y-35390D01*
X43820Y-35344D01*
X43820Y-35344D01*
X43936Y-35228D01*
X44200Y-35228D01*
X44218Y-35226D01*
X44235Y-35225D01*
X44236Y-35224D01*
X44237Y-35224D01*
X44254Y-35219D01*
X44270Y-35214D01*
X44271Y-35214D01*
X44272Y-35214D01*
X44288Y-35205D01*
X44303Y-35197D01*
X44304Y-35197D01*
X44305Y-35196D01*
X44318Y-35185D01*
X44332Y-35174D01*
X44333Y-35173D01*
X44333Y-35173D01*
X44333Y-35173D01*
X44334Y-35172D01*
X44731Y-34775D01*
X45296Y-34775D01*
X45339Y-34771D01*
X45382Y-34758D01*
X45422Y-34737D01*
X45456Y-34708D01*
X45485Y-34674D01*
X45506Y-34634D01*
X45519Y-34591D01*
X45523Y-34548D01*
X45523Y-33994D01*
X45519Y-33951D01*
X45506Y-33908D01*
X45485Y-33869D01*
X45456Y-33834D01*
X45422Y-33806D01*
X45382Y-33784D01*
X45339Y-33771D01*
X45296Y-33767D01*
X42675Y-33767D01*
X42632Y-33771D01*
X42589Y-33784D01*
X42550Y-33806D01*
X42515Y-33834D01*
X42487Y-33869D01*
X42466Y-33908D01*
X42453Y-33951D01*
X42448Y-33994D01*
X42448Y-34548D01*
X42453Y-34591D01*
X42466Y-34634D01*
X42487Y-34674D01*
X42515Y-34708D01*
X42550Y-34737D01*
X42589Y-34758D01*
X42632Y-34771D01*
X42675Y-34775D01*
X42832Y-34775D01*
X42832Y-35071D01*
X41665Y-36239D01*
X41665Y-35795D01*
X40027Y-35795D01*
X40027Y-37433D01*
X40298Y-37433D01*
X40283Y-37437D01*
X40219Y-37471D01*
X40194Y-37531D01*
X40433Y-37770D01*
X40438Y-37764D01*
X40463Y-37789D01*
X40458Y-37795D01*
X40463Y-37800D01*
X40438Y-37825D01*
X40433Y-37820D01*
X40408Y-37845D01*
X40408Y-37795D01*
X40169Y-37556D01*
X40109Y-37581D01*
X40074Y-37648D01*
X40052Y-37721D01*
X40045Y-37796D01*
X40053Y-37872D01*
X40075Y-37944D01*
X40109Y-38008D01*
X40169Y-38033D01*
X40408Y-37795D01*
X40408Y-37845D01*
X40194Y-38058D01*
X40219Y-38119D01*
X40286Y-38154D01*
X40359Y-38175D01*
X40434Y-38182D01*
X40509Y-38175D01*
X40582Y-38153D01*
X40646Y-38119D01*
X40671Y-38058D01*
X40671Y-38058D01*
X40694Y-38081D01*
X40696Y-38079D01*
X40696Y-38248D01*
X40696Y-38464D01*
X40698Y-38479D01*
X40699Y-38493D01*
X40699Y-38494D01*
X40699Y-38495D01*
X40704Y-38509D01*
X40708Y-38523D01*
X40708Y-38524D01*
X40708Y-38525D01*
X40715Y-38538D01*
X40722Y-38551D01*
X40723Y-38552D01*
X40723Y-38552D01*
X40732Y-38564D01*
X40741Y-38575D01*
X40743Y-38576D01*
X40743Y-38576D01*
X40743Y-38576D01*
X40743Y-38577D01*
X40834Y-38668D01*
X40834Y-38701D01*
X40842Y-38747D01*
X40859Y-38790D01*
X40885Y-38829D01*
X40917Y-38863D01*
X40956Y-38890D01*
X40998Y-38908D01*
X41044Y-38918D01*
X41091Y-38919D01*
X41137Y-38911D01*
X41180Y-38894D01*
X41220Y-38869D01*
X41254Y-38837D01*
X41280Y-38799D01*
X41299Y-38756D01*
X41310Y-38711D01*
X41311Y-38657D01*
X41301Y-38611D01*
X41291Y-38586D01*
X41308Y-38579D01*
X41348Y-38554D01*
X41378Y-38525D01*
X41446Y-38525D01*
X41453Y-38524D01*
X41419Y-38584D01*
X41360Y-38763D01*
X41351Y-38807D01*
X41369Y-38958D01*
X42285Y-38958D01*
X42285Y-38950D01*
X42320Y-38950D01*
X42320Y-38958D01*
X43237Y-38958D01*
X43254Y-38807D01*
X43245Y-38763D01*
X43203Y-38635D01*
X43460Y-38892D01*
X43471Y-38901D01*
X43482Y-38911D01*
X43483Y-38911D01*
X43484Y-38912D01*
X43497Y-38918D01*
X43510Y-38926D01*
X43510Y-38926D01*
X43511Y-38926D01*
X43525Y-38931D01*
X43539Y-38935D01*
X43540Y-38935D01*
X43541Y-38935D01*
X43555Y-38937D01*
X43570Y-38938D01*
X43572Y-38938D01*
X43572Y-38938D01*
X43572Y-38938D01*
X43572Y-38938D01*
X43917Y-38938D01*
X44593Y-38938D01*
X44593Y-38939D01*
X44575Y-38982D01*
X44565Y-39028D01*
X44564Y-39075D01*
X44573Y-39121D01*
X44578Y-39135D01*
X44578Y-39255D01*
X44370Y-39255D01*
X44358Y-39238D01*
X44325Y-39205D01*
X44287Y-39179D01*
X44244Y-39161D01*
X44198Y-39151D01*
X44151Y-39151D01*
X44105Y-39160D01*
X44062Y-39177D01*
X44023Y-39203D01*
X43989Y-39235D01*
X43963Y-39274D01*
X43945Y-39317D01*
X43935Y-39363D01*
X43934Y-39409D01*
X43943Y-39455D01*
X43960Y-39499D01*
X43977Y-39525D01*
X43267Y-39525D01*
X43254Y-39526D01*
X43254Y-39145D01*
X43237Y-38994D01*
X42320Y-38994D01*
X42320Y-39910D01*
X42471Y-39928D01*
X42653Y-39877D01*
X42821Y-39791D01*
X42970Y-39675D01*
X43093Y-39532D01*
X43186Y-39368D01*
X43245Y-39189D01*
X43254Y-39145D01*
X43254Y-39526D01*
X43253Y-39527D01*
X43238Y-39528D01*
X43237Y-39528D01*
X43236Y-39528D01*
X43222Y-39532D01*
X43208Y-39536D01*
X43207Y-39537D01*
X43206Y-39537D01*
X43193Y-39544D01*
X43180Y-39551D01*
X43180Y-39551D01*
X43179Y-39552D01*
X43168Y-39561D01*
X43156Y-39570D01*
X43155Y-39571D01*
X43155Y-39571D01*
X43155Y-39571D01*
X43154Y-39572D01*
X42729Y-39998D01*
X42285Y-39998D01*
X42285Y-39910D01*
X42285Y-38994D01*
X41369Y-38994D01*
X41351Y-39145D01*
X41360Y-39189D01*
X41419Y-39368D01*
X41512Y-39532D01*
X41635Y-39675D01*
X41784Y-39791D01*
X41952Y-39877D01*
X42134Y-39928D01*
X42285Y-39910D01*
X42285Y-39998D01*
X41938Y-39998D01*
X41631Y-39998D01*
X41232Y-39599D01*
X41232Y-39468D01*
X41254Y-39447D01*
X41280Y-39409D01*
X41299Y-39366D01*
X41310Y-39321D01*
X41311Y-39267D01*
X41301Y-39222D01*
X41284Y-39178D01*
X41258Y-39140D01*
X41225Y-39106D01*
X41186Y-39080D01*
X41143Y-39062D01*
X41097Y-39053D01*
X41051Y-39052D01*
X41005Y-39061D01*
X40961Y-39079D01*
X40922Y-39104D01*
X40889Y-39137D01*
X40863Y-39176D01*
X40844Y-39218D01*
X40834Y-39264D01*
X40834Y-39311D01*
X40842Y-39357D01*
X40859Y-39400D01*
X40885Y-39440D01*
X40913Y-39469D01*
X40913Y-39665D01*
X40914Y-39680D01*
X40916Y-39694D01*
X40916Y-39695D01*
X40916Y-39696D01*
X40920Y-39710D01*
X40924Y-39724D01*
X40925Y-39725D01*
X40925Y-39726D01*
X40932Y-39739D01*
X40939Y-39752D01*
X40939Y-39752D01*
X40940Y-39753D01*
X40949Y-39764D01*
X40958Y-39776D01*
X40959Y-39777D01*
X40959Y-39777D01*
X40959Y-39777D01*
X40960Y-39778D01*
X41452Y-40270D01*
X41463Y-40279D01*
X41474Y-40289D01*
X41475Y-40289D01*
X41476Y-40289D01*
X41489Y-40296D01*
X41502Y-40304D01*
X41502Y-40304D01*
X41503Y-40304D01*
X41517Y-40308D01*
X41531Y-40313D01*
X41532Y-40313D01*
X41533Y-40313D01*
X41548Y-40315D01*
X41562Y-40316D01*
X41564Y-40316D01*
X41564Y-40316D01*
X41564Y-40316D01*
X41564Y-40316D01*
X41938Y-40316D01*
X42795Y-40316D01*
X42809Y-40315D01*
X42824Y-40314D01*
X42825Y-40313D01*
X42826Y-40313D01*
X42840Y-40309D01*
X42854Y-40305D01*
X42855Y-40305D01*
X42856Y-40304D01*
X42869Y-40297D01*
X42882Y-40291D01*
X42882Y-40290D01*
X42883Y-40290D01*
X42894Y-40280D01*
X42906Y-40271D01*
X42907Y-40270D01*
X42907Y-40270D01*
X42907Y-40270D01*
X42908Y-40270D01*
X43333Y-39844D01*
X43405Y-39844D01*
X43398Y-39855D01*
X43381Y-39896D01*
X43372Y-39940D01*
X43371Y-39985D01*
X43372Y-40853D01*
X43380Y-40897D01*
X43397Y-40938D01*
X43422Y-40975D01*
X43454Y-41007D01*
X43491Y-41032D01*
X43532Y-41049D01*
X43549Y-41053D01*
X43549Y-41179D01*
X43550Y-41196D01*
X43552Y-41213D01*
X43552Y-41214D01*
X43552Y-41215D01*
X43557Y-41232D01*
X43562Y-41249D01*
X43563Y-41250D01*
X43563Y-41251D01*
X43571Y-41266D01*
X43579Y-41282D01*
X43580Y-41282D01*
X43580Y-41283D01*
X43591Y-41297D01*
X43602Y-41310D01*
X43604Y-41312D01*
X43604Y-41312D01*
X43604Y-41312D01*
X43604Y-41312D01*
X43764Y-41472D01*
X43777Y-41483D01*
X43790Y-41494D01*
X43791Y-41494D01*
X43792Y-41495D01*
X43807Y-41503D01*
X43823Y-41512D01*
X43824Y-41512D01*
X43825Y-41513D01*
X43841Y-41518D01*
X43858Y-41523D01*
X43859Y-41523D01*
X43860Y-41523D01*
X43877Y-41525D01*
X43894Y-41527D01*
X43896Y-41527D01*
X43896Y-41527D01*
X43897Y-41527D01*
X43897Y-41527D01*
X44232Y-41527D01*
X44226Y-41530D01*
X44222Y-41533D01*
X44186Y-41602D01*
X44488Y-41904D01*
X44789Y-41602D01*
X44753Y-41533D01*
X44743Y-41527D01*
X45255Y-41527D01*
X45186Y-41573D01*
X45122Y-41635D01*
X45072Y-41709D01*
X45036Y-41790D01*
X45018Y-41878D01*
X45017Y-41967D01*
X45033Y-42055D01*
X45066Y-42137D01*
X45114Y-42212D01*
X45176Y-42277D01*
X45210Y-42301D01*
X44964Y-42301D01*
X44964Y-41931D01*
X44956Y-41838D01*
X44929Y-41749D01*
X44886Y-41667D01*
X44883Y-41663D01*
X44814Y-41627D01*
X44513Y-41929D01*
X44814Y-42230D01*
X44883Y-42194D01*
X44928Y-42112D01*
X44955Y-42023D01*
X44964Y-41931D01*
X44964Y-42301D01*
X44766Y-42301D01*
X44789Y-42255D01*
X44488Y-41954D01*
X44463Y-41979D01*
X44463Y-41929D01*
X44161Y-41627D01*
X44092Y-41663D01*
X44048Y-41745D01*
X44021Y-41834D01*
X44011Y-41926D01*
X44020Y-42019D01*
X44046Y-42108D01*
X44089Y-42191D01*
X44092Y-42194D01*
X44161Y-42230D01*
X44463Y-41929D01*
X44463Y-41979D01*
X44186Y-42255D01*
X44210Y-42301D01*
X44022Y-42301D01*
X43890Y-42169D01*
X43901Y-42154D01*
X43937Y-42073D01*
X43957Y-41986D01*
X43958Y-41884D01*
X43941Y-41797D01*
X43907Y-41714D01*
X43858Y-41640D01*
X43795Y-41577D01*
X43721Y-41527D01*
X43639Y-41492D01*
X43551Y-41474D01*
X43462Y-41474D01*
X43374Y-41490D01*
X43292Y-41524D01*
X43217Y-41573D01*
X43153Y-41635D01*
X43103Y-41709D01*
X43068Y-41790D01*
X43049Y-41878D01*
X43048Y-41967D01*
X43064Y-42055D01*
X43097Y-42137D01*
X43145Y-42212D01*
X43207Y-42277D01*
X43281Y-42327D01*
X43362Y-42363D01*
X43449Y-42382D01*
X43538Y-42384D01*
X43626Y-42369D01*
X43636Y-42365D01*
X43843Y-42573D01*
X43855Y-42582D01*
X43866Y-42592D01*
X43867Y-42592D01*
X43867Y-42593D01*
X43880Y-42600D01*
X43893Y-42607D01*
X43894Y-42607D01*
X43895Y-42607D01*
X43909Y-42612D01*
X43923Y-42616D01*
X43924Y-42616D01*
X43925Y-42616D01*
X43939Y-42618D01*
X43954Y-42620D01*
X43956Y-42620D01*
X43956Y-42620D01*
X43956Y-42620D01*
X43956Y-42620D01*
X45787Y-42620D01*
X45802Y-42618D01*
X45816Y-42617D01*
X45817Y-42617D01*
X45818Y-42617D01*
X45832Y-42612D01*
X45846Y-42608D01*
X45847Y-42608D01*
X45848Y-42608D01*
X45861Y-42601D01*
X45874Y-42594D01*
X45874Y-42593D01*
X45875Y-42593D01*
X45887Y-42584D01*
X45898Y-42574D01*
X45899Y-42573D01*
X45899Y-42573D01*
X45899Y-42573D01*
X45900Y-42573D01*
X46274Y-42199D01*
X46283Y-42187D01*
X46292Y-42176D01*
X46293Y-42175D01*
X46293Y-42175D01*
X46300Y-42162D01*
X46307Y-42149D01*
X46308Y-42148D01*
X46308Y-42147D01*
X46312Y-42133D01*
X46317Y-42119D01*
X46317Y-42118D01*
X46317Y-42118D01*
X46319Y-42103D01*
X46320Y-42088D01*
X46320Y-42087D01*
X46320Y-42087D01*
X46320Y-42087D01*
X46320Y-42086D01*
X46320Y-41601D01*
X48419Y-39502D01*
X48429Y-39491D01*
X48438Y-39479D01*
X48439Y-39479D01*
X48439Y-39478D01*
X48446Y-39465D01*
X48453Y-39452D01*
X48453Y-39451D01*
X48454Y-39451D01*
X48458Y-39436D01*
X48463Y-39422D01*
X48463Y-39422D01*
X48463Y-39421D01*
X48464Y-39406D01*
X48466Y-39391D01*
X48466Y-39390D01*
X48466Y-39390D01*
X48466Y-39390D01*
X48466Y-39389D01*
X48466Y-38661D01*
X48465Y-38646D01*
X48463Y-38632D01*
X48463Y-38631D01*
X48463Y-38630D01*
X48459Y-38616D01*
X48455Y-38602D01*
X48454Y-38601D01*
X48454Y-38600D01*
X48447Y-38587D01*
X48440Y-38574D01*
X48440Y-38573D01*
X48439Y-38573D01*
X48430Y-38561D01*
X48421Y-38550D01*
X48420Y-38549D01*
X48420Y-38549D01*
X48420Y-38549D01*
X48419Y-38548D01*
X48336Y-38465D01*
X48337Y-38466D01*
X48384Y-38466D01*
X48430Y-38458D01*
X48474Y-38441D01*
X48513Y-38416D01*
X48547Y-38384D01*
X48574Y-38346D01*
X48593Y-38303D01*
X48603Y-38258D01*
X48604Y-38204D01*
X48604Y-40775D01*
X48226Y-40775D01*
X48183Y-40779D01*
X48169Y-40784D01*
X48131Y-40776D01*
X47944Y-40774D01*
X47760Y-40810D01*
X47586Y-40880D01*
X47429Y-40983D01*
X47295Y-41114D01*
X47189Y-41269D01*
X47115Y-41441D01*
X47076Y-41625D01*
X47073Y-41812D01*
X47083Y-41868D01*
X47079Y-41884D01*
X47074Y-41927D01*
X47074Y-42619D01*
X47079Y-42662D01*
X47079Y-42665D01*
X41896Y-42665D01*
X41897Y-42662D01*
X41901Y-42619D01*
X41901Y-41927D01*
X41897Y-41884D01*
X41893Y-41873D01*
X41898Y-41852D01*
X41901Y-41638D01*
X41865Y-41454D01*
X41793Y-41280D01*
X41689Y-41124D01*
X41557Y-40991D01*
X41402Y-40886D01*
X41229Y-40813D01*
X41045Y-40776D01*
X40857Y-40774D01*
X40807Y-40784D01*
X40792Y-40779D01*
X40749Y-40775D01*
X40671Y-40775D01*
X40057Y-40775D01*
X40014Y-40779D01*
X40011Y-40780D01*
X40011Y-35597D01*
X40014Y-35598D01*
X40057Y-35602D01*
X40749Y-35602D01*
X40792Y-35598D01*
X40804Y-35594D01*
X40831Y-35600D01*
X41018Y-35604D01*
X41203Y-35571D01*
X41378Y-35503D01*
X41536Y-35403D01*
X41672Y-35273D01*
X41780Y-35120D01*
X41857Y-34949D01*
X41898Y-34766D01*
X41901Y-34551D01*
X41892Y-34507D01*
X41897Y-34493D01*
X41901Y-34450D01*
X41901Y-33758D01*
X41897Y-33715D01*
X41896Y-33712D01*
X47079Y-33712D01*
X47079Y-33715D01*
X47074Y-33758D01*
X47074Y-34450D01*
X47079Y-34493D01*
X47082Y-34506D01*
X47076Y-34538D01*
X47073Y-34726D01*
X47107Y-34910D01*
X47176Y-35085D01*
X47278Y-35242D01*
X47408Y-35377D01*
X47562Y-35484D01*
X47734Y-35559D01*
X47917Y-35600D01*
X48105Y-35604D01*
X48167Y-35593D01*
X48183Y-35598D01*
X48226Y-35602D01*
X48918Y-35602D01*
X48961Y-35598D01*
X48964Y-35597D01*
X48964Y-40780D01*
X48964Y-40780D01*
G37*
G54D26*
X48964Y-40780D02*
X48961Y-40779D01*
X48918Y-40775D01*
X48604Y-40775D01*
X48604Y-38204D01*
X48595Y-38159D01*
X48577Y-38115D01*
X48551Y-38077D01*
X48518Y-38043D01*
X48479Y-38017D01*
X48436Y-37999D01*
X48391Y-37990D01*
X48344Y-37989D01*
X48338Y-37991D01*
X48338Y-37983D01*
X48459Y-37983D01*
X48488Y-37978D01*
X48515Y-37966D01*
X48539Y-37950D01*
X48560Y-37930D01*
X48576Y-37905D01*
X48588Y-37878D01*
X48594Y-37849D01*
X48594Y-37820D01*
X48594Y-37308D01*
X48588Y-37279D01*
X48577Y-37252D01*
X48561Y-37228D01*
X48540Y-37207D01*
X48518Y-37192D01*
X48527Y-37186D01*
X48545Y-37168D01*
X48559Y-37147D01*
X48569Y-37123D01*
X48574Y-37098D01*
X48574Y-36562D01*
X48569Y-36537D01*
X48559Y-36513D01*
X48545Y-36492D01*
X48527Y-36474D01*
X48506Y-36460D01*
X48483Y-36450D01*
X48458Y-36445D01*
X48432Y-36445D01*
X48199Y-36445D01*
X48167Y-36477D01*
X48167Y-36813D01*
X48542Y-36813D01*
X48574Y-36780D01*
X48574Y-36562D01*
X48574Y-37098D01*
X48574Y-36880D01*
X48542Y-36848D01*
X48167Y-36848D01*
X48167Y-36856D01*
X48131Y-36856D01*
X48131Y-36848D01*
X48131Y-36813D01*
X48131Y-36477D01*
X48099Y-36445D01*
X47866Y-36445D01*
X47840Y-36445D01*
X47816Y-36450D01*
X47792Y-36460D01*
X47771Y-36474D01*
X47753Y-36492D01*
X47739Y-36513D01*
X47729Y-36537D01*
X47724Y-36562D01*
X47724Y-36780D01*
X47757Y-36813D01*
X48131Y-36813D01*
X48131Y-36848D01*
X47757Y-36848D01*
X47724Y-36880D01*
X47724Y-37098D01*
X47729Y-37123D01*
X47739Y-37147D01*
X47753Y-37168D01*
X47771Y-37186D01*
X47780Y-37192D01*
X47759Y-37206D01*
X47738Y-37227D01*
X47722Y-37251D01*
X47710Y-37278D01*
X47705Y-37307D01*
X47704Y-37322D01*
X47553Y-37170D01*
X47542Y-37161D01*
X47531Y-37151D01*
X47530Y-37151D01*
X47529Y-37150D01*
X47516Y-37144D01*
X47503Y-37136D01*
X47502Y-37136D01*
X47502Y-37136D01*
X47488Y-37131D01*
X47474Y-37127D01*
X47473Y-37127D01*
X47472Y-37127D01*
X47457Y-37125D01*
X47443Y-37124D01*
X47441Y-37124D01*
X47441Y-37124D01*
X47441Y-37124D01*
X47440Y-37124D01*
X47334Y-37124D01*
X47334Y-37067D01*
X47334Y-37056D01*
X47334Y-36859D01*
X47334Y-36859D01*
X47334Y-36733D01*
X47334Y-36722D01*
X47334Y-36465D01*
X47334Y-36465D01*
X47334Y-36366D01*
X47225Y-36366D01*
X47214Y-36366D01*
X47187Y-36366D01*
X47187Y-36220D01*
X47185Y-36205D01*
X47184Y-36191D01*
X47184Y-36190D01*
X47183Y-36189D01*
X47179Y-36175D01*
X47175Y-36161D01*
X47175Y-36160D01*
X47174Y-36159D01*
X47168Y-36146D01*
X47161Y-36133D01*
X47160Y-36132D01*
X47160Y-36132D01*
X47151Y-36120D01*
X47141Y-36109D01*
X47140Y-36108D01*
X47140Y-36108D01*
X47140Y-36108D01*
X47140Y-36107D01*
X47081Y-36048D01*
X47069Y-36039D01*
X47058Y-36029D01*
X47057Y-36029D01*
X47057Y-36028D01*
X47044Y-36021D01*
X47031Y-36014D01*
X47030Y-36014D01*
X47029Y-36014D01*
X47015Y-36009D01*
X47001Y-36005D01*
X47000Y-36005D01*
X47000Y-36005D01*
X46985Y-36003D01*
X46970Y-36001D01*
X46969Y-36001D01*
X46969Y-36001D01*
X46969Y-36001D01*
X46968Y-36001D01*
X46443Y-36001D01*
X46443Y-34564D01*
X46443Y-33938D01*
X46442Y-33913D01*
X46437Y-33888D01*
X46427Y-33865D01*
X46413Y-33843D01*
X46395Y-33825D01*
X46374Y-33811D01*
X46350Y-33802D01*
X46325Y-33797D01*
X46038Y-33797D01*
X46005Y-33829D01*
X46005Y-34234D01*
X46410Y-34234D01*
X46442Y-34201D01*
X46443Y-33938D01*
X46443Y-34564D01*
X46442Y-34302D01*
X46410Y-34269D01*
X46005Y-34269D01*
X46005Y-34674D01*
X46038Y-34706D01*
X46325Y-34706D01*
X46350Y-34701D01*
X46374Y-34692D01*
X46395Y-34677D01*
X46413Y-34659D01*
X46427Y-34638D01*
X46437Y-34615D01*
X46442Y-34590D01*
X46443Y-34564D01*
X46443Y-36001D01*
X46358Y-36001D01*
X46333Y-35977D01*
X46294Y-35950D01*
X46251Y-35932D01*
X46206Y-35923D01*
X46159Y-35923D01*
X46113Y-35931D01*
X46070Y-35949D01*
X46031Y-35974D01*
X45997Y-36007D01*
X45971Y-36046D01*
X45970Y-36048D01*
X45970Y-34674D01*
X45970Y-34269D01*
X45970Y-34234D01*
X45970Y-33829D01*
X45937Y-33797D01*
X45650Y-33797D01*
X45625Y-33802D01*
X45602Y-33811D01*
X45580Y-33825D01*
X45562Y-33843D01*
X45548Y-33865D01*
X45538Y-33888D01*
X45533Y-33913D01*
X45533Y-33938D01*
X45533Y-34201D01*
X45565Y-34234D01*
X45970Y-34234D01*
X45970Y-34269D01*
X45565Y-34269D01*
X45533Y-34302D01*
X45533Y-34564D01*
X45533Y-34590D01*
X45538Y-34615D01*
X45548Y-34638D01*
X45562Y-34659D01*
X45580Y-34677D01*
X45602Y-34692D01*
X45625Y-34701D01*
X45650Y-34706D01*
X45937Y-34706D01*
X45970Y-34674D01*
X45970Y-36048D01*
X45952Y-36089D01*
X45943Y-36134D01*
X45942Y-36156D01*
X45940Y-36130D01*
X45914Y-36040D01*
X45870Y-35958D01*
X45868Y-35954D01*
X45798Y-35919D01*
X45497Y-36220D01*
X45503Y-36226D01*
X45478Y-36251D01*
X45472Y-36245D01*
X45171Y-36546D01*
X45206Y-36616D01*
X45288Y-36660D01*
X45377Y-36687D01*
X45470Y-36697D01*
X45562Y-36688D01*
X45652Y-36662D01*
X45688Y-36642D01*
X45695Y-36680D01*
X45712Y-36723D01*
X45737Y-36762D01*
X45765Y-36791D01*
X45741Y-36814D01*
X45715Y-36853D01*
X45697Y-36896D01*
X45687Y-36941D01*
X45686Y-36988D01*
X45695Y-37034D01*
X45712Y-37077D01*
X45737Y-37117D01*
X45770Y-37150D01*
X45808Y-37177D01*
X45833Y-37188D01*
X45753Y-37269D01*
X45744Y-37280D01*
X45734Y-37291D01*
X45734Y-37292D01*
X45733Y-37293D01*
X45726Y-37306D01*
X45726Y-37306D01*
X45716Y-37313D01*
X45682Y-37346D01*
X45656Y-37384D01*
X45638Y-37427D01*
X45628Y-37473D01*
X45627Y-37520D01*
X45636Y-37565D01*
X45653Y-37609D01*
X45678Y-37648D01*
X45711Y-37682D01*
X45749Y-37708D01*
X45792Y-37727D01*
X45804Y-37730D01*
X45505Y-38028D01*
X45505Y-37818D01*
X45505Y-36976D01*
X45505Y-36950D01*
X45500Y-36925D01*
X45490Y-36902D01*
X45476Y-36881D01*
X45458Y-36863D01*
X45437Y-36849D01*
X45413Y-36839D01*
X45388Y-36834D01*
X45288Y-36834D01*
X45255Y-36867D01*
X45255Y-37379D01*
X45473Y-37379D01*
X45505Y-37347D01*
X45505Y-36976D01*
X45505Y-37818D01*
X45505Y-37447D01*
X45473Y-37415D01*
X45255Y-37415D01*
X45255Y-37928D01*
X45288Y-37960D01*
X45388Y-37960D01*
X45413Y-37955D01*
X45437Y-37945D01*
X45458Y-37931D01*
X45476Y-37913D01*
X45490Y-37892D01*
X45500Y-37869D01*
X45505Y-37844D01*
X45505Y-37818D01*
X45505Y-38028D01*
X45465Y-38068D01*
X44397Y-38068D01*
X44397Y-38059D01*
X44398Y-38059D01*
X44442Y-38050D01*
X44483Y-38033D01*
X44488Y-38030D01*
X44491Y-38032D01*
X44532Y-38049D01*
X44576Y-38058D01*
X44621Y-38059D01*
X44898Y-38059D01*
X44942Y-38050D01*
X44983Y-38033D01*
X45021Y-38008D01*
X45052Y-37976D01*
X45066Y-37956D01*
X45087Y-37960D01*
X45187Y-37960D01*
X45220Y-37928D01*
X45220Y-37415D01*
X45212Y-37415D01*
X45212Y-37379D01*
X45220Y-37379D01*
X45220Y-36867D01*
X45187Y-36834D01*
X45087Y-36834D01*
X45066Y-36838D01*
X45053Y-36819D01*
X45022Y-36787D01*
X44985Y-36762D01*
X44943Y-36745D01*
X44899Y-36736D01*
X44897Y-36736D01*
X44897Y-36647D01*
X44896Y-36632D01*
X44894Y-36618D01*
X44894Y-36617D01*
X44894Y-36616D01*
X44890Y-36602D01*
X44886Y-36588D01*
X44885Y-36587D01*
X44885Y-36586D01*
X44878Y-36573D01*
X44871Y-36560D01*
X44871Y-36560D01*
X44870Y-36559D01*
X44861Y-36547D01*
X44852Y-36536D01*
X44851Y-36535D01*
X44851Y-36535D01*
X44851Y-36535D01*
X44850Y-36534D01*
X44837Y-36521D01*
X44825Y-36511D01*
X44814Y-36502D01*
X44813Y-36501D01*
X44813Y-36501D01*
X44800Y-36494D01*
X44787Y-36487D01*
X44786Y-36487D01*
X44785Y-36486D01*
X44771Y-36482D01*
X44757Y-36477D01*
X44756Y-36477D01*
X44755Y-36477D01*
X44741Y-36476D01*
X44726Y-36474D01*
X44724Y-36474D01*
X44724Y-36474D01*
X44724Y-36474D01*
X44724Y-36474D01*
X44311Y-36474D01*
X44286Y-36449D01*
X44247Y-36423D01*
X44204Y-36405D01*
X44158Y-36395D01*
X44112Y-36395D01*
X44066Y-36404D01*
X44022Y-36421D01*
X43983Y-36447D01*
X43950Y-36480D01*
X43924Y-36518D01*
X43905Y-36561D01*
X43896Y-36607D01*
X43895Y-36653D01*
X43903Y-36699D01*
X43919Y-36740D01*
X43899Y-36736D01*
X43855Y-36736D01*
X43578Y-36736D01*
X43534Y-36744D01*
X43492Y-36761D01*
X43455Y-36786D01*
X43423Y-36818D01*
X43398Y-36855D01*
X43382Y-36894D01*
X43343Y-36855D01*
X43331Y-36846D01*
X43320Y-36836D01*
X43319Y-36836D01*
X43319Y-36836D01*
X43306Y-36829D01*
X43293Y-36821D01*
X43292Y-36821D01*
X43291Y-36821D01*
X43277Y-36816D01*
X43263Y-36812D01*
X43262Y-36812D01*
X43261Y-36812D01*
X43247Y-36810D01*
X43232Y-36809D01*
X43230Y-36809D01*
X43230Y-36809D01*
X43230Y-36809D01*
X43230Y-36809D01*
X43102Y-36809D01*
X43102Y-36733D01*
X43102Y-36722D01*
X43102Y-36465D01*
X43102Y-36465D01*
X43102Y-36436D01*
X43145Y-36504D01*
X43207Y-36568D01*
X43281Y-36619D01*
X43362Y-36655D01*
X43449Y-36674D01*
X43538Y-36676D01*
X43626Y-36660D01*
X43709Y-36628D01*
X43785Y-36580D01*
X43849Y-36519D01*
X43901Y-36446D01*
X43930Y-36379D01*
X44606Y-36379D01*
X44620Y-36378D01*
X44635Y-36377D01*
X44636Y-36376D01*
X44637Y-36376D01*
X44651Y-36372D01*
X44665Y-36368D01*
X44666Y-36368D01*
X44667Y-36367D01*
X44680Y-36360D01*
X44693Y-36354D01*
X44693Y-36353D01*
X44694Y-36353D01*
X44705Y-36343D01*
X44717Y-36334D01*
X44718Y-36333D01*
X44718Y-36333D01*
X44718Y-36333D01*
X44719Y-36333D01*
X45052Y-35999D01*
X45032Y-36036D01*
X45005Y-36125D01*
X44995Y-36218D01*
X45004Y-36310D01*
X45030Y-36400D01*
X45074Y-36482D01*
X45076Y-36486D01*
X45146Y-36521D01*
X45447Y-36220D01*
X45441Y-36214D01*
X45466Y-36189D01*
X45472Y-36195D01*
X45773Y-35894D01*
X45738Y-35824D01*
X45656Y-35780D01*
X45659Y-35779D01*
X45692Y-35746D01*
X45719Y-35708D01*
X45738Y-35666D01*
X45749Y-35620D01*
X45750Y-35567D01*
X45740Y-35521D01*
X45723Y-35478D01*
X45697Y-35439D01*
X45664Y-35406D01*
X45625Y-35380D01*
X45582Y-35361D01*
X45536Y-35352D01*
X45490Y-35352D01*
X45444Y-35360D01*
X45400Y-35378D01*
X45361Y-35404D01*
X45334Y-35431D01*
X45236Y-35431D01*
X45221Y-35432D01*
X45206Y-35433D01*
X45206Y-35434D01*
X45205Y-35434D01*
X45191Y-35438D01*
X45177Y-35442D01*
X45176Y-35442D01*
X45175Y-35443D01*
X45162Y-35450D01*
X45149Y-35456D01*
X45148Y-35457D01*
X45147Y-35457D01*
X45136Y-35467D01*
X45125Y-35476D01*
X45123Y-35477D01*
X45123Y-35477D01*
X45123Y-35477D01*
X45123Y-35477D01*
X44540Y-36061D01*
X43930Y-36061D01*
X43907Y-36005D01*
X43858Y-35931D01*
X43795Y-35868D01*
X43721Y-35818D01*
X43639Y-35783D01*
X43551Y-35766D01*
X43462Y-35765D01*
X43384Y-35780D01*
X43613Y-35551D01*
X43647Y-35545D01*
X43690Y-35528D01*
X43730Y-35503D01*
X43763Y-35471D01*
X43790Y-35433D01*
X43809Y-35390D01*
X43820Y-35344D01*
X43820Y-35344D01*
X43936Y-35228D01*
X44200Y-35228D01*
X44218Y-35226D01*
X44235Y-35225D01*
X44236Y-35224D01*
X44237Y-35224D01*
X44254Y-35219D01*
X44270Y-35214D01*
X44271Y-35214D01*
X44272Y-35214D01*
X44288Y-35205D01*
X44303Y-35197D01*
X44304Y-35197D01*
X44305Y-35196D01*
X44318Y-35185D01*
X44332Y-35174D01*
X44333Y-35173D01*
X44333Y-35173D01*
X44333Y-35173D01*
X44334Y-35172D01*
X44731Y-34775D01*
X45296Y-34775D01*
X45339Y-34771D01*
X45382Y-34758D01*
X45422Y-34737D01*
X45456Y-34708D01*
X45485Y-34674D01*
X45506Y-34634D01*
X45519Y-34591D01*
X45523Y-34548D01*
X45523Y-33994D01*
X45519Y-33951D01*
X45506Y-33908D01*
X45485Y-33869D01*
X45456Y-33834D01*
X45422Y-33806D01*
X45382Y-33784D01*
X45339Y-33771D01*
X45296Y-33767D01*
X42675Y-33767D01*
X42632Y-33771D01*
X42589Y-33784D01*
X42550Y-33806D01*
X42515Y-33834D01*
X42487Y-33869D01*
X42466Y-33908D01*
X42453Y-33951D01*
X42448Y-33994D01*
X42448Y-34548D01*
X42453Y-34591D01*
X42466Y-34634D01*
X42487Y-34674D01*
X42515Y-34708D01*
X42550Y-34737D01*
X42589Y-34758D01*
X42632Y-34771D01*
X42675Y-34775D01*
X42832Y-34775D01*
X42832Y-35071D01*
X41665Y-36239D01*
X41665Y-35795D01*
X40027Y-35795D01*
X40027Y-37433D01*
X40298Y-37433D01*
X40283Y-37437D01*
X40219Y-37471D01*
X40194Y-37531D01*
X40433Y-37770D01*
X40438Y-37764D01*
X40463Y-37789D01*
X40458Y-37795D01*
X40463Y-37800D01*
X40438Y-37825D01*
X40433Y-37820D01*
X40408Y-37845D01*
X40408Y-37795D01*
X40169Y-37556D01*
X40109Y-37581D01*
X40074Y-37648D01*
X40052Y-37721D01*
X40045Y-37796D01*
X40053Y-37872D01*
X40075Y-37944D01*
X40109Y-38008D01*
X40169Y-38033D01*
X40408Y-37795D01*
X40408Y-37845D01*
X40194Y-38058D01*
X40219Y-38119D01*
X40286Y-38154D01*
X40359Y-38175D01*
X40434Y-38182D01*
X40509Y-38175D01*
X40582Y-38153D01*
X40646Y-38119D01*
X40671Y-38058D01*
X40671Y-38058D01*
X40694Y-38081D01*
X40696Y-38079D01*
X40696Y-38248D01*
X40696Y-38464D01*
X40698Y-38479D01*
X40699Y-38493D01*
X40699Y-38494D01*
X40699Y-38495D01*
X40704Y-38509D01*
X40708Y-38523D01*
X40708Y-38524D01*
X40708Y-38525D01*
X40715Y-38538D01*
X40722Y-38551D01*
X40723Y-38552D01*
X40723Y-38552D01*
X40732Y-38564D01*
X40741Y-38575D01*
X40743Y-38576D01*
X40743Y-38576D01*
X40743Y-38576D01*
X40743Y-38577D01*
X40834Y-38668D01*
X40834Y-38701D01*
X40842Y-38747D01*
X40859Y-38790D01*
X40885Y-38829D01*
X40917Y-38863D01*
X40956Y-38890D01*
X40998Y-38908D01*
X41044Y-38918D01*
X41091Y-38919D01*
X41137Y-38911D01*
X41180Y-38894D01*
X41220Y-38869D01*
X41254Y-38837D01*
X41280Y-38799D01*
X41299Y-38756D01*
X41310Y-38711D01*
X41311Y-38657D01*
X41301Y-38611D01*
X41291Y-38586D01*
X41308Y-38579D01*
X41348Y-38554D01*
X41378Y-38525D01*
X41446Y-38525D01*
X41453Y-38524D01*
X41419Y-38584D01*
X41360Y-38763D01*
X41351Y-38807D01*
X41369Y-38958D01*
X42285Y-38958D01*
X42285Y-38950D01*
X42320Y-38950D01*
X42320Y-38958D01*
X43237Y-38958D01*
X43254Y-38807D01*
X43245Y-38763D01*
X43203Y-38635D01*
X43460Y-38892D01*
X43471Y-38901D01*
X43482Y-38911D01*
X43483Y-38911D01*
X43484Y-38912D01*
X43497Y-38918D01*
X43510Y-38926D01*
X43510Y-38926D01*
X43511Y-38926D01*
X43525Y-38931D01*
X43539Y-38935D01*
X43540Y-38935D01*
X43541Y-38935D01*
X43555Y-38937D01*
X43570Y-38938D01*
X43572Y-38938D01*
X43572Y-38938D01*
X43572Y-38938D01*
X43572Y-38938D01*
X43917Y-38938D01*
X44593Y-38938D01*
X44593Y-38939D01*
X44575Y-38982D01*
X44565Y-39028D01*
X44564Y-39075D01*
X44573Y-39121D01*
X44578Y-39135D01*
X44578Y-39255D01*
X44370Y-39255D01*
X44358Y-39238D01*
X44325Y-39205D01*
X44287Y-39179D01*
X44244Y-39161D01*
X44198Y-39151D01*
X44151Y-39151D01*
X44105Y-39160D01*
X44062Y-39177D01*
X44023Y-39203D01*
X43989Y-39235D01*
X43963Y-39274D01*
X43945Y-39317D01*
X43935Y-39363D01*
X43934Y-39409D01*
X43943Y-39455D01*
X43960Y-39499D01*
X43977Y-39525D01*
X43267Y-39525D01*
X43254Y-39526D01*
X43254Y-39145D01*
X43237Y-38994D01*
X42320Y-38994D01*
X42320Y-39910D01*
X42471Y-39928D01*
X42653Y-39877D01*
X42821Y-39791D01*
X42970Y-39675D01*
X43093Y-39532D01*
X43186Y-39368D01*
X43245Y-39189D01*
X43254Y-39145D01*
X43254Y-39526D01*
X43253Y-39527D01*
X43238Y-39528D01*
X43237Y-39528D01*
X43236Y-39528D01*
X43222Y-39532D01*
X43208Y-39536D01*
X43207Y-39537D01*
X43206Y-39537D01*
X43193Y-39544D01*
X43180Y-39551D01*
X43180Y-39551D01*
X43179Y-39552D01*
X43168Y-39561D01*
X43156Y-39570D01*
X43155Y-39571D01*
X43155Y-39571D01*
X43155Y-39571D01*
X43154Y-39572D01*
X42729Y-39998D01*
X42285Y-39998D01*
X42285Y-39910D01*
X42285Y-38994D01*
X41369Y-38994D01*
X41351Y-39145D01*
X41360Y-39189D01*
X41419Y-39368D01*
X41512Y-39532D01*
X41635Y-39675D01*
X41784Y-39791D01*
X41952Y-39877D01*
X42134Y-39928D01*
X42285Y-39910D01*
X42285Y-39998D01*
X41938Y-39998D01*
X41631Y-39998D01*
X41232Y-39599D01*
X41232Y-39468D01*
X41254Y-39447D01*
X41280Y-39409D01*
X41299Y-39366D01*
X41310Y-39321D01*
X41311Y-39267D01*
X41301Y-39222D01*
X41284Y-39178D01*
X41258Y-39140D01*
X41225Y-39106D01*
X41186Y-39080D01*
X41143Y-39062D01*
X41097Y-39053D01*
X41051Y-39052D01*
X41005Y-39061D01*
X40961Y-39079D01*
X40922Y-39104D01*
X40889Y-39137D01*
X40863Y-39176D01*
X40844Y-39218D01*
X40834Y-39264D01*
X40834Y-39311D01*
X40842Y-39357D01*
X40859Y-39400D01*
X40885Y-39440D01*
X40913Y-39469D01*
X40913Y-39665D01*
X40914Y-39680D01*
X40916Y-39694D01*
X40916Y-39695D01*
X40916Y-39696D01*
X40920Y-39710D01*
X40924Y-39724D01*
X40925Y-39725D01*
X40925Y-39726D01*
X40932Y-39739D01*
X40939Y-39752D01*
X40939Y-39752D01*
X40940Y-39753D01*
X40949Y-39764D01*
X40958Y-39776D01*
X40959Y-39777D01*
X40959Y-39777D01*
X40959Y-39777D01*
X40960Y-39778D01*
X41452Y-40270D01*
X41463Y-40279D01*
X41474Y-40289D01*
X41475Y-40289D01*
X41476Y-40289D01*
X41489Y-40296D01*
X41502Y-40304D01*
X41502Y-40304D01*
X41503Y-40304D01*
X41517Y-40308D01*
X41531Y-40313D01*
X41532Y-40313D01*
X41533Y-40313D01*
X41548Y-40315D01*
X41562Y-40316D01*
X41564Y-40316D01*
X41564Y-40316D01*
X41564Y-40316D01*
X41564Y-40316D01*
X41938Y-40316D01*
X42795Y-40316D01*
X42809Y-40315D01*
X42824Y-40314D01*
X42825Y-40313D01*
X42826Y-40313D01*
X42840Y-40309D01*
X42854Y-40305D01*
X42855Y-40305D01*
X42856Y-40304D01*
X42869Y-40297D01*
X42882Y-40291D01*
X42882Y-40290D01*
X42883Y-40290D01*
X42894Y-40280D01*
X42906Y-40271D01*
X42907Y-40270D01*
X42907Y-40270D01*
X42907Y-40270D01*
X42908Y-40270D01*
X43333Y-39844D01*
X43405Y-39844D01*
X43398Y-39855D01*
X43381Y-39896D01*
X43372Y-39940D01*
X43371Y-39985D01*
X43372Y-40853D01*
X43380Y-40897D01*
X43397Y-40938D01*
X43422Y-40975D01*
X43454Y-41007D01*
X43491Y-41032D01*
X43532Y-41049D01*
X43549Y-41053D01*
X43549Y-41179D01*
X43550Y-41196D01*
X43552Y-41213D01*
X43552Y-41214D01*
X43552Y-41215D01*
X43557Y-41232D01*
X43562Y-41249D01*
X43563Y-41250D01*
X43563Y-41251D01*
X43571Y-41266D01*
X43579Y-41282D01*
X43580Y-41282D01*
X43580Y-41283D01*
X43591Y-41297D01*
X43602Y-41310D01*
X43604Y-41312D01*
X43604Y-41312D01*
X43604Y-41312D01*
X43604Y-41312D01*
X43764Y-41472D01*
X43777Y-41483D01*
X43790Y-41494D01*
X43791Y-41494D01*
X43792Y-41495D01*
X43807Y-41503D01*
X43823Y-41512D01*
X43824Y-41512D01*
X43825Y-41513D01*
X43841Y-41518D01*
X43858Y-41523D01*
X43859Y-41523D01*
X43860Y-41523D01*
X43877Y-41525D01*
X43894Y-41527D01*
X43896Y-41527D01*
X43896Y-41527D01*
X43897Y-41527D01*
X43897Y-41527D01*
X44232Y-41527D01*
X44226Y-41530D01*
X44222Y-41533D01*
X44186Y-41602D01*
X44488Y-41904D01*
X44789Y-41602D01*
X44753Y-41533D01*
X44743Y-41527D01*
X45255Y-41527D01*
X45186Y-41573D01*
X45122Y-41635D01*
X45072Y-41709D01*
X45036Y-41790D01*
X45018Y-41878D01*
X45017Y-41967D01*
X45033Y-42055D01*
X45066Y-42137D01*
X45114Y-42212D01*
X45176Y-42277D01*
X45210Y-42301D01*
X44964Y-42301D01*
X44964Y-41931D01*
X44956Y-41838D01*
X44929Y-41749D01*
X44886Y-41667D01*
X44883Y-41663D01*
X44814Y-41627D01*
X44513Y-41929D01*
X44814Y-42230D01*
X44883Y-42194D01*
X44928Y-42112D01*
X44955Y-42023D01*
X44964Y-41931D01*
X44964Y-42301D01*
X44766Y-42301D01*
X44789Y-42255D01*
X44488Y-41954D01*
X44463Y-41979D01*
X44463Y-41929D01*
X44161Y-41627D01*
X44092Y-41663D01*
X44048Y-41745D01*
X44021Y-41834D01*
X44011Y-41926D01*
X44020Y-42019D01*
X44046Y-42108D01*
X44089Y-42191D01*
X44092Y-42194D01*
X44161Y-42230D01*
X44463Y-41929D01*
X44463Y-41979D01*
X44186Y-42255D01*
X44210Y-42301D01*
X44022Y-42301D01*
X43890Y-42169D01*
X43901Y-42154D01*
X43937Y-42073D01*
X43957Y-41986D01*
X43958Y-41884D01*
X43941Y-41797D01*
X43907Y-41714D01*
X43858Y-41640D01*
X43795Y-41577D01*
X43721Y-41527D01*
X43639Y-41492D01*
X43551Y-41474D01*
X43462Y-41474D01*
X43374Y-41490D01*
X43292Y-41524D01*
X43217Y-41573D01*
X43153Y-41635D01*
X43103Y-41709D01*
X43068Y-41790D01*
X43049Y-41878D01*
X43048Y-41967D01*
X43064Y-42055D01*
X43097Y-42137D01*
X43145Y-42212D01*
X43207Y-42277D01*
X43281Y-42327D01*
X43362Y-42363D01*
X43449Y-42382D01*
X43538Y-42384D01*
X43626Y-42369D01*
X43636Y-42365D01*
X43843Y-42573D01*
X43855Y-42582D01*
X43866Y-42592D01*
X43867Y-42592D01*
X43867Y-42593D01*
X43880Y-42600D01*
X43893Y-42607D01*
X43894Y-42607D01*
X43895Y-42607D01*
X43909Y-42612D01*
X43923Y-42616D01*
X43924Y-42616D01*
X43925Y-42616D01*
X43939Y-42618D01*
X43954Y-42620D01*
X43956Y-42620D01*
X43956Y-42620D01*
X43956Y-42620D01*
X43956Y-42620D01*
X45787Y-42620D01*
X45802Y-42618D01*
X45816Y-42617D01*
X45817Y-42617D01*
X45818Y-42617D01*
X45832Y-42612D01*
X45846Y-42608D01*
X45847Y-42608D01*
X45848Y-42608D01*
X45861Y-42601D01*
X45874Y-42594D01*
X45874Y-42593D01*
X45875Y-42593D01*
X45887Y-42584D01*
X45898Y-42574D01*
X45899Y-42573D01*
X45899Y-42573D01*
X45899Y-42573D01*
X45900Y-42573D01*
X46274Y-42199D01*
X46283Y-42187D01*
X46292Y-42176D01*
X46293Y-42175D01*
X46293Y-42175D01*
X46300Y-42162D01*
X46307Y-42149D01*
X46308Y-42148D01*
X46308Y-42147D01*
X46312Y-42133D01*
X46317Y-42119D01*
X46317Y-42118D01*
X46317Y-42118D01*
X46319Y-42103D01*
X46320Y-42088D01*
X46320Y-42087D01*
X46320Y-42087D01*
X46320Y-42087D01*
X46320Y-42086D01*
X46320Y-41601D01*
X48419Y-39502D01*
X48429Y-39491D01*
X48438Y-39479D01*
X48439Y-39479D01*
X48439Y-39478D01*
X48446Y-39465D01*
X48453Y-39452D01*
X48453Y-39451D01*
X48454Y-39451D01*
X48458Y-39436D01*
X48463Y-39422D01*
X48463Y-39422D01*
X48463Y-39421D01*
X48464Y-39406D01*
X48466Y-39391D01*
X48466Y-39390D01*
X48466Y-39390D01*
X48466Y-39390D01*
X48466Y-39389D01*
X48466Y-38661D01*
X48465Y-38646D01*
X48463Y-38632D01*
X48463Y-38631D01*
X48463Y-38630D01*
X48459Y-38616D01*
X48455Y-38602D01*
X48454Y-38601D01*
X48454Y-38600D01*
X48447Y-38587D01*
X48440Y-38574D01*
X48440Y-38573D01*
X48439Y-38573D01*
X48430Y-38561D01*
X48421Y-38550D01*
X48420Y-38549D01*
X48420Y-38549D01*
X48420Y-38549D01*
X48419Y-38548D01*
X48336Y-38465D01*
X48337Y-38466D01*
X48384Y-38466D01*
X48430Y-38458D01*
X48474Y-38441D01*
X48513Y-38416D01*
X48547Y-38384D01*
X48574Y-38346D01*
X48593Y-38303D01*
X48603Y-38258D01*
X48604Y-38204D01*
X48604Y-40775D01*
X48226Y-40775D01*
X48183Y-40779D01*
X48169Y-40784D01*
X48131Y-40776D01*
X47944Y-40774D01*
X47760Y-40810D01*
X47586Y-40880D01*
X47429Y-40983D01*
X47295Y-41114D01*
X47189Y-41269D01*
X47115Y-41441D01*
X47076Y-41625D01*
X47073Y-41812D01*
X47083Y-41868D01*
X47079Y-41884D01*
X47074Y-41927D01*
X47074Y-42619D01*
X47079Y-42662D01*
X47079Y-42665D01*
X41896Y-42665D01*
X41897Y-42662D01*
X41901Y-42619D01*
X41901Y-41927D01*
X41897Y-41884D01*
X41893Y-41873D01*
X41898Y-41852D01*
X41901Y-41638D01*
X41865Y-41454D01*
X41793Y-41280D01*
X41689Y-41124D01*
X41557Y-40991D01*
X41402Y-40886D01*
X41229Y-40813D01*
X41045Y-40776D01*
X40857Y-40774D01*
X40807Y-40784D01*
X40792Y-40779D01*
X40749Y-40775D01*
X40671Y-40775D01*
X40057Y-40775D01*
X40014Y-40779D01*
X40011Y-40780D01*
X40011Y-35597D01*
X40014Y-35598D01*
X40057Y-35602D01*
X40749Y-35602D01*
X40792Y-35598D01*
X40804Y-35594D01*
X40831Y-35600D01*
X41018Y-35604D01*
X41203Y-35571D01*
X41378Y-35503D01*
X41536Y-35403D01*
X41672Y-35273D01*
X41780Y-35120D01*
X41857Y-34949D01*
X41898Y-34766D01*
X41901Y-34551D01*
X41892Y-34507D01*
X41897Y-34493D01*
X41901Y-34450D01*
X41901Y-33758D01*
X41897Y-33715D01*
X41896Y-33712D01*
X47079Y-33712D01*
X47079Y-33715D01*
X47074Y-33758D01*
X47074Y-34450D01*
X47079Y-34493D01*
X47082Y-34506D01*
X47076Y-34538D01*
X47073Y-34726D01*
X47107Y-34910D01*
X47176Y-35085D01*
X47278Y-35242D01*
X47408Y-35377D01*
X47562Y-35484D01*
X47734Y-35559D01*
X47917Y-35600D01*
X48105Y-35604D01*
X48167Y-35593D01*
X48183Y-35598D01*
X48226Y-35602D01*
X48918Y-35602D01*
X48961Y-35598D01*
X48964Y-35597D01*
X48964Y-40780D01*
M02*
