G04 (created by PCBNEW (2013-02-11 BZR 3943)-testing) date Wed 13 Feb 2013 08:47:32 PM CET*
%MOIN*%
G04 Gerber Fmt 3.4, Leading zero omitted, Abs format*
%FSLAX34Y34*%
G01*
G70*
G90*
G04 APERTURE LIST*
%ADD10C,3.14961e-06*%
%ADD11C,0.00787402*%
%ADD12C,0.00738189*%
%ADD13C,0.0001*%
%ADD14C,0.00393701*%
%ADD15R,0.0511811X0.0511811*%
%ADD16C,0.0511811*%
%ADD17R,0.0649606X0.0649606*%
%ADD18C,0.0649606*%
%ADD19C,0.0688976*%
%ADD20C,0.15748*%
%ADD21O,0.15748X0.15748*%
%ADD22C,0.0984252*%
%ADD23R,0.0472X0.0472*%
G04 APERTURE END LIST*
G54D10*
G54D11*
X48129Y-33562D02*
X40846Y-33562D01*
X49114Y-41830D02*
X49114Y-34547D01*
X40846Y-42814D02*
X48129Y-42814D01*
X39862Y-34547D02*
X39862Y-41830D01*
G54D12*
X42301Y-42639D02*
X42301Y-42343D01*
X42301Y-42456D02*
X42329Y-42442D01*
X42386Y-42442D01*
X42414Y-42456D01*
X42428Y-42470D01*
X42442Y-42498D01*
X42442Y-42582D01*
X42428Y-42611D01*
X42414Y-42625D01*
X42386Y-42639D01*
X42329Y-42639D01*
X42301Y-42625D01*
X42611Y-42639D02*
X42582Y-42625D01*
X42568Y-42597D01*
X42568Y-42343D01*
X42765Y-42639D02*
X42737Y-42625D01*
X42723Y-42611D01*
X42709Y-42582D01*
X42709Y-42498D01*
X42723Y-42470D01*
X42737Y-42456D01*
X42765Y-42442D01*
X42807Y-42442D01*
X42836Y-42456D01*
X42850Y-42470D01*
X42864Y-42498D01*
X42864Y-42582D01*
X42850Y-42611D01*
X42836Y-42625D01*
X42807Y-42639D01*
X42765Y-42639D01*
X43117Y-42442D02*
X43117Y-42681D01*
X43103Y-42709D01*
X43089Y-42723D01*
X43061Y-42737D01*
X43018Y-42737D01*
X42990Y-42723D01*
X43117Y-42625D02*
X43089Y-42639D01*
X43032Y-42639D01*
X43004Y-42625D01*
X42990Y-42611D01*
X42976Y-42582D01*
X42976Y-42498D01*
X42990Y-42470D01*
X43004Y-42456D01*
X43032Y-42442D01*
X43089Y-42442D01*
X43117Y-42456D01*
X43257Y-42611D02*
X43271Y-42625D01*
X43257Y-42639D01*
X43243Y-42625D01*
X43257Y-42611D01*
X43257Y-42639D01*
X43384Y-42625D02*
X43412Y-42639D01*
X43468Y-42639D01*
X43496Y-42625D01*
X43510Y-42597D01*
X43510Y-42582D01*
X43496Y-42554D01*
X43468Y-42540D01*
X43426Y-42540D01*
X43398Y-42526D01*
X43384Y-42498D01*
X43384Y-42484D01*
X43398Y-42456D01*
X43426Y-42442D01*
X43468Y-42442D01*
X43496Y-42456D01*
X43637Y-42442D02*
X43637Y-42737D01*
X43637Y-42456D02*
X43665Y-42442D01*
X43721Y-42442D01*
X43750Y-42456D01*
X43764Y-42470D01*
X43778Y-42498D01*
X43778Y-42582D01*
X43764Y-42611D01*
X43750Y-42625D01*
X43721Y-42639D01*
X43665Y-42639D01*
X43637Y-42625D01*
X43904Y-42639D02*
X43904Y-42442D01*
X43904Y-42343D02*
X43890Y-42357D01*
X43904Y-42372D01*
X43918Y-42357D01*
X43904Y-42343D01*
X43904Y-42372D01*
X44003Y-42442D02*
X44115Y-42442D01*
X44045Y-42343D02*
X44045Y-42597D01*
X44059Y-42625D01*
X44087Y-42639D01*
X44115Y-42639D01*
X44185Y-42442D02*
X44340Y-42442D01*
X44185Y-42639D01*
X44340Y-42639D01*
X44565Y-42625D02*
X44537Y-42639D01*
X44481Y-42639D01*
X44453Y-42625D01*
X44438Y-42597D01*
X44438Y-42484D01*
X44453Y-42456D01*
X44481Y-42442D01*
X44537Y-42442D01*
X44565Y-42456D01*
X44579Y-42484D01*
X44579Y-42512D01*
X44438Y-42540D01*
X44706Y-42442D02*
X44706Y-42639D01*
X44706Y-42470D02*
X44720Y-42456D01*
X44748Y-42442D01*
X44790Y-42442D01*
X44818Y-42456D01*
X44832Y-42484D01*
X44832Y-42639D01*
X44973Y-42442D02*
X44973Y-42737D01*
X44973Y-42456D02*
X45001Y-42442D01*
X45057Y-42442D01*
X45085Y-42456D01*
X45099Y-42470D01*
X45113Y-42498D01*
X45113Y-42582D01*
X45099Y-42611D01*
X45085Y-42625D01*
X45057Y-42639D01*
X45001Y-42639D01*
X44973Y-42625D01*
X45198Y-42442D02*
X45310Y-42442D01*
X45240Y-42639D02*
X45240Y-42386D01*
X45254Y-42357D01*
X45282Y-42343D01*
X45310Y-42343D01*
X45521Y-42625D02*
X45493Y-42639D01*
X45437Y-42639D01*
X45409Y-42625D01*
X45395Y-42597D01*
X45395Y-42484D01*
X45409Y-42456D01*
X45437Y-42442D01*
X45493Y-42442D01*
X45521Y-42456D01*
X45535Y-42484D01*
X45535Y-42512D01*
X45395Y-42540D01*
X45662Y-42639D02*
X45662Y-42442D01*
X45662Y-42343D02*
X45648Y-42357D01*
X45662Y-42372D01*
X45676Y-42357D01*
X45662Y-42343D01*
X45662Y-42372D01*
X45845Y-42639D02*
X45816Y-42625D01*
X45802Y-42597D01*
X45802Y-42343D01*
X45957Y-42611D02*
X45971Y-42625D01*
X45957Y-42639D01*
X45943Y-42625D01*
X45957Y-42611D01*
X45957Y-42639D01*
X46140Y-42639D02*
X46112Y-42625D01*
X46098Y-42611D01*
X46084Y-42582D01*
X46084Y-42498D01*
X46098Y-42470D01*
X46112Y-42456D01*
X46140Y-42442D01*
X46182Y-42442D01*
X46210Y-42456D01*
X46224Y-42470D01*
X46238Y-42498D01*
X46238Y-42582D01*
X46224Y-42611D01*
X46210Y-42625D01*
X46182Y-42639D01*
X46140Y-42639D01*
X46365Y-42639D02*
X46365Y-42442D01*
X46365Y-42498D02*
X46379Y-42470D01*
X46393Y-42456D01*
X46421Y-42442D01*
X46449Y-42442D01*
X46674Y-42442D02*
X46674Y-42681D01*
X46660Y-42709D01*
X46646Y-42723D01*
X46618Y-42737D01*
X46576Y-42737D01*
X46548Y-42723D01*
X46674Y-42625D02*
X46646Y-42639D01*
X46590Y-42639D01*
X46562Y-42625D01*
X46548Y-42611D01*
X46534Y-42582D01*
X46534Y-42498D01*
X46548Y-42470D01*
X46562Y-42456D01*
X46590Y-42442D01*
X46646Y-42442D01*
X46674Y-42456D01*
G54D11*
X39862Y-41830D02*
G75*
G03X40846Y-42814I984J0D01*
G74*
G01*
X48129Y-42814D02*
G75*
G03X49114Y-41830I0J984D01*
G74*
G01*
X49114Y-34547D02*
G75*
G03X48129Y-33562I-984J0D01*
G74*
G01*
X40846Y-33562D02*
G75*
G03X39862Y-34547I0J-984D01*
G74*
G01*
X43862Y-41246D02*
X44050Y-41246D01*
X43825Y-41359D02*
X43956Y-40965D01*
X44087Y-41359D01*
X44406Y-41359D02*
X44218Y-41359D01*
X44218Y-40965D01*
X44537Y-41359D02*
X44537Y-40965D01*
X44687Y-40965D01*
X44724Y-40984D01*
X44743Y-41003D01*
X44762Y-41040D01*
X44762Y-41096D01*
X44743Y-41134D01*
X44724Y-41153D01*
X44687Y-41171D01*
X44537Y-41171D01*
X44912Y-41340D02*
X44968Y-41359D01*
X45062Y-41359D01*
X45099Y-41340D01*
X45118Y-41321D01*
X45137Y-41284D01*
X45137Y-41246D01*
X45118Y-41209D01*
X45099Y-41190D01*
X45062Y-41171D01*
X44987Y-41153D01*
X44949Y-41134D01*
X44931Y-41115D01*
X44912Y-41078D01*
X44912Y-41040D01*
X44931Y-41003D01*
X44949Y-40984D01*
X44987Y-40965D01*
X45081Y-40965D01*
X45137Y-40984D01*
X44135Y-35393D02*
X43742Y-35393D01*
X43742Y-35299D01*
X43760Y-35243D01*
X43798Y-35206D01*
X43835Y-35187D01*
X43910Y-35168D01*
X43967Y-35168D01*
X44041Y-35187D01*
X44079Y-35206D01*
X44116Y-35243D01*
X44135Y-35299D01*
X44135Y-35393D01*
X44135Y-35000D02*
X43742Y-35000D01*
X44850Y-35284D02*
X45149Y-35284D01*
X45000Y-35434D02*
X45000Y-35134D01*
X45834Y-35284D02*
X46134Y-35284D01*
X43172Y-35538D02*
X43190Y-35481D01*
X43190Y-35388D01*
X43172Y-35350D01*
X43153Y-35331D01*
X43115Y-35313D01*
X43078Y-35313D01*
X43040Y-35331D01*
X43022Y-35350D01*
X43003Y-35388D01*
X42984Y-35463D01*
X42965Y-35500D01*
X42947Y-35519D01*
X42909Y-35538D01*
X42872Y-35538D01*
X42834Y-35519D01*
X42815Y-35500D01*
X42797Y-35463D01*
X42797Y-35369D01*
X42815Y-35313D01*
X42797Y-35200D02*
X42797Y-34975D01*
X43190Y-35088D02*
X42797Y-35088D01*
X48513Y-40247D02*
X48828Y-40142D01*
X48513Y-40037D01*
X48513Y-39872D02*
X48513Y-39842D01*
X48528Y-39812D01*
X48543Y-39797D01*
X48573Y-39782D01*
X48633Y-39767D01*
X48708Y-39767D01*
X48768Y-39782D01*
X48798Y-39797D01*
X48813Y-39812D01*
X48828Y-39842D01*
X48828Y-39872D01*
X48813Y-39902D01*
X48798Y-39917D01*
X48768Y-39932D01*
X48708Y-39947D01*
X48633Y-39947D01*
X48573Y-39932D01*
X48543Y-39917D01*
X48528Y-39902D01*
X48513Y-39872D01*
X48798Y-39632D02*
X48813Y-39617D01*
X48828Y-39632D01*
X48813Y-39647D01*
X48798Y-39632D01*
X48828Y-39632D01*
X48828Y-39317D02*
X48828Y-39497D01*
X48828Y-39407D02*
X48513Y-39407D01*
X48558Y-39437D01*
X48588Y-39467D01*
X48603Y-39497D01*
X48543Y-39197D02*
X48528Y-39182D01*
X48513Y-39152D01*
X48513Y-39077D01*
X48528Y-39047D01*
X48543Y-39032D01*
X48573Y-39017D01*
X48603Y-39017D01*
X48648Y-39032D01*
X48828Y-39212D01*
X48828Y-39017D01*
X48543Y-38657D02*
X48528Y-38642D01*
X48513Y-38612D01*
X48513Y-38537D01*
X48528Y-38507D01*
X48543Y-38492D01*
X48573Y-38477D01*
X48603Y-38477D01*
X48648Y-38492D01*
X48828Y-38672D01*
X48828Y-38477D01*
X48513Y-38282D02*
X48513Y-38252D01*
X48528Y-38222D01*
X48543Y-38207D01*
X48573Y-38192D01*
X48633Y-38177D01*
X48708Y-38177D01*
X48768Y-38192D01*
X48798Y-38207D01*
X48813Y-38222D01*
X48828Y-38252D01*
X48828Y-38282D01*
X48813Y-38312D01*
X48798Y-38327D01*
X48768Y-38342D01*
X48708Y-38357D01*
X48633Y-38357D01*
X48573Y-38342D01*
X48543Y-38327D01*
X48528Y-38312D01*
X48513Y-38282D01*
X48828Y-37877D02*
X48828Y-38057D01*
X48828Y-37967D02*
X48513Y-37967D01*
X48558Y-37997D01*
X48588Y-38027D01*
X48603Y-38057D01*
X48513Y-37772D02*
X48513Y-37577D01*
X48633Y-37682D01*
X48633Y-37637D01*
X48648Y-37607D01*
X48663Y-37592D01*
X48693Y-37577D01*
X48768Y-37577D01*
X48798Y-37592D01*
X48813Y-37607D01*
X48828Y-37637D01*
X48828Y-37727D01*
X48813Y-37757D01*
X48798Y-37772D01*
X48240Y-40509D02*
X48259Y-40452D01*
X48259Y-40359D01*
X48240Y-40321D01*
X48221Y-40302D01*
X48184Y-40284D01*
X48146Y-40284D01*
X48109Y-40302D01*
X48090Y-40321D01*
X48071Y-40359D01*
X48053Y-40434D01*
X48034Y-40471D01*
X48015Y-40490D01*
X47978Y-40509D01*
X47940Y-40509D01*
X47903Y-40490D01*
X47884Y-40471D01*
X47865Y-40434D01*
X47865Y-40340D01*
X47884Y-40284D01*
X48240Y-39965D02*
X48259Y-40002D01*
X48259Y-40077D01*
X48240Y-40115D01*
X48203Y-40134D01*
X48053Y-40134D01*
X48015Y-40115D01*
X47996Y-40077D01*
X47996Y-40002D01*
X48015Y-39965D01*
X48053Y-39946D01*
X48090Y-39946D01*
X48128Y-40134D01*
X48259Y-39778D02*
X47996Y-39778D01*
X48071Y-39778D02*
X48034Y-39759D01*
X48015Y-39740D01*
X47996Y-39703D01*
X47996Y-39665D01*
X48259Y-39534D02*
X47996Y-39534D01*
X47865Y-39534D02*
X47884Y-39553D01*
X47903Y-39534D01*
X47884Y-39515D01*
X47865Y-39534D01*
X47903Y-39534D01*
X48259Y-39178D02*
X48053Y-39178D01*
X48015Y-39196D01*
X47996Y-39234D01*
X47996Y-39309D01*
X48015Y-39346D01*
X48240Y-39178D02*
X48259Y-39215D01*
X48259Y-39309D01*
X48240Y-39346D01*
X48203Y-39365D01*
X48165Y-39365D01*
X48128Y-39346D01*
X48109Y-39309D01*
X48109Y-39215D01*
X48090Y-39178D01*
X48259Y-38934D02*
X48240Y-38971D01*
X48203Y-38990D01*
X47865Y-38990D01*
X48259Y-38484D02*
X47865Y-38484D01*
X48259Y-38259D02*
X48034Y-38428D01*
X47865Y-38259D02*
X48090Y-38484D01*
X47996Y-38090D02*
X48259Y-38090D01*
X48034Y-38090D02*
X48015Y-38071D01*
X47996Y-38034D01*
X47996Y-37978D01*
X48015Y-37940D01*
X48053Y-37921D01*
X48259Y-37921D01*
X48259Y-37678D02*
X48240Y-37715D01*
X48221Y-37734D01*
X48184Y-37753D01*
X48071Y-37753D01*
X48034Y-37734D01*
X48015Y-37715D01*
X47996Y-37678D01*
X47996Y-37622D01*
X48015Y-37584D01*
X48034Y-37565D01*
X48071Y-37547D01*
X48184Y-37547D01*
X48221Y-37565D01*
X48240Y-37584D01*
X48259Y-37622D01*
X48259Y-37678D01*
X48259Y-37378D02*
X47865Y-37378D01*
X48015Y-37378D02*
X47996Y-37340D01*
X47996Y-37265D01*
X48015Y-37228D01*
X48034Y-37209D01*
X48071Y-37190D01*
X48184Y-37190D01*
X48221Y-37209D01*
X48240Y-37228D01*
X48259Y-37265D01*
X48259Y-37340D01*
X48240Y-37378D01*
X42934Y-40690D02*
X42990Y-40709D01*
X43084Y-40709D01*
X43122Y-40690D01*
X43140Y-40671D01*
X43159Y-40634D01*
X43159Y-40596D01*
X43140Y-40559D01*
X43122Y-40540D01*
X43084Y-40521D01*
X43009Y-40503D01*
X42972Y-40484D01*
X42953Y-40465D01*
X42934Y-40428D01*
X42934Y-40390D01*
X42953Y-40353D01*
X42972Y-40334D01*
X43009Y-40315D01*
X43103Y-40315D01*
X43159Y-40334D01*
X43272Y-40315D02*
X43497Y-40315D01*
X43384Y-40709D02*
X43384Y-40315D01*
X43628Y-40503D02*
X43759Y-40503D01*
X43815Y-40709D02*
X43628Y-40709D01*
X43628Y-40315D01*
X43815Y-40315D01*
X44209Y-40671D02*
X44190Y-40690D01*
X44134Y-40709D01*
X44096Y-40709D01*
X44040Y-40690D01*
X44003Y-40653D01*
X43984Y-40615D01*
X43965Y-40540D01*
X43965Y-40484D01*
X43984Y-40409D01*
X44003Y-40371D01*
X44040Y-40334D01*
X44096Y-40315D01*
X44134Y-40315D01*
X44190Y-40334D01*
X44209Y-40353D01*
X44584Y-40709D02*
X44359Y-40709D01*
X44471Y-40709D02*
X44471Y-40315D01*
X44434Y-40371D01*
X44396Y-40409D01*
X44359Y-40428D01*
X44734Y-40353D02*
X44753Y-40334D01*
X44790Y-40315D01*
X44884Y-40315D01*
X44921Y-40334D01*
X44940Y-40353D01*
X44959Y-40390D01*
X44959Y-40428D01*
X44940Y-40484D01*
X44715Y-40709D01*
X44959Y-40709D01*
X45128Y-40503D02*
X45259Y-40503D01*
X45315Y-40709D02*
X45128Y-40709D01*
X45128Y-40315D01*
X45315Y-40315D01*
X45559Y-40315D02*
X45596Y-40315D01*
X45634Y-40334D01*
X45652Y-40353D01*
X45671Y-40390D01*
X45690Y-40465D01*
X45690Y-40559D01*
X45671Y-40634D01*
X45652Y-40671D01*
X45634Y-40690D01*
X45596Y-40709D01*
X45559Y-40709D01*
X45521Y-40690D01*
X45502Y-40671D01*
X45484Y-40634D01*
X45465Y-40559D01*
X45465Y-40465D01*
X45484Y-40390D01*
X45502Y-40353D01*
X45521Y-40334D01*
X45559Y-40315D01*
X45915Y-40484D02*
X45877Y-40465D01*
X45859Y-40446D01*
X45840Y-40409D01*
X45840Y-40390D01*
X45859Y-40353D01*
X45877Y-40334D01*
X45915Y-40315D01*
X45990Y-40315D01*
X46027Y-40334D01*
X46046Y-40353D01*
X46065Y-40390D01*
X46065Y-40409D01*
X46046Y-40446D01*
X46027Y-40465D01*
X45990Y-40484D01*
X45915Y-40484D01*
X45877Y-40503D01*
X45859Y-40521D01*
X45840Y-40559D01*
X45840Y-40634D01*
X45859Y-40671D01*
X45877Y-40690D01*
X45915Y-40709D01*
X45990Y-40709D01*
X46027Y-40690D01*
X46046Y-40671D01*
X46065Y-40634D01*
X46065Y-40559D01*
X46046Y-40521D01*
X46027Y-40503D01*
X45990Y-40484D01*
X46488Y-34751D02*
X46488Y-34751D01*
X46488Y-33751D02*
X46488Y-34751D01*
X46488Y-34751D02*
X46488Y-34751D01*
X46488Y-34751D02*
X42488Y-34751D01*
X42488Y-34751D02*
X42488Y-33751D01*
X42488Y-33751D02*
X46488Y-33751D01*
X45488Y-33751D02*
X45488Y-34751D01*
X43070Y-41003D02*
G75*
G03X43070Y-41003I-196J0D01*
G74*
G01*
X46299Y-41003D02*
G75*
G03X46299Y-41003I-196J0D01*
G74*
G01*
X46299Y-36988D02*
G75*
G03X46299Y-36988I-196J0D01*
G74*
G01*
X43070Y-36988D02*
G75*
G03X43070Y-36988I-196J0D01*
G74*
G01*
X42047Y-41259D02*
X42047Y-36692D01*
X46929Y-36692D02*
X46929Y-41259D01*
X42362Y-36377D02*
X46614Y-36377D01*
X42362Y-41574D02*
X46614Y-41574D01*
X42362Y-36377D02*
G75*
G03X42047Y-36692I0J-314D01*
G74*
G01*
X42047Y-41259D02*
G75*
G03X42362Y-41574I314J0D01*
G74*
G01*
X46614Y-41574D02*
G75*
G03X46929Y-41259I0J314D01*
G74*
G01*
X46929Y-36692D02*
G75*
G03X46614Y-36377I-314J0D01*
G74*
G01*
X43464Y-38385D02*
X45511Y-38385D01*
X45669Y-38976D02*
G75*
G03X45669Y-38976I-1181J0D01*
G74*
G01*
G54D13*
G36*
X48285Y-37006D02*
X48302Y-37004D01*
X48318Y-36999D01*
X48325Y-36995D01*
X48339Y-36985D01*
X48350Y-36973D01*
X48359Y-36959D01*
X48365Y-36943D01*
X48367Y-36927D01*
X48367Y-36910D01*
X48363Y-36894D01*
X48355Y-36878D01*
X48350Y-36871D01*
X48343Y-36863D01*
X48336Y-36856D01*
X48328Y-36851D01*
X48326Y-36849D01*
X48312Y-36843D01*
X48297Y-36839D01*
X48280Y-36838D01*
X48274Y-36839D01*
X48265Y-36840D01*
X48257Y-36842D01*
X48248Y-36846D01*
X48238Y-36851D01*
X48224Y-36862D01*
X48213Y-36875D01*
X48205Y-36891D01*
X48202Y-36898D01*
X48200Y-36906D01*
X48199Y-36913D01*
X48199Y-36914D01*
X48199Y-36914D01*
X48198Y-36911D01*
X48198Y-36910D01*
X48196Y-36899D01*
X48192Y-36888D01*
X48187Y-36878D01*
X48177Y-36866D01*
X48164Y-36854D01*
X48150Y-36845D01*
X48133Y-36840D01*
X48115Y-36838D01*
X48111Y-36838D01*
X48097Y-36840D01*
X48085Y-36843D01*
X48082Y-36844D01*
X48068Y-36852D01*
X48055Y-36863D01*
X48045Y-36875D01*
X48037Y-36890D01*
X48032Y-36905D01*
X48032Y-36905D01*
X48031Y-36909D01*
X48031Y-36911D01*
X48031Y-36911D01*
X48031Y-36909D01*
X48030Y-36905D01*
X48029Y-36903D01*
X48024Y-36888D01*
X48016Y-36874D01*
X48005Y-36861D01*
X47995Y-36853D01*
X47981Y-36845D01*
X47965Y-36840D01*
X47947Y-36838D01*
X47934Y-36839D01*
X47917Y-36843D01*
X47902Y-36851D01*
X47889Y-36862D01*
X47877Y-36875D01*
X47876Y-36877D01*
X47872Y-36883D01*
X47870Y-36888D01*
X47868Y-36892D01*
X47866Y-36900D01*
X47864Y-36907D01*
X47863Y-36913D01*
X47863Y-36914D01*
X47863Y-36914D01*
X47862Y-36910D01*
X47860Y-36901D01*
X47856Y-36889D01*
X47851Y-36879D01*
X47841Y-36866D01*
X47828Y-36854D01*
X47813Y-36845D01*
X47797Y-36840D01*
X47779Y-36838D01*
X47763Y-36839D01*
X47747Y-36844D01*
X47732Y-36852D01*
X47718Y-36864D01*
X47712Y-36871D01*
X47705Y-36880D01*
X47700Y-36891D01*
X47697Y-36900D01*
X47695Y-36917D01*
X47695Y-36933D01*
X47699Y-36949D01*
X47705Y-36964D01*
X47715Y-36977D01*
X47726Y-36988D01*
X47740Y-36997D01*
X47755Y-37003D01*
X47772Y-37006D01*
X47774Y-37006D01*
X47791Y-37005D01*
X47807Y-37002D01*
X47823Y-36994D01*
X47828Y-36991D01*
X47839Y-36981D01*
X47849Y-36969D01*
X47856Y-36956D01*
X47858Y-36951D01*
X47860Y-36944D01*
X47862Y-36937D01*
X47863Y-36931D01*
X47863Y-36928D01*
X47863Y-36931D01*
X47864Y-36934D01*
X47865Y-36941D01*
X47868Y-36950D01*
X47870Y-36957D01*
X47874Y-36964D01*
X47885Y-36978D01*
X47897Y-36990D01*
X47912Y-36999D01*
X47929Y-37005D01*
X47932Y-37005D01*
X47944Y-37006D01*
X47956Y-37006D01*
X47967Y-37004D01*
X47978Y-37001D01*
X47994Y-36992D01*
X48008Y-36981D01*
X48009Y-36980D01*
X48018Y-36968D01*
X48025Y-36954D01*
X48030Y-36940D01*
X48030Y-36939D01*
X48031Y-36935D01*
X48031Y-36933D01*
X48031Y-36934D01*
X48032Y-36938D01*
X48032Y-36939D01*
X48034Y-36948D01*
X48038Y-36957D01*
X48043Y-36967D01*
X48051Y-36977D01*
X48063Y-36989D01*
X48078Y-36998D01*
X48095Y-37004D01*
X48098Y-37005D01*
X48109Y-37006D01*
X48121Y-37006D01*
X48132Y-37005D01*
X48142Y-37002D01*
X48157Y-36995D01*
X48171Y-36984D01*
X48183Y-36972D01*
X48192Y-36957D01*
X48194Y-36952D01*
X48196Y-36944D01*
X48198Y-36937D01*
X48199Y-36931D01*
X48199Y-36930D01*
X48199Y-36930D01*
X48200Y-36934D01*
X48200Y-36934D01*
X48202Y-36945D01*
X48206Y-36956D01*
X48211Y-36966D01*
X48214Y-36969D01*
X48224Y-36982D01*
X48238Y-36993D01*
X48252Y-37001D01*
X48268Y-37005D01*
X48285Y-37006D01*
X48285Y-37006D01*
G37*
G36*
X47605Y-36838D02*
X47615Y-36838D01*
X47625Y-36837D01*
X47636Y-36834D01*
X47652Y-36827D01*
X47666Y-36817D01*
X47678Y-36804D01*
X47686Y-36790D01*
X47692Y-36774D01*
X47694Y-36756D01*
X47693Y-36739D01*
X47689Y-36723D01*
X47681Y-36708D01*
X47671Y-36695D01*
X47657Y-36684D01*
X47653Y-36681D01*
X47637Y-36673D01*
X47620Y-36670D01*
X47602Y-36670D01*
X47585Y-36673D01*
X47571Y-36679D01*
X47556Y-36689D01*
X47544Y-36701D01*
X47535Y-36716D01*
X47528Y-36733D01*
X47527Y-36741D01*
X47526Y-36752D01*
X47526Y-36763D01*
X47528Y-36772D01*
X47529Y-36775D01*
X47535Y-36792D01*
X47545Y-36807D01*
X47558Y-36820D01*
X47573Y-36829D01*
X47580Y-36832D01*
X47590Y-36836D01*
X47599Y-36837D01*
X47605Y-36838D01*
X47605Y-36838D01*
G37*
G36*
X48454Y-36838D02*
X48471Y-36836D01*
X48488Y-36830D01*
X48503Y-36820D01*
X48507Y-36818D01*
X48518Y-36805D01*
X48528Y-36791D01*
X48534Y-36774D01*
X48535Y-36766D01*
X48536Y-36755D01*
X48536Y-36744D01*
X48534Y-36735D01*
X48533Y-36731D01*
X48526Y-36714D01*
X48517Y-36700D01*
X48505Y-36688D01*
X48490Y-36679D01*
X48474Y-36672D01*
X48456Y-36669D01*
X48450Y-36669D01*
X48433Y-36671D01*
X48417Y-36677D01*
X48403Y-36685D01*
X48391Y-36696D01*
X48381Y-36709D01*
X48373Y-36724D01*
X48369Y-36740D01*
X48368Y-36757D01*
X48369Y-36768D01*
X48371Y-36777D01*
X48374Y-36787D01*
X48381Y-36800D01*
X48392Y-36813D01*
X48405Y-36824D01*
X48420Y-36832D01*
X48436Y-36837D01*
X48454Y-36838D01*
X48454Y-36838D01*
G37*
G36*
X47437Y-36669D02*
X47449Y-36669D01*
X47459Y-36668D01*
X47471Y-36664D01*
X47487Y-36656D01*
X47501Y-36645D01*
X47510Y-36634D01*
X47519Y-36620D01*
X47524Y-36603D01*
X47525Y-36596D01*
X47526Y-36586D01*
X47525Y-36576D01*
X47524Y-36568D01*
X47523Y-36562D01*
X47516Y-36546D01*
X47507Y-36531D01*
X47494Y-36519D01*
X47479Y-36510D01*
X47473Y-36507D01*
X47462Y-36503D01*
X47451Y-36501D01*
X47439Y-36501D01*
X47431Y-36502D01*
X47422Y-36503D01*
X47413Y-36505D01*
X47404Y-36510D01*
X47399Y-36512D01*
X47385Y-36523D01*
X47373Y-36536D01*
X47364Y-36551D01*
X47359Y-36568D01*
X47358Y-36572D01*
X47357Y-36582D01*
X47358Y-36593D01*
X47359Y-36602D01*
X47360Y-36608D01*
X47367Y-36624D01*
X47376Y-36639D01*
X47389Y-36651D01*
X47404Y-36660D01*
X47421Y-36667D01*
X47426Y-36668D01*
X47437Y-36669D01*
X47437Y-36669D01*
G37*
G36*
X48113Y-36669D02*
X48130Y-36668D01*
X48146Y-36664D01*
X48155Y-36659D01*
X48169Y-36649D01*
X48181Y-36637D01*
X48191Y-36622D01*
X48196Y-36605D01*
X48197Y-36602D01*
X48199Y-36588D01*
X48199Y-36575D01*
X48195Y-36561D01*
X48189Y-36544D01*
X48179Y-36530D01*
X48166Y-36518D01*
X48151Y-36509D01*
X48134Y-36503D01*
X48123Y-36500D01*
X48129Y-36500D01*
X48130Y-36499D01*
X48142Y-36496D01*
X48155Y-36491D01*
X48166Y-36483D01*
X48168Y-36481D01*
X48181Y-36469D01*
X48190Y-36455D01*
X48196Y-36439D01*
X48199Y-36423D01*
X48198Y-36407D01*
X48195Y-36390D01*
X48187Y-36375D01*
X48187Y-36374D01*
X48177Y-36360D01*
X48164Y-36349D01*
X48150Y-36341D01*
X48134Y-36336D01*
X48118Y-36333D01*
X48102Y-36334D01*
X48086Y-36338D01*
X48071Y-36346D01*
X48057Y-36356D01*
X48049Y-36364D01*
X48041Y-36377D01*
X48035Y-36390D01*
X48032Y-36402D01*
X48031Y-36405D01*
X48031Y-36407D01*
X48031Y-36406D01*
X48030Y-36402D01*
X48027Y-36391D01*
X48022Y-36379D01*
X48015Y-36368D01*
X48011Y-36362D01*
X47998Y-36350D01*
X47984Y-36341D01*
X47967Y-36336D01*
X47950Y-36333D01*
X47933Y-36334D01*
X47923Y-36337D01*
X47906Y-36344D01*
X47892Y-36354D01*
X47880Y-36366D01*
X47871Y-36381D01*
X47865Y-36397D01*
X47864Y-36406D01*
X47863Y-36422D01*
X47866Y-36439D01*
X47872Y-36455D01*
X47882Y-36469D01*
X47894Y-36481D01*
X47909Y-36491D01*
X47915Y-36494D01*
X47923Y-36497D01*
X47930Y-36499D01*
X47936Y-36500D01*
X47937Y-36500D01*
X47936Y-36501D01*
X47933Y-36502D01*
X47924Y-36504D01*
X47913Y-36508D01*
X47903Y-36513D01*
X47898Y-36516D01*
X47887Y-36526D01*
X47877Y-36538D01*
X47870Y-36551D01*
X47865Y-36565D01*
X47863Y-36580D01*
X47863Y-36595D01*
X47864Y-36598D01*
X47869Y-36615D01*
X47876Y-36631D01*
X47888Y-36645D01*
X47897Y-36653D01*
X47912Y-36662D01*
X47929Y-36668D01*
X47936Y-36668D01*
X47945Y-36669D01*
X47954Y-36668D01*
X47963Y-36668D01*
X47970Y-36666D01*
X47976Y-36665D01*
X47992Y-36656D01*
X48006Y-36645D01*
X48017Y-36632D01*
X48021Y-36625D01*
X48027Y-36614D01*
X48030Y-36603D01*
X48030Y-36602D01*
X48031Y-36598D01*
X48031Y-36596D01*
X48031Y-36596D01*
X48031Y-36574D01*
X48031Y-36574D01*
X48031Y-36572D01*
X48030Y-36568D01*
X48030Y-36566D01*
X48025Y-36551D01*
X48016Y-36537D01*
X48006Y-36525D01*
X47993Y-36514D01*
X47979Y-36507D01*
X47978Y-36506D01*
X47970Y-36504D01*
X47963Y-36502D01*
X47956Y-36501D01*
X47963Y-36499D01*
X47973Y-36497D01*
X47988Y-36490D01*
X48002Y-36481D01*
X48013Y-36469D01*
X48022Y-36455D01*
X48026Y-36448D01*
X48029Y-36439D01*
X48030Y-36432D01*
X48031Y-36429D01*
X48031Y-36427D01*
X48031Y-36428D01*
X48032Y-36432D01*
X48033Y-36438D01*
X48036Y-36447D01*
X48040Y-36455D01*
X48045Y-36464D01*
X48056Y-36476D01*
X48069Y-36487D01*
X48084Y-36495D01*
X48099Y-36499D01*
X48107Y-36501D01*
X48099Y-36502D01*
X48098Y-36502D01*
X48091Y-36504D01*
X48083Y-36507D01*
X48082Y-36507D01*
X48068Y-36515D01*
X48055Y-36526D01*
X48045Y-36538D01*
X48037Y-36553D01*
X48032Y-36567D01*
X48032Y-36568D01*
X48031Y-36572D01*
X48031Y-36574D01*
X48031Y-36596D01*
X48031Y-36596D01*
X48031Y-36598D01*
X48032Y-36603D01*
X48035Y-36613D01*
X48042Y-36628D01*
X48053Y-36642D01*
X48065Y-36653D01*
X48080Y-36662D01*
X48080Y-36662D01*
X48096Y-36667D01*
X48113Y-36669D01*
X48113Y-36669D01*
G37*
G36*
X48614Y-36669D02*
X48628Y-36669D01*
X48640Y-36667D01*
X48648Y-36665D01*
X48664Y-36657D01*
X48678Y-36647D01*
X48689Y-36634D01*
X48698Y-36619D01*
X48703Y-36603D01*
X48705Y-36585D01*
X48704Y-36578D01*
X48701Y-36561D01*
X48694Y-36544D01*
X48684Y-36529D01*
X48681Y-36526D01*
X48669Y-36516D01*
X48655Y-36508D01*
X48640Y-36503D01*
X48640Y-36503D01*
X48627Y-36501D01*
X48613Y-36501D01*
X48601Y-36503D01*
X48596Y-36504D01*
X48580Y-36511D01*
X48566Y-36520D01*
X48555Y-36532D01*
X48546Y-36546D01*
X48539Y-36561D01*
X48536Y-36578D01*
X48537Y-36595D01*
X48540Y-36612D01*
X48546Y-36625D01*
X48556Y-36639D01*
X48568Y-36651D01*
X48583Y-36660D01*
X48599Y-36667D01*
X48601Y-36667D01*
X48614Y-36669D01*
X48614Y-36669D01*
G37*
G36*
X47781Y-36165D02*
X47798Y-36163D01*
X47814Y-36157D01*
X47822Y-36153D01*
X47829Y-36148D01*
X47837Y-36141D01*
X47846Y-36131D01*
X47855Y-36117D01*
X47861Y-36101D01*
X47862Y-36096D01*
X47863Y-36085D01*
X47863Y-36073D01*
X47861Y-36063D01*
X47857Y-36049D01*
X47849Y-36034D01*
X47839Y-36021D01*
X47837Y-36019D01*
X47829Y-36013D01*
X47820Y-36007D01*
X47812Y-36003D01*
X47809Y-36002D01*
X47802Y-35999D01*
X47795Y-35998D01*
X47790Y-35997D01*
X47787Y-35997D01*
X47790Y-35996D01*
X47794Y-35995D01*
X47800Y-35994D01*
X47806Y-35992D01*
X47818Y-35986D01*
X47831Y-35978D01*
X47841Y-35969D01*
X47842Y-35967D01*
X47853Y-35953D01*
X47859Y-35937D01*
X47863Y-35920D01*
X47863Y-35903D01*
X47862Y-35899D01*
X47857Y-35882D01*
X47849Y-35866D01*
X47838Y-35852D01*
X47828Y-35843D01*
X47813Y-35835D01*
X47797Y-35829D01*
X47793Y-35829D01*
X47782Y-35828D01*
X47770Y-35828D01*
X47759Y-35830D01*
X47750Y-35833D01*
X47734Y-35840D01*
X47721Y-35851D01*
X47710Y-35863D01*
X47701Y-35878D01*
X47696Y-35894D01*
X47696Y-35896D01*
X47695Y-35900D01*
X47694Y-35902D01*
X47694Y-35900D01*
X47693Y-35896D01*
X47691Y-35889D01*
X47689Y-35882D01*
X47686Y-35875D01*
X47683Y-35870D01*
X47673Y-35856D01*
X47660Y-35844D01*
X47645Y-35835D01*
X47629Y-35830D01*
X47611Y-35828D01*
X47597Y-35829D01*
X47581Y-35833D01*
X47566Y-35840D01*
X47557Y-35846D01*
X47545Y-35858D01*
X47536Y-35873D01*
X47529Y-35888D01*
X47526Y-35905D01*
X47526Y-35922D01*
X47530Y-35937D01*
X47537Y-35954D01*
X47547Y-35968D01*
X47560Y-35979D01*
X47575Y-35988D01*
X47592Y-35994D01*
X47602Y-35997D01*
X47596Y-35997D01*
X47593Y-35998D01*
X47579Y-36002D01*
X47566Y-36009D01*
X47554Y-36018D01*
X47544Y-36028D01*
X47538Y-36037D01*
X47532Y-36049D01*
X47528Y-36060D01*
X47527Y-36069D01*
X47526Y-36079D01*
X47526Y-36090D01*
X47528Y-36099D01*
X47531Y-36109D01*
X47539Y-36125D01*
X47549Y-36139D01*
X47563Y-36150D01*
X47578Y-36158D01*
X47596Y-36164D01*
X47600Y-36164D01*
X47611Y-36165D01*
X47622Y-36164D01*
X47631Y-36162D01*
X47638Y-36160D01*
X47654Y-36152D01*
X47668Y-36142D01*
X47679Y-36129D01*
X47688Y-36114D01*
X47693Y-36097D01*
X47693Y-36096D01*
X47694Y-36092D01*
X47695Y-36092D01*
X47695Y-36069D01*
X47694Y-36068D01*
X47693Y-36065D01*
X47693Y-36064D01*
X47690Y-36053D01*
X47685Y-36041D01*
X47678Y-36030D01*
X47673Y-36024D01*
X47660Y-36012D01*
X47644Y-36003D01*
X47627Y-35998D01*
X47619Y-35996D01*
X47625Y-35995D01*
X47630Y-35994D01*
X47635Y-35992D01*
X47639Y-35991D01*
X47654Y-35984D01*
X47668Y-35973D01*
X47679Y-35961D01*
X47687Y-35946D01*
X47693Y-35930D01*
X47693Y-35926D01*
X47694Y-35923D01*
X47695Y-35925D01*
X47696Y-35930D01*
X47696Y-35930D01*
X47699Y-35939D01*
X47703Y-35949D01*
X47708Y-35958D01*
X47713Y-35964D01*
X47720Y-35972D01*
X47729Y-35980D01*
X47737Y-35985D01*
X47737Y-35985D01*
X47750Y-35991D01*
X47764Y-35995D01*
X47770Y-35996D01*
X47763Y-35997D01*
X47748Y-36002D01*
X47733Y-36010D01*
X47720Y-36020D01*
X47709Y-36033D01*
X47706Y-36037D01*
X47702Y-36045D01*
X47699Y-36054D01*
X47696Y-36062D01*
X47695Y-36067D01*
X47695Y-36067D01*
X47695Y-36069D01*
X47695Y-36092D01*
X47695Y-36092D01*
X47696Y-36096D01*
X47697Y-36101D01*
X47698Y-36106D01*
X47702Y-36115D01*
X47710Y-36130D01*
X47721Y-36142D01*
X47734Y-36152D01*
X47749Y-36159D01*
X47765Y-36164D01*
X47781Y-36165D01*
X47781Y-36165D01*
G37*
G36*
X48288Y-36165D02*
X48304Y-36162D01*
X48320Y-36156D01*
X48334Y-36147D01*
X48347Y-36136D01*
X48356Y-36122D01*
X48364Y-36106D01*
X48365Y-36101D01*
X48366Y-36096D01*
X48366Y-36095D01*
X48367Y-36092D01*
X48367Y-36092D01*
X48367Y-36069D01*
X48367Y-36066D01*
X48365Y-36060D01*
X48362Y-36051D01*
X48355Y-36036D01*
X48344Y-36022D01*
X48332Y-36011D01*
X48317Y-36003D01*
X48300Y-35998D01*
X48292Y-35996D01*
X48298Y-35995D01*
X48299Y-35995D01*
X48312Y-35991D01*
X48325Y-35985D01*
X48331Y-35982D01*
X48339Y-35975D01*
X48347Y-35966D01*
X48354Y-35958D01*
X48358Y-35951D01*
X48363Y-35940D01*
X48366Y-35930D01*
X48367Y-35926D01*
X48367Y-35923D01*
X48368Y-35925D01*
X48369Y-35930D01*
X48373Y-35941D01*
X48380Y-35956D01*
X48391Y-35970D01*
X48404Y-35981D01*
X48420Y-35990D01*
X48437Y-35995D01*
X48443Y-35996D01*
X48435Y-35998D01*
X48427Y-36000D01*
X48411Y-36007D01*
X48396Y-36017D01*
X48384Y-36030D01*
X48381Y-36035D01*
X48376Y-36043D01*
X48373Y-36052D01*
X48371Y-36058D01*
X48369Y-36064D01*
X48369Y-36064D01*
X48368Y-36068D01*
X48367Y-36069D01*
X48367Y-36092D01*
X48368Y-36093D01*
X48369Y-36097D01*
X48370Y-36103D01*
X48375Y-36115D01*
X48382Y-36127D01*
X48387Y-36134D01*
X48399Y-36146D01*
X48414Y-36156D01*
X48431Y-36162D01*
X48439Y-36164D01*
X48450Y-36164D01*
X48462Y-36164D01*
X48473Y-36162D01*
X48474Y-36162D01*
X48491Y-36155D01*
X48505Y-36145D01*
X48518Y-36133D01*
X48527Y-36118D01*
X48534Y-36101D01*
X48535Y-36094D01*
X48536Y-36082D01*
X48535Y-36070D01*
X48534Y-36060D01*
X48531Y-36051D01*
X48525Y-36039D01*
X48518Y-36028D01*
X48510Y-36020D01*
X48500Y-36011D01*
X48489Y-36005D01*
X48485Y-36003D01*
X48477Y-36000D01*
X48469Y-35998D01*
X48463Y-35997D01*
X48463Y-35997D01*
X48465Y-35996D01*
X48470Y-35994D01*
X48479Y-35991D01*
X48490Y-35987D01*
X48500Y-35982D01*
X48501Y-35980D01*
X48512Y-35970D01*
X48522Y-35958D01*
X48529Y-35946D01*
X48532Y-35940D01*
X48535Y-35923D01*
X48536Y-35905D01*
X48533Y-35888D01*
X48532Y-35885D01*
X48525Y-35869D01*
X48514Y-35855D01*
X48501Y-35844D01*
X48486Y-35835D01*
X48470Y-35829D01*
X48467Y-35829D01*
X48456Y-35828D01*
X48443Y-35828D01*
X48432Y-35830D01*
X48430Y-35830D01*
X48413Y-35837D01*
X48398Y-35847D01*
X48386Y-35859D01*
X48376Y-35875D01*
X48374Y-35880D01*
X48371Y-35887D01*
X48369Y-35894D01*
X48368Y-35900D01*
X48368Y-35901D01*
X48368Y-35902D01*
X48367Y-35899D01*
X48366Y-35895D01*
X48363Y-35883D01*
X48356Y-35868D01*
X48345Y-35855D01*
X48333Y-35844D01*
X48318Y-35835D01*
X48318Y-35835D01*
X48302Y-35830D01*
X48285Y-35828D01*
X48268Y-35829D01*
X48252Y-35833D01*
X48243Y-35838D01*
X48229Y-35848D01*
X48217Y-35860D01*
X48207Y-35875D01*
X48202Y-35891D01*
X48201Y-35895D01*
X48199Y-35909D01*
X48199Y-35922D01*
X48203Y-35937D01*
X48210Y-35953D01*
X48220Y-35968D01*
X48233Y-35979D01*
X48248Y-35988D01*
X48265Y-35994D01*
X48269Y-35995D01*
X48272Y-35996D01*
X48272Y-35997D01*
X48267Y-35997D01*
X48257Y-36000D01*
X48247Y-36005D01*
X48237Y-36010D01*
X48227Y-36017D01*
X48216Y-36030D01*
X48207Y-36046D01*
X48205Y-36048D01*
X48200Y-36065D01*
X48199Y-36082D01*
X48201Y-36099D01*
X48207Y-36115D01*
X48210Y-36123D01*
X48216Y-36131D01*
X48223Y-36139D01*
X48223Y-36139D01*
X48237Y-36151D01*
X48252Y-36159D01*
X48269Y-36164D01*
X48271Y-36164D01*
X48288Y-36165D01*
X48288Y-36165D01*
G37*
G54D11*
X48897Y-34645D02*
G75*
G03X48897Y-34645I-866J0D01*
G74*
G01*
X41811Y-41732D02*
G75*
G03X41811Y-41732I-866J0D01*
G74*
G01*
X41811Y-34645D02*
G75*
G03X41811Y-34645I-866J0D01*
G74*
G01*
X48897Y-41732D02*
G75*
G03X48897Y-41732I-866J0D01*
G74*
G01*
G54D14*
X44242Y-35374D02*
X44242Y-35767D01*
X44734Y-35374D02*
X44734Y-35767D01*
X44734Y-35767D02*
X44734Y-35964D01*
X44242Y-35964D02*
X44242Y-35767D01*
X44734Y-35177D02*
X44734Y-35374D01*
X44242Y-35177D02*
X44242Y-35374D01*
X44734Y-35374D02*
X44242Y-35374D01*
X44242Y-35767D02*
X44734Y-35767D01*
X44734Y-35964D02*
X44625Y-35964D01*
X44350Y-35964D02*
X44242Y-35964D01*
X44242Y-35177D02*
X44350Y-35177D01*
X44734Y-35177D02*
X44625Y-35177D01*
X44527Y-35610D02*
X44449Y-35610D01*
X44449Y-35610D02*
X44449Y-35688D01*
X44527Y-35688D02*
X44449Y-35688D01*
X44527Y-35610D02*
X44527Y-35688D01*
X44625Y-35963D02*
G75*
G03X44351Y-35963I-137J0D01*
G74*
G01*
X44351Y-35177D02*
G75*
G03X44625Y-35177I137J0D01*
G74*
G01*
G54D11*
X44246Y-36959D02*
X44059Y-36959D01*
X44059Y-36565D01*
X44378Y-36753D02*
X44509Y-36753D01*
X44565Y-36959D02*
X44378Y-36959D01*
X44378Y-36565D01*
X44565Y-36565D01*
X44734Y-36959D02*
X44734Y-36565D01*
X44828Y-36565D01*
X44884Y-36584D01*
X44921Y-36621D01*
X44940Y-36659D01*
X44959Y-36734D01*
X44959Y-36790D01*
X44940Y-36865D01*
X44921Y-36903D01*
X44884Y-36940D01*
X44828Y-36959D01*
X44734Y-36959D01*
%LPC*%
G54D15*
X41338Y-36220D03*
G54D16*
X40551Y-36220D03*
X41338Y-37007D03*
X40551Y-37007D03*
X41338Y-37795D03*
X40551Y-37795D03*
G54D17*
X45988Y-34251D03*
G54D18*
X44988Y-34251D03*
X43988Y-34251D03*
X42988Y-34251D03*
G54D19*
X43503Y-41929D03*
X45472Y-41929D03*
X44488Y-41929D03*
X45472Y-36220D03*
X43503Y-36220D03*
G54D20*
X46929Y-38976D03*
G54D21*
X42047Y-38976D03*
G54D22*
X48031Y-34645D03*
X40944Y-41732D03*
X40944Y-34645D03*
X48031Y-41732D03*
G54D23*
X44488Y-35157D03*
X44488Y-35983D03*
M02*
