G04 (created by PCBNEW (2013-03-01 BZR 3980)-testing) date Sat 02 Mar 2013 03:13:08 PM CET*
%MOIN*%
G04 Gerber Fmt 3.4, Leading zero omitted, Abs format*
%FSLAX34Y34*%
G01*
G70*
G90*
G04 APERTURE LIST*
%ADD10C,3.14961e-06*%
%ADD11C,0.00787402*%
%ADD12C,0.0019685*%
%ADD13C,0.00393701*%
%ADD14C,0.0026*%
%ADD15C,0.002*%
%ADD16C,0.004*%
%ADD17C,0.00590551*%
%ADD18C,0.0688976*%
%ADD19O,0.167323X0.167323*%
%ADD20C,0.0984252*%
%ADD21R,0.0511811X0.0511811*%
%ADD22C,0.0511811*%
%ADD23R,0.0649606X0.0649606*%
%ADD24C,0.0649606*%
%ADD25R,0.0275591X0.0866142*%
%ADD26R,0.059X0.0511*%
%ADD27R,0.0393701X0.0255906*%
%ADD28R,0.0393701X0.019685*%
G04 APERTURE END LIST*
G54D10*
G54D11*
X45359Y-38696D02*
X45209Y-38696D01*
X45303Y-38564D02*
X45303Y-38902D01*
X45284Y-38939D01*
X45247Y-38958D01*
X45209Y-38958D01*
X45078Y-38958D02*
X45078Y-38696D01*
X45078Y-38564D02*
X45097Y-38583D01*
X45078Y-38602D01*
X45059Y-38583D01*
X45078Y-38564D01*
X45078Y-38602D01*
X44891Y-38696D02*
X44891Y-38958D01*
X44891Y-38733D02*
X44872Y-38714D01*
X44835Y-38696D01*
X44778Y-38696D01*
X44741Y-38714D01*
X44722Y-38752D01*
X44722Y-38958D01*
X44572Y-38696D02*
X44478Y-38958D01*
X44385Y-38696D02*
X44478Y-38958D01*
X44516Y-39052D01*
X44535Y-39071D01*
X44572Y-39089D01*
X44066Y-38696D02*
X44066Y-38958D01*
X44160Y-38546D02*
X44253Y-38827D01*
X44010Y-38827D01*
X43672Y-38564D02*
X43860Y-38564D01*
X43878Y-38752D01*
X43860Y-38733D01*
X43822Y-38714D01*
X43728Y-38714D01*
X43691Y-38733D01*
X43672Y-38752D01*
X43653Y-38789D01*
X43653Y-38883D01*
X43672Y-38921D01*
X43691Y-38939D01*
X43728Y-38958D01*
X43822Y-38958D01*
X43860Y-38939D01*
X43878Y-38921D01*
X42106Y-40610D02*
X42224Y-40610D01*
X41633Y-41062D02*
X42106Y-40610D01*
X41633Y-41062D02*
X41870Y-41003D01*
X41633Y-41062D02*
X41692Y-40826D01*
X43035Y-40789D02*
X43035Y-40395D01*
X42904Y-40676D01*
X42772Y-40395D01*
X42772Y-40789D01*
X42604Y-40433D02*
X42585Y-40414D01*
X42547Y-40395D01*
X42454Y-40395D01*
X42416Y-40414D01*
X42397Y-40433D01*
X42379Y-40470D01*
X42379Y-40508D01*
X42397Y-40564D01*
X42622Y-40789D01*
X42379Y-40789D01*
X45834Y-35284D02*
X46134Y-35284D01*
X44850Y-35284D02*
X45149Y-35284D01*
X45000Y-35434D02*
X45000Y-35134D01*
X42797Y-34975D02*
X42797Y-35200D01*
X43190Y-35088D02*
X42797Y-35088D01*
X42797Y-35294D02*
X43190Y-35556D01*
X42797Y-35556D02*
X43190Y-35294D01*
X44175Y-34960D02*
X43781Y-34960D01*
X43781Y-35054D01*
X43800Y-35110D01*
X43837Y-35148D01*
X43875Y-35166D01*
X43950Y-35185D01*
X44006Y-35185D01*
X44081Y-35166D01*
X44118Y-35148D01*
X44156Y-35110D01*
X44175Y-35054D01*
X44175Y-34960D01*
X44175Y-35354D02*
X43781Y-35354D01*
X44175Y-35766D02*
X43987Y-35635D01*
X44175Y-35541D02*
X43781Y-35541D01*
X43781Y-35691D01*
X43800Y-35729D01*
X43818Y-35748D01*
X43856Y-35766D01*
X43912Y-35766D01*
X43950Y-35748D01*
X43968Y-35729D01*
X43987Y-35691D01*
X43987Y-35541D01*
X48129Y-33562D02*
X40846Y-33562D01*
X49114Y-41830D02*
X49114Y-34547D01*
X40846Y-42814D02*
X48129Y-42814D01*
X39862Y-34547D02*
X39862Y-41830D01*
X39862Y-41830D02*
G75*
G03X40846Y-42814I984J0D01*
G74*
G01*
X48129Y-42814D02*
G75*
G03X49114Y-41830I0J984D01*
G74*
G01*
X49114Y-34547D02*
G75*
G03X48129Y-33562I-984J0D01*
G74*
G01*
X40846Y-33562D02*
G75*
G03X39862Y-34547I0J-984D01*
G74*
G01*
X48897Y-41732D02*
G75*
G03X48897Y-41732I-866J0D01*
G74*
G01*
X41811Y-41732D02*
G75*
G03X41811Y-41732I-866J0D01*
G74*
G01*
X41811Y-34645D02*
G75*
G03X41811Y-34645I-866J0D01*
G74*
G01*
X48899Y-34645D02*
G75*
G03X48899Y-34645I-868J0D01*
G74*
G01*
G54D12*
X41082Y-37696D02*
X41082Y-37893D01*
X41082Y-37893D02*
X41279Y-37893D01*
X41279Y-37893D02*
X41279Y-37696D01*
X41279Y-37696D02*
X41082Y-37696D01*
X41082Y-36909D02*
X41082Y-37106D01*
X41082Y-37106D02*
X41279Y-37106D01*
X41279Y-37106D02*
X41279Y-36909D01*
X41279Y-36909D02*
X41082Y-36909D01*
X41082Y-36122D02*
X41082Y-36318D01*
X41082Y-36318D02*
X41279Y-36318D01*
X41279Y-36318D02*
X41279Y-36122D01*
X41279Y-36122D02*
X41082Y-36122D01*
X40295Y-37696D02*
X40295Y-37893D01*
X40295Y-37893D02*
X40492Y-37893D01*
X40492Y-37893D02*
X40492Y-37696D01*
X40492Y-37696D02*
X40295Y-37696D01*
X40295Y-36909D02*
X40295Y-37106D01*
X40295Y-37106D02*
X40492Y-37106D01*
X40492Y-37106D02*
X40492Y-36909D01*
X40492Y-36909D02*
X40295Y-36909D01*
X40295Y-36122D02*
X40295Y-36318D01*
X40295Y-36318D02*
X40492Y-36318D01*
X40492Y-36318D02*
X40492Y-36122D01*
X40492Y-36122D02*
X40295Y-36122D01*
G54D11*
X41574Y-35629D02*
G75*
G03X41574Y-35629I-98J0D01*
G74*
G01*
X40000Y-35826D02*
X40000Y-38188D01*
X40000Y-38188D02*
X41574Y-38188D01*
X41574Y-38188D02*
X41574Y-35826D01*
X41574Y-35826D02*
X40000Y-35826D01*
X45488Y-34751D02*
X45488Y-33751D01*
X46488Y-34751D02*
X42488Y-34751D01*
X42488Y-34751D02*
X42488Y-33751D01*
X42488Y-33751D02*
X46488Y-33751D01*
X46488Y-33751D02*
X46488Y-34751D01*
X44055Y-38307D02*
G75*
G03X44055Y-38307I-137J0D01*
G74*
G01*
X43307Y-41062D02*
X45669Y-41062D01*
X45669Y-41062D02*
X45669Y-36732D01*
X45669Y-36732D02*
X43307Y-36732D01*
X43307Y-36732D02*
X43307Y-41062D01*
G54D13*
X43813Y-37847D02*
X43813Y-37297D01*
X43813Y-37297D02*
X43663Y-37297D01*
X43663Y-37297D02*
X43663Y-37847D01*
X44313Y-37847D02*
X44313Y-37297D01*
X44313Y-37297D02*
X44163Y-37297D01*
X44163Y-37297D02*
X44163Y-37847D01*
X44813Y-37847D02*
X44813Y-37297D01*
X44813Y-37297D02*
X44663Y-37297D01*
X44663Y-37297D02*
X44663Y-37847D01*
X45313Y-37847D02*
X45313Y-37297D01*
X45313Y-37297D02*
X45163Y-37297D01*
X45163Y-37297D02*
X45163Y-37847D01*
X43663Y-39947D02*
X43663Y-40497D01*
X43663Y-40497D02*
X43813Y-40497D01*
X43813Y-40497D02*
X43813Y-39947D01*
X44163Y-39947D02*
X44163Y-40497D01*
X44163Y-40497D02*
X44313Y-40497D01*
X44313Y-40497D02*
X44313Y-39947D01*
X44663Y-39947D02*
X44663Y-40497D01*
X44663Y-40497D02*
X44813Y-40497D01*
X44813Y-40497D02*
X44813Y-39947D01*
X45163Y-40497D02*
X45313Y-40497D01*
X45163Y-39947D02*
X45163Y-40497D01*
X45313Y-40497D02*
X45313Y-39947D01*
G54D11*
X45511Y-39940D02*
X45511Y-37854D01*
X45511Y-37854D02*
X43464Y-37854D01*
X43464Y-37854D02*
X43464Y-39940D01*
X43464Y-39940D02*
X45511Y-39940D01*
G54D14*
X47864Y-37633D02*
X47864Y-37338D01*
X47864Y-37338D02*
X48434Y-37338D01*
X48434Y-37633D02*
X48434Y-37338D01*
X47864Y-37633D02*
X48434Y-37633D01*
X47864Y-37064D02*
X47864Y-36769D01*
X47864Y-36769D02*
X48434Y-36769D01*
X48434Y-37064D02*
X48434Y-36769D01*
X47864Y-37064D02*
X48434Y-37064D01*
X47992Y-37243D02*
X47992Y-37165D01*
X47992Y-37165D02*
X48306Y-37165D01*
X48306Y-37243D02*
X48306Y-37165D01*
X47992Y-37243D02*
X48306Y-37243D01*
G54D15*
X48536Y-37980D02*
X48536Y-36428D01*
X47762Y-36428D02*
X47762Y-37980D01*
X47762Y-37980D02*
X48536Y-37980D01*
G54D16*
X48408Y-37354D02*
X48408Y-37054D01*
X47890Y-37344D02*
X47890Y-37054D01*
G54D15*
X48536Y-36428D02*
X47762Y-36428D01*
G54D17*
X46358Y-36732D02*
X46358Y-36476D01*
X46358Y-37066D02*
X46358Y-36870D01*
X46358Y-37381D02*
X46358Y-37185D01*
X46358Y-37775D02*
X46358Y-37519D01*
X46988Y-36732D02*
X46988Y-36476D01*
X46988Y-37066D02*
X46988Y-36870D01*
X46988Y-37381D02*
X46988Y-37185D01*
X46988Y-37775D02*
X46988Y-37519D01*
X46358Y-36870D02*
X46437Y-36870D01*
X46437Y-36870D02*
X46437Y-36732D01*
X46437Y-36732D02*
X46358Y-36732D01*
X46358Y-37185D02*
X46437Y-37185D01*
X46437Y-37185D02*
X46437Y-37066D01*
X46437Y-37066D02*
X46358Y-37066D01*
X46358Y-37519D02*
X46437Y-37519D01*
X46437Y-37519D02*
X46437Y-37381D01*
X46437Y-37381D02*
X46358Y-37381D01*
X46988Y-36870D02*
X46909Y-36870D01*
X46909Y-36870D02*
X46909Y-36732D01*
X46909Y-36732D02*
X46988Y-36732D01*
X46988Y-37185D02*
X46909Y-37185D01*
X46909Y-37185D02*
X46909Y-37066D01*
X46909Y-37066D02*
X46988Y-37066D01*
X46988Y-37519D02*
X46909Y-37519D01*
X46909Y-37519D02*
X46909Y-37381D01*
X46909Y-37381D02*
X46988Y-37381D01*
X46988Y-36476D02*
X46358Y-36476D01*
X46358Y-37775D02*
X46988Y-37775D01*
X42755Y-37519D02*
X42755Y-37775D01*
X42755Y-37185D02*
X42755Y-37381D01*
X42755Y-36870D02*
X42755Y-37066D01*
X42755Y-36476D02*
X42755Y-36732D01*
X42125Y-37519D02*
X42125Y-37775D01*
X42125Y-37185D02*
X42125Y-37381D01*
X42125Y-36870D02*
X42125Y-37066D01*
X42125Y-36476D02*
X42125Y-36732D01*
X42755Y-37381D02*
X42677Y-37381D01*
X42677Y-37381D02*
X42677Y-37519D01*
X42677Y-37519D02*
X42755Y-37519D01*
X42755Y-37066D02*
X42677Y-37066D01*
X42677Y-37066D02*
X42677Y-37185D01*
X42677Y-37185D02*
X42755Y-37185D01*
X42755Y-36732D02*
X42677Y-36732D01*
X42677Y-36732D02*
X42677Y-36870D01*
X42677Y-36870D02*
X42755Y-36870D01*
X42125Y-37381D02*
X42204Y-37381D01*
X42204Y-37381D02*
X42204Y-37519D01*
X42204Y-37519D02*
X42125Y-37519D01*
X42125Y-37066D02*
X42204Y-37066D01*
X42204Y-37066D02*
X42204Y-37185D01*
X42204Y-37185D02*
X42125Y-37185D01*
X42125Y-36732D02*
X42204Y-36732D01*
X42204Y-36732D02*
X42204Y-36870D01*
X42204Y-36870D02*
X42125Y-36870D01*
X42125Y-37775D02*
X42755Y-37775D01*
X42755Y-36476D02*
X42125Y-36476D01*
G54D11*
X40817Y-38781D02*
X40817Y-38387D01*
X40648Y-38762D02*
X40592Y-38781D01*
X40498Y-38781D01*
X40461Y-38762D01*
X40442Y-38743D01*
X40423Y-38706D01*
X40423Y-38668D01*
X40442Y-38631D01*
X40461Y-38612D01*
X40498Y-38593D01*
X40573Y-38575D01*
X40611Y-38556D01*
X40629Y-38537D01*
X40648Y-38500D01*
X40648Y-38462D01*
X40629Y-38425D01*
X40611Y-38406D01*
X40573Y-38387D01*
X40479Y-38387D01*
X40423Y-38406D01*
X40254Y-38781D02*
X40254Y-38387D01*
X40104Y-38387D01*
X40067Y-38406D01*
X40048Y-38425D01*
X40029Y-38462D01*
X40029Y-38518D01*
X40048Y-38556D01*
X40067Y-38575D01*
X40104Y-38593D01*
X40254Y-38593D01*
X44872Y-39647D02*
X44872Y-39253D01*
X44460Y-39610D02*
X44478Y-39628D01*
X44535Y-39647D01*
X44572Y-39647D01*
X44628Y-39628D01*
X44666Y-39591D01*
X44685Y-39553D01*
X44703Y-39478D01*
X44703Y-39422D01*
X44685Y-39347D01*
X44666Y-39310D01*
X44628Y-39272D01*
X44572Y-39253D01*
X44535Y-39253D01*
X44478Y-39272D01*
X44460Y-39291D01*
X44085Y-39647D02*
X44310Y-39647D01*
X44197Y-39647D02*
X44197Y-39253D01*
X44235Y-39310D01*
X44272Y-39347D01*
X44310Y-39366D01*
X48215Y-36263D02*
X48233Y-36282D01*
X48290Y-36301D01*
X48327Y-36301D01*
X48383Y-36282D01*
X48421Y-36244D01*
X48440Y-36207D01*
X48458Y-36132D01*
X48458Y-36076D01*
X48440Y-36001D01*
X48421Y-35963D01*
X48383Y-35926D01*
X48327Y-35907D01*
X48290Y-35907D01*
X48233Y-35926D01*
X48215Y-35944D01*
X47840Y-36301D02*
X48065Y-36301D01*
X47952Y-36301D02*
X47952Y-35907D01*
X47990Y-35963D01*
X48027Y-36001D01*
X48065Y-36019D01*
X46720Y-36301D02*
X46945Y-36301D01*
X46832Y-36301D02*
X46832Y-35907D01*
X46870Y-35963D01*
X46907Y-36001D01*
X46945Y-36019D01*
X46551Y-36301D02*
X46551Y-35907D01*
X46513Y-36151D02*
X46401Y-36301D01*
X46401Y-36038D02*
X46551Y-36188D01*
X42994Y-35944D02*
X42975Y-35926D01*
X42937Y-35907D01*
X42844Y-35907D01*
X42806Y-35926D01*
X42787Y-35944D01*
X42769Y-35982D01*
X42769Y-36019D01*
X42787Y-36076D01*
X43012Y-36301D01*
X42769Y-36301D01*
X42600Y-36263D02*
X42581Y-36282D01*
X42600Y-36301D01*
X42619Y-36282D01*
X42600Y-36263D01*
X42600Y-36301D01*
X42431Y-35944D02*
X42412Y-35926D01*
X42375Y-35907D01*
X42281Y-35907D01*
X42244Y-35926D01*
X42225Y-35944D01*
X42206Y-35982D01*
X42206Y-36019D01*
X42225Y-36076D01*
X42450Y-36301D01*
X42206Y-36301D01*
X42037Y-36301D02*
X42037Y-35907D01*
X42000Y-36151D02*
X41887Y-36301D01*
X41887Y-36038D02*
X42037Y-36188D01*
%LPC*%
G54D18*
X43503Y-41929D03*
X45472Y-41929D03*
X44488Y-41929D03*
X45472Y-36220D03*
X43503Y-36220D03*
G54D19*
X46673Y-38976D03*
X42303Y-38976D03*
G54D20*
X48031Y-41732D03*
X40944Y-41732D03*
X40944Y-34645D03*
X48031Y-34645D03*
G54D21*
X41200Y-36220D03*
G54D22*
X40374Y-36220D03*
X41161Y-37007D03*
X40413Y-37007D03*
X41200Y-37795D03*
X40374Y-37795D03*
G54D23*
X45988Y-34251D03*
G54D24*
X44988Y-34251D03*
X43988Y-34251D03*
X42988Y-34251D03*
G54D25*
X43738Y-37397D03*
X44238Y-37397D03*
X44738Y-37397D03*
X45238Y-37397D03*
X45238Y-40397D03*
X44738Y-40397D03*
X44238Y-40397D03*
X43738Y-40397D03*
G54D26*
X48149Y-37578D03*
X48149Y-36830D03*
G54D27*
X47027Y-37647D03*
G54D28*
X47027Y-37283D03*
X47027Y-36968D03*
G54D27*
X47027Y-36604D03*
X46318Y-37647D03*
G54D28*
X46318Y-37283D03*
X46318Y-36968D03*
G54D27*
X46318Y-36604D03*
X42086Y-36604D03*
G54D28*
X42086Y-36968D03*
X42086Y-37283D03*
G54D27*
X42086Y-37647D03*
X42795Y-36604D03*
G54D28*
X42795Y-36968D03*
X42795Y-37283D03*
G54D27*
X42795Y-37647D03*
M02*
