G04 (created by PCBNEW (2013-01-27 BZR 3925)-testing) date Sun 27 Jan 2013 04:36:54 PM CET*
%MOIN*%
G04 Gerber Fmt 3.4, Leading zero omitted, Abs format*
%FSLAX34Y34*%
G01*
G70*
G90*
G04 APERTURE LIST*
%ADD10C,3.14961e-06*%
%ADD11C,0.00984252*%
%ADD12C,0.0531496*%
%ADD13C,0.0688976*%
%ADD14C,0.15748*%
%ADD15O,0.15748X0.15748*%
%ADD16R,0.0275591X0.0866142*%
%ADD17R,0.0314X0.0314*%
%ADD18R,0.0511X0.059*%
%ADD19C,0.0984252*%
%ADD20R,0.06X0.06*%
%ADD21C,0.06*%
%ADD22C,0.025*%
%ADD23C,0.008*%
G04 APERTURE END LIST*
G54D10*
G54D11*
X48129Y-33562D02*
X40846Y-33562D01*
X49114Y-41830D02*
X49114Y-34547D01*
X40846Y-42814D02*
X48129Y-42814D01*
X39862Y-34547D02*
X39862Y-41830D01*
X39862Y-41830D02*
G75*
G03X40846Y-42814I984J0D01*
G74*
G01*
X48129Y-42814D02*
G75*
G03X49114Y-41830I0J984D01*
G74*
G01*
X49114Y-34547D02*
G75*
G03X48129Y-33562I-984J0D01*
G74*
G01*
X40846Y-33562D02*
G75*
G03X39862Y-34547I0J-984D01*
G74*
G01*
G54D12*
X40551Y-36220D03*
X41338Y-36220D03*
X40551Y-37007D03*
X41338Y-37007D03*
X40551Y-37795D03*
X41338Y-37795D03*
G54D13*
X43503Y-41929D03*
X45472Y-41929D03*
X44488Y-41929D03*
X45472Y-36220D03*
X43503Y-36220D03*
G54D14*
X46929Y-38976D03*
G54D15*
X42047Y-38976D03*
G54D16*
X43738Y-37476D03*
X44238Y-37476D03*
X44738Y-37476D03*
X45238Y-37476D03*
X45238Y-40476D03*
X44738Y-40476D03*
X44238Y-40476D03*
X43738Y-40476D03*
G54D17*
X42814Y-36909D03*
X42814Y-37499D03*
X46850Y-36909D03*
X46850Y-37499D03*
X42027Y-40649D03*
X42617Y-40649D03*
X46948Y-40649D03*
X46358Y-40649D03*
X42125Y-37499D03*
X42125Y-36909D03*
G54D18*
X44862Y-35334D03*
X44114Y-35334D03*
G54D19*
X48031Y-41732D03*
X40944Y-34645D03*
X40944Y-41732D03*
X48031Y-34645D03*
G54D17*
X44488Y-36023D03*
X44488Y-36613D03*
X46161Y-36909D03*
X46161Y-37499D03*
G54D20*
X45988Y-34251D03*
G54D21*
X44988Y-34251D03*
X43988Y-34251D03*
X42988Y-34251D03*
G54D22*
X42814Y-37893D03*
X42992Y-38248D03*
X42401Y-35570D03*
X44232Y-38543D03*
X45255Y-38700D03*
X45236Y-39665D03*
X46299Y-35531D03*
X43740Y-38090D03*
X43937Y-38956D03*
X47401Y-36909D03*
X43385Y-35236D03*
X42460Y-35137D03*
X46000Y-41248D03*
G54D23*
X42519Y-37893D02*
X42125Y-37499D01*
X42814Y-37893D02*
X42519Y-37893D01*
X42027Y-40649D02*
X42027Y-41338D01*
X42618Y-41929D02*
X43503Y-41929D01*
X42027Y-41338D02*
X42618Y-41929D01*
X45472Y-41929D02*
X46456Y-41929D01*
X46948Y-41437D02*
X46948Y-40649D01*
X46456Y-41929D02*
X46948Y-41437D01*
X44527Y-38444D02*
X45925Y-38444D01*
X46397Y-37972D02*
X46791Y-37972D01*
X46791Y-37972D02*
X46850Y-37913D01*
X46850Y-37499D02*
X46850Y-37913D01*
X44242Y-38160D02*
X44238Y-38160D01*
X44242Y-38160D02*
X44527Y-38444D01*
X45925Y-38444D02*
X46397Y-37972D01*
X42814Y-37499D02*
X43001Y-37499D01*
X44238Y-38160D02*
X44238Y-37476D01*
X44032Y-38366D02*
X44238Y-38160D01*
X43444Y-38366D02*
X44032Y-38366D01*
X43300Y-38221D02*
X43444Y-38366D01*
X43300Y-37798D02*
X43300Y-38221D01*
X43001Y-37499D02*
X43300Y-37798D01*
X44738Y-39403D02*
X44738Y-39415D01*
X43996Y-38661D02*
X44738Y-39403D01*
X43405Y-38661D02*
X43996Y-38661D01*
X42992Y-38248D02*
X43405Y-38661D01*
X44738Y-40476D02*
X44738Y-39415D01*
X45866Y-40649D02*
X46358Y-40649D01*
X45669Y-40452D02*
X45866Y-40649D01*
X45669Y-39370D02*
X45669Y-40452D01*
X45570Y-39271D02*
X45669Y-39370D01*
X44881Y-39271D02*
X45570Y-39271D01*
X44738Y-39415D02*
X44881Y-39271D01*
X42125Y-36909D02*
X42125Y-35846D01*
X42125Y-35846D02*
X42401Y-35570D01*
X45236Y-40474D02*
X45238Y-40476D01*
X45236Y-40474D02*
X45236Y-39665D01*
X42125Y-36909D02*
X41436Y-36909D01*
X41436Y-36909D02*
X41338Y-37007D01*
X45255Y-38700D02*
X44389Y-38700D01*
X44389Y-38700D02*
X44232Y-38543D01*
X46299Y-35531D02*
X46161Y-35669D01*
X46161Y-36909D02*
X46161Y-35669D01*
X43738Y-37476D02*
X43738Y-38088D01*
X43738Y-38088D02*
X43740Y-38090D01*
X44488Y-36613D02*
X43996Y-36613D01*
X43738Y-36872D02*
X43738Y-37476D01*
X43996Y-36613D02*
X43738Y-36872D01*
X41062Y-40255D02*
X40708Y-39901D01*
X41062Y-40255D02*
X42578Y-40255D01*
X42578Y-40255D02*
X42617Y-40295D01*
X42617Y-40649D02*
X42617Y-40295D01*
X40944Y-37401D02*
X40551Y-37007D01*
X40944Y-38110D02*
X40944Y-37401D01*
X40708Y-38346D02*
X40944Y-38110D01*
X40708Y-39901D02*
X40708Y-38346D01*
X43000Y-40649D02*
X43250Y-40399D01*
X43250Y-40399D02*
X43250Y-39748D01*
X43250Y-39748D02*
X43400Y-39598D01*
X44238Y-39686D02*
X44238Y-40476D01*
X43400Y-39598D02*
X44150Y-39598D01*
X44150Y-39598D02*
X44238Y-39686D01*
X42617Y-40649D02*
X43000Y-40649D01*
X42814Y-36909D02*
X42814Y-34523D01*
X42814Y-34523D02*
X42988Y-34350D01*
X42637Y-40059D02*
X43740Y-38956D01*
X41338Y-37992D02*
X40905Y-38425D01*
X40905Y-38425D02*
X40905Y-39822D01*
X40905Y-39822D02*
X41141Y-40059D01*
X41141Y-40059D02*
X42637Y-40059D01*
X41338Y-37992D02*
X41338Y-37795D01*
X43740Y-38956D02*
X43937Y-38956D01*
X44114Y-35334D02*
X44114Y-36200D01*
X45374Y-36318D02*
X45472Y-36220D01*
X44232Y-36318D02*
X45374Y-36318D01*
X44114Y-36200D02*
X44232Y-36318D01*
X45238Y-37476D02*
X45238Y-36454D01*
X45238Y-36454D02*
X45472Y-36220D01*
X45988Y-34350D02*
X45988Y-35704D01*
X45988Y-35704D02*
X45472Y-36220D01*
X46850Y-36909D02*
X46850Y-36909D01*
X47401Y-36909D02*
X46850Y-36909D01*
X44822Y-38228D02*
X45866Y-38228D01*
X44738Y-38143D02*
X44822Y-38228D01*
X44738Y-37476D02*
X44738Y-38143D01*
X46161Y-37933D02*
X46161Y-37499D01*
X45866Y-38228D02*
X46161Y-37933D01*
X44988Y-34744D02*
X43622Y-34744D01*
X41338Y-36082D02*
X41338Y-36220D01*
X42283Y-35137D02*
X42460Y-35137D01*
X41338Y-36082D02*
X42283Y-35137D01*
X43385Y-34980D02*
X43385Y-35236D01*
X43622Y-34744D02*
X43385Y-34980D01*
X46000Y-41248D02*
X45991Y-41240D01*
X43738Y-41179D02*
X43799Y-41240D01*
X43738Y-40476D02*
X43738Y-41179D01*
X45991Y-41240D02*
X43799Y-41240D01*
X44488Y-36023D02*
X44684Y-36023D01*
X44684Y-36023D02*
X44862Y-35846D01*
X44862Y-35846D02*
X44862Y-35334D01*
X44988Y-34350D02*
X44988Y-34744D01*
X44988Y-34744D02*
X44988Y-35208D01*
X44988Y-35208D02*
X44862Y-35334D01*
M02*
