G04 (created by PCBNEW (2013-01-21 BZR 3918)-testing) date Tue 22 Jan 2013 11:51:19 AM CET*
%MOIN*%
G04 Gerber Fmt 3.4, Leading zero omitted, Abs format*
%FSLAX34Y34*%
G01*
G70*
G90*
G04 APERTURE LIST*
%ADD10C,3.14961e-06*%
%ADD11C,0.015*%
%ADD12R,0.06X0.06*%
%ADD13C,0.06*%
%ADD14C,0.0688976*%
%ADD15R,0.137795X0.19685*%
%ADD16R,0.0314X0.0314*%
%ADD17C,0.0984252*%
%ADD18C,0.025*%
%ADD19C,0.008*%
G04 APERTURE END LIST*
G54D10*
G54D11*
X49015Y-42716D02*
X49015Y-33661D01*
X39960Y-42716D02*
X49015Y-42716D01*
X39960Y-33661D02*
X39960Y-42716D01*
X39960Y-33661D02*
X49015Y-33661D01*
G54D12*
X40748Y-39688D03*
G54D13*
X40748Y-38688D03*
X40748Y-37688D03*
X40748Y-36688D03*
G54D12*
X45988Y-34350D03*
G54D13*
X44988Y-34350D03*
X43988Y-34350D03*
X42988Y-34350D03*
G54D14*
X43503Y-41830D03*
X45472Y-41830D03*
X44488Y-41830D03*
X45472Y-36122D03*
X43503Y-36122D03*
G54D15*
X46692Y-38877D03*
X42283Y-38877D03*
G54D16*
X44488Y-35256D03*
X44488Y-35846D03*
G54D17*
X48031Y-41732D03*
X40944Y-34645D03*
X40944Y-41732D03*
X48031Y-34645D03*
G54D18*
X41633Y-36122D03*
X43307Y-38582D03*
X41240Y-38188D03*
X41141Y-37204D03*
X45275Y-39566D03*
X45275Y-38877D03*
X43700Y-38877D03*
X47440Y-37106D03*
X43307Y-36909D03*
X42519Y-36417D03*
X42519Y-35629D03*
X41830Y-35629D03*
X44094Y-36220D03*
X42224Y-35334D03*
X46358Y-41141D03*
G54D19*
X41633Y-36122D02*
X43503Y-36122D01*
X40748Y-37688D02*
X41149Y-37688D01*
X43307Y-37696D02*
X43307Y-38582D01*
X43011Y-37401D02*
X43307Y-37696D01*
X41437Y-37401D02*
X43011Y-37401D01*
X41149Y-37688D02*
X41437Y-37401D01*
X41240Y-38188D02*
X41338Y-38287D01*
X41338Y-39960D02*
X41535Y-40157D01*
X45275Y-39566D02*
X45275Y-38877D01*
X43700Y-38877D02*
X43307Y-39173D01*
X43307Y-39173D02*
X43307Y-39960D01*
X43307Y-39960D02*
X43110Y-40157D01*
X43110Y-40157D02*
X41535Y-40157D01*
X41338Y-38287D02*
X41338Y-39960D01*
X45078Y-34842D02*
X46850Y-36614D01*
X43988Y-34350D02*
X44480Y-34842D01*
X44480Y-34842D02*
X45078Y-34842D01*
X47440Y-37007D02*
X47440Y-37106D01*
X47047Y-36614D02*
X47440Y-37007D01*
X46850Y-36614D02*
X47047Y-36614D01*
X43011Y-36909D02*
X43307Y-36909D01*
X42519Y-36417D02*
X43011Y-36909D01*
X41830Y-35629D02*
X42519Y-35629D01*
X44488Y-35846D02*
X44546Y-35787D01*
X45137Y-35787D02*
X45472Y-36122D01*
X44546Y-35787D02*
X45137Y-35787D01*
X44094Y-36220D02*
X44783Y-36220D01*
X44881Y-36122D02*
X45472Y-36122D01*
X44783Y-36220D02*
X44881Y-36122D01*
X45374Y-36220D02*
X45472Y-36122D01*
X44488Y-41830D02*
X44488Y-37106D01*
X44488Y-37106D02*
X45472Y-36122D01*
X42224Y-35334D02*
X42302Y-35256D01*
X42302Y-35256D02*
X44488Y-35256D01*
X48031Y-37106D02*
X46062Y-35137D01*
X46358Y-41141D02*
X47047Y-40452D01*
X47047Y-40452D02*
X47539Y-40452D01*
X47539Y-40452D02*
X48031Y-39960D01*
X48031Y-39960D02*
X48031Y-37106D01*
X45775Y-35137D02*
X44988Y-34350D01*
X46062Y-35137D02*
X45775Y-35137D01*
M02*
