G04 (created by PCBNEW (2013-02-22 BZR 3968)-testing) date Thu 28 Feb 2013 03:11:46 PM CET*
%MOIN*%
G04 Gerber Fmt 3.4, Leading zero omitted, Abs format*
%FSLAX34Y34*%
G01*
G70*
G90*
G04 APERTURE LIST*
%ADD10C,3.14961e-06*%
%ADD11C,0.00787402*%
%ADD12R,0.0511811X0.0511811*%
%ADD13C,0.0511811*%
%ADD14R,0.0649606X0.0649606*%
%ADD15C,0.0649606*%
%ADD16C,0.0688976*%
%ADD17C,0.15748*%
%ADD18O,0.15748X0.15748*%
%ADD19C,0.0984252*%
%ADD20R,0.0472X0.0472*%
%ADD21C,0.0255906*%
%ADD22C,0.0393701*%
%ADD23C,0.00984252*%
%ADD24C,0.000393701*%
%ADD25C,0.015748*%
%ADD26C,0.008*%
%ADD27C,0.00629921*%
G04 APERTURE END LIST*
G54D10*
G54D11*
X48129Y-33562D02*
X40846Y-33562D01*
X49114Y-41830D02*
X49114Y-34547D01*
X40846Y-42814D02*
X48129Y-42814D01*
X39862Y-34547D02*
X39862Y-41830D01*
X39862Y-41830D02*
G75*
G03X40846Y-42814I984J0D01*
G74*
G01*
X48129Y-42814D02*
G75*
G03X49114Y-41830I0J984D01*
G74*
G01*
X49114Y-34547D02*
G75*
G03X48129Y-33562I-984J0D01*
G74*
G01*
X40846Y-33562D02*
G75*
G03X39862Y-34547I0J-984D01*
G74*
G01*
G54D12*
X41200Y-36220D03*
G54D13*
X40374Y-36220D03*
X41161Y-37007D03*
X40413Y-37007D03*
X41200Y-37795D03*
X40374Y-37795D03*
G54D14*
X45988Y-34251D03*
G54D15*
X44988Y-34251D03*
X43988Y-34251D03*
X42988Y-34251D03*
G54D16*
X43503Y-41929D03*
X45472Y-41929D03*
X44488Y-41929D03*
X45472Y-36220D03*
X43503Y-36220D03*
G54D17*
X46929Y-38976D03*
G54D18*
X42047Y-38976D03*
G54D19*
X48031Y-34645D03*
X40944Y-41732D03*
X40944Y-34645D03*
X48031Y-41732D03*
G54D20*
X44488Y-35157D03*
X44488Y-35983D03*
G54D21*
X42047Y-37480D03*
X44173Y-39015D03*
X45157Y-38976D03*
X45196Y-39566D03*
X43188Y-39055D03*
X46299Y-35531D03*
X43740Y-38090D03*
X40905Y-39370D03*
X40905Y-38622D03*
X43031Y-38070D03*
X42125Y-33956D03*
X42125Y-34547D03*
X42125Y-35137D03*
X42125Y-35984D03*
X46732Y-35748D03*
X47559Y-36456D03*
X48700Y-36456D03*
X48700Y-37440D03*
X40196Y-39409D03*
X40748Y-40078D03*
X46732Y-42165D03*
X48700Y-39960D03*
X48700Y-38188D03*
X48700Y-39094D03*
X40196Y-40590D03*
X42992Y-40905D03*
X42322Y-42165D03*
X41299Y-40590D03*
X46929Y-36712D03*
G54D22*
X43503Y-35295D03*
X47559Y-37559D03*
X45984Y-40905D03*
G54D23*
X42047Y-37480D02*
X42244Y-37480D01*
X42244Y-37480D02*
X43503Y-36220D01*
X41200Y-36220D02*
X41240Y-36259D01*
X44055Y-38897D02*
X44173Y-39015D01*
X42559Y-36259D02*
X43188Y-35629D01*
X43188Y-35629D02*
X43740Y-35629D01*
X43740Y-35629D02*
X44055Y-35944D01*
X44055Y-35944D02*
X44055Y-38897D01*
X41240Y-36259D02*
X42559Y-36259D01*
X40787Y-38110D02*
X40472Y-38425D01*
X45157Y-38976D02*
X45196Y-39015D01*
X45196Y-39015D02*
X45196Y-39566D01*
X40787Y-37381D02*
X40413Y-37007D01*
X40787Y-38110D02*
X40787Y-37381D01*
X42795Y-40196D02*
X41417Y-40196D01*
X43188Y-39803D02*
X42795Y-40196D01*
X43188Y-39055D02*
X43188Y-39803D01*
X41023Y-39803D02*
X41417Y-40196D01*
X40748Y-39803D02*
X41023Y-39803D01*
X40472Y-39527D02*
X40748Y-39803D01*
X40472Y-38425D02*
X40472Y-39527D01*
X40413Y-37007D02*
X40433Y-37007D01*
X44980Y-34783D02*
X44862Y-34783D01*
X44980Y-34783D02*
X45531Y-35334D01*
X45531Y-35334D02*
X46102Y-35334D01*
X46102Y-35334D02*
X46299Y-35531D01*
X44401Y-34665D02*
X43988Y-34251D01*
X44744Y-34665D02*
X44401Y-34665D01*
X44862Y-34783D02*
X44744Y-34665D01*
X41181Y-37795D02*
X41358Y-37972D01*
X43366Y-38464D02*
X43740Y-38090D01*
X43031Y-38464D02*
X43366Y-38464D01*
X42539Y-37972D02*
X43031Y-38464D01*
X41358Y-37972D02*
X42539Y-37972D01*
X40905Y-38622D02*
X40905Y-39370D01*
G54D24*
X42125Y-33956D02*
X42125Y-34547D01*
X46732Y-35748D02*
X46811Y-35826D01*
X48740Y-37401D02*
X48700Y-36456D01*
X48700Y-37440D02*
X48740Y-37401D01*
X47007Y-35944D02*
X47559Y-36456D01*
X46811Y-35826D02*
X47007Y-35944D01*
G54D25*
X44488Y-39606D02*
X44645Y-39606D01*
X45000Y-38661D02*
X46614Y-38661D01*
X46614Y-38661D02*
X46929Y-38976D01*
X44842Y-38818D02*
X45000Y-38661D01*
X44842Y-39409D02*
X44842Y-38818D01*
X44645Y-39606D02*
X44842Y-39409D01*
X43385Y-38700D02*
X44291Y-39606D01*
X42322Y-38700D02*
X43385Y-38700D01*
X42047Y-38976D02*
X42322Y-38700D01*
X44291Y-39606D02*
X44488Y-39606D01*
G54D24*
X40748Y-40078D02*
X40196Y-39409D01*
X46732Y-42165D02*
X46751Y-41437D01*
X48031Y-40452D02*
X48700Y-39960D01*
X47637Y-40846D02*
X48031Y-40452D01*
X47342Y-40846D02*
X47637Y-40846D01*
X46751Y-41437D02*
X47342Y-40846D01*
X48700Y-39094D02*
X48700Y-38188D01*
X44488Y-41929D02*
X44389Y-41929D01*
X43602Y-41141D02*
X42992Y-40905D01*
X44389Y-41929D02*
X43602Y-41141D01*
X44488Y-41929D02*
X43897Y-42519D01*
X42519Y-42519D02*
X42322Y-42165D01*
X43897Y-42519D02*
X42519Y-42519D01*
G54D25*
X44488Y-35983D02*
X45235Y-35983D01*
X45235Y-35983D02*
X45472Y-36220D01*
G54D26*
X45374Y-36318D02*
X45472Y-36220D01*
G54D25*
X44488Y-37204D02*
X45472Y-36220D01*
X44488Y-41929D02*
X44488Y-39606D01*
X44488Y-39606D02*
X44488Y-37204D01*
G54D23*
X46929Y-36712D02*
X46929Y-36614D01*
X46929Y-36614D02*
X45826Y-35511D01*
X44961Y-35157D02*
X45314Y-35511D01*
X45314Y-35511D02*
X45826Y-35511D01*
X44488Y-35157D02*
X44961Y-35157D01*
G54D25*
X40787Y-35669D02*
X40374Y-36082D01*
X43503Y-35295D02*
X43129Y-35295D01*
X42755Y-35669D02*
X40787Y-35669D01*
X43129Y-35295D02*
X42755Y-35669D01*
X40374Y-36082D02*
X40374Y-36220D01*
X48031Y-37578D02*
X47559Y-37559D01*
X47539Y-40551D02*
X48031Y-40059D01*
X48031Y-37578D02*
X48031Y-40059D01*
X47539Y-40551D02*
X46338Y-40551D01*
X45984Y-40905D02*
X46338Y-40551D01*
X46722Y-35068D02*
X45706Y-35068D01*
X48031Y-37578D02*
X48031Y-36377D01*
X48031Y-36377D02*
X46722Y-35068D01*
X45706Y-35068D02*
X44988Y-34350D01*
G54D10*
G36*
X42735Y-35858D02*
X42493Y-36100D01*
X41606Y-36100D01*
X41606Y-35858D01*
X42735Y-35858D01*
X42735Y-35858D01*
G37*
G54D27*
X42735Y-35858D02*
X42493Y-36100D01*
X41606Y-36100D01*
X41606Y-35858D01*
X42735Y-35858D01*
G54D10*
G36*
X43029Y-39737D02*
X42950Y-39816D01*
X42729Y-40037D01*
X42029Y-40037D01*
X42029Y-39861D01*
X42029Y-38994D01*
X41162Y-38994D01*
X41144Y-39137D01*
X41152Y-39177D01*
X41208Y-39347D01*
X41296Y-39503D01*
X41413Y-39639D01*
X41554Y-39749D01*
X41713Y-39831D01*
X41886Y-39879D01*
X42029Y-39861D01*
X42029Y-40037D01*
X41483Y-40037D01*
X41143Y-39697D01*
X41143Y-39346D01*
X41134Y-39300D01*
X41116Y-39257D01*
X41090Y-39218D01*
X41064Y-39192D01*
X41064Y-38799D01*
X41086Y-38778D01*
X41113Y-38740D01*
X41132Y-38697D01*
X41142Y-38652D01*
X41143Y-38598D01*
X41134Y-38552D01*
X41116Y-38509D01*
X41090Y-38470D01*
X41058Y-38437D01*
X41019Y-38411D01*
X40976Y-38393D01*
X40930Y-38384D01*
X40883Y-38383D01*
X40837Y-38392D01*
X40794Y-38409D01*
X40755Y-38435D01*
X40722Y-38468D01*
X40695Y-38506D01*
X40677Y-38549D01*
X40667Y-38595D01*
X40667Y-38642D01*
X40675Y-38688D01*
X40692Y-38731D01*
X40717Y-38770D01*
X40746Y-38799D01*
X40746Y-39192D01*
X40722Y-39216D01*
X40695Y-39254D01*
X40677Y-39297D01*
X40667Y-39343D01*
X40667Y-39390D01*
X40675Y-39436D01*
X40692Y-39479D01*
X40717Y-39518D01*
X40750Y-39552D01*
X40788Y-39579D01*
X40831Y-39597D01*
X40877Y-39607D01*
X40923Y-39608D01*
X40969Y-39600D01*
X41013Y-39583D01*
X41052Y-39558D01*
X41086Y-39526D01*
X41113Y-39488D01*
X41132Y-39445D01*
X41142Y-39400D01*
X41143Y-39346D01*
X41143Y-39697D01*
X41136Y-39690D01*
X41124Y-39681D01*
X41113Y-39671D01*
X41112Y-39671D01*
X41112Y-39670D01*
X41099Y-39663D01*
X41086Y-39656D01*
X41085Y-39656D01*
X41084Y-39655D01*
X41070Y-39651D01*
X41056Y-39647D01*
X41055Y-39647D01*
X41055Y-39646D01*
X41040Y-39645D01*
X41025Y-39643D01*
X41024Y-39643D01*
X41024Y-39643D01*
X41024Y-39643D01*
X41023Y-39643D01*
X40814Y-39643D01*
X40631Y-39461D01*
X40631Y-38491D01*
X40900Y-38222D01*
X40902Y-38220D01*
X41102Y-38220D01*
X41531Y-38220D01*
X41413Y-38313D01*
X41296Y-38448D01*
X41208Y-38604D01*
X41152Y-38774D01*
X41144Y-38815D01*
X41162Y-38958D01*
X42029Y-38958D01*
X42029Y-38950D01*
X42064Y-38950D01*
X42064Y-38958D01*
X42072Y-38958D01*
X42072Y-38994D01*
X42064Y-38994D01*
X42064Y-39861D01*
X42208Y-39879D01*
X42380Y-39831D01*
X42540Y-39749D01*
X42681Y-39639D01*
X42797Y-39503D01*
X42885Y-39347D01*
X42942Y-39177D01*
X42950Y-39137D01*
X42931Y-38994D01*
X42958Y-38994D01*
X42951Y-39028D01*
X42950Y-39075D01*
X42958Y-39121D01*
X42976Y-39164D01*
X43001Y-39203D01*
X43029Y-39232D01*
X43029Y-39737D01*
X43029Y-39737D01*
G37*
G54D27*
X43029Y-39737D02*
X42950Y-39816D01*
X42729Y-40037D01*
X42029Y-40037D01*
X42029Y-39861D01*
X42029Y-38994D01*
X41162Y-38994D01*
X41144Y-39137D01*
X41152Y-39177D01*
X41208Y-39347D01*
X41296Y-39503D01*
X41413Y-39639D01*
X41554Y-39749D01*
X41713Y-39831D01*
X41886Y-39879D01*
X42029Y-39861D01*
X42029Y-40037D01*
X41483Y-40037D01*
X41143Y-39697D01*
X41143Y-39346D01*
X41134Y-39300D01*
X41116Y-39257D01*
X41090Y-39218D01*
X41064Y-39192D01*
X41064Y-38799D01*
X41086Y-38778D01*
X41113Y-38740D01*
X41132Y-38697D01*
X41142Y-38652D01*
X41143Y-38598D01*
X41134Y-38552D01*
X41116Y-38509D01*
X41090Y-38470D01*
X41058Y-38437D01*
X41019Y-38411D01*
X40976Y-38393D01*
X40930Y-38384D01*
X40883Y-38383D01*
X40837Y-38392D01*
X40794Y-38409D01*
X40755Y-38435D01*
X40722Y-38468D01*
X40695Y-38506D01*
X40677Y-38549D01*
X40667Y-38595D01*
X40667Y-38642D01*
X40675Y-38688D01*
X40692Y-38731D01*
X40717Y-38770D01*
X40746Y-38799D01*
X40746Y-39192D01*
X40722Y-39216D01*
X40695Y-39254D01*
X40677Y-39297D01*
X40667Y-39343D01*
X40667Y-39390D01*
X40675Y-39436D01*
X40692Y-39479D01*
X40717Y-39518D01*
X40750Y-39552D01*
X40788Y-39579D01*
X40831Y-39597D01*
X40877Y-39607D01*
X40923Y-39608D01*
X40969Y-39600D01*
X41013Y-39583D01*
X41052Y-39558D01*
X41086Y-39526D01*
X41113Y-39488D01*
X41132Y-39445D01*
X41142Y-39400D01*
X41143Y-39346D01*
X41143Y-39697D01*
X41136Y-39690D01*
X41124Y-39681D01*
X41113Y-39671D01*
X41112Y-39671D01*
X41112Y-39670D01*
X41099Y-39663D01*
X41086Y-39656D01*
X41085Y-39656D01*
X41084Y-39655D01*
X41070Y-39651D01*
X41056Y-39647D01*
X41055Y-39647D01*
X41055Y-39646D01*
X41040Y-39645D01*
X41025Y-39643D01*
X41024Y-39643D01*
X41024Y-39643D01*
X41024Y-39643D01*
X41023Y-39643D01*
X40814Y-39643D01*
X40631Y-39461D01*
X40631Y-38491D01*
X40900Y-38222D01*
X40902Y-38220D01*
X41102Y-38220D01*
X41531Y-38220D01*
X41413Y-38313D01*
X41296Y-38448D01*
X41208Y-38604D01*
X41152Y-38774D01*
X41144Y-38815D01*
X41162Y-38958D01*
X42029Y-38958D01*
X42029Y-38950D01*
X42064Y-38950D01*
X42064Y-38958D01*
X42072Y-38958D01*
X42072Y-38994D01*
X42064Y-38994D01*
X42064Y-39861D01*
X42208Y-39879D01*
X42380Y-39831D01*
X42540Y-39749D01*
X42681Y-39639D01*
X42797Y-39503D01*
X42885Y-39347D01*
X42942Y-39177D01*
X42950Y-39137D01*
X42931Y-38994D01*
X42958Y-38994D01*
X42951Y-39028D01*
X42950Y-39075D01*
X42958Y-39121D01*
X42976Y-39164D01*
X43001Y-39203D01*
X43029Y-39232D01*
X43029Y-39737D01*
G54D10*
G36*
X43895Y-37909D02*
X43892Y-37906D01*
X43853Y-37880D01*
X43810Y-37861D01*
X43765Y-37852D01*
X43718Y-37852D01*
X43672Y-37860D01*
X43629Y-37878D01*
X43590Y-37904D01*
X43556Y-37936D01*
X43530Y-37975D01*
X43512Y-38018D01*
X43502Y-38063D01*
X43501Y-38103D01*
X43300Y-38305D01*
X43097Y-38305D01*
X42652Y-37859D01*
X42640Y-37850D01*
X42629Y-37840D01*
X42628Y-37840D01*
X42628Y-37839D01*
X42615Y-37832D01*
X42602Y-37825D01*
X42601Y-37825D01*
X42600Y-37825D01*
X42586Y-37820D01*
X42572Y-37816D01*
X42571Y-37816D01*
X42570Y-37816D01*
X42556Y-37814D01*
X42541Y-37813D01*
X42539Y-37812D01*
X42539Y-37812D01*
X42539Y-37812D01*
X42539Y-37812D01*
X41606Y-37812D01*
X41606Y-36419D01*
X42559Y-36419D01*
X42573Y-36417D01*
X42588Y-36416D01*
X42589Y-36416D01*
X42590Y-36416D01*
X42604Y-36411D01*
X42618Y-36407D01*
X42619Y-36407D01*
X42619Y-36407D01*
X42632Y-36400D01*
X42645Y-36393D01*
X42646Y-36393D01*
X42647Y-36392D01*
X42658Y-36383D01*
X42670Y-36374D01*
X42671Y-36373D01*
X42671Y-36372D01*
X42671Y-36372D01*
X42671Y-36372D01*
X43081Y-35963D01*
X43068Y-35981D01*
X43030Y-36070D01*
X43010Y-36165D01*
X43009Y-36262D01*
X43026Y-36357D01*
X43059Y-36439D01*
X42201Y-37297D01*
X42199Y-37295D01*
X42161Y-37269D01*
X42118Y-37251D01*
X42072Y-37242D01*
X42025Y-37241D01*
X41979Y-37250D01*
X41936Y-37268D01*
X41897Y-37293D01*
X41863Y-37326D01*
X41837Y-37365D01*
X41819Y-37407D01*
X41809Y-37453D01*
X41808Y-37500D01*
X41817Y-37546D01*
X41834Y-37589D01*
X41859Y-37628D01*
X41892Y-37662D01*
X41930Y-37689D01*
X41973Y-37707D01*
X42018Y-37717D01*
X42065Y-37718D01*
X42111Y-37710D01*
X42155Y-37693D01*
X42194Y-37668D01*
X42225Y-37639D01*
X42244Y-37639D01*
X42258Y-37638D01*
X42273Y-37637D01*
X42274Y-37636D01*
X42275Y-37636D01*
X42289Y-37632D01*
X42303Y-37628D01*
X42304Y-37627D01*
X42304Y-37627D01*
X42317Y-37620D01*
X42330Y-37614D01*
X42331Y-37613D01*
X42332Y-37613D01*
X42343Y-37603D01*
X42355Y-37594D01*
X42356Y-37593D01*
X42356Y-37593D01*
X42356Y-37593D01*
X42356Y-37593D01*
X43285Y-36664D01*
X43350Y-36692D01*
X43445Y-36713D01*
X43542Y-36715D01*
X43637Y-36698D01*
X43727Y-36663D01*
X43809Y-36611D01*
X43879Y-36544D01*
X43895Y-36522D01*
X43895Y-37909D01*
X43895Y-37909D01*
G37*
G54D27*
X43895Y-37909D02*
X43892Y-37906D01*
X43853Y-37880D01*
X43810Y-37861D01*
X43765Y-37852D01*
X43718Y-37852D01*
X43672Y-37860D01*
X43629Y-37878D01*
X43590Y-37904D01*
X43556Y-37936D01*
X43530Y-37975D01*
X43512Y-38018D01*
X43502Y-38063D01*
X43501Y-38103D01*
X43300Y-38305D01*
X43097Y-38305D01*
X42652Y-37859D01*
X42640Y-37850D01*
X42629Y-37840D01*
X42628Y-37840D01*
X42628Y-37839D01*
X42615Y-37832D01*
X42602Y-37825D01*
X42601Y-37825D01*
X42600Y-37825D01*
X42586Y-37820D01*
X42572Y-37816D01*
X42571Y-37816D01*
X42570Y-37816D01*
X42556Y-37814D01*
X42541Y-37813D01*
X42539Y-37812D01*
X42539Y-37812D01*
X42539Y-37812D01*
X42539Y-37812D01*
X41606Y-37812D01*
X41606Y-36419D01*
X42559Y-36419D01*
X42573Y-36417D01*
X42588Y-36416D01*
X42589Y-36416D01*
X42590Y-36416D01*
X42604Y-36411D01*
X42618Y-36407D01*
X42619Y-36407D01*
X42619Y-36407D01*
X42632Y-36400D01*
X42645Y-36393D01*
X42646Y-36393D01*
X42647Y-36392D01*
X42658Y-36383D01*
X42670Y-36374D01*
X42671Y-36373D01*
X42671Y-36372D01*
X42671Y-36372D01*
X42671Y-36372D01*
X43081Y-35963D01*
X43068Y-35981D01*
X43030Y-36070D01*
X43010Y-36165D01*
X43009Y-36262D01*
X43026Y-36357D01*
X43059Y-36439D01*
X42201Y-37297D01*
X42199Y-37295D01*
X42161Y-37269D01*
X42118Y-37251D01*
X42072Y-37242D01*
X42025Y-37241D01*
X41979Y-37250D01*
X41936Y-37268D01*
X41897Y-37293D01*
X41863Y-37326D01*
X41837Y-37365D01*
X41819Y-37407D01*
X41809Y-37453D01*
X41808Y-37500D01*
X41817Y-37546D01*
X41834Y-37589D01*
X41859Y-37628D01*
X41892Y-37662D01*
X41930Y-37689D01*
X41973Y-37707D01*
X42018Y-37717D01*
X42065Y-37718D01*
X42111Y-37710D01*
X42155Y-37693D01*
X42194Y-37668D01*
X42225Y-37639D01*
X42244Y-37639D01*
X42258Y-37638D01*
X42273Y-37637D01*
X42274Y-37636D01*
X42275Y-37636D01*
X42289Y-37632D01*
X42303Y-37628D01*
X42304Y-37627D01*
X42304Y-37627D01*
X42317Y-37620D01*
X42330Y-37614D01*
X42331Y-37613D01*
X42332Y-37613D01*
X42343Y-37603D01*
X42355Y-37594D01*
X42356Y-37593D01*
X42356Y-37593D01*
X42356Y-37593D01*
X42356Y-37593D01*
X43285Y-36664D01*
X43350Y-36692D01*
X43445Y-36713D01*
X43542Y-36715D01*
X43637Y-36698D01*
X43727Y-36663D01*
X43809Y-36611D01*
X43879Y-36544D01*
X43895Y-36522D01*
X43895Y-37909D01*
G54D10*
G36*
X48964Y-40780D02*
X48961Y-40779D01*
X48918Y-40775D01*
X48226Y-40775D01*
X48220Y-40776D01*
X48220Y-40059D01*
X48220Y-37578D01*
X48220Y-36377D01*
X48218Y-36360D01*
X48217Y-36343D01*
X48216Y-36342D01*
X48216Y-36341D01*
X48211Y-36324D01*
X48206Y-36307D01*
X48206Y-36306D01*
X48206Y-36305D01*
X48198Y-36290D01*
X48189Y-36275D01*
X48189Y-36274D01*
X48188Y-36273D01*
X48177Y-36259D01*
X48166Y-36246D01*
X48165Y-36244D01*
X48165Y-36244D01*
X48165Y-36244D01*
X48165Y-36244D01*
X46856Y-34935D01*
X46842Y-34924D01*
X46829Y-34912D01*
X46828Y-34912D01*
X46827Y-34911D01*
X46812Y-34903D01*
X46796Y-34895D01*
X46795Y-34894D01*
X46795Y-34894D01*
X46778Y-34889D01*
X46761Y-34884D01*
X46760Y-34883D01*
X46759Y-34883D01*
X46742Y-34881D01*
X46725Y-34879D01*
X46723Y-34879D01*
X46723Y-34879D01*
X46723Y-34879D01*
X46722Y-34879D01*
X46443Y-34879D01*
X46443Y-34564D01*
X46443Y-33938D01*
X46442Y-33913D01*
X46437Y-33888D01*
X46427Y-33865D01*
X46413Y-33843D01*
X46395Y-33825D01*
X46374Y-33811D01*
X46350Y-33802D01*
X46325Y-33797D01*
X46038Y-33797D01*
X46005Y-33829D01*
X46005Y-34234D01*
X46410Y-34234D01*
X46442Y-34201D01*
X46443Y-33938D01*
X46443Y-34564D01*
X46442Y-34302D01*
X46410Y-34269D01*
X46005Y-34269D01*
X46005Y-34674D01*
X46038Y-34706D01*
X46325Y-34706D01*
X46350Y-34701D01*
X46374Y-34692D01*
X46395Y-34677D01*
X46413Y-34659D01*
X46427Y-34638D01*
X46437Y-34615D01*
X46442Y-34590D01*
X46443Y-34564D01*
X46443Y-34879D01*
X45784Y-34879D01*
X45587Y-34682D01*
X45602Y-34692D01*
X45625Y-34701D01*
X45650Y-34706D01*
X45937Y-34706D01*
X45970Y-34674D01*
X45970Y-34269D01*
X45970Y-34234D01*
X45970Y-33829D01*
X45937Y-33797D01*
X45650Y-33797D01*
X45625Y-33802D01*
X45602Y-33811D01*
X45580Y-33825D01*
X45562Y-33843D01*
X45548Y-33865D01*
X45538Y-33888D01*
X45533Y-33913D01*
X45533Y-33938D01*
X45533Y-34201D01*
X45565Y-34234D01*
X45970Y-34234D01*
X45970Y-34269D01*
X45565Y-34269D01*
X45533Y-34302D01*
X45533Y-34564D01*
X45533Y-34590D01*
X45538Y-34615D01*
X45548Y-34638D01*
X45558Y-34653D01*
X45514Y-34609D01*
X45519Y-34591D01*
X45523Y-34548D01*
X45523Y-33994D01*
X45519Y-33951D01*
X45506Y-33908D01*
X45485Y-33869D01*
X45456Y-33834D01*
X45422Y-33806D01*
X45382Y-33784D01*
X45339Y-33771D01*
X45296Y-33767D01*
X42675Y-33767D01*
X42632Y-33771D01*
X42589Y-33784D01*
X42550Y-33806D01*
X42515Y-33834D01*
X42487Y-33869D01*
X42466Y-33908D01*
X42453Y-33951D01*
X42448Y-33994D01*
X42448Y-34548D01*
X42453Y-34591D01*
X42466Y-34634D01*
X42487Y-34674D01*
X42515Y-34708D01*
X42550Y-34737D01*
X42589Y-34758D01*
X42632Y-34771D01*
X42675Y-34775D01*
X44220Y-34775D01*
X44208Y-34777D01*
X44181Y-34789D01*
X44157Y-34805D01*
X44136Y-34826D01*
X44119Y-34850D01*
X44108Y-34877D01*
X44102Y-34906D01*
X44102Y-34935D01*
X44102Y-35408D01*
X44108Y-35437D01*
X44119Y-35464D01*
X44135Y-35488D01*
X44156Y-35509D01*
X44180Y-35526D01*
X44207Y-35537D01*
X44236Y-35543D01*
X44265Y-35543D01*
X44738Y-35543D01*
X44767Y-35537D01*
X44794Y-35526D01*
X44819Y-35510D01*
X44840Y-35489D01*
X44856Y-35465D01*
X44867Y-35438D01*
X44873Y-35409D01*
X44873Y-35380D01*
X44873Y-35317D01*
X44894Y-35317D01*
X45202Y-35624D01*
X45213Y-35633D01*
X45224Y-35643D01*
X45225Y-35643D01*
X45226Y-35644D01*
X45239Y-35651D01*
X45252Y-35658D01*
X45252Y-35658D01*
X45253Y-35659D01*
X45267Y-35663D01*
X45281Y-35667D01*
X45282Y-35667D01*
X45283Y-35668D01*
X45298Y-35669D01*
X45312Y-35671D01*
X45314Y-35671D01*
X45314Y-35671D01*
X45314Y-35671D01*
X45314Y-35671D01*
X45760Y-35671D01*
X46709Y-36620D01*
X46700Y-36640D01*
X46691Y-36685D01*
X46690Y-36732D01*
X46699Y-36778D01*
X46716Y-36822D01*
X46741Y-36861D01*
X46774Y-36894D01*
X46812Y-36921D01*
X46855Y-36940D01*
X46900Y-36950D01*
X46947Y-36951D01*
X46993Y-36943D01*
X47037Y-36926D01*
X47076Y-36901D01*
X47110Y-36869D01*
X47137Y-36830D01*
X47156Y-36788D01*
X47166Y-36742D01*
X47167Y-36689D01*
X47158Y-36643D01*
X47140Y-36600D01*
X47114Y-36561D01*
X47081Y-36528D01*
X47042Y-36502D01*
X47042Y-36501D01*
X47041Y-36501D01*
X46310Y-35769D01*
X46317Y-35770D01*
X46363Y-35762D01*
X46407Y-35745D01*
X46446Y-35720D01*
X46480Y-35687D01*
X46507Y-35649D01*
X46526Y-35607D01*
X46536Y-35561D01*
X46537Y-35508D01*
X46528Y-35462D01*
X46510Y-35419D01*
X46484Y-35380D01*
X46451Y-35347D01*
X46413Y-35320D01*
X46369Y-35302D01*
X46324Y-35293D01*
X46286Y-35293D01*
X46251Y-35257D01*
X46644Y-35257D01*
X47842Y-36456D01*
X47842Y-37381D01*
X47809Y-37380D01*
X47798Y-37364D01*
X47755Y-37321D01*
X47705Y-37287D01*
X47650Y-37264D01*
X47591Y-37252D01*
X47531Y-37251D01*
X47471Y-37263D01*
X47416Y-37285D01*
X47365Y-37318D01*
X47322Y-37360D01*
X47288Y-37410D01*
X47264Y-37465D01*
X47252Y-37524D01*
X47251Y-37584D01*
X47262Y-37644D01*
X47284Y-37700D01*
X47317Y-37750D01*
X47359Y-37794D01*
X47408Y-37828D01*
X47463Y-37852D01*
X47522Y-37865D01*
X47582Y-37866D01*
X47642Y-37856D01*
X47698Y-37834D01*
X47749Y-37802D01*
X47792Y-37760D01*
X47794Y-37758D01*
X47842Y-37760D01*
X47842Y-38889D01*
X47837Y-38817D01*
X47789Y-38644D01*
X47708Y-38483D01*
X47685Y-38449D01*
X47570Y-38360D01*
X47545Y-38385D01*
X47545Y-38335D01*
X47456Y-38220D01*
X47299Y-38132D01*
X47128Y-38076D01*
X46950Y-38054D01*
X46770Y-38068D01*
X46597Y-38116D01*
X46436Y-38197D01*
X46401Y-38220D01*
X46312Y-38335D01*
X46929Y-38951D01*
X47545Y-38335D01*
X47545Y-38385D01*
X46954Y-38976D01*
X47570Y-39592D01*
X47685Y-39503D01*
X47773Y-39346D01*
X47829Y-39175D01*
X47842Y-39064D01*
X47842Y-39980D01*
X47545Y-40278D01*
X47545Y-39617D01*
X46929Y-39001D01*
X46904Y-39026D01*
X46904Y-38976D01*
X46287Y-38360D01*
X46173Y-38449D01*
X46085Y-38605D01*
X46029Y-38776D01*
X46007Y-38955D01*
X46021Y-39134D01*
X46069Y-39308D01*
X46150Y-39468D01*
X46173Y-39503D01*
X46287Y-39592D01*
X46904Y-38976D01*
X46904Y-39026D01*
X46312Y-39617D01*
X46401Y-39732D01*
X46558Y-39820D01*
X46729Y-39876D01*
X46908Y-39897D01*
X47087Y-39884D01*
X47260Y-39836D01*
X47421Y-39755D01*
X47456Y-39732D01*
X47545Y-39617D01*
X47545Y-40278D01*
X47461Y-40362D01*
X46338Y-40362D01*
X46321Y-40363D01*
X46303Y-40365D01*
X46302Y-40365D01*
X46301Y-40365D01*
X46285Y-40370D01*
X46268Y-40375D01*
X46267Y-40376D01*
X46266Y-40376D01*
X46251Y-40384D01*
X46235Y-40392D01*
X46234Y-40393D01*
X46234Y-40393D01*
X46220Y-40404D01*
X46206Y-40415D01*
X46205Y-40417D01*
X46205Y-40417D01*
X46205Y-40417D01*
X46204Y-40417D01*
X46022Y-40599D01*
X46016Y-40598D01*
X45956Y-40598D01*
X45949Y-40599D01*
X45949Y-36222D01*
X45940Y-36130D01*
X45914Y-36040D01*
X45870Y-35958D01*
X45868Y-35954D01*
X45798Y-35919D01*
X45773Y-35944D01*
X45773Y-35894D01*
X45738Y-35824D01*
X45656Y-35780D01*
X45567Y-35753D01*
X45474Y-35743D01*
X45382Y-35752D01*
X45292Y-35778D01*
X45210Y-35822D01*
X45206Y-35824D01*
X45171Y-35894D01*
X45472Y-36195D01*
X45773Y-35894D01*
X45773Y-35944D01*
X45497Y-36220D01*
X45798Y-36521D01*
X45868Y-36486D01*
X45912Y-36404D01*
X45939Y-36315D01*
X45949Y-36222D01*
X45949Y-40599D01*
X45897Y-40609D01*
X45841Y-40632D01*
X45790Y-40665D01*
X45773Y-40681D01*
X45773Y-36546D01*
X45472Y-36245D01*
X45447Y-36270D01*
X45447Y-36220D01*
X45146Y-35919D01*
X45076Y-35954D01*
X45032Y-36036D01*
X45005Y-36125D01*
X44995Y-36218D01*
X45004Y-36310D01*
X45030Y-36400D01*
X45074Y-36482D01*
X45076Y-36486D01*
X45146Y-36521D01*
X45447Y-36220D01*
X45447Y-36270D01*
X45171Y-36546D01*
X45206Y-36616D01*
X45288Y-36660D01*
X45377Y-36687D01*
X45470Y-36697D01*
X45562Y-36688D01*
X45652Y-36662D01*
X45734Y-36618D01*
X45738Y-36616D01*
X45773Y-36546D01*
X45773Y-40681D01*
X45747Y-40707D01*
X45713Y-40756D01*
X45690Y-40812D01*
X45677Y-40871D01*
X45676Y-40931D01*
X45687Y-40990D01*
X45709Y-41046D01*
X45742Y-41097D01*
X45784Y-41140D01*
X45833Y-41174D01*
X45888Y-41198D01*
X45947Y-41211D01*
X46007Y-41213D01*
X46067Y-41202D01*
X46123Y-41180D01*
X46174Y-41148D01*
X46217Y-41107D01*
X46252Y-41057D01*
X46277Y-41002D01*
X46290Y-40944D01*
X46291Y-40875D01*
X46289Y-40867D01*
X46416Y-40740D01*
X47539Y-40740D01*
X47556Y-40738D01*
X47574Y-40736D01*
X47575Y-40736D01*
X47576Y-40736D01*
X47592Y-40731D01*
X47609Y-40726D01*
X47610Y-40726D01*
X47611Y-40725D01*
X47626Y-40717D01*
X47642Y-40709D01*
X47643Y-40709D01*
X47643Y-40708D01*
X47657Y-40697D01*
X47671Y-40686D01*
X47672Y-40685D01*
X47672Y-40685D01*
X47672Y-40685D01*
X47672Y-40684D01*
X48165Y-40192D01*
X48176Y-40179D01*
X48187Y-40165D01*
X48187Y-40164D01*
X48188Y-40164D01*
X48196Y-40148D01*
X48205Y-40133D01*
X48205Y-40132D01*
X48205Y-40131D01*
X48211Y-40115D01*
X48216Y-40098D01*
X48216Y-40097D01*
X48216Y-40096D01*
X48218Y-40079D01*
X48220Y-40061D01*
X48220Y-40059D01*
X48220Y-40059D01*
X48220Y-40059D01*
X48220Y-40059D01*
X48220Y-40776D01*
X48183Y-40779D01*
X48169Y-40784D01*
X48131Y-40776D01*
X47944Y-40774D01*
X47760Y-40810D01*
X47586Y-40880D01*
X47429Y-40983D01*
X47295Y-41114D01*
X47189Y-41269D01*
X47115Y-41441D01*
X47076Y-41625D01*
X47073Y-41812D01*
X47083Y-41868D01*
X47079Y-41884D01*
X47074Y-41927D01*
X47074Y-42619D01*
X47079Y-42662D01*
X47079Y-42665D01*
X45966Y-42665D01*
X45966Y-41880D01*
X45947Y-41785D01*
X45910Y-41696D01*
X45857Y-41615D01*
X45788Y-41546D01*
X45708Y-41492D01*
X45619Y-41454D01*
X45524Y-41435D01*
X45435Y-41434D01*
X45435Y-39543D01*
X45425Y-39497D01*
X45408Y-39454D01*
X45382Y-39415D01*
X45356Y-39389D01*
X45356Y-39107D01*
X45365Y-39094D01*
X45384Y-39051D01*
X45394Y-39006D01*
X45395Y-38953D01*
X45386Y-38907D01*
X45368Y-38864D01*
X45342Y-38825D01*
X45310Y-38791D01*
X45271Y-38765D01*
X45228Y-38747D01*
X45182Y-38738D01*
X45135Y-38738D01*
X45089Y-38746D01*
X45046Y-38764D01*
X45007Y-38789D01*
X44974Y-38822D01*
X44947Y-38861D01*
X44929Y-38904D01*
X44919Y-38949D01*
X44918Y-38996D01*
X44927Y-39042D01*
X44944Y-39085D01*
X44969Y-39125D01*
X45002Y-39158D01*
X45037Y-39183D01*
X45037Y-39389D01*
X45013Y-39413D01*
X44987Y-39451D01*
X44968Y-39494D01*
X44959Y-39540D01*
X44958Y-39586D01*
X44966Y-39632D01*
X44983Y-39676D01*
X45009Y-39715D01*
X45041Y-39749D01*
X45080Y-39775D01*
X45122Y-39794D01*
X45168Y-39804D01*
X45215Y-39805D01*
X45261Y-39797D01*
X45304Y-39780D01*
X45344Y-39755D01*
X45378Y-39723D01*
X45404Y-39685D01*
X45423Y-39642D01*
X45434Y-39596D01*
X45435Y-39543D01*
X45435Y-41434D01*
X45427Y-41434D01*
X45332Y-41452D01*
X45242Y-41489D01*
X45161Y-41542D01*
X45092Y-41609D01*
X45037Y-41689D01*
X44999Y-41779D01*
X44979Y-41873D01*
X44977Y-41970D01*
X44995Y-42065D01*
X45030Y-42156D01*
X45083Y-42237D01*
X45150Y-42307D01*
X45230Y-42362D01*
X45319Y-42401D01*
X45413Y-42422D01*
X45510Y-42424D01*
X45605Y-42407D01*
X45696Y-42372D01*
X45778Y-42320D01*
X45848Y-42253D01*
X45904Y-42174D01*
X45943Y-42085D01*
X45965Y-41991D01*
X45966Y-41880D01*
X45966Y-42665D01*
X44964Y-42665D01*
X44964Y-41931D01*
X44956Y-41838D01*
X44929Y-41749D01*
X44886Y-41667D01*
X44883Y-41663D01*
X44854Y-41648D01*
X44854Y-36232D01*
X44854Y-35735D01*
X44849Y-35710D01*
X44839Y-35686D01*
X44825Y-35665D01*
X44807Y-35647D01*
X44786Y-35633D01*
X44762Y-35623D01*
X44737Y-35618D01*
X44712Y-35617D01*
X44538Y-35617D01*
X44505Y-35650D01*
X44505Y-35966D01*
X44821Y-35966D01*
X44854Y-35933D01*
X44854Y-35735D01*
X44854Y-36232D01*
X44854Y-36034D01*
X44821Y-36001D01*
X44505Y-36001D01*
X44505Y-36317D01*
X44538Y-36349D01*
X44712Y-36349D01*
X44737Y-36349D01*
X44762Y-36344D01*
X44786Y-36334D01*
X44807Y-36320D01*
X44825Y-36302D01*
X44839Y-36281D01*
X44849Y-36257D01*
X44854Y-36232D01*
X44854Y-41648D01*
X44814Y-41627D01*
X44789Y-41652D01*
X44789Y-41602D01*
X44753Y-41533D01*
X44671Y-41489D01*
X44582Y-41461D01*
X44490Y-41452D01*
X44397Y-41461D01*
X44308Y-41487D01*
X44226Y-41530D01*
X44222Y-41533D01*
X44186Y-41602D01*
X44488Y-41904D01*
X44789Y-41602D01*
X44789Y-41652D01*
X44513Y-41929D01*
X44814Y-42230D01*
X44883Y-42194D01*
X44928Y-42112D01*
X44955Y-42023D01*
X44964Y-41931D01*
X44964Y-42665D01*
X44789Y-42665D01*
X44789Y-42255D01*
X44488Y-41954D01*
X44463Y-41979D01*
X44463Y-41929D01*
X44161Y-41627D01*
X44092Y-41663D01*
X44048Y-41745D01*
X44021Y-41834D01*
X44011Y-41926D01*
X44020Y-42019D01*
X44046Y-42108D01*
X44089Y-42191D01*
X44092Y-42194D01*
X44161Y-42230D01*
X44463Y-41929D01*
X44463Y-41979D01*
X44186Y-42255D01*
X44222Y-42324D01*
X44304Y-42369D01*
X44393Y-42396D01*
X44485Y-42405D01*
X44578Y-42397D01*
X44667Y-42370D01*
X44750Y-42327D01*
X44753Y-42324D01*
X44789Y-42255D01*
X44789Y-42665D01*
X43998Y-42665D01*
X43998Y-41880D01*
X43979Y-41785D01*
X43942Y-41696D01*
X43888Y-41615D01*
X43820Y-41546D01*
X43740Y-41492D01*
X43650Y-41454D01*
X43555Y-41435D01*
X43458Y-41434D01*
X43363Y-41452D01*
X43273Y-41489D01*
X43192Y-41542D01*
X43123Y-41609D01*
X43068Y-41689D01*
X43030Y-41779D01*
X43010Y-41873D01*
X43009Y-41970D01*
X43026Y-42065D01*
X43062Y-42156D01*
X43114Y-42237D01*
X43182Y-42307D01*
X43261Y-42362D01*
X43350Y-42401D01*
X43445Y-42422D01*
X43542Y-42424D01*
X43637Y-42407D01*
X43727Y-42372D01*
X43809Y-42320D01*
X43879Y-42253D01*
X43935Y-42174D01*
X43975Y-42085D01*
X43996Y-41991D01*
X43998Y-41880D01*
X43998Y-42665D01*
X41901Y-42665D01*
X41901Y-41700D01*
X41900Y-41700D01*
X41901Y-41638D01*
X41865Y-41454D01*
X41793Y-41280D01*
X41689Y-41124D01*
X41557Y-40991D01*
X41402Y-40886D01*
X41229Y-40813D01*
X41045Y-40776D01*
X40976Y-40775D01*
X40976Y-40775D01*
X40954Y-40775D01*
X40857Y-40774D01*
X40854Y-40775D01*
X40011Y-40775D01*
X40011Y-37930D01*
X40016Y-37944D01*
X40050Y-38008D01*
X40110Y-38033D01*
X40348Y-37795D01*
X40110Y-37556D01*
X40050Y-37581D01*
X40015Y-37648D01*
X40011Y-37659D01*
X40011Y-37433D01*
X40239Y-37433D01*
X40224Y-37437D01*
X40160Y-37471D01*
X40135Y-37531D01*
X40374Y-37770D01*
X40379Y-37764D01*
X40404Y-37789D01*
X40399Y-37795D01*
X40404Y-37800D01*
X40379Y-37825D01*
X40374Y-37820D01*
X40135Y-38058D01*
X40160Y-38119D01*
X40227Y-38154D01*
X40300Y-38175D01*
X40375Y-38182D01*
X40450Y-38175D01*
X40517Y-38154D01*
X40359Y-38312D01*
X40350Y-38323D01*
X40340Y-38335D01*
X40340Y-38335D01*
X40339Y-38336D01*
X40332Y-38349D01*
X40325Y-38362D01*
X40325Y-38363D01*
X40325Y-38363D01*
X40320Y-38377D01*
X40316Y-38392D01*
X40316Y-38392D01*
X40316Y-38393D01*
X40314Y-38408D01*
X40313Y-38422D01*
X40312Y-38424D01*
X40312Y-38424D01*
X40312Y-38424D01*
X40312Y-38425D01*
X40312Y-39527D01*
X40314Y-39542D01*
X40315Y-39556D01*
X40315Y-39557D01*
X40316Y-39558D01*
X40320Y-39572D01*
X40324Y-39586D01*
X40324Y-39587D01*
X40325Y-39588D01*
X40331Y-39601D01*
X40338Y-39614D01*
X40339Y-39615D01*
X40339Y-39615D01*
X40348Y-39627D01*
X40358Y-39638D01*
X40359Y-39639D01*
X40359Y-39639D01*
X40359Y-39639D01*
X40359Y-39640D01*
X40635Y-39915D01*
X40646Y-39925D01*
X40657Y-39934D01*
X40658Y-39935D01*
X40659Y-39935D01*
X40672Y-39942D01*
X40685Y-39949D01*
X40686Y-39949D01*
X40686Y-39950D01*
X40700Y-39954D01*
X40714Y-39959D01*
X40715Y-39959D01*
X40716Y-39959D01*
X40731Y-39960D01*
X40745Y-39962D01*
X40747Y-39962D01*
X40747Y-39962D01*
X40747Y-39962D01*
X40748Y-39962D01*
X40957Y-39962D01*
X41304Y-40309D01*
X41315Y-40318D01*
X41327Y-40328D01*
X41327Y-40328D01*
X41328Y-40329D01*
X41341Y-40336D01*
X41354Y-40343D01*
X41355Y-40343D01*
X41356Y-40344D01*
X41370Y-40348D01*
X41384Y-40352D01*
X41385Y-40352D01*
X41385Y-40353D01*
X41400Y-40354D01*
X41415Y-40356D01*
X41416Y-40356D01*
X41416Y-40356D01*
X41416Y-40356D01*
X41417Y-40356D01*
X42795Y-40356D01*
X42809Y-40354D01*
X42824Y-40353D01*
X42825Y-40353D01*
X42826Y-40353D01*
X42840Y-40349D01*
X42854Y-40344D01*
X42855Y-40344D01*
X42856Y-40344D01*
X42869Y-40337D01*
X42882Y-40330D01*
X42882Y-40330D01*
X42883Y-40329D01*
X42894Y-40320D01*
X42906Y-40311D01*
X42907Y-40310D01*
X42907Y-40309D01*
X42907Y-40309D01*
X42908Y-40309D01*
X43301Y-39915D01*
X43311Y-39904D01*
X43320Y-39893D01*
X43320Y-39892D01*
X43321Y-39891D01*
X43328Y-39878D01*
X43335Y-39865D01*
X43335Y-39865D01*
X43336Y-39864D01*
X43340Y-39850D01*
X43344Y-39836D01*
X43345Y-39835D01*
X43345Y-39834D01*
X43346Y-39820D01*
X43348Y-39805D01*
X43348Y-39803D01*
X43348Y-39803D01*
X43348Y-39803D01*
X43348Y-39803D01*
X43348Y-39232D01*
X43370Y-39211D01*
X43397Y-39173D01*
X43416Y-39130D01*
X43426Y-39085D01*
X43427Y-39031D01*
X43418Y-38985D01*
X43400Y-38942D01*
X43374Y-38903D01*
X43341Y-38870D01*
X43302Y-38844D01*
X43259Y-38826D01*
X43213Y-38817D01*
X43167Y-38816D01*
X43121Y-38825D01*
X43078Y-38843D01*
X43039Y-38868D01*
X43005Y-38901D01*
X42979Y-38939D01*
X42964Y-38974D01*
X42964Y-38958D01*
X42931Y-38958D01*
X42950Y-38815D01*
X42942Y-38774D01*
X42885Y-38604D01*
X42807Y-38465D01*
X42918Y-38577D01*
X42930Y-38586D01*
X42941Y-38596D01*
X42942Y-38596D01*
X42942Y-38597D01*
X42955Y-38604D01*
X42968Y-38611D01*
X42969Y-38611D01*
X42970Y-38611D01*
X42984Y-38616D01*
X42998Y-38620D01*
X42999Y-38620D01*
X42999Y-38620D01*
X43014Y-38622D01*
X43029Y-38624D01*
X43030Y-38624D01*
X43030Y-38624D01*
X43030Y-38624D01*
X43031Y-38624D01*
X43366Y-38624D01*
X43380Y-38622D01*
X43395Y-38621D01*
X43396Y-38621D01*
X43397Y-38620D01*
X43411Y-38616D01*
X43425Y-38612D01*
X43426Y-38612D01*
X43426Y-38611D01*
X43439Y-38605D01*
X43452Y-38598D01*
X43453Y-38597D01*
X43454Y-38597D01*
X43465Y-38588D01*
X43477Y-38578D01*
X43478Y-38577D01*
X43478Y-38577D01*
X43478Y-38577D01*
X43478Y-38577D01*
X43727Y-38328D01*
X43758Y-38329D01*
X43804Y-38321D01*
X43848Y-38304D01*
X43887Y-38279D01*
X43895Y-38271D01*
X43895Y-38897D01*
X43897Y-38912D01*
X43898Y-38926D01*
X43898Y-38927D01*
X43898Y-38928D01*
X43902Y-38942D01*
X43907Y-38956D01*
X43907Y-38957D01*
X43907Y-38958D01*
X43914Y-38971D01*
X43921Y-38984D01*
X43921Y-38985D01*
X43922Y-38985D01*
X43931Y-38997D01*
X43935Y-39001D01*
X43934Y-39035D01*
X43943Y-39081D01*
X43960Y-39125D01*
X43985Y-39164D01*
X44018Y-39198D01*
X44056Y-39224D01*
X44099Y-39243D01*
X44144Y-39253D01*
X44191Y-39254D01*
X44237Y-39246D01*
X44281Y-39229D01*
X44320Y-39204D01*
X44354Y-39172D01*
X44381Y-39133D01*
X44400Y-39091D01*
X44410Y-39045D01*
X44411Y-38992D01*
X44402Y-38946D01*
X44384Y-38903D01*
X44358Y-38864D01*
X44325Y-38831D01*
X44287Y-38805D01*
X44244Y-38787D01*
X44214Y-38781D01*
X44214Y-36344D01*
X44238Y-36349D01*
X44264Y-36349D01*
X44437Y-36349D01*
X44470Y-36317D01*
X44470Y-36001D01*
X44462Y-36001D01*
X44462Y-35966D01*
X44470Y-35966D01*
X44470Y-35650D01*
X44437Y-35617D01*
X44264Y-35617D01*
X44238Y-35618D01*
X44213Y-35623D01*
X44190Y-35633D01*
X44168Y-35647D01*
X44151Y-35665D01*
X44136Y-35686D01*
X44127Y-35710D01*
X44122Y-35735D01*
X44122Y-35786D01*
X43852Y-35517D01*
X43841Y-35507D01*
X43830Y-35498D01*
X43829Y-35497D01*
X43828Y-35497D01*
X43815Y-35490D01*
X43802Y-35483D01*
X43802Y-35483D01*
X43801Y-35482D01*
X43787Y-35478D01*
X43773Y-35473D01*
X43772Y-35473D01*
X43771Y-35473D01*
X43757Y-35472D01*
X43755Y-35471D01*
X43772Y-35447D01*
X43796Y-35392D01*
X43810Y-35333D01*
X43811Y-35265D01*
X43799Y-35206D01*
X43776Y-35150D01*
X43743Y-35100D01*
X43700Y-35057D01*
X43650Y-35023D01*
X43595Y-35000D01*
X43536Y-34988D01*
X43475Y-34987D01*
X43416Y-34999D01*
X43360Y-35021D01*
X43310Y-35054D01*
X43267Y-35096D01*
X43261Y-35106D01*
X43129Y-35106D01*
X43112Y-35108D01*
X43095Y-35109D01*
X43094Y-35109D01*
X43093Y-35109D01*
X43076Y-35114D01*
X43059Y-35119D01*
X43058Y-35120D01*
X43057Y-35120D01*
X43042Y-35128D01*
X43026Y-35136D01*
X43026Y-35137D01*
X43025Y-35137D01*
X43011Y-35148D01*
X42998Y-35159D01*
X42996Y-35161D01*
X42996Y-35161D01*
X42996Y-35161D01*
X42996Y-35161D01*
X42677Y-35480D01*
X41415Y-35480D01*
X41536Y-35403D01*
X41672Y-35273D01*
X41780Y-35120D01*
X41857Y-34949D01*
X41898Y-34766D01*
X41901Y-34551D01*
X41892Y-34507D01*
X41897Y-34493D01*
X41901Y-34450D01*
X41901Y-33758D01*
X41897Y-33715D01*
X41896Y-33712D01*
X47079Y-33712D01*
X47079Y-33715D01*
X47074Y-33758D01*
X47074Y-34450D01*
X47079Y-34493D01*
X47082Y-34506D01*
X47076Y-34538D01*
X47073Y-34726D01*
X47107Y-34910D01*
X47176Y-35085D01*
X47278Y-35242D01*
X47408Y-35377D01*
X47562Y-35484D01*
X47734Y-35559D01*
X47917Y-35600D01*
X48105Y-35604D01*
X48167Y-35593D01*
X48183Y-35598D01*
X48226Y-35602D01*
X48918Y-35602D01*
X48961Y-35598D01*
X48964Y-35597D01*
X48964Y-40780D01*
X48964Y-40780D01*
G37*
G54D27*
X48964Y-40780D02*
X48961Y-40779D01*
X48918Y-40775D01*
X48226Y-40775D01*
X48220Y-40776D01*
X48220Y-40059D01*
X48220Y-37578D01*
X48220Y-36377D01*
X48218Y-36360D01*
X48217Y-36343D01*
X48216Y-36342D01*
X48216Y-36341D01*
X48211Y-36324D01*
X48206Y-36307D01*
X48206Y-36306D01*
X48206Y-36305D01*
X48198Y-36290D01*
X48189Y-36275D01*
X48189Y-36274D01*
X48188Y-36273D01*
X48177Y-36259D01*
X48166Y-36246D01*
X48165Y-36244D01*
X48165Y-36244D01*
X48165Y-36244D01*
X48165Y-36244D01*
X46856Y-34935D01*
X46842Y-34924D01*
X46829Y-34912D01*
X46828Y-34912D01*
X46827Y-34911D01*
X46812Y-34903D01*
X46796Y-34895D01*
X46795Y-34894D01*
X46795Y-34894D01*
X46778Y-34889D01*
X46761Y-34884D01*
X46760Y-34883D01*
X46759Y-34883D01*
X46742Y-34881D01*
X46725Y-34879D01*
X46723Y-34879D01*
X46723Y-34879D01*
X46723Y-34879D01*
X46722Y-34879D01*
X46443Y-34879D01*
X46443Y-34564D01*
X46443Y-33938D01*
X46442Y-33913D01*
X46437Y-33888D01*
X46427Y-33865D01*
X46413Y-33843D01*
X46395Y-33825D01*
X46374Y-33811D01*
X46350Y-33802D01*
X46325Y-33797D01*
X46038Y-33797D01*
X46005Y-33829D01*
X46005Y-34234D01*
X46410Y-34234D01*
X46442Y-34201D01*
X46443Y-33938D01*
X46443Y-34564D01*
X46442Y-34302D01*
X46410Y-34269D01*
X46005Y-34269D01*
X46005Y-34674D01*
X46038Y-34706D01*
X46325Y-34706D01*
X46350Y-34701D01*
X46374Y-34692D01*
X46395Y-34677D01*
X46413Y-34659D01*
X46427Y-34638D01*
X46437Y-34615D01*
X46442Y-34590D01*
X46443Y-34564D01*
X46443Y-34879D01*
X45784Y-34879D01*
X45587Y-34682D01*
X45602Y-34692D01*
X45625Y-34701D01*
X45650Y-34706D01*
X45937Y-34706D01*
X45970Y-34674D01*
X45970Y-34269D01*
X45970Y-34234D01*
X45970Y-33829D01*
X45937Y-33797D01*
X45650Y-33797D01*
X45625Y-33802D01*
X45602Y-33811D01*
X45580Y-33825D01*
X45562Y-33843D01*
X45548Y-33865D01*
X45538Y-33888D01*
X45533Y-33913D01*
X45533Y-33938D01*
X45533Y-34201D01*
X45565Y-34234D01*
X45970Y-34234D01*
X45970Y-34269D01*
X45565Y-34269D01*
X45533Y-34302D01*
X45533Y-34564D01*
X45533Y-34590D01*
X45538Y-34615D01*
X45548Y-34638D01*
X45558Y-34653D01*
X45514Y-34609D01*
X45519Y-34591D01*
X45523Y-34548D01*
X45523Y-33994D01*
X45519Y-33951D01*
X45506Y-33908D01*
X45485Y-33869D01*
X45456Y-33834D01*
X45422Y-33806D01*
X45382Y-33784D01*
X45339Y-33771D01*
X45296Y-33767D01*
X42675Y-33767D01*
X42632Y-33771D01*
X42589Y-33784D01*
X42550Y-33806D01*
X42515Y-33834D01*
X42487Y-33869D01*
X42466Y-33908D01*
X42453Y-33951D01*
X42448Y-33994D01*
X42448Y-34548D01*
X42453Y-34591D01*
X42466Y-34634D01*
X42487Y-34674D01*
X42515Y-34708D01*
X42550Y-34737D01*
X42589Y-34758D01*
X42632Y-34771D01*
X42675Y-34775D01*
X44220Y-34775D01*
X44208Y-34777D01*
X44181Y-34789D01*
X44157Y-34805D01*
X44136Y-34826D01*
X44119Y-34850D01*
X44108Y-34877D01*
X44102Y-34906D01*
X44102Y-34935D01*
X44102Y-35408D01*
X44108Y-35437D01*
X44119Y-35464D01*
X44135Y-35488D01*
X44156Y-35509D01*
X44180Y-35526D01*
X44207Y-35537D01*
X44236Y-35543D01*
X44265Y-35543D01*
X44738Y-35543D01*
X44767Y-35537D01*
X44794Y-35526D01*
X44819Y-35510D01*
X44840Y-35489D01*
X44856Y-35465D01*
X44867Y-35438D01*
X44873Y-35409D01*
X44873Y-35380D01*
X44873Y-35317D01*
X44894Y-35317D01*
X45202Y-35624D01*
X45213Y-35633D01*
X45224Y-35643D01*
X45225Y-35643D01*
X45226Y-35644D01*
X45239Y-35651D01*
X45252Y-35658D01*
X45252Y-35658D01*
X45253Y-35659D01*
X45267Y-35663D01*
X45281Y-35667D01*
X45282Y-35667D01*
X45283Y-35668D01*
X45298Y-35669D01*
X45312Y-35671D01*
X45314Y-35671D01*
X45314Y-35671D01*
X45314Y-35671D01*
X45314Y-35671D01*
X45760Y-35671D01*
X46709Y-36620D01*
X46700Y-36640D01*
X46691Y-36685D01*
X46690Y-36732D01*
X46699Y-36778D01*
X46716Y-36822D01*
X46741Y-36861D01*
X46774Y-36894D01*
X46812Y-36921D01*
X46855Y-36940D01*
X46900Y-36950D01*
X46947Y-36951D01*
X46993Y-36943D01*
X47037Y-36926D01*
X47076Y-36901D01*
X47110Y-36869D01*
X47137Y-36830D01*
X47156Y-36788D01*
X47166Y-36742D01*
X47167Y-36689D01*
X47158Y-36643D01*
X47140Y-36600D01*
X47114Y-36561D01*
X47081Y-36528D01*
X47042Y-36502D01*
X47042Y-36501D01*
X47041Y-36501D01*
X46310Y-35769D01*
X46317Y-35770D01*
X46363Y-35762D01*
X46407Y-35745D01*
X46446Y-35720D01*
X46480Y-35687D01*
X46507Y-35649D01*
X46526Y-35607D01*
X46536Y-35561D01*
X46537Y-35508D01*
X46528Y-35462D01*
X46510Y-35419D01*
X46484Y-35380D01*
X46451Y-35347D01*
X46413Y-35320D01*
X46369Y-35302D01*
X46324Y-35293D01*
X46286Y-35293D01*
X46251Y-35257D01*
X46644Y-35257D01*
X47842Y-36456D01*
X47842Y-37381D01*
X47809Y-37380D01*
X47798Y-37364D01*
X47755Y-37321D01*
X47705Y-37287D01*
X47650Y-37264D01*
X47591Y-37252D01*
X47531Y-37251D01*
X47471Y-37263D01*
X47416Y-37285D01*
X47365Y-37318D01*
X47322Y-37360D01*
X47288Y-37410D01*
X47264Y-37465D01*
X47252Y-37524D01*
X47251Y-37584D01*
X47262Y-37644D01*
X47284Y-37700D01*
X47317Y-37750D01*
X47359Y-37794D01*
X47408Y-37828D01*
X47463Y-37852D01*
X47522Y-37865D01*
X47582Y-37866D01*
X47642Y-37856D01*
X47698Y-37834D01*
X47749Y-37802D01*
X47792Y-37760D01*
X47794Y-37758D01*
X47842Y-37760D01*
X47842Y-38889D01*
X47837Y-38817D01*
X47789Y-38644D01*
X47708Y-38483D01*
X47685Y-38449D01*
X47570Y-38360D01*
X47545Y-38385D01*
X47545Y-38335D01*
X47456Y-38220D01*
X47299Y-38132D01*
X47128Y-38076D01*
X46950Y-38054D01*
X46770Y-38068D01*
X46597Y-38116D01*
X46436Y-38197D01*
X46401Y-38220D01*
X46312Y-38335D01*
X46929Y-38951D01*
X47545Y-38335D01*
X47545Y-38385D01*
X46954Y-38976D01*
X47570Y-39592D01*
X47685Y-39503D01*
X47773Y-39346D01*
X47829Y-39175D01*
X47842Y-39064D01*
X47842Y-39980D01*
X47545Y-40278D01*
X47545Y-39617D01*
X46929Y-39001D01*
X46904Y-39026D01*
X46904Y-38976D01*
X46287Y-38360D01*
X46173Y-38449D01*
X46085Y-38605D01*
X46029Y-38776D01*
X46007Y-38955D01*
X46021Y-39134D01*
X46069Y-39308D01*
X46150Y-39468D01*
X46173Y-39503D01*
X46287Y-39592D01*
X46904Y-38976D01*
X46904Y-39026D01*
X46312Y-39617D01*
X46401Y-39732D01*
X46558Y-39820D01*
X46729Y-39876D01*
X46908Y-39897D01*
X47087Y-39884D01*
X47260Y-39836D01*
X47421Y-39755D01*
X47456Y-39732D01*
X47545Y-39617D01*
X47545Y-40278D01*
X47461Y-40362D01*
X46338Y-40362D01*
X46321Y-40363D01*
X46303Y-40365D01*
X46302Y-40365D01*
X46301Y-40365D01*
X46285Y-40370D01*
X46268Y-40375D01*
X46267Y-40376D01*
X46266Y-40376D01*
X46251Y-40384D01*
X46235Y-40392D01*
X46234Y-40393D01*
X46234Y-40393D01*
X46220Y-40404D01*
X46206Y-40415D01*
X46205Y-40417D01*
X46205Y-40417D01*
X46205Y-40417D01*
X46204Y-40417D01*
X46022Y-40599D01*
X46016Y-40598D01*
X45956Y-40598D01*
X45949Y-40599D01*
X45949Y-36222D01*
X45940Y-36130D01*
X45914Y-36040D01*
X45870Y-35958D01*
X45868Y-35954D01*
X45798Y-35919D01*
X45773Y-35944D01*
X45773Y-35894D01*
X45738Y-35824D01*
X45656Y-35780D01*
X45567Y-35753D01*
X45474Y-35743D01*
X45382Y-35752D01*
X45292Y-35778D01*
X45210Y-35822D01*
X45206Y-35824D01*
X45171Y-35894D01*
X45472Y-36195D01*
X45773Y-35894D01*
X45773Y-35944D01*
X45497Y-36220D01*
X45798Y-36521D01*
X45868Y-36486D01*
X45912Y-36404D01*
X45939Y-36315D01*
X45949Y-36222D01*
X45949Y-40599D01*
X45897Y-40609D01*
X45841Y-40632D01*
X45790Y-40665D01*
X45773Y-40681D01*
X45773Y-36546D01*
X45472Y-36245D01*
X45447Y-36270D01*
X45447Y-36220D01*
X45146Y-35919D01*
X45076Y-35954D01*
X45032Y-36036D01*
X45005Y-36125D01*
X44995Y-36218D01*
X45004Y-36310D01*
X45030Y-36400D01*
X45074Y-36482D01*
X45076Y-36486D01*
X45146Y-36521D01*
X45447Y-36220D01*
X45447Y-36270D01*
X45171Y-36546D01*
X45206Y-36616D01*
X45288Y-36660D01*
X45377Y-36687D01*
X45470Y-36697D01*
X45562Y-36688D01*
X45652Y-36662D01*
X45734Y-36618D01*
X45738Y-36616D01*
X45773Y-36546D01*
X45773Y-40681D01*
X45747Y-40707D01*
X45713Y-40756D01*
X45690Y-40812D01*
X45677Y-40871D01*
X45676Y-40931D01*
X45687Y-40990D01*
X45709Y-41046D01*
X45742Y-41097D01*
X45784Y-41140D01*
X45833Y-41174D01*
X45888Y-41198D01*
X45947Y-41211D01*
X46007Y-41213D01*
X46067Y-41202D01*
X46123Y-41180D01*
X46174Y-41148D01*
X46217Y-41107D01*
X46252Y-41057D01*
X46277Y-41002D01*
X46290Y-40944D01*
X46291Y-40875D01*
X46289Y-40867D01*
X46416Y-40740D01*
X47539Y-40740D01*
X47556Y-40738D01*
X47574Y-40736D01*
X47575Y-40736D01*
X47576Y-40736D01*
X47592Y-40731D01*
X47609Y-40726D01*
X47610Y-40726D01*
X47611Y-40725D01*
X47626Y-40717D01*
X47642Y-40709D01*
X47643Y-40709D01*
X47643Y-40708D01*
X47657Y-40697D01*
X47671Y-40686D01*
X47672Y-40685D01*
X47672Y-40685D01*
X47672Y-40685D01*
X47672Y-40684D01*
X48165Y-40192D01*
X48176Y-40179D01*
X48187Y-40165D01*
X48187Y-40164D01*
X48188Y-40164D01*
X48196Y-40148D01*
X48205Y-40133D01*
X48205Y-40132D01*
X48205Y-40131D01*
X48211Y-40115D01*
X48216Y-40098D01*
X48216Y-40097D01*
X48216Y-40096D01*
X48218Y-40079D01*
X48220Y-40061D01*
X48220Y-40059D01*
X48220Y-40059D01*
X48220Y-40059D01*
X48220Y-40059D01*
X48220Y-40776D01*
X48183Y-40779D01*
X48169Y-40784D01*
X48131Y-40776D01*
X47944Y-40774D01*
X47760Y-40810D01*
X47586Y-40880D01*
X47429Y-40983D01*
X47295Y-41114D01*
X47189Y-41269D01*
X47115Y-41441D01*
X47076Y-41625D01*
X47073Y-41812D01*
X47083Y-41868D01*
X47079Y-41884D01*
X47074Y-41927D01*
X47074Y-42619D01*
X47079Y-42662D01*
X47079Y-42665D01*
X45966Y-42665D01*
X45966Y-41880D01*
X45947Y-41785D01*
X45910Y-41696D01*
X45857Y-41615D01*
X45788Y-41546D01*
X45708Y-41492D01*
X45619Y-41454D01*
X45524Y-41435D01*
X45435Y-41434D01*
X45435Y-39543D01*
X45425Y-39497D01*
X45408Y-39454D01*
X45382Y-39415D01*
X45356Y-39389D01*
X45356Y-39107D01*
X45365Y-39094D01*
X45384Y-39051D01*
X45394Y-39006D01*
X45395Y-38953D01*
X45386Y-38907D01*
X45368Y-38864D01*
X45342Y-38825D01*
X45310Y-38791D01*
X45271Y-38765D01*
X45228Y-38747D01*
X45182Y-38738D01*
X45135Y-38738D01*
X45089Y-38746D01*
X45046Y-38764D01*
X45007Y-38789D01*
X44974Y-38822D01*
X44947Y-38861D01*
X44929Y-38904D01*
X44919Y-38949D01*
X44918Y-38996D01*
X44927Y-39042D01*
X44944Y-39085D01*
X44969Y-39125D01*
X45002Y-39158D01*
X45037Y-39183D01*
X45037Y-39389D01*
X45013Y-39413D01*
X44987Y-39451D01*
X44968Y-39494D01*
X44959Y-39540D01*
X44958Y-39586D01*
X44966Y-39632D01*
X44983Y-39676D01*
X45009Y-39715D01*
X45041Y-39749D01*
X45080Y-39775D01*
X45122Y-39794D01*
X45168Y-39804D01*
X45215Y-39805D01*
X45261Y-39797D01*
X45304Y-39780D01*
X45344Y-39755D01*
X45378Y-39723D01*
X45404Y-39685D01*
X45423Y-39642D01*
X45434Y-39596D01*
X45435Y-39543D01*
X45435Y-41434D01*
X45427Y-41434D01*
X45332Y-41452D01*
X45242Y-41489D01*
X45161Y-41542D01*
X45092Y-41609D01*
X45037Y-41689D01*
X44999Y-41779D01*
X44979Y-41873D01*
X44977Y-41970D01*
X44995Y-42065D01*
X45030Y-42156D01*
X45083Y-42237D01*
X45150Y-42307D01*
X45230Y-42362D01*
X45319Y-42401D01*
X45413Y-42422D01*
X45510Y-42424D01*
X45605Y-42407D01*
X45696Y-42372D01*
X45778Y-42320D01*
X45848Y-42253D01*
X45904Y-42174D01*
X45943Y-42085D01*
X45965Y-41991D01*
X45966Y-41880D01*
X45966Y-42665D01*
X44964Y-42665D01*
X44964Y-41931D01*
X44956Y-41838D01*
X44929Y-41749D01*
X44886Y-41667D01*
X44883Y-41663D01*
X44854Y-41648D01*
X44854Y-36232D01*
X44854Y-35735D01*
X44849Y-35710D01*
X44839Y-35686D01*
X44825Y-35665D01*
X44807Y-35647D01*
X44786Y-35633D01*
X44762Y-35623D01*
X44737Y-35618D01*
X44712Y-35617D01*
X44538Y-35617D01*
X44505Y-35650D01*
X44505Y-35966D01*
X44821Y-35966D01*
X44854Y-35933D01*
X44854Y-35735D01*
X44854Y-36232D01*
X44854Y-36034D01*
X44821Y-36001D01*
X44505Y-36001D01*
X44505Y-36317D01*
X44538Y-36349D01*
X44712Y-36349D01*
X44737Y-36349D01*
X44762Y-36344D01*
X44786Y-36334D01*
X44807Y-36320D01*
X44825Y-36302D01*
X44839Y-36281D01*
X44849Y-36257D01*
X44854Y-36232D01*
X44854Y-41648D01*
X44814Y-41627D01*
X44789Y-41652D01*
X44789Y-41602D01*
X44753Y-41533D01*
X44671Y-41489D01*
X44582Y-41461D01*
X44490Y-41452D01*
X44397Y-41461D01*
X44308Y-41487D01*
X44226Y-41530D01*
X44222Y-41533D01*
X44186Y-41602D01*
X44488Y-41904D01*
X44789Y-41602D01*
X44789Y-41652D01*
X44513Y-41929D01*
X44814Y-42230D01*
X44883Y-42194D01*
X44928Y-42112D01*
X44955Y-42023D01*
X44964Y-41931D01*
X44964Y-42665D01*
X44789Y-42665D01*
X44789Y-42255D01*
X44488Y-41954D01*
X44463Y-41979D01*
X44463Y-41929D01*
X44161Y-41627D01*
X44092Y-41663D01*
X44048Y-41745D01*
X44021Y-41834D01*
X44011Y-41926D01*
X44020Y-42019D01*
X44046Y-42108D01*
X44089Y-42191D01*
X44092Y-42194D01*
X44161Y-42230D01*
X44463Y-41929D01*
X44463Y-41979D01*
X44186Y-42255D01*
X44222Y-42324D01*
X44304Y-42369D01*
X44393Y-42396D01*
X44485Y-42405D01*
X44578Y-42397D01*
X44667Y-42370D01*
X44750Y-42327D01*
X44753Y-42324D01*
X44789Y-42255D01*
X44789Y-42665D01*
X43998Y-42665D01*
X43998Y-41880D01*
X43979Y-41785D01*
X43942Y-41696D01*
X43888Y-41615D01*
X43820Y-41546D01*
X43740Y-41492D01*
X43650Y-41454D01*
X43555Y-41435D01*
X43458Y-41434D01*
X43363Y-41452D01*
X43273Y-41489D01*
X43192Y-41542D01*
X43123Y-41609D01*
X43068Y-41689D01*
X43030Y-41779D01*
X43010Y-41873D01*
X43009Y-41970D01*
X43026Y-42065D01*
X43062Y-42156D01*
X43114Y-42237D01*
X43182Y-42307D01*
X43261Y-42362D01*
X43350Y-42401D01*
X43445Y-42422D01*
X43542Y-42424D01*
X43637Y-42407D01*
X43727Y-42372D01*
X43809Y-42320D01*
X43879Y-42253D01*
X43935Y-42174D01*
X43975Y-42085D01*
X43996Y-41991D01*
X43998Y-41880D01*
X43998Y-42665D01*
X41901Y-42665D01*
X41901Y-41700D01*
X41900Y-41700D01*
X41901Y-41638D01*
X41865Y-41454D01*
X41793Y-41280D01*
X41689Y-41124D01*
X41557Y-40991D01*
X41402Y-40886D01*
X41229Y-40813D01*
X41045Y-40776D01*
X40976Y-40775D01*
X40976Y-40775D01*
X40954Y-40775D01*
X40857Y-40774D01*
X40854Y-40775D01*
X40011Y-40775D01*
X40011Y-37930D01*
X40016Y-37944D01*
X40050Y-38008D01*
X40110Y-38033D01*
X40348Y-37795D01*
X40110Y-37556D01*
X40050Y-37581D01*
X40015Y-37648D01*
X40011Y-37659D01*
X40011Y-37433D01*
X40239Y-37433D01*
X40224Y-37437D01*
X40160Y-37471D01*
X40135Y-37531D01*
X40374Y-37770D01*
X40379Y-37764D01*
X40404Y-37789D01*
X40399Y-37795D01*
X40404Y-37800D01*
X40379Y-37825D01*
X40374Y-37820D01*
X40135Y-38058D01*
X40160Y-38119D01*
X40227Y-38154D01*
X40300Y-38175D01*
X40375Y-38182D01*
X40450Y-38175D01*
X40517Y-38154D01*
X40359Y-38312D01*
X40350Y-38323D01*
X40340Y-38335D01*
X40340Y-38335D01*
X40339Y-38336D01*
X40332Y-38349D01*
X40325Y-38362D01*
X40325Y-38363D01*
X40325Y-38363D01*
X40320Y-38377D01*
X40316Y-38392D01*
X40316Y-38392D01*
X40316Y-38393D01*
X40314Y-38408D01*
X40313Y-38422D01*
X40312Y-38424D01*
X40312Y-38424D01*
X40312Y-38424D01*
X40312Y-38425D01*
X40312Y-39527D01*
X40314Y-39542D01*
X40315Y-39556D01*
X40315Y-39557D01*
X40316Y-39558D01*
X40320Y-39572D01*
X40324Y-39586D01*
X40324Y-39587D01*
X40325Y-39588D01*
X40331Y-39601D01*
X40338Y-39614D01*
X40339Y-39615D01*
X40339Y-39615D01*
X40348Y-39627D01*
X40358Y-39638D01*
X40359Y-39639D01*
X40359Y-39639D01*
X40359Y-39639D01*
X40359Y-39640D01*
X40635Y-39915D01*
X40646Y-39925D01*
X40657Y-39934D01*
X40658Y-39935D01*
X40659Y-39935D01*
X40672Y-39942D01*
X40685Y-39949D01*
X40686Y-39949D01*
X40686Y-39950D01*
X40700Y-39954D01*
X40714Y-39959D01*
X40715Y-39959D01*
X40716Y-39959D01*
X40731Y-39960D01*
X40745Y-39962D01*
X40747Y-39962D01*
X40747Y-39962D01*
X40747Y-39962D01*
X40748Y-39962D01*
X40957Y-39962D01*
X41304Y-40309D01*
X41315Y-40318D01*
X41327Y-40328D01*
X41327Y-40328D01*
X41328Y-40329D01*
X41341Y-40336D01*
X41354Y-40343D01*
X41355Y-40343D01*
X41356Y-40344D01*
X41370Y-40348D01*
X41384Y-40352D01*
X41385Y-40352D01*
X41385Y-40353D01*
X41400Y-40354D01*
X41415Y-40356D01*
X41416Y-40356D01*
X41416Y-40356D01*
X41416Y-40356D01*
X41417Y-40356D01*
X42795Y-40356D01*
X42809Y-40354D01*
X42824Y-40353D01*
X42825Y-40353D01*
X42826Y-40353D01*
X42840Y-40349D01*
X42854Y-40344D01*
X42855Y-40344D01*
X42856Y-40344D01*
X42869Y-40337D01*
X42882Y-40330D01*
X42882Y-40330D01*
X42883Y-40329D01*
X42894Y-40320D01*
X42906Y-40311D01*
X42907Y-40310D01*
X42907Y-40309D01*
X42907Y-40309D01*
X42908Y-40309D01*
X43301Y-39915D01*
X43311Y-39904D01*
X43320Y-39893D01*
X43320Y-39892D01*
X43321Y-39891D01*
X43328Y-39878D01*
X43335Y-39865D01*
X43335Y-39865D01*
X43336Y-39864D01*
X43340Y-39850D01*
X43344Y-39836D01*
X43345Y-39835D01*
X43345Y-39834D01*
X43346Y-39820D01*
X43348Y-39805D01*
X43348Y-39803D01*
X43348Y-39803D01*
X43348Y-39803D01*
X43348Y-39803D01*
X43348Y-39232D01*
X43370Y-39211D01*
X43397Y-39173D01*
X43416Y-39130D01*
X43426Y-39085D01*
X43427Y-39031D01*
X43418Y-38985D01*
X43400Y-38942D01*
X43374Y-38903D01*
X43341Y-38870D01*
X43302Y-38844D01*
X43259Y-38826D01*
X43213Y-38817D01*
X43167Y-38816D01*
X43121Y-38825D01*
X43078Y-38843D01*
X43039Y-38868D01*
X43005Y-38901D01*
X42979Y-38939D01*
X42964Y-38974D01*
X42964Y-38958D01*
X42931Y-38958D01*
X42950Y-38815D01*
X42942Y-38774D01*
X42885Y-38604D01*
X42807Y-38465D01*
X42918Y-38577D01*
X42930Y-38586D01*
X42941Y-38596D01*
X42942Y-38596D01*
X42942Y-38597D01*
X42955Y-38604D01*
X42968Y-38611D01*
X42969Y-38611D01*
X42970Y-38611D01*
X42984Y-38616D01*
X42998Y-38620D01*
X42999Y-38620D01*
X42999Y-38620D01*
X43014Y-38622D01*
X43029Y-38624D01*
X43030Y-38624D01*
X43030Y-38624D01*
X43030Y-38624D01*
X43031Y-38624D01*
X43366Y-38624D01*
X43380Y-38622D01*
X43395Y-38621D01*
X43396Y-38621D01*
X43397Y-38620D01*
X43411Y-38616D01*
X43425Y-38612D01*
X43426Y-38612D01*
X43426Y-38611D01*
X43439Y-38605D01*
X43452Y-38598D01*
X43453Y-38597D01*
X43454Y-38597D01*
X43465Y-38588D01*
X43477Y-38578D01*
X43478Y-38577D01*
X43478Y-38577D01*
X43478Y-38577D01*
X43478Y-38577D01*
X43727Y-38328D01*
X43758Y-38329D01*
X43804Y-38321D01*
X43848Y-38304D01*
X43887Y-38279D01*
X43895Y-38271D01*
X43895Y-38897D01*
X43897Y-38912D01*
X43898Y-38926D01*
X43898Y-38927D01*
X43898Y-38928D01*
X43902Y-38942D01*
X43907Y-38956D01*
X43907Y-38957D01*
X43907Y-38958D01*
X43914Y-38971D01*
X43921Y-38984D01*
X43921Y-38985D01*
X43922Y-38985D01*
X43931Y-38997D01*
X43935Y-39001D01*
X43934Y-39035D01*
X43943Y-39081D01*
X43960Y-39125D01*
X43985Y-39164D01*
X44018Y-39198D01*
X44056Y-39224D01*
X44099Y-39243D01*
X44144Y-39253D01*
X44191Y-39254D01*
X44237Y-39246D01*
X44281Y-39229D01*
X44320Y-39204D01*
X44354Y-39172D01*
X44381Y-39133D01*
X44400Y-39091D01*
X44410Y-39045D01*
X44411Y-38992D01*
X44402Y-38946D01*
X44384Y-38903D01*
X44358Y-38864D01*
X44325Y-38831D01*
X44287Y-38805D01*
X44244Y-38787D01*
X44214Y-38781D01*
X44214Y-36344D01*
X44238Y-36349D01*
X44264Y-36349D01*
X44437Y-36349D01*
X44470Y-36317D01*
X44470Y-36001D01*
X44462Y-36001D01*
X44462Y-35966D01*
X44470Y-35966D01*
X44470Y-35650D01*
X44437Y-35617D01*
X44264Y-35617D01*
X44238Y-35618D01*
X44213Y-35623D01*
X44190Y-35633D01*
X44168Y-35647D01*
X44151Y-35665D01*
X44136Y-35686D01*
X44127Y-35710D01*
X44122Y-35735D01*
X44122Y-35786D01*
X43852Y-35517D01*
X43841Y-35507D01*
X43830Y-35498D01*
X43829Y-35497D01*
X43828Y-35497D01*
X43815Y-35490D01*
X43802Y-35483D01*
X43802Y-35483D01*
X43801Y-35482D01*
X43787Y-35478D01*
X43773Y-35473D01*
X43772Y-35473D01*
X43771Y-35473D01*
X43757Y-35472D01*
X43755Y-35471D01*
X43772Y-35447D01*
X43796Y-35392D01*
X43810Y-35333D01*
X43811Y-35265D01*
X43799Y-35206D01*
X43776Y-35150D01*
X43743Y-35100D01*
X43700Y-35057D01*
X43650Y-35023D01*
X43595Y-35000D01*
X43536Y-34988D01*
X43475Y-34987D01*
X43416Y-34999D01*
X43360Y-35021D01*
X43310Y-35054D01*
X43267Y-35096D01*
X43261Y-35106D01*
X43129Y-35106D01*
X43112Y-35108D01*
X43095Y-35109D01*
X43094Y-35109D01*
X43093Y-35109D01*
X43076Y-35114D01*
X43059Y-35119D01*
X43058Y-35120D01*
X43057Y-35120D01*
X43042Y-35128D01*
X43026Y-35136D01*
X43026Y-35137D01*
X43025Y-35137D01*
X43011Y-35148D01*
X42998Y-35159D01*
X42996Y-35161D01*
X42996Y-35161D01*
X42996Y-35161D01*
X42996Y-35161D01*
X42677Y-35480D01*
X41415Y-35480D01*
X41536Y-35403D01*
X41672Y-35273D01*
X41780Y-35120D01*
X41857Y-34949D01*
X41898Y-34766D01*
X41901Y-34551D01*
X41892Y-34507D01*
X41897Y-34493D01*
X41901Y-34450D01*
X41901Y-33758D01*
X41897Y-33715D01*
X41896Y-33712D01*
X47079Y-33712D01*
X47079Y-33715D01*
X47074Y-33758D01*
X47074Y-34450D01*
X47079Y-34493D01*
X47082Y-34506D01*
X47076Y-34538D01*
X47073Y-34726D01*
X47107Y-34910D01*
X47176Y-35085D01*
X47278Y-35242D01*
X47408Y-35377D01*
X47562Y-35484D01*
X47734Y-35559D01*
X47917Y-35600D01*
X48105Y-35604D01*
X48167Y-35593D01*
X48183Y-35598D01*
X48226Y-35602D01*
X48918Y-35602D01*
X48961Y-35598D01*
X48964Y-35597D01*
X48964Y-40780D01*
M02*
