M48
INCH,TZ
T1C0.013
T2C0.040
T3C0.043
T4C0.079
T5C0.083
%
G90
G05
T1
X041142Y-037402
X041634Y-036122
X042224Y-035335
X043701Y-038780
X044094Y-036220
X045276Y-038780
X045276Y-039567
X046358Y-041142
X046949Y-036614
T2
X042988Y-034350
X043988Y-034350
X044988Y-034350
X045988Y-034350
T3
X043504Y-036122
X043504Y-041831
X044488Y-041831
X045472Y-036122
X045472Y-041831
T5
X040945Y-034646
X040945Y-041732
X048031Y-034646
X048031Y-041732
T4
X042283Y-038484G85X042283Y-039272
G05
X046693Y-038484G85X046693Y-039272
G05
T0
M30
