G04 (created by PCBNEW (2013-02-13 BZR 3947)-testing) date Wed 13 Feb 2013 11:17:36 PM CET*
%MOIN*%
G04 Gerber Fmt 3.4, Leading zero omitted, Abs format*
%FSLAX34Y34*%
G01*
G70*
G90*
G04 APERTURE LIST*
%ADD10C,3.14961e-06*%
%ADD11C,0.00787402*%
%ADD12R,0.0511811X0.0511811*%
%ADD13C,0.0511811*%
%ADD14R,0.0649606X0.0649606*%
%ADD15C,0.0649606*%
%ADD16C,0.0688976*%
%ADD17C,0.15748*%
%ADD18O,0.15748X0.15748*%
%ADD19C,0.0984252*%
%ADD20R,0.0472X0.0472*%
%ADD21C,0.025*%
%ADD22C,0.0255906*%
%ADD23C,0.0393701*%
%ADD24C,0.00984252*%
%ADD25C,0.015748*%
%ADD26C,0.008*%
%ADD27C,0.00629921*%
G04 APERTURE END LIST*
G54D10*
G54D11*
X48129Y-33562D02*
X40846Y-33562D01*
X49114Y-41830D02*
X49114Y-34547D01*
X40846Y-42814D02*
X48129Y-42814D01*
X39862Y-34547D02*
X39862Y-41830D01*
X39862Y-41830D02*
G75*
G03X40846Y-42814I984J0D01*
G74*
G01*
X48129Y-42814D02*
G75*
G03X49114Y-41830I0J984D01*
G74*
G01*
X49114Y-34547D02*
G75*
G03X48129Y-33562I-984J0D01*
G74*
G01*
X40846Y-33562D02*
G75*
G03X39862Y-34547I0J-984D01*
G74*
G01*
G54D12*
X41338Y-36220D03*
G54D13*
X40551Y-36220D03*
X41338Y-37007D03*
X40551Y-37007D03*
X41338Y-37795D03*
X40551Y-37795D03*
G54D14*
X45988Y-34251D03*
G54D15*
X44988Y-34251D03*
X43988Y-34251D03*
X42988Y-34251D03*
G54D16*
X43503Y-41929D03*
X45472Y-41929D03*
X44488Y-41929D03*
X45472Y-36220D03*
X43503Y-36220D03*
G54D17*
X46929Y-38976D03*
G54D18*
X42047Y-38976D03*
G54D19*
X48031Y-34645D03*
X40944Y-41732D03*
X40944Y-34645D03*
X48031Y-41732D03*
G54D20*
X44488Y-35157D03*
X44488Y-35983D03*
G54D21*
X43090Y-37893D03*
G54D22*
X43838Y-38996D03*
X45255Y-38917D03*
X45236Y-39547D03*
X42460Y-36476D03*
X43425Y-38996D03*
X46299Y-35531D03*
X43740Y-38090D03*
X47401Y-36909D03*
G54D23*
X47440Y-37578D03*
X43503Y-35295D03*
X46102Y-41003D03*
G54D24*
X43503Y-36732D02*
X43287Y-36948D01*
X43090Y-37893D02*
X43188Y-37893D01*
X43188Y-37893D02*
X43287Y-37795D01*
X43503Y-36220D02*
X43503Y-36732D01*
X43287Y-36948D02*
X43287Y-37795D01*
X44251Y-38464D02*
X44251Y-38582D01*
X44055Y-37145D02*
X44251Y-37342D01*
X44251Y-37342D02*
X44251Y-38464D01*
X41338Y-36220D02*
X42598Y-36220D01*
X44055Y-35944D02*
X44055Y-36496D01*
X43740Y-35629D02*
X44055Y-35944D01*
X43188Y-35629D02*
X43740Y-35629D01*
X42598Y-36220D02*
X43188Y-35629D01*
X44055Y-36496D02*
X44055Y-37145D01*
X44251Y-38582D02*
X43838Y-38996D01*
X45255Y-38917D02*
X45236Y-38937D01*
X45236Y-38937D02*
X45236Y-39547D01*
X44015Y-38248D02*
X44015Y-38405D01*
X44015Y-37952D02*
X44015Y-38228D01*
X43877Y-37814D02*
X44015Y-37952D01*
X43582Y-37814D02*
X43877Y-37814D01*
X43228Y-38169D02*
X43582Y-37814D01*
X43011Y-38169D02*
X43228Y-38169D01*
X42736Y-37893D02*
X43011Y-38169D01*
X42736Y-36751D02*
X42736Y-37893D01*
X42460Y-36476D02*
X42736Y-36751D01*
X44015Y-38228D02*
X44015Y-38248D01*
X44015Y-38405D02*
X43425Y-38996D01*
X43444Y-38996D02*
X43425Y-38996D01*
X44980Y-34783D02*
X44862Y-34783D01*
X44980Y-34783D02*
X45531Y-35334D01*
X45531Y-35334D02*
X46102Y-35334D01*
X46102Y-35334D02*
X46299Y-35531D01*
X44401Y-34665D02*
X43988Y-34251D01*
X44744Y-34665D02*
X44401Y-34665D01*
X44862Y-34783D02*
X44744Y-34665D01*
X41338Y-37795D02*
X41437Y-37893D01*
X43366Y-38464D02*
X43740Y-38090D01*
X43031Y-38464D02*
X43366Y-38464D01*
X42460Y-37893D02*
X43031Y-38464D01*
X41437Y-37893D02*
X42460Y-37893D01*
G54D25*
X44488Y-35983D02*
X45235Y-35983D01*
X45235Y-35983D02*
X45472Y-36220D01*
G54D26*
X45374Y-36318D02*
X45472Y-36220D01*
G54D25*
X44488Y-41929D02*
X44488Y-38956D01*
X44488Y-37204D02*
X45472Y-36220D01*
X44488Y-38228D02*
X44488Y-37204D01*
X44488Y-38956D02*
X44488Y-38228D01*
G54D24*
X45807Y-35531D02*
X45314Y-35531D01*
X45314Y-35531D02*
X44941Y-35157D01*
X44941Y-35157D02*
X44488Y-35157D01*
X46653Y-36377D02*
X45807Y-35531D01*
X46870Y-36377D02*
X47401Y-36909D01*
X46653Y-36377D02*
X46870Y-36377D01*
G54D25*
X47440Y-37578D02*
X48031Y-37578D01*
X43129Y-35295D02*
X42755Y-35669D01*
X40551Y-36220D02*
X40551Y-35905D01*
X40787Y-35669D02*
X40551Y-35905D01*
X42755Y-35669D02*
X40787Y-35669D01*
X43503Y-35295D02*
X43129Y-35295D01*
X47539Y-40551D02*
X46555Y-40551D01*
X47539Y-40551D02*
X48031Y-40059D01*
X48031Y-38385D02*
X48031Y-40059D01*
X46555Y-40551D02*
X46102Y-41003D01*
X46722Y-35068D02*
X45706Y-35068D01*
X48031Y-38385D02*
X48031Y-37578D01*
X48031Y-37578D02*
X48031Y-36377D01*
X48031Y-36377D02*
X46722Y-35068D01*
X45706Y-35068D02*
X44988Y-34350D01*
G54D10*
G36*
X48964Y-40780D02*
X48961Y-40779D01*
X48918Y-40775D01*
X48226Y-40775D01*
X48220Y-40776D01*
X48220Y-40059D01*
X48220Y-38385D01*
X48220Y-37578D01*
X48220Y-36377D01*
X48218Y-36360D01*
X48217Y-36343D01*
X48216Y-36342D01*
X48216Y-36341D01*
X48211Y-36324D01*
X48206Y-36307D01*
X48206Y-36306D01*
X48206Y-36305D01*
X48198Y-36290D01*
X48189Y-36275D01*
X48189Y-36274D01*
X48188Y-36273D01*
X48177Y-36259D01*
X48166Y-36246D01*
X48165Y-36244D01*
X48165Y-36244D01*
X48165Y-36244D01*
X48165Y-36244D01*
X46856Y-34935D01*
X46842Y-34924D01*
X46829Y-34912D01*
X46828Y-34912D01*
X46827Y-34911D01*
X46812Y-34903D01*
X46796Y-34895D01*
X46795Y-34894D01*
X46795Y-34894D01*
X46778Y-34889D01*
X46761Y-34884D01*
X46760Y-34883D01*
X46759Y-34883D01*
X46742Y-34881D01*
X46725Y-34879D01*
X46723Y-34879D01*
X46723Y-34879D01*
X46723Y-34879D01*
X46722Y-34879D01*
X46443Y-34879D01*
X46443Y-34564D01*
X46443Y-33938D01*
X46442Y-33913D01*
X46437Y-33888D01*
X46427Y-33865D01*
X46413Y-33843D01*
X46395Y-33825D01*
X46374Y-33811D01*
X46350Y-33802D01*
X46325Y-33797D01*
X46038Y-33797D01*
X46005Y-33829D01*
X46005Y-34234D01*
X46410Y-34234D01*
X46442Y-34201D01*
X46443Y-33938D01*
X46443Y-34564D01*
X46442Y-34302D01*
X46410Y-34269D01*
X46005Y-34269D01*
X46005Y-34674D01*
X46038Y-34706D01*
X46325Y-34706D01*
X46350Y-34701D01*
X46374Y-34692D01*
X46395Y-34677D01*
X46413Y-34659D01*
X46427Y-34638D01*
X46437Y-34615D01*
X46442Y-34590D01*
X46443Y-34564D01*
X46443Y-34879D01*
X45784Y-34879D01*
X45587Y-34682D01*
X45602Y-34692D01*
X45625Y-34701D01*
X45650Y-34706D01*
X45937Y-34706D01*
X45970Y-34674D01*
X45970Y-34269D01*
X45970Y-34234D01*
X45970Y-33829D01*
X45937Y-33797D01*
X45650Y-33797D01*
X45625Y-33802D01*
X45602Y-33811D01*
X45580Y-33825D01*
X45562Y-33843D01*
X45548Y-33865D01*
X45538Y-33888D01*
X45533Y-33913D01*
X45533Y-33938D01*
X45533Y-34201D01*
X45565Y-34234D01*
X45970Y-34234D01*
X45970Y-34269D01*
X45565Y-34269D01*
X45533Y-34302D01*
X45533Y-34564D01*
X45533Y-34590D01*
X45538Y-34615D01*
X45548Y-34638D01*
X45558Y-34653D01*
X45514Y-34609D01*
X45519Y-34591D01*
X45523Y-34548D01*
X45523Y-33994D01*
X45519Y-33951D01*
X45506Y-33908D01*
X45485Y-33869D01*
X45456Y-33834D01*
X45422Y-33806D01*
X45382Y-33784D01*
X45339Y-33771D01*
X45296Y-33767D01*
X42675Y-33767D01*
X42632Y-33771D01*
X42589Y-33784D01*
X42550Y-33806D01*
X42515Y-33834D01*
X42487Y-33869D01*
X42466Y-33908D01*
X42453Y-33951D01*
X42448Y-33994D01*
X42448Y-34548D01*
X42453Y-34591D01*
X42466Y-34634D01*
X42487Y-34674D01*
X42515Y-34708D01*
X42550Y-34737D01*
X42589Y-34758D01*
X42632Y-34771D01*
X42675Y-34775D01*
X44220Y-34775D01*
X44208Y-34777D01*
X44181Y-34789D01*
X44157Y-34805D01*
X44136Y-34826D01*
X44119Y-34850D01*
X44108Y-34877D01*
X44102Y-34906D01*
X44102Y-34935D01*
X44102Y-35408D01*
X44108Y-35437D01*
X44119Y-35464D01*
X44135Y-35488D01*
X44156Y-35509D01*
X44180Y-35526D01*
X44207Y-35537D01*
X44236Y-35543D01*
X44265Y-35543D01*
X44738Y-35543D01*
X44767Y-35537D01*
X44794Y-35526D01*
X44819Y-35510D01*
X44840Y-35489D01*
X44856Y-35465D01*
X44867Y-35438D01*
X44873Y-35409D01*
X44873Y-35380D01*
X44873Y-35317D01*
X44875Y-35317D01*
X45202Y-35644D01*
X45213Y-35653D01*
X45224Y-35663D01*
X45225Y-35663D01*
X45226Y-35663D01*
X45239Y-35670D01*
X45252Y-35678D01*
X45252Y-35678D01*
X45253Y-35678D01*
X45267Y-35683D01*
X45281Y-35687D01*
X45282Y-35687D01*
X45283Y-35687D01*
X45298Y-35689D01*
X45312Y-35690D01*
X45314Y-35690D01*
X45314Y-35690D01*
X45314Y-35690D01*
X45314Y-35690D01*
X45741Y-35690D01*
X46540Y-36490D01*
X46552Y-36500D01*
X46563Y-36509D01*
X46564Y-36509D01*
X46564Y-36510D01*
X46577Y-36517D01*
X46590Y-36524D01*
X46591Y-36524D01*
X46592Y-36525D01*
X46606Y-36529D01*
X46620Y-36533D01*
X46621Y-36534D01*
X46622Y-36534D01*
X46636Y-36535D01*
X46651Y-36537D01*
X46652Y-36537D01*
X46652Y-36537D01*
X46653Y-36537D01*
X46653Y-36537D01*
X46804Y-36537D01*
X47163Y-36896D01*
X47163Y-36929D01*
X47171Y-36975D01*
X47188Y-37018D01*
X47214Y-37058D01*
X47246Y-37091D01*
X47284Y-37118D01*
X47327Y-37137D01*
X47373Y-37147D01*
X47419Y-37148D01*
X47465Y-37139D01*
X47509Y-37123D01*
X47548Y-37098D01*
X47582Y-37065D01*
X47609Y-37027D01*
X47628Y-36984D01*
X47639Y-36939D01*
X47639Y-36886D01*
X47630Y-36840D01*
X47612Y-36797D01*
X47587Y-36758D01*
X47554Y-36725D01*
X47515Y-36698D01*
X47472Y-36680D01*
X47426Y-36671D01*
X47388Y-36671D01*
X46982Y-36265D01*
X46971Y-36255D01*
X46960Y-36246D01*
X46959Y-36245D01*
X46958Y-36245D01*
X46945Y-36238D01*
X46932Y-36231D01*
X46932Y-36231D01*
X46931Y-36230D01*
X46917Y-36226D01*
X46903Y-36221D01*
X46902Y-36221D01*
X46901Y-36221D01*
X46886Y-36220D01*
X46872Y-36218D01*
X46870Y-36218D01*
X46870Y-36218D01*
X46870Y-36218D01*
X46870Y-36218D01*
X46719Y-36218D01*
X46270Y-35768D01*
X46270Y-35769D01*
X46317Y-35770D01*
X46363Y-35762D01*
X46407Y-35745D01*
X46446Y-35720D01*
X46480Y-35687D01*
X46507Y-35649D01*
X46526Y-35607D01*
X46536Y-35561D01*
X46537Y-35508D01*
X46528Y-35462D01*
X46510Y-35419D01*
X46484Y-35380D01*
X46451Y-35347D01*
X46413Y-35320D01*
X46369Y-35302D01*
X46324Y-35293D01*
X46286Y-35293D01*
X46251Y-35257D01*
X46644Y-35257D01*
X47842Y-36456D01*
X47842Y-37389D01*
X47684Y-37389D01*
X47680Y-37383D01*
X47637Y-37340D01*
X47587Y-37307D01*
X47532Y-37283D01*
X47473Y-37271D01*
X47412Y-37271D01*
X47353Y-37282D01*
X47297Y-37305D01*
X47247Y-37338D01*
X47204Y-37380D01*
X47170Y-37430D01*
X47146Y-37485D01*
X47134Y-37544D01*
X47133Y-37604D01*
X47144Y-37663D01*
X47166Y-37719D01*
X47199Y-37770D01*
X47240Y-37813D01*
X47290Y-37848D01*
X47345Y-37872D01*
X47404Y-37885D01*
X47464Y-37886D01*
X47523Y-37875D01*
X47580Y-37854D01*
X47630Y-37821D01*
X47674Y-37780D01*
X47683Y-37767D01*
X47842Y-37767D01*
X47842Y-38385D01*
X47842Y-38764D01*
X47830Y-38704D01*
X47760Y-38534D01*
X47658Y-38381D01*
X47529Y-38250D01*
X47376Y-38148D01*
X47207Y-38076D01*
X47027Y-38039D01*
X46843Y-38038D01*
X46663Y-38073D01*
X46492Y-38141D01*
X46339Y-38242D01*
X46207Y-38371D01*
X46104Y-38522D01*
X46031Y-38691D01*
X45993Y-38871D01*
X45990Y-39055D01*
X46024Y-39235D01*
X46091Y-39406D01*
X46191Y-39561D01*
X46318Y-39693D01*
X46469Y-39798D01*
X46638Y-39871D01*
X46817Y-39911D01*
X47001Y-39915D01*
X47182Y-39883D01*
X47353Y-39816D01*
X47508Y-39718D01*
X47641Y-39591D01*
X47747Y-39441D01*
X47822Y-39273D01*
X47842Y-39185D01*
X47842Y-39980D01*
X47461Y-40362D01*
X46555Y-40362D01*
X46537Y-40363D01*
X46520Y-40365D01*
X46519Y-40365D01*
X46518Y-40365D01*
X46501Y-40370D01*
X46484Y-40375D01*
X46484Y-40376D01*
X46483Y-40376D01*
X46467Y-40384D01*
X46452Y-40392D01*
X46451Y-40393D01*
X46450Y-40393D01*
X46437Y-40404D01*
X46423Y-40415D01*
X46421Y-40417D01*
X46421Y-40417D01*
X46421Y-40417D01*
X46421Y-40417D01*
X46140Y-40698D01*
X46134Y-40697D01*
X46074Y-40696D01*
X46015Y-40707D01*
X45959Y-40730D01*
X45949Y-40737D01*
X45949Y-36222D01*
X45940Y-36130D01*
X45914Y-36040D01*
X45870Y-35958D01*
X45868Y-35954D01*
X45798Y-35919D01*
X45773Y-35944D01*
X45773Y-35894D01*
X45738Y-35824D01*
X45656Y-35780D01*
X45567Y-35753D01*
X45474Y-35743D01*
X45382Y-35752D01*
X45292Y-35778D01*
X45210Y-35822D01*
X45206Y-35824D01*
X45171Y-35894D01*
X45472Y-36195D01*
X45773Y-35894D01*
X45773Y-35944D01*
X45497Y-36220D01*
X45798Y-36521D01*
X45868Y-36486D01*
X45912Y-36404D01*
X45939Y-36315D01*
X45949Y-36222D01*
X45949Y-40737D01*
X45909Y-40763D01*
X45865Y-40805D01*
X45831Y-40855D01*
X45808Y-40910D01*
X45795Y-40969D01*
X45794Y-41029D01*
X45805Y-41088D01*
X45827Y-41144D01*
X45860Y-41195D01*
X45902Y-41238D01*
X45951Y-41273D01*
X46007Y-41297D01*
X46065Y-41310D01*
X46126Y-41311D01*
X46185Y-41301D01*
X46241Y-41279D01*
X46292Y-41247D01*
X46335Y-41205D01*
X46370Y-41156D01*
X46395Y-41101D01*
X46408Y-41042D01*
X46409Y-40973D01*
X46407Y-40965D01*
X46633Y-40740D01*
X47539Y-40740D01*
X47556Y-40738D01*
X47574Y-40736D01*
X47575Y-40736D01*
X47576Y-40736D01*
X47592Y-40731D01*
X47609Y-40726D01*
X47610Y-40726D01*
X47611Y-40725D01*
X47626Y-40717D01*
X47642Y-40709D01*
X47643Y-40709D01*
X47643Y-40708D01*
X47657Y-40697D01*
X47671Y-40686D01*
X47672Y-40685D01*
X47672Y-40685D01*
X47672Y-40685D01*
X47672Y-40684D01*
X48165Y-40192D01*
X48176Y-40179D01*
X48187Y-40165D01*
X48187Y-40164D01*
X48188Y-40164D01*
X48196Y-40148D01*
X48205Y-40133D01*
X48205Y-40132D01*
X48205Y-40131D01*
X48211Y-40115D01*
X48216Y-40098D01*
X48216Y-40097D01*
X48216Y-40096D01*
X48218Y-40079D01*
X48220Y-40061D01*
X48220Y-40059D01*
X48220Y-40059D01*
X48220Y-40059D01*
X48220Y-40059D01*
X48220Y-40776D01*
X48183Y-40779D01*
X48169Y-40784D01*
X48131Y-40776D01*
X47944Y-40774D01*
X47760Y-40810D01*
X47586Y-40880D01*
X47429Y-40983D01*
X47295Y-41114D01*
X47189Y-41269D01*
X47115Y-41441D01*
X47076Y-41625D01*
X47073Y-41812D01*
X47083Y-41868D01*
X47079Y-41884D01*
X47074Y-41927D01*
X47074Y-42619D01*
X47079Y-42662D01*
X47079Y-42665D01*
X45966Y-42665D01*
X45966Y-41880D01*
X45947Y-41785D01*
X45910Y-41696D01*
X45857Y-41615D01*
X45788Y-41546D01*
X45773Y-41536D01*
X45773Y-36546D01*
X45472Y-36245D01*
X45447Y-36270D01*
X45447Y-36220D01*
X45146Y-35919D01*
X45076Y-35954D01*
X45032Y-36036D01*
X45005Y-36125D01*
X44995Y-36218D01*
X45004Y-36310D01*
X45030Y-36400D01*
X45074Y-36482D01*
X45076Y-36486D01*
X45146Y-36521D01*
X45447Y-36220D01*
X45447Y-36270D01*
X45171Y-36546D01*
X45206Y-36616D01*
X45288Y-36660D01*
X45377Y-36687D01*
X45470Y-36697D01*
X45562Y-36688D01*
X45652Y-36662D01*
X45734Y-36618D01*
X45738Y-36616D01*
X45773Y-36546D01*
X45773Y-41536D01*
X45708Y-41492D01*
X45619Y-41454D01*
X45524Y-41435D01*
X45494Y-41435D01*
X45494Y-38893D01*
X45485Y-38848D01*
X45467Y-38804D01*
X45441Y-38766D01*
X45408Y-38732D01*
X45369Y-38706D01*
X45326Y-38688D01*
X45280Y-38679D01*
X45234Y-38678D01*
X45188Y-38687D01*
X45145Y-38705D01*
X45105Y-38730D01*
X45072Y-38763D01*
X45046Y-38802D01*
X45027Y-38844D01*
X45018Y-38890D01*
X45017Y-38937D01*
X45025Y-38983D01*
X45043Y-39026D01*
X45068Y-39065D01*
X45076Y-39074D01*
X45076Y-39369D01*
X45052Y-39393D01*
X45026Y-39431D01*
X45008Y-39474D01*
X44998Y-39520D01*
X44997Y-39567D01*
X45006Y-39613D01*
X45023Y-39656D01*
X45048Y-39695D01*
X45081Y-39729D01*
X45119Y-39756D01*
X45162Y-39774D01*
X45207Y-39784D01*
X45254Y-39785D01*
X45300Y-39777D01*
X45344Y-39760D01*
X45383Y-39735D01*
X45417Y-39703D01*
X45444Y-39665D01*
X45463Y-39622D01*
X45473Y-39577D01*
X45474Y-39523D01*
X45465Y-39478D01*
X45447Y-39434D01*
X45421Y-39395D01*
X45395Y-39369D01*
X45395Y-39110D01*
X45403Y-39105D01*
X45437Y-39073D01*
X45464Y-39035D01*
X45483Y-38992D01*
X45493Y-38947D01*
X45494Y-38893D01*
X45494Y-41435D01*
X45427Y-41434D01*
X45332Y-41452D01*
X45242Y-41489D01*
X45161Y-41542D01*
X45092Y-41609D01*
X45037Y-41689D01*
X44999Y-41779D01*
X44979Y-41873D01*
X44977Y-41970D01*
X44995Y-42065D01*
X45030Y-42156D01*
X45083Y-42237D01*
X45150Y-42307D01*
X45230Y-42362D01*
X45319Y-42401D01*
X45413Y-42422D01*
X45510Y-42424D01*
X45605Y-42407D01*
X45696Y-42372D01*
X45778Y-42320D01*
X45848Y-42253D01*
X45904Y-42174D01*
X45943Y-42085D01*
X45965Y-41991D01*
X45966Y-41880D01*
X45966Y-42665D01*
X44964Y-42665D01*
X44964Y-41931D01*
X44956Y-41838D01*
X44929Y-41749D01*
X44886Y-41667D01*
X44883Y-41663D01*
X44854Y-41648D01*
X44854Y-36232D01*
X44854Y-35735D01*
X44849Y-35710D01*
X44839Y-35686D01*
X44825Y-35665D01*
X44807Y-35647D01*
X44786Y-35633D01*
X44762Y-35623D01*
X44737Y-35618D01*
X44712Y-35617D01*
X44538Y-35617D01*
X44505Y-35650D01*
X44505Y-35966D01*
X44821Y-35966D01*
X44854Y-35933D01*
X44854Y-35735D01*
X44854Y-36232D01*
X44854Y-36034D01*
X44821Y-36001D01*
X44505Y-36001D01*
X44505Y-36317D01*
X44538Y-36349D01*
X44712Y-36349D01*
X44737Y-36349D01*
X44762Y-36344D01*
X44786Y-36334D01*
X44807Y-36320D01*
X44825Y-36302D01*
X44839Y-36281D01*
X44849Y-36257D01*
X44854Y-36232D01*
X44854Y-41648D01*
X44814Y-41627D01*
X44789Y-41652D01*
X44789Y-41602D01*
X44753Y-41533D01*
X44671Y-41489D01*
X44582Y-41461D01*
X44490Y-41452D01*
X44397Y-41461D01*
X44308Y-41487D01*
X44226Y-41530D01*
X44222Y-41533D01*
X44186Y-41602D01*
X44488Y-41904D01*
X44789Y-41602D01*
X44789Y-41652D01*
X44513Y-41929D01*
X44814Y-42230D01*
X44883Y-42194D01*
X44928Y-42112D01*
X44955Y-42023D01*
X44964Y-41931D01*
X44964Y-42665D01*
X44789Y-42665D01*
X44789Y-42255D01*
X44488Y-41954D01*
X44463Y-41979D01*
X44463Y-41929D01*
X44161Y-41627D01*
X44092Y-41663D01*
X44048Y-41745D01*
X44021Y-41834D01*
X44011Y-41926D01*
X44020Y-42019D01*
X44046Y-42108D01*
X44089Y-42191D01*
X44092Y-42194D01*
X44161Y-42230D01*
X44463Y-41929D01*
X44463Y-41979D01*
X44186Y-42255D01*
X44222Y-42324D01*
X44304Y-42369D01*
X44393Y-42396D01*
X44485Y-42405D01*
X44578Y-42397D01*
X44667Y-42370D01*
X44750Y-42327D01*
X44753Y-42324D01*
X44789Y-42255D01*
X44789Y-42665D01*
X43998Y-42665D01*
X43998Y-41880D01*
X43979Y-41785D01*
X43942Y-41696D01*
X43888Y-41615D01*
X43820Y-41546D01*
X43740Y-41492D01*
X43650Y-41454D01*
X43555Y-41435D01*
X43458Y-41434D01*
X43363Y-41452D01*
X43273Y-41489D01*
X43192Y-41542D01*
X43123Y-41609D01*
X43068Y-41689D01*
X43030Y-41779D01*
X43010Y-41873D01*
X43009Y-41970D01*
X43026Y-42065D01*
X43062Y-42156D01*
X43114Y-42237D01*
X43182Y-42307D01*
X43261Y-42362D01*
X43350Y-42401D01*
X43445Y-42422D01*
X43542Y-42424D01*
X43637Y-42407D01*
X43727Y-42372D01*
X43809Y-42320D01*
X43879Y-42253D01*
X43935Y-42174D01*
X43975Y-42085D01*
X43996Y-41991D01*
X43998Y-41880D01*
X43998Y-42665D01*
X41901Y-42665D01*
X41901Y-41700D01*
X41900Y-41700D01*
X41901Y-41638D01*
X41865Y-41454D01*
X41793Y-41280D01*
X41689Y-41124D01*
X41557Y-40991D01*
X41402Y-40886D01*
X41229Y-40813D01*
X41045Y-40776D01*
X40976Y-40775D01*
X40976Y-40775D01*
X40954Y-40775D01*
X40857Y-40774D01*
X40854Y-40775D01*
X40789Y-40775D01*
X40789Y-38058D01*
X40551Y-37820D01*
X40526Y-37845D01*
X40526Y-37795D01*
X40287Y-37556D01*
X40227Y-37581D01*
X40192Y-37648D01*
X40170Y-37721D01*
X40163Y-37796D01*
X40171Y-37872D01*
X40193Y-37944D01*
X40227Y-38008D01*
X40287Y-38033D01*
X40526Y-37795D01*
X40526Y-37845D01*
X40312Y-38058D01*
X40337Y-38119D01*
X40404Y-38154D01*
X40477Y-38175D01*
X40552Y-38182D01*
X40627Y-38175D01*
X40700Y-38153D01*
X40764Y-38119D01*
X40789Y-38058D01*
X40789Y-40775D01*
X40011Y-40775D01*
X40011Y-35597D01*
X40014Y-35598D01*
X40057Y-35602D01*
X40587Y-35602D01*
X40417Y-35771D01*
X40406Y-35785D01*
X40398Y-35795D01*
X40125Y-35795D01*
X40125Y-37433D01*
X40416Y-37433D01*
X40402Y-37437D01*
X40337Y-37471D01*
X40312Y-37531D01*
X40551Y-37770D01*
X40789Y-37531D01*
X40764Y-37471D01*
X40697Y-37436D01*
X40686Y-37433D01*
X40913Y-37433D01*
X40913Y-37660D01*
X40909Y-37646D01*
X40874Y-37581D01*
X40814Y-37556D01*
X40576Y-37795D01*
X40814Y-38033D01*
X40874Y-38008D01*
X40910Y-37941D01*
X40913Y-37930D01*
X40913Y-38220D01*
X40964Y-38220D01*
X41259Y-38220D01*
X41494Y-38220D01*
X41382Y-38311D01*
X41265Y-38452D01*
X41178Y-38613D01*
X41124Y-38787D01*
X41105Y-38969D01*
X41122Y-39151D01*
X41173Y-39327D01*
X41258Y-39489D01*
X41373Y-39631D01*
X41513Y-39749D01*
X41673Y-39837D01*
X41847Y-39892D01*
X42029Y-39913D01*
X42042Y-39913D01*
X42051Y-39913D01*
X42233Y-39895D01*
X42408Y-39842D01*
X42570Y-39756D01*
X42712Y-39641D01*
X42828Y-39500D01*
X42915Y-39339D01*
X42969Y-39164D01*
X42988Y-38982D01*
X42972Y-38800D01*
X42920Y-38625D01*
X42869Y-38528D01*
X42918Y-38577D01*
X42930Y-38586D01*
X42941Y-38596D01*
X42942Y-38596D01*
X42942Y-38597D01*
X42955Y-38604D01*
X42968Y-38611D01*
X42969Y-38611D01*
X42970Y-38611D01*
X42984Y-38616D01*
X42998Y-38620D01*
X42999Y-38620D01*
X42999Y-38620D01*
X43014Y-38622D01*
X43029Y-38624D01*
X43030Y-38624D01*
X43030Y-38624D01*
X43030Y-38624D01*
X43031Y-38624D01*
X43366Y-38624D01*
X43380Y-38622D01*
X43395Y-38621D01*
X43396Y-38621D01*
X43397Y-38620D01*
X43411Y-38616D01*
X43425Y-38612D01*
X43426Y-38612D01*
X43426Y-38611D01*
X43439Y-38605D01*
X43452Y-38598D01*
X43453Y-38597D01*
X43454Y-38597D01*
X43465Y-38588D01*
X43477Y-38578D01*
X43478Y-38577D01*
X43478Y-38577D01*
X43478Y-38577D01*
X43478Y-38577D01*
X43727Y-38328D01*
X43758Y-38329D01*
X43804Y-38321D01*
X43848Y-38304D01*
X43856Y-38298D01*
X43856Y-38339D01*
X43437Y-38757D01*
X43403Y-38757D01*
X43357Y-38766D01*
X43314Y-38783D01*
X43275Y-38809D01*
X43241Y-38842D01*
X43215Y-38880D01*
X43197Y-38923D01*
X43187Y-38969D01*
X43186Y-39016D01*
X43195Y-39062D01*
X43212Y-39105D01*
X43237Y-39144D01*
X43270Y-39178D01*
X43308Y-39204D01*
X43351Y-39223D01*
X43396Y-39233D01*
X43443Y-39234D01*
X43489Y-39226D01*
X43533Y-39209D01*
X43572Y-39184D01*
X43606Y-39152D01*
X43632Y-39115D01*
X43651Y-39144D01*
X43683Y-39178D01*
X43721Y-39204D01*
X43764Y-39223D01*
X43810Y-39233D01*
X43856Y-39234D01*
X43902Y-39226D01*
X43946Y-39209D01*
X43985Y-39184D01*
X44019Y-39152D01*
X44046Y-39114D01*
X44065Y-39071D01*
X44076Y-39026D01*
X44076Y-38983D01*
X44364Y-38695D01*
X44374Y-38684D01*
X44383Y-38672D01*
X44383Y-38672D01*
X44384Y-38671D01*
X44391Y-38658D01*
X44398Y-38645D01*
X44398Y-38644D01*
X44399Y-38643D01*
X44403Y-38629D01*
X44407Y-38615D01*
X44408Y-38614D01*
X44408Y-38614D01*
X44409Y-38599D01*
X44411Y-38584D01*
X44411Y-38583D01*
X44411Y-38583D01*
X44411Y-38583D01*
X44411Y-38582D01*
X44411Y-38464D01*
X44411Y-37342D01*
X44409Y-37327D01*
X44408Y-37313D01*
X44408Y-37312D01*
X44408Y-37311D01*
X44404Y-37297D01*
X44400Y-37283D01*
X44399Y-37282D01*
X44399Y-37281D01*
X44392Y-37268D01*
X44385Y-37255D01*
X44385Y-37255D01*
X44384Y-37254D01*
X44375Y-37242D01*
X44366Y-37231D01*
X44365Y-37230D01*
X44365Y-37230D01*
X44365Y-37230D01*
X44364Y-37229D01*
X44214Y-37079D01*
X44214Y-36496D01*
X44214Y-36344D01*
X44238Y-36349D01*
X44264Y-36349D01*
X44437Y-36349D01*
X44470Y-36317D01*
X44470Y-36001D01*
X44462Y-36001D01*
X44462Y-35966D01*
X44470Y-35966D01*
X44470Y-35650D01*
X44437Y-35617D01*
X44264Y-35617D01*
X44238Y-35618D01*
X44213Y-35623D01*
X44190Y-35633D01*
X44168Y-35647D01*
X44151Y-35665D01*
X44136Y-35686D01*
X44127Y-35710D01*
X44122Y-35735D01*
X44122Y-35786D01*
X43852Y-35517D01*
X43841Y-35507D01*
X43830Y-35498D01*
X43829Y-35497D01*
X43828Y-35497D01*
X43815Y-35490D01*
X43802Y-35483D01*
X43802Y-35483D01*
X43801Y-35482D01*
X43787Y-35478D01*
X43773Y-35473D01*
X43772Y-35473D01*
X43771Y-35473D01*
X43757Y-35472D01*
X43755Y-35471D01*
X43772Y-35447D01*
X43796Y-35392D01*
X43810Y-35333D01*
X43811Y-35265D01*
X43799Y-35206D01*
X43776Y-35150D01*
X43743Y-35100D01*
X43700Y-35057D01*
X43650Y-35023D01*
X43595Y-35000D01*
X43536Y-34988D01*
X43475Y-34987D01*
X43416Y-34999D01*
X43360Y-35021D01*
X43310Y-35054D01*
X43267Y-35096D01*
X43261Y-35106D01*
X43129Y-35106D01*
X43112Y-35108D01*
X43095Y-35109D01*
X43094Y-35109D01*
X43093Y-35109D01*
X43076Y-35114D01*
X43059Y-35119D01*
X43058Y-35120D01*
X43057Y-35120D01*
X43042Y-35128D01*
X43026Y-35136D01*
X43026Y-35137D01*
X43025Y-35137D01*
X43011Y-35148D01*
X42998Y-35159D01*
X42996Y-35161D01*
X42996Y-35161D01*
X42996Y-35161D01*
X42996Y-35161D01*
X42677Y-35480D01*
X41415Y-35480D01*
X41536Y-35403D01*
X41672Y-35273D01*
X41780Y-35120D01*
X41857Y-34949D01*
X41898Y-34766D01*
X41901Y-34551D01*
X41892Y-34507D01*
X41897Y-34493D01*
X41901Y-34450D01*
X41901Y-33758D01*
X41897Y-33715D01*
X41896Y-33712D01*
X47079Y-33712D01*
X47079Y-33715D01*
X47074Y-33758D01*
X47074Y-34450D01*
X47079Y-34493D01*
X47082Y-34506D01*
X47076Y-34538D01*
X47073Y-34726D01*
X47107Y-34910D01*
X47176Y-35085D01*
X47278Y-35242D01*
X47408Y-35377D01*
X47562Y-35484D01*
X47734Y-35559D01*
X47917Y-35600D01*
X48105Y-35604D01*
X48167Y-35593D01*
X48183Y-35598D01*
X48226Y-35602D01*
X48918Y-35602D01*
X48961Y-35598D01*
X48964Y-35597D01*
X48964Y-40780D01*
X48964Y-40780D01*
G37*
G54D27*
X48964Y-40780D02*
X48961Y-40779D01*
X48918Y-40775D01*
X48226Y-40775D01*
X48220Y-40776D01*
X48220Y-40059D01*
X48220Y-38385D01*
X48220Y-37578D01*
X48220Y-36377D01*
X48218Y-36360D01*
X48217Y-36343D01*
X48216Y-36342D01*
X48216Y-36341D01*
X48211Y-36324D01*
X48206Y-36307D01*
X48206Y-36306D01*
X48206Y-36305D01*
X48198Y-36290D01*
X48189Y-36275D01*
X48189Y-36274D01*
X48188Y-36273D01*
X48177Y-36259D01*
X48166Y-36246D01*
X48165Y-36244D01*
X48165Y-36244D01*
X48165Y-36244D01*
X48165Y-36244D01*
X46856Y-34935D01*
X46842Y-34924D01*
X46829Y-34912D01*
X46828Y-34912D01*
X46827Y-34911D01*
X46812Y-34903D01*
X46796Y-34895D01*
X46795Y-34894D01*
X46795Y-34894D01*
X46778Y-34889D01*
X46761Y-34884D01*
X46760Y-34883D01*
X46759Y-34883D01*
X46742Y-34881D01*
X46725Y-34879D01*
X46723Y-34879D01*
X46723Y-34879D01*
X46723Y-34879D01*
X46722Y-34879D01*
X46443Y-34879D01*
X46443Y-34564D01*
X46443Y-33938D01*
X46442Y-33913D01*
X46437Y-33888D01*
X46427Y-33865D01*
X46413Y-33843D01*
X46395Y-33825D01*
X46374Y-33811D01*
X46350Y-33802D01*
X46325Y-33797D01*
X46038Y-33797D01*
X46005Y-33829D01*
X46005Y-34234D01*
X46410Y-34234D01*
X46442Y-34201D01*
X46443Y-33938D01*
X46443Y-34564D01*
X46442Y-34302D01*
X46410Y-34269D01*
X46005Y-34269D01*
X46005Y-34674D01*
X46038Y-34706D01*
X46325Y-34706D01*
X46350Y-34701D01*
X46374Y-34692D01*
X46395Y-34677D01*
X46413Y-34659D01*
X46427Y-34638D01*
X46437Y-34615D01*
X46442Y-34590D01*
X46443Y-34564D01*
X46443Y-34879D01*
X45784Y-34879D01*
X45587Y-34682D01*
X45602Y-34692D01*
X45625Y-34701D01*
X45650Y-34706D01*
X45937Y-34706D01*
X45970Y-34674D01*
X45970Y-34269D01*
X45970Y-34234D01*
X45970Y-33829D01*
X45937Y-33797D01*
X45650Y-33797D01*
X45625Y-33802D01*
X45602Y-33811D01*
X45580Y-33825D01*
X45562Y-33843D01*
X45548Y-33865D01*
X45538Y-33888D01*
X45533Y-33913D01*
X45533Y-33938D01*
X45533Y-34201D01*
X45565Y-34234D01*
X45970Y-34234D01*
X45970Y-34269D01*
X45565Y-34269D01*
X45533Y-34302D01*
X45533Y-34564D01*
X45533Y-34590D01*
X45538Y-34615D01*
X45548Y-34638D01*
X45558Y-34653D01*
X45514Y-34609D01*
X45519Y-34591D01*
X45523Y-34548D01*
X45523Y-33994D01*
X45519Y-33951D01*
X45506Y-33908D01*
X45485Y-33869D01*
X45456Y-33834D01*
X45422Y-33806D01*
X45382Y-33784D01*
X45339Y-33771D01*
X45296Y-33767D01*
X42675Y-33767D01*
X42632Y-33771D01*
X42589Y-33784D01*
X42550Y-33806D01*
X42515Y-33834D01*
X42487Y-33869D01*
X42466Y-33908D01*
X42453Y-33951D01*
X42448Y-33994D01*
X42448Y-34548D01*
X42453Y-34591D01*
X42466Y-34634D01*
X42487Y-34674D01*
X42515Y-34708D01*
X42550Y-34737D01*
X42589Y-34758D01*
X42632Y-34771D01*
X42675Y-34775D01*
X44220Y-34775D01*
X44208Y-34777D01*
X44181Y-34789D01*
X44157Y-34805D01*
X44136Y-34826D01*
X44119Y-34850D01*
X44108Y-34877D01*
X44102Y-34906D01*
X44102Y-34935D01*
X44102Y-35408D01*
X44108Y-35437D01*
X44119Y-35464D01*
X44135Y-35488D01*
X44156Y-35509D01*
X44180Y-35526D01*
X44207Y-35537D01*
X44236Y-35543D01*
X44265Y-35543D01*
X44738Y-35543D01*
X44767Y-35537D01*
X44794Y-35526D01*
X44819Y-35510D01*
X44840Y-35489D01*
X44856Y-35465D01*
X44867Y-35438D01*
X44873Y-35409D01*
X44873Y-35380D01*
X44873Y-35317D01*
X44875Y-35317D01*
X45202Y-35644D01*
X45213Y-35653D01*
X45224Y-35663D01*
X45225Y-35663D01*
X45226Y-35663D01*
X45239Y-35670D01*
X45252Y-35678D01*
X45252Y-35678D01*
X45253Y-35678D01*
X45267Y-35683D01*
X45281Y-35687D01*
X45282Y-35687D01*
X45283Y-35687D01*
X45298Y-35689D01*
X45312Y-35690D01*
X45314Y-35690D01*
X45314Y-35690D01*
X45314Y-35690D01*
X45314Y-35690D01*
X45741Y-35690D01*
X46540Y-36490D01*
X46552Y-36500D01*
X46563Y-36509D01*
X46564Y-36509D01*
X46564Y-36510D01*
X46577Y-36517D01*
X46590Y-36524D01*
X46591Y-36524D01*
X46592Y-36525D01*
X46606Y-36529D01*
X46620Y-36533D01*
X46621Y-36534D01*
X46622Y-36534D01*
X46636Y-36535D01*
X46651Y-36537D01*
X46652Y-36537D01*
X46652Y-36537D01*
X46653Y-36537D01*
X46653Y-36537D01*
X46804Y-36537D01*
X47163Y-36896D01*
X47163Y-36929D01*
X47171Y-36975D01*
X47188Y-37018D01*
X47214Y-37058D01*
X47246Y-37091D01*
X47284Y-37118D01*
X47327Y-37137D01*
X47373Y-37147D01*
X47419Y-37148D01*
X47465Y-37139D01*
X47509Y-37123D01*
X47548Y-37098D01*
X47582Y-37065D01*
X47609Y-37027D01*
X47628Y-36984D01*
X47639Y-36939D01*
X47639Y-36886D01*
X47630Y-36840D01*
X47612Y-36797D01*
X47587Y-36758D01*
X47554Y-36725D01*
X47515Y-36698D01*
X47472Y-36680D01*
X47426Y-36671D01*
X47388Y-36671D01*
X46982Y-36265D01*
X46971Y-36255D01*
X46960Y-36246D01*
X46959Y-36245D01*
X46958Y-36245D01*
X46945Y-36238D01*
X46932Y-36231D01*
X46932Y-36231D01*
X46931Y-36230D01*
X46917Y-36226D01*
X46903Y-36221D01*
X46902Y-36221D01*
X46901Y-36221D01*
X46886Y-36220D01*
X46872Y-36218D01*
X46870Y-36218D01*
X46870Y-36218D01*
X46870Y-36218D01*
X46870Y-36218D01*
X46719Y-36218D01*
X46270Y-35768D01*
X46270Y-35769D01*
X46317Y-35770D01*
X46363Y-35762D01*
X46407Y-35745D01*
X46446Y-35720D01*
X46480Y-35687D01*
X46507Y-35649D01*
X46526Y-35607D01*
X46536Y-35561D01*
X46537Y-35508D01*
X46528Y-35462D01*
X46510Y-35419D01*
X46484Y-35380D01*
X46451Y-35347D01*
X46413Y-35320D01*
X46369Y-35302D01*
X46324Y-35293D01*
X46286Y-35293D01*
X46251Y-35257D01*
X46644Y-35257D01*
X47842Y-36456D01*
X47842Y-37389D01*
X47684Y-37389D01*
X47680Y-37383D01*
X47637Y-37340D01*
X47587Y-37307D01*
X47532Y-37283D01*
X47473Y-37271D01*
X47412Y-37271D01*
X47353Y-37282D01*
X47297Y-37305D01*
X47247Y-37338D01*
X47204Y-37380D01*
X47170Y-37430D01*
X47146Y-37485D01*
X47134Y-37544D01*
X47133Y-37604D01*
X47144Y-37663D01*
X47166Y-37719D01*
X47199Y-37770D01*
X47240Y-37813D01*
X47290Y-37848D01*
X47345Y-37872D01*
X47404Y-37885D01*
X47464Y-37886D01*
X47523Y-37875D01*
X47580Y-37854D01*
X47630Y-37821D01*
X47674Y-37780D01*
X47683Y-37767D01*
X47842Y-37767D01*
X47842Y-38385D01*
X47842Y-38764D01*
X47830Y-38704D01*
X47760Y-38534D01*
X47658Y-38381D01*
X47529Y-38250D01*
X47376Y-38148D01*
X47207Y-38076D01*
X47027Y-38039D01*
X46843Y-38038D01*
X46663Y-38073D01*
X46492Y-38141D01*
X46339Y-38242D01*
X46207Y-38371D01*
X46104Y-38522D01*
X46031Y-38691D01*
X45993Y-38871D01*
X45990Y-39055D01*
X46024Y-39235D01*
X46091Y-39406D01*
X46191Y-39561D01*
X46318Y-39693D01*
X46469Y-39798D01*
X46638Y-39871D01*
X46817Y-39911D01*
X47001Y-39915D01*
X47182Y-39883D01*
X47353Y-39816D01*
X47508Y-39718D01*
X47641Y-39591D01*
X47747Y-39441D01*
X47822Y-39273D01*
X47842Y-39185D01*
X47842Y-39980D01*
X47461Y-40362D01*
X46555Y-40362D01*
X46537Y-40363D01*
X46520Y-40365D01*
X46519Y-40365D01*
X46518Y-40365D01*
X46501Y-40370D01*
X46484Y-40375D01*
X46484Y-40376D01*
X46483Y-40376D01*
X46467Y-40384D01*
X46452Y-40392D01*
X46451Y-40393D01*
X46450Y-40393D01*
X46437Y-40404D01*
X46423Y-40415D01*
X46421Y-40417D01*
X46421Y-40417D01*
X46421Y-40417D01*
X46421Y-40417D01*
X46140Y-40698D01*
X46134Y-40697D01*
X46074Y-40696D01*
X46015Y-40707D01*
X45959Y-40730D01*
X45949Y-40737D01*
X45949Y-36222D01*
X45940Y-36130D01*
X45914Y-36040D01*
X45870Y-35958D01*
X45868Y-35954D01*
X45798Y-35919D01*
X45773Y-35944D01*
X45773Y-35894D01*
X45738Y-35824D01*
X45656Y-35780D01*
X45567Y-35753D01*
X45474Y-35743D01*
X45382Y-35752D01*
X45292Y-35778D01*
X45210Y-35822D01*
X45206Y-35824D01*
X45171Y-35894D01*
X45472Y-36195D01*
X45773Y-35894D01*
X45773Y-35944D01*
X45497Y-36220D01*
X45798Y-36521D01*
X45868Y-36486D01*
X45912Y-36404D01*
X45939Y-36315D01*
X45949Y-36222D01*
X45949Y-40737D01*
X45909Y-40763D01*
X45865Y-40805D01*
X45831Y-40855D01*
X45808Y-40910D01*
X45795Y-40969D01*
X45794Y-41029D01*
X45805Y-41088D01*
X45827Y-41144D01*
X45860Y-41195D01*
X45902Y-41238D01*
X45951Y-41273D01*
X46007Y-41297D01*
X46065Y-41310D01*
X46126Y-41311D01*
X46185Y-41301D01*
X46241Y-41279D01*
X46292Y-41247D01*
X46335Y-41205D01*
X46370Y-41156D01*
X46395Y-41101D01*
X46408Y-41042D01*
X46409Y-40973D01*
X46407Y-40965D01*
X46633Y-40740D01*
X47539Y-40740D01*
X47556Y-40738D01*
X47574Y-40736D01*
X47575Y-40736D01*
X47576Y-40736D01*
X47592Y-40731D01*
X47609Y-40726D01*
X47610Y-40726D01*
X47611Y-40725D01*
X47626Y-40717D01*
X47642Y-40709D01*
X47643Y-40709D01*
X47643Y-40708D01*
X47657Y-40697D01*
X47671Y-40686D01*
X47672Y-40685D01*
X47672Y-40685D01*
X47672Y-40685D01*
X47672Y-40684D01*
X48165Y-40192D01*
X48176Y-40179D01*
X48187Y-40165D01*
X48187Y-40164D01*
X48188Y-40164D01*
X48196Y-40148D01*
X48205Y-40133D01*
X48205Y-40132D01*
X48205Y-40131D01*
X48211Y-40115D01*
X48216Y-40098D01*
X48216Y-40097D01*
X48216Y-40096D01*
X48218Y-40079D01*
X48220Y-40061D01*
X48220Y-40059D01*
X48220Y-40059D01*
X48220Y-40059D01*
X48220Y-40059D01*
X48220Y-40776D01*
X48183Y-40779D01*
X48169Y-40784D01*
X48131Y-40776D01*
X47944Y-40774D01*
X47760Y-40810D01*
X47586Y-40880D01*
X47429Y-40983D01*
X47295Y-41114D01*
X47189Y-41269D01*
X47115Y-41441D01*
X47076Y-41625D01*
X47073Y-41812D01*
X47083Y-41868D01*
X47079Y-41884D01*
X47074Y-41927D01*
X47074Y-42619D01*
X47079Y-42662D01*
X47079Y-42665D01*
X45966Y-42665D01*
X45966Y-41880D01*
X45947Y-41785D01*
X45910Y-41696D01*
X45857Y-41615D01*
X45788Y-41546D01*
X45773Y-41536D01*
X45773Y-36546D01*
X45472Y-36245D01*
X45447Y-36270D01*
X45447Y-36220D01*
X45146Y-35919D01*
X45076Y-35954D01*
X45032Y-36036D01*
X45005Y-36125D01*
X44995Y-36218D01*
X45004Y-36310D01*
X45030Y-36400D01*
X45074Y-36482D01*
X45076Y-36486D01*
X45146Y-36521D01*
X45447Y-36220D01*
X45447Y-36270D01*
X45171Y-36546D01*
X45206Y-36616D01*
X45288Y-36660D01*
X45377Y-36687D01*
X45470Y-36697D01*
X45562Y-36688D01*
X45652Y-36662D01*
X45734Y-36618D01*
X45738Y-36616D01*
X45773Y-36546D01*
X45773Y-41536D01*
X45708Y-41492D01*
X45619Y-41454D01*
X45524Y-41435D01*
X45494Y-41435D01*
X45494Y-38893D01*
X45485Y-38848D01*
X45467Y-38804D01*
X45441Y-38766D01*
X45408Y-38732D01*
X45369Y-38706D01*
X45326Y-38688D01*
X45280Y-38679D01*
X45234Y-38678D01*
X45188Y-38687D01*
X45145Y-38705D01*
X45105Y-38730D01*
X45072Y-38763D01*
X45046Y-38802D01*
X45027Y-38844D01*
X45018Y-38890D01*
X45017Y-38937D01*
X45025Y-38983D01*
X45043Y-39026D01*
X45068Y-39065D01*
X45076Y-39074D01*
X45076Y-39369D01*
X45052Y-39393D01*
X45026Y-39431D01*
X45008Y-39474D01*
X44998Y-39520D01*
X44997Y-39567D01*
X45006Y-39613D01*
X45023Y-39656D01*
X45048Y-39695D01*
X45081Y-39729D01*
X45119Y-39756D01*
X45162Y-39774D01*
X45207Y-39784D01*
X45254Y-39785D01*
X45300Y-39777D01*
X45344Y-39760D01*
X45383Y-39735D01*
X45417Y-39703D01*
X45444Y-39665D01*
X45463Y-39622D01*
X45473Y-39577D01*
X45474Y-39523D01*
X45465Y-39478D01*
X45447Y-39434D01*
X45421Y-39395D01*
X45395Y-39369D01*
X45395Y-39110D01*
X45403Y-39105D01*
X45437Y-39073D01*
X45464Y-39035D01*
X45483Y-38992D01*
X45493Y-38947D01*
X45494Y-38893D01*
X45494Y-41435D01*
X45427Y-41434D01*
X45332Y-41452D01*
X45242Y-41489D01*
X45161Y-41542D01*
X45092Y-41609D01*
X45037Y-41689D01*
X44999Y-41779D01*
X44979Y-41873D01*
X44977Y-41970D01*
X44995Y-42065D01*
X45030Y-42156D01*
X45083Y-42237D01*
X45150Y-42307D01*
X45230Y-42362D01*
X45319Y-42401D01*
X45413Y-42422D01*
X45510Y-42424D01*
X45605Y-42407D01*
X45696Y-42372D01*
X45778Y-42320D01*
X45848Y-42253D01*
X45904Y-42174D01*
X45943Y-42085D01*
X45965Y-41991D01*
X45966Y-41880D01*
X45966Y-42665D01*
X44964Y-42665D01*
X44964Y-41931D01*
X44956Y-41838D01*
X44929Y-41749D01*
X44886Y-41667D01*
X44883Y-41663D01*
X44854Y-41648D01*
X44854Y-36232D01*
X44854Y-35735D01*
X44849Y-35710D01*
X44839Y-35686D01*
X44825Y-35665D01*
X44807Y-35647D01*
X44786Y-35633D01*
X44762Y-35623D01*
X44737Y-35618D01*
X44712Y-35617D01*
X44538Y-35617D01*
X44505Y-35650D01*
X44505Y-35966D01*
X44821Y-35966D01*
X44854Y-35933D01*
X44854Y-35735D01*
X44854Y-36232D01*
X44854Y-36034D01*
X44821Y-36001D01*
X44505Y-36001D01*
X44505Y-36317D01*
X44538Y-36349D01*
X44712Y-36349D01*
X44737Y-36349D01*
X44762Y-36344D01*
X44786Y-36334D01*
X44807Y-36320D01*
X44825Y-36302D01*
X44839Y-36281D01*
X44849Y-36257D01*
X44854Y-36232D01*
X44854Y-41648D01*
X44814Y-41627D01*
X44789Y-41652D01*
X44789Y-41602D01*
X44753Y-41533D01*
X44671Y-41489D01*
X44582Y-41461D01*
X44490Y-41452D01*
X44397Y-41461D01*
X44308Y-41487D01*
X44226Y-41530D01*
X44222Y-41533D01*
X44186Y-41602D01*
X44488Y-41904D01*
X44789Y-41602D01*
X44789Y-41652D01*
X44513Y-41929D01*
X44814Y-42230D01*
X44883Y-42194D01*
X44928Y-42112D01*
X44955Y-42023D01*
X44964Y-41931D01*
X44964Y-42665D01*
X44789Y-42665D01*
X44789Y-42255D01*
X44488Y-41954D01*
X44463Y-41979D01*
X44463Y-41929D01*
X44161Y-41627D01*
X44092Y-41663D01*
X44048Y-41745D01*
X44021Y-41834D01*
X44011Y-41926D01*
X44020Y-42019D01*
X44046Y-42108D01*
X44089Y-42191D01*
X44092Y-42194D01*
X44161Y-42230D01*
X44463Y-41929D01*
X44463Y-41979D01*
X44186Y-42255D01*
X44222Y-42324D01*
X44304Y-42369D01*
X44393Y-42396D01*
X44485Y-42405D01*
X44578Y-42397D01*
X44667Y-42370D01*
X44750Y-42327D01*
X44753Y-42324D01*
X44789Y-42255D01*
X44789Y-42665D01*
X43998Y-42665D01*
X43998Y-41880D01*
X43979Y-41785D01*
X43942Y-41696D01*
X43888Y-41615D01*
X43820Y-41546D01*
X43740Y-41492D01*
X43650Y-41454D01*
X43555Y-41435D01*
X43458Y-41434D01*
X43363Y-41452D01*
X43273Y-41489D01*
X43192Y-41542D01*
X43123Y-41609D01*
X43068Y-41689D01*
X43030Y-41779D01*
X43010Y-41873D01*
X43009Y-41970D01*
X43026Y-42065D01*
X43062Y-42156D01*
X43114Y-42237D01*
X43182Y-42307D01*
X43261Y-42362D01*
X43350Y-42401D01*
X43445Y-42422D01*
X43542Y-42424D01*
X43637Y-42407D01*
X43727Y-42372D01*
X43809Y-42320D01*
X43879Y-42253D01*
X43935Y-42174D01*
X43975Y-42085D01*
X43996Y-41991D01*
X43998Y-41880D01*
X43998Y-42665D01*
X41901Y-42665D01*
X41901Y-41700D01*
X41900Y-41700D01*
X41901Y-41638D01*
X41865Y-41454D01*
X41793Y-41280D01*
X41689Y-41124D01*
X41557Y-40991D01*
X41402Y-40886D01*
X41229Y-40813D01*
X41045Y-40776D01*
X40976Y-40775D01*
X40976Y-40775D01*
X40954Y-40775D01*
X40857Y-40774D01*
X40854Y-40775D01*
X40789Y-40775D01*
X40789Y-38058D01*
X40551Y-37820D01*
X40526Y-37845D01*
X40526Y-37795D01*
X40287Y-37556D01*
X40227Y-37581D01*
X40192Y-37648D01*
X40170Y-37721D01*
X40163Y-37796D01*
X40171Y-37872D01*
X40193Y-37944D01*
X40227Y-38008D01*
X40287Y-38033D01*
X40526Y-37795D01*
X40526Y-37845D01*
X40312Y-38058D01*
X40337Y-38119D01*
X40404Y-38154D01*
X40477Y-38175D01*
X40552Y-38182D01*
X40627Y-38175D01*
X40700Y-38153D01*
X40764Y-38119D01*
X40789Y-38058D01*
X40789Y-40775D01*
X40011Y-40775D01*
X40011Y-35597D01*
X40014Y-35598D01*
X40057Y-35602D01*
X40587Y-35602D01*
X40417Y-35771D01*
X40406Y-35785D01*
X40398Y-35795D01*
X40125Y-35795D01*
X40125Y-37433D01*
X40416Y-37433D01*
X40402Y-37437D01*
X40337Y-37471D01*
X40312Y-37531D01*
X40551Y-37770D01*
X40789Y-37531D01*
X40764Y-37471D01*
X40697Y-37436D01*
X40686Y-37433D01*
X40913Y-37433D01*
X40913Y-37660D01*
X40909Y-37646D01*
X40874Y-37581D01*
X40814Y-37556D01*
X40576Y-37795D01*
X40814Y-38033D01*
X40874Y-38008D01*
X40910Y-37941D01*
X40913Y-37930D01*
X40913Y-38220D01*
X40964Y-38220D01*
X41259Y-38220D01*
X41494Y-38220D01*
X41382Y-38311D01*
X41265Y-38452D01*
X41178Y-38613D01*
X41124Y-38787D01*
X41105Y-38969D01*
X41122Y-39151D01*
X41173Y-39327D01*
X41258Y-39489D01*
X41373Y-39631D01*
X41513Y-39749D01*
X41673Y-39837D01*
X41847Y-39892D01*
X42029Y-39913D01*
X42042Y-39913D01*
X42051Y-39913D01*
X42233Y-39895D01*
X42408Y-39842D01*
X42570Y-39756D01*
X42712Y-39641D01*
X42828Y-39500D01*
X42915Y-39339D01*
X42969Y-39164D01*
X42988Y-38982D01*
X42972Y-38800D01*
X42920Y-38625D01*
X42869Y-38528D01*
X42918Y-38577D01*
X42930Y-38586D01*
X42941Y-38596D01*
X42942Y-38596D01*
X42942Y-38597D01*
X42955Y-38604D01*
X42968Y-38611D01*
X42969Y-38611D01*
X42970Y-38611D01*
X42984Y-38616D01*
X42998Y-38620D01*
X42999Y-38620D01*
X42999Y-38620D01*
X43014Y-38622D01*
X43029Y-38624D01*
X43030Y-38624D01*
X43030Y-38624D01*
X43030Y-38624D01*
X43031Y-38624D01*
X43366Y-38624D01*
X43380Y-38622D01*
X43395Y-38621D01*
X43396Y-38621D01*
X43397Y-38620D01*
X43411Y-38616D01*
X43425Y-38612D01*
X43426Y-38612D01*
X43426Y-38611D01*
X43439Y-38605D01*
X43452Y-38598D01*
X43453Y-38597D01*
X43454Y-38597D01*
X43465Y-38588D01*
X43477Y-38578D01*
X43478Y-38577D01*
X43478Y-38577D01*
X43478Y-38577D01*
X43478Y-38577D01*
X43727Y-38328D01*
X43758Y-38329D01*
X43804Y-38321D01*
X43848Y-38304D01*
X43856Y-38298D01*
X43856Y-38339D01*
X43437Y-38757D01*
X43403Y-38757D01*
X43357Y-38766D01*
X43314Y-38783D01*
X43275Y-38809D01*
X43241Y-38842D01*
X43215Y-38880D01*
X43197Y-38923D01*
X43187Y-38969D01*
X43186Y-39016D01*
X43195Y-39062D01*
X43212Y-39105D01*
X43237Y-39144D01*
X43270Y-39178D01*
X43308Y-39204D01*
X43351Y-39223D01*
X43396Y-39233D01*
X43443Y-39234D01*
X43489Y-39226D01*
X43533Y-39209D01*
X43572Y-39184D01*
X43606Y-39152D01*
X43632Y-39115D01*
X43651Y-39144D01*
X43683Y-39178D01*
X43721Y-39204D01*
X43764Y-39223D01*
X43810Y-39233D01*
X43856Y-39234D01*
X43902Y-39226D01*
X43946Y-39209D01*
X43985Y-39184D01*
X44019Y-39152D01*
X44046Y-39114D01*
X44065Y-39071D01*
X44076Y-39026D01*
X44076Y-38983D01*
X44364Y-38695D01*
X44374Y-38684D01*
X44383Y-38672D01*
X44383Y-38672D01*
X44384Y-38671D01*
X44391Y-38658D01*
X44398Y-38645D01*
X44398Y-38644D01*
X44399Y-38643D01*
X44403Y-38629D01*
X44407Y-38615D01*
X44408Y-38614D01*
X44408Y-38614D01*
X44409Y-38599D01*
X44411Y-38584D01*
X44411Y-38583D01*
X44411Y-38583D01*
X44411Y-38583D01*
X44411Y-38582D01*
X44411Y-38464D01*
X44411Y-37342D01*
X44409Y-37327D01*
X44408Y-37313D01*
X44408Y-37312D01*
X44408Y-37311D01*
X44404Y-37297D01*
X44400Y-37283D01*
X44399Y-37282D01*
X44399Y-37281D01*
X44392Y-37268D01*
X44385Y-37255D01*
X44385Y-37255D01*
X44384Y-37254D01*
X44375Y-37242D01*
X44366Y-37231D01*
X44365Y-37230D01*
X44365Y-37230D01*
X44365Y-37230D01*
X44364Y-37229D01*
X44214Y-37079D01*
X44214Y-36496D01*
X44214Y-36344D01*
X44238Y-36349D01*
X44264Y-36349D01*
X44437Y-36349D01*
X44470Y-36317D01*
X44470Y-36001D01*
X44462Y-36001D01*
X44462Y-35966D01*
X44470Y-35966D01*
X44470Y-35650D01*
X44437Y-35617D01*
X44264Y-35617D01*
X44238Y-35618D01*
X44213Y-35623D01*
X44190Y-35633D01*
X44168Y-35647D01*
X44151Y-35665D01*
X44136Y-35686D01*
X44127Y-35710D01*
X44122Y-35735D01*
X44122Y-35786D01*
X43852Y-35517D01*
X43841Y-35507D01*
X43830Y-35498D01*
X43829Y-35497D01*
X43828Y-35497D01*
X43815Y-35490D01*
X43802Y-35483D01*
X43802Y-35483D01*
X43801Y-35482D01*
X43787Y-35478D01*
X43773Y-35473D01*
X43772Y-35473D01*
X43771Y-35473D01*
X43757Y-35472D01*
X43755Y-35471D01*
X43772Y-35447D01*
X43796Y-35392D01*
X43810Y-35333D01*
X43811Y-35265D01*
X43799Y-35206D01*
X43776Y-35150D01*
X43743Y-35100D01*
X43700Y-35057D01*
X43650Y-35023D01*
X43595Y-35000D01*
X43536Y-34988D01*
X43475Y-34987D01*
X43416Y-34999D01*
X43360Y-35021D01*
X43310Y-35054D01*
X43267Y-35096D01*
X43261Y-35106D01*
X43129Y-35106D01*
X43112Y-35108D01*
X43095Y-35109D01*
X43094Y-35109D01*
X43093Y-35109D01*
X43076Y-35114D01*
X43059Y-35119D01*
X43058Y-35120D01*
X43057Y-35120D01*
X43042Y-35128D01*
X43026Y-35136D01*
X43026Y-35137D01*
X43025Y-35137D01*
X43011Y-35148D01*
X42998Y-35159D01*
X42996Y-35161D01*
X42996Y-35161D01*
X42996Y-35161D01*
X42996Y-35161D01*
X42677Y-35480D01*
X41415Y-35480D01*
X41536Y-35403D01*
X41672Y-35273D01*
X41780Y-35120D01*
X41857Y-34949D01*
X41898Y-34766D01*
X41901Y-34551D01*
X41892Y-34507D01*
X41897Y-34493D01*
X41901Y-34450D01*
X41901Y-33758D01*
X41897Y-33715D01*
X41896Y-33712D01*
X47079Y-33712D01*
X47079Y-33715D01*
X47074Y-33758D01*
X47074Y-34450D01*
X47079Y-34493D01*
X47082Y-34506D01*
X47076Y-34538D01*
X47073Y-34726D01*
X47107Y-34910D01*
X47176Y-35085D01*
X47278Y-35242D01*
X47408Y-35377D01*
X47562Y-35484D01*
X47734Y-35559D01*
X47917Y-35600D01*
X48105Y-35604D01*
X48167Y-35593D01*
X48183Y-35598D01*
X48226Y-35602D01*
X48918Y-35602D01*
X48961Y-35598D01*
X48964Y-35597D01*
X48964Y-40780D01*
M02*
