M48
INCH,TZ
T1C0.013
T2C0.033
T3C0.040
T4C0.043
T5C0.083
T6C0.098
%
G90
G05
T1
X042402Y-035571
X042461Y-035138
X042815Y-037894
X042992Y-038248
X043386Y-035236
X043740Y-038091
X043937Y-038957
X044232Y-038543
X045236Y-039665
X045256Y-038701
X046000Y-041248
X046299Y-035531
X047402Y-036909
T2
X040551Y-036220
X040551Y-037008
X040551Y-037795
X041339Y-036220
X041339Y-037008
X041339Y-037795
T3
X042988Y-034252
X043988Y-034252
X044988Y-034252
X045988Y-034252
T4
X043504Y-036220
X043504Y-041929
X044488Y-041929
X045472Y-036220
X045472Y-041929
T5
X040945Y-034646
X040945Y-041732
X048031Y-034646
X048031Y-041732
T6
X042047Y-038976
X046929Y-038976
T0
M30
