G04 (created by PCBNEW (2013-02-28 BZR 3978)-testing) date Fri 01 Mar 2013 12:32:55 PM CET*
%MOIN*%
G04 Gerber Fmt 3.4, Leading zero omitted, Abs format*
%FSLAX34Y34*%
G01*
G70*
G90*
G04 APERTURE LIST*
%ADD10C,3.14961e-06*%
%ADD11C,0.00787402*%
%ADD12C,0.00738189*%
%ADD13C,0.0001*%
%ADD14C,0.00393701*%
%ADD15R,0.0511811X0.0511811*%
%ADD16C,0.0511811*%
%ADD17R,0.0649606X0.0649606*%
%ADD18C,0.0649606*%
%ADD19C,0.0984252*%
%ADD20R,0.0472X0.0472*%
%ADD21C,0.0688976*%
%ADD22O,0.15748X0.15748*%
G04 APERTURE END LIST*
G54D10*
G54D11*
X48513Y-38699D02*
X48828Y-38594D01*
X48513Y-38489D01*
X48513Y-38324D02*
X48513Y-38294D01*
X48528Y-38264D01*
X48543Y-38249D01*
X48573Y-38234D01*
X48633Y-38219D01*
X48708Y-38219D01*
X48768Y-38234D01*
X48798Y-38249D01*
X48813Y-38264D01*
X48828Y-38294D01*
X48828Y-38324D01*
X48813Y-38354D01*
X48798Y-38369D01*
X48768Y-38384D01*
X48708Y-38399D01*
X48633Y-38399D01*
X48573Y-38384D01*
X48543Y-38369D01*
X48528Y-38354D01*
X48513Y-38324D01*
X48798Y-38084D02*
X48813Y-38069D01*
X48828Y-38084D01*
X48813Y-38099D01*
X48798Y-38084D01*
X48828Y-38084D01*
X48543Y-37949D02*
X48528Y-37934D01*
X48513Y-37904D01*
X48513Y-37829D01*
X48528Y-37799D01*
X48543Y-37784D01*
X48573Y-37769D01*
X48603Y-37769D01*
X48648Y-37784D01*
X48828Y-37964D01*
X48828Y-37769D01*
X48543Y-37410D02*
X48528Y-37395D01*
X48513Y-37365D01*
X48513Y-37290D01*
X48528Y-37260D01*
X48543Y-37245D01*
X48573Y-37230D01*
X48603Y-37230D01*
X48648Y-37245D01*
X48828Y-37425D01*
X48828Y-37230D01*
X48513Y-37035D02*
X48513Y-37005D01*
X48528Y-36975D01*
X48543Y-36960D01*
X48573Y-36945D01*
X48633Y-36930D01*
X48708Y-36930D01*
X48768Y-36945D01*
X48798Y-36960D01*
X48813Y-36975D01*
X48828Y-37005D01*
X48828Y-37035D01*
X48813Y-37065D01*
X48798Y-37080D01*
X48768Y-37095D01*
X48708Y-37110D01*
X48633Y-37110D01*
X48573Y-37095D01*
X48543Y-37080D01*
X48528Y-37065D01*
X48513Y-37035D01*
X48828Y-36630D02*
X48828Y-36810D01*
X48828Y-36720D02*
X48513Y-36720D01*
X48558Y-36750D01*
X48588Y-36780D01*
X48603Y-36810D01*
X48513Y-36525D02*
X48513Y-36330D01*
X48633Y-36435D01*
X48633Y-36390D01*
X48648Y-36360D01*
X48663Y-36345D01*
X48693Y-36330D01*
X48768Y-36330D01*
X48798Y-36345D01*
X48813Y-36360D01*
X48828Y-36390D01*
X48828Y-36480D01*
X48813Y-36510D01*
X48798Y-36525D01*
X43889Y-36847D02*
X44007Y-36847D01*
X44057Y-37033D02*
X43889Y-37033D01*
X43889Y-36678D01*
X44057Y-36678D01*
X44209Y-37033D02*
X44209Y-36678D01*
X44412Y-37033D01*
X44412Y-36678D01*
X44766Y-37033D02*
X44564Y-37033D01*
X44665Y-37033D02*
X44665Y-36678D01*
X44631Y-36729D01*
X44597Y-36763D01*
X44564Y-36780D01*
X44901Y-36712D02*
X44918Y-36695D01*
X44952Y-36678D01*
X45036Y-36678D01*
X45070Y-36695D01*
X45087Y-36712D01*
X45104Y-36746D01*
X45104Y-36780D01*
X45087Y-36830D01*
X44884Y-37033D01*
X45104Y-37033D01*
X43239Y-37607D02*
X43239Y-37253D01*
X43239Y-37422D02*
X43442Y-37422D01*
X43442Y-37607D02*
X43442Y-37253D01*
X43593Y-37591D02*
X43644Y-37607D01*
X43728Y-37607D01*
X43762Y-37591D01*
X43779Y-37574D01*
X43796Y-37540D01*
X43796Y-37506D01*
X43779Y-37473D01*
X43762Y-37456D01*
X43728Y-37439D01*
X43661Y-37422D01*
X43627Y-37405D01*
X43610Y-37388D01*
X43593Y-37354D01*
X43593Y-37321D01*
X43610Y-37287D01*
X43627Y-37270D01*
X43661Y-37253D01*
X43745Y-37253D01*
X43796Y-37270D01*
X43931Y-37287D02*
X43948Y-37270D01*
X43982Y-37253D01*
X44066Y-37253D01*
X44100Y-37270D01*
X44116Y-37287D01*
X44133Y-37321D01*
X44133Y-37354D01*
X44116Y-37405D01*
X43914Y-37607D01*
X44133Y-37607D01*
X44268Y-37287D02*
X44285Y-37270D01*
X44319Y-37253D01*
X44403Y-37253D01*
X44437Y-37270D01*
X44454Y-37287D01*
X44471Y-37321D01*
X44471Y-37354D01*
X44454Y-37405D01*
X44251Y-37607D01*
X44471Y-37607D01*
X44606Y-37506D02*
X44775Y-37506D01*
X44572Y-37607D02*
X44690Y-37253D01*
X44808Y-37607D01*
X45044Y-37422D02*
X44926Y-37422D01*
X44926Y-37607D02*
X44926Y-37253D01*
X45095Y-37253D01*
X45213Y-37287D02*
X45230Y-37270D01*
X45264Y-37253D01*
X45348Y-37253D01*
X45382Y-37270D01*
X45399Y-37287D01*
X45416Y-37321D01*
X45416Y-37354D01*
X45399Y-37405D01*
X45196Y-37607D01*
X45416Y-37607D01*
X45635Y-37253D02*
X45669Y-37253D01*
X45703Y-37270D01*
X45719Y-37287D01*
X45736Y-37321D01*
X45753Y-37388D01*
X45753Y-37473D01*
X45736Y-37540D01*
X45719Y-37574D01*
X45703Y-37591D01*
X45669Y-37607D01*
X45635Y-37607D01*
X45601Y-37591D01*
X45584Y-37574D01*
X45568Y-37540D01*
X45551Y-37473D01*
X45551Y-37388D01*
X45568Y-37321D01*
X45584Y-37287D01*
X45601Y-37270D01*
X45635Y-37253D01*
X48129Y-33562D02*
X40846Y-33562D01*
X49114Y-41830D02*
X49114Y-34547D01*
X40846Y-42814D02*
X48129Y-42814D01*
X39862Y-34547D02*
X39862Y-41830D01*
G54D12*
X42301Y-42639D02*
X42301Y-42343D01*
X42301Y-42456D02*
X42329Y-42442D01*
X42386Y-42442D01*
X42414Y-42456D01*
X42428Y-42470D01*
X42442Y-42498D01*
X42442Y-42582D01*
X42428Y-42611D01*
X42414Y-42625D01*
X42386Y-42639D01*
X42329Y-42639D01*
X42301Y-42625D01*
X42611Y-42639D02*
X42582Y-42625D01*
X42568Y-42597D01*
X42568Y-42343D01*
X42765Y-42639D02*
X42737Y-42625D01*
X42723Y-42611D01*
X42709Y-42582D01*
X42709Y-42498D01*
X42723Y-42470D01*
X42737Y-42456D01*
X42765Y-42442D01*
X42807Y-42442D01*
X42836Y-42456D01*
X42850Y-42470D01*
X42864Y-42498D01*
X42864Y-42582D01*
X42850Y-42611D01*
X42836Y-42625D01*
X42807Y-42639D01*
X42765Y-42639D01*
X43117Y-42442D02*
X43117Y-42681D01*
X43103Y-42709D01*
X43089Y-42723D01*
X43061Y-42737D01*
X43018Y-42737D01*
X42990Y-42723D01*
X43117Y-42625D02*
X43089Y-42639D01*
X43032Y-42639D01*
X43004Y-42625D01*
X42990Y-42611D01*
X42976Y-42582D01*
X42976Y-42498D01*
X42990Y-42470D01*
X43004Y-42456D01*
X43032Y-42442D01*
X43089Y-42442D01*
X43117Y-42456D01*
X43257Y-42611D02*
X43271Y-42625D01*
X43257Y-42639D01*
X43243Y-42625D01*
X43257Y-42611D01*
X43257Y-42639D01*
X43384Y-42625D02*
X43412Y-42639D01*
X43468Y-42639D01*
X43496Y-42625D01*
X43510Y-42597D01*
X43510Y-42582D01*
X43496Y-42554D01*
X43468Y-42540D01*
X43426Y-42540D01*
X43398Y-42526D01*
X43384Y-42498D01*
X43384Y-42484D01*
X43398Y-42456D01*
X43426Y-42442D01*
X43468Y-42442D01*
X43496Y-42456D01*
X43637Y-42442D02*
X43637Y-42737D01*
X43637Y-42456D02*
X43665Y-42442D01*
X43721Y-42442D01*
X43750Y-42456D01*
X43764Y-42470D01*
X43778Y-42498D01*
X43778Y-42582D01*
X43764Y-42611D01*
X43750Y-42625D01*
X43721Y-42639D01*
X43665Y-42639D01*
X43637Y-42625D01*
X43904Y-42639D02*
X43904Y-42442D01*
X43904Y-42343D02*
X43890Y-42357D01*
X43904Y-42372D01*
X43918Y-42357D01*
X43904Y-42343D01*
X43904Y-42372D01*
X44003Y-42442D02*
X44115Y-42442D01*
X44045Y-42343D02*
X44045Y-42597D01*
X44059Y-42625D01*
X44087Y-42639D01*
X44115Y-42639D01*
X44185Y-42442D02*
X44340Y-42442D01*
X44185Y-42639D01*
X44340Y-42639D01*
X44565Y-42625D02*
X44537Y-42639D01*
X44481Y-42639D01*
X44453Y-42625D01*
X44438Y-42597D01*
X44438Y-42484D01*
X44453Y-42456D01*
X44481Y-42442D01*
X44537Y-42442D01*
X44565Y-42456D01*
X44579Y-42484D01*
X44579Y-42512D01*
X44438Y-42540D01*
X44706Y-42442D02*
X44706Y-42639D01*
X44706Y-42470D02*
X44720Y-42456D01*
X44748Y-42442D01*
X44790Y-42442D01*
X44818Y-42456D01*
X44832Y-42484D01*
X44832Y-42639D01*
X44973Y-42442D02*
X44973Y-42737D01*
X44973Y-42456D02*
X45001Y-42442D01*
X45057Y-42442D01*
X45085Y-42456D01*
X45099Y-42470D01*
X45113Y-42498D01*
X45113Y-42582D01*
X45099Y-42611D01*
X45085Y-42625D01*
X45057Y-42639D01*
X45001Y-42639D01*
X44973Y-42625D01*
X45198Y-42442D02*
X45310Y-42442D01*
X45240Y-42639D02*
X45240Y-42386D01*
X45254Y-42357D01*
X45282Y-42343D01*
X45310Y-42343D01*
X45521Y-42625D02*
X45493Y-42639D01*
X45437Y-42639D01*
X45409Y-42625D01*
X45395Y-42597D01*
X45395Y-42484D01*
X45409Y-42456D01*
X45437Y-42442D01*
X45493Y-42442D01*
X45521Y-42456D01*
X45535Y-42484D01*
X45535Y-42512D01*
X45395Y-42540D01*
X45662Y-42639D02*
X45662Y-42442D01*
X45662Y-42343D02*
X45648Y-42357D01*
X45662Y-42372D01*
X45676Y-42357D01*
X45662Y-42343D01*
X45662Y-42372D01*
X45845Y-42639D02*
X45816Y-42625D01*
X45802Y-42597D01*
X45802Y-42343D01*
X45957Y-42611D02*
X45971Y-42625D01*
X45957Y-42639D01*
X45943Y-42625D01*
X45957Y-42611D01*
X45957Y-42639D01*
X46140Y-42639D02*
X46112Y-42625D01*
X46098Y-42611D01*
X46084Y-42582D01*
X46084Y-42498D01*
X46098Y-42470D01*
X46112Y-42456D01*
X46140Y-42442D01*
X46182Y-42442D01*
X46210Y-42456D01*
X46224Y-42470D01*
X46238Y-42498D01*
X46238Y-42582D01*
X46224Y-42611D01*
X46210Y-42625D01*
X46182Y-42639D01*
X46140Y-42639D01*
X46365Y-42639D02*
X46365Y-42442D01*
X46365Y-42498D02*
X46379Y-42470D01*
X46393Y-42456D01*
X46421Y-42442D01*
X46449Y-42442D01*
X46674Y-42442D02*
X46674Y-42681D01*
X46660Y-42709D01*
X46646Y-42723D01*
X46618Y-42737D01*
X46576Y-42737D01*
X46548Y-42723D01*
X46674Y-42625D02*
X46646Y-42639D01*
X46590Y-42639D01*
X46562Y-42625D01*
X46548Y-42611D01*
X46534Y-42582D01*
X46534Y-42498D01*
X46548Y-42470D01*
X46562Y-42456D01*
X46590Y-42442D01*
X46646Y-42442D01*
X46674Y-42456D01*
G54D11*
X39862Y-41830D02*
G75*
G03X40846Y-42814I984J0D01*
G74*
G01*
X48129Y-42814D02*
G75*
G03X49114Y-41830I0J984D01*
G74*
G01*
X49114Y-34547D02*
G75*
G03X48129Y-33562I-984J0D01*
G74*
G01*
X40846Y-33562D02*
G75*
G03X39862Y-34547I0J-984D01*
G74*
G01*
X44135Y-35748D02*
X43742Y-35748D01*
X43742Y-35654D01*
X43760Y-35598D01*
X43798Y-35560D01*
X43835Y-35541D01*
X43910Y-35523D01*
X43967Y-35523D01*
X44041Y-35541D01*
X44079Y-35560D01*
X44116Y-35598D01*
X44135Y-35654D01*
X44135Y-35748D01*
X44135Y-35354D02*
X43742Y-35354D01*
X44135Y-34941D02*
X43948Y-35073D01*
X44135Y-35166D02*
X43742Y-35166D01*
X43742Y-35016D01*
X43760Y-34979D01*
X43779Y-34960D01*
X43817Y-34941D01*
X43873Y-34941D01*
X43910Y-34960D01*
X43929Y-34979D01*
X43948Y-35016D01*
X43948Y-35166D01*
X44850Y-35284D02*
X45149Y-35284D01*
X45000Y-35434D02*
X45000Y-35134D01*
X45834Y-35284D02*
X46134Y-35284D01*
X42797Y-35536D02*
X42797Y-35311D01*
X43190Y-35423D02*
X42797Y-35423D01*
X42797Y-35217D02*
X43190Y-34955D01*
X42797Y-34955D02*
X43190Y-35217D01*
X48231Y-39159D02*
X48249Y-39102D01*
X48249Y-39009D01*
X48231Y-38971D01*
X48212Y-38952D01*
X48174Y-38934D01*
X48137Y-38934D01*
X48099Y-38952D01*
X48081Y-38971D01*
X48062Y-39009D01*
X48043Y-39084D01*
X48024Y-39121D01*
X48006Y-39140D01*
X47968Y-39159D01*
X47931Y-39159D01*
X47893Y-39140D01*
X47874Y-39121D01*
X47856Y-39084D01*
X47856Y-38990D01*
X47874Y-38934D01*
X48231Y-38615D02*
X48249Y-38652D01*
X48249Y-38727D01*
X48231Y-38765D01*
X48193Y-38784D01*
X48043Y-38784D01*
X48006Y-38765D01*
X47987Y-38727D01*
X47987Y-38652D01*
X48006Y-38615D01*
X48043Y-38596D01*
X48081Y-38596D01*
X48118Y-38784D01*
X48249Y-38428D02*
X47987Y-38428D01*
X48062Y-38428D02*
X48024Y-38409D01*
X48006Y-38390D01*
X47987Y-38353D01*
X47987Y-38315D01*
X48249Y-38184D02*
X47987Y-38184D01*
X47856Y-38184D02*
X47874Y-38203D01*
X47893Y-38184D01*
X47874Y-38165D01*
X47856Y-38184D01*
X47893Y-38184D01*
X48249Y-37828D02*
X48043Y-37828D01*
X48006Y-37846D01*
X47987Y-37884D01*
X47987Y-37959D01*
X48006Y-37996D01*
X48231Y-37828D02*
X48249Y-37865D01*
X48249Y-37959D01*
X48231Y-37996D01*
X48193Y-38015D01*
X48156Y-38015D01*
X48118Y-37996D01*
X48099Y-37959D01*
X48099Y-37865D01*
X48081Y-37828D01*
X48249Y-37584D02*
X48231Y-37621D01*
X48193Y-37640D01*
X47856Y-37640D01*
X48249Y-37134D02*
X47856Y-37134D01*
X48249Y-36909D02*
X48024Y-37078D01*
X47856Y-36909D02*
X48081Y-37134D01*
X47987Y-36740D02*
X48249Y-36740D01*
X48024Y-36740D02*
X48006Y-36721D01*
X47987Y-36684D01*
X47987Y-36628D01*
X48006Y-36590D01*
X48043Y-36571D01*
X48249Y-36571D01*
X48249Y-36328D02*
X48231Y-36365D01*
X48212Y-36384D01*
X48174Y-36403D01*
X48062Y-36403D01*
X48024Y-36384D01*
X48006Y-36365D01*
X47987Y-36328D01*
X47987Y-36272D01*
X48006Y-36234D01*
X48024Y-36215D01*
X48062Y-36197D01*
X48174Y-36197D01*
X48212Y-36215D01*
X48231Y-36234D01*
X48249Y-36272D01*
X48249Y-36328D01*
X48249Y-36028D02*
X47856Y-36028D01*
X48006Y-36028D02*
X47987Y-35990D01*
X47987Y-35915D01*
X48006Y-35878D01*
X48024Y-35859D01*
X48062Y-35840D01*
X48174Y-35840D01*
X48212Y-35859D01*
X48231Y-35878D01*
X48249Y-35915D01*
X48249Y-35990D01*
X48231Y-36028D01*
X43588Y-40676D02*
X43639Y-40693D01*
X43723Y-40693D01*
X43757Y-40676D01*
X43774Y-40659D01*
X43791Y-40625D01*
X43791Y-40592D01*
X43774Y-40558D01*
X43757Y-40541D01*
X43723Y-40524D01*
X43656Y-40507D01*
X43622Y-40490D01*
X43605Y-40474D01*
X43588Y-40440D01*
X43588Y-40406D01*
X43605Y-40372D01*
X43622Y-40355D01*
X43656Y-40339D01*
X43740Y-40339D01*
X43791Y-40355D01*
X43892Y-40339D02*
X44095Y-40339D01*
X43993Y-40693D02*
X43993Y-40339D01*
X44213Y-40507D02*
X44331Y-40507D01*
X44381Y-40693D02*
X44213Y-40693D01*
X44213Y-40339D01*
X44381Y-40339D01*
X44736Y-40659D02*
X44719Y-40676D01*
X44668Y-40693D01*
X44634Y-40693D01*
X44584Y-40676D01*
X44550Y-40642D01*
X44533Y-40609D01*
X44516Y-40541D01*
X44516Y-40490D01*
X44533Y-40423D01*
X44550Y-40389D01*
X44584Y-40355D01*
X44634Y-40339D01*
X44668Y-40339D01*
X44719Y-40355D01*
X44736Y-40372D01*
X45073Y-40693D02*
X44871Y-40693D01*
X44972Y-40693D02*
X44972Y-40339D01*
X44938Y-40389D01*
X44904Y-40423D01*
X44871Y-40440D01*
X45208Y-40372D02*
X45225Y-40355D01*
X45259Y-40339D01*
X45343Y-40339D01*
X45377Y-40355D01*
X45394Y-40372D01*
X45411Y-40406D01*
X45411Y-40440D01*
X45394Y-40490D01*
X45191Y-40693D01*
X45411Y-40693D01*
X44086Y-41082D02*
X44204Y-41082D01*
X44255Y-41268D02*
X44086Y-41268D01*
X44086Y-40913D01*
X44255Y-40913D01*
X44474Y-40913D02*
X44508Y-40913D01*
X44542Y-40930D01*
X44559Y-40947D01*
X44575Y-40981D01*
X44592Y-41048D01*
X44592Y-41133D01*
X44575Y-41200D01*
X44559Y-41234D01*
X44542Y-41251D01*
X44508Y-41268D01*
X44474Y-41268D01*
X44440Y-41251D01*
X44424Y-41234D01*
X44407Y-41200D01*
X44390Y-41133D01*
X44390Y-41048D01*
X44407Y-40981D01*
X44424Y-40947D01*
X44440Y-40930D01*
X44474Y-40913D01*
X44795Y-41065D02*
X44761Y-41048D01*
X44744Y-41032D01*
X44727Y-40998D01*
X44727Y-40981D01*
X44744Y-40947D01*
X44761Y-40930D01*
X44795Y-40913D01*
X44862Y-40913D01*
X44896Y-40930D01*
X44913Y-40947D01*
X44930Y-40981D01*
X44930Y-40998D01*
X44913Y-41032D01*
X44896Y-41048D01*
X44862Y-41065D01*
X44795Y-41065D01*
X44761Y-41082D01*
X44744Y-41099D01*
X44727Y-41133D01*
X44727Y-41200D01*
X44744Y-41234D01*
X44761Y-41251D01*
X44795Y-41268D01*
X44862Y-41268D01*
X44896Y-41251D01*
X44913Y-41234D01*
X44930Y-41200D01*
X44930Y-41133D01*
X44913Y-41099D01*
X44896Y-41082D01*
X44862Y-41065D01*
G54D13*
G36*
X40868Y-38296D02*
X40868Y-38302D01*
X40865Y-38311D01*
X40861Y-38319D01*
X40856Y-38325D01*
X40856Y-38325D01*
X40852Y-38328D01*
X40846Y-38331D01*
X40837Y-38335D01*
X40828Y-38339D01*
X40828Y-38293D01*
X40827Y-38288D01*
X40825Y-38282D01*
X40820Y-38276D01*
X40815Y-38269D01*
X40808Y-38263D01*
X40802Y-38257D01*
X40795Y-38253D01*
X40795Y-38253D01*
X40790Y-38250D01*
X40786Y-38249D01*
X40782Y-38248D01*
X40777Y-38248D01*
X40777Y-38248D01*
X40764Y-38250D01*
X40751Y-38253D01*
X40737Y-38258D01*
X40723Y-38264D01*
X40711Y-38271D01*
X40710Y-38272D01*
X40702Y-38278D01*
X40694Y-38286D01*
X40685Y-38295D01*
X40677Y-38304D01*
X40670Y-38313D01*
X40667Y-38317D01*
X40664Y-38322D01*
X40660Y-38328D01*
X40657Y-38335D01*
X40653Y-38342D01*
X40650Y-38349D01*
X40646Y-38355D01*
X40644Y-38361D01*
X40642Y-38366D01*
X40641Y-38369D01*
X40641Y-38371D01*
X40641Y-38371D01*
X40642Y-38370D01*
X40646Y-38369D01*
X40651Y-38367D01*
X40657Y-38365D01*
X40665Y-38362D01*
X40672Y-38359D01*
X40691Y-38352D01*
X40710Y-38345D01*
X40728Y-38338D01*
X40745Y-38331D01*
X40761Y-38325D01*
X40776Y-38319D01*
X40789Y-38314D01*
X40800Y-38309D01*
X40810Y-38305D01*
X40816Y-38302D01*
X40821Y-38300D01*
X40825Y-38298D01*
X40827Y-38296D01*
X40828Y-38295D01*
X40828Y-38293D01*
X40828Y-38339D01*
X40827Y-38340D01*
X40814Y-38346D01*
X40799Y-38352D01*
X40782Y-38359D01*
X40763Y-38366D01*
X40743Y-38374D01*
X40721Y-38383D01*
X40697Y-38392D01*
X40694Y-38393D01*
X40655Y-38408D01*
X40658Y-38417D01*
X40660Y-38420D01*
X40661Y-38426D01*
X40664Y-38433D01*
X40667Y-38442D01*
X40671Y-38452D01*
X40675Y-38463D01*
X40680Y-38475D01*
X40685Y-38488D01*
X40687Y-38493D01*
X40711Y-38560D01*
X40706Y-38671D01*
X40706Y-38687D01*
X40705Y-38703D01*
X40704Y-38718D01*
X40704Y-38732D01*
X40703Y-38745D01*
X40703Y-38756D01*
X40702Y-38766D01*
X40702Y-38774D01*
X40702Y-38779D01*
X40701Y-38783D01*
X40701Y-38784D01*
X40701Y-38786D01*
X40699Y-38788D01*
X40696Y-38791D01*
X40692Y-38795D01*
X40688Y-38798D01*
X40682Y-38802D01*
X40675Y-38808D01*
X40672Y-38810D01*
X40672Y-38565D01*
X40642Y-38484D01*
X40636Y-38470D01*
X40631Y-38457D01*
X40627Y-38445D01*
X40622Y-38434D01*
X40619Y-38424D01*
X40615Y-38415D01*
X40613Y-38409D01*
X40611Y-38404D01*
X40610Y-38401D01*
X40610Y-38401D01*
X40607Y-38399D01*
X40603Y-38395D01*
X40598Y-38392D01*
X40591Y-38387D01*
X40584Y-38383D01*
X40577Y-38379D01*
X40570Y-38375D01*
X40569Y-38375D01*
X40554Y-38368D01*
X40538Y-38364D01*
X40524Y-38361D01*
X40510Y-38360D01*
X40501Y-38360D01*
X40489Y-38361D01*
X40475Y-38364D01*
X40460Y-38367D01*
X40445Y-38371D01*
X40437Y-38373D01*
X40433Y-38375D01*
X40429Y-38376D01*
X40428Y-38377D01*
X40428Y-38378D01*
X40428Y-38378D01*
X40429Y-38381D01*
X40431Y-38387D01*
X40433Y-38394D01*
X40436Y-38402D01*
X40440Y-38412D01*
X40445Y-38424D01*
X40450Y-38437D01*
X40456Y-38450D01*
X40462Y-38465D01*
X40468Y-38480D01*
X40475Y-38496D01*
X40481Y-38511D01*
X40488Y-38527D01*
X40494Y-38543D01*
X40500Y-38559D01*
X40507Y-38574D01*
X40513Y-38588D01*
X40518Y-38601D01*
X40523Y-38614D01*
X40528Y-38625D01*
X40532Y-38635D01*
X40536Y-38643D01*
X40538Y-38650D01*
X40540Y-38655D01*
X40541Y-38657D01*
X40542Y-38658D01*
X40543Y-38657D01*
X40546Y-38656D01*
X40551Y-38655D01*
X40552Y-38654D01*
X40573Y-38649D01*
X40594Y-38646D01*
X40607Y-38645D01*
X40616Y-38645D01*
X40626Y-38645D01*
X40636Y-38645D01*
X40646Y-38645D01*
X40655Y-38646D01*
X40662Y-38646D01*
X40663Y-38647D01*
X40668Y-38647D01*
X40670Y-38606D01*
X40672Y-38565D01*
X40672Y-38810D01*
X40668Y-38812D01*
X40667Y-38813D01*
X40667Y-38672D01*
X40667Y-38668D01*
X40667Y-38666D01*
X40666Y-38665D01*
X40666Y-38665D01*
X40664Y-38665D01*
X40660Y-38664D01*
X40654Y-38664D01*
X40648Y-38663D01*
X40643Y-38663D01*
X40619Y-38662D01*
X40596Y-38664D01*
X40574Y-38667D01*
X40554Y-38673D01*
X40540Y-38678D01*
X40524Y-38685D01*
X40524Y-38665D01*
X40468Y-38526D01*
X40460Y-38508D01*
X40453Y-38490D01*
X40446Y-38474D01*
X40440Y-38458D01*
X40434Y-38443D01*
X40429Y-38430D01*
X40424Y-38418D01*
X40420Y-38408D01*
X40416Y-38399D01*
X40414Y-38393D01*
X40412Y-38388D01*
X40411Y-38385D01*
X40410Y-38385D01*
X40410Y-38384D01*
X40408Y-38385D01*
X40405Y-38386D01*
X40400Y-38388D01*
X40398Y-38389D01*
X40381Y-38398D01*
X40364Y-38411D01*
X40348Y-38425D01*
X40334Y-38440D01*
X40325Y-38453D01*
X40319Y-38462D01*
X40312Y-38473D01*
X40306Y-38485D01*
X40300Y-38497D01*
X40294Y-38508D01*
X40291Y-38517D01*
X40286Y-38529D01*
X40316Y-38611D01*
X40346Y-38692D01*
X40375Y-38720D01*
X40383Y-38728D01*
X40390Y-38734D01*
X40395Y-38739D01*
X40399Y-38743D01*
X40402Y-38745D01*
X40404Y-38747D01*
X40405Y-38747D01*
X40406Y-38747D01*
X40406Y-38747D01*
X40408Y-38746D01*
X40411Y-38743D01*
X40416Y-38739D01*
X40421Y-38735D01*
X40423Y-38733D01*
X40439Y-38720D01*
X40454Y-38708D01*
X40468Y-38698D01*
X40482Y-38689D01*
X40494Y-38681D01*
X40506Y-38674D01*
X40509Y-38673D01*
X40524Y-38665D01*
X40524Y-38685D01*
X40524Y-38685D01*
X40508Y-38694D01*
X40492Y-38703D01*
X40475Y-38714D01*
X40473Y-38716D01*
X40469Y-38719D01*
X40464Y-38723D01*
X40458Y-38728D01*
X40451Y-38733D01*
X40444Y-38739D01*
X40438Y-38744D01*
X40432Y-38749D01*
X40427Y-38754D01*
X40423Y-38758D01*
X40420Y-38760D01*
X40418Y-38762D01*
X40418Y-38762D01*
X40419Y-38763D01*
X40422Y-38765D01*
X40425Y-38770D01*
X40431Y-38775D01*
X40436Y-38781D01*
X40443Y-38789D01*
X40451Y-38797D01*
X40455Y-38801D01*
X40493Y-38839D01*
X40499Y-38838D01*
X40503Y-38837D01*
X40509Y-38837D01*
X40514Y-38836D01*
X40529Y-38834D01*
X40544Y-38831D01*
X40561Y-38825D01*
X40578Y-38818D01*
X40596Y-38810D01*
X40614Y-38801D01*
X40620Y-38797D01*
X40626Y-38793D01*
X40633Y-38789D01*
X40640Y-38784D01*
X40646Y-38780D01*
X40652Y-38776D01*
X40657Y-38772D01*
X40661Y-38769D01*
X40662Y-38768D01*
X40662Y-38766D01*
X40663Y-38762D01*
X40663Y-38756D01*
X40664Y-38749D01*
X40664Y-38740D01*
X40665Y-38731D01*
X40665Y-38727D01*
X40665Y-38717D01*
X40666Y-38707D01*
X40666Y-38698D01*
X40666Y-38690D01*
X40667Y-38683D01*
X40667Y-38678D01*
X40667Y-38678D01*
X40667Y-38672D01*
X40667Y-38813D01*
X40664Y-38815D01*
X40659Y-38819D01*
X40656Y-38822D01*
X40654Y-38824D01*
X40653Y-38826D01*
X40653Y-38828D01*
X40653Y-38832D01*
X40654Y-38838D01*
X40654Y-38847D01*
X40655Y-38856D01*
X40655Y-38868D01*
X40656Y-38881D01*
X40657Y-38894D01*
X40657Y-38909D01*
X40658Y-38916D01*
X40659Y-38930D01*
X40659Y-38945D01*
X40660Y-38958D01*
X40660Y-38970D01*
X40661Y-38980D01*
X40661Y-38989D01*
X40661Y-38997D01*
X40662Y-39002D01*
X40662Y-39005D01*
X40662Y-39005D01*
X40661Y-39007D01*
X40662Y-39008D01*
X40664Y-39009D01*
X40667Y-39009D01*
X40672Y-39010D01*
X40676Y-39011D01*
X40682Y-39011D01*
X40690Y-39013D01*
X40699Y-39015D01*
X40708Y-39017D01*
X40716Y-39019D01*
X40722Y-39021D01*
X40725Y-39022D01*
X40737Y-39029D01*
X40750Y-39037D01*
X40761Y-39047D01*
X40771Y-39059D01*
X40777Y-39066D01*
X40783Y-39076D01*
X40788Y-39087D01*
X40793Y-39100D01*
X40797Y-39111D01*
X40799Y-39121D01*
X40800Y-39132D01*
X40800Y-39143D01*
X40800Y-39153D01*
X40798Y-39162D01*
X40798Y-39163D01*
X40794Y-39172D01*
X40788Y-39179D01*
X40782Y-39185D01*
X40778Y-39187D01*
X40772Y-39190D01*
X40762Y-39190D01*
X40762Y-39152D01*
X40762Y-39139D01*
X40761Y-39131D01*
X40760Y-39125D01*
X40759Y-39119D01*
X40758Y-39117D01*
X40753Y-39102D01*
X40745Y-39089D01*
X40736Y-39078D01*
X40726Y-39069D01*
X40715Y-39061D01*
X40707Y-39058D01*
X40703Y-39056D01*
X40696Y-39055D01*
X40688Y-39053D01*
X40680Y-39051D01*
X40672Y-39050D01*
X40665Y-39048D01*
X40661Y-39048D01*
X40657Y-39048D01*
X40654Y-39048D01*
X40653Y-39048D01*
X40653Y-39050D01*
X40653Y-39050D01*
X40652Y-39053D01*
X40651Y-39057D01*
X40650Y-39063D01*
X40649Y-39069D01*
X40648Y-39071D01*
X40647Y-39078D01*
X40646Y-39083D01*
X40645Y-39087D01*
X40645Y-39090D01*
X40646Y-39092D01*
X40646Y-39094D01*
X40648Y-39100D01*
X40650Y-39108D01*
X40651Y-39117D01*
X40652Y-39126D01*
X40653Y-39134D01*
X40653Y-39140D01*
X40653Y-39153D01*
X40707Y-39152D01*
X40762Y-39152D01*
X40762Y-39190D01*
X40623Y-39191D01*
X40623Y-38999D01*
X40619Y-38927D01*
X40619Y-38914D01*
X40618Y-38901D01*
X40617Y-38889D01*
X40617Y-38878D01*
X40616Y-38869D01*
X40616Y-38861D01*
X40616Y-38855D01*
X40615Y-38851D01*
X40615Y-38850D01*
X40615Y-38845D01*
X40601Y-38851D01*
X40581Y-38860D01*
X40560Y-38867D01*
X40538Y-38872D01*
X40521Y-38875D01*
X40518Y-38876D01*
X40517Y-38877D01*
X40515Y-38879D01*
X40513Y-38882D01*
X40510Y-38887D01*
X40509Y-38888D01*
X40500Y-38903D01*
X40492Y-38915D01*
X40484Y-38923D01*
X40478Y-38930D01*
X40471Y-38969D01*
X40471Y-38875D01*
X40471Y-38874D01*
X40470Y-38873D01*
X40468Y-38871D01*
X40465Y-38867D01*
X40461Y-38863D01*
X40456Y-38857D01*
X40449Y-38850D01*
X40443Y-38844D01*
X40435Y-38837D01*
X40430Y-38830D01*
X40424Y-38825D01*
X40419Y-38820D01*
X40416Y-38817D01*
X40414Y-38815D01*
X40414Y-38815D01*
X40412Y-38816D01*
X40409Y-38818D01*
X40405Y-38821D01*
X40400Y-38825D01*
X40399Y-38826D01*
X40393Y-38831D01*
X40386Y-38838D01*
X40380Y-38844D01*
X40374Y-38850D01*
X40369Y-38855D01*
X40365Y-38860D01*
X40362Y-38863D01*
X40361Y-38865D01*
X40362Y-38869D01*
X40364Y-38874D01*
X40368Y-38879D01*
X40374Y-38885D01*
X40380Y-38891D01*
X40388Y-38896D01*
X40396Y-38901D01*
X40404Y-38905D01*
X40413Y-38908D01*
X40420Y-38910D01*
X40422Y-38910D01*
X40428Y-38910D01*
X40434Y-38910D01*
X40440Y-38908D01*
X40441Y-38908D01*
X40445Y-38905D01*
X40450Y-38901D01*
X40456Y-38896D01*
X40461Y-38890D01*
X40466Y-38884D01*
X40469Y-38879D01*
X40471Y-38875D01*
X40471Y-38969D01*
X40466Y-38991D01*
X40464Y-39003D01*
X40462Y-39015D01*
X40460Y-39025D01*
X40458Y-39034D01*
X40457Y-39039D01*
X40457Y-38945D01*
X40456Y-38945D01*
X40453Y-38945D01*
X40450Y-38947D01*
X40443Y-38948D01*
X40434Y-38949D01*
X40425Y-38949D01*
X40415Y-38948D01*
X40406Y-38947D01*
X40405Y-38946D01*
X40391Y-38942D01*
X40378Y-38936D01*
X40366Y-38928D01*
X40354Y-38920D01*
X40344Y-38911D01*
X40335Y-38901D01*
X40328Y-38891D01*
X40324Y-38881D01*
X40324Y-38881D01*
X40322Y-38876D01*
X40322Y-38870D01*
X40322Y-38866D01*
X40322Y-38862D01*
X40322Y-38858D01*
X40324Y-38854D01*
X40326Y-38848D01*
X40327Y-38847D01*
X40330Y-38842D01*
X40333Y-38837D01*
X40337Y-38832D01*
X40342Y-38826D01*
X40346Y-38822D01*
X40352Y-38816D01*
X40359Y-38809D01*
X40366Y-38803D01*
X40372Y-38797D01*
X40386Y-38786D01*
X40369Y-38769D01*
X40364Y-38764D01*
X40359Y-38760D01*
X40355Y-38756D01*
X40353Y-38754D01*
X40352Y-38754D01*
X40351Y-38755D01*
X40349Y-38758D01*
X40346Y-38763D01*
X40342Y-38770D01*
X40338Y-38778D01*
X40333Y-38787D01*
X40327Y-38797D01*
X40323Y-38804D01*
X40296Y-38853D01*
X40278Y-38926D01*
X40274Y-38940D01*
X40271Y-38954D01*
X40268Y-38967D01*
X40265Y-38979D01*
X40262Y-38990D01*
X40260Y-39000D01*
X40259Y-39008D01*
X40257Y-39014D01*
X40257Y-39016D01*
X40254Y-39034D01*
X40258Y-39040D01*
X40261Y-39043D01*
X40263Y-39045D01*
X40264Y-39045D01*
X40265Y-39044D01*
X40278Y-39036D01*
X40291Y-39030D01*
X40305Y-39026D01*
X40306Y-39026D01*
X40313Y-39025D01*
X40322Y-39024D01*
X40332Y-39024D01*
X40342Y-39024D01*
X40351Y-39024D01*
X40360Y-39025D01*
X40362Y-39025D01*
X40379Y-39029D01*
X40394Y-39035D01*
X40408Y-39043D01*
X40421Y-39052D01*
X40426Y-39057D01*
X40429Y-39060D01*
X40432Y-39063D01*
X40433Y-39065D01*
X40433Y-39065D01*
X40434Y-39064D01*
X40434Y-39060D01*
X40436Y-39055D01*
X40437Y-39047D01*
X40439Y-39038D01*
X40441Y-39028D01*
X40443Y-39017D01*
X40445Y-39005D01*
X40448Y-38993D01*
X40450Y-38982D01*
X40452Y-38971D01*
X40454Y-38962D01*
X40455Y-38955D01*
X40456Y-38949D01*
X40457Y-38946D01*
X40457Y-38945D01*
X40457Y-39039D01*
X40457Y-39042D01*
X40456Y-39048D01*
X40455Y-39052D01*
X40455Y-39053D01*
X40455Y-39053D01*
X40458Y-39051D01*
X40460Y-39050D01*
X40464Y-39047D01*
X40469Y-39043D01*
X40472Y-39041D01*
X40485Y-39034D01*
X40500Y-39029D01*
X40516Y-39026D01*
X40532Y-39024D01*
X40549Y-39023D01*
X40564Y-39025D01*
X40579Y-39028D01*
X40593Y-39032D01*
X40597Y-39035D01*
X40602Y-39037D01*
X40607Y-39040D01*
X40609Y-39041D01*
X40614Y-39045D01*
X40618Y-39022D01*
X40623Y-38999D01*
X40623Y-39191D01*
X40615Y-39191D01*
X40615Y-39154D01*
X40614Y-39137D01*
X40612Y-39121D01*
X40609Y-39107D01*
X40604Y-39095D01*
X40598Y-39085D01*
X40590Y-39077D01*
X40583Y-39072D01*
X40575Y-39068D01*
X40567Y-39065D01*
X40559Y-39063D01*
X40549Y-39063D01*
X40542Y-39063D01*
X40528Y-39063D01*
X40517Y-39065D01*
X40507Y-39068D01*
X40497Y-39073D01*
X40496Y-39073D01*
X40486Y-39080D01*
X40477Y-39089D01*
X40469Y-39099D01*
X40464Y-39112D01*
X40460Y-39125D01*
X40459Y-39140D01*
X40458Y-39144D01*
X40458Y-39153D01*
X40517Y-39153D01*
X40529Y-39153D01*
X40542Y-39153D01*
X40555Y-39153D01*
X40566Y-39153D01*
X40577Y-39153D01*
X40586Y-39153D01*
X40592Y-39154D01*
X40595Y-39154D01*
X40615Y-39154D01*
X40615Y-39191D01*
X40491Y-39191D01*
X40464Y-39191D01*
X40436Y-39191D01*
X40421Y-39191D01*
X40421Y-39153D01*
X40420Y-39141D01*
X40418Y-39125D01*
X40414Y-39111D01*
X40409Y-39099D01*
X40402Y-39088D01*
X40393Y-39080D01*
X40382Y-39073D01*
X40370Y-39068D01*
X40362Y-39065D01*
X40355Y-39064D01*
X40346Y-39063D01*
X40337Y-39063D01*
X40328Y-39063D01*
X40319Y-39063D01*
X40314Y-39064D01*
X40302Y-39068D01*
X40292Y-39074D01*
X40283Y-39082D01*
X40276Y-39092D01*
X40271Y-39104D01*
X40267Y-39117D01*
X40264Y-39133D01*
X40264Y-39139D01*
X40263Y-39153D01*
X40342Y-39153D01*
X40421Y-39153D01*
X40421Y-39191D01*
X40409Y-39191D01*
X40382Y-39191D01*
X40356Y-39191D01*
X40330Y-39191D01*
X40306Y-39191D01*
X40282Y-39191D01*
X40260Y-39191D01*
X40239Y-39192D01*
X40237Y-39192D01*
X40237Y-39080D01*
X40237Y-39078D01*
X40236Y-39077D01*
X40234Y-39073D01*
X40231Y-39069D01*
X40227Y-39064D01*
X40227Y-39063D01*
X40223Y-39058D01*
X40220Y-39054D01*
X40217Y-39052D01*
X40215Y-39050D01*
X40213Y-39049D01*
X40211Y-39049D01*
X40205Y-39048D01*
X40196Y-39048D01*
X40191Y-39048D01*
X40191Y-39007D01*
X40191Y-39007D01*
X40190Y-39005D01*
X40188Y-39002D01*
X40184Y-38997D01*
X40180Y-38992D01*
X40175Y-38985D01*
X40174Y-38983D01*
X40170Y-38977D01*
X40166Y-38973D01*
X40163Y-38969D01*
X40161Y-38965D01*
X40159Y-38961D01*
X40157Y-38957D01*
X40155Y-38952D01*
X40153Y-38946D01*
X40151Y-38939D01*
X40148Y-38930D01*
X40145Y-38919D01*
X40143Y-38910D01*
X40141Y-38903D01*
X40139Y-38897D01*
X40137Y-38892D01*
X40136Y-38890D01*
X40136Y-38889D01*
X40135Y-38890D01*
X40134Y-38893D01*
X40133Y-38898D01*
X40132Y-38904D01*
X40131Y-38910D01*
X40130Y-38916D01*
X40130Y-38919D01*
X40129Y-38928D01*
X40129Y-38936D01*
X40130Y-38945D01*
X40132Y-38954D01*
X40135Y-38964D01*
X40139Y-38975D01*
X40144Y-38987D01*
X40151Y-39001D01*
X40151Y-39002D01*
X40156Y-39013D01*
X40161Y-39012D01*
X40165Y-39011D01*
X40170Y-39011D01*
X40177Y-39010D01*
X40179Y-39010D01*
X40186Y-39009D01*
X40190Y-39008D01*
X40191Y-39007D01*
X40191Y-39048D01*
X40187Y-39048D01*
X40176Y-39049D01*
X40166Y-39051D01*
X40155Y-39053D01*
X40146Y-39056D01*
X40140Y-39058D01*
X40128Y-39063D01*
X40118Y-39071D01*
X40108Y-39081D01*
X40100Y-39093D01*
X40093Y-39105D01*
X40088Y-39119D01*
X40087Y-39127D01*
X40085Y-39134D01*
X40085Y-39139D01*
X40085Y-39144D01*
X40085Y-39146D01*
X40086Y-39152D01*
X40133Y-39153D01*
X40145Y-39153D01*
X40157Y-39153D01*
X40169Y-39153D01*
X40180Y-39153D01*
X40190Y-39153D01*
X40198Y-39154D01*
X40202Y-39154D01*
X40224Y-39154D01*
X40224Y-39145D01*
X40225Y-39134D01*
X40226Y-39122D01*
X40228Y-39110D01*
X40231Y-39099D01*
X40234Y-39090D01*
X40235Y-39087D01*
X40236Y-39083D01*
X40237Y-39080D01*
X40237Y-39192D01*
X40219Y-39192D01*
X40201Y-39192D01*
X40185Y-39192D01*
X40172Y-39192D01*
X40160Y-39192D01*
X40150Y-39192D01*
X40146Y-39192D01*
X40131Y-39192D01*
X40118Y-39192D01*
X40108Y-39192D01*
X40099Y-39192D01*
X40092Y-39192D01*
X40087Y-39192D01*
X40083Y-39192D01*
X40079Y-39192D01*
X40077Y-39192D01*
X40075Y-39191D01*
X40073Y-39191D01*
X40066Y-39187D01*
X40059Y-39180D01*
X40053Y-39172D01*
X40049Y-39163D01*
X40046Y-39152D01*
X40046Y-39141D01*
X40046Y-39134D01*
X40049Y-39116D01*
X40054Y-39098D01*
X40061Y-39082D01*
X40070Y-39067D01*
X40080Y-39053D01*
X40092Y-39041D01*
X40106Y-39031D01*
X40109Y-39029D01*
X40118Y-39024D01*
X40112Y-39011D01*
X40106Y-38999D01*
X40102Y-38988D01*
X40098Y-38978D01*
X40095Y-38970D01*
X40094Y-38966D01*
X40092Y-38954D01*
X40091Y-38941D01*
X40090Y-38926D01*
X40091Y-38911D01*
X40093Y-38898D01*
X40094Y-38893D01*
X40094Y-38891D01*
X40093Y-38889D01*
X40090Y-38888D01*
X40085Y-38888D01*
X40081Y-38888D01*
X40070Y-38887D01*
X40061Y-38885D01*
X40055Y-38882D01*
X40050Y-38877D01*
X40048Y-38872D01*
X40048Y-38865D01*
X40048Y-38864D01*
X40049Y-38860D01*
X40051Y-38856D01*
X40055Y-38853D01*
X40059Y-38850D01*
X40066Y-38848D01*
X40074Y-38846D01*
X40084Y-38844D01*
X40094Y-38843D01*
X40111Y-38840D01*
X40115Y-38832D01*
X40119Y-38824D01*
X40114Y-38820D01*
X40105Y-38812D01*
X40098Y-38803D01*
X40093Y-38792D01*
X40090Y-38781D01*
X40090Y-38770D01*
X40091Y-38759D01*
X40094Y-38748D01*
X40100Y-38738D01*
X40107Y-38730D01*
X40116Y-38722D01*
X40126Y-38717D01*
X40137Y-38714D01*
X40148Y-38713D01*
X40153Y-38713D01*
X40160Y-38713D01*
X40165Y-38714D01*
X40170Y-38716D01*
X40174Y-38718D01*
X40185Y-38725D01*
X40194Y-38733D01*
X40201Y-38742D01*
X40205Y-38753D01*
X40208Y-38765D01*
X40208Y-38772D01*
X40207Y-38785D01*
X40203Y-38796D01*
X40197Y-38806D01*
X40189Y-38815D01*
X40181Y-38821D01*
X40177Y-38824D01*
X40174Y-38826D01*
X40174Y-38774D01*
X40173Y-38766D01*
X40170Y-38759D01*
X40165Y-38753D01*
X40159Y-38749D01*
X40155Y-38748D01*
X40147Y-38747D01*
X40141Y-38748D01*
X40135Y-38751D01*
X40130Y-38756D01*
X40126Y-38762D01*
X40124Y-38768D01*
X40124Y-38775D01*
X40126Y-38782D01*
X40129Y-38786D01*
X40134Y-38792D01*
X40141Y-38795D01*
X40148Y-38797D01*
X40156Y-38796D01*
X40160Y-38794D01*
X40166Y-38789D01*
X40171Y-38783D01*
X40173Y-38776D01*
X40174Y-38774D01*
X40174Y-38826D01*
X40172Y-38827D01*
X40168Y-38828D01*
X40164Y-38829D01*
X40162Y-38831D01*
X40161Y-38832D01*
X40162Y-38834D01*
X40162Y-38836D01*
X40163Y-38837D01*
X40166Y-38837D01*
X40170Y-38837D01*
X40173Y-38837D01*
X40181Y-38837D01*
X40188Y-38838D01*
X40195Y-38839D01*
X40201Y-38840D01*
X40205Y-38841D01*
X40206Y-38841D01*
X40211Y-38845D01*
X40215Y-38851D01*
X40216Y-38857D01*
X40216Y-38863D01*
X40213Y-38869D01*
X40210Y-38871D01*
X40206Y-38874D01*
X40200Y-38877D01*
X40192Y-38879D01*
X40186Y-38881D01*
X40182Y-38881D01*
X40179Y-38882D01*
X40178Y-38883D01*
X40177Y-38884D01*
X40178Y-38888D01*
X40179Y-38893D01*
X40181Y-38899D01*
X40183Y-38907D01*
X40185Y-38914D01*
X40187Y-38922D01*
X40189Y-38930D01*
X40192Y-38936D01*
X40194Y-38941D01*
X40195Y-38945D01*
X40196Y-38946D01*
X40200Y-38953D01*
X40205Y-38959D01*
X40210Y-38966D01*
X40214Y-38971D01*
X40218Y-38976D01*
X40221Y-38980D01*
X40223Y-38981D01*
X40223Y-38982D01*
X40224Y-38980D01*
X40225Y-38976D01*
X40226Y-38971D01*
X40228Y-38963D01*
X40231Y-38954D01*
X40233Y-38943D01*
X40236Y-38932D01*
X40239Y-38919D01*
X40242Y-38909D01*
X40260Y-38837D01*
X40291Y-38780D01*
X40323Y-38724D01*
X40318Y-38718D01*
X40317Y-38717D01*
X40316Y-38716D01*
X40315Y-38714D01*
X40313Y-38711D01*
X40312Y-38708D01*
X40310Y-38704D01*
X40308Y-38699D01*
X40305Y-38692D01*
X40302Y-38684D01*
X40298Y-38674D01*
X40293Y-38662D01*
X40288Y-38647D01*
X40283Y-38636D01*
X40278Y-38622D01*
X40273Y-38609D01*
X40269Y-38597D01*
X40265Y-38586D01*
X40261Y-38576D01*
X40258Y-38568D01*
X40256Y-38562D01*
X40254Y-38557D01*
X40253Y-38555D01*
X40253Y-38555D01*
X40253Y-38554D01*
X40251Y-38554D01*
X40249Y-38554D01*
X40246Y-38554D01*
X40241Y-38555D01*
X40240Y-38555D01*
X40240Y-38515D01*
X40239Y-38514D01*
X40236Y-38512D01*
X40233Y-38509D01*
X40229Y-38506D01*
X40210Y-38493D01*
X40191Y-38483D01*
X40173Y-38475D01*
X40154Y-38469D01*
X40136Y-38466D01*
X40121Y-38466D01*
X40111Y-38466D01*
X40101Y-38467D01*
X40093Y-38468D01*
X40083Y-38471D01*
X40081Y-38471D01*
X40071Y-38475D01*
X40063Y-38479D01*
X40057Y-38482D01*
X40052Y-38486D01*
X40051Y-38488D01*
X40045Y-38497D01*
X40041Y-38508D01*
X40039Y-38515D01*
X40038Y-38520D01*
X40037Y-38527D01*
X40037Y-38533D01*
X40037Y-38539D01*
X40038Y-38543D01*
X40039Y-38544D01*
X40040Y-38546D01*
X40041Y-38547D01*
X40043Y-38547D01*
X40046Y-38547D01*
X40051Y-38547D01*
X40058Y-38546D01*
X40062Y-38545D01*
X40072Y-38544D01*
X40085Y-38542D01*
X40099Y-38540D01*
X40115Y-38537D01*
X40131Y-38535D01*
X40147Y-38532D01*
X40164Y-38529D01*
X40171Y-38528D01*
X40186Y-38525D01*
X40199Y-38523D01*
X40210Y-38521D01*
X40218Y-38519D01*
X40225Y-38518D01*
X40231Y-38517D01*
X40235Y-38516D01*
X40237Y-38516D01*
X40239Y-38515D01*
X40240Y-38515D01*
X40240Y-38515D01*
X40240Y-38555D01*
X40234Y-38556D01*
X40229Y-38557D01*
X40215Y-38560D01*
X40199Y-38563D01*
X40182Y-38566D01*
X40165Y-38569D01*
X40147Y-38572D01*
X40130Y-38574D01*
X40114Y-38577D01*
X40100Y-38579D01*
X40093Y-38581D01*
X40080Y-38582D01*
X40070Y-38584D01*
X40061Y-38585D01*
X40053Y-38585D01*
X40045Y-38585D01*
X40044Y-38585D01*
X40026Y-38586D01*
X40020Y-38581D01*
X40012Y-38574D01*
X40005Y-38565D01*
X40001Y-38555D01*
X39998Y-38543D01*
X39998Y-38529D01*
X39999Y-38520D01*
X40001Y-38504D01*
X40006Y-38490D01*
X40012Y-38477D01*
X40019Y-38465D01*
X40028Y-38455D01*
X40037Y-38448D01*
X40043Y-38444D01*
X40063Y-38436D01*
X40083Y-38430D01*
X40104Y-38427D01*
X40125Y-38426D01*
X40146Y-38428D01*
X40168Y-38432D01*
X40189Y-38439D01*
X40210Y-38448D01*
X40217Y-38452D01*
X40226Y-38457D01*
X40235Y-38463D01*
X40244Y-38468D01*
X40252Y-38473D01*
X40258Y-38478D01*
X40263Y-38482D01*
X40268Y-38472D01*
X40281Y-38448D01*
X40295Y-38427D01*
X40310Y-38407D01*
X40327Y-38390D01*
X40344Y-38375D01*
X40361Y-38364D01*
X40380Y-38354D01*
X40400Y-38345D01*
X40422Y-38337D01*
X40427Y-38335D01*
X40449Y-38329D01*
X40470Y-38325D01*
X40489Y-38322D01*
X40508Y-38321D01*
X40525Y-38322D01*
X40543Y-38324D01*
X40559Y-38329D01*
X40576Y-38335D01*
X40590Y-38342D01*
X40606Y-38350D01*
X40610Y-38341D01*
X40620Y-38318D01*
X40633Y-38297D01*
X40646Y-38279D01*
X40661Y-38262D01*
X40677Y-38247D01*
X40695Y-38235D01*
X40713Y-38225D01*
X40733Y-38217D01*
X40750Y-38212D01*
X40762Y-38210D01*
X40774Y-38209D01*
X40785Y-38209D01*
X40795Y-38211D01*
X40802Y-38213D01*
X40814Y-38218D01*
X40825Y-38225D01*
X40835Y-38234D01*
X40845Y-38243D01*
X40853Y-38253D01*
X40860Y-38264D01*
X40864Y-38275D01*
X40867Y-38286D01*
X40868Y-38296D01*
X40868Y-38296D01*
X40868Y-38296D01*
G37*
G36*
X40434Y-39026D02*
X40433Y-39030D01*
X40432Y-39034D01*
X40431Y-39034D01*
X40428Y-39036D01*
X40426Y-39037D01*
X40422Y-39036D01*
X40419Y-39033D01*
X40417Y-39030D01*
X40417Y-39026D01*
X40419Y-39022D01*
X40422Y-39020D01*
X40426Y-39019D01*
X40430Y-39020D01*
X40433Y-39023D01*
X40434Y-39026D01*
X40434Y-39026D01*
X40434Y-39026D01*
G37*
G36*
X40443Y-38993D02*
X40443Y-38997D01*
X40441Y-39000D01*
X40441Y-39001D01*
X40437Y-39003D01*
X40433Y-39003D01*
X40430Y-39002D01*
X40429Y-39001D01*
X40427Y-38997D01*
X40427Y-38993D01*
X40428Y-38991D01*
X40430Y-38987D01*
X40433Y-38986D01*
X40437Y-38986D01*
X40441Y-38988D01*
X40442Y-38990D01*
X40443Y-38993D01*
X40443Y-38993D01*
X40443Y-38993D01*
G37*
G36*
X40451Y-38964D02*
X40450Y-38968D01*
X40447Y-38971D01*
X40443Y-38973D01*
X40439Y-38973D01*
X40439Y-38972D01*
X40435Y-38970D01*
X40433Y-38966D01*
X40433Y-38961D01*
X40435Y-38958D01*
X40438Y-38956D01*
X40441Y-38955D01*
X40445Y-38956D01*
X40449Y-38959D01*
X40450Y-38962D01*
X40451Y-38964D01*
X40451Y-38964D01*
X40451Y-38964D01*
G37*
G36*
X40621Y-38716D02*
X40621Y-38719D01*
X40620Y-38721D01*
X40618Y-38730D01*
X40614Y-38739D01*
X40608Y-38749D01*
X40600Y-38758D01*
X40591Y-38766D01*
X40581Y-38774D01*
X40571Y-38780D01*
X40560Y-38784D01*
X40556Y-38786D01*
X40546Y-38788D01*
X40536Y-38788D01*
X40526Y-38788D01*
X40524Y-38788D01*
X40519Y-38786D01*
X40513Y-38785D01*
X40510Y-38784D01*
X40505Y-38781D01*
X40500Y-38779D01*
X40496Y-38776D01*
X40492Y-38773D01*
X40489Y-38771D01*
X40489Y-38770D01*
X40490Y-38769D01*
X40493Y-38767D01*
X40498Y-38765D01*
X40505Y-38762D01*
X40512Y-38758D01*
X40521Y-38754D01*
X40530Y-38749D01*
X40539Y-38745D01*
X40548Y-38741D01*
X40556Y-38737D01*
X40564Y-38734D01*
X40571Y-38731D01*
X40579Y-38728D01*
X40587Y-38724D01*
X40595Y-38721D01*
X40602Y-38719D01*
X40609Y-38716D01*
X40614Y-38715D01*
X40618Y-38714D01*
X40619Y-38714D01*
X40620Y-38714D01*
X40621Y-38716D01*
X40621Y-38716D01*
X40621Y-38716D01*
G37*
G36*
X40620Y-38677D02*
X40619Y-38682D01*
X40616Y-38685D01*
X40612Y-38686D01*
X40608Y-38686D01*
X40605Y-38684D01*
X40603Y-38680D01*
X40603Y-38676D01*
X40604Y-38672D01*
X40607Y-38669D01*
X40611Y-38668D01*
X40616Y-38669D01*
X40619Y-38672D01*
X40620Y-38677D01*
X40620Y-38677D01*
X40620Y-38677D01*
X40620Y-38677D01*
G37*
G36*
X40651Y-38677D02*
X40650Y-38682D01*
X40647Y-38685D01*
X40643Y-38686D01*
X40639Y-38685D01*
X40636Y-38684D01*
X40634Y-38680D01*
X40633Y-38676D01*
X40635Y-38672D01*
X40636Y-38671D01*
X40639Y-38668D01*
X40643Y-38668D01*
X40647Y-38670D01*
X40649Y-38673D01*
X40651Y-38677D01*
X40651Y-38677D01*
X40651Y-38677D01*
X40651Y-38677D01*
G37*
G36*
X40450Y-38603D02*
X40449Y-38615D01*
X40446Y-38626D01*
X40441Y-38637D01*
X40433Y-38646D01*
X40433Y-38647D01*
X40424Y-38654D01*
X40416Y-38658D01*
X40416Y-38608D01*
X40416Y-38601D01*
X40414Y-38594D01*
X40410Y-38588D01*
X40405Y-38584D01*
X40401Y-38581D01*
X40395Y-38580D01*
X40393Y-38580D01*
X40388Y-38580D01*
X40384Y-38580D01*
X40381Y-38582D01*
X40379Y-38583D01*
X40373Y-38589D01*
X40369Y-38595D01*
X40367Y-38601D01*
X40367Y-38608D01*
X40369Y-38615D01*
X40373Y-38621D01*
X40378Y-38625D01*
X40385Y-38628D01*
X40386Y-38629D01*
X40393Y-38630D01*
X40399Y-38628D01*
X40405Y-38625D01*
X40411Y-38621D01*
X40415Y-38614D01*
X40416Y-38608D01*
X40416Y-38658D01*
X40414Y-38660D01*
X40402Y-38663D01*
X40390Y-38664D01*
X40378Y-38663D01*
X40377Y-38662D01*
X40365Y-38658D01*
X40355Y-38652D01*
X40347Y-38644D01*
X40341Y-38635D01*
X40336Y-38625D01*
X40333Y-38615D01*
X40333Y-38604D01*
X40334Y-38593D01*
X40337Y-38582D01*
X40342Y-38572D01*
X40350Y-38563D01*
X40350Y-38562D01*
X40359Y-38555D01*
X40370Y-38549D01*
X40380Y-38546D01*
X40391Y-38545D01*
X40402Y-38546D01*
X40413Y-38549D01*
X40423Y-38554D01*
X40432Y-38561D01*
X40439Y-38569D01*
X40444Y-38579D01*
X40448Y-38591D01*
X40450Y-38603D01*
X40450Y-38603D01*
X40450Y-38603D01*
G37*
G36*
X40640Y-38532D02*
X40640Y-38543D01*
X40637Y-38554D01*
X40633Y-38564D01*
X40627Y-38574D01*
X40622Y-38580D01*
X40613Y-38587D01*
X40605Y-38591D01*
X40605Y-38535D01*
X40604Y-38529D01*
X40601Y-38522D01*
X40596Y-38517D01*
X40592Y-38515D01*
X40584Y-38513D01*
X40577Y-38513D01*
X40570Y-38515D01*
X40564Y-38519D01*
X40560Y-38524D01*
X40557Y-38531D01*
X40556Y-38538D01*
X40557Y-38545D01*
X40560Y-38551D01*
X40565Y-38556D01*
X40571Y-38560D01*
X40578Y-38562D01*
X40585Y-38561D01*
X40592Y-38559D01*
X40598Y-38555D01*
X40602Y-38549D01*
X40605Y-38542D01*
X40605Y-38535D01*
X40605Y-38591D01*
X40602Y-38593D01*
X40590Y-38596D01*
X40578Y-38597D01*
X40567Y-38595D01*
X40565Y-38595D01*
X40554Y-38590D01*
X40544Y-38584D01*
X40535Y-38575D01*
X40528Y-38566D01*
X40524Y-38554D01*
X40523Y-38553D01*
X40522Y-38549D01*
X40522Y-38543D01*
X40522Y-38537D01*
X40522Y-38536D01*
X40523Y-38524D01*
X40526Y-38513D01*
X40532Y-38503D01*
X40540Y-38494D01*
X40550Y-38486D01*
X40561Y-38481D01*
X40573Y-38478D01*
X40585Y-38478D01*
X40591Y-38478D01*
X40602Y-38482D01*
X40613Y-38487D01*
X40621Y-38494D01*
X40629Y-38502D01*
X40634Y-38511D01*
X40638Y-38521D01*
X40640Y-38532D01*
X40640Y-38532D01*
X40640Y-38532D01*
G37*
G36*
X40481Y-38455D02*
X40480Y-38460D01*
X40477Y-38463D01*
X40472Y-38464D01*
X40472Y-38464D01*
X40469Y-38463D01*
X40467Y-38462D01*
X40464Y-38460D01*
X40464Y-38456D01*
X40464Y-38455D01*
X40464Y-38451D01*
X40466Y-38448D01*
X40467Y-38448D01*
X40471Y-38446D01*
X40475Y-38447D01*
X40478Y-38449D01*
X40480Y-38453D01*
X40481Y-38455D01*
X40481Y-38455D01*
X40481Y-38455D01*
G37*
G36*
X40469Y-38429D02*
X40467Y-38433D01*
X40466Y-38434D01*
X40463Y-38435D01*
X40458Y-38435D01*
X40455Y-38434D01*
X40454Y-38433D01*
X40452Y-38429D01*
X40452Y-38425D01*
X40453Y-38421D01*
X40454Y-38420D01*
X40457Y-38419D01*
X40461Y-38418D01*
X40465Y-38419D01*
X40467Y-38421D01*
X40469Y-38424D01*
X40469Y-38429D01*
X40469Y-38429D01*
X40469Y-38429D01*
G37*
G36*
X40455Y-38396D02*
X40454Y-38400D01*
X40454Y-38401D01*
X40451Y-38404D01*
X40447Y-38405D01*
X40443Y-38404D01*
X40443Y-38404D01*
X40440Y-38402D01*
X40438Y-38400D01*
X40438Y-38396D01*
X40439Y-38391D01*
X40442Y-38389D01*
X40446Y-38388D01*
X40450Y-38388D01*
X40452Y-38390D01*
X40453Y-38390D01*
X40454Y-38392D01*
X40455Y-38396D01*
X40455Y-38396D01*
X40455Y-38396D01*
G37*
G54D11*
X46488Y-34751D02*
X46488Y-34751D01*
X46488Y-33751D02*
X46488Y-34751D01*
X46488Y-34751D02*
X46488Y-34751D01*
X46488Y-34751D02*
X42488Y-34751D01*
X42488Y-34751D02*
X42488Y-33751D01*
X42488Y-33751D02*
X46488Y-33751D01*
X45488Y-33751D02*
X45488Y-34751D01*
G54D13*
G36*
X48502Y-40608D02*
X48519Y-40606D01*
X48535Y-40601D01*
X48542Y-40597D01*
X48556Y-40587D01*
X48567Y-40575D01*
X48576Y-40561D01*
X48582Y-40545D01*
X48584Y-40529D01*
X48584Y-40512D01*
X48580Y-40496D01*
X48572Y-40480D01*
X48567Y-40473D01*
X48560Y-40465D01*
X48553Y-40458D01*
X48545Y-40453D01*
X48543Y-40451D01*
X48529Y-40445D01*
X48514Y-40441D01*
X48497Y-40440D01*
X48491Y-40441D01*
X48482Y-40442D01*
X48474Y-40444D01*
X48465Y-40448D01*
X48455Y-40453D01*
X48441Y-40464D01*
X48430Y-40477D01*
X48422Y-40493D01*
X48419Y-40500D01*
X48417Y-40508D01*
X48416Y-40515D01*
X48416Y-40516D01*
X48416Y-40516D01*
X48415Y-40513D01*
X48415Y-40512D01*
X48413Y-40501D01*
X48409Y-40490D01*
X48404Y-40480D01*
X48394Y-40468D01*
X48381Y-40456D01*
X48367Y-40447D01*
X48350Y-40442D01*
X48332Y-40440D01*
X48328Y-40440D01*
X48314Y-40442D01*
X48302Y-40445D01*
X48299Y-40446D01*
X48285Y-40454D01*
X48272Y-40465D01*
X48262Y-40477D01*
X48254Y-40492D01*
X48249Y-40507D01*
X48249Y-40507D01*
X48248Y-40511D01*
X48248Y-40513D01*
X48248Y-40513D01*
X48248Y-40511D01*
X48247Y-40507D01*
X48246Y-40505D01*
X48241Y-40490D01*
X48233Y-40476D01*
X48222Y-40463D01*
X48212Y-40455D01*
X48198Y-40447D01*
X48182Y-40442D01*
X48164Y-40440D01*
X48151Y-40441D01*
X48134Y-40445D01*
X48119Y-40453D01*
X48106Y-40464D01*
X48094Y-40477D01*
X48093Y-40479D01*
X48089Y-40485D01*
X48087Y-40490D01*
X48085Y-40494D01*
X48083Y-40502D01*
X48081Y-40509D01*
X48080Y-40515D01*
X48080Y-40516D01*
X48080Y-40516D01*
X48079Y-40512D01*
X48077Y-40503D01*
X48073Y-40491D01*
X48068Y-40481D01*
X48058Y-40468D01*
X48045Y-40456D01*
X48030Y-40447D01*
X48014Y-40442D01*
X47996Y-40440D01*
X47980Y-40441D01*
X47964Y-40446D01*
X47949Y-40454D01*
X47935Y-40466D01*
X47929Y-40473D01*
X47922Y-40482D01*
X47917Y-40493D01*
X47914Y-40502D01*
X47912Y-40519D01*
X47912Y-40535D01*
X47916Y-40551D01*
X47922Y-40566D01*
X47932Y-40579D01*
X47943Y-40590D01*
X47957Y-40599D01*
X47972Y-40605D01*
X47989Y-40608D01*
X47991Y-40608D01*
X48008Y-40607D01*
X48024Y-40604D01*
X48040Y-40596D01*
X48045Y-40593D01*
X48056Y-40583D01*
X48066Y-40571D01*
X48073Y-40558D01*
X48075Y-40553D01*
X48077Y-40546D01*
X48079Y-40539D01*
X48080Y-40533D01*
X48080Y-40530D01*
X48080Y-40533D01*
X48081Y-40536D01*
X48082Y-40543D01*
X48085Y-40552D01*
X48087Y-40559D01*
X48091Y-40566D01*
X48102Y-40580D01*
X48114Y-40592D01*
X48129Y-40601D01*
X48146Y-40607D01*
X48149Y-40607D01*
X48161Y-40608D01*
X48173Y-40608D01*
X48184Y-40606D01*
X48195Y-40603D01*
X48211Y-40594D01*
X48225Y-40583D01*
X48226Y-40582D01*
X48235Y-40570D01*
X48242Y-40556D01*
X48247Y-40542D01*
X48247Y-40541D01*
X48248Y-40537D01*
X48248Y-40535D01*
X48248Y-40536D01*
X48249Y-40540D01*
X48249Y-40541D01*
X48251Y-40550D01*
X48255Y-40559D01*
X48260Y-40569D01*
X48268Y-40579D01*
X48280Y-40591D01*
X48295Y-40600D01*
X48312Y-40606D01*
X48315Y-40607D01*
X48326Y-40608D01*
X48338Y-40608D01*
X48349Y-40607D01*
X48359Y-40604D01*
X48374Y-40597D01*
X48388Y-40586D01*
X48400Y-40574D01*
X48409Y-40559D01*
X48411Y-40554D01*
X48413Y-40546D01*
X48415Y-40539D01*
X48416Y-40533D01*
X48416Y-40532D01*
X48416Y-40532D01*
X48417Y-40536D01*
X48417Y-40536D01*
X48419Y-40547D01*
X48423Y-40558D01*
X48428Y-40568D01*
X48431Y-40571D01*
X48441Y-40584D01*
X48455Y-40595D01*
X48469Y-40603D01*
X48485Y-40607D01*
X48502Y-40608D01*
X48502Y-40608D01*
G37*
G36*
X47822Y-40440D02*
X47832Y-40440D01*
X47842Y-40439D01*
X47853Y-40436D01*
X47869Y-40429D01*
X47883Y-40419D01*
X47895Y-40406D01*
X47903Y-40392D01*
X47909Y-40376D01*
X47911Y-40358D01*
X47910Y-40341D01*
X47906Y-40325D01*
X47898Y-40310D01*
X47888Y-40297D01*
X47874Y-40286D01*
X47870Y-40283D01*
X47854Y-40275D01*
X47837Y-40272D01*
X47819Y-40272D01*
X47802Y-40275D01*
X47788Y-40281D01*
X47773Y-40291D01*
X47761Y-40303D01*
X47752Y-40318D01*
X47745Y-40335D01*
X47744Y-40343D01*
X47743Y-40354D01*
X47743Y-40365D01*
X47745Y-40374D01*
X47746Y-40377D01*
X47752Y-40394D01*
X47762Y-40409D01*
X47775Y-40422D01*
X47790Y-40431D01*
X47797Y-40434D01*
X47807Y-40438D01*
X47816Y-40439D01*
X47822Y-40440D01*
X47822Y-40440D01*
G37*
G36*
X48671Y-40440D02*
X48688Y-40438D01*
X48705Y-40432D01*
X48720Y-40422D01*
X48724Y-40420D01*
X48735Y-40407D01*
X48745Y-40393D01*
X48751Y-40376D01*
X48752Y-40368D01*
X48753Y-40357D01*
X48753Y-40346D01*
X48751Y-40337D01*
X48750Y-40333D01*
X48743Y-40316D01*
X48734Y-40302D01*
X48722Y-40290D01*
X48707Y-40281D01*
X48691Y-40274D01*
X48673Y-40271D01*
X48667Y-40271D01*
X48650Y-40273D01*
X48634Y-40279D01*
X48620Y-40287D01*
X48608Y-40298D01*
X48598Y-40311D01*
X48590Y-40326D01*
X48586Y-40342D01*
X48585Y-40359D01*
X48586Y-40370D01*
X48588Y-40379D01*
X48591Y-40389D01*
X48598Y-40402D01*
X48609Y-40415D01*
X48622Y-40426D01*
X48637Y-40434D01*
X48653Y-40439D01*
X48671Y-40440D01*
X48671Y-40440D01*
G37*
G36*
X47654Y-40271D02*
X47666Y-40271D01*
X47676Y-40270D01*
X47688Y-40266D01*
X47704Y-40258D01*
X47718Y-40247D01*
X47727Y-40236D01*
X47736Y-40222D01*
X47741Y-40205D01*
X47742Y-40198D01*
X47743Y-40188D01*
X47742Y-40178D01*
X47741Y-40170D01*
X47740Y-40164D01*
X47733Y-40148D01*
X47724Y-40133D01*
X47711Y-40121D01*
X47696Y-40112D01*
X47690Y-40109D01*
X47679Y-40105D01*
X47668Y-40103D01*
X47656Y-40103D01*
X47648Y-40104D01*
X47639Y-40105D01*
X47630Y-40107D01*
X47621Y-40112D01*
X47616Y-40114D01*
X47602Y-40125D01*
X47590Y-40138D01*
X47581Y-40153D01*
X47576Y-40170D01*
X47575Y-40174D01*
X47574Y-40184D01*
X47575Y-40195D01*
X47576Y-40204D01*
X47577Y-40210D01*
X47584Y-40226D01*
X47593Y-40241D01*
X47606Y-40253D01*
X47621Y-40262D01*
X47638Y-40269D01*
X47643Y-40270D01*
X47654Y-40271D01*
X47654Y-40271D01*
G37*
G36*
X48330Y-40271D02*
X48347Y-40270D01*
X48363Y-40266D01*
X48372Y-40261D01*
X48386Y-40251D01*
X48398Y-40239D01*
X48408Y-40224D01*
X48413Y-40207D01*
X48414Y-40204D01*
X48416Y-40190D01*
X48416Y-40177D01*
X48412Y-40163D01*
X48406Y-40146D01*
X48396Y-40132D01*
X48383Y-40120D01*
X48368Y-40111D01*
X48351Y-40105D01*
X48340Y-40102D01*
X48346Y-40102D01*
X48347Y-40101D01*
X48359Y-40098D01*
X48372Y-40093D01*
X48383Y-40085D01*
X48385Y-40083D01*
X48398Y-40071D01*
X48407Y-40057D01*
X48413Y-40041D01*
X48416Y-40025D01*
X48415Y-40009D01*
X48412Y-39992D01*
X48404Y-39977D01*
X48404Y-39976D01*
X48394Y-39962D01*
X48381Y-39951D01*
X48367Y-39943D01*
X48351Y-39938D01*
X48335Y-39935D01*
X48319Y-39936D01*
X48303Y-39940D01*
X48288Y-39948D01*
X48274Y-39958D01*
X48266Y-39966D01*
X48258Y-39979D01*
X48252Y-39992D01*
X48249Y-40004D01*
X48248Y-40007D01*
X48248Y-40009D01*
X48248Y-40008D01*
X48247Y-40004D01*
X48244Y-39993D01*
X48239Y-39981D01*
X48232Y-39970D01*
X48228Y-39964D01*
X48215Y-39952D01*
X48201Y-39943D01*
X48184Y-39938D01*
X48167Y-39935D01*
X48150Y-39936D01*
X48140Y-39939D01*
X48123Y-39946D01*
X48109Y-39956D01*
X48097Y-39968D01*
X48088Y-39983D01*
X48082Y-39999D01*
X48081Y-40008D01*
X48080Y-40024D01*
X48083Y-40041D01*
X48089Y-40057D01*
X48099Y-40071D01*
X48111Y-40083D01*
X48126Y-40093D01*
X48132Y-40096D01*
X48140Y-40099D01*
X48147Y-40101D01*
X48153Y-40102D01*
X48154Y-40102D01*
X48153Y-40103D01*
X48150Y-40104D01*
X48141Y-40106D01*
X48130Y-40110D01*
X48120Y-40115D01*
X48115Y-40118D01*
X48104Y-40128D01*
X48094Y-40140D01*
X48087Y-40153D01*
X48082Y-40167D01*
X48080Y-40182D01*
X48080Y-40197D01*
X48081Y-40200D01*
X48086Y-40217D01*
X48093Y-40233D01*
X48105Y-40247D01*
X48114Y-40255D01*
X48129Y-40264D01*
X48146Y-40270D01*
X48153Y-40270D01*
X48162Y-40271D01*
X48171Y-40270D01*
X48180Y-40270D01*
X48187Y-40268D01*
X48193Y-40267D01*
X48209Y-40258D01*
X48223Y-40247D01*
X48234Y-40234D01*
X48238Y-40227D01*
X48244Y-40216D01*
X48247Y-40205D01*
X48247Y-40204D01*
X48248Y-40200D01*
X48248Y-40198D01*
X48248Y-40198D01*
X48248Y-40176D01*
X48248Y-40176D01*
X48248Y-40174D01*
X48247Y-40170D01*
X48247Y-40168D01*
X48242Y-40153D01*
X48233Y-40139D01*
X48223Y-40127D01*
X48210Y-40116D01*
X48196Y-40109D01*
X48195Y-40108D01*
X48187Y-40106D01*
X48180Y-40104D01*
X48173Y-40103D01*
X48180Y-40101D01*
X48190Y-40099D01*
X48205Y-40092D01*
X48219Y-40083D01*
X48230Y-40071D01*
X48239Y-40057D01*
X48243Y-40050D01*
X48246Y-40041D01*
X48247Y-40034D01*
X48248Y-40031D01*
X48248Y-40029D01*
X48248Y-40030D01*
X48249Y-40034D01*
X48250Y-40040D01*
X48253Y-40049D01*
X48257Y-40057D01*
X48262Y-40066D01*
X48273Y-40078D01*
X48286Y-40089D01*
X48301Y-40097D01*
X48316Y-40101D01*
X48324Y-40103D01*
X48316Y-40104D01*
X48315Y-40104D01*
X48308Y-40106D01*
X48300Y-40109D01*
X48299Y-40109D01*
X48285Y-40117D01*
X48272Y-40128D01*
X48262Y-40140D01*
X48254Y-40155D01*
X48249Y-40169D01*
X48249Y-40170D01*
X48248Y-40174D01*
X48248Y-40176D01*
X48248Y-40198D01*
X48248Y-40198D01*
X48248Y-40200D01*
X48249Y-40205D01*
X48252Y-40215D01*
X48259Y-40230D01*
X48270Y-40244D01*
X48282Y-40255D01*
X48297Y-40264D01*
X48297Y-40264D01*
X48313Y-40269D01*
X48330Y-40271D01*
X48330Y-40271D01*
G37*
G36*
X48831Y-40271D02*
X48845Y-40271D01*
X48857Y-40269D01*
X48865Y-40267D01*
X48881Y-40259D01*
X48895Y-40249D01*
X48906Y-40236D01*
X48915Y-40221D01*
X48920Y-40205D01*
X48922Y-40187D01*
X48921Y-40180D01*
X48918Y-40163D01*
X48911Y-40146D01*
X48901Y-40131D01*
X48898Y-40128D01*
X48886Y-40118D01*
X48872Y-40110D01*
X48857Y-40105D01*
X48857Y-40105D01*
X48844Y-40103D01*
X48830Y-40103D01*
X48818Y-40105D01*
X48813Y-40106D01*
X48797Y-40113D01*
X48783Y-40122D01*
X48772Y-40134D01*
X48763Y-40148D01*
X48756Y-40163D01*
X48753Y-40180D01*
X48754Y-40197D01*
X48757Y-40214D01*
X48763Y-40227D01*
X48773Y-40241D01*
X48785Y-40253D01*
X48800Y-40262D01*
X48816Y-40269D01*
X48818Y-40269D01*
X48831Y-40271D01*
X48831Y-40271D01*
G37*
G36*
X47998Y-39767D02*
X48015Y-39765D01*
X48031Y-39759D01*
X48039Y-39755D01*
X48046Y-39750D01*
X48054Y-39743D01*
X48063Y-39733D01*
X48072Y-39719D01*
X48078Y-39703D01*
X48079Y-39698D01*
X48080Y-39687D01*
X48080Y-39675D01*
X48078Y-39665D01*
X48074Y-39651D01*
X48066Y-39636D01*
X48056Y-39623D01*
X48054Y-39621D01*
X48046Y-39615D01*
X48037Y-39609D01*
X48029Y-39605D01*
X48026Y-39604D01*
X48019Y-39601D01*
X48012Y-39600D01*
X48007Y-39599D01*
X48004Y-39599D01*
X48007Y-39598D01*
X48011Y-39597D01*
X48017Y-39596D01*
X48023Y-39594D01*
X48035Y-39588D01*
X48048Y-39580D01*
X48058Y-39571D01*
X48059Y-39569D01*
X48070Y-39555D01*
X48076Y-39539D01*
X48080Y-39522D01*
X48080Y-39505D01*
X48079Y-39501D01*
X48074Y-39484D01*
X48066Y-39468D01*
X48055Y-39454D01*
X48045Y-39445D01*
X48030Y-39437D01*
X48014Y-39431D01*
X48010Y-39431D01*
X47999Y-39430D01*
X47987Y-39430D01*
X47976Y-39432D01*
X47967Y-39435D01*
X47951Y-39442D01*
X47938Y-39453D01*
X47927Y-39465D01*
X47918Y-39480D01*
X47913Y-39496D01*
X47913Y-39498D01*
X47912Y-39502D01*
X47911Y-39504D01*
X47911Y-39502D01*
X47910Y-39498D01*
X47908Y-39491D01*
X47906Y-39484D01*
X47903Y-39477D01*
X47900Y-39472D01*
X47890Y-39458D01*
X47877Y-39446D01*
X47862Y-39437D01*
X47846Y-39432D01*
X47828Y-39430D01*
X47814Y-39431D01*
X47798Y-39435D01*
X47783Y-39442D01*
X47774Y-39448D01*
X47762Y-39460D01*
X47753Y-39475D01*
X47746Y-39490D01*
X47743Y-39507D01*
X47743Y-39524D01*
X47747Y-39539D01*
X47754Y-39556D01*
X47764Y-39570D01*
X47777Y-39581D01*
X47792Y-39590D01*
X47809Y-39596D01*
X47819Y-39599D01*
X47813Y-39599D01*
X47810Y-39600D01*
X47796Y-39604D01*
X47783Y-39611D01*
X47771Y-39620D01*
X47761Y-39630D01*
X47755Y-39639D01*
X47749Y-39651D01*
X47745Y-39662D01*
X47744Y-39671D01*
X47743Y-39681D01*
X47743Y-39692D01*
X47745Y-39701D01*
X47748Y-39711D01*
X47756Y-39727D01*
X47766Y-39741D01*
X47780Y-39752D01*
X47795Y-39760D01*
X47813Y-39766D01*
X47817Y-39766D01*
X47828Y-39767D01*
X47839Y-39766D01*
X47848Y-39764D01*
X47855Y-39762D01*
X47871Y-39754D01*
X47885Y-39744D01*
X47896Y-39731D01*
X47905Y-39716D01*
X47910Y-39699D01*
X47910Y-39698D01*
X47911Y-39694D01*
X47912Y-39694D01*
X47912Y-39671D01*
X47911Y-39670D01*
X47910Y-39667D01*
X47910Y-39666D01*
X47907Y-39655D01*
X47902Y-39643D01*
X47895Y-39632D01*
X47890Y-39626D01*
X47877Y-39614D01*
X47861Y-39605D01*
X47844Y-39600D01*
X47836Y-39598D01*
X47842Y-39597D01*
X47847Y-39596D01*
X47852Y-39594D01*
X47856Y-39593D01*
X47871Y-39586D01*
X47885Y-39575D01*
X47896Y-39563D01*
X47904Y-39548D01*
X47910Y-39532D01*
X47910Y-39528D01*
X47911Y-39525D01*
X47912Y-39527D01*
X47913Y-39532D01*
X47913Y-39532D01*
X47916Y-39541D01*
X47920Y-39551D01*
X47925Y-39560D01*
X47930Y-39566D01*
X47937Y-39574D01*
X47946Y-39582D01*
X47954Y-39587D01*
X47954Y-39587D01*
X47967Y-39593D01*
X47981Y-39597D01*
X47987Y-39598D01*
X47980Y-39599D01*
X47965Y-39604D01*
X47950Y-39612D01*
X47937Y-39622D01*
X47926Y-39635D01*
X47923Y-39639D01*
X47919Y-39647D01*
X47916Y-39656D01*
X47913Y-39664D01*
X47912Y-39669D01*
X47912Y-39669D01*
X47912Y-39671D01*
X47912Y-39694D01*
X47912Y-39694D01*
X47913Y-39698D01*
X47914Y-39703D01*
X47915Y-39708D01*
X47919Y-39717D01*
X47927Y-39732D01*
X47938Y-39744D01*
X47951Y-39754D01*
X47966Y-39761D01*
X47982Y-39766D01*
X47998Y-39767D01*
X47998Y-39767D01*
G37*
G36*
X48505Y-39767D02*
X48521Y-39764D01*
X48537Y-39758D01*
X48551Y-39749D01*
X48564Y-39738D01*
X48573Y-39724D01*
X48581Y-39708D01*
X48582Y-39703D01*
X48583Y-39698D01*
X48583Y-39697D01*
X48584Y-39694D01*
X48584Y-39694D01*
X48584Y-39671D01*
X48584Y-39668D01*
X48582Y-39662D01*
X48579Y-39653D01*
X48572Y-39638D01*
X48561Y-39624D01*
X48549Y-39613D01*
X48534Y-39605D01*
X48517Y-39600D01*
X48509Y-39598D01*
X48515Y-39597D01*
X48516Y-39597D01*
X48529Y-39593D01*
X48542Y-39587D01*
X48548Y-39584D01*
X48556Y-39577D01*
X48564Y-39568D01*
X48571Y-39560D01*
X48575Y-39553D01*
X48580Y-39542D01*
X48583Y-39532D01*
X48584Y-39528D01*
X48584Y-39525D01*
X48585Y-39527D01*
X48586Y-39532D01*
X48590Y-39543D01*
X48597Y-39558D01*
X48608Y-39572D01*
X48621Y-39583D01*
X48637Y-39592D01*
X48654Y-39597D01*
X48660Y-39598D01*
X48652Y-39600D01*
X48644Y-39602D01*
X48628Y-39609D01*
X48613Y-39619D01*
X48601Y-39632D01*
X48598Y-39637D01*
X48593Y-39645D01*
X48590Y-39654D01*
X48588Y-39660D01*
X48586Y-39666D01*
X48586Y-39666D01*
X48585Y-39670D01*
X48584Y-39671D01*
X48584Y-39694D01*
X48585Y-39695D01*
X48586Y-39699D01*
X48587Y-39705D01*
X48592Y-39717D01*
X48599Y-39729D01*
X48604Y-39736D01*
X48616Y-39748D01*
X48631Y-39758D01*
X48648Y-39764D01*
X48656Y-39766D01*
X48667Y-39766D01*
X48679Y-39766D01*
X48690Y-39764D01*
X48691Y-39764D01*
X48708Y-39757D01*
X48722Y-39747D01*
X48735Y-39735D01*
X48744Y-39720D01*
X48751Y-39703D01*
X48752Y-39696D01*
X48753Y-39684D01*
X48752Y-39672D01*
X48751Y-39662D01*
X48748Y-39653D01*
X48742Y-39641D01*
X48735Y-39630D01*
X48727Y-39622D01*
X48717Y-39613D01*
X48706Y-39607D01*
X48702Y-39605D01*
X48694Y-39602D01*
X48686Y-39600D01*
X48680Y-39599D01*
X48680Y-39599D01*
X48682Y-39598D01*
X48687Y-39596D01*
X48696Y-39593D01*
X48707Y-39589D01*
X48717Y-39584D01*
X48718Y-39582D01*
X48729Y-39572D01*
X48739Y-39560D01*
X48746Y-39548D01*
X48749Y-39542D01*
X48752Y-39525D01*
X48753Y-39507D01*
X48750Y-39490D01*
X48749Y-39487D01*
X48742Y-39471D01*
X48731Y-39457D01*
X48718Y-39446D01*
X48703Y-39437D01*
X48687Y-39431D01*
X48684Y-39431D01*
X48673Y-39430D01*
X48660Y-39430D01*
X48649Y-39432D01*
X48647Y-39432D01*
X48630Y-39439D01*
X48615Y-39449D01*
X48603Y-39461D01*
X48593Y-39477D01*
X48591Y-39482D01*
X48588Y-39489D01*
X48586Y-39496D01*
X48585Y-39502D01*
X48585Y-39503D01*
X48585Y-39504D01*
X48584Y-39501D01*
X48583Y-39497D01*
X48580Y-39485D01*
X48573Y-39470D01*
X48562Y-39457D01*
X48550Y-39446D01*
X48535Y-39437D01*
X48535Y-39437D01*
X48519Y-39432D01*
X48502Y-39430D01*
X48485Y-39431D01*
X48469Y-39435D01*
X48460Y-39440D01*
X48446Y-39450D01*
X48434Y-39462D01*
X48424Y-39477D01*
X48419Y-39493D01*
X48418Y-39497D01*
X48416Y-39511D01*
X48416Y-39524D01*
X48420Y-39539D01*
X48427Y-39555D01*
X48437Y-39570D01*
X48450Y-39581D01*
X48465Y-39590D01*
X48482Y-39596D01*
X48486Y-39597D01*
X48489Y-39598D01*
X48489Y-39599D01*
X48484Y-39599D01*
X48474Y-39602D01*
X48464Y-39607D01*
X48454Y-39612D01*
X48444Y-39619D01*
X48433Y-39632D01*
X48424Y-39648D01*
X48422Y-39650D01*
X48417Y-39667D01*
X48416Y-39684D01*
X48418Y-39701D01*
X48424Y-39717D01*
X48427Y-39725D01*
X48433Y-39733D01*
X48440Y-39741D01*
X48440Y-39741D01*
X48454Y-39753D01*
X48469Y-39761D01*
X48486Y-39766D01*
X48488Y-39766D01*
X48505Y-39767D01*
X48505Y-39767D01*
G37*
G36*
X40330Y-40609D02*
X40337Y-40605D01*
X40352Y-40596D01*
X40374Y-40581D01*
X40400Y-40564D01*
X40426Y-40546D01*
X40448Y-40532D01*
X40463Y-40522D01*
X40469Y-40519D01*
X40472Y-40520D01*
X40485Y-40526D01*
X40502Y-40535D01*
X40513Y-40541D01*
X40529Y-40548D01*
X40538Y-40549D01*
X40539Y-40547D01*
X40545Y-40535D01*
X40554Y-40513D01*
X40567Y-40485D01*
X40581Y-40451D01*
X40596Y-40415D01*
X40612Y-40379D01*
X40626Y-40344D01*
X40639Y-40312D01*
X40649Y-40286D01*
X40656Y-40269D01*
X40659Y-40261D01*
X40658Y-40259D01*
X40650Y-40251D01*
X40635Y-40241D01*
X40604Y-40215D01*
X40573Y-40177D01*
X40555Y-40134D01*
X40548Y-40085D01*
X40554Y-40040D01*
X40571Y-39998D01*
X40601Y-39959D01*
X40638Y-39930D01*
X40680Y-39912D01*
X40728Y-39906D01*
X40773Y-39911D01*
X40817Y-39929D01*
X40856Y-39958D01*
X40873Y-39977D01*
X40895Y-40016D01*
X40908Y-40058D01*
X40909Y-40069D01*
X40907Y-40115D01*
X40894Y-40159D01*
X40869Y-40198D01*
X40836Y-40231D01*
X40831Y-40234D01*
X40816Y-40246D01*
X40805Y-40254D01*
X40797Y-40260D01*
X40856Y-40402D01*
X40865Y-40424D01*
X40881Y-40463D01*
X40895Y-40496D01*
X40907Y-40523D01*
X40915Y-40541D01*
X40918Y-40548D01*
X40918Y-40548D01*
X40924Y-40549D01*
X40934Y-40545D01*
X40954Y-40536D01*
X40967Y-40529D01*
X40982Y-40522D01*
X40989Y-40519D01*
X40995Y-40522D01*
X41009Y-40531D01*
X41030Y-40545D01*
X41056Y-40563D01*
X41080Y-40579D01*
X41102Y-40594D01*
X41118Y-40604D01*
X41126Y-40608D01*
X41127Y-40608D01*
X41134Y-40604D01*
X41147Y-40594D01*
X41166Y-40576D01*
X41193Y-40549D01*
X41197Y-40544D01*
X41220Y-40522D01*
X41238Y-40503D01*
X41250Y-40489D01*
X41255Y-40483D01*
X41255Y-40483D01*
X41251Y-40475D01*
X41240Y-40459D01*
X41226Y-40436D01*
X41208Y-40410D01*
X41161Y-40342D01*
X41187Y-40278D01*
X41195Y-40258D01*
X41205Y-40234D01*
X41212Y-40217D01*
X41216Y-40210D01*
X41223Y-40207D01*
X41240Y-40203D01*
X41266Y-40198D01*
X41296Y-40192D01*
X41325Y-40187D01*
X41351Y-40182D01*
X41370Y-40178D01*
X41379Y-40177D01*
X41381Y-40175D01*
X41383Y-40171D01*
X41384Y-40162D01*
X41384Y-40146D01*
X41385Y-40121D01*
X41385Y-40085D01*
X41385Y-40081D01*
X41384Y-40047D01*
X41384Y-40019D01*
X41383Y-40002D01*
X41382Y-39995D01*
X41382Y-39995D01*
X41373Y-39993D01*
X41355Y-39989D01*
X41329Y-39984D01*
X41298Y-39978D01*
X41296Y-39977D01*
X41265Y-39971D01*
X41238Y-39966D01*
X41220Y-39962D01*
X41213Y-39959D01*
X41211Y-39957D01*
X41205Y-39945D01*
X41196Y-39926D01*
X41185Y-39902D01*
X41175Y-39878D01*
X41167Y-39856D01*
X41161Y-39839D01*
X41159Y-39832D01*
X41159Y-39832D01*
X41164Y-39824D01*
X41174Y-39808D01*
X41189Y-39786D01*
X41208Y-39759D01*
X41209Y-39757D01*
X41227Y-39731D01*
X41241Y-39709D01*
X41251Y-39693D01*
X41255Y-39686D01*
X41254Y-39685D01*
X41249Y-39678D01*
X41235Y-39663D01*
X41216Y-39643D01*
X41193Y-39619D01*
X41186Y-39612D01*
X41160Y-39587D01*
X41142Y-39571D01*
X41131Y-39562D01*
X41126Y-39560D01*
X41126Y-39560D01*
X41118Y-39565D01*
X41101Y-39576D01*
X41079Y-39591D01*
X41052Y-39609D01*
X41050Y-39611D01*
X41024Y-39629D01*
X41002Y-39643D01*
X40987Y-39654D01*
X40980Y-39658D01*
X40979Y-39658D01*
X40968Y-39655D01*
X40949Y-39648D01*
X40926Y-39639D01*
X40902Y-39629D01*
X40880Y-39620D01*
X40863Y-39613D01*
X40856Y-39608D01*
X40855Y-39608D01*
X40853Y-39598D01*
X40848Y-39579D01*
X40842Y-39552D01*
X40836Y-39519D01*
X40835Y-39514D01*
X40829Y-39483D01*
X40824Y-39457D01*
X40821Y-39439D01*
X40819Y-39432D01*
X40814Y-39431D01*
X40799Y-39430D01*
X40776Y-39429D01*
X40748Y-39429D01*
X40718Y-39429D01*
X40689Y-39430D01*
X40665Y-39430D01*
X40647Y-39432D01*
X40639Y-39433D01*
X40639Y-39434D01*
X40636Y-39443D01*
X40632Y-39463D01*
X40627Y-39490D01*
X40620Y-39522D01*
X40619Y-39528D01*
X40613Y-39559D01*
X40608Y-39585D01*
X40604Y-39603D01*
X40602Y-39610D01*
X40600Y-39611D01*
X40587Y-39617D01*
X40566Y-39625D01*
X40540Y-39636D01*
X40480Y-39660D01*
X40406Y-39610D01*
X40399Y-39605D01*
X40373Y-39587D01*
X40351Y-39572D01*
X40336Y-39563D01*
X40329Y-39559D01*
X40329Y-39559D01*
X40321Y-39566D01*
X40307Y-39579D01*
X40287Y-39599D01*
X40264Y-39622D01*
X40246Y-39639D01*
X40226Y-39660D01*
X40213Y-39674D01*
X40206Y-39683D01*
X40204Y-39688D01*
X40204Y-39692D01*
X40209Y-39699D01*
X40220Y-39716D01*
X40235Y-39738D01*
X40253Y-39764D01*
X40268Y-39786D01*
X40284Y-39811D01*
X40294Y-39828D01*
X40298Y-39837D01*
X40297Y-39841D01*
X40292Y-39855D01*
X40283Y-39877D01*
X40272Y-39903D01*
X40246Y-39961D01*
X40208Y-39969D01*
X40185Y-39973D01*
X40152Y-39979D01*
X40121Y-39985D01*
X40073Y-39995D01*
X40071Y-40172D01*
X40079Y-40175D01*
X40086Y-40177D01*
X40104Y-40181D01*
X40129Y-40186D01*
X40160Y-40192D01*
X40185Y-40197D01*
X40211Y-40202D01*
X40230Y-40205D01*
X40238Y-40207D01*
X40240Y-40210D01*
X40247Y-40222D01*
X40256Y-40242D01*
X40266Y-40266D01*
X40277Y-40291D01*
X40286Y-40314D01*
X40292Y-40332D01*
X40295Y-40341D01*
X40291Y-40348D01*
X40281Y-40363D01*
X40267Y-40385D01*
X40249Y-40411D01*
X40232Y-40436D01*
X40217Y-40459D01*
X40207Y-40474D01*
X40202Y-40482D01*
X40204Y-40487D01*
X40215Y-40499D01*
X40234Y-40519D01*
X40263Y-40548D01*
X40268Y-40552D01*
X40291Y-40575D01*
X40310Y-40593D01*
X40324Y-40605D01*
X40330Y-40609D01*
X40330Y-40609D01*
G37*
G54D11*
X48897Y-34645D02*
G75*
G03X48897Y-34645I-866J0D01*
G74*
G01*
X41811Y-41732D02*
G75*
G03X41811Y-41732I-866J0D01*
G74*
G01*
X41811Y-34645D02*
G75*
G03X41811Y-34645I-866J0D01*
G74*
G01*
X48897Y-41732D02*
G75*
G03X48897Y-41732I-866J0D01*
G74*
G01*
G54D14*
X44242Y-35374D02*
X44242Y-35767D01*
X44734Y-35374D02*
X44734Y-35767D01*
X44734Y-35767D02*
X44734Y-35964D01*
X44242Y-35964D02*
X44242Y-35767D01*
X44734Y-35177D02*
X44734Y-35374D01*
X44242Y-35177D02*
X44242Y-35374D01*
X44734Y-35374D02*
X44242Y-35374D01*
X44242Y-35767D02*
X44734Y-35767D01*
X44734Y-35964D02*
X44625Y-35964D01*
X44350Y-35964D02*
X44242Y-35964D01*
X44242Y-35177D02*
X44350Y-35177D01*
X44734Y-35177D02*
X44625Y-35177D01*
X44527Y-35610D02*
X44449Y-35610D01*
X44449Y-35610D02*
X44449Y-35688D01*
X44527Y-35688D02*
X44449Y-35688D01*
X44527Y-35610D02*
X44527Y-35688D01*
X44625Y-35963D02*
G75*
G03X44351Y-35963I-137J0D01*
G74*
G01*
X44351Y-35177D02*
G75*
G03X44625Y-35177I137J0D01*
G74*
G01*
G54D11*
X43070Y-41003D02*
G75*
G03X43070Y-41003I-196J0D01*
G74*
G01*
X46299Y-41003D02*
G75*
G03X46299Y-41003I-196J0D01*
G74*
G01*
X46299Y-36988D02*
G75*
G03X46299Y-36988I-196J0D01*
G74*
G01*
X43070Y-36988D02*
G75*
G03X43070Y-36988I-196J0D01*
G74*
G01*
X42047Y-41259D02*
X42047Y-36692D01*
X46929Y-36692D02*
X46929Y-41259D01*
X42362Y-36377D02*
X46614Y-36377D01*
X42362Y-41574D02*
X46614Y-41574D01*
X42362Y-36377D02*
G75*
G03X42047Y-36692I0J-314D01*
G74*
G01*
X42047Y-41259D02*
G75*
G03X42362Y-41574I314J0D01*
G74*
G01*
X46614Y-41574D02*
G75*
G03X46929Y-41259I0J314D01*
G74*
G01*
X46929Y-36692D02*
G75*
G03X46614Y-36377I-314J0D01*
G74*
G01*
X43464Y-38385D02*
X45511Y-38385D01*
X45669Y-38976D02*
G75*
G03X45669Y-38976I-1181J0D01*
G74*
G01*
%LPC*%
G54D15*
X41200Y-36220D03*
G54D16*
X40374Y-36220D03*
X41161Y-37007D03*
X40413Y-37007D03*
X41200Y-37795D03*
X40374Y-37795D03*
G54D17*
X45988Y-34251D03*
G54D18*
X44988Y-34251D03*
X43988Y-34251D03*
X42988Y-34251D03*
G54D19*
X48031Y-34645D03*
X40944Y-41732D03*
X40944Y-34645D03*
X48031Y-41732D03*
G54D20*
X44488Y-35157D03*
X44488Y-35983D03*
G54D21*
X43503Y-41929D03*
X45472Y-41929D03*
X44488Y-41929D03*
X45472Y-36220D03*
X43503Y-36220D03*
G54D22*
X46929Y-38976D03*
X42047Y-38976D03*
M02*
