G04 (created by PCBNEW (2013-01-21 BZR 3918)-testing) date Tue 22 Jan 2013 10:21:49 PM CET*
%MOIN*%
G04 Gerber Fmt 3.4, Leading zero omitted, Abs format*
%FSLAX34Y34*%
G01*
G70*
G90*
G04 APERTURE LIST*
%ADD10C,3.14961e-06*%
%ADD11C,0.00984252*%
%ADD12C,0.0688976*%
%ADD13C,0.15748*%
%ADD14O,0.15748X0.15748*%
%ADD15R,0.06X0.06*%
%ADD16C,0.06*%
%ADD17R,0.0314X0.0314*%
%ADD18C,0.0984252*%
%ADD19C,0.025*%
%ADD20C,0.008*%
G04 APERTURE END LIST*
G54D10*
G54D11*
X39960Y-41732D02*
X39960Y-34645D01*
X48031Y-42716D02*
X40944Y-42716D01*
X49015Y-34645D02*
X49015Y-41732D01*
X40944Y-33661D02*
X48031Y-33661D01*
X39960Y-41732D02*
G75*
G03X40944Y-42716I984J0D01*
G74*
G01*
X48031Y-42716D02*
G75*
G03X49015Y-41732I0J984D01*
G74*
G01*
X49015Y-34645D02*
G75*
G03X48031Y-33661I-984J0D01*
G74*
G01*
X40944Y-33661D02*
G75*
G03X39960Y-34645I0J-984D01*
G74*
G01*
G54D12*
X43503Y-41830D03*
X45472Y-41830D03*
X44488Y-41830D03*
X45472Y-36122D03*
X43503Y-36122D03*
G54D13*
X46929Y-38877D03*
G54D14*
X42047Y-38877D03*
G54D15*
X40748Y-39688D03*
G54D16*
X40748Y-38688D03*
X40748Y-37688D03*
X40748Y-36688D03*
G54D15*
X45988Y-34350D03*
G54D16*
X44988Y-34350D03*
X43988Y-34350D03*
X42988Y-34350D03*
G54D17*
X44488Y-35256D03*
X44488Y-35846D03*
G54D18*
X48031Y-41732D03*
X40944Y-34645D03*
X40944Y-41732D03*
X48031Y-34645D03*
G54D19*
X41633Y-36122D03*
X43700Y-38450D03*
X45275Y-38877D03*
X45275Y-39566D03*
X47440Y-37106D03*
X43307Y-36909D03*
X42519Y-36417D03*
X42519Y-35629D03*
X41830Y-35629D03*
X43400Y-39500D03*
X44094Y-36220D03*
X42224Y-35334D03*
X46000Y-41150D03*
G54D20*
X41633Y-36122D02*
X43503Y-36122D01*
X42811Y-37201D02*
X43700Y-38089D01*
X41149Y-37688D02*
X41637Y-37201D01*
X41149Y-37688D02*
X40748Y-37688D01*
X41637Y-37201D02*
X42811Y-37201D01*
X43700Y-38089D02*
X43700Y-38450D01*
X45275Y-39566D02*
X45275Y-38877D01*
X45078Y-34842D02*
X46850Y-36614D01*
X43988Y-34350D02*
X44480Y-34842D01*
X44480Y-34842D02*
X45078Y-34842D01*
X47440Y-37007D02*
X47440Y-37106D01*
X47047Y-36614D02*
X47440Y-37007D01*
X46850Y-36614D02*
X47047Y-36614D01*
X43011Y-36909D02*
X43307Y-36909D01*
X42519Y-36417D02*
X43011Y-36909D01*
X41830Y-35629D02*
X42519Y-35629D01*
X40748Y-38688D02*
X40748Y-38551D01*
X43400Y-38250D02*
X43400Y-39500D01*
X42600Y-37450D02*
X43400Y-38250D01*
X41850Y-37450D02*
X42600Y-37450D01*
X40748Y-38551D02*
X41850Y-37450D01*
X44488Y-35846D02*
X44546Y-35787D01*
X45137Y-35787D02*
X45472Y-36122D01*
X44546Y-35787D02*
X45137Y-35787D01*
X44094Y-36220D02*
X44783Y-36220D01*
X44881Y-36122D02*
X45472Y-36122D01*
X44783Y-36220D02*
X44881Y-36122D01*
X45374Y-36220D02*
X45472Y-36122D01*
X44488Y-41830D02*
X44488Y-37106D01*
X44488Y-37106D02*
X45472Y-36122D01*
X42224Y-35334D02*
X42302Y-35256D01*
X42302Y-35256D02*
X44488Y-35256D01*
X46000Y-41150D02*
X46350Y-41150D01*
X46062Y-35137D02*
X45775Y-35137D01*
X44988Y-34350D02*
X45775Y-35137D01*
X48031Y-39960D02*
X48031Y-37106D01*
X47539Y-40452D02*
X48031Y-39960D01*
X47047Y-40452D02*
X47539Y-40452D01*
X48031Y-37106D02*
X46062Y-35137D01*
X46350Y-41150D02*
X47047Y-40452D01*
M02*
