G04 (created by PCBNEW (2013-02-11 BZR 3943)-testing) date Wed 13 Feb 2013 08:42:27 PM CET*
%MOIN*%
G04 Gerber Fmt 3.4, Leading zero omitted, Abs format*
%FSLAX34Y34*%
G01*
G70*
G90*
G04 APERTURE LIST*
%ADD10C,3.14961e-06*%
%ADD11C,0.00787402*%
%ADD12C,0.00393701*%
%ADD13C,0.0001*%
%ADD14C,0.0026*%
%ADD15C,0.002*%
%ADD16C,0.004*%
%ADD17R,0.0511811X0.0511811*%
%ADD18C,0.0511811*%
%ADD19R,0.0649606X0.0649606*%
%ADD20C,0.0649606*%
%ADD21R,0.0275591X0.0866142*%
%ADD22C,0.0688976*%
%ADD23C,0.15748*%
%ADD24O,0.15748X0.15748*%
%ADD25R,0.059X0.0511*%
%ADD26C,0.0984252*%
%ADD27R,0.0314X0.0314*%
G04 APERTURE END LIST*
G54D10*
G54D11*
X45834Y-35284D02*
X46134Y-35284D01*
X44850Y-35284D02*
X45149Y-35284D01*
X45000Y-35434D02*
X45000Y-35134D01*
X43172Y-34993D02*
X43190Y-35049D01*
X43190Y-35143D01*
X43172Y-35180D01*
X43153Y-35199D01*
X43115Y-35218D01*
X43078Y-35218D01*
X43040Y-35199D01*
X43022Y-35180D01*
X43003Y-35143D01*
X42984Y-35068D01*
X42965Y-35030D01*
X42947Y-35012D01*
X42909Y-34993D01*
X42872Y-34993D01*
X42834Y-35012D01*
X42815Y-35030D01*
X42797Y-35068D01*
X42797Y-35162D01*
X42815Y-35218D01*
X42797Y-35330D02*
X42797Y-35555D01*
X43190Y-35443D02*
X42797Y-35443D01*
X44175Y-35000D02*
X43781Y-35000D01*
X43781Y-35093D01*
X43800Y-35149D01*
X43837Y-35187D01*
X43875Y-35206D01*
X43950Y-35224D01*
X44006Y-35224D01*
X44081Y-35206D01*
X44118Y-35187D01*
X44156Y-35149D01*
X44175Y-35093D01*
X44175Y-35000D01*
X44175Y-35393D02*
X43781Y-35393D01*
X48129Y-33562D02*
X40846Y-33562D01*
X49114Y-41830D02*
X49114Y-34547D01*
X40846Y-42814D02*
X48129Y-42814D01*
X39862Y-34547D02*
X39862Y-41830D01*
X39862Y-41830D02*
G75*
G03X40846Y-42814I984J0D01*
G74*
G01*
X48129Y-42814D02*
G75*
G03X49114Y-41830I0J984D01*
G74*
G01*
X49114Y-34547D02*
G75*
G03X48129Y-33562I-984J0D01*
G74*
G01*
X40846Y-33562D02*
G75*
G03X39862Y-34547I0J-984D01*
G74*
G01*
X41732Y-35629D02*
G75*
G03X41732Y-35629I-98J0D01*
G74*
G01*
X40157Y-35826D02*
X40157Y-38188D01*
X40157Y-38188D02*
X41732Y-38188D01*
X41732Y-38188D02*
X41732Y-35826D01*
X41732Y-35826D02*
X40157Y-35826D01*
X45488Y-34751D02*
X45488Y-33751D01*
X46488Y-34751D02*
X42488Y-34751D01*
X42488Y-34751D02*
X42488Y-33751D01*
X42488Y-33751D02*
X46488Y-33751D01*
X46488Y-33751D02*
X46488Y-34751D01*
X44055Y-38385D02*
G75*
G03X44055Y-38385I-137J0D01*
G74*
G01*
X43307Y-41141D02*
X45669Y-41141D01*
X45669Y-41141D02*
X45669Y-36811D01*
X45669Y-36811D02*
X43307Y-36811D01*
X43307Y-36811D02*
X43307Y-41141D01*
G54D12*
X43813Y-37926D02*
X43813Y-37376D01*
X43813Y-37376D02*
X43663Y-37376D01*
X43663Y-37376D02*
X43663Y-37926D01*
X44313Y-37926D02*
X44313Y-37376D01*
X44313Y-37376D02*
X44163Y-37376D01*
X44163Y-37376D02*
X44163Y-37926D01*
X44813Y-37926D02*
X44813Y-37376D01*
X44813Y-37376D02*
X44663Y-37376D01*
X44663Y-37376D02*
X44663Y-37926D01*
X45313Y-37926D02*
X45313Y-37376D01*
X45313Y-37376D02*
X45163Y-37376D01*
X45163Y-37376D02*
X45163Y-37926D01*
X43663Y-40026D02*
X43663Y-40576D01*
X43663Y-40576D02*
X43813Y-40576D01*
X43813Y-40576D02*
X43813Y-40026D01*
X44163Y-40026D02*
X44163Y-40576D01*
X44163Y-40576D02*
X44313Y-40576D01*
X44313Y-40576D02*
X44313Y-40026D01*
X44663Y-40026D02*
X44663Y-40576D01*
X44663Y-40576D02*
X44813Y-40576D01*
X44813Y-40576D02*
X44813Y-40026D01*
X45163Y-40576D02*
X45313Y-40576D01*
X45163Y-40026D02*
X45163Y-40576D01*
X45313Y-40576D02*
X45313Y-40026D01*
G54D11*
X45511Y-40019D02*
X45511Y-37933D01*
X45511Y-37933D02*
X43464Y-37933D01*
X43464Y-37933D02*
X43464Y-40019D01*
X43464Y-40019D02*
X45511Y-40019D01*
G54D13*
G36*
X40330Y-40609D02*
X40337Y-40605D01*
X40352Y-40596D01*
X40374Y-40581D01*
X40400Y-40564D01*
X40426Y-40546D01*
X40448Y-40532D01*
X40463Y-40522D01*
X40469Y-40519D01*
X40472Y-40520D01*
X40485Y-40526D01*
X40502Y-40535D01*
X40513Y-40541D01*
X40529Y-40548D01*
X40538Y-40549D01*
X40539Y-40547D01*
X40545Y-40535D01*
X40554Y-40513D01*
X40567Y-40485D01*
X40581Y-40451D01*
X40596Y-40415D01*
X40612Y-40379D01*
X40626Y-40344D01*
X40639Y-40312D01*
X40649Y-40286D01*
X40656Y-40269D01*
X40659Y-40261D01*
X40658Y-40259D01*
X40650Y-40251D01*
X40635Y-40241D01*
X40604Y-40215D01*
X40573Y-40177D01*
X40555Y-40134D01*
X40548Y-40085D01*
X40554Y-40040D01*
X40571Y-39998D01*
X40601Y-39959D01*
X40638Y-39930D01*
X40680Y-39912D01*
X40728Y-39906D01*
X40773Y-39911D01*
X40817Y-39929D01*
X40856Y-39958D01*
X40873Y-39977D01*
X40895Y-40016D01*
X40908Y-40058D01*
X40909Y-40069D01*
X40907Y-40115D01*
X40894Y-40159D01*
X40869Y-40198D01*
X40836Y-40231D01*
X40831Y-40234D01*
X40816Y-40246D01*
X40805Y-40254D01*
X40797Y-40260D01*
X40856Y-40402D01*
X40865Y-40424D01*
X40881Y-40463D01*
X40895Y-40496D01*
X40907Y-40523D01*
X40915Y-40541D01*
X40918Y-40548D01*
X40918Y-40548D01*
X40924Y-40549D01*
X40934Y-40545D01*
X40954Y-40536D01*
X40967Y-40529D01*
X40982Y-40522D01*
X40989Y-40519D01*
X40995Y-40522D01*
X41009Y-40531D01*
X41030Y-40545D01*
X41056Y-40563D01*
X41080Y-40579D01*
X41102Y-40594D01*
X41118Y-40604D01*
X41126Y-40608D01*
X41127Y-40608D01*
X41134Y-40604D01*
X41147Y-40594D01*
X41166Y-40576D01*
X41193Y-40549D01*
X41197Y-40544D01*
X41220Y-40522D01*
X41238Y-40503D01*
X41250Y-40489D01*
X41255Y-40483D01*
X41255Y-40483D01*
X41251Y-40475D01*
X41240Y-40459D01*
X41226Y-40436D01*
X41208Y-40410D01*
X41161Y-40342D01*
X41187Y-40278D01*
X41195Y-40258D01*
X41205Y-40234D01*
X41212Y-40217D01*
X41216Y-40210D01*
X41223Y-40207D01*
X41240Y-40203D01*
X41266Y-40198D01*
X41296Y-40192D01*
X41325Y-40187D01*
X41351Y-40182D01*
X41370Y-40178D01*
X41379Y-40177D01*
X41381Y-40175D01*
X41383Y-40171D01*
X41384Y-40162D01*
X41384Y-40146D01*
X41385Y-40121D01*
X41385Y-40085D01*
X41385Y-40081D01*
X41384Y-40047D01*
X41384Y-40019D01*
X41383Y-40002D01*
X41382Y-39995D01*
X41382Y-39995D01*
X41373Y-39993D01*
X41355Y-39989D01*
X41329Y-39984D01*
X41298Y-39978D01*
X41296Y-39977D01*
X41265Y-39971D01*
X41238Y-39966D01*
X41220Y-39962D01*
X41213Y-39959D01*
X41211Y-39957D01*
X41205Y-39945D01*
X41196Y-39926D01*
X41185Y-39902D01*
X41175Y-39878D01*
X41167Y-39856D01*
X41161Y-39839D01*
X41159Y-39832D01*
X41159Y-39832D01*
X41164Y-39824D01*
X41174Y-39808D01*
X41189Y-39786D01*
X41208Y-39759D01*
X41209Y-39757D01*
X41227Y-39731D01*
X41241Y-39709D01*
X41251Y-39693D01*
X41255Y-39686D01*
X41254Y-39685D01*
X41249Y-39678D01*
X41235Y-39663D01*
X41216Y-39643D01*
X41193Y-39619D01*
X41186Y-39612D01*
X41160Y-39587D01*
X41142Y-39571D01*
X41131Y-39562D01*
X41126Y-39560D01*
X41126Y-39560D01*
X41118Y-39565D01*
X41101Y-39576D01*
X41079Y-39591D01*
X41052Y-39609D01*
X41050Y-39611D01*
X41024Y-39629D01*
X41002Y-39643D01*
X40987Y-39654D01*
X40980Y-39658D01*
X40979Y-39658D01*
X40968Y-39655D01*
X40949Y-39648D01*
X40926Y-39639D01*
X40902Y-39629D01*
X40880Y-39620D01*
X40863Y-39613D01*
X40856Y-39608D01*
X40855Y-39608D01*
X40853Y-39598D01*
X40848Y-39579D01*
X40842Y-39552D01*
X40836Y-39519D01*
X40835Y-39514D01*
X40829Y-39483D01*
X40824Y-39457D01*
X40821Y-39439D01*
X40819Y-39432D01*
X40814Y-39431D01*
X40799Y-39430D01*
X40776Y-39429D01*
X40748Y-39429D01*
X40718Y-39429D01*
X40689Y-39430D01*
X40665Y-39430D01*
X40647Y-39432D01*
X40639Y-39433D01*
X40639Y-39434D01*
X40636Y-39443D01*
X40632Y-39463D01*
X40627Y-39490D01*
X40620Y-39522D01*
X40619Y-39528D01*
X40613Y-39559D01*
X40608Y-39585D01*
X40604Y-39603D01*
X40602Y-39610D01*
X40600Y-39611D01*
X40587Y-39617D01*
X40566Y-39625D01*
X40540Y-39636D01*
X40480Y-39660D01*
X40406Y-39610D01*
X40399Y-39605D01*
X40373Y-39587D01*
X40351Y-39572D01*
X40336Y-39563D01*
X40329Y-39559D01*
X40329Y-39559D01*
X40321Y-39566D01*
X40307Y-39579D01*
X40287Y-39599D01*
X40264Y-39622D01*
X40246Y-39639D01*
X40226Y-39660D01*
X40213Y-39674D01*
X40206Y-39683D01*
X40204Y-39688D01*
X40204Y-39692D01*
X40209Y-39699D01*
X40220Y-39716D01*
X40235Y-39738D01*
X40253Y-39764D01*
X40268Y-39786D01*
X40284Y-39811D01*
X40294Y-39828D01*
X40298Y-39837D01*
X40297Y-39841D01*
X40292Y-39855D01*
X40283Y-39877D01*
X40272Y-39903D01*
X40246Y-39961D01*
X40208Y-39969D01*
X40185Y-39973D01*
X40152Y-39979D01*
X40121Y-39985D01*
X40073Y-39995D01*
X40071Y-40172D01*
X40079Y-40175D01*
X40086Y-40177D01*
X40104Y-40181D01*
X40129Y-40186D01*
X40160Y-40192D01*
X40185Y-40197D01*
X40211Y-40202D01*
X40230Y-40205D01*
X40238Y-40207D01*
X40240Y-40210D01*
X40247Y-40222D01*
X40256Y-40242D01*
X40266Y-40266D01*
X40277Y-40291D01*
X40286Y-40314D01*
X40292Y-40332D01*
X40295Y-40341D01*
X40291Y-40348D01*
X40281Y-40363D01*
X40267Y-40385D01*
X40249Y-40411D01*
X40232Y-40436D01*
X40217Y-40459D01*
X40207Y-40474D01*
X40202Y-40482D01*
X40204Y-40487D01*
X40215Y-40499D01*
X40234Y-40519D01*
X40263Y-40548D01*
X40268Y-40552D01*
X40291Y-40575D01*
X40310Y-40593D01*
X40324Y-40605D01*
X40330Y-40609D01*
X40330Y-40609D01*
G37*
G54D14*
X47746Y-37633D02*
X47746Y-37338D01*
X47746Y-37338D02*
X48316Y-37338D01*
X48316Y-37633D02*
X48316Y-37338D01*
X47746Y-37633D02*
X48316Y-37633D01*
X47746Y-37064D02*
X47746Y-36769D01*
X47746Y-36769D02*
X48316Y-36769D01*
X48316Y-37064D02*
X48316Y-36769D01*
X47746Y-37064D02*
X48316Y-37064D01*
X47874Y-37243D02*
X47874Y-37165D01*
X47874Y-37165D02*
X48188Y-37165D01*
X48188Y-37243D02*
X48188Y-37165D01*
X47874Y-37243D02*
X48188Y-37243D01*
G54D15*
X48418Y-37980D02*
X48418Y-36428D01*
X47644Y-36428D02*
X47644Y-37980D01*
X47644Y-37980D02*
X48418Y-37980D01*
G54D16*
X48290Y-37354D02*
X48290Y-37054D01*
X47772Y-37344D02*
X47772Y-37054D01*
G54D15*
X48418Y-36428D02*
X47644Y-36428D01*
G54D11*
X46008Y-36905D02*
X46008Y-37505D01*
X46008Y-37505D02*
X46308Y-37505D01*
X46308Y-37505D02*
X46308Y-36905D01*
X46308Y-36905D02*
X46008Y-36905D01*
X44335Y-35744D02*
X44335Y-36344D01*
X44335Y-36344D02*
X44635Y-36344D01*
X44635Y-36344D02*
X44635Y-35744D01*
X44635Y-35744D02*
X44335Y-35744D01*
X42278Y-37503D02*
X42278Y-36903D01*
X42278Y-36903D02*
X41978Y-36903D01*
X41978Y-36903D02*
X41978Y-37503D01*
X41978Y-37503D02*
X42278Y-37503D01*
X46952Y-40339D02*
X46352Y-40339D01*
X46352Y-40339D02*
X46352Y-40639D01*
X46352Y-40639D02*
X46952Y-40639D01*
X46952Y-40639D02*
X46952Y-40339D01*
X42023Y-40645D02*
X42623Y-40645D01*
X42623Y-40645D02*
X42623Y-40345D01*
X42623Y-40345D02*
X42023Y-40345D01*
X42023Y-40345D02*
X42023Y-40645D01*
X46697Y-36905D02*
X46697Y-37505D01*
X46697Y-37505D02*
X46997Y-37505D01*
X46997Y-37505D02*
X46997Y-36905D01*
X46997Y-36905D02*
X46697Y-36905D01*
X42662Y-36905D02*
X42662Y-37505D01*
X42662Y-37505D02*
X42962Y-37505D01*
X42962Y-37505D02*
X42962Y-36905D01*
X42962Y-36905D02*
X42662Y-36905D01*
X40974Y-38781D02*
X40974Y-38387D01*
X40806Y-38762D02*
X40749Y-38781D01*
X40656Y-38781D01*
X40618Y-38762D01*
X40599Y-38743D01*
X40581Y-38706D01*
X40581Y-38668D01*
X40599Y-38631D01*
X40618Y-38612D01*
X40656Y-38593D01*
X40731Y-38575D01*
X40768Y-38556D01*
X40787Y-38537D01*
X40806Y-38500D01*
X40806Y-38462D01*
X40787Y-38425D01*
X40768Y-38406D01*
X40731Y-38387D01*
X40637Y-38387D01*
X40581Y-38406D01*
X40412Y-38781D02*
X40412Y-38387D01*
X40262Y-38387D01*
X40224Y-38406D01*
X40206Y-38425D01*
X40187Y-38462D01*
X40187Y-38518D01*
X40206Y-38556D01*
X40224Y-38575D01*
X40262Y-38593D01*
X40412Y-38593D01*
X44872Y-39135D02*
X44872Y-38742D01*
X44460Y-39098D02*
X44478Y-39116D01*
X44535Y-39135D01*
X44572Y-39135D01*
X44628Y-39116D01*
X44666Y-39079D01*
X44685Y-39041D01*
X44703Y-38967D01*
X44703Y-38910D01*
X44685Y-38835D01*
X44666Y-38798D01*
X44628Y-38760D01*
X44572Y-38742D01*
X44535Y-38742D01*
X44478Y-38760D01*
X44460Y-38779D01*
X44085Y-39135D02*
X44310Y-39135D01*
X44197Y-39135D02*
X44197Y-38742D01*
X44235Y-38798D01*
X44272Y-38835D01*
X44310Y-38854D01*
X48097Y-36243D02*
X48115Y-36262D01*
X48172Y-36281D01*
X48209Y-36281D01*
X48265Y-36262D01*
X48303Y-36225D01*
X48322Y-36187D01*
X48340Y-36112D01*
X48340Y-36056D01*
X48322Y-35981D01*
X48303Y-35943D01*
X48265Y-35906D01*
X48209Y-35887D01*
X48172Y-35887D01*
X48115Y-35906D01*
X48097Y-35925D01*
X47722Y-36281D02*
X47947Y-36281D01*
X47834Y-36281D02*
X47834Y-35887D01*
X47872Y-35943D01*
X47909Y-35981D01*
X47947Y-36000D01*
X46340Y-36154D02*
X46152Y-36023D01*
X46340Y-35929D02*
X45946Y-35929D01*
X45946Y-36079D01*
X45965Y-36117D01*
X45984Y-36136D01*
X46021Y-36154D01*
X46077Y-36154D01*
X46115Y-36136D01*
X46134Y-36117D01*
X46152Y-36079D01*
X46152Y-35929D01*
X45946Y-36492D02*
X45946Y-36417D01*
X45965Y-36379D01*
X45984Y-36361D01*
X46040Y-36323D01*
X46115Y-36304D01*
X46265Y-36304D01*
X46302Y-36323D01*
X46321Y-36342D01*
X46340Y-36379D01*
X46340Y-36454D01*
X46321Y-36492D01*
X46302Y-36511D01*
X46265Y-36529D01*
X46171Y-36529D01*
X46134Y-36511D01*
X46115Y-36492D01*
X46096Y-36454D01*
X46096Y-36379D01*
X46115Y-36342D01*
X46134Y-36323D01*
X46171Y-36304D01*
X42285Y-36154D02*
X42097Y-36023D01*
X42285Y-35929D02*
X41891Y-35929D01*
X41891Y-36079D01*
X41910Y-36117D01*
X41929Y-36136D01*
X41966Y-36154D01*
X42022Y-36154D01*
X42060Y-36136D01*
X42079Y-36117D01*
X42097Y-36079D01*
X42097Y-35929D01*
X41891Y-36286D02*
X41891Y-36529D01*
X42041Y-36398D01*
X42041Y-36454D01*
X42060Y-36492D01*
X42079Y-36511D01*
X42116Y-36529D01*
X42210Y-36529D01*
X42247Y-36511D01*
X42266Y-36492D01*
X42285Y-36454D01*
X42285Y-36342D01*
X42266Y-36304D01*
X42247Y-36286D01*
X46719Y-41222D02*
X46850Y-41034D01*
X46944Y-41222D02*
X46944Y-40828D01*
X46794Y-40828D01*
X46756Y-40847D01*
X46737Y-40866D01*
X46719Y-40903D01*
X46719Y-40959D01*
X46737Y-40997D01*
X46756Y-41016D01*
X46794Y-41034D01*
X46944Y-41034D01*
X46569Y-40866D02*
X46550Y-40847D01*
X46512Y-40828D01*
X46419Y-40828D01*
X46381Y-40847D01*
X46362Y-40866D01*
X46344Y-40903D01*
X46344Y-40941D01*
X46362Y-40997D01*
X46587Y-41222D01*
X46344Y-41222D01*
X42388Y-41222D02*
X42519Y-41034D01*
X42613Y-41222D02*
X42613Y-40828D01*
X42463Y-40828D01*
X42425Y-40847D01*
X42407Y-40866D01*
X42388Y-40903D01*
X42388Y-40959D01*
X42407Y-40997D01*
X42425Y-41016D01*
X42463Y-41034D01*
X42613Y-41034D01*
X42013Y-41222D02*
X42238Y-41222D01*
X42125Y-41222D02*
X42125Y-40828D01*
X42163Y-40884D01*
X42200Y-40922D01*
X42238Y-40941D01*
X47009Y-36154D02*
X46822Y-36023D01*
X47009Y-35929D02*
X46616Y-35929D01*
X46616Y-36079D01*
X46634Y-36117D01*
X46653Y-36136D01*
X46691Y-36154D01*
X46747Y-36154D01*
X46784Y-36136D01*
X46803Y-36117D01*
X46822Y-36079D01*
X46822Y-35929D01*
X46747Y-36492D02*
X47009Y-36492D01*
X46597Y-36398D02*
X46878Y-36304D01*
X46878Y-36548D01*
X42994Y-36154D02*
X42806Y-36023D01*
X42994Y-35929D02*
X42600Y-35929D01*
X42600Y-36079D01*
X42619Y-36117D01*
X42637Y-36136D01*
X42675Y-36154D01*
X42731Y-36154D01*
X42769Y-36136D01*
X42787Y-36117D01*
X42806Y-36079D01*
X42806Y-35929D01*
X42600Y-36511D02*
X42600Y-36323D01*
X42787Y-36304D01*
X42769Y-36323D01*
X42750Y-36361D01*
X42750Y-36454D01*
X42769Y-36492D01*
X42787Y-36511D01*
X42825Y-36529D01*
X42919Y-36529D01*
X42956Y-36511D01*
X42975Y-36492D01*
X42994Y-36454D01*
X42994Y-36361D01*
X42975Y-36323D01*
X42956Y-36304D01*
%LPC*%
G54D17*
X41338Y-36220D03*
G54D18*
X40551Y-36220D03*
X41338Y-37007D03*
X40551Y-37007D03*
X41338Y-37795D03*
X40551Y-37795D03*
G54D19*
X45988Y-34251D03*
G54D20*
X44988Y-34251D03*
X43988Y-34251D03*
X42988Y-34251D03*
G54D21*
X43738Y-37476D03*
X44238Y-37476D03*
X44738Y-37476D03*
X45238Y-37476D03*
X45238Y-40476D03*
X44738Y-40476D03*
X44238Y-40476D03*
X43738Y-40476D03*
G54D22*
X43503Y-41929D03*
X45472Y-41929D03*
X44488Y-41929D03*
X45472Y-36220D03*
X43503Y-36220D03*
G54D23*
X46929Y-38976D03*
G54D24*
X42047Y-38976D03*
G54D25*
X48031Y-37578D03*
X48031Y-36830D03*
G54D26*
X48031Y-34645D03*
X40944Y-41732D03*
X40944Y-34645D03*
X48031Y-41732D03*
G54D27*
X46158Y-37500D03*
X46158Y-36910D03*
X44485Y-36339D03*
X44485Y-35749D03*
X42128Y-36908D03*
X42128Y-37498D03*
X46357Y-40489D03*
X46947Y-40489D03*
X42618Y-40495D03*
X42028Y-40495D03*
X46847Y-37500D03*
X46847Y-36910D03*
X42812Y-37500D03*
X42812Y-36910D03*
M02*
